<svg xmlns="http://www.w3.org/2000/svg" xmlns:xlink="http://www.w3.org/1999/xlink" width="261" height="145" viewBox="0 0 261 145">
  <defs>
    <clipPath id="clip-path">
      <rect id="Rectángulo_455002" data-name="Rectángulo 455002" width="261" height="145" rx="25" transform="translate(321 5407.711)" fill="#fffae6"/>
    </clipPath>
  </defs>
  <g id="Grupo_1204660" data-name="Grupo 1204660" transform="translate(-321.941 -5872.222)">
    <path id="Trazado_1269385" data-name="Trazado 1269385" d="M25,0H236a25,25,0,0,1,25,25v95a25,25,0,0,1-25,25H25A25,25,0,0,1,0,120V25A25,25,0,0,1,25,0Z" transform="translate(321.941 5872.222)" fill="#fee383"/>
    <g id="Enmascarar_grupo_1119149" data-name="Enmascarar grupo 1119149" transform="translate(0.941 464.512)" clip-path="url(#clip-path)">
      <g id="Corte-Tela" transform="translate(246.445 5327.12)">
        <g id="Grupo_1204407" data-name="Grupo 1204407" transform="translate(131.28 87.076)" opacity="0.5">
          <path id="Trazado_1268931" data-name="Trazado 1268931" d="M602.386,186.624a78.285,78.285,0,0,0-4.078-11.792,67.677,67.677,0,0,0-5.246-9.2c-4.728-7.2-11.082-13.2-17.942-18.35-6.734-4.844-14.283-8.337-21.86-11.622a82.358,82.358,0,0,1-20-12.266c-.546-.463-1.075-.926-1.6-1.383,6.436,3.433,13.021,6.657,19.606,9.8,3.714,1.758,7.439,3.488,11.049,5.45,5.477,2.794,10.222,6.794,15.022,10.6a128.071,128.071,0,0,1,11.528,10.057c2.309,2.133,4.4,4.783,6.552,6.844,1.35.336-.419-2.838-.92-4.034a74.023,74.023,0,0,0-11.082-16.95,64.731,64.731,0,0,0-11.192-10.459c-7.274-5.279-15.2-9.561-22.384-14.977a113.111,113.111,0,0,1-12.531-10.762c-4.342-4.21-8.3-8.833-12.95-12.718-4.072-3.422-8.734-6.321-14-7.417-5.6-1.367-11.666,1.014-10.024,7.693a18.991,18.991,0,0,0,4.574,7.2h-.011a48.592,48.592,0,0,0-8.211-2.48,21.05,21.05,0,0,0-7.379-.468c-12.652,1.537-24.681,10.051-31.443,20.714a53.928,53.928,0,0,0-4.778,9.473,70.163,70.163,0,0,0-3.45,10.63,74.047,74.047,0,0,0-.667,26.191c-.92,9.665-1.962,19.386-4.552,28.776-2.617,9.252-6.756,18.041-8.866,27.442a40.425,40.425,0,0,0-.088,15.2,25.128,25.128,0,0,0,3.3,8.74c8.712,10.608,23.789,10.117,36.32,10.4a90.25,90.25,0,0,1,17.859,1.5c11.776,2.562,23.348,6.668,35.543,6.574a87.283,87.283,0,0,0,8.988-.281,84.914,84.914,0,0,0,19.959-5,98.609,98.609,0,0,0,14.189-6.579,83.8,83.8,0,0,0,12.162-8.971,71.7,71.7,0,0,0,18.78-29.294c2.717-9.186,2.215-19.094-.176-28.3Z" transform="translate(-418.071 -87.076)" fill="#ddc9b8"/>
          <path id="Trazado_1268932" data-name="Trazado 1268932" d="M144.727,1251.593c-.2-1.1-.331-2.182-.435-3.3a54.425,54.425,0,0,1,.077-9.847,65.575,65.575,0,0,1,3.918-16.41c2.171-5.913,4.838-11.638,6.783-17.634a60,60,0,0,0,2.573-12.206,54.667,54.667,0,0,0-.54-12.691c-1.4-7.8-3.918-17.088-11.781-20.62a10.764,10.764,0,0,0-8.26-.309c-4.932,2.314-6.232,8.315-5.654,13.3.342,4.453,2.182,8.58,3.764,12.7,1.433,3.681,2.794,7.4,3.946,11.181a84.6,84.6,0,0,1,3.312,26.627c-.259,5.94-1.014,11.864-.9,17.815a27.739,27.739,0,0,0,2.066,11.208,20.89,20.89,0,0,0,1.064,2.066,5.785,5.785,0,0,0,1.378,2.689,4.429,4.429,0,0,1-.59-1.488,12.026,12.026,0,0,0,1.256,1.389c-.342-.689-.76-1.389-1.157-2.072a5.377,5.377,0,0,1-.81-2.386Z" transform="translate(-131.28 -1098.891)" fill="#ddc9b8"/>
        </g>
        <path id="Trazado_1268933" data-name="Trazado 1268933" d="M1442.859,1194.209c.182,6.232-.65,12.465-1.372,18.642-.281,2.375-.452,4.767-.557,7.158-.127,2.166-.286,4.485-1.637,6.271-1.157,1.273-3.119.876-4.667,1.031q-3.4.091-6.8.176-10.729.24-21.447.97c-.4,0-.942,0-1.119-.435a18.76,18.76,0,0,1-.165-2.3,59.368,59.368,0,0,0-.722-7.323c-1.207-7.935-3.13-15.826-3.174-23.888a35.475,35.475,0,0,1,2.766-14.713,41.387,41.387,0,0,1,3.273-6.083c.171-.2.38-.358.557-.535a8.438,8.438,0,0,1-.9,2.05,20.5,20.5,0,0,1,5.02-5.136,6.891,6.891,0,0,1,3.918-.821,67.162,67.162,0,0,0,7.434-.573c2.292-.286,4.579-.606,6.872-.882.794-.094,1.581-.182,2.375-.242.518-.044,1.218-.061,1.438.518,1.334,3.086,2.744,6.117,4.375,9.059a37.124,37.124,0,0,1,4.524,17.072Z" transform="translate(-1199.941 -1020.937)" fill="#344439"/>
        <path id="Trazado_1268934" data-name="Trazado 1268934" d="M1435.446,550.574c.419.4.088.959-.165,1.356-.3.5-.59.992-.849,1.5a12.935,12.935,0,0,0-1.383,5.053c-.127,2.926.369,5.847.209,8.778a39.827,39.827,0,0,1-1.5,9.495c-.794,2.629-2.221,5.1-2.364,7.885-.276,2.921.645,6.095-.678,8.833a5.657,5.657,0,0,1-1.438,1.482,24.848,24.848,0,0,1-3.863,2.584,18.2,18.2,0,0,1-10.718,2.155c-5.318-.441-10.856-1.554-15.126-4.937-.9-.76-2.177-1.67-2.144-2.965.077-.667.656-1.119,1.036-1.626a7.87,7.87,0,0,0,1.394-2.182c.485-1.719.154-3.549.116-5.312-.121-3.709-1.025-7.367-.854-11.087.16-2.309,1.113-4.568.849-6.894-.353-3.587-1.758-7.3-4.645-9.572a.488.488,0,0,1-.424-.364l-.083-.066h-.011c0-.028.055,0,.077,0-.066-1.653,5.081-4.767,6.547-5.444,3.405-1.8,7.208-.727,10.784-.242a13.984,13.984,0,0,0,3.18-.226c7.18-1.245,9.192-3.367,16.84-.479.727.292,1.433.617,2.166.9a13.171,13.171,0,0,1,3.042,1.367Z" transform="translate(-1192.004 -434.446)" fill="#9a9b7b"/>
        <path id="Trazado_1268935" data-name="Trazado 1268935" d="M1712.514,689.769c.126,2.061.4,4.326-.755,6.161a6.756,6.756,0,0,1-6.15,2.8c-3.89-.468-5.582-2.557-5.725-6.4a15.253,15.253,0,0,1,.005-1.664c.028-.011.061.083.083.11.672-1.526,2.425.187,3.521.237a13.344,13.344,0,0,0,7.031-1.2C1711.136,689.631,1712.447,688.507,1712.514,689.769Z" transform="translate(-1482.143 -568.923)" fill="#dca593"/>
        <path id="Trazado_1268936" data-name="Trazado 1268936" d="M1723.659,736.206c.016-.017,0,.05,0,.055-.165,2.2-2.276,3.444-4.083,4.287a6.117,6.117,0,0,1-5.229.435,7.547,7.547,0,0,1-2.447-1.863c-.253-.331-.837-.8-.419-1.218.4-.3.986.154,1.4.209,2.088.518,4.287-.083,6.3-.6.744-.193,1.471-.43,2.2-.661.507-.187,1.411-.3,1.571.386a8.635,8.635,0,0,0,.705-1.042Z" transform="translate(-1492.985 -613.354)" fill="#c78c76"/>
        <path id="Trazado_1268937" data-name="Trazado 1268937" d="M1622.542,504.509a18.062,18.062,0,0,1,.469,5.962c-.155,2.4-.661,4.954-2.347,6.75-2.26,2.4-5.7,4.607-9.109,3.758-4.75-1.267-6.6-6.293-7.682-10.6a3.35,3.35,0,0,0-.92-1.212,4.079,4.079,0,0,1-.832-2.97c.331-1.565,1.785.281,2.447.645,2.166,1.879,5.29,1.234,7.6-.022,2.551-1.295,3.9-2.507,6.739-1h0a3.247,3.247,0,0,0,3.262-.534c.248-.309.132-.755.242-1.086l.132.314Z" transform="translate(-1389.763 -394.138)" fill="#dca593"/>
        <path id="Trazado_1268938" data-name="Trazado 1268938" d="M1512.017,192.89c.154-1.124.457-2.243.628-3.361a17.908,17.908,0,0,0,.1-3.025c.072-.287.149-.579.231-.887a10.374,10.374,0,0,0-.209-5.825c-.331-.893-.81-1.714-1.13-2.612a20.913,20.913,0,0,1-.424-2.744,13.979,13.979,0,0,0-1.113-3.786,10.96,10.96,0,0,0-5.042-5.422,5.341,5.341,0,0,0-1.73-.347,3.224,3.224,0,0,0-1.51-.149,2.39,2.39,0,0,0-1.554,2.4v.044a3.137,3.137,0,0,0-1.157-1.168,10.462,10.462,0,0,0-2.8-.49,12.78,12.78,0,0,0-5.555.094c-4.673,1.46-6.161,5.378-7.632,9.61a20.514,20.514,0,0,1-1.774,3.819,14.727,14.727,0,0,0-1.885,5.422c-.436,4.122,1.6,7.919,2.447,11.853a32.227,32.227,0,0,1,.468,5.687,21.1,21.1,0,0,0,.342,4.408,36.9,36.9,0,0,0,1.234,4.463,6.834,6.834,0,0,0,.044,1.058,8.1,8.1,0,0,0,1.868,4.282c.264.689.546,1.372.871,2.033a15.682,15.682,0,0,0,1.653,2.425c-.116-.369-.248-.738-.391-1.1a.83.83,0,0,0,.529.452c.876.165,1.124-1.642,1.339-2.281,1.025-3.356.083-5.488.16-8.762a14.017,14.017,0,0,1,.738-3.383c.43-1.218,1.091-2.347,1.405-3.609.529-2.077.551-3.885-.876-5.615a53.891,53.891,0,0,1-2.97-6.078,4.49,4.49,0,0,0-.926-1.334,2.512,2.512,0,0,0,.033-.838c-.121-.424-.391-.727-.529-1.163-.088-.292-.248-.816.094-1.025.584-.017,1.008.579,1.482.854a7.1,7.1,0,0,0,3.819,1.323,12.445,12.445,0,0,0,6.166-1.857,8.121,8.121,0,0,0,2.882-2.215.918.918,0,0,0,.149.882c.452.457,1.185.358,1.769.474a3.728,3.728,0,0,0,3.174-.722c.2.65.32,1.526,1.069,1.791.182.077.43.1.468.331a8.073,8.073,0,0,1-.589,3.9,4.437,4.437,0,0,0-.441,1.62c-.033.132-.072.264-.1.391a28.363,28.363,0,0,0-.964,6.767c-.022,2.414.661,4.778.567,7.186-.32,3.185-1.411,5.588-.314,8.855.32.975,1.179,3.472,2.232,3.736,1.1.165,1.708-1.146,2.089-2.281.016.253.033.507.066.76.375-1.394.656-2.827.9-4.26.182-.722.358-1.444.546-2.166a18.026,18.026,0,0,0,.6-2.81,25.947,25.947,0,0,0,.661-4.706,19.411,19.411,0,0,0-.165-4.662A59.961,59.961,0,0,1,1512.017,192.89ZM1480.8,181.836c.683-1.989,2.022-3.7,2.717-5.692,1.565-4.392,2.915-8.844,8.045-10.024.336-.055.678-.094,1.019-.121a8.738,8.738,0,0,0-3.224,1.769l-.165.165a8.229,8.229,0,0,0-3.284,4.673c-.733,1.405-1.378,2.86-2.055,4.265-1.1,2.314-2.733,4.436-3.438,6.927a12.684,12.684,0,0,0-.116,3.742.308.308,0,0,1-.006.072c.006.094.017.187.028.281a10.8,10.8,0,0,1,.49-6.056Zm2.612,24.533a25.368,25.368,0,0,1-.358-5.224c-.022-.738-.055-1.482-.116-2.221.276.9.54,1.807.782,2.717a13.961,13.961,0,0,1,.727,5.147c-.055.794-.2,1.582-.319,2.37q-.413-1.38-.722-2.788Zm17.523-36.331c.022.088.05.171.072.259a4.657,4.657,0,0,1,.038,1.075c-.038-.242-.077-.485-.121-.722.011-.2.016-.4.016-.606Zm6.861-1.537a19.854,19.854,0,0,0-1.978-2.072,9.838,9.838,0,0,1,1.031.816,11.587,11.587,0,0,1,2.64,3.747,15.685,15.685,0,0,0-1.692-2.491Zm3.758,11.153c-.039-.4-.077-.783-.121-1.163.259.562.534,1.113.738,1.692a8.65,8.65,0,0,1,.347,3.912,11.126,11.126,0,0,0-.656-2.381c-.121-.7-.237-1.394-.314-2.061Zm.981,24.23c-.138-1.323-.342-2.706-.485-4.337-.05-.92-.1-1.846-.132-2.772a36.675,36.675,0,0,1,.65,4.078A26.5,26.5,0,0,1,1512.535,203.883Z" transform="translate(-1273.838 -73.345)" fill="#3a210f"/>
        <g id="Grupo_1204408" data-name="Grupo 1204408" transform="translate(214.479 108.375)">
          <path id="Trazado_1268939" data-name="Trazado 1268939" d="M1641.1,557.641a.441.441,0,1,1,.441.441A.446.446,0,0,1,1641.1,557.641Z" transform="translate(-1641.1 -552.593)" fill="#fff"/>
          <path id="Trazado_1268940" data-name="Trazado 1268940" d="M1643.5,544.041a.441.441,0,1,1,.441.441A.446.446,0,0,1,1643.5,544.041Z" transform="translate(-1643.368 -539.743)" fill="#fff"/>
          <path id="Trazado_1268941" data-name="Trazado 1268941" d="M1646.8,530.741a.441.441,0,1,1,.441.441A.446.446,0,0,1,1646.8,530.741Z" transform="translate(-1646.486 -527.176)" fill="#fff"/>
          <path id="Trazado_1268942" data-name="Trazado 1268942" d="M1649.1,519.641a.441.441,0,1,1,.441.441A.446.446,0,0,1,1649.1,519.641Z" transform="translate(-1648.659 -516.687)" fill="#fff"/>
          <path id="Trazado_1268943" data-name="Trazado 1268943" d="M1649.8,507.341a.441.441,0,1,1,.441.441A.446.446,0,0,1,1649.8,507.341Z" transform="translate(-1649.321 -505.065)" fill="#fff"/>
          <path id="Trazado_1268944" data-name="Trazado 1268944" d="M1652.6,494.141a.441.441,0,1,1,.441.441A.446.446,0,0,1,1652.6,494.141Z" transform="translate(-1651.966 -492.592)" fill="#fff"/>
          <path id="Trazado_1268945" data-name="Trazado 1268945" d="M1663.778,473.6c.127.028.116.182.1.287-.143,1.108-.1,2.226-.149,3.345-.083.733.038,2.458-.986,2.485-1.223-.187-.529-1.609-.287-2.347.4-1.008.606-2.072.931-3.108a2.733,2.733,0,0,1,.248-.584.15.15,0,0,1,.143-.072Z" transform="translate(-1660.89 -473.6)" fill="#fff"/>
        </g>
        <path id="Trazado_1268946" data-name="Trazado 1268946" d="M1142.327,1792.745c-1.78-.044-3.565-.033-5.345-.127-.424-.027-.849-.061-1.273-.083h.055c-1.135-.072-2.276-.1-3.411-.165-1.62-.1-3.24-.248-4.844-.469-1.526-.209-3.042-.49-4.557-.782h.017c-.044-.011-.094-.016-.138-.028a.07.07,0,0,1,.033.005c-.777-.149-1.554-.3-2.325-.463-1.923-.408-3.83-.876-5.747-1.333-1.824-.435-3.642-.915-5.466-1.339-1.912-.441-3.83-.876-5.758-1.223-1.9-.342-3.813-.634-5.731-.86-1.956-.231-3.907-.485-5.88-.568-1.912-.083-3.819-.1-5.731-.044-1.736.05-3.472.1-5.2.176-.441.017-.882.044-1.323.066.044-.413.094-.827.132-1.24.391-3.786.738-7.571,1.229-11.346.931-9.258,2.777-18.394,4.056-27.6.876-6.056,1.7-12.112,2.673-18.151a121.241,121.241,0,0,1,2.281-12.244c.232-.738.364-1.6.59-2.381h0a2.589,2.589,0,0,1,.5-1.637c-.044-.005-.083-.017-.127-.022a3.556,3.556,0,0,1,1.345-.154c.86-.011,1.719-.055,2.579-.1,1.642-.1,3.3-.165,4.954-.226,6.183-.309,12.376-.529,18.559-.827,9.313-.408,18.614-1.069,27.922-1.46,5.158-.132,10.31-.523,15.468-.612.4-.005.8-.022,1.2-.016a1.929,1.929,0,0,1,1.35.011.806.806,0,0,1,.243.314,25.8,25.8,0,0,1,2.447,3.345q2,2.951,4.006,5.9c5.984,8.673,12.073,17.3,18.846,25.387,4.3,5.075,8.392,10.316,12.4,15.622.557.755,1.113,1.5,1.675,2.259-.094.094-.187.187-.275.281-1.317,1.345-2.584,2.739-3.913,4.078-1.35,1.361-2.694,2.722-4.127,4,.022-.017.038-.033.061-.05-.733.65-1.482,1.278-2.215,1.929.033-.028.066-.061.1-.088-.722.639-1.422,1.295-2.138,1.934.022-.022.044-.038.066-.061-1.069.948-2.193,1.829-3.306,2.722-1.069.849-2.132,1.692-3.262,2.463-.678.457-1.378.882-2.083,1.306-.783.468-1.56.937-2.342,1.405-1.565.931-3.146,1.84-4.761,2.689-1.769.926-3.538,1.868-5.323,2.761-.05.022-.1.05-.149.072a.028.028,0,0,0,.016-.005c-.893.441-1.791.859-2.706,1.251s-1.841.728-2.777,1.047a.041.041,0,0,0-.022.006h0c-1.207.408-2.419.794-3.631,1.174-1.89.6-3.786,1.19-5.7,1.692q-2.695.7-5.422,1.251a.236.236,0,0,0-.061.011.05.05,0,0,0-.028.005h-.038a.192.192,0,0,0-.055.011h0a.129.129,0,0,0-.044.011h.016c-.849.171-1.7.309-2.557.424-.793.033-1.581.083-2.375.1-.364.011-.722.016-1.086.016-.512,0-1.03-.011-1.543-.022Z" transform="translate(-896.157 -1531.013)" fill="#d18f5a"/>
        <path id="Trazado_1268947" data-name="Trazado 1268947" d="M1955.766,767.662c.975,4.006.794,8.178.711,12.266-.066,1.978-.375,3.934-.518,5.907-.05.457-.072.915-.1,1.361v.05c-.016.3-.039.6-.055.893-.171,2.733-.49,5.455-.838,8.167a50.846,50.846,0,0,1-.97,6.9c-1.052,4.182-3.207,8.018-4.37,12.156a16.773,16.773,0,0,0-.568,4.59c.05,2.033.507,4.072.2,6.106-.314,2.259-2.215,4.513-4.563,4.513s-.4-.016-.6-.05c-1.879-.4-3.1-2.8-4.067-4.315-.573-1.234-2.017-2.623-1.152-4.028.342-.722,1.03-.711,1.449-.061.435-.612,1.174-.353,1.477.242.485-4.425,1.912-8.69,2.149-13.153.755-5.268-.016-10.536.342-15.815.028-4.453,1.333-8.712,2.4-12.994a45.231,45.231,0,0,0,1.008-7.637,30.714,30.714,0,0,1,.176-3.411,7.361,7.361,0,0,1,1.631-3.472,11,11,0,0,1,2.562-2.2,1.5,1.5,0,0,1,.231-.187c3.268-2.144,2.937,2.155,3.477,4.171Z" transform="translate(-1707.734 -638.584)" fill="#dca593"/>
        <path id="Trazado_1268948" data-name="Trazado 1268948" d="M2027.96,618.723c.253,4.441-.4,8.888-.634,13.319-.281,4.034-.446,8.084-.986,12.1a78.108,78.108,0,0,1-3.665,15.639c-.529,1.565-1,3.152-1.582,4.7-.342.744-.749,2.4-1.73,2.3a12.481,12.481,0,0,0-3.146-.551c-1.708-.171-3.411-.27-2.915-2.5.27-1.57.562-3.141.728-4.728.226-2.033.369-4.078.408-6.128.077-3.472-.187-6.949-.017-10.42a76.058,76.058,0,0,1,1.46-11.214,77.266,77.266,0,0,0,1.405-7.913c.347-3.664.226-7.367,1.223-10.938a30.118,30.118,0,0,1,1.3-3.951,4.967,4.967,0,0,1,.463-1.493,2.472,2.472,0,0,1,.568-.628,5.719,5.719,0,0,1,.463-.623c0-.005.011-.011.011,0-.05.149-.127.3-.182.446,2.292-.981,4.535,3.235,5.191,4.965A27.734,27.734,0,0,1,2027.96,618.723Z" transform="translate(-1778.231 -490.031)" fill="#9a9b7b"/>
        <path id="Trazado_1268949" data-name="Trazado 1268949" d="M2016.164,670.06a1.555,1.555,0,0,1-.683-.16,1.574,1.574,0,0,1-1.289-.1c-.27-.149-.452-.474-.794-.441a2.14,2.14,0,0,1-1.168-.733c-.309-.254-.623.027-.937.094-.849.1-1.4-.909-1.278-1.653-.011-.215.116-.4.121-.606.022-.369-.072-.727-.044-1.091.171-.7-.022-1.5.386-2.133a.786.786,0,0,0,.094-.193c.072-.22-.083-.413-.171-.606a1.731,1.731,0,0,1-.171-.744,1.754,1.754,0,0,1,.38-1.157,1.406,1.406,0,0,0,.072-.248c.016-.4-.121-.782-.094-1.179,0-.314.044-.634.028-.948a5.211,5.211,0,0,1-.16-1.2,5.082,5.082,0,0,1,.16-.865c.005-.287-.077-.562-.077-.849a3.431,3.431,0,0,1,.077-.716,2.518,2.518,0,0,1-.066-1.052,1.519,1.519,0,0,1,.176-.463c.083-.149.243-.242.259-.419.022-.138-.072-.226-.132-.336a1.407,1.407,0,0,1-.127-.474,2.414,2.414,0,0,1,.254-1.251,2.142,2.142,0,0,1,.441-1.852,2.719,2.719,0,0,0,.281-.667,4.526,4.526,0,0,1,.05-.821,4.145,4.145,0,0,0,.281-1.086,3.789,3.789,0,0,1,.209-1.785,3.869,3.869,0,0,1,.149-1.774,1.312,1.312,0,0,0-.16-.915,2.013,2.013,0,0,1-.1-1.245c.32-.7.1-1.482.3-2.221a4.4,4.4,0,0,1,.2-1.675c.116-.8-.231-1.615,0-2.408a1.541,1.541,0,0,1,.154-.369,3.59,3.59,0,0,1,.044-1.086c.061-.358.4-.6.43-.959-.044-.215-.138-.419-.165-.639a1.913,1.913,0,0,1,.1-1.554c.2-.331.579-.524.419-.975a3.592,3.592,0,0,1-.1-1.565,1.8,1.8,0,0,1,.182-.468c.1-.176.309-.292.375-.49a5.166,5.166,0,0,1,.243-1.874,4.569,4.569,0,0,1,.336-1.433c.055-.3-.127-.579-.088-.876a1.908,1.908,0,0,1,.441-1.262c.364-.386.149-.92.088-1.378a2.086,2.086,0,0,1,.132-1c.066-.226.259-.391.314-.617a1.782,1.782,0,0,0-.055-.54c-.022-.253-.016-.518-.055-.771a2.163,2.163,0,0,1,.188-1.086c.028-.292-.033-.59.011-.887a5.42,5.42,0,0,0,.165-.777,1.714,1.714,0,0,1,0-.557c0-.193.127-.353.143-.546a2.832,2.832,0,0,0-.154-.507,1.219,1.219,0,0,1,.2-.926c.121-.171.32-.276.286-.518a1.427,1.427,0,0,1,.242-.887.834.834,0,0,1,.287-.479c.077-.088.066-.215.1-.32a1.017,1.017,0,0,1,.187-.276c.1-.132.3-.11.452-.11.253-.039.331-.347.557-.435a.994.994,0,0,1,.419.061,1.288,1.288,0,0,1,.562-.05c.088.005.138.127.226.132a.354.354,0,0,1,.391.061.241.241,0,0,1,.22.182.017.017,0,0,1,.011.005.221.221,0,0,1,.1.017.169.169,0,0,1,.055.083h0c.061.022.061.1.055.16a.094.094,0,0,1-.022.11h0a.354.354,0,0,1-.028.11h0c0,.055-.072.061-.077,0a.433.433,0,0,1,.027-.121.074.074,0,0,1-.011-.05.1.1,0,0,1-.044-.061.212.212,0,0,1-.1-.132h-.006a.2.2,0,0,1-.237-.05.483.483,0,0,1-.353-.143.2.2,0,0,1-.055-.006.39.39,0,0,1-.364.05,2.213,2.213,0,0,1-.331,0c-.121.072-.193.187-.314.253-.16.044-.342-.022-.49.061-.138.138-.127.358-.248.5a.577.577,0,0,1-.358.22,3.553,3.553,0,0,1-.231.513,1.952,1.952,0,0,1-.286.766c-.16.292.171.573.127.882a2.4,2.4,0,0,1-.077.49c-.061.182-.226.3-.275.49a2.307,2.307,0,0,1,.005,1.1,6.53,6.53,0,0,0,.066.8,6.231,6.231,0,0,1-.1.777,3.065,3.065,0,0,1,.017,1.466,4.473,4.473,0,0,1-.176.9,1.829,1.829,0,0,0,.165.7,1.969,1.969,0,0,1,.022.931,3.728,3.728,0,0,1-.375.827.958.958,0,0,0-.061.964,2,2,0,0,1,.055.937,1.78,1.78,0,0,1-.171.551c-.165.281-.43.507-.4.865a2.934,2.934,0,0,1-.2.97,9.526,9.526,0,0,0-.16,1.052c0,.4-.375.711-.325,1.1a1.943,1.943,0,0,1,.016,1.521c-.149.408-.49.749-.551,1.19a3.685,3.685,0,0,1,.209,1.267,3.771,3.771,0,0,1-.661,1.422c-.072.27.11.518.138.782a2.2,2.2,0,0,1-.143,1.19,2.864,2.864,0,0,1-.055,1.653c-.088.369-.176.744-.242,1.119,0,.254.066.507.055.766-.006.336-.1.667-.127,1a5.01,5.01,0,0,1-.011.953c-.016.259-.088.507-.094.766a2.244,2.244,0,0,1,.083,1.344c-.077.364-.375.7-.292,1.1.033.187.132.347.154.534a4.689,4.689,0,0,1,.005,1.273,8.223,8.223,0,0,1,.039,1.223,4.833,4.833,0,0,1-.342,1.058c-.088.32-.083.656-.165.975-.061.386-.408.667-.4,1.069.011.783.193,1.7-.479,2.276a2.574,2.574,0,0,1-.231,1.35c-.072.165-.281.237-.292.424.044.3.336.534.336.887.1.457-.187.887-.055,1.328a4.881,4.881,0,0,1-.061,1.168,4,4,0,0,1,.138,1.466,7.394,7.394,0,0,0-.121,2.006,4.178,4.178,0,0,0-.1.942c.028.259.209.457.237.722a1.8,1.8,0,0,1-.281,1.433c-.127.165-.32.325-.3.557a2.884,2.884,0,0,1,.039,1.515c-.072.325-.05.661-.094.992a5.91,5.91,0,0,0-.187.821,1.912,1.912,0,0,1,.882.617c.143.209.22.457.446.6a.885.885,0,0,0,.546.1,1.841,1.841,0,0,1,1.064.683c.088.083.22.033.325.017a2.789,2.789,0,0,1,1.047.044c.386.171.843.094,1.174.386.413.253.342,1.119-.193,1.157Z" transform="translate(-1775.191 -492.131)" fill="#808166"/>
        <g id="Grupo_1204409" data-name="Grupo 1204409" transform="translate(190.923 177.678)">
          <path id="Trazado_1268950" data-name="Trazado 1268950" d="M1321.366,1770.951c1.3,1.312,4.26,3.648,4.188,5.527-.193.821-1.223.948-1.874,1.278-.716.292-1.438.573-2.155.865q-2.943,1.2-5.847,2.474c-2.656,1.163-5.24,2.469-7.9,3.62-2.425,1.047-4.888,2.006-7.318,3.031a110.272,110.272,0,0,1-18.526,6.232c-10.47,2.474-21.3,2.243-31.966,2.937-8.062.689-16.113,1.708-24.07,3.185a.188.188,0,0,0-.077.011h-.055c-.011,0-.022-.005-.033-.005v-.028a.52.52,0,0,0-.033-.083c-.011-.028-.022-.05-.033-.077a.281.281,0,0,1-.028-.072.3.3,0,0,0-.044-.083.109.109,0,0,0-.066-.044,29.92,29.92,0,0,1-1.438-7.841c-.182-3.554-.347-7.114-.882-10.635a42.476,42.476,0,0,0-2.4-9.913,62.313,62.313,0,0,0-2.656-6.458c-1.537-3.2-3.284-6.348-4.16-9.809-.689-2.64-.535-5.825,1.7-7.693,3.345-2.634,7.577-3.924,11.7-4.706,5.929-1.113,12.024-1.262,17.854-2.86a41.671,41.671,0,0,0,9.428-3.951c1.295-.755,2.54-1.6,3.791-2.425,2.05-1.356,4.9-3.29,7.2-1.394a24.481,24.481,0,0,0,2.353,1.6c.32.259,2.628,1.223,1.857,1.593a8.56,8.56,0,0,1-2.254-.562,5.233,5.233,0,0,0-3.62.38c-1.229.733-1.433,2.276-2.105,3.422-.639,1-1.6,1.741-2.314,2.689-.727.948-1.24,2.055-1.989,2.992a16.215,16.215,0,0,1-2.926,2.871c-.413.386-2.309,1.736-1.84,2.325.485.331,1.163.121,1.7.088a19.27,19.27,0,0,0,5.83-1.8c1.78-.794,3.29-2.463,5.345-2.441.755.011,1.488.253,2.243.242a7.273,7.273,0,0,0,4.254-1.648,27.815,27.815,0,0,1,4.794-3.35c1.444-.716,3.461-1.94,4.915-.667,3.345,2.915,6.717,5.819,10.2,8.569,6.877,5.224,14.129,9.952,20.808,15.451,2.86,2.331,5.769,4.6,8.442,7.147Z" transform="translate(-1213.632 -1731.245)" fill="#d14f2a"/>
          <path id="Trazado_1268951" data-name="Trazado 1268951" d="M1510.191,2507.639c.694.1,1.879.149,1.333.683a14.521,14.521,0,0,1-3.626,1.13c-2.722.628-5.555.727-8.249,1.46-1.427.413-2.744,1.1-4.182,1.449a21.082,21.082,0,0,1-3.62.512,59.438,59.438,0,0,0-7.709,1.025,60.29,60.29,0,0,1-6.519,1.515c-2.573.287-5.147.364-7.7.777-3.775.612-7.494,1.708-11.313,2-2.706.231-5.433.342-8.139.556-1.2.1-2.4.232-3.593.386a17.863,17.863,0,0,1-3.538.353c-1.945-.347-.579-3.538-.452-4.811.237-2.452,1.785-3.587,3.736-4.788a67.393,67.393,0,0,1,7.913-4.127c2.827-1.4,5.687-2.722,8.541-4.072a49.113,49.113,0,0,1,5.819-2.546,20.283,20.283,0,0,1,15.082.876c4.353,2.083,8.558,4.711,13.374,5.555,4.287.656,8.552,1.422,12.839,2.066Z" transform="translate(-1429.696 -2455.826)" fill="#e9e9e9"/>
          <path id="Trazado_1268952" data-name="Trazado 1268952" d="M1708.572,2045.375c1.807,2.827,3.042,6.535-.408,8.684-3.758,2.4-8.37,3.053-12.757,2.959a30.215,30.215,0,0,1-12.255-2.711c-1.8-.821-3.538-1.78-5.3-2.689-1.1-.573-2.2-1.185-3.334-1.681a36.814,36.814,0,0,0-8.431-2.16c-6.31-1-12.6-2.182-18.956-2.788-3.367-.27-6.745-.49-10.123-.634-1.141-.05-2.254-.044-3.383-.072a5.119,5.119,0,0,1-1.923-.237h-.006c.066-.011.132-.006.2-.016-1.212-.975,2.661-3.339,3.317-3.962,1.67-1.267,3.323-2.568,5.059-3.747a54.119,54.119,0,0,1,6.579-3.686c3.135-1.471,6.293-2.921,9.28-4.678,1.835-1.047,3.554-2.276,5.34-3.406.926-.573,1.874-1.1,2.832-1.609,1.5-.816,3.229-1.73,4.959-1.047,1.532.612,2.937,1.56,4.469,2.171,3.268,1.416,6.761,2.248,10.013,3.708a100.235,100.235,0,0,1,18.383,11.17,31.558,31.558,0,0,1,6.453,6.425Z" transform="translate(-1608.63 -2005.652)" fill="#e9e9e9"/>
          <path id="Trazado_1268953" data-name="Trazado 1268953" d="M1361.1,1793.8a10.172,10.172,0,0,1-.143,3.935,8.4,8.4,0,0,1-3.213,4.039,24.492,24.492,0,0,1-5.411,2.463,28.567,28.567,0,0,1-5.758,2.193c-6.039,1.532-10.079,5.7-12.36,11.379-.479,1.124-.876,2.287-1.372,3.406-.507,1.273-1.361,2.667-2.948,2.369-2.507-.413-4.75-1.7-7.12-2.535-.716-.259-1.438-.485-2.155-.683a6.632,6.632,0,0,1-3.361-1.5c-1.912-2.033-2.028-5.268-1.174-7.808a14.682,14.682,0,0,1,9.9-8.613,21.7,21.7,0,0,1,6.574-.661c2.832.165,5.863.8,8.541-.419a18.162,18.162,0,0,1,3.72-1.526,7.175,7.175,0,0,1,3.157.419,5.7,5.7,0,0,0,5.847-1.411,11.669,11.669,0,0,0,2.5-4.436c.463-1.416.81-3.444,2.667-3.488a4.763,4.763,0,0,1,1.251-.022.38.38,0,0,1,.22.171c.138.215.083.49.16.716a6.381,6.381,0,0,1,.469,2.011Z" transform="translate(-1309.959 -1787.583)" fill="#e9e9e9"/>
        </g>
        <path id="Trazado_1268954" data-name="Trazado 1268954" d="M1319.593,854.978c-.953-.209-2.138-.683-2.953.088-.557.672.231,1.559.975,1.493.926-.1,1.427-.942,1.978-1.576Zm2.1-2.48a1.162,1.162,0,0,1,.512,2.122,2.851,2.851,0,0,1-1.8.457,3.627,3.627,0,0,1,.182,2.138c-.154,1.548-1.1,3.5-2.948,3.146-.975-.16-1.934-.512-2.9-.689a7.967,7.967,0,0,1-2.1-.584c-1.714-.9-2.535-2.783-3.626-4.287-1.956-2.849-3.532-6.045-5.907-8.574a37.522,37.522,0,0,0-5.185-4.43,61.511,61.511,0,0,1-8.525-7.935c-4.1-4.287-3.708-10.564-3.438-16.063.121-2.265.408-4.513.672-6.767a25,25,0,0,1,1.212-5.968c.546-1.416,1.052-3.08,2.336-3.99,1.868-.926,3.461,1.019,4.348,2.452,2.122,3.108,2.491,6.849,2.254,10.509-.028,2.617.573,5.2.358,7.819-.347,3.218-.579,5.8,1.223,8.679a69.657,69.657,0,0,0,4.53,6.161c2.292,2.882,4.53,5.83,6.943,8.613a15.509,15.509,0,0,0,5.433,4.078C1317.417,850.388,1319.384,851.887,1321.693,852.5Z" transform="translate(-1090.898 -674.427)" fill="#dca593"/>
        <path id="Trazado_1268955" data-name="Trazado 1268955" d="M1297,709.467a1.886,1.886,0,0,1,.4,1.052c-.072.584-.656.86-1.141,1.064a9.939,9.939,0,0,0-1.223.705,7.892,7.892,0,0,0-2.259,2.243.217.217,0,0,0-.05.028.38.38,0,0,0-.044.055l-.077.11c-.055.094-.11.187-.16.286a2.032,2.032,0,0,0-.1.254h0a.02.02,0,0,1-.011.017c-.061-.017-.127-.033-.187-.044-.028,0-.055-.011-.083-.011a.13.13,0,0,1-.044-.011,4.046,4.046,0,0,1-1.245-1.256c-.353-.474-.7-.953-1.052-1.427-1.405-1.8-2.965-3.466-4.513-5.141-1.3-1.306-2.678-2.535-4.056-3.758a50.278,50.278,0,0,1-3.957-3.543,24.908,24.908,0,0,1-7.285-13.71,46.436,46.436,0,0,1,1.367-20.064,24.926,24.926,0,0,1,2.954-7.312c1.036-1.537,2.761-3.67,4.722-3.8,1.009.154,1.482,1.83,1.923,2.634a23.811,23.811,0,0,1,2.38,8.6c.154,3.929-1.625,7.643-1.46,11.566.033,2.259.127,4.552.27,6.8a20.791,20.791,0,0,0,1.807,8.045,38.159,38.159,0,0,0,4.629,6.541q2.686,3.125,5.428,6.194c.738.86,1.477,1.714,2.177,2.6a15.222,15.222,0,0,1,.882,1.262Z" transform="translate(-1075.378 -536.818)" fill="#9a9b7b"/>
        <path id="Trazado_1268956" data-name="Trazado 1268956" d="M1414.506,706.591c-1.014-.5-.788-2-.077-2.678.3-.369.815-.452,1.119-.816.435-.771,1.24-1.852,2.248-1.383.1.016.182-.055.281-.044a.3.3,0,0,0,.132-.05c-.005,0-.011.011-.022.017s-.016.011-.028.016c.132-.061.088-.226.132-.342.171-.435-.055-.849-.077-1.295a5.935,5.935,0,0,0-.138-1.036c-.033-.132-.039-.3-.143-.391-.165-.165-.408-.16-.612-.237a2.006,2.006,0,0,0-.463-.16c-1.339-.11-1.653-1.609-2.314-2.524l.055.055c-.375-.386-.953-.49-1.312-.893-.331-.336-.628-.711-.953-1.052-.314-.3-.728-.5-.953-.882-.264-.375-.441-.81-.733-1.168-.215-.254-.6-.187-.849-.4a1.982,1.982,0,0,1-.65-.716,3.475,3.475,0,0,1-.38-1.609,1.472,1.472,0,0,0-.154-.672,5.16,5.16,0,0,1-.816-.92,3.165,3.165,0,0,1-.766-.838c-.463-.661-.259-1.433-.386-2.166-.061-.226-.259-.347-.435-.485a2.376,2.376,0,0,1-.507-.656,4.083,4.083,0,0,1-.986-1.57c-.116-.32-.1-.661-.2-.975a4.562,4.562,0,0,1-.65-2.3,4.8,4.8,0,0,1-.474-2.414,2.189,2.189,0,0,0,.187-1.466,2.722,2.722,0,0,1-.435-1.774,3.025,3.025,0,0,1,.254-.986c.143-.358.457-.628.59-.992a9.27,9.27,0,0,1-.226-1.411,8.289,8.289,0,0,1,.325-1.587,10.581,10.581,0,0,1,.055-1.323,7.207,7.207,0,0,0,.3-1.042c-.028-.237-.22-.424-.281-.656a2.8,2.8,0,0,1-.011-1.648,5.211,5.211,0,0,1,.755-1.3c.573-.512-.11-1.1-.308-1.626a2.769,2.769,0,0,1-.006-2.017c.083-.242.253-.435.353-.667.05-.375-.165-.727-.187-1.1A4.226,4.226,0,0,0,1404.6,655a2.788,2.788,0,0,1,.066-1.8c.083-.248.259-.534.121-.788a4.545,4.545,0,0,1-.854-2.761,3.448,3.448,0,0,1-.771-2.155c-.005-.127-.016-.276-.149-.336a2.7,2.7,0,0,1-1.163-.915,1.279,1.279,0,0,1-.535-.116c-.176-.083-.265-.259-.413-.369a5.121,5.121,0,0,1-.838.457c-.121.143-.121.369-.347.4-.11.061-.132.209-.264.231a.116.116,0,0,1-.2-.028.2.2,0,0,1,.05-.242.456.456,0,0,1,.05-.088.207.207,0,0,1,.138-.077l.077-.077a.321.321,0,0,1,.32-.22c.292-.242.5-.92.992-.639.187-.044.309-.248.529-.248a1.158,1.158,0,0,1,.65.2,1.506,1.506,0,0,1,1.405,1.312c.127.242.446.276.645.452a2.505,2.505,0,0,1,.975,1.565,6.221,6.221,0,0,1,.689,1.978,2.678,2.678,0,0,1-.165,1.5.284.284,0,0,0-.028.165c.088.513.54.893.612,1.427a4.863,4.863,0,0,1,.017,1.648,3.745,3.745,0,0,1-.077,1.78c-.077.3.176.507.3.755a2.941,2.941,0,0,1-.066,2.772,5.3,5.3,0,0,1-.347.86,5.739,5.739,0,0,0,.276,1.284,2.811,2.811,0,0,1-.27,2.188c-.132.22-.38.369-.4.639-.033.336.044.672.044,1.014,0,.557-.248,1.069-.259,1.626a4.411,4.411,0,0,1-.551,2.243c-.149.435.325.76.452,1.146a3.016,3.016,0,0,1,.265,1.223,2.714,2.714,0,0,1-.265,1.157c-.154.419-.65.617-.667,1.1.006.353.215.667.22,1.025a9.873,9.873,0,0,0,.039,1.212c.16.38.512.661.59,1.091.143.43.077.9.231,1.328.821.584.882,1.653,1.367,2.447.281.5.215,1.135.645,1.548a2.621,2.621,0,0,1,1.361,2.507c.176.408.072.97.446,1.267a3.328,3.328,0,0,1,1.714,1.752c.16.419.116.893.435,1.24a10.531,10.531,0,0,0,.876.909c.27.281.457.623.733.9.243.22.5.413.755.623a5.652,5.652,0,0,1,.975,1.356c.441.441,1.2.276,1.719.612.9.518,1.124,1.62,1.6,2.458.176.281.518.347.771.529a7.511,7.511,0,0,1,.645.534h0a2.36,2.36,0,0,1,.088,3.317.744.744,0,0,1-.524.182c-.193.061-.369.138-.557.2-.485.331-.595.948-1.008,1.339-.358.38-.975.408-1.273.849a5.619,5.619,0,0,1-.375.694,3.569,3.569,0,0,1-.331.612c-.281.479-.634,1.058-1.273.816Z" transform="translate(-1198.082 -527.395)" fill="#808166"/>
        <g id="Grupo_1204410" data-name="Grupo 1204410" transform="translate(224.896 175.198)">
          <path id="Trazado_1268957" data-name="Trazado 1268957" d="M1896.825,1888.689c.1.314,1.047,2.469.408,2.309-1.036-1.267-1.532-2.9-2.463-4.249a21.14,21.14,0,0,1-3.18-5.742c-.121-.606-1.493-3.146-.468-3.207a.358.358,0,0,1,.512.149c.584,1.19.843,2.524,1.5,3.687a61.8,61.8,0,0,1,3.692,7.059Z" transform="translate(-1887.405 -1867.19)" fill="#a39494"/>
          <path id="Trazado_1268958" data-name="Trazado 1268958" d="M1833.061,1691.809c.171.92,1.455,3.361,1.218,4.535a.767.767,0,0,1-.132.529c-.22.16-.176.468-.209.711.077.794.3,1.835-.287,1.725-.386-.16-.5-.65-.672-1a46.243,46.243,0,0,1-1.813-5.483c-.138-.755-.975-2.215-.347-2.816a.2.2,0,0,0,.017-.149c-.292-1.036-.92-2.133-.6-3.229.391-.81,1.659-.165,1.862.524.524,1.5.435,3.152.964,4.656Z" transform="translate(-1830.148 -1686.252)"/>
        </g>
      </g>
    </g>
  </g>
</svg>
