<svg xmlns="http://www.w3.org/2000/svg" xmlns:xlink="http://www.w3.org/1999/xlink" width="261" height="145" viewBox="0 0 261 145">
  <defs>
    <clipPath id="clip-path">
      <rect id="Rectángulo_454989" data-name="Rectángulo 454989" width="261" height="145" rx="25" transform="translate(1018.059 5623.095)" fill="#e2a4db"/>
    </clipPath>
    <linearGradient id="linear-gradient" x1="0.501" x2="0.501" y2="1" gradientUnits="objectBoundingBox">
      <stop offset="0.4" stop-color="#b6aca5"/>
      <stop offset="1" stop-color="#dbcec4"/>
    </linearGradient>
    <linearGradient id="linear-gradient-2" x1="0.5" y1="1" x2="0.5" y2="0" xlink:href="#linear-gradient"/>
    <linearGradient id="linear-gradient-3" x1="-17.514" y1="0.5" x2="18.514" y2="0.5" xlink:href="#linear-gradient"/>
    <linearGradient id="linear-gradient-4" x1="-39.778" y1="0.5" x2="40.782" y2="0.5" xlink:href="#linear-gradient"/>
    <linearGradient id="linear-gradient-5" y1="0.5" x2="1" y2="0.5" gradientUnits="objectBoundingBox">
      <stop offset="0" stop-color="#b6aca5"/>
      <stop offset="0.3" stop-color="#dbcec4"/>
    </linearGradient>
    <linearGradient id="linear-gradient-6" x1="0.5" y1="0" x2="0.5" y2="1" xlink:href="#linear-gradient-5"/>
    <linearGradient id="linear-gradient-7" x1="0" y1="0.501" x2="1" y2="0.501" xlink:href="#linear-gradient"/>
    <linearGradient id="linear-gradient-8" x1="0" y1="0.5" y2="0.5" xlink:href="#linear-gradient-5"/>
    <linearGradient id="linear-gradient-9" x1="-0.274" y1="0.548" x2="0.665" y2="0.548" xlink:href="#linear-gradient"/>
  </defs>
  <g id="Grupo_1204661" data-name="Grupo 1204661" transform="translate(-1019 -6087.606)">
    <rect id="Rectángulo_454804" data-name="Rectángulo 454804" width="261" height="145" rx="25" transform="translate(1019 6087.606)" fill="#e2a4db"/>
    <g id="Enmascarar_grupo_1119148" data-name="Enmascarar grupo 1119148" transform="translate(0.941 464.512)" clip-path="url(#clip-path)">
      <g id="Patronaje-Telas" transform="translate(949.576 5543.9)">
        <g id="Ñëîé_1" transform="translate(99.5 93.7)">
          <g id="Grupo_1204447" data-name="Grupo 1204447" transform="translate(0)">
            <g id="Grupo_1204427" data-name="Grupo 1204427" transform="translate(0 4.904)">
              <g id="Grupo_1204413" data-name="Grupo 1204413">
                <g id="Grupo_1204411" data-name="Grupo 1204411" transform="translate(1.47 66.319)">
                  <path id="Trazado_1268959" data-name="Trazado 1268959" d="M114.922,986.465a1.608,1.608,0,0,0,.086.306h2.762a10.624,10.624,0,0,0,3.957-3.957c1.529-2.724,1.711-5.955,3.164-8.7a9.463,9.463,0,0,1,.812-1.291,7.775,7.775,0,0,1,1.357-1.023,5.945,5.945,0,0,1,.774-.4v.516a1.232,1.232,0,0,0,1.233,1.137h.163v8.335a.579.579,0,0,0,.583.583h.449a.579.579,0,0,0,.583-.583v-8.335h.468a1.225,1.225,0,0,0,1.214-1.013,1.707,1.707,0,0,0,.019-.22v-.392l.459.229a7.586,7.586,0,0,1,1.635,1.185,9.454,9.454,0,0,1,.813,1.29c1.443,2.753,1.625,5.984,3.164,8.7a10.554,10.554,0,0,0,3.957,3.957h2.763a2.853,2.853,0,0,0,.086-.306,2.937,2.937,0,0,0-.755-2.571c-.669-.774-1.549-1.348-2.151-2.189a9.149,9.149,0,0,1-1.3-2.944,57.855,57.855,0,0,0-1.768-6.318c-1.147-2.849-3.231-5.573-6.051-6.749a.14.14,0,0,1-.029-.019,2.817,2.817,0,0,1-.583-.526c-1.491-1.721-.688-4.684-.191-6.71a9.967,9.967,0,0,0,.325-4.11,6.086,6.086,0,0,0-.879-2.208c-.01-.019-.019-.029-.029-.048-.1-.143-.191-.277-.287-.421v-9.54c1.1-.115,1.845-.335,1.845-.593V941.3c0-.115-.153-.22-.411-.306a5.492,5.492,0,0,0-1.013-.22v-3.967h.038c.813-.124,1.338-.316,1.338-.526v-.239c0-.335-1.281-.6-2.944-.64V838.8h-.793v96.6c-1.711.038-3.04.325-3.04.66h0v.239c0,.2.488.382,1.262.507l.21.029v3.948a6.337,6.337,0,0,0-.851.172c-.067.019-.124.038-.182.057-.249.1-.392.2-.392.306v.239c0,.248.755.468,1.845.574v9.53l-.229.315c-.029.048-.067.1-.1.143a6.446,6.446,0,0,0-.879,2.208,9.82,9.82,0,0,0,.325,4.11c.478,1.969,1.262,4.827-.067,6.557a3.482,3.482,0,0,1-.487.507,2.233,2.233,0,0,1-.239.182c-2.82,1.176-4.9,3.9-6.051,6.749a60.09,60.09,0,0,0-1.768,6.318,9.241,9.241,0,0,1-1.3,2.944c-.6.841-1.482,1.405-2.151,2.189a2.929,2.929,0,0,0-.755,2.571Z" transform="translate(-114.882 -838.8)" fill="#534741"/>
                  <path id="Trazado_1268960" data-name="Trazado 1268960" d="M243.137,1864.2l.21.029v.573h3.938v-.6h-4.149Zm7.494,34.077c2.218,2.15,2.667,5.42,3.565,8.23a12.668,12.668,0,0,0,1.921,3.957,14.863,14.863,0,0,0,1.74,1.73,3.115,3.115,0,0,1,1.147,1.959h.6c-.057-1.74-1.96-2.734-2.973-4-2.132-2.667-2.294-6.328-3.642-9.377a8.549,8.549,0,0,0-2.753-3.6,8.315,8.315,0,0,0-4.865-1.348c-.392,0,3.843,1.08,5.238,2.447Zm-7.083-18.9a13.8,13.8,0,0,0,3.6.1c-.1-.143-.191-.277-.287-.421v-.163a13.349,13.349,0,0,1-3.087-.1v.258l-.229.316Zm-1.051-11.031a55.891,55.891,0,0,0,5.8.038,5.472,5.472,0,0,0-1.013-.22v-.354c-1.31.038-2.629.029-3.938-.029v.392A6.261,6.261,0,0,0,242.5,1868.349Zm-.153,24.557a15.265,15.265,0,0,0,6.175.162,2.823,2.823,0,0,1-.583-.526,14.49,14.49,0,0,1-5.095-.153,3.474,3.474,0,0,1-.488.506Zm-.134,6.271a5.944,5.944,0,0,1,.774-.4v.516a3.479,3.479,0,0,1,1.969-.793,3.857,3.857,0,0,1,2.724.917,1.712,1.712,0,0,0,.019-.22v-.392l.459.229a4.505,4.505,0,0,0-3.374-1.128,4.223,4.223,0,0,0-2.581,1.281Z" transform="translate(-230.03 -1766.184)" fill="#c8bcb3"/>
                </g>
                <g id="Grupo_1204412" data-name="Grupo 1204412">
                  <path id="Trazado_1268961" data-name="Trazado 1268961" d="M274.806,151.519a4.386,4.386,0,0,0,.679,1.778.23.23,0,0,0,.057.143,3.048,3.048,0,0,0,1.166,1.013l-.325,2.084-.1.64a9.4,9.4,0,0,1,1.969.478h.029l.1-.631.344-2.237a3.047,3.047,0,0,0,1.482-.621.292.292,0,0,0,.1-.124,4.262,4.262,0,0,0,1.185-1.482c1.233-2.524-.105-5.171-1.816-7.1l-.43-.459c-.182.1-.363.2-.545.306C276.479,146.625,274.4,148.738,274.806,151.519Z" transform="translate(-258.002 -145)" fill="#3d322d"/>
                  <path id="Trazado_1268962" data-name="Trazado 1268962" d="M103.676,302.884q-1.1-5.778-2.208-11.566c-.1-.4-.2-.812-.306-1.214-.4-1.615-.841-3.231-1.176-4.865a13.16,13.16,0,0,1-.287-2.514h0a7.789,7.789,0,0,1,.124-1.491c.019-.115.048-.229.067-.344a5.381,5.381,0,0,1,1.854-3.068,6.41,6.41,0,0,1,3.087-1.185l.411-.057c.172-.019.344-.038.516-.048a22.035,22.035,0,0,0,4.693-.478,5.05,5.05,0,0,0,1.405-.688,16.114,16.114,0,0,0,.994-4.292c.249-1.654.507-3.317.755-4.971.038-.229.067-.459.105-.688h0c.21-.067.43-.134.64-.182a9.882,9.882,0,0,1,3.709-.22c.277.038.545.086.813.143a8.805,8.805,0,0,1,1.185.344,9.746,9.746,0,0,1,3.1,1.826h0c.191.163.373.335.554.516-.029.258-.057.526-.076.784q-.588,5.993-.631,12.006a8.941,8.941,0,0,0,3.049,3.307A17.857,17.857,0,0,1,129.8,286.6a7.255,7.255,0,0,1,1.7,3.948,13.888,13.888,0,0,1-.076,3.671,28.2,28.2,0,0,1,2.8,3.613,5.8,5.8,0,0,1,.813,4.005,7.558,7.558,0,0,1-2.141,3.527c-.918.965-1.874,1.9-2.829,2.839-1.166,4-.65,8.507.2,12.522.688,3.26,1.577,6.481,2.065,9.779a71.177,71.177,0,0,1,.707,9.884v1.778a4.791,4.791,0,0,1-.612.449,6.228,6.228,0,0,1-1.529.726,12.969,12.969,0,0,1-4.072.44c-1.51-.019-3.021-.076-4.531-.124l-9.282-.258c-1.549-.038-3.1-.086-4.646-.124-.669-.019-1.338-.029-2.007-.048-.2,0-.4-.01-.6-.019-.593-.019-1.195-.057-1.787-.124a8.823,8.823,0,0,1-3.632-1.166,4.841,4.841,0,0,1-.621-.44c0-.277-.01-.554-.01-.841a44.5,44.5,0,0,1,1.787-14.109c1.176-3.7,3.527-7.121,3.9-11.05a22.542,22.542,0,0,0-.526-6.3c-.392-2.1-.8-4.206-1.2-6.309Z" transform="translate(-99.681 -253.465)" fill="#534741"/>
                  <path id="Trazado_1268963" data-name="Trazado 1268963" d="M263.221,637.482c2.447-.2,6.729-3.728,6.519-3.393a8.417,8.417,0,0,1-13.535,1.128C255.947,634.92,260.736,637.682,263.221,637.482Z" transform="translate(-241.217 -587.317)" fill="#c7bbb2"/>
                  <path id="Trazado_1268964" data-name="Trazado 1268964" d="M99.643,390.993c.134.449.3.9.459,1.338h0a19.581,19.581,0,0,0,6.395,8.546h0l.449.335c.057-.115.105-.229.153-.344h0A14.415,14.415,0,0,0,108.4,392a9.108,9.108,0,0,0-3-5.047h0a6.058,6.058,0,0,0-.755-.545l.411-.057c.172-.019.344-.038.516-.048a7.926,7.926,0,0,1,.688.583,9.783,9.783,0,0,1,2.724,4.942c.755,3.4-.191,6.921-1.663,10a.249.249,0,0,1-.172.134c.5,6.586,3.479,12.828,3.642,19.481.1,3.938-1.08,7.676-2.218,11.394a53.354,53.354,0,0,0-2.265,12.178c-.163,2.457-.182,4.923-.143,7.379,0,.2,0,.411.01.612-.2,0-.4-.01-.6-.019,0-.2,0-.4-.01-.612a61.893,61.893,0,0,1,1.893-17.923c1.09-3.824,2.552-7.609,2.715-11.624.153-3.833-.784-7.59-1.73-11.27a53.862,53.862,0,0,1-1.921-9.893,20.123,20.123,0,0,1-6.3-7.513c-.268-.545-.507-1.1-.717-1.654h0A7.787,7.787,0,0,1,99.624,391Z" transform="translate(-99.5 -363.235)" fill="#b8aea7"/>
                </g>
              </g>
              <g id="ñòîë" transform="translate(20.924 112.909)">
                <path id="Trazado_1268965" data-name="Trazado 1268965" d="M487.156,1505.244V1423H483.6v82.244h0v.7h3.565v-.7Z" transform="translate(-467.809 -1413.747)" fill="#4f5447"/>
                <path id="Trazado_1268966" data-name="Trazado 1268966" d="M520.9,1423v82.942l.325-1.071V1423Z" transform="translate(-501.543 -1413.747)" fill="#6e7c6d"/>
                <g id="Grupo_1204414" data-name="Grupo 1204414" transform="translate(160.33 9.922)">
                  <rect id="Rectángulo_455345" data-name="Rectángulo 455345" width="3.556" height="82.244" fill="#4f5447"/>
                  <rect id="Rectángulo_455346" data-name="Rectángulo 455346" width="3.556" height="0.698" transform="translate(0 82.244)" fill="#6e7c6d"/>
                </g>
                <path id="Trazado_1268967" data-name="Trazado 1268967" d="M1992.3,1430v81.871l.325,1.08V1430Z" transform="translate(-1832.295 -1420.078)" fill="#6e7c6d"/>
                <path id="Trazado_1268968" data-name="Trazado 1268968" d="M369.5,1451.9v99.574h4.655V1451.9Z" transform="translate(-364.615 -1439.885)" fill="#6e7c6d"/>
                <g id="Grupo_1204415" data-name="Grupo 1204415" transform="translate(4.885 12.015)">
                  <path id="Trazado_1268969" data-name="Trazado 1268969" d="M369.5,1451.9v99.574h4.655V1451.9Z" transform="translate(-369.5 -1451.9)" fill="url(#linear-gradient)"/>
                </g>
                <path id="Trazado_1268970" data-name="Trazado 1268970" d="M2171.4,1451.9v99.574h4.646V1451.9Z" transform="translate(-1994.275 -1439.885)" fill="#6e7c6d"/>
                <g id="Grupo_1204416" data-name="Grupo 1204416" transform="translate(177.125 12.015)">
                  <path id="Trazado_1268971" data-name="Trazado 1268971" d="M2171.4,1451.9v99.574h4.646V1451.9Z" transform="translate(-2171.4 -1451.9)" fill="url(#linear-gradient-2)"/>
                </g>
                <path id="Trazado_1268972" data-name="Trazado 1268972" d="M2166.9,1451.9v98.284l.43,1.29V1451.9Z" transform="translate(-1990.205 -1439.885)" fill="#4f5447"/>
                <path id="Trazado_1268973" data-name="Trazado 1268973" d="M418.2,1451.9v99.574l.421-1.1V1451.9Z" transform="translate(-408.66 -1439.885)" fill="#4f5447"/>
                <rect id="Rectángulo_455347" data-name="Rectángulo 455347" width="4.646" height="167.375" transform="translate(9.74 16.661) rotate(-90)" fill="#6e7c6d"/>
                <g id="Grupo_1204417" data-name="Grupo 1204417" transform="translate(9.74 12.015)">
                  <rect id="Rectángulo_455348" data-name="Rectángulo 455348" width="4.646" height="167.375" transform="translate(0 4.646) rotate(-90)" fill="url(#linear-gradient-3)"/>
                </g>
                <rect id="Rectángulo_455349" data-name="Rectángulo 455349" width="2.323" height="187.124" transform="translate(0 12.025) rotate(-90)" fill="#6e7c6d"/>
                <g id="Grupo_1204418" data-name="Grupo 1204418" transform="translate(0 9.702)">
                  <rect id="Rectángulo_455350" data-name="Rectángulo 455350" width="2.323" height="187.124" transform="translate(0 2.323) rotate(-90)" fill="url(#linear-gradient-4)"/>
                </g>
                <path id="Trazado_1268974" data-name="Trazado 1268974" d="M486.052,1326.2l19.471,9.693H318.4l13.344-9.693Z" transform="translate(-318.4 -1326.2)" fill="#6e7c6d"/>
                <g id="Grupo_1204419" data-name="Grupo 1204419">
                  <path id="Trazado_1268975" data-name="Trazado 1268975" d="M486.052,1326.2l19.471,9.693H318.4l13.344-9.693Z" transform="translate(-318.4 -1326.2)" fill="url(#linear-gradient-5)"/>
                </g>
              </g>
              <g id="Grupo_1204424" data-name="Grupo 1204424" transform="translate(20.293 91.698)">
                <path id="Trazado_1268976" data-name="Trazado 1268976" d="M556.635,1370.138v19.443c-.2.048-.4.1-.612.134l-1.615.344a114.8,114.8,0,0,1-27.778,2.17c-1.166.363-2.323.717-3.5,1.051q-8.675,2.524-17.54,4.311c-.2.526-.4,1.042-.593,1.568-.086.239-.038-.612.086-1.463-.832.162-1.673.325-2.5.478-1.988.373-3.986.707-5.984,1.023-.21.774-.421,1.558-.631,2.332a6.822,6.822,0,0,1,.019-2.246c-.66.105-1.319.2-1.979.3l-1.185,3.757c-.086.287.382-2.38.612-3.671a.639.639,0,0,0-.134.019c-.019,0-.038.019-.067.029-.268.115-.535.22-.8.334-.889.363-1.778.726-2.667,1.08-1.768.7-3.556,1.367-5.343,2.007-.277,1.176-.554,2.342-.832,3.508a13.705,13.705,0,0,1,.162-3.269q-2.853,1.018-5.735,1.931c-.277.086-.564.182-.841.268q-5.621,1.764-11.337,3.164-5.32,1.3-10.7,2.285c-.124.019-.249.048-.382.067-.134.344-.268.688-.411,1.032-.1.229-.182.468-.277.7-.048.115-.057,0-.057-.239a8.145,8.145,0,0,1,.124-1.2c.01-.067.019-.124.029-.191q-1.448.258-2.9.488c-.2.745-.4,1.482-.593,2.227a6.809,6.809,0,0,1,.029-2.132c-.593.1-1.195.182-1.788.277a16.4,16.4,0,0,1-.516,2.332,9.1,9.1,0,0,1-.029-2.246c-1.281.182-2.571.354-3.852.516-.2.029-.4.048-.612.077V1377.2c-.765.5-1.883,1.032-1.654.813.554-.516,1.1-1.042,1.654-1.558v-4.11a12.6,12.6,0,0,1-2.093,1.883c.679-.908,1.357-1.826,2.046-2.734-.038-.344-.076-.688-.115-1.042-.048-.4-.086-.812-.134-1.224a12.45,12.45,0,0,1-2.122,1.711,16,16,0,0,0,2.055-2.418,21.424,21.424,0,0,0-.975-5.009,6.243,6.243,0,0,0-2.562-3.193,8.837,8.837,0,0,0-2.036-.946,55.391,55.391,0,0,0-6.835-1.462c-1.224-.229-2.438-.459-3.661-.679-.535.191-1.08.392-1.615.583-.2.076.3-.306.927-.707-.287-.057-.574-.105-.86-.153-2.982-.717-5.965-1.424-8.937-2.141q-5.893-1.419-11.8-2.829-7.026-1.692-14.061-3.374c-.841-.2-1.692-.4-2.533-.612H500.467l3.441.612,4.952.87,18.84,3.326h0a.4.4,0,0,1,.153-.01q8.976,1.434,17.9,3.174c.535.1,1.071.2,1.615.306h.019a16.219,16.219,0,0,1,4.56,1.415h0l.057.029a7.147,7.147,0,0,1,3.489,4.655,20.367,20.367,0,0,1,.5,2.438c.239,1.568.363,3.173.535,4.732.019.21.048.411.067.621Z" transform="translate(-381.259 -1324.705)" fill="#ff9284"/>
                <g id="Grupo_1204422" data-name="Grupo 1204422">
                  <path id="Trazado_1268977" data-name="Trazado 1268977" d="M443.024,1128.882c-.143-1.243-.335-2.495-.593-3.709a9.542,9.542,0,0,0-1.214-3.193,4.429,4.429,0,0,0-1.443-1.386,3.08,3.08,0,0,0-1.29-.43,2.155,2.155,0,0,0-.5,0H322.449a2.536,2.536,0,0,0-1.032.43,2.233,2.233,0,0,0-.239.182,8.265,8.265,0,0,0-2.208,4.751,17.987,17.987,0,0,0-.449,7.112,31.929,31.929,0,0,0,.774,4.053,19.335,19.335,0,0,0,1.137,3.537,4.6,4.6,0,0,0,1.816,2.094c.076.038.143.076.22.115a2.272,2.272,0,0,0,.851.21H438.446a2.19,2.19,0,0,0,.707,0,2.509,2.509,0,0,0,1.051-.43,2.142,2.142,0,0,0,.172-.134,6.285,6.285,0,0,0,1.673-2.5,14.992,14.992,0,0,0,.946-3.393,26.322,26.322,0,0,0,.01-7.3Z" transform="translate(-317.737 -1118.635)" fill="#ff9284"/>
                  <g id="Grupo_1204420" data-name="Grupo 1204420" transform="translate(0.628 1.515)">
                    <path id="Trazado_1268978" data-name="Trazado 1268978" d="M443.024,1128.882c-.143-1.243-.335-2.495-.593-3.709a9.542,9.542,0,0,0-1.214-3.193,4.429,4.429,0,0,0-1.443-1.386,3.08,3.08,0,0,0-1.29-.43,2.155,2.155,0,0,0-.5,0H322.449a2.536,2.536,0,0,0-1.032.43,2.233,2.233,0,0,0-.239.182,8.265,8.265,0,0,0-2.208,4.751,17.987,17.987,0,0,0-.449,7.112,31.929,31.929,0,0,0,.774,4.053,19.335,19.335,0,0,0,1.137,3.537,4.6,4.6,0,0,0,1.816,2.094c.076.038.143.076.22.115a2.272,2.272,0,0,0,.851.21H438.446a2.19,2.19,0,0,0,.707,0,2.509,2.509,0,0,0,1.051-.43,2.142,2.142,0,0,0,.172-.134,6.285,6.285,0,0,0,1.673-2.5,14.992,14.992,0,0,0,.946-3.393,26.322,26.322,0,0,0,.01-7.3Z" transform="translate(-318.364 -1120.15)" fill="url(#linear-gradient-6)"/>
                  </g>
                  <g id="Grupo_1204421" data-name="Grupo 1204421" transform="translate(0.746 13.66)">
                    <path id="Trazado_1268979" data-name="Trazado 1268979" d="M319.61,1247.21c.01.115.029.22.038.335a.325.325,0,0,0,.01.1,32.5,32.5,0,0,0,.765,3.957c.172.688.344,1.386.564,2.065l.143.43c.124.354.268.7.421,1.032a4.6,4.6,0,0,0,1.816,2.093c.076.038.143.077.22.115a2.274,2.274,0,0,0,.851.21H439.564a2.19,2.19,0,0,0,.707,0,2.505,2.505,0,0,0,1.051-.43,2.113,2.113,0,0,0,.172-.134,4.818,4.818,0,0,0,1.023-1.2c.086-.143.172-.287.249-.43.153-.287.287-.574.411-.87a15,15,0,0,0,.946-3.393q.143-.86.2-1.721l.029-.43L319.6,1247.2Z" transform="translate(-319.6 -1247.2)" fill="url(#linear-gradient-7)"/>
                  </g>
                  <path id="Trazado_1268980" data-name="Trazado 1268980" d="M323.088,1108.973a16.987,16.987,0,0,0-2.256.679c-.086-.3-.191-.583-.306-.87.784-.459,1.912-1.377,1.606-1.252-.612.249-1.233.488-1.845.736a5.638,5.638,0,0,0-.382-.66,3.556,3.556,0,0,0-3.46-1.778l-.86-1.491c-.153-.258.067.841.344,1.654a2.923,2.923,0,0,0-.7.44,3.678,3.678,0,0,0-.277.268l-1.338-2.084a9.4,9.4,0,0,0,.937,2.562,7.05,7.05,0,0,0-.889,1.682c-.4-.459-.8-.927-1.2-1.386a7.69,7.69,0,0,0,1.013,1.95c-.134.44-.249.879-.344,1.329a5.018,5.018,0,0,0-1.271-.66c-.277-.1.507.66,1.128,1.281a17.975,17.975,0,0,0-.392,6.93,31.921,31.921,0,0,0,.774,4.053,19.333,19.333,0,0,0,1.138,3.537,4.429,4.429,0,0,0,2.036,2.208,2.388,2.388,0,0,0,2.552-.373,6.287,6.287,0,0,0,1.673-2.5,15,15,0,0,0,.946-3.393,25.958,25.958,0,0,0,.01-7.3c-.143-1.243-.335-2.495-.593-3.709-.038-.2-.086-.392-.143-.593.956-.459,2.428-1.319,2.093-1.243Z" transform="translate(-311.799 -1104.299)" fill="#d37972"/>
                  <path id="Trazado_1268981" data-name="Trazado 1268981" d="M345.8,1193.211c-.067-.535-.143-1.08-.258-1.606a4,4,0,0,0-.526-1.376,1.361,1.361,0,0,0-2.026-.507,3.59,3.59,0,0,0-.956,2.055,7.75,7.75,0,0,0-.191,3.078,13.916,13.916,0,0,0,.335,1.759,9.2,9.2,0,0,0,.488,1.529,1.914,1.914,0,0,0,.879.956,1.032,1.032,0,0,0,1.109-.162,2.767,2.767,0,0,0,.726-1.08,6.922,6.922,0,0,0,.411-1.462,10.9,10.9,0,0,0,0-3.155Z" transform="translate(-338.905 -1181.3)" fill="#534741"/>
                </g>
                <g id="Grupo_1204423" data-name="Grupo 1204423" transform="translate(72.781 35.454)">
                  <path id="Trazado_1268982" data-name="Trazado 1268982" d="M1099.535,1488.516q-7.442,11.786-15.294,23.314-4.875,7.169-9.912,14.224c-.258.373-.526.736-.793,1.109-.115.153-.22.306-.334.459a8.156,8.156,0,0,1,.124-1.2c1.166-1.635,2.323-3.26,3.479-4.9q8.03-11.4,15.648-23.084c4.961-7.6,15.093-22.932,15.3-23.228Q1103.712,1481.9,1099.535,1488.516Z" transform="translate(-1073.2 -1475.2)" fill="#c9bdb4"/>
                  <path id="Trazado_1268983" data-name="Trazado 1268983" d="M1315.4,1742.376c4.684-8.049,13.64-21.689,13.841-21.976-1.376,2.189-2.734,4.4-4.082,6.605q-4.56,7.485-8.909,15.1c-.277.086-.564.182-.841.268Z" transform="translate(-1292.249 -1696.962)" fill="#c9bdb4"/>
                  <path id="Trazado_1268984" data-name="Trazado 1268984" d="M1486.055,1582.149c-.765,2.715-1.568,5.41-2.428,8.087q-3.441,10.8-7.924,21.24c-.268.115-.535.22-.8.335.239-.545.468-1.1.707-1.644,3.881-9.176,10.543-28.39,10.438-28.017Z" transform="translate(-1436.502 -1571.922)" fill="#c9bdb4"/>
                </g>
                <path id="Trazado_1268985" data-name="Trazado 1268985" d="M537.166,1194.787c-2.218-.8-7.093-2.132-6.739-1.988a146.369,146.369,0,0,0,23.964,7.685c2.294.526,4.607.985,6.921,1.4.382.067-16.26-4.225-24.155-7.093Z" transform="translate(-509.512 -1184.329)" fill="#c9bdb4"/>
                <path id="Trazado_1268986" data-name="Trazado 1268986" d="M745.26,1240.981a169.361,169.361,0,0,0,23.983,5.649C769.626,1246.688,744.888,1240.857,745.26,1240.981Z" transform="translate(-703.823 -1227.914)" fill="#c9bdb4"/>
                <path id="Trazado_1268987" data-name="Trazado 1268987" d="M996.423,1179.535a68.76,68.76,0,0,0-7.007-1.835q11.987,4.244,23.974,8.479c2.285.8,4.569,1.615,6.844,2.418C1020.607,1188.731,1004.414,1182.365,996.423,1179.535Z" transform="translate(-924.626 -1170.674)" fill="#c9bdb4"/>
              </g>
              <g id="Grupo_1204425" data-name="Grupo 1204425" transform="translate(60.689 95.101)">
                <path id="Trazado_1268988" data-name="Trazado 1268988" d="M778.045,1140.129v1.52h0v23.658a.019.019,0,0,1-.019.019,4.811,4.811,0,0,1-1.08.124h-2.227a4.331,4.331,0,0,1-1.1-.124.021.021,0,0,1-.019-.019v-25.178h.019c.067-.01.277-.019.593-.029h3.24a4.6,4.6,0,0,1,.574.029Z" transform="translate(-769.853 -1140.081)" fill="#534741"/>
                <path id="Trazado_1268989" data-name="Trazado 1268989" d="M746.425,1177.263c0,.316-2.7.583-6.022.583s-5.821-.239-6-.545v-.077h0l.191-2.953.077-1.128.516-8.1.076-1.176.124-1.883.038-.65.268-4.168.038-.659.1-1.472v-.057a57.237,57.237,0,0,1,9.11,0v.057l.086,1.281.048.736L745.4,1162l.038.621.507,7.59.048.66.382,5.659.038.612v.124Z" transform="translate(-734.4 -1153.376)" fill="#cf4c19"/>
                <path id="Trazado_1268990" data-name="Trazado 1268990" d="M748.1,1190.9a31.281,31.281,0,0,1-11.528-2.81,74.981,74.981,0,0,0,10.123-3.107.451.451,0,0,0,.115-.067c.306.115.612.229.918.334l-.048-.659a38.213,38.213,0,0,1-10.524-5.745A34.608,34.608,0,0,0,747.159,1177l-.038-.621a34.261,34.261,0,0,1-10.151,1.864l-.076,1.176a38.837,38.837,0,0,0,9.1,5.191,74.753,74.753,0,0,1-9.616,2.906l-.076,1.128a31.885,31.885,0,0,0,11.824,2.877l-.038-.612Zm-1.357-20.2a27.73,27.73,0,0,1-3.164,2.179.181.181,0,0,0-.077-.019,21.405,21.405,0,0,1-6.07-1.969l-.038.66a21.739,21.739,0,0,0,5.382,1.8,29.229,29.229,0,0,1-5.64,2.371l-.038.65a29.279,29.279,0,0,0,9.7-4.923l-.048-.736Z" transform="translate(-736.118 -1167.756)" fill="#c8bcb3"/>
                <path id="Trazado_1268991" data-name="Trazado 1268991" d="M758,1154.729c0,.01-.01.019-.038.029a33.27,33.27,0,0,1-4.56.182,32.243,32.243,0,0,1-4.56-.191.043.043,0,0,1-.038-.029c0-.01.01-.019.038-.029a32.443,32.443,0,0,1,4.56-.191,33.2,33.2,0,0,1,4.55.182c.029.01.048.019.048.029Z" transform="translate(-747.424 -1153.104)" fill="#cf4c19"/>
                <path id="Trazado_1268992" data-name="Trazado 1268992" d="M778.045,1139.948v1.52h0s0,.01-.019.019a10.277,10.277,0,0,1-2.2.143,10.4,10.4,0,0,1-2.208-.143.021.021,0,0,1-.019-.019h0v-1.52h.019c.067-.01.277-.019.593-.029.4-.01.975-.019,1.615-.019s1.224,0,1.625.019a4.6,4.6,0,0,1,.574.029Z" transform="translate(-769.853 -1139.9)" fill="#534741"/>
              </g>
              <g id="Grupo_1204426" data-name="Grupo 1204426" transform="translate(71.271 96.563)">
                <path id="Trazado_1268993" data-name="Trazado 1268993" d="M888.745,1155.429v1.52h0v23.658a.019.019,0,0,1-.019.019,4.8,4.8,0,0,1-1.08.124h-2.227a4.321,4.321,0,0,1-1.1-.124.021.021,0,0,1-.019-.019v-25.178h.019c.067-.01.277-.019.593-.029h3.24a4.607,4.607,0,0,1,.573.029Z" transform="translate(-880.553 -1155.381)" fill="#534741"/>
                <path id="Trazado_1268994" data-name="Trazado 1268994" d="M857.125,1192.563c0,.316-2.7.583-6.022.583s-5.821-.239-6-.545v-.076h0l.191-2.954.076-1.128.516-8.1.076-1.176.124-1.883.038-.65.268-4.168.038-.66.1-1.472v-.057a57.2,57.2,0,0,1,9.11,0v.057l.086,1.281.048.736.334,4.942.038.621.507,7.59.048.66.382,5.659.038.612v.124Z" transform="translate(-845.1 -1168.676)" fill="#801f0e"/>
                <path id="Trazado_1268995" data-name="Trazado 1268995" d="M858.7,1206.207a31.283,31.283,0,0,1-11.528-2.81,75,75,0,0,0,10.123-3.107.456.456,0,0,0,.115-.067c.306.115.612.229.918.334l-.048-.659a38.212,38.212,0,0,1-10.524-5.745,34.6,34.6,0,0,0,10.008-1.845l-.038-.621a34.26,34.26,0,0,1-10.151,1.864l-.077,1.176a38.842,38.842,0,0,0,9.1,5.191,74.756,74.756,0,0,1-9.616,2.906l-.076,1.128a31.882,31.882,0,0,0,11.824,2.877l-.038-.612ZM857.348,1186a27.724,27.724,0,0,1-3.164,2.179.181.181,0,0,0-.076-.019,21.4,21.4,0,0,1-6.07-1.969l-.038.66a21.739,21.739,0,0,0,5.382,1.8,29.228,29.228,0,0,1-5.64,2.371l-.038.65a29.281,29.281,0,0,0,9.7-4.923l-.048-.736Z" transform="translate(-846.728 -1183.056)" fill="#c8bcb3"/>
                <path id="Trazado_1268996" data-name="Trazado 1268996" d="M868.7,1170.129c0,.01-.01.019-.038.029a33.28,33.28,0,0,1-4.56.182,32.223,32.223,0,0,1-4.56-.191.043.043,0,0,1-.038-.029c0-.01.01-.019.038-.029a32.464,32.464,0,0,1,4.56-.191,33.219,33.219,0,0,1,4.55.182c.029.01.048.019.048.029Z" transform="translate(-858.123 -1168.495)" fill="#801f0e"/>
                <path id="Trazado_1268997" data-name="Trazado 1268997" d="M888.745,1155.248v1.52h0s0,.01-.019.019a10.355,10.355,0,0,1-2.2.143,10.476,10.476,0,0,1-2.208-.143.021.021,0,0,1-.019-.019h0v-1.52h.019c.067-.01.277-.019.593-.029.4-.01.975-.019,1.615-.019s1.224,0,1.625.019a4.633,4.633,0,0,1,.573.029Z" transform="translate(-880.553 -1155.2)" fill="#534741"/>
              </g>
            </g>
            <g id="Grupo_1204446" data-name="Grupo 1204446" transform="translate(57.955)">
              <g id="Grupo_1204432" data-name="Grupo 1204432" transform="translate(0 35.196)">
                <path id="Trazado_1268998" data-name="Trazado 1268998" d="M834.863,491.227a127.9,127.9,0,0,1-10.62,47.01c-.076.172-.153.354-.229.526l-.526-.229L769.423,514.5l-.554-.248-18.993-8.44-.554-.249-19.041-8.46-.554-.249L712.29,489.1l-.535-.239.2-.545c.038-.105.076-.21.115-.325a10.892,10.892,0,0,0,.621-4.426,8.129,8.129,0,0,0-1.644-4.148,14.036,14.036,0,0,0-4.732-3.833c-.172-.1-.344-.182-.516-.268.124-.153.239-.306.363-.459l6.854-8.6c.115-.153.239-.3.354-.449.143.124.3.249.44.363a32.364,32.364,0,0,0,4.684,3.269c4.139,2.294,9.368,3.154,13.44.239a11.645,11.645,0,0,0,4.54-7.217c.038-.191.076-.373.105-.564.191.057.382.124.573.191,1.386.459,2.763.956,4.12,1.5.746.3,1.482.6,2.208.927.182.076.373.163.554.249a72.73,72.73,0,0,1,18.382,11.863h0l21.9,1.3.64.038,49.228,2.915.573.029c0,.191.019.382.029.574q.215,4.861.057,9.731Z" transform="translate(-705.8 -461.9)" fill="#a97355"/>
                <g id="Grupo_1204428" data-name="Grupo 1204428">
                  <path id="Trazado_1268999" data-name="Trazado 1268999" d="M834.863,491.227a127.9,127.9,0,0,1-10.62,47.01c-.076.172-.153.354-.229.526l-.526-.229L769.423,514.5l-.554-.248-18.993-8.44-.554-.249-19.041-8.46-.554-.249L712.29,489.1l-.535-.239.2-.545c.038-.105.076-.21.115-.325a10.892,10.892,0,0,0,.621-4.426,8.129,8.129,0,0,0-1.644-4.148,14.036,14.036,0,0,0-4.732-3.833c-.172-.1-.344-.182-.516-.268.124-.153.239-.306.363-.459l6.854-8.6c.115-.153.239-.3.354-.449.143.124.3.249.44.363a32.364,32.364,0,0,0,4.684,3.269c4.139,2.294,9.368,3.154,13.44.239a11.645,11.645,0,0,0,4.54-7.217c.038-.191.076-.373.105-.564.191.057.382.124.573.191,1.386.459,2.763.956,4.12,1.5.746.3,1.482.6,2.208.927.182.076.373.163.554.249a72.73,72.73,0,0,1,18.382,11.863h0l21.9,1.3.64.038,49.228,2.915.573.029c0,.191.019.382.029.574q.215,4.861.057,9.731Z" transform="translate(-705.8 -461.9)" fill="url(#linear-gradient-8)"/>
                </g>
                <g id="Grupo_1204429" data-name="Grupo 1204429" transform="translate(43.531 14.529)">
                  <path id="Trazado_1269000" data-name="Trazado 1269000" d="M1162.232,907.258l-.478,1.118-.554-.249.478-1.128C1161.859,907.086,1162.041,907.172,1162.232,907.258Z" transform="translate(-1161.2 -878.983)" fill="#c8bcb3"/>
                  <path id="Trazado_1269001" data-name="Trazado 1269001" d="M1169.156,878.7l-.956,2.237c.182.086.363.172.554.258l.956-2.237C1169.529,878.872,1169.347,878.786,1169.156,878.7Z" transform="translate(-1167.531 -853.388)" fill="#c8bcb3"/>
                  <path id="Trazado_1269002" data-name="Trazado 1269002" d="M1181.026,855.9l-.726,1.711c.182.086.363.172.554.258l.774-1.816c-.2-.057-.4-.105-.593-.153Z" transform="translate(-1178.474 -832.768)" fill="#c8bcb3"/>
                  <path id="Trazado_1269003" data-name="Trazado 1269003" d="M1191.176,822.1,1190,824.872c.2.048.4.1.593.153l1.128-2.657C1191.539,822.272,1191.357,822.186,1191.176,822.1Z" transform="translate(-1187.247 -802.198)" fill="#c8bcb3"/>
                  <path id="Trazado_1269004" data-name="Trazado 1269004" d="M1218.138,763.405c-.105-.029-.22-.067-.325-.105l-1.013,2.38c.2.048.392.105.593.162l1.013-2.38c-.086-.019-.163-.038-.258-.067Z" transform="translate(-1211.485 -749.019)" fill="#c8bcb3"/>
                  <path id="Trazado_1269005" data-name="Trazado 1269005" d="M1230.509,731.3l-1.109,2.6a4.4,4.4,0,0,0,.468.143l.115.029,1.1-2.581c-.191-.067-.382-.124-.583-.191Z" transform="translate(-1222.881 -720.078)" fill="#c8bcb3"/>
                  <path id="Trazado_1269006" data-name="Trazado 1269006" d="M1244.247,698.2l-1.147,2.7c.191.057.392.124.583.191l1.147-2.686q-.287-.115-.574-.2Z" transform="translate(-1235.271 -690.142)" fill="#c8bcb3"/>
                  <path id="Trazado_1269007" data-name="Trazado 1269007" d="M1258.113,668.4l-1.013,2.38c.191.057.382.134.573.21l1.013-2.38A4.122,4.122,0,0,0,1258.113,668.4Z" transform="translate(-1247.933 -663.19)" fill="#c8bcb3"/>
                  <path id="Trazado_1269008" data-name="Trazado 1269008" d="M1283.167,614.12c-.163-.076-.325-.153-.488-.22l-.879,2.065a5.746,5.746,0,0,1,.564.22l.87-2.036A.474.474,0,0,0,1283.167,614.12Z" transform="translate(-1270.272 -613.9)" fill="#c8bcb3"/>
                  <path id="Trazado_1269009" data-name="Trazado 1269009" d="M1270.746,640.31l-.946,2.218c.191.057.382.134.574.21l.946-2.218c-.182-.076-.373-.153-.564-.22Z" transform="translate(-1259.419 -637.776)" fill="#c8bcb3"/>
                  <path id="Trazado_1269010" data-name="Trazado 1269010" d="M1206.02,793.363c-.105-.038-.22-.067-.325-.105a.305.305,0,0,1-.086-.029h-.019l-.115-.029-.975,2.294h0c.182.086.363.172.535.258l1.013-2.39a.035.035,0,0,1-.029-.01Z" transform="translate(-1200.361 -776.061)" fill="#c8bcb3"/>
                </g>
                <g id="Grupo_1204430" data-name="Grupo 1204430" transform="translate(23.935 2.629)">
                  <path id="Trazado_1269011" data-name="Trazado 1269011" d="M957.032,820.958l-.277.65-.554-.248.287-.66c.182.086.363.172.554.258Z" transform="translate(-956.2 -789.032)" fill="#c8bcb3"/>
                  <path id="Trazado_1269012" data-name="Trazado 1269012" d="M962.156,792.4l-.956,2.237c.182.086.363.172.554.258l.956-2.237C962.529,792.572,962.347,792.486,962.156,792.4Z" transform="translate(-960.722 -763.437)" fill="#c8bcb3"/>
                  <path id="Trazado_1269013" data-name="Trazado 1269013" d="M974.026,769.7l-.727,1.711c.182.086.363.172.554.258l.774-1.816c-.2-.057-.4-.105-.593-.153Z" transform="translate(-971.665 -742.907)" fill="#c8bcb3"/>
                  <path id="Trazado_1269014" data-name="Trazado 1269014" d="M984.176,735.8,983,738.572c.2.048.4.1.593.153l1.128-2.657C984.539,735.972,984.357,735.886,984.176,735.8Z" transform="translate(-980.438 -712.247)" fill="#c8bcb3"/>
                  <path id="Trazado_1269015" data-name="Trazado 1269015" d="M1011.038,677.105c-.105-.029-.22-.067-.325-.105l-1.013,2.38c.2.048.392.105.593.162l1.013-2.38c-.086-.019-.162-.038-.258-.067Z" transform="translate(-1004.586 -659.068)" fill="#c8bcb3"/>
                  <path id="Trazado_1269016" data-name="Trazado 1269016" d="M1023.409,645l-1.109,2.6a4.355,4.355,0,0,0,.468.143l.115.029,1.1-2.581c-.191-.067-.382-.124-.583-.191Z" transform="translate(-1015.982 -630.126)" fill="#c8bcb3"/>
                  <path id="Trazado_1269017" data-name="Trazado 1269017" d="M1037.147,611.9,1036,614.6c.191.057.392.124.583.191l1.147-2.686q-.287-.115-.573-.2Z" transform="translate(-1028.372 -600.19)" fill="#c8bcb3"/>
                  <path id="Trazado_1269018" data-name="Trazado 1269018" d="M1051.113,582.1l-1.013,2.38c.191.057.382.134.573.21l1.013-2.38A4.122,4.122,0,0,0,1051.113,582.1Z" transform="translate(-1041.124 -573.239)" fill="#c8bcb3"/>
                  <path id="Trazado_1269019" data-name="Trazado 1269019" d="M1076.067,527.82c-.163-.076-.325-.153-.487-.22l-.88,2.065a5.749,5.749,0,0,1,.564.22l.87-2.036A.461.461,0,0,0,1076.067,527.82Z" transform="translate(-1063.373 -523.949)" fill="#c8bcb3"/>
                  <path id="Trazado_1269020" data-name="Trazado 1269020" d="M1087.032,497.3,1086,499.728c.191.076.373.162.554.249l1.051-2.476Q1087.319,497.386,1087.032,497.3Z" transform="translate(-1073.593 -496.545)" fill="#c8bcb3"/>
                  <path id="Trazado_1269021" data-name="Trazado 1269021" d="M1099.579,489.639l-.105.248a4.551,4.551,0,0,0-.574-.2l.124-.287c.182.076.373.163.554.249Z" transform="translate(-1085.26 -489.4)" fill="#c8bcb3"/>
                  <path id="Trazado_1269022" data-name="Trazado 1269022" d="M1063.646,554.01l-.946,2.218c.191.057.382.134.573.21l.946-2.218c-.182-.076-.373-.153-.564-.22Z" transform="translate(-1052.52 -547.825)" fill="#c8bcb3"/>
                  <path id="Trazado_1269023" data-name="Trazado 1269023" d="M999.02,707.063c-.105-.038-.22-.067-.325-.105a.3.3,0,0,1-.086-.029h-.019l-.115-.029-.975,2.294h0c.182.086.363.172.535.258l1.013-2.39a.035.035,0,0,1-.029-.01Z" transform="translate(-993.552 -686.11)" fill="#c8bcb3"/>
                </g>
                <g id="Grupo_1204431" data-name="Grupo 1204431" transform="translate(63.079 16.03)">
                  <path id="Trazado_1269024" data-name="Trazado 1269024" d="M1366.6,1001.358l-.344.8-.554-.249.344-.812C1366.226,1001.186,1366.407,1001.272,1366.6,1001.358Z" transform="translate(-1365.7 -965.589)" fill="#c8bcb3"/>
                  <path id="Trazado_1269025" data-name="Trazado 1269025" d="M1372.256,972.8l-.956,2.237c.182.086.363.172.554.258l.956-2.237C1372.629,972.972,1372.447,972.886,1372.256,972.8Z" transform="translate(-1370.765 -939.994)" fill="#c8bcb3"/>
                  <path id="Trazado_1269026" data-name="Trazado 1269026" d="M1384.126,950l-.726,1.711c.182.086.363.172.554.258l.774-1.816c-.2-.057-.4-.105-.593-.153Z" transform="translate(-1381.708 -919.373)" fill="#c8bcb3"/>
                  <path id="Trazado_1269027" data-name="Trazado 1269027" d="M1394.276,916.2l-1.176,2.772c.2.048.4.1.593.153l1.128-2.657C1394.639,916.372,1394.457,916.286,1394.276,916.2Z" transform="translate(-1390.481 -888.804)" fill="#c8bcb3"/>
                  <path id="Trazado_1269028" data-name="Trazado 1269028" d="M1421.238,857.505c-.1-.029-.22-.067-.325-.105l-1.013,2.38c.2.048.392.105.593.162l1.013-2.38c-.086-.019-.162-.038-.258-.067Z" transform="translate(-1414.719 -835.625)" fill="#c8bcb3"/>
                  <path id="Trazado_1269029" data-name="Trazado 1269029" d="M1433.609,825.4,1432.5,828a4.351,4.351,0,0,0,.468.143l.115.029,1.1-2.581c-.191-.067-.382-.124-.583-.191Z" transform="translate(-1426.115 -806.684)" fill="#c8bcb3"/>
                  <path id="Trazado_1269030" data-name="Trazado 1269030" d="M1447.347,792.3,1446.2,795c.191.057.392.124.583.191l1.147-2.686q-.287-.115-.574-.2Z" transform="translate(-1438.505 -776.748)" fill="#c8bcb3"/>
                  <path id="Trazado_1269031" data-name="Trazado 1269031" d="M1461.213,762.5l-1.013,2.38c.191.057.382.134.573.21l1.013-2.38A4.12,4.12,0,0,0,1461.213,762.5Z" transform="translate(-1451.167 -749.796)" fill="#c8bcb3"/>
                  <path id="Trazado_1269032" data-name="Trazado 1269032" d="M1486.267,708.22c-.162-.076-.325-.153-.487-.22l-.879,2.065a5.766,5.766,0,0,1,.564.22l.87-2.036A.456.456,0,0,0,1486.267,708.22Z" transform="translate(-1473.506 -700.506)" fill="#c8bcb3"/>
                  <path id="Trazado_1269033" data-name="Trazado 1269033" d="M1497.132,677.7l-1.032,2.428c.191.076.373.163.554.249l1.052-2.476Q1497.419,677.786,1497.132,677.7Z" transform="translate(-1483.635 -673.102)" fill="#c8bcb3"/>
                  <path id="Trazado_1269034" data-name="Trazado 1269034" d="M1520.443,629.638l-.86,2.027c-.048-.01-.086-.029-.134-.038-.153-.048-.306-.1-.449-.153l.8-1.874Z" transform="translate(-1504.346 -629.6)" fill="#c8bcb3"/>
                  <path id="Trazado_1269035" data-name="Trazado 1269035" d="M1510.352,654.362c-.172-.048-.335-.105-.5-.162l-.755,1.778q.287.086.573.2l.765-1.788c-.029,0-.057-.019-.086-.019Z" transform="translate(-1495.392 -651.849)" fill="#c8bcb3"/>
                  <path id="Trazado_1269036" data-name="Trazado 1269036" d="M1473.846,734.41l-.946,2.218c.191.057.382.134.574.21l.946-2.218c-.182-.076-.373-.153-.564-.22Z" transform="translate(-1462.653 -724.382)" fill="#c8bcb3"/>
                  <path id="Trazado_1269037" data-name="Trazado 1269037" d="M1409.12,887.462c-.105-.038-.22-.067-.325-.105a.3.3,0,0,1-.086-.029h-.019l-.115-.029-.975,2.294h0c.182.086.363.172.535.258l1.013-2.39a.035.035,0,0,1-.029-.01Z" transform="translate(-1403.595 -862.667)" fill="#c8bcb3"/>
                </g>
              </g>
              <g id="Grupo_1204435" data-name="Grupo 1204435" transform="translate(59.679)">
                <path id="Trazado_1269038" data-name="Trazado 1269038" d="M1378.773,299.066c-2.954-1.768-5.687-3.69-8.431-5.716-.574-.43-1.185-.889-1.787-1.348a23.427,23.427,0,0,1-3.785-3.269c.946-2.208-1.912-5.429-3.116-7.284a4.737,4.737,0,0,0-2.007-2.361c-.363-.688-.917-1.29-1.3-1.988h0c-1.644.344-.153,2.705.306,3.556.277.535.8.927,1.061,1.443l.019.057.134.478a30.768,30.768,0,0,0-5.955-1.94h0c-1.348-.229-1.854,1.453-.965,2.3a1.485,1.485,0,0,0-.488.488c-.44.956.411,2.065,1.109,2.667a.8.8,0,0,0-.076.258h0a1.093,1.093,0,0,0,.8,1.071c-.316,1.463,1.644,1.893,2.743,1.912a4.908,4.908,0,0,0,2.992,1.491c.239.344,1.835,2.724,3.508,5.095.42.593.841,1.185,1.243,1.749,3.671,5.038,7.313,9.588,11.06,14.96a32.939,32.939,0,0,0,3.8,4.33,16.236,16.236,0,0,0,2.065,1.663c2.829,1.874,5.936,2.227,9.215-.736,4.617-4.129,2.313-8.44-1.606-11.958-.65-.583-1.348-1.147-2.065-1.682a43.763,43.763,0,0,0-6.3-3.929c-.707-.449-1.424-.889-2.16-1.319Z" transform="translate(-1350.214 -259.569)" fill="#ed8654"/>
                <path id="Trazado_1269039" data-name="Trazado 1269039" d="M1427.563,333.282c.344,1.319,1.931,4.579,1.826,4.474a9.078,9.078,0,0,1-2.189-4.655c.124.057.249.124.363.182Z" transform="translate(-1417.921 -310.216)" fill="#f3bd90"/>
                <g id="Grupo_1204434" data-name="Grupo 1204434">
                  <path id="Trazado_1269040" data-name="Trazado 1269040" d="M1419.026,290.418c-1.138-6.07-7.934-5.4-6.385,1.138C1413.5,296.918,1419.857,295.56,1419.026,290.418Zm-1.587,1.912c-1.157,1.816-3.365.746-3.556-1.147-.191-1.051-.3-2.629.956-3.107C1417.047,287.4,1418.471,290.656,1417.439,292.329Z" transform="translate(-1404.547 -267.83)" fill="#cf4c19"/>
                  <path id="Trazado_1269041" data-name="Trazado 1269041" d="M1375.589,114.346a2.758,2.758,0,0,1,.755-1.224,113.588,113.588,0,0,1-3.355-19.022c-2.705,3.919-1.405,8.909.029,13.086q1.2,3.914,2.418,7.819a4.861,4.861,0,0,1,.153-.669Z" transform="translate(-1367.467 -94.062)" fill="#aa9d98"/>
                  <g id="Grupo_1204433" data-name="Grupo 1204433" transform="translate(3.946 0.038)">
                    <path id="Trazado_1269042" data-name="Trazado 1269042" d="M1375.589,114.346a2.758,2.758,0,0,1,.755-1.224,113.588,113.588,0,0,1-3.355-19.022c-2.705,3.919-1.405,8.909.029,13.086q1.2,3.914,2.418,7.819a4.861,4.861,0,0,1,.153-.669Z" transform="translate(-1371.413 -94.1)" fill="url(#linear-gradient-9)"/>
                  </g>
                  <path id="Trazado_1269043" data-name="Trazado 1269043" d="M1330.817,295.166a2.945,2.945,0,0,0,4.607.545c1.529-1.6,1.95-5.764.2-7.341-3.785-2.514-6.93,3.871-4.808,6.787Zm.66-2.982c.507-3.69,4.655-3.441,3.881.516C1335.013,295.95,1331.094,295.3,1331.476,292.184Z" transform="translate(-1330.132 -269.242)" fill="#cf4c19"/>
                  <path id="Trazado_1269044" data-name="Trazado 1269044" d="M1388.412,114.032a2.645,2.645,0,0,0-.812-1.185,113.406,113.406,0,0,0,2.485-19.146c2.887,3.795,1.807,8.842.564,13.076-.688,2.638-1.376,5.286-2.055,7.924a4.771,4.771,0,0,0-.182-.66Z" transform="translate(-1382.107 -93.7)" fill="#aa9d98"/>
                  <path id="Trazado_1269045" data-name="Trazado 1269045" d="M1398.516,247.663c-.564-.306-1.023.354-.688.86C1398.449,249.345,1399.453,248.093,1398.516,247.663Z" transform="translate(-1391.254 -232.876)" fill="#c9bdb4"/>
                </g>
                <path id="Trazado_1269046" data-name="Trazado 1269046" d="M1359.579,322.18c-.124.287-.478.335-.755.335.182.918-1.195.774-1.778.9-.1-.077-.191-.163-.287-.249-1.09-.019-3.059-.459-2.743-1.912a1.1,1.1,0,0,1-.8-1.071h0a.739.739,0,0,1,.076-.258,3.175,3.175,0,0,1-.832-.985,1.69,1.69,0,0,1-.277-1.692,1.4,1.4,0,0,1,.488-.487c-.86-.832-.4-2.495.918-2.3.421,1.271,1.6,2.122,2.113,3.346a.558.558,0,0,1-.784.774l.258.459c.688.239,2.361.564,1.835,1.6.937.048,2.772.249,2.562,1.549Z" transform="translate(-1349.947 -293.341)" fill="#ed8654"/>
                <path id="Trazado_1269047" data-name="Trazado 1269047" d="M1412.611,283.112a30.308,30.308,0,0,1-1.893-2.868,10.777,10.777,0,0,1-2.648-3.145h0c-1.644.344-.153,2.705.306,3.556.277.535.8.927,1.061,1.443.421,1.243,2.112,1.3,3.212,1.051,0-.01-.019-.019-.029-.038Z" transform="translate(-1399.939 -259.569)" fill="#ed8654"/>
                <path id="Trazado_1269048" data-name="Trazado 1269048" d="M1412.342,278.6a1.487,1.487,0,0,1-1.023-1.3l-.22.105c.124.707.669,1.482,1.453,1.453a2.613,2.613,0,0,1-.21-.249Z" transform="translate(-1403.36 -259.75)" fill="#f3bd90"/>
                <path id="Trazado_1269049" data-name="Trazado 1269049" d="M1362.66,321.75c-.507-.86-1.625-.908-2.514-.975.526-1.032-1.147-1.357-1.835-1.6l-.258-.459a.559.559,0,0,0,.784-.774c-.526-1.224-1.692-2.065-2.113-3.346h-.249c.392,1.386,1.768,2.275,2.208,3.642a1.131,1.131,0,0,0-1.539-.4,17.289,17.289,0,0,1-1.644-1.367,1.776,1.776,0,0,0,.3.44.573.573,0,0,0-.1.067,17.132,17.132,0,0,0,1.931,1.5c.172.3.344.593.506.889.574.277,2.017.373,1.835,1.243a1.085,1.085,0,0,0-1.807-.229,9.331,9.331,0,0,1-2.581-1.29c.813,1.252,2.743,1.606,4.129,1.883h0c.937.153,2.533,0,2.8,1.176-.478-.421-1.443-.526-1.692.191a16.941,16.941,0,0,1-3.69-.851,2.02,2.02,0,0,0-.019.239,17.55,17.55,0,0,0,4.588.927.4.4,0,0,1,.038.143c-.468-.191-1.271-.115-1.319.507-.163.019-.335.038-.5.048.086.067.162.143.249.21.574-.134,1.959.01,1.778-.9.526.076,1.023-.392.707-.9Zm-5.305-3.766a.907.907,0,0,1,1.214.564C1358.119,318.682,1357.727,318.194,1357.354,317.984Zm2.361,2.743a8.38,8.38,0,0,1-1.29-.277.838.838,0,0,1,1.348.268.186.186,0,0,0-.067.01Zm1.941,2.285a2.982,2.982,0,0,1-.994.249c.105-.411.688-.382,1-.258h0Zm.564-.612a5.858,5.858,0,0,1-1.157-.048c.268-.516.966-.335,1.338-.019A.467.467,0,0,1,1362.22,322.4Z" transform="translate(-1353.075 -293.484)" fill="#f3bd90"/>
              </g>
              <path id="Trazado_1269050" data-name="Trazado 1269050" d="M1756.589,440.156a7.9,7.9,0,0,0,1.233.86,13.278,13.278,0,0,0,1.271.65,12.1,12.1,0,0,0,5.477.994,11.587,11.587,0,0,0,5.286-1.6,5.5,5.5,0,0,0,2.2-1.969,2.189,2.189,0,0,0-.3-2.562,2.559,2.559,0,0,0-1.386-.392,1.528,1.528,0,0,1-.947-.6,7.806,7.806,0,0,1-.765-1.74c-.325-.946-.6-1.931-.659-2.16q-.115-.731-.229-1.434c-.01-.076-.029-.153-.038-.239-.048-.258-.086-.507-.143-.765a8.818,8.818,0,0,0-.822-2.418c-.067-.124-.143-.249-.22-.373a4.6,4.6,0,0,0-1.73-1.673,2.511,2.511,0,0,0-2.476.048,4.091,4.091,0,0,0-1.51,1.768c-.067.134-.124.268-.182.4a9.529,9.529,0,0,0-.574,2.313c-.057.411-.1.822-.134,1.243a15.767,15.767,0,0,1-.459,2.858,1.909,1.909,0,0,1-.067.22,1.989,1.989,0,0,1-.076.22h0c-.029.086-.067.172-.105.258a5.912,5.912,0,0,1-1.329,1.979,5.181,5.181,0,0,1-1.109.832,3.941,3.941,0,0,1-.612.287,2.305,2.305,0,0,1-.334.115c-.124.038-.239.038-.3.182-.4,1.023.373,2.093,1.042,2.7Z" transform="translate(-1655.112 -392.821)" fill="#ed8654"/>
              <path id="Trazado_1269051" data-name="Trazado 1269051" d="M1711.872,336.186a2.333,2.333,0,0,1-.621.363c-.994.373-1.969-.21-2.734-1.2a7.029,7.029,0,0,1-1.386-5h0a1.688,1.688,0,0,1,.631-1.023.745.745,0,0,1,.535-.038h.01a.035.035,0,0,1,.029.01.3.3,0,0,1,.1.048.8.8,0,0,1,.115.076c.01,0,.019.019.029.029.029.029.057.048.086.077s.038.048.057.067a1.482,1.482,0,0,1,.115.21.632.632,0,0,0,.143.21.4.4,0,0,0,.277.057c.115-.01.22-.038.335-.057a.407.407,0,0,0,.105-.019c.057-.01.115-.029.172-.038.076.2.153.411.229.621.048.134.1.258.143.392.067.182.134.373.2.564q.215.588.4,1.176c.315.956.6,1.931.87,2.906.057.2.105.392.162.593Z" transform="translate(-1611.332 -306.735)" fill="#ed8654"/>
              <path id="Trazado_1269052" data-name="Trazado 1269052" d="M1711.872,336.186a2.333,2.333,0,0,1-.621.363c-.994.373-1.969-.21-2.734-1.2a7.029,7.029,0,0,1-1.386-5h0a1.688,1.688,0,0,1,.631-1.023.745.745,0,0,1,.535-.038h.01a.035.035,0,0,1,.029.01.3.3,0,0,1,.1.048.8.8,0,0,1,.115.076c.01,0,.019.019.029.029.029.029.057.048.086.077s.038.048.057.067a1.482,1.482,0,0,1,.115.21.632.632,0,0,0,.143.21.4.4,0,0,0,.277.057c.115-.01.22-.038.335-.057a.407.407,0,0,0,.105-.019c.057-.01.115-.029.172-.038.076.2.153.411.229.621.048.134.1.258.143.392.067.182.134.373.2.564q.215.588.4,1.176c.315.956.6,1.931.87,2.906.057.2.105.392.162.593Z" transform="translate(-1611.332 -306.735)" fill="#d2c6bd" opacity="0.5"/>
              <path id="Trazado_1269053" data-name="Trazado 1269053" d="M1720.262,336.334c-.076.1-1.013-.554-1.453-1.042-.048-.057-.1-.115-.134-.162a5.126,5.126,0,0,1-.43-.736,5.9,5.9,0,0,1-.3-.669,7.689,7.689,0,0,1-.488-1.721,4.227,4.227,0,0,1-.019-.918,6.88,6.88,0,0,1,.182-.879,1.49,1.49,0,0,0,.048-.22c.019-.1.029-.191.038-.287h.01a.035.035,0,0,1,.029.01.3.3,0,0,1,.1.048.815.815,0,0,1,.115.076c.01,0,.019.019.029.029.029.029.057.048.086.076s.038.048.057.067v.029c-.057.3-.153.583-.2.87a3.344,3.344,0,0,0-.029.927,13.375,13.375,0,0,0,.469,1.711,3.9,3.9,0,0,0,.191.593,4.446,4.446,0,0,0,.535.937h0c.573.774,1.224,1.224,1.176,1.281Z" transform="translate(-1620.726 -307.141)" fill="#f1bb8e"/>
              <path id="Trazado_1269054" data-name="Trazado 1269054" d="M1930.694,312.613a6.739,6.739,0,0,1-.6,1.6c-.641,1.176-1.625,1.874-2.839,1.338a1.147,1.147,0,0,1-.153-.076c.01-.2.019-.411.038-.612.048-.755.115-1.5.191-2.246.067-.65.143-1.3.239-1.95a.211.211,0,0,1,.01-.076h0c.029-.191.057-.373.086-.564.058-.354.115-.707.163-1.061h.612a.311.311,0,0,0,.258-.115.538.538,0,0,0,.1-.229,2.034,2.034,0,0,1,.067-.229h0c.01-.029.029-.057.038-.086a.886.886,0,0,1,.277-.287c.01,0,.029-.019.038-.019a.674.674,0,0,1,.325-.1.818.818,0,0,1,.21.019,1.51,1.51,0,0,1,.6.5,2.533,2.533,0,0,1,.334.64,6.57,6.57,0,0,1,.019,3.556Z" transform="translate(-1810.358 -287.425)" fill="#ed8654"/>
              <path id="Trazado_1269055" data-name="Trazado 1269055" d="M1930.694,312.613a6.739,6.739,0,0,1-.6,1.6c-.641,1.176-1.625,1.874-2.839,1.338a1.147,1.147,0,0,1-.153-.076c.01-.2.019-.411.038-.612.048-.755.115-1.5.191-2.246.067-.65.143-1.3.239-1.95a.211.211,0,0,1,.01-.076h0c.029-.191.057-.373.086-.564.058-.354.115-.707.163-1.061h.612a.311.311,0,0,0,.258-.115.538.538,0,0,0,.1-.229,2.034,2.034,0,0,1,.067-.229h0c.01-.029.029-.057.038-.086a.886.886,0,0,1,.277-.287c.01,0,.029-.019.038-.019a.674.674,0,0,1,.325-.1.818.818,0,0,1,.21.019,1.51,1.51,0,0,1,.6.5,2.533,2.533,0,0,1,.334.64,6.57,6.57,0,0,1,.019,3.556Z" transform="translate(-1810.358 -287.425)" fill="#d2c6bd" opacity="0.5"/>
              <path id="Trazado_1269056" data-name="Trazado 1269056" d="M1938.268,311.022a3.237,3.237,0,0,0-.21-.9c-.115-.277-.268-.535-.373-.812v-.029a.564.564,0,0,1,.038-.076.88.88,0,0,1,.277-.287c.01,0,.029-.019.038-.019a3.229,3.229,0,0,0,.182.488,5.2,5.2,0,0,1,.354.822,4.233,4.233,0,0,1,.162.9,7.479,7.479,0,0,1-.124,1.788,6.935,6.935,0,0,1-.44,1.52c-.229.545-1.2,1.587-1.31,1.5a6.46,6.46,0,0,0,1.3-3.126,13.9,13.9,0,0,0,.105-1.778Z" transform="translate(-1819.183 -288.329)" fill="#f1bb8e"/>
              <path id="Trazado_1269057" data-name="Trazado 1269057" d="M1744.208,185.944a62.283,62.283,0,0,0-1.128,9.607c-.038.277-.067.554-.105.832-.392,3.221-.86,6.615-3.948,7.714-.124.038-.249.086-.373.115a5.724,5.724,0,0,1-.946.182,15.29,15.29,0,0,1-6.5.354c-.124-.029-.249-.067-.373-.1-3.059-.908-3.833-3.728-4.636-7.465-.373-1.711-.746-3.623-1.338-5.63-.325-1.061-.994-3.135-.965-3.126C1719.957,172.246,1745.537,169.235,1744.208,185.944Z" transform="translate(-1626.204 -167.018)" fill="#ed8654"/>
              <path id="Trazado_1269058" data-name="Trazado 1269058" d="M1744.3,186.035a62.268,62.268,0,0,0-1.128,9.607c-.038.277-.067.554-.105.832a8.235,8.235,0,0,0-2.132.908,7.908,7.908,0,0,0-1.959,1.74c-.621.746-1.166,1.558-1.854,2.237a4.7,4.7,0,0,1-2.342,1.31,2.725,2.725,0,0,1-1.329-.076,3.366,3.366,0,0,1-1.07-.593,15.561,15.561,0,0,1-1.711-1.835,10.124,10.124,0,0,0-1.969-1.7,10.746,10.746,0,0,0-2.4-1.176c-.373-1.711-.746-3.623-1.338-5.63-.325-1.061-.994-3.135-.965-3.126-3.938-16.183,21.641-19.194,20.312-2.485Z" transform="translate(-1626.295 -167.108)" fill="#8d3a2d"/>
              <path id="Trazado_1269059" data-name="Trazado 1269059" d="M1881.95,452.53q.2-.057.373-.115a8.324,8.324,0,0,1,.516-3.059,3.978,3.978,0,0,0-.66,1.281,5.373,5.373,0,0,0-.239,1.893Z" transform="translate(-1769.509 -415.346)" fill="#f1bb8e"/>
              <path id="Trazado_1269060" data-name="Trazado 1269060" d="M1798.833,457.429c.124.038.239.067.373.1a7.811,7.811,0,0,0-.526-3.24c-.067-.172.153,1.5.153,3.135Z" transform="translate(-1694.202 -419.806)" fill="#f1bb8e"/>
              <path id="Trazado_1269061" data-name="Trazado 1269061" d="M1825.418,495.178c.469.105,1.558-.488,1.625-.392a2.414,2.414,0,0,1-1.663.851,2.824,2.824,0,0,1-1.338-.812C1823.822,494.624,1824.988,495.082,1825.418,495.178Z" transform="translate(-1717.126 -456.436)" fill="#f1bb8e"/>
              <path id="Trazado_1269062" data-name="Trazado 1269062" d="M1636.464,686.781c-.077-.688-.134-1.376-.162-2.065,0-.162-.01-.335-.019-.5,2.59-10.132,10.285-35.5,5.716-50.585a24.092,24.092,0,0,0-.822-2.294c-.163-.287-.315-.583-.468-.879-.43-10.792,1.338-21.7.679-32.471-.077-3.145-.239-6.261-.6-9.4-.115-2.256.086-4.531-.182-6.777-.669-8.995-6.137-16.2-8.746-24.93h0c-1.549-4.875-2.485-10.744-.841-15.8,5.783-12.035,19.395-33.427-3.7-33.284a9.392,9.392,0,0,1-6.71-4.5,11.4,11.4,0,0,0-8.048,1.1,2.029,2.029,0,0,0-.143.612c-2.409,2.447-5.592,3.2-8.775,3.9-27.415,4.5,7.81,31.535-.172,50.136a97.858,97.858,0,0,0-4.512,41.4c.612,7.59,2.734,14.988,2.858,22.53a62.525,62.525,0,0,0,.927,10.429c-.478,4.588,1.052,9.817,1.5,14.118.248,1.252,5.7,27.74,3.288,39.2a6,6,0,0,1-2.246,2.361c-.058.038-.115.067-.172.105h0a11.37,11.37,0,0,1-2.065.793,10.878,10.878,0,0,1-1.243.21c-.153.019-.306.029-.459.038a.985.985,0,0,0-.43.105.525.525,0,0,0-.191.191.345.345,0,0,0,.01.4c.182.239.5.21.765.249a1.506,1.506,0,0,1,.755.43,2.735,2.735,0,0,0,1.568.573,6.2,6.2,0,0,0,1.778-.2,16.384,16.384,0,0,1,1.921-.421,5.113,5.113,0,0,1,1.147,0,7.361,7.361,0,0,1,.9.153c.143.029.277.067.411.105.268.086.507.153.727.2a2.224,2.224,0,0,0,.659.076,1.078,1.078,0,0,0,.421-.1s.019,0,.019-.01a.614.614,0,0,0,.258-.172l.01-.01c.01,0,.019-.019.029-.029a1.351,1.351,0,0,0,.344-.64,2.928,2.928,0,0,0,.038-.956c-.038-.344-.086-.688-.124-1.032-.067-.688-.115-1.376-.134-2.065v-.5c2.849-10.63,11.566-38.083,5.525-52.822-.134-.325-.267-.64-.421-.956.038-1.94-.143-3.957-.229-5.745a274.463,274.463,0,0,1,2.763-31.363c1.529,7.255,3.938,12.857,4.569,20.523.612,4.263,1.032,8.689,1.854,13.019,0,.229-.01.449-.019.669.038.87.086,1.74.163,2.6,1.09,7.819,2.715,15.418,3.432,23.218.144.908.3,1.845.449,2.81,1.367,8.689,2.552,19.557,1.31,25.885a6,6,0,0,1-2.218,2.39c-.057.038-.115.067-.172.105h0a11.22,11.22,0,0,1-2.055.822,9.018,9.018,0,0,1-1.233.22c-.153.019-.306.029-.459.048a1.14,1.14,0,0,0-.43.105.524.524,0,0,0-.191.191.346.346,0,0,0,.019.4c.182.239.507.21.765.239a1.638,1.638,0,0,1,.765.421,2.768,2.768,0,0,0,1.577.554,6.212,6.212,0,0,0,1.778-.22,14.589,14.589,0,0,1,1.912-.44,5.761,5.761,0,0,1,1.147-.019,7.32,7.32,0,0,1,.9.143c.144.029.277.067.421.105a5.522,5.522,0,0,0,.726.191,2.213,2.213,0,0,0,.66.067,1.093,1.093,0,0,0,.421-.105s.019,0,.019-.01a.873.873,0,0,0,.258-.172l.01-.01.029-.029a1.448,1.448,0,0,0,.344-.641,2.925,2.925,0,0,0,.029-.956c-.038-.344-.1-.688-.134-1.032Z" transform="translate(-1508.203 -463.859)" fill="#ed8654"/>
              <path id="Trazado_1269063" data-name="Trazado 1269063" d="M1685.049,2303.523c-.067-.688-.115-1.376-.134-2.064v-.5c.841-3.126,2.179-7.7,3.508-12.962-1.721.076-3.441.162-5.162.229-.86.038-1.73.057-2.59.086a51.527,51.527,0,0,1-.43,12.79,6,6,0,0,1-2.246,2.361c-.057.038-.115.067-.172.1h0a11.356,11.356,0,0,1-2.065.793,10.912,10.912,0,0,1-1.243.211c-.153.019-.306.029-.459.038a.981.981,0,0,0-.43.105.522.522,0,0,0-.191.191.345.345,0,0,0,.01.4c.182.239.5.21.765.248a1.509,1.509,0,0,1,.755.43,2.734,2.734,0,0,0,1.568.574,6.2,6.2,0,0,0,1.778-.2,16.3,16.3,0,0,1,1.921-.421,5.121,5.121,0,0,1,1.147,0,7.328,7.328,0,0,1,.9.153c.143.029.277.067.411.105.268.086.507.153.726.2a2.216,2.216,0,0,0,.66.076,1.079,1.079,0,0,0,.421-.1s.019,0,.019-.01a.612.612,0,0,0,.258-.172l.01-.01c.01,0,.019-.019.029-.029a1.352,1.352,0,0,0,.344-.64,2.927,2.927,0,0,0,.038-.956c-.038-.344-.086-.688-.124-1.032Z" transform="translate(-1580.886 -2078.25)" fill="#53394f"/>
              <path id="Trazado_1269064" data-name="Trazado 1269064" d="M1937.194,2272.773c-.076-.688-.134-1.376-.162-2.064,0-.163-.01-.334-.019-.5.832-3.25,2.189-8.067,3.489-13.612-1.5.22-2.992.43-4.5.535a20.457,20.457,0,0,1-3.422-.01,52.867,52.867,0,0,1-.239,13.287,5.992,5.992,0,0,1-2.218,2.39c-.057.038-.115.067-.172.105h0a11.2,11.2,0,0,1-2.055.822,8.931,8.931,0,0,1-1.233.22c-.153.019-.306.029-.459.048a1.14,1.14,0,0,0-.43.1.522.522,0,0,0-.191.191.345.345,0,0,0,.019.4c.182.239.506.21.765.239a1.642,1.642,0,0,1,.765.421,2.768,2.768,0,0,0,1.577.554,6.22,6.22,0,0,0,1.778-.22,14.588,14.588,0,0,1,1.912-.44,5.758,5.758,0,0,1,1.147-.019,7.344,7.344,0,0,1,.9.144c.144.029.277.067.42.1a5.519,5.519,0,0,0,.727.191,2.215,2.215,0,0,0,.66.067,1.09,1.09,0,0,0,.42-.1s.019,0,.019-.01a.869.869,0,0,0,.258-.172l.01-.01.029-.029a1.45,1.45,0,0,0,.344-.64,2.918,2.918,0,0,0,.029-.956c-.038-.344-.1-.688-.134-1.032Z" transform="translate(-1808.934 -2049.852)" fill="#53394f"/>
              <path id="Trazado_1269065" data-name="Trazado 1269065" d="M972.905,526.868q2.567-5.133,5.5-10.056c-1.185-.363-2.447-.679-3.785-.966-1.032-.21-5.4-1.3-6.815-1.682-3.432-.937-7.8-2.007-10.257-3.594-.488-.564-.9-1.023-1.1-1.2a2.931,2.931,0,0,1-.22-.239,9.163,9.163,0,0,0-1.74-2.992c-.22-.277-.449-.554-.679-.822-.182-.21-.354-.421-.526-.631-.325-.392-.641-.793-.937-1.224a20.256,20.256,0,0,0-1.7-2.59c-.325-.143-.449-.124-.64.153a1.882,1.882,0,0,0-.22,1.367,2.219,2.219,0,0,0,.086.363c.01.038.029.086.038.124h0c-.315-.162-.64-.306-.965-.44-.277-.115-.554-.21-.841-.315-.258-.1-.507-.182-.774-.258a2.741,2.741,0,0,0-1.52-.057,1.883,1.883,0,0,0-1.138,1.023v.01a2.852,2.852,0,0,0-.172.392,1.516,1.516,0,0,0,0,.9.689.689,0,0,0,.535.507h.086a.709.709,0,0,0,.392-.153,1.3,1.3,0,0,0,.229-.229c.048-.057.1-.115.143-.182.086.1.182.182.268.277h0l.191.191c-.076.019-.153.029-.229.048-.2.038-.392.086-.593.124a3.473,3.473,0,0,0-.516.143,1.018,1.018,0,0,0-.382.249c-.01.019-.029.029-.038.048a.735.735,0,0,0-.172.382,1.191,1.191,0,0,0,.172.841,1.994,1.994,0,0,0,.306.382c.057.057.115.105.172.163a1.423,1.423,0,0,0-.287.172,1.276,1.276,0,0,0-.134.105,1.12,1.12,0,0,0-.344.631,1.307,1.307,0,0,0,.077.688,1.743,1.743,0,0,0,.134.268l.143.2a.611.611,0,0,0-.124.1,1.229,1.229,0,0,0-.162.153,1.075,1.075,0,0,0-.3.66,1.043,1.043,0,0,0,.182.688,1.079,1.079,0,0,0,.583.421c.2.057.421.038.631.076a6.911,6.911,0,0,1,.841.526c.44.315.851.679,1.281,1.013a8.306,8.306,0,0,0,1.329.9,4.662,4.662,0,0,0,1.224.43c.115.019.229.048.354.057a6.5,6.5,0,0,0,.745.038c.029.01.048.019.077.029.478.2.946.43,1.424.64.335.153,14.979,8.651,20.446,12.446-.1-.105-.2-.22-.3-.335Z" transform="translate(-921.287 -461.868)" fill="#ed8654"/>
              <g id="Grupo_1204437" data-name="Grupo 1204437" transform="translate(23.238 40.51)">
                <g id="Grupo_1204436" data-name="Grupo 1204436" transform="translate(0 0.507)">
                  <path id="Trazado_1269066" data-name="Trazado 1269066" d="M989.978,553.661a1.911,1.911,0,0,1,1.73.344A13.5,13.5,0,0,1,989.978,553.661Z" transform="translate(-986.05 -550.64)" fill="#f3bd90"/>
                  <path id="Trazado_1269067" data-name="Trazado 1269067" d="M975.789,607.227a3.3,3.3,0,0,1-2.6-.65A23.484,23.484,0,0,1,975.789,607.227Z" transform="translate(-970.866 -598.567)" fill="#f3bd90"/>
                  <path id="Trazado_1269068" data-name="Trazado 1269068" d="M1011.3,625.079a10.641,10.641,0,0,1-3.5.956c.115.019.229.048.354.057a6.5,6.5,0,0,0,.746.038c.029.01.048.019.077.029a10.638,10.638,0,0,0,3.632-1.463A4.7,4.7,0,0,0,1011.3,625.079Z" transform="translate(-1002.17 -614.937)" fill="#f3bd90"/>
                  <path id="Trazado_1269069" data-name="Trazado 1269069" d="M949.254,584.416a2.109,2.109,0,0,0-.354.038l.143.2a.613.613,0,0,0-.124.1,3.988,3.988,0,0,1,1.348.029c.516.105,1.147.43,1.6-.019.134-.134-.612.115-1.185-.105A3.053,3.053,0,0,0,949.254,584.416Z" transform="translate(-948.9 -578.518)" fill="#f3bd90"/>
                  <path id="Trazado_1269070" data-name="Trazado 1269070" d="M951.715,559.339c.057.057.115.105.172.162a1.426,1.426,0,0,0-.287.172.1.1,0,0,0,.048-.01,4.671,4.671,0,0,1,.813-.153c.287-.029.574-.019.86-.029a1.792,1.792,0,0,0,1.5-.583,10.119,10.119,0,0,0-.994.249,4.7,4.7,0,0,1-.822.038,5.835,5.835,0,0,0-.822.057,3.933,3.933,0,0,0-.459.1Z" transform="translate(-951.342 -555.439)" fill="#f3bd90"/>
                  <path id="Trazado_1269071" data-name="Trazado 1269071" d="M963.078,535.025c-.134,0-.268.019-.4.029H962.6l.287-.057c.077-.019.153-.029.229-.048l-.191-.191c.143-.019.277-.029.421-.038a9.55,9.55,0,0,0,1.051-.057c.373-.057,1.357-.392,1.224-.258a2.668,2.668,0,0,1-1.969.593c-.162,0-.325.01-.478.019h-.105Z" transform="translate(-961.29 -533.266)" fill="#f3bd90"/>
                  <path id="Trazado_1269072" data-name="Trazado 1269072" d="M954.772,522.819a6.484,6.484,0,0,0,.65,1.376c.048-.057.1-.115.143-.182.086.1.182.182.268.277a.047.047,0,0,0-.01-.029A12.992,12.992,0,0,0,954.772,522.819Z" transform="translate(-954.208 -522.799)" fill="#f3bd90"/>
                </g>
                <path id="Trazado_1269073" data-name="Trazado 1269073" d="M1003.9,517.51a2.231,2.231,0,0,0,.086.363,20.885,20.885,0,0,1,4.626,3.374c-.22-.277-.449-.554-.679-.822-.182-.21-.354-.421-.526-.631a21.211,21.211,0,0,0-3.5-2.294Z" transform="translate(-998.643 -517.5)" fill="#f3bd90"/>
              </g>
              <g id="Grupo_1204439" data-name="Grupo 1204439" transform="translate(94.294 3.795)">
                <path id="Trazado_1269074" data-name="Trazado 1269074" d="M1719.057,142.677h0v.067a3.207,3.207,0,0,1-.181,1.166,4.077,4.077,0,0,1-1.5,1.9,4.537,4.537,0,0,1-1.434.66,5.736,5.736,0,0,1-2.485.086,8.646,8.646,0,0,1-2-.621,9.513,9.513,0,0,1-2.323-1.51c-.048.01-.1.029-.153.038-.239.057-.468.105-.707.153a14.4,14.4,0,0,1-6.232-.21c-.239-.057-.478-.134-.717-.2a2.386,2.386,0,0,0-.2.229,20.372,20.372,0,0,1-1.51,1.625c-1.873,1.558-5.792,3.164-7.026.038a6.083,6.083,0,0,1,1.53-6.194,6.686,6.686,0,0,1,2.141-3.021c.01-.01.029-.019.038-.029a7.2,7.2,0,0,1,5.229-1.424,7.245,7.245,0,0,1,4.483-1.96,5.006,5.006,0,0,1,.535-.01,7.1,7.1,0,0,1,3.412.956,6.219,6.219,0,0,1,.535.335c.163,0,.315,0,.478.01a8.424,8.424,0,0,1,2.16.392,8.756,8.756,0,0,1,5.621,5.6,5.907,5.907,0,0,1,.3,1.96Z" transform="translate(-1692.26 -133.453)" fill="#722b24"/>
                <path id="Trazado_1269075" data-name="Trazado 1269075" d="M1749.1,145.874a9.512,9.512,0,0,1-2.323-1.51c-.048.01-.1.029-.153.038-.239.057-.468.105-.707.153a14.622,14.622,0,0,1-3.3.229,9.655,9.655,0,0,0-3.8-5.038c-1.539-.937-3.537-1.682-4.913-2.935.01-.01.029-.019.038-.029a7.2,7.2,0,0,1,5.229-1.424,7.245,7.245,0,0,1,4.483-1.96,10.382,10.382,0,0,0,.9.927,20.1,20.1,0,0,1,3.47,3.451c1.577,2.418,1.491,5.324,1.071,8.1Z" transform="translate(-1729.92 -133.4)" fill="#aa4d43"/>
                <g id="Grupo_1204438" data-name="Grupo 1204438" transform="translate(6.029 0.927)">
                  <path id="Trazado_1269076" data-name="Trazado 1269076" d="M1759.089,210.6c-.239-.057-.478-.134-.717-.2a2.339,2.339,0,0,0-.2.229,12.933,12.933,0,0,1-2.829-3.948c-.134-.3,1.969,2.313,3.747,3.929Z" transform="translate(-1755.336 -200.582)" fill="#c8bcb3"/>
                  <path id="Trazado_1269077" data-name="Trazado 1269077" d="M1831.422,198.588c-.239.057-.468.105-.707.153a21.118,21.118,0,0,1-3.059-5.41C1827.542,193.043,1829.587,196.255,1831.422,198.588Z" transform="translate(-1820.739 -188.513)" fill="#c8bcb3"/>
                  <path id="Trazado_1269078" data-name="Trazado 1269078" d="M1880.641,147.9c.1.306-1.7-2.715-3.24-4.8a6.233,6.233,0,0,1,.535.335c.163,0,.316,0,.478.01A18.87,18.87,0,0,1,1880.641,147.9Z" transform="translate(-1865.732 -143.1)" fill="#c8bcb3"/>
                </g>
              </g>
              <path id="Trazado_1269079" data-name="Trazado 1269079" d="M1321.783,511.687c-1.864,7.169-2.523,14.558-3.623,21.938a129.04,129.04,0,0,1-28.16.87c-1.052-9.282-2.992-18.429-7.819-26.507-.172-.3-.354-.583-.535-.87a.2.2,0,0,0-.038-.057c-13.956,3.049-23.677,13.01-35.807-.6q2.724-5.463,5.888-10.715a54.289,54.289,0,0,1,5.8,2.055c4.751-1.329,9.932-2.772,14.8-4.139.593-.163,1.185-.335,1.768-.5.086-.019.172-.048.248-.067,6.29-7.255,13.363-6.873,21.641-9.415a17.118,17.118,0,0,0,2.858-4.531,21.57,21.57,0,0,1,9.4-.727,23.354,23.354,0,0,0,3.661,6.089c5.181,1.262,13.87.774,14.252,7.982,1.692,8.259-2.543,11.9-4.34,19.185Z" transform="translate(-1194.182 -441.449)" fill="#ffd9c6"/>
              <g id="Grupo_1204441" data-name="Grupo 1204441" transform="translate(47.651 52.966)">
                <path id="Trazado_1269080" data-name="Trazado 1269080" d="M1220.187,650.149c-.2.287-.4.583-.6.879-.2.277-.392.564-.593.851a51.578,51.578,0,0,1-5.439,6.634,25.19,25.19,0,0,0-1.721,4.053l-.172.373c-.01.019-.019.048-.029.067-1.453-.229-3.212-.612-4.665-.879-1.529-.258-1.711-.191-1.979-1.8a.874.874,0,0,1-.688-.64h0c.841-.64,1.577-1.2,2.237-1.711.105-.086.21-.172.315-.249,3.164-2.514,4.2-3.91,5.649-8.641.038-.124.076-.258.115-.392.086-.277.172-.564.258-.87a7.073,7.073,0,0,1,2.093.143,3.628,3.628,0,0,1,.487.153.035.035,0,0,1,.029.01,2.4,2.4,0,0,1,1.367,1.3h0a.181.181,0,0,0,.029.076,1.62,1.62,0,0,0,.076.191.625.625,0,0,0,.115.163h.01a.336.336,0,0,0,.134.057h0c.937.258,2.284-.545,2.982.229Z" transform="translate(-1204.3 -647.807)" fill="#ffd9c6"/>
                <g id="Grupo_1204440" data-name="Grupo 1204440" transform="translate(0.736 0.152)">
                  <path id="Trazado_1269081" data-name="Trazado 1269081" d="M1311.581,666.8c.162-.631.306-1.262.42-1.9a2.9,2.9,0,0,0,.115.306.348.348,0,0,0,.248.182,24.474,24.474,0,0,1-2.839,7.58c-.143.249,1.711-4.837,2.055-6.156Z" transform="translate(-1300.196 -663.418)" fill="#c8bcb3"/>
                  <path id="Trazado_1269082" data-name="Trazado 1269082" d="M1304.588,649.4c.172.048.354.105.526.172v.029a17.688,17.688,0,0,1-1.692,6.185C1303.317,656,1304.244,652.038,1304.588,649.4Z" transform="translate(-1294.676 -649.4)" fill="#c8bcb3"/>
                  <path id="Trazado_1269083" data-name="Trazado 1269083" d="M1219.131,754.3c.048.076-4.062,1.893-7.045,3.021-.029-.115-.057-.239-.086-.354Z" transform="translate(-1212 -744.273)" fill="#c8bcb3"/>
                </g>
              </g>
              <path id="Trazado_1269084" data-name="Trazado 1269084" d="M1694.02,1159.792v.612c-.029,2.351-.086,4.693-.182,7.045,0,.143-.01.277-.019.421-.2.048-.411.086-.612.124-.487.1-.984.191-1.472.277-1.682.3-3.384.526-5.085.679s-3.393.249-5.095.268c-.87,0-1.74,0-2.6-.029-.2,0-.411-.01-.612-.019-.01-.134-.019-.268-.038-.4-.191-2.17-.382-4.349-.573-6.519-.01-.134-.029-.268-.038-.4l-.057-.6q-.947-10.381-2.046-20.752c-.172-1.635-.354-3.269-.526-4.9a.321.321,0,0,1-.048-.134c-.354-3.078-.746-6.137-1.166-9.205q-1.491-10.811-3.565-21.536c-.105-.564-.22-1.128-.334-1.692-.1-.5-.2-1-.3-1.5q-.746,11.385-1.482,22.76c.459,2.418.851,4.856,1.185,7.293a150.4,150.4,0,0,1,1.4,22.425q-.057,3.986-.315,7.963c-.01.21-.029.42-.048.631q-.315,4.56-.918,9.09c-.019.144-.038.277-.057.421-.21.029-.411.067-.621.1a64.35,64.35,0,0,1-8.469.65c-1.4.01-2.8-.019-4.2-.105-.2-.01-.411-.029-.612-.038-.01-.134-.029-.268-.038-.4-.239-2.648-.487-5.305-.727-7.953-.019-.2-.038-.4-.057-.612-.105-1.157-.21-2.313-.316-3.479l-2.179-23.849q-.889-9.664-1.768-19.337c-1.549-11.815-3.126-23.687-2.877-35.635a118.43,118.43,0,0,1,4.732-30.7c.038-.134.076-.268.115-.392.21.019.411.038.621.048,1.873.153,3.757.248,5.64.306,2.562.077,5.133.067,7.695-.029s5.124-.268,7.676-.535q3.47-.359,6.9-.927c.21-.038.411-.067.621-.105.057.124.115.248.172.382,1.214,2.629,2.294,5.324,3.26,8.058.239.688.469,1.367.7,2.055,3.5,8.431,4.913,17.34,5.315,26.354.086.918.172,1.826.249,2.743.153,1.826.277,3.661.373,5.487.516,9.893.3,19.8-.038,29.69.363,2.485.679,4.971.966,7.456q1.233,10.9,1.443,21.87.072,3.3.038,6.6Z" transform="translate(-1557.51 -957.775)" fill="#73547a"/>
              <path id="Trazado_1269085" data-name="Trazado 1269085" d="M1711.764,551.006c-.373-6.921-8.374-6.758-13.6-7.838h0c-.22-.048-.43-.1-.64-.143a1.411,1.411,0,0,1-.1-.124c-.086.019-.172.029-.268.048-1.587.3-3.183.507-4.8.659s-3.221.21-4.837.21-3.25-.086-4.865-.239c-1.377-.134-2.744-.325-4.11-.554-.334.086-.669.162-.994.239h0c-1.032.239-2.036.468-3.03.688h0c-.143.038-.3.067-.44.105a17.39,17.39,0,0,1,2.81,5.229,34.066,34.066,0,0,1,1.109,3.976,46.353,46.353,0,0,1,.8,4.722,30.533,30.533,0,0,1-.315,9.511,21.544,21.544,0,0,1-2.963,7.341,18.362,18.362,0,0,1-3.327,3.862c.038.143.077.287.105.44a88.986,88.986,0,0,1,2.4,13.382c-.038.134-.077.268-.115.392-.841,2.877-1.577,5.793-2.2,8.727-.057.249-.105.5-.153.746a58.239,58.239,0,0,1,14.549-4.837,59.19,59.19,0,0,1,17.713-.688c.612.067,1.224.143,1.835.239-.086-.22-.162-.43-.248-.64-.631-1.615-1.319-3.212-2.046-4.789-.038-.1-.086-.182-.124-.277,1.032-7.131,1.721-14.262,3.518-21.2,1.8-7.284,6.032-10.926,4.34-19.185Z" transform="translate(-1579.823 -499.962)" fill="#534741"/>
              <path id="Trazado_1269086" data-name="Trazado 1269086" d="M1678.384,903.162c-.2.067-.4.143-.6.22a58.755,58.755,0,0,0-5.544,2.351c.048-.249.1-.5.153-.746.621-2.935,1.357-5.85,2.2-8.727.038-.134.077-.268.115-.392a88.938,88.938,0,0,0-2.4-13.382c-.038-.143-.077-.287-.105-.44a17.851,17.851,0,0,0,2.8-3.078c.162-.22.315-.449.459-.669.316,1.233.6,2.466.87,3.709a95.406,95.406,0,0,1,2.065,21.163Z" transform="translate(-1579.823 -803.301)" fill="#9c97ad"/>
              <g id="Grupo_1204442" data-name="Grupo 1204442" transform="translate(78.105 51.713)">
                <path id="Trazado_1269087" data-name="Trazado 1269087" d="M1629.623,714.982c-1.864,3.374-4.913,5.535-8.287,7.131-.172-.3-.354-.583-.535-.87A62.818,62.818,0,0,0,1629.623,714.982Z" transform="translate(-1611.442 -707.296)" fill="#c8bcb3"/>
                <path id="Trazado_1269088" data-name="Trazado 1269088" d="M1522.9,635.2h0c4.913.554,11.805,2.409,11.5,2.265a34.011,34.011,0,0,0-9.731-2.763h0Z" transform="translate(-1522.9 -634.7)" fill="#c8bcb3"/>
              </g>
              <path id="Trazado_1269089" data-name="Trazado 1269089" d="M1867.22,961.315h0a75.682,75.682,0,0,1-15.409,1.2c-.2,0-.4-.01-.612-.019,0,.2.019.4.029.612.1,2.046.182,4.082.268,6.127,0,.2.019.4.029.612.2.01.4.029.612.038a74.618,74.618,0,0,0,14.233-.64l.612-.086c.01-.21.029-.411.038-.621.153-2.246.4-4.474.726-6.7.029-.21.067-.421.1-.64l-.631.115Z" transform="translate(-1741.713 -878.277)" fill="#9c97ad"/>
              <g id="Grupo_1204443" data-name="Grupo 1204443" transform="translate(103.037 20.781)">
                <path id="Trazado_1269090" data-name="Trazado 1269090" d="M1820.519,382.4a.306.306,0,0,0,0,.612A.306.306,0,0,0,1820.519,382.4Z" transform="translate(-1816.736 -375.585)" fill="#c8bcb3"/>
                <path id="Trazado_1269091" data-name="Trazado 1269091" d="M1843.719,365.8a.306.306,0,0,0,0,.612A.306.306,0,0,0,1843.719,365.8Z" transform="translate(-1837.718 -360.571)" fill="#c8bcb3"/>
                <path id="Trazado_1269092" data-name="Trazado 1269092" d="M1845.419,402.3a.306.306,0,0,0,0,.612A.306.306,0,0,0,1845.419,402.3Z" transform="translate(-1839.256 -393.582)" fill="#c8bcb3"/>
                <path id="Trazado_1269093" data-name="Trazado 1269093" d="M1876.919,377.4a.306.306,0,0,0,0,.612A.306.306,0,0,0,1876.919,377.4Z" transform="translate(-1867.745 -371.063)" fill="#c8bcb3"/>
                <path id="Trazado_1269094" data-name="Trazado 1269094" d="M1832.316,432.272a.274.274,0,0,0-.21-.086.308.308,0,0,0-.306.306v.163a.322.322,0,0,0,.086.21.274.274,0,0,0,.21.086.308.308,0,0,0,.306-.306v-.162A.322.322,0,0,0,1832.316,432.272Z" transform="translate(-1827.205 -420.61)" fill="#c8bcb3"/>
                <path id="Trazado_1269095" data-name="Trazado 1269095" d="M1784.019,384.1a.306.306,0,0,0,0,.612A.306.306,0,0,0,1784.019,384.1Z" transform="translate(-1783.725 -377.122)" fill="#c8bcb3"/>
                <path id="Trazado_1269096" data-name="Trazado 1269096" d="M1818.919,311.1a.306.306,0,0,0,0,.612A.306.306,0,0,0,1818.919,311.1Z" transform="translate(-1815.289 -311.1)" fill="#c8bcb3"/>
                <path id="Trazado_1269097" data-name="Trazado 1269097" d="M1883.519,312.8a.306.306,0,0,0,0,.612A.306.306,0,0,0,1883.519,312.8Z" transform="translate(-1873.714 -312.637)" fill="#c8bcb3"/>
              </g>
              <g id="Grupo_1204444" data-name="Grupo 1204444" transform="translate(114.534 219.356)">
                <path id="Trazado_1269098" data-name="Trazado 1269098" d="M1919.609,2442.711a22.5,22.5,0,0,1-5.955.927c.019-.344.038-.7.048-1.051-4.378.678-4.885,2.218-9.7,0a2.514,2.514,0,0,1,.143-.277,3.813,3.813,0,0,1,.22-.325c3.24,2.046,5.506,1.1,8.9.344,2.084-.3,4.3-.182,6.232-1.109h0c.029,0,.057-.019.086,0a12.966,12.966,0,0,1,.019,1.491Z" transform="translate(-1904 -2436.172)" fill="#6b5b55"/>
                <path id="Trazado_1269099" data-name="Trazado 1269099" d="M1923.284,2393.566a.455.455,0,0,0-.067.029.073.073,0,0,0-.038.019l-.076.038a.393.393,0,0,1-.1.038c-.029.01-.067.029-.1.038-.067.029-.125.048-.191.076s-.124.048-.191.067-.124.038-.191.058c-.048.019-.105.029-.153.048-.067.019-.124.038-.191.057a1.4,1.4,0,0,1-.191.048c-.191.048-.382.086-.583.124-.048.01-.1.019-.153.029-.306.048-.621.1-.937.134-.067,0-.134.019-.2.019-.268.029-.545.058-.812.077-.086,0-.182.019-.267.019-.382.029-.774.067-1.157.1-.067,0-.134.019-.2.019a1.144,1.144,0,0,0-.182.019l-.239.029h0a1.2,1.2,0,0,0-.182.029h0a1.039,1.039,0,0,0-.182.029h0c-.2.048-.4.1-.593.143-.229.057-.44.115-.65.163-.277.067-.554.134-.812.191h-.019a8.1,8.1,0,0,1-3.929.163h0a9.153,9.153,0,0,1-2.5-1.08h0c.975-1.319,2.8-.927,4.148-1.587a7.217,7.217,0,0,0,4.234-4.129.658.658,0,0,1,.029-.076,1.534,1.534,0,0,1,.287.2,3.707,3.707,0,0,1,.937,1.3,4.905,4.905,0,0,1,.258.746,1.532,1.532,0,0,1,.048.2h1.1c.44,0,.889-.01,1.329-.038a11.927,11.927,0,0,0,1.31-.153c.315-.057.631-.124.946-.191v.086c-.029,1.023.057,2.045-.038,3.068.086-.029.172-.048.258-.076h0l.172-.057h.019A.074.074,0,0,0,1923.284,2393.566Z" transform="translate(-1907.799 -2388.5)" fill="#73547a"/>
                <path id="Trazado_1269100" data-name="Trazado 1269100" d="M1987.111,2412.4a.285.285,0,0,1-.038.077,28.156,28.156,0,0,1-1.9,3.24c-.143.2-.277.4-.421.6-.229.058-.44.115-.65.163.153-.2.306-.411.449-.612a2.1,2.1,0,0,0,.163-.239,28.112,28.112,0,0,0,2.026-3.432,1.533,1.533,0,0,1,.048.2h.335Z" transform="translate(-1976.443 -2409.935)" fill="#534741"/>
                <path id="Trazado_1269101" data-name="Trazado 1269101" d="M1922.941,2438.506c-1.94.927-4.149.813-6.232,1.109a29.052,29.052,0,0,1-4.569.937,7.143,7.143,0,0,1-4.34-1.281,3,3,0,0,1,.344-.354c3.03,1.864,5,.994,8.144.277,2.046-.354,4.206-.191,6.156-.994,0,.163-.019.325-.029.478C1922.587,2438.621,1922.769,2438.573,1922.941,2438.506Z" transform="translate(-1907.437 -2433.449)" fill="#534741"/>
              </g>
              <g id="Grupo_1204445" data-name="Grupo 1204445" transform="translate(90.006 221.497)">
                <path id="Trazado_1269102" data-name="Trazado 1269102" d="M1663.009,2465.111a22.49,22.49,0,0,1-5.955.927c.019-.344.038-.7.048-1.052-4.378.679-4.885,2.218-9.7,0a2.508,2.508,0,0,1,.143-.277,3.884,3.884,0,0,1,.22-.325c3.24,2.045,5.506,1.1,8.9.344,2.084-.3,4.3-.181,6.232-1.109h0c.029,0,.057-.019.086,0a12.962,12.962,0,0,1,.019,1.491Z" transform="translate(-1647.4 -2458.573)" fill="#6b5b55"/>
                <path id="Trazado_1269103" data-name="Trazado 1269103" d="M1666.784,2415.966a.466.466,0,0,0-.067.029.073.073,0,0,0-.038.019l-.076.038a.4.4,0,0,1-.1.038c-.029.01-.067.029-.1.038-.067.029-.124.048-.191.077s-.124.048-.191.067-.124.038-.191.057c-.048.019-.105.029-.153.048-.067.019-.124.038-.191.057a1.4,1.4,0,0,1-.191.048c-.191.048-.382.086-.583.124a1.065,1.065,0,0,0-.153.029c-.306.048-.621.1-.937.134-.067,0-.134.019-.2.019-.268.029-.545.058-.812.077-.086,0-.182.019-.268.019-.382.029-.774.067-1.157.1-.067,0-.134.019-.2.019a1.149,1.149,0,0,0-.182.019l-.239.029h0a1.2,1.2,0,0,0-.182.029h0a1.032,1.032,0,0,0-.182.029h0c-.2.048-.4.1-.593.143-.229.057-.44.115-.65.163-.277.067-.554.134-.812.191h-.019a8.1,8.1,0,0,1-3.929.162h0a9.154,9.154,0,0,1-2.5-1.08h0c.975-1.319,2.8-.927,4.149-1.587a7.216,7.216,0,0,0,4.235-4.129.649.649,0,0,1,.029-.077,1.557,1.557,0,0,1,.287.2,3.71,3.71,0,0,1,.937,1.3,4.9,4.9,0,0,1,.258.746,1.5,1.5,0,0,1,.048.2h1.1c.44,0,.889-.01,1.329-.038a11.922,11.922,0,0,0,1.309-.153c.316-.057.631-.124.946-.191v.086c-.029,1.023.057,2.045-.038,3.068.086-.029.172-.048.258-.077h0l.172-.057h.019A.073.073,0,0,0,1666.784,2415.966Z" transform="translate(-1651.289 -2410.9)" fill="#73547a"/>
                <path id="Trazado_1269104" data-name="Trazado 1269104" d="M1730.511,2434.8a.291.291,0,0,1-.038.076,28.132,28.132,0,0,1-1.9,3.24c-.143.2-.277.4-.421.6-.229.058-.44.115-.65.162.153-.2.306-.411.449-.612.057-.077.115-.163.162-.239a28.115,28.115,0,0,0,2.026-3.432,1.534,1.534,0,0,1,.048.2h.335Z" transform="translate(-1719.843 -2432.335)" fill="#534741"/>
                <path id="Trazado_1269105" data-name="Trazado 1269105" d="M1666.441,2460.906c-1.94.927-4.148.813-6.232,1.109a28.992,28.992,0,0,1-4.569.937,7.145,7.145,0,0,1-4.34-1.281,2.991,2.991,0,0,1,.344-.354c3.03,1.864,5,.994,8.144.277,2.046-.354,4.206-.191,6.156-.994,0,.163-.019.325-.029.478C1666.087,2461.021,1666.269,2460.973,1666.441,2460.906Z" transform="translate(-1650.927 -2455.85)" fill="#534741"/>
              </g>
              <path id="Trazado_1269106" data-name="Trazado 1269106" d="M1888.754,1320.76c-.42,1.233-.822,2.466-1.2,3.709a164.807,164.807,0,0,0-5.315,22.578c-.1-.564-.22-1.128-.334-1.692.21-1.214.43-2.438.669-3.642A162.95,162.95,0,0,1,1888,1321.1c.086-.258.172-.516.258-.784.249-.115.5-.22.755-.325,2.486-1.071,5.009-2.055,7.561-2.935.373-.124-5.21,2.562-7.829,3.709Z" transform="translate(-1769.479 -1200.118)" fill="#c8bcb3"/>
              <path id="Trazado_1269107" data-name="Trazado 1269107" d="M1750.219,1188.247q-.33-2.868-.65-5.735c-.019-.2-.048-.4-.067-.612h-.612a54.9,54.9,0,0,0-13.708,1.922l-.612.172c0,.21-.01.421-.01.641-.038,1.749-.029,3.5,0,5.248,0,.2,0,.4.019.6.2-.019.4-.038.6-.067l14.5-1.52c.2-.019.4-.038.6-.067-.019-.2-.048-.4-.067-.6Zm-15.046,1.587q-.057-2.681,0-5.353a53.808,53.808,0,0,1,13.793-1.95q.33,2.9.659,5.793l-14.453,1.52Z" transform="translate(-1636.201 -1077.881)" fill="#c8bcb3"/>
              <path id="Trazado_1269108" data-name="Trazado 1269108" d="M1978.884,2207.1v.612l-16.326,1.434q-.029-.3-.057-.6,8.2-.717,16.393-1.443Z" transform="translate(-1842.374 -2005.083)" fill="#c8bcb3"/>
              <path id="Trazado_1269109" data-name="Trazado 1269109" d="M1738.043,2229.61c-.01.21-.029.421-.048.631a67.24,67.24,0,0,1-15.638,1.75c-.019-.2-.038-.4-.057-.612a67.056,67.056,0,0,0,15.734-1.778Z" transform="translate(-1625.135 -2025.433)" fill="#c8bcb3"/>
              <path id="Trazado_1269110" data-name="Trazado 1269110" d="M1886.688,999.616a1.5,1.5,0,1,1-1.472-1.52A1.483,1.483,0,0,1,1886.688,999.616Z" transform="translate(-1771.103 -911.646)" fill="#c8bcb3"/>
              <path id="Trazado_1269111" data-name="Trazado 1269111" d="M1976.988,992.916a1.5,1.5,0,1,1-1.472-1.52A1.483,1.483,0,0,1,1976.988,992.916Z" transform="translate(-1852.771 -905.586)" fill="#c8bcb3"/>
              <path id="Trazado_1269112" data-name="Trazado 1269112" d="M1791.271,668.762a96.279,96.279,0,0,0,18.038,14.52C1809.643,683.492,1790.994,668.475,1791.271,668.762Z" transform="translate(-1687.51 -613.789)" fill="#c8bcb3"/>
              <path id="Trazado_1269113" data-name="Trazado 1269113" d="M1789.267,606.857a111.226,111.226,0,0,0,20.647,17.464C1810.3,624.569,1788.952,606.522,1789.267,606.857Z" transform="translate(-1685.697 -557.801)" fill="#c8bcb3"/>
            </g>
          </g>
        </g>
      </g>
    </g>
  </g>
</svg>
