<svg xmlns="http://www.w3.org/2000/svg" width="458.416" height="64.643" viewBox="0 0 458.416 64.643">
  <g id="Grupo_1204659" data-name="Grupo 1204659" transform="translate(-374.08 -6430.19)">
    <path id="Trazado_1270232" data-name="Trazado 1270232" d="M9.84,15,6.32,3.64H3.6L.08,15h2.5l.656-2.368H6.624L7.28,15ZM4.928,6.456,6.1,10.68H3.76ZM13,17.72v-3.7a2.287,2.287,0,0,0,2.08,1.184c1.76,0,2.944-1.44,2.944-4.016v-.656c0-2.576-1.184-4.016-2.944-4.016A2.321,2.321,0,0,0,12.888,7.9l-.08-1.168H10.632V17.72Zm1.312-4.3c-.928,0-1.36-.64-1.36-1.952v-1.2c0-1.328.432-1.968,1.36-1.968.912,0,1.344.656,1.344,1.968v1.2C15.656,12.76,15.224,13.416,14.312,13.416ZM21.52,15V10.68A1.585,1.585,0,0,1,23.3,8.856c.208,0,.4.016.592.032V6.632a1.785,1.785,0,0,0-.432-.048,2.126,2.126,0,0,0-2,1.7l-.064-1.552H19.168V15Zm6.6.208c2.288,0,3.7-1.584,3.7-4.048v-.592c0-2.464-1.408-4.048-3.7-4.048S24.408,8.1,24.408,10.568v.592C24.408,13.624,25.832,15.208,28.12,15.208Zm0-1.808c-.944,0-1.344-.64-1.344-2.016V10.328c0-1.376.4-2,1.344-2s1.344.624,1.344,2.016v1.04C29.464,12.76,29.064,13.4,28.12,13.4Zm9,1.6L39.5,6.728H37.216l-1.408,6.016L34.432,6.728H32.016L34.4,15Zm6.3.208a3.321,3.321,0,0,0,3.536-2.832H44.664A1.2,1.2,0,0,1,43.4,13.432c-.9,0-1.28-.544-1.344-1.808v-.24h4.928C47.16,8.2,45.928,6.52,43.416,6.52c-2.32,0-3.712,1.568-3.712,4.048v.592C39.7,13.656,41.08,15.208,43.416,15.208ZM42.072,9.88c.1-1.12.48-1.584,1.328-1.584.864,0,1.216.512,1.264,1.584v.1H42.072Zm9.448,5.328c1.968,0,3.232-1.216,3.376-3.408H52.64c-.064,1.008-.368,1.6-1.152,1.6-.848,0-1.216-.672-1.216-2.016V10.328c0-1.36.384-2,1.232-2,.8,0,1.072.56,1.136,1.584h2.272C54.768,7.736,53.5,6.52,51.52,6.52c-2.24,0-3.616,1.552-3.616,4.048v.592C47.9,13.672,49.3,15.208,51.52,15.208ZM58.3,15V9.912c0-.976.464-1.5,1.2-1.5s1.04.5,1.04,1.344V15h2.336V9.224c0-1.5-.64-2.7-2.384-2.7A2.417,2.417,0,0,0,58.3,7.768V3.16H55.944V15Zm7.976.208a2.27,2.27,0,0,0,2.144-1.3L68.5,15h2.192V9.208c0-1.648-1.184-2.688-3.152-2.688-2.016,0-3.312,1.024-3.344,2.8H66.4c.048-.768.4-1.1,1.04-1.1.656,0,.928.336.928.976v.736L66.4,10.2c-1.632.208-2.5,1.072-2.5,2.56A2.289,2.289,0,0,0,66.272,15.208Zm.848-1.7a.853.853,0,0,1-.928-.912c0-.592.3-.928.96-1.008l1.216-.16v.816A1.206,1.206,0,0,1,67.12,13.512ZM74.376,15V9.928c0-1.04.432-1.536,1.136-1.536.656,0,.976.464.976,1.3V15h2.336V9.928c0-1.024.416-1.536,1.12-1.536.64,0,.976.448.976,1.3V15h2.336V9.24c0-1.536-.64-2.72-2.336-2.72A2.615,2.615,0,0,0,78.6,7.9,2.032,2.032,0,0,0,76.5,6.52,2.4,2.4,0,0,0,74.312,7.9l-.08-1.168H72.024V15Zm12.6-11.84H84.56V5.7h2.416ZM84.592,6.728V15h2.352V6.728Zm7.208,8.48a3.321,3.321,0,0,0,3.536-2.832H93.048a1.2,1.2,0,0,1-1.264,1.056c-.9,0-1.28-.544-1.344-1.808v-.24h4.928C95.544,8.2,94.312,6.52,91.8,6.52c-2.32,0-3.712,1.568-3.712,4.048v.592C88.088,13.656,89.464,15.208,91.8,15.208ZM90.456,9.88c.1-1.12.48-1.584,1.328-1.584.864,0,1.216.512,1.264,1.584v.1H90.456ZM98.88,15V9.9c0-.96.464-1.488,1.2-1.488s1.04.5,1.04,1.344V15h2.336V9.224c0-1.52-.64-2.7-2.384-2.7a2.412,2.412,0,0,0-2.256,1.392l-.08-1.184H96.528V15Zm9.224.208a4.414,4.414,0,0,0,1.36-.208V13.24a2.362,2.362,0,0,1-.784.144c-.624,0-.928-.256-.928-.816V8.44h1.68V6.728h-1.68V4.2h-2.336V6.728H104.2V8.44h1.216v4.3C105.416,14.264,106.264,15.208,108.1,15.208Zm5.736,0c2.288,0,3.7-1.584,3.7-4.048v-.592c0-2.464-1.408-4.048-3.7-4.048s-3.712,1.584-3.712,4.048v.592C110.128,13.624,111.552,15.208,113.84,15.208Zm0-1.808c-.944,0-1.344-.64-1.344-2.016V10.328c0-1.376.4-2,1.344-2s1.344.624,1.344,2.016v1.04C115.184,12.76,114.784,13.4,113.84,13.4Zm11.744,3.664a15.329,15.329,0,0,1-1.776-6.96,15.263,15.263,0,0,1,1.776-6.944h-1.92a12.18,12.18,0,0,0-2.24,6.944,12.075,12.075,0,0,0,2.24,6.96Zm3.032-8.336a2.426,2.426,0,0,0,2.464-2.64,2.456,2.456,0,1,0-4.9,0A2.4,2.4,0,0,0,128.616,8.728ZM129.288,15,135.88,3.64H134.1L127.5,15Zm-.672-7.76c-.56,0-.9-.416-.9-1.152,0-.784.336-1.152.9-1.152s.9.368.9,1.152C129.512,6.824,129.176,7.24,128.616,7.24Zm6.24,7.968a2.426,2.426,0,0,0,2.464-2.64,2.456,2.456,0,1,0-4.9,0A2.411,2.411,0,0,0,134.856,15.208Zm.016-1.5c-.56,0-.9-.4-.9-1.136,0-.784.336-1.168.9-1.168.544,0,.88.384.88,1.168C135.752,13.3,135.416,13.7,134.872,13.7Zm4.968,3.36a12.142,12.142,0,0,0,2.224-6.96A12.287,12.287,0,0,0,139.84,3.16H137.9A15.224,15.224,0,0,1,139.7,10.1a15.185,15.185,0,0,1-1.792,6.96Zm12.5-8.656V6.584H146V8.408Zm0,3.344V9.928H146v1.824Z" transform="translate(374 6449.511)" fill="#12263f"/>
    <path id="Trazado_1270233" data-name="Trazado 1270233" d="M23.6.1,21.716,2.536H23.78L26.308.1ZM27.828,15,24.308,3.64h-2.72L18.068,15h2.5l.656-2.368h3.392L25.268,15ZM22.916,6.456l1.168,4.224H21.748ZM30.972,15V10.68a1.585,1.585,0,0,1,1.776-1.824c.208,0,.4.016.592.032V6.632a1.784,1.784,0,0,0-.432-.048,2.126,2.126,0,0,0-2,1.7l-.064-1.552H28.62V15Zm6.6.208a3.321,3.321,0,0,0,3.536-2.832H38.82a1.2,1.2,0,0,1-1.264,1.056c-.9,0-1.28-.544-1.344-1.808v-.24H41.14C41.316,8.2,40.084,6.52,37.572,6.52c-2.32,0-3.712,1.568-3.712,4.048v.592C33.86,13.656,35.236,15.208,37.572,15.208ZM36.228,9.88c.1-1.12.48-1.584,1.328-1.584.864,0,1.216.512,1.264,1.584v.1H36.228Zm8.12,5.328a2.27,2.27,0,0,0,2.144-1.3L46.572,15h2.192V9.208c0-1.648-1.184-2.688-3.152-2.688-2.016,0-3.312,1.024-3.344,2.8h2.208c.048-.768.4-1.1,1.04-1.1.656,0,.928.336.928.976v.736l-1.968.272c-1.632.208-2.5,1.072-2.5,2.56A2.289,2.289,0,0,0,44.348,15.208Zm.848-1.7a.853.853,0,0,1-.928-.912c0-.592.3-.928.96-1.008l1.216-.16v.816A1.206,1.206,0,0,1,45.2,13.512ZM56.492,3.16,54.924,5.7H56.8L59.212,3.16ZM55.068,15.208A2.4,2.4,0,0,0,57.26,13.88L57.34,15h2.208V6.728H57.2V11.8c0,1.008-.432,1.52-1.152,1.52-.672,0-.992-.448-.992-1.264V6.728H52.716V12.52C52.716,14.088,53.4,15.208,55.068,15.208Zm9.288,0A4.414,4.414,0,0,0,65.716,15V13.24a2.362,2.362,0,0,1-.784.144c-.624,0-.928-.256-.928-.816V8.44h1.68V6.728H64V4.2H61.668V6.728H60.452V8.44h1.216v4.3C61.668,14.264,62.516,15.208,64.356,15.208ZM69.2,3.16H66.78V5.7H69.2ZM66.812,6.728V15h2.352V6.728ZM70.548,3.16V15H72.9V3.16Zm8.7,12.048a2.4,2.4,0,0,0,2.192-1.328l.08,1.12h2.208V6.728H81.38V11.8c0,1.008-.432,1.52-1.152,1.52-.672,0-.992-.448-.992-1.264V6.728H76.9V12.52C76.9,14.088,77.588,15.208,79.252,15.208Zm9.288,0A4.414,4.414,0,0,0,89.9,15V13.24a2.362,2.362,0,0,1-.784.144c-.624,0-.928-.256-.928-.816V8.44h1.68V6.728h-1.68V4.2H85.852V6.728H84.636V8.44h1.216v4.3C85.852,14.264,86.7,15.208,88.54,15.208ZM93.38,3.16H90.964V5.7H93.38ZM91,6.728V15h2.352V6.728ZM94.732,3.16V15h2.352V3.16Zm6.12,0H98.436V5.7h2.416ZM98.468,6.728V15h2.352V6.728ZM108.06,15V13.176h-3.328l3.2-4.832V6.728H102.3V8.536h2.912L102,13.352V15Zm3.112.208a2.27,2.27,0,0,0,2.144-1.3L113.4,15h2.192V9.208c0-1.648-1.184-2.688-3.152-2.688-2.016,0-3.312,1.024-3.344,2.8H111.3c.048-.768.4-1.1,1.04-1.1.656,0,.928.336.928.976v.736L111.3,10.2c-1.632.208-2.5,1.072-2.5,2.56A2.289,2.289,0,0,0,111.172,15.208Zm.848-1.7a.853.853,0,0,1-.928-.912c0-.592.3-.928.96-1.008l1.216-.16v.816A1.206,1.206,0,0,1,112.02,13.512Zm7.624,1.7a2.269,2.269,0,0,0,2.176-1.392L121.9,15h2.176V3.16h-2.352V7.688a2.377,2.377,0,0,0-2.112-1.168c-1.76,0-2.928,1.44-2.928,4.016v.656C116.684,13.768,117.884,15.208,119.644,15.208Zm.752-1.792c-.9,0-1.344-.656-1.344-1.952v-1.2q0-1.968,1.344-1.968c.928,0,1.376.64,1.376,1.968v1.2C121.772,12.776,121.324,13.416,120.4,13.416Zm7.144,1.792a2.27,2.27,0,0,0,2.144-1.3l.08,1.088h2.192V9.208c0-1.648-1.184-2.688-3.152-2.688-2.016,0-3.312,1.024-3.344,2.8h2.208c.048-.768.4-1.1,1.04-1.1.656,0,.928.336.928.976v.736l-1.968.272c-1.632.208-2.5,1.072-2.5,2.56A2.289,2.289,0,0,0,127.54,15.208Zm.848-1.7a.853.853,0,0,1-.928-.912c0-.592.3-.928.96-1.008l1.216-.16v.816A1.206,1.206,0,0,1,128.388,13.512Zm9.936,4.208v-3.7a2.287,2.287,0,0,0,2.08,1.184c1.76,0,2.944-1.44,2.944-4.016v-.656c0-2.576-1.184-4.016-2.944-4.016A2.321,2.321,0,0,0,138.212,7.9l-.08-1.168h-2.176V17.72Zm1.312-4.3c-.928,0-1.36-.64-1.36-1.952v-1.2c0-1.328.432-1.968,1.36-1.968.912,0,1.344.656,1.344,1.968v1.2C140.98,12.76,140.548,13.416,139.636,13.416Zm8.328,1.792c2.288,0,3.7-1.584,3.7-4.048v-.592c0-2.464-1.408-4.048-3.7-4.048s-3.712,1.584-3.712,4.048v.592C144.252,13.624,145.676,15.208,147.964,15.208Zm0-1.808c-.944,0-1.344-.64-1.344-2.016V10.328c0-1.376.4-2,1.344-2s1.344.624,1.344,2.016v1.04C149.308,12.76,148.908,13.4,147.964,13.4Zm7.208,1.6V10.68a1.585,1.585,0,0,1,1.776-1.824c.208,0,.4.016.592.032V6.632a1.785,1.785,0,0,0-.432-.048,2.126,2.126,0,0,0-2,1.7l-.064-1.552H152.82V15Zm6.064-11.84V15h2.352V3.16Zm7.208,12.048c2.288,0,3.7-1.584,3.7-4.048v-.592c0-2.464-1.408-4.048-3.7-4.048s-3.712,1.584-3.712,4.048v.592C164.732,13.624,166.156,15.208,168.444,15.208Zm0-1.808c-.944,0-1.344-.64-1.344-2.016V10.328c0-1.376.4-2,1.344-2s1.344.624,1.344,2.016v1.04C169.788,12.76,169.388,13.4,168.444,13.4Zm7.72,1.808c2.048,0,3.232-1.072,3.232-2.752,0-1.488-.864-2.144-2.72-2.512-1.136-.224-1.44-.416-1.44-.992,0-.528.336-.784.9-.784.576,0,.944.288.976,1.04h2.176c-.08-1.7-1.216-2.688-3.136-2.688-1.872,0-3.136.976-3.136,2.608,0,1.536.88,2.144,2.688,2.512,1.184.224,1.424.5,1.424,1.056,0,.576-.352.848-.96.848-.64,0-1.072-.352-1.136-1.168H172.8C172.9,14.168,174.052,15.208,176.164,15.208Zm9.36,2.512v-3.7a2.287,2.287,0,0,0,2.08,1.184c1.76,0,2.944-1.44,2.944-4.016v-.656c0-2.576-1.184-4.016-2.944-4.016A2.321,2.321,0,0,0,185.412,7.9l-.08-1.168h-2.176V17.72Zm1.312-4.3c-.928,0-1.36-.64-1.36-1.952v-1.2c0-1.328.432-1.968,1.36-1.968.912,0,1.344.656,1.344,1.968v1.2C188.18,12.76,187.748,13.416,186.836,13.416Zm6.9,1.792a2.27,2.27,0,0,0,2.144-1.3l.08,1.088h2.192V9.208c0-1.648-1.184-2.688-3.152-2.688-2.016,0-3.312,1.024-3.344,2.8h2.208c.048-.768.4-1.1,1.04-1.1.656,0,.928.336.928.976v.736l-1.968.272c-1.632.208-2.5,1.072-2.5,2.56A2.289,2.289,0,0,0,193.74,15.208Zm.848-1.7a.853.853,0,0,1-.928-.912c0-.592.3-.928.96-1.008l1.216-.16v.816A1.206,1.206,0,0,1,194.588,13.512Zm8.232,1.7A4.414,4.414,0,0,0,204.18,15V13.24a2.362,2.362,0,0,1-.784.144c-.624,0-.928-.256-.928-.816V8.44h1.68V6.728h-1.68V4.2h-2.336V6.728h-1.216V8.44h1.216v4.3C200.132,14.264,200.98,15.208,202.82,15.208ZM207.628,15V10.68A1.585,1.585,0,0,1,209.4,8.856c.208,0,.4.016.592.032V6.632a1.785,1.785,0,0,0-.432-.048,2.126,2.126,0,0,0-2,1.7L207.5,6.728h-2.224V15Zm6.6.208c2.288,0,3.7-1.584,3.7-4.048v-.592c0-2.464-1.408-4.048-3.7-4.048s-3.712,1.584-3.712,4.048v.592C210.516,13.624,211.94,15.208,214.228,15.208Zm0-1.808c-.944,0-1.344-.64-1.344-2.016V10.328c0-1.376.4-2,1.344-2s1.344.624,1.344,2.016v1.04C215.572,12.76,215.172,13.4,214.228,13.4Zm7.208,1.6V9.9c0-.96.464-1.488,1.2-1.488s1.04.5,1.04,1.344V15h2.336V9.224c0-1.52-.64-2.7-2.384-2.7a2.412,2.412,0,0,0-2.256,1.392l-.08-1.184h-2.208V15Zm9.368.208a3.321,3.321,0,0,0,3.536-2.832h-2.288a1.2,1.2,0,0,1-1.264,1.056c-.9,0-1.28-.544-1.344-1.808v-.24h4.928c.176-3.184-1.056-4.864-3.568-4.864-2.32,0-3.712,1.568-3.712,4.048v.592C227.092,13.656,228.468,15.208,230.8,15.208ZM229.46,9.88c.1-1.12.48-1.584,1.328-1.584.864,0,1.216.512,1.264,1.584v.1H229.46Zm8.936,5.328c2.048,0,3.232-1.072,3.232-2.752,0-1.488-.864-2.144-2.72-2.512-1.136-.224-1.44-.416-1.44-.992,0-.528.336-.784.9-.784.576,0,.944.288.976,1.04h2.176c-.08-1.7-1.216-2.688-3.136-2.688-1.872,0-3.136.976-3.136,2.608,0,1.536.88,2.144,2.688,2.512,1.184.224,1.424.5,1.424,1.056,0,.576-.352.848-.96.848-.64,0-1.072-.352-1.136-1.168h-2.224C235.132,14.168,236.284,15.208,238.4,15.208Z" transform="translate(530 6437.511)" fill="#12263f"/>
    <path id="Trazado_1270234" data-name="Trazado 1270234" d="M32.688.1,30.8,2.536h2.064L35.392.1ZM36.912,15,33.392,3.64h-2.72L27.152,15h2.5l.656-2.368H33.7L34.352,15ZM32,6.456l1.168,4.224H30.832ZM40.056,15V10.68a1.585,1.585,0,0,1,1.776-1.824c.208,0,.4.016.592.032V6.632a1.784,1.784,0,0,0-.432-.048,2.126,2.126,0,0,0-2,1.7l-.064-1.552H37.7V15Zm6.6.208a3.321,3.321,0,0,0,3.536-2.832H47.9a1.2,1.2,0,0,1-1.264,1.056c-.9,0-1.28-.544-1.344-1.808v-.24h4.928C50.4,8.2,49.168,6.52,46.656,6.52c-2.32,0-3.712,1.568-3.712,4.048v.592C42.944,13.656,44.32,15.208,46.656,15.208ZM45.312,9.88c.1-1.12.48-1.584,1.328-1.584.864,0,1.216.512,1.264,1.584v.1H45.312Zm8.12,5.328a2.27,2.27,0,0,0,2.144-1.3L55.656,15h2.192V9.208c0-1.648-1.184-2.688-3.152-2.688-2.016,0-3.312,1.024-3.344,2.8H53.56c.048-.768.4-1.1,1.04-1.1.656,0,.928.336.928.976v.736L53.56,10.2c-1.632.208-2.5,1.072-2.5,2.56A2.289,2.289,0,0,0,53.432,15.208Zm.848-1.7a.853.853,0,0,1-.928-.912c0-.592.3-.928.96-1.008l1.216-.16v.816A1.206,1.206,0,0,1,54.28,13.512Zm10.976,1.7A4.414,4.414,0,0,0,66.616,15V13.24a2.362,2.362,0,0,1-.784.144c-.624,0-.928-.256-.928-.816V8.44h1.68V6.728H64.9V4.2H62.568V6.728H61.352V8.44h1.216v4.3C62.568,14.264,63.416,15.208,65.256,15.208Zm5.736,0c2.288,0,3.7-1.584,3.7-4.048v-.592c0-2.464-1.408-4.048-3.7-4.048S67.28,8.1,67.28,10.568v.592C67.28,13.624,68.7,15.208,70.992,15.208Zm0-1.808c-.944,0-1.344-.64-1.344-2.016V10.328c0-1.376.4-2,1.344-2s1.344.624,1.344,2.016v1.04C72.336,12.76,71.936,13.4,70.992,13.4Zm8.072,1.808A4.414,4.414,0,0,0,80.424,15V13.24a2.362,2.362,0,0,1-.784.144c-.624,0-.928-.256-.928-.816V8.44h1.68V6.728h-1.68V4.2H76.376V6.728H75.16V8.44h1.216v4.3C76.376,14.264,77.224,15.208,79.064,15.208Zm4.536,0a2.27,2.27,0,0,0,2.144-1.3L85.824,15h2.192V9.208c0-1.648-1.184-2.688-3.152-2.688-2.016,0-3.312,1.024-3.344,2.8h2.208c.048-.768.4-1.1,1.04-1.1.656,0,.928.336.928.976v.736l-1.968.272c-1.632.208-2.5,1.072-2.5,2.56A2.289,2.289,0,0,0,83.6,15.208Zm.848-1.7a.853.853,0,0,1-.928-.912c0-.592.3-.928.96-1.008l1.216-.16v.816A1.206,1.206,0,0,1,84.448,13.512Zm4.9-10.352V15H91.7V3.16Zm9.12,12.048a2.269,2.269,0,0,0,2.176-1.392l.08,1.184H102.9V3.16h-2.352V7.688A2.377,2.377,0,0,0,98.44,6.52c-1.76,0-2.928,1.44-2.928,4.016v.656C95.512,13.768,96.712,15.208,98.472,15.208Zm.752-1.792c-.9,0-1.344-.656-1.344-1.952v-1.2q0-1.968,1.344-1.968c.928,0,1.376.64,1.376,1.968v1.2C100.6,12.776,100.152,13.416,99.224,13.416Zm8.536,1.792a3.321,3.321,0,0,0,3.536-2.832h-2.288a1.2,1.2,0,0,1-1.264,1.056c-.9,0-1.28-.544-1.344-1.808v-.24h4.928C111.5,8.2,110.272,6.52,107.76,6.52c-2.32,0-3.712,1.568-3.712,4.048v.592C104.048,13.656,105.424,15.208,107.76,15.208ZM106.416,9.88c.1-1.12.48-1.584,1.328-1.584.864,0,1.216.512,1.264,1.584v.1h-2.592Zm6.072-6.72V15h2.352V3.16ZM121.24,15V9.928c0-1.04.432-1.536,1.136-1.536.656,0,.976.464.976,1.3V15h2.336V9.928c0-1.024.416-1.536,1.12-1.536.64,0,.976.448.976,1.3V15h2.336V9.24c0-1.536-.64-2.72-2.336-2.72a2.615,2.615,0,0,0-2.32,1.376,2.032,2.032,0,0,0-2.1-1.376A2.4,2.4,0,0,0,121.176,7.9l-.08-1.168h-2.208V15Zm13.688.208a3.321,3.321,0,0,0,3.536-2.832h-2.288a1.2,1.2,0,0,1-1.264,1.056c-.9,0-1.28-.544-1.344-1.808v-.24H138.5c.176-3.184-1.056-4.864-3.568-4.864-2.32,0-3.712,1.568-3.712,4.048v.592C131.216,13.656,132.592,15.208,134.928,15.208ZM133.584,9.88c.1-1.12.48-1.584,1.328-1.584.864,0,1.216.512,1.264,1.584v.1h-2.592Zm9.288,5.328a4.414,4.414,0,0,0,1.36-.208V13.24a2.362,2.362,0,0,1-.784.144c-.624,0-.928-.256-.928-.816V8.44h1.68V6.728h-1.68V4.2h-2.336V6.728h-1.216V8.44h1.216v4.3C140.184,14.264,141.032,15.208,142.872,15.208ZM147.68,15V10.68a1.585,1.585,0,0,1,1.776-1.824c.208,0,.4.016.592.032V6.632a1.785,1.785,0,0,0-.432-.048,2.126,2.126,0,0,0-2,1.7l-.064-1.552h-2.224V15Zm6.6.208c2.288,0,3.7-1.584,3.7-4.048v-.592c0-2.464-1.408-4.048-3.7-4.048s-3.712,1.584-3.712,4.048v.592C150.568,13.624,151.992,15.208,154.28,15.208Zm0-1.808c-.944,0-1.344-.64-1.344-2.016V10.328c0-1.376.4-2,1.344-2s1.344.624,1.344,2.016v1.04C155.624,12.76,155.224,13.4,154.28,13.4Zm10.24,1.808a2.269,2.269,0,0,0,2.176-1.392l.08,1.184h2.176V3.16H166.6V7.688a2.377,2.377,0,0,0-2.112-1.168c-1.76,0-2.928,1.44-2.928,4.016v.656C161.56,13.768,162.76,15.208,164.52,15.208Zm.752-1.792c-.9,0-1.344-.656-1.344-1.952v-1.2q0-1.968,1.344-1.968c.928,0,1.376.64,1.376,1.968v1.2C166.648,12.776,166.2,13.416,165.272,13.416Zm8.536,1.792a3.321,3.321,0,0,0,3.536-2.832h-2.288a1.2,1.2,0,0,1-1.264,1.056c-.9,0-1.28-.544-1.344-1.808v-.24h4.928c.176-3.184-1.056-4.864-3.568-4.864-2.32,0-3.712,1.568-3.712,4.048v.592C170.1,13.656,171.472,15.208,173.808,15.208ZM172.464,9.88c.1-1.12.48-1.584,1.328-1.584.864,0,1.216.512,1.264,1.584v.1h-2.592Zm12.144,5.328a4.414,4.414,0,0,0,1.36-.208V13.24a2.362,2.362,0,0,1-.784.144c-.624,0-.928-.256-.928-.816V8.44h1.68V6.728h-1.68V4.2H181.92V6.728H180.7V8.44h1.216v4.3C181.92,14.264,182.768,15.208,184.608,15.208Zm5.736,0a3.321,3.321,0,0,0,3.536-2.832h-2.288a1.2,1.2,0,0,1-1.264,1.056c-.9,0-1.28-.544-1.344-1.808v-.24h4.928c.176-3.184-1.056-4.864-3.568-4.864-2.32,0-3.712,1.568-3.712,4.048v.592C186.632,13.656,188.008,15.208,190.344,15.208ZM189,9.88c.1-1.12.48-1.584,1.328-1.584.864,0,1.216.512,1.264,1.584v.1H189Zm6.072-6.72V15h2.352V3.16Zm5.816,12.048a2.27,2.27,0,0,0,2.144-1.3l.08,1.088H205.3V9.208c0-1.648-1.184-2.688-3.152-2.688-2.016,0-3.312,1.024-3.344,2.8h2.208c.048-.768.4-1.1,1.04-1.1.656,0,.928.336.928.976v.736l-1.968.272c-1.632.208-2.5,1.072-2.5,2.56A2.289,2.289,0,0,0,200.888,15.208Zm.848-1.7a.853.853,0,0,1-.928-.912c0-.592.3-.928.96-1.008l1.216-.16v.816A1.206,1.206,0,0,1,201.736,13.512Z" transform="translate(543 6462.511)" fill="#12263f"/>
    <path id="Trazado_1270235" data-name="Trazado 1270235" d="M2.528,15,3.84,12.552,5.152,15H7.68L5.2,10.792,7.536,6.728h-2.4l-1.2,2.288L2.752,6.728H.224l2.384,4L.1,15ZM15.44,15V3.64H13.552a4.32,4.32,0,0,1-2.544,1.712V7.528a4.938,4.938,0,0,0,2.048-.96V15Zm5.192.208c2.56,0,3.632-2.016,3.632-4.992V8.44c0-2.976-1.056-5.008-3.632-5.008-2.512,0-3.584,2.032-3.584,5.008v1.776C17.048,13.192,18.12,15.208,20.632,15.208Zm0-1.952c-.864,0-1.152-.736-1.152-2.624V8.056c0-1.92.288-2.672,1.152-2.672.928,0,1.184.752,1.184,2.672v2.576C21.816,12.52,21.56,13.256,20.632,13.256Zm8.232,1.952c2.56,0,3.632-2.016,3.632-4.992V8.44c0-2.976-1.056-5.008-3.632-5.008-2.512,0-3.584,2.032-3.584,5.008v1.776C25.28,13.192,26.352,15.208,28.864,15.208Zm0-1.952c-.864,0-1.152-.736-1.152-2.624V8.056c0-1.92.288-2.672,1.152-2.672.928,0,1.184.752,1.184,2.672v2.576C30.048,12.52,29.792,13.256,28.864,13.256Z" transform="translate(800 6448.511)" fill="#12263f"/>
    <path id="Trazado_1270236" data-name="Trazado 1270236" d="M0,0H241" transform="translate(539.5 6460.011)" fill="none" stroke="#707070" stroke-width="1"/>
    <path id="Trazado_1269475" data-name="Trazado 1269475" d="M0,0S-9.155,12.15-8.5,32.8,1,64,1,64" transform="translate(540.505 6430.511)" fill="none" stroke="#000" stroke-width="1"/>
    <path id="Trazado_1269476" data-name="Trazado 1269476" d="M0,0S-9.155,12.15-8.5,32.8,1,64,1,64" transform="translate(782.972 6494.511) rotate(180)" fill="none" stroke="#000" stroke-width="1"/>
  </g>
</svg>
