<svg xmlns="http://www.w3.org/2000/svg" xmlns:xlink="http://www.w3.org/1999/xlink" width="188" height="162.599" viewBox="0 0 188 162.599">
  <defs>
    <clipPath id="clip-path">
      <rect id="Rectángulo_454933" data-name="Rectángulo 454933" width="188" height="162.599" fill="none"/>
    </clipPath>
  </defs>
  <g id="Grupo_1204660" data-name="Grupo 1204660" transform="translate(-706 -7460.748)">
    <g id="Grupo_1203668" data-name="Grupo 1203668" transform="translate(706 7460.748)">
      <g id="Grupo_1203498" data-name="Grupo 1203498" clip-path="url(#clip-path)">
        <path id="Trazado_1258868" data-name="Trazado 1258868" d="M163.429,142.2c21.76-23.418,15.6-51.474,3.551-77.973-6.152-13.532-10.153-27.38-15.54-41.1-2.482-6.321-5.767-12.507-10.818-17.046C126.179-6.885,107.466,3.87,92.973,10.757,70.4,23.032,43.3,29.991,23.521,46.846,8.253,59.858-5.605,83.933,2.289,104.347c3.9,10.094,12.728,17.66,22.486,22.338,17.639,8.456,38.142,9.98,56.562,16.427,13.28,4.648,25.3,16.011,39.6,17.463,15.077,1.531,31.937-7.238,42.034-17.883q.233-.246.462-.492" transform="translate(0 0)" fill="#fff"/>
        <path id="Trazado_1258869" data-name="Trazado 1258869" d="M171.123,143.2c21.76-23.418,15.6-51.473,3.551-77.972-6.152-13.532-10.153-27.38-15.54-41.1-2.482-6.321-5.767-12.507-10.819-17.046-14.442-12.972-33.154-2.216-47.648,4.671C78.1,24.033,50.993,30.992,31.215,47.847,15.947,60.859,2.089,84.934,9.983,105.348c3.9,10.094,12.728,17.66,22.486,22.338,17.639,8.456,38.142,9.98,56.562,16.427,13.28,4.648,25.3,16.011,39.6,17.463,15.077,1.531,31.937-7.238,42.034-17.883Q170.893,143.448,171.123,143.2Z" transform="translate(1.788 0.232)" fill="none" stroke="#c957bc" stroke-miterlimit="10" stroke-width="1"/>
        <path id="diseno-de-moda_1_" data-name="diseno-de-moda (1)" d="M128.2,78.529c.251.5,6.251,11.973,28.7,12.6V110.54c-6.132.738-10.116,5.087-11.3,12.435a5.721,5.721,0,0,1-5.7,4.8h-.343a1.927,1.927,0,1,0,0,3.854h.343a9.56,9.56,0,0,0,9.5-8.035c.871-5.381,3.39-8.451,7.5-9.154V129.7a1.927,1.927,0,1,0,3.854,0v-15.26c4.11.7,6.63,3.771,7.5,9.154a9.56,9.56,0,0,0,9.5,8.033h.343a1.927,1.927,0,1,0,0-3.854h-.343a5.721,5.721,0,0,1-5.7-4.8c-1.189-7.347-5.173-11.7-11.3-12.435V91.128c22.451-.626,28.452-12.1,28.7-12.6a1.927,1.927,0,0,0-.291-2.151L172.515,57.869l5.533-22.131a1.927,1.927,0,0,0-1.154-2.257l-8.72-3.488-1.689-6.753a1.927,1.927,0,0,0-1.87-1.46h-3.854V17.927a1.927,1.927,0,1,0-3.854,0v3.854h-3.854a1.927,1.927,0,0,0-1.87,1.46L149.5,29.994l-8.72,3.488a1.927,1.927,0,0,0-1.154,2.257l5.533,22.131L128.5,76.378A1.927,1.927,0,0,0,128.2,78.529Zm16.683-37.618-1.119-4.475,8.074-3.229A1.927,1.927,0,0,0,153,31.884l1.562-6.249h8.553l1.562,6.249a1.927,1.927,0,0,0,1.154,1.322l8.074,3.229-1.119,4.475a11.3,11.3,0,0,0-6.239-1.785c-3.128,0-6.053,1.9-7.708,3.218-1.656-1.32-4.58-3.218-7.708-3.218A11.3,11.3,0,0,0,144.887,40.911ZM148.7,59.685a1.927,1.927,0,0,0,.437-1.757l-3.234-12.936a7.307,7.307,0,0,1,5.218-2.014c2.486,0,5.425,2.377,6.346,3.29a1.931,1.931,0,0,0,2.722,0c.924-.916,3.863-3.292,6.349-3.292a7.308,7.308,0,0,1,5.218,2.014l-3.234,12.936a1.927,1.927,0,0,0,.437,1.757l16.352,18.168c-1.39,1.815-5.055,5.553-12.815,7.745l-6.057-18.176a1.927,1.927,0,1,0-3.656,1.218l5.942,17.827a55.04,55.04,0,0,1-9.895.835,54.492,54.492,0,0,1-9.891-.847l5.938-17.815a1.927,1.927,0,1,0-3.656-1.218l-6.052,18.16a29.817,29.817,0,0,1-8.142-3.572,18.8,18.8,0,0,1-4.67-4.164Z" transform="translate(-45.001 5.764)" fill="#752092"/>
      </g>
    </g>
  </g>
</svg>
