<svg xmlns="http://www.w3.org/2000/svg" xmlns:xlink="http://www.w3.org/1999/xlink" width="188" height="162.599" viewBox="0 0 188 162.599">
  <defs>
    <clipPath id="clip-path">
      <rect id="Rectángulo_454933" data-name="Rectángulo 454933" width="188" height="162.599" fill="none"/>
    </clipPath>
  </defs>
  <g id="Grupo_1204661" data-name="Grupo 1204661" transform="translate(-1115 -7460.748)">
    <g id="Grupo_1203669" data-name="Grupo 1203669" transform="translate(1115 7460.748)">
      <g id="Grupo_1203498" data-name="Grupo 1203498" clip-path="url(#clip-path)">
        <path id="Trazado_1258868" data-name="Trazado 1258868" d="M163.429,142.2c21.76-23.418,15.6-51.474,3.551-77.973-6.152-13.532-10.153-27.38-15.54-41.1-2.482-6.321-5.767-12.507-10.818-17.046C126.179-6.885,107.466,3.87,92.973,10.757,70.4,23.032,43.3,29.991,23.521,46.846,8.253,59.858-5.605,83.933,2.289,104.347c3.9,10.094,12.728,17.66,22.486,22.338,17.639,8.456,38.142,9.98,56.562,16.427,13.28,4.648,25.3,16.011,39.6,17.463,15.077,1.531,31.937-7.238,42.034-17.883q.233-.246.462-.492" transform="translate(0 0)" fill="#fff"/>
        <path id="Trazado_1258869" data-name="Trazado 1258869" d="M171.123,143.2c21.76-23.418,15.6-51.473,3.551-77.972-6.152-13.532-10.153-27.38-15.54-41.1-2.482-6.321-5.767-12.507-10.819-17.046-14.442-12.972-33.154-2.216-47.648,4.671C78.1,24.033,50.993,30.992,31.215,47.847,15.947,60.859,2.089,84.934,9.983,105.348c3.9,10.094,12.728,17.66,22.486,22.338,17.639,8.456,38.142,9.98,56.562,16.427,13.28,4.648,25.3,16.011,39.6,17.463,15.077,1.531,31.937-7.238,42.034-17.883Q170.893,143.448,171.123,143.2Z" transform="translate(1.788 0.232)" fill="none" stroke="#c957bc" stroke-miterlimit="10" stroke-width="1"/>
        <path id="disenador-de-vestuario" d="M48.818,62.364a21.958,21.958,0,0,1-.488-8l2.1-18.088a4.27,4.27,0,0,0-3.067-4.608L45.8,31.215a3.192,3.192,0,0,0-3.944,2.138c-.979,3.209-2.731,5.385-4.584,7.689-.6.741-1.211,1.507-1.8,2.31a.963.963,0,0,1-1.548,0c-.589-.8-1.207-1.568-1.8-2.31-1.854-2.3-3.6-4.482-4.584-7.688a3.205,3.205,0,0,0-3.944-2.14l-1.562.454a4.27,4.27,0,0,0-3.069,4.606l2.09,18.092a21.83,21.83,0,0,1-.482,8L13.311,92.477a4.284,4.284,0,0,0,3.181,5.177,78.872,78.872,0,0,0,36.395,0,4.281,4.281,0,0,0,3.187-5.175Zm-24.41-5.041a61.7,61.7,0,0,0,10.284.831,61.736,61.736,0,0,0,10.282-.835q.009.965.092,1.92a62.928,62.928,0,0,1-10.374.835,62.643,62.643,0,0,1-10.374-.835C24.372,58.6,24.4,57.967,24.408,57.323ZM22.914,34.735l1.562-.45c1.159,3.8,3.189,6.32,5.151,8.759.6.747,1.167,1.453,1.716,2.2a4.158,4.158,0,0,0,6.7,0c.549-.747,1.117-1.453,1.716-2.2a25.093,25.093,0,0,0,5.149-8.761l1.564.454a1.074,1.074,0,0,1,.783,1.171L45.156,54c0,.014,0,.03,0,.044a57.545,57.545,0,0,1-10.462.919,57.525,57.525,0,0,1-10.466-.919.356.356,0,0,1,0-.046l-2.09-18.09a1.071,1.071,0,0,1,.783-1.171ZM52.836,94.053a1.007,1.007,0,0,1-.681.49,75.7,75.7,0,0,1-34.932,0,1,1,0,0,1-.677-.49.991.991,0,0,1-.13-.827l7.255-30.113c.058-.24.112-.478.162-.715a65.718,65.718,0,0,0,10.859.873A66.207,66.207,0,0,0,45.552,62.4c.052.236.1.474.162.713l7.255,30.115v0A.978.978,0,0,1,52.836,94.053Zm48.185-47.568L98.2,43.673a4.36,4.36,0,0,0-3.1-1.283h-.006A4.343,4.343,0,0,0,92,43.673L69.376,66.293V26.813a9.213,9.213,0,0,0-9.2-9.2H9.209A9.217,9.217,0,0,0,0,26.813V103.67a9.217,9.217,0,0,0,9.209,9.2H60.171a9.213,9.213,0,0,0,9.2-9.2V84.333L101.023,52.69a4.4,4.4,0,0,0,0-6.2ZM61.954,80.015l2.721,2.721L61.1,83.59Zm5.87,1.353-4.5-4.5,26.424-26.42,4.506,4.5ZM60.173,109.68H9.209a6.018,6.018,0,0,1-6.014-6.01V26.813A6.019,6.019,0,0,1,9.209,20.8H60.171a6.017,6.017,0,0,1,6.01,6.01V69.485l-6.25,6.248a1.587,1.587,0,0,0-.424.759L57.4,85.374a1.6,1.6,0,0,0,1.554,1.966,1.574,1.574,0,0,0,.372-.044l6.861-1.638v18.01a6.02,6.02,0,0,1-6.01,6.012Zm38.59-59.246-2.252,2.252-4.506-4.5,2.258-2.258a1.181,1.181,0,0,1,.835-.346h0a1.185,1.185,0,0,1,.843.348l0,0,2.817,2.811A1.207,1.207,0,0,1,98.764,50.434Z" transform="translate(67 18.255)" fill="#752092"/>
      </g>
    </g>
  </g>
</svg>
