<svg xmlns="http://www.w3.org/2000/svg" xmlns:xlink="http://www.w3.org/1999/xlink" width="188" height="162.599" viewBox="0 0 188 162.599">
  <defs>
    <clipPath id="clip-path">
      <rect id="Rectángulo_454933" data-name="Rectángulo 454933" width="188" height="162.599" fill="none"/>
    </clipPath>
  </defs>
  <g id="Grupo_1204662" data-name="Grupo 1204662" transform="translate(-290.941 -7880.748)">
    <g id="Grupo_1204160" data-name="Grupo 1204160" transform="translate(290.941 7880.748)">
      <g id="Grupo_1203498" data-name="Grupo 1203498" clip-path="url(#clip-path)">
        <path id="Trazado_1258868" data-name="Trazado 1258868" d="M163.429,142.2c21.76-23.418,15.6-51.474,3.551-77.973-6.152-13.532-10.153-27.38-15.54-41.1-2.482-6.321-5.767-12.507-10.818-17.046C126.179-6.885,107.466,3.87,92.973,10.757,70.4,23.032,43.3,29.991,23.521,46.846,8.253,59.858-5.605,83.933,2.289,104.347c3.9,10.094,12.728,17.66,22.486,22.338,17.639,8.456,38.142,9.98,56.562,16.427,13.28,4.648,25.3,16.011,39.6,17.463,15.077,1.531,31.937-7.238,42.034-17.883q.233-.246.462-.492" transform="translate(0 0)" fill="#fff"/>
        <path id="Trazado_1258869" data-name="Trazado 1258869" d="M171.123,143.2c21.76-23.418,15.6-51.473,3.551-77.972-6.152-13.532-10.153-27.38-15.54-41.1-2.482-6.321-5.767-12.507-10.819-17.046-14.442-12.972-33.154-2.216-47.648,4.671C78.1,24.033,50.993,30.992,31.215,47.847,15.947,60.859,2.089,84.934,9.983,105.348c3.9,10.094,12.728,17.66,22.486,22.338,17.639,8.456,38.142,9.98,56.562,16.427,13.28,4.648,25.3,16.011,39.6,17.463,15.077,1.531,31.937-7.238,42.034-17.883Q170.893,143.448,171.123,143.2Z" transform="translate(1.788 0.232)" fill="none" stroke="#c957bc" stroke-miterlimit="10" stroke-width="1"/>
        <g id="_03-designer" data-name="03-designer" transform="translate(54.999 36.701)">
          <path id="Trazado_1268524" data-name="Trazado 1268524" d="M64.051,27.24a1.45,1.45,0,0,1-.641-.151c-.267-.136-6.528-3.434-6.528-18.488H59.75c0,9.83,2.793,13.878,4.189,15.289l4.4-4.406A16.2,16.2,0,0,0,60.678,5.657L49.535,3.181a8.6,8.6,0,0,1-16.846,0L21.542,5.659a16.045,16.045,0,0,0-7.663,13.827l4.409,4.407c1.384-1.4,4.186-5.441,4.186-15.291h2.867c0,15.054-6.261,18.351-6.528,18.495a1.434,1.434,0,0,1-1.654-.27l-5.735-5.735A1.434,1.434,0,0,1,11,20.072,18.872,18.872,0,0,1,20.4,3.018a1.477,1.477,0,0,1,.33-.116L33.632.034a1.434,1.434,0,0,1,1.745,1.4,5.735,5.735,0,1,0,11.47,0,1.434,1.434,0,0,1,1.745-1.4L61.5,2.9a1.476,1.476,0,0,1,.33.116,18.872,18.872,0,0,1,9.4,17.054,1.434,1.434,0,0,1-.42,1.013L65.065,26.82a1.434,1.434,0,0,1-1.014.42Z" transform="translate(4.767 0)" fill="#752092"/>
          <path id="Trazado_1268525" data-name="Trazado 1268525" d="M36.736,13.9A5.573,5.573,0,0,1,31,8.169h1.434l1.434-.01a2.7,2.7,0,0,0,2.867,2.877c3.537,0,5.735-3.845,5.735-10.036h2.867C45.338,8.838,41.961,13.9,36.736,13.9Z" transform="translate(13.444 0.434)" fill="#752092"/>
          <path id="Trazado_1268526" data-name="Trazado 1268526" d="M31.6,13.9C26.376,13.9,23,8.838,23,1h2.867c0,6.191,2.2,10.036,5.735,10.036A2.7,2.7,0,0,0,34.47,8.169h2.867A5.573,5.573,0,0,1,31.6,13.9Z" transform="translate(9.975 0.434)" fill="#752092"/>
          <path id="Trazado_1268527" data-name="Trazado 1268527" d="M51.052,36.057H25.059A4.32,4.32,0,0,1,20.77,32,99.8,99.8,0,0,0,18.037,13.5l2.761-.773a100.569,100.569,0,0,1,2.833,19.086,1.449,1.449,0,0,0,1.434,1.373H51.058a1.449,1.449,0,0,0,1.434-1.373,100.57,100.57,0,0,1,2.822-19.083l2.761.773A99.8,99.8,0,0,0,55.342,32a4.32,4.32,0,0,1-4.29,4.059Z" transform="translate(7.823 5.52)" fill="#752092"/>
          <path id="Trazado_1268528" data-name="Trazado 1268528" d="M27,0H41.337V2.867H27Z" transform="translate(11.71)" fill="#752092"/>
          <path id="Trazado_1268529" data-name="Trazado 1268529" d="M87.456,62.072H4.3a4.3,4.3,0,0,1-4.3-4.3V46.3A4.3,4.3,0,0,1,4.3,42H87.456a4.3,4.3,0,0,1,4.3,4.3v11.47a4.3,4.3,0,0,1-4.3,4.3ZM4.3,44.867A1.434,1.434,0,0,0,2.867,46.3v11.47A1.434,1.434,0,0,0,4.3,59.2H87.456a1.434,1.434,0,0,0,1.434-1.434V46.3a1.434,1.434,0,0,0-1.434-1.434Z" transform="translate(0 18.216)" fill="#752092"/>
          <path id="Trazado_1268530" data-name="Trazado 1268530" d="M37.434,48.662a1.434,1.434,0,0,1-1.361-1.887l4.182-12.545a1.434,1.434,0,0,1,1.361-.981H45.8a1.434,1.434,0,0,1,1.434,1.434v2.748h2.748a1.434,1.434,0,0,1,1.434,1.434v4.181a1.434,1.434,0,0,1-.981,1.361L37.887,48.589a1.454,1.454,0,0,1-.453.073Zm5.214-12.545L39.7,44.962l8.845-2.948v-1.72H45.8a1.434,1.434,0,0,1-1.434-1.434V36.117Z" transform="translate(15.613 14.421)" fill="#752092"/>
          <path id="Trazado_1268531" data-name="Trazado 1268531" d="M0,0H2.867V5.914H0Z" transform="translate(54.113 56.391) rotate(-45)" fill="#752092"/>
          <path id="Trazado_1268532" data-name="Trazado 1268532" d="M49.6,51.544l-2.027-2.029,23-23a4.48,4.48,0,1,0-6.336-6.336l-23,23-2.029-2.027,23-23A7.349,7.349,0,0,1,72.6,28.544Z" transform="translate(17.005 6.939)" fill="#752092"/>
          <path id="Trazado_1268533" data-name="Trazado 1268533" d="M0,0H2.867V11.827H0Z" transform="translate(78.157 28.17) rotate(-45)" fill="#752092"/>
          <path id="Trazado_1268534" data-name="Trazado 1268534" d="M0,0H2.867V11.827H0Z" transform="translate(75.022 31.305) rotate(-45)" fill="#752092"/>
          <path id="Trazado_1268535" data-name="Trazado 1268535" d="M0,0H26.613V2.867H0Z" transform="translate(60.385 52.274) rotate(-45)" fill="#752092"/>
          <path id="Trazado_1268536" data-name="Trazado 1268536" d="M46.79,45.008c-.39-2.063-.773-3.794-1.167-5.292l2.773-.731c.411,1.564.809,3.359,1.211,5.49Z" transform="translate(19.787 16.908)" fill="#752092"/>
          <path id="Trazado_1268537" data-name="Trazado 1268537" d="M43.363,33.165a12.125,12.125,0,0,0-2.908-3.6L42,27.153a13.791,13.791,0,0,1,3.825,4.532,1.434,1.434,0,0,1,.206.74l-1.445.007Z" transform="translate(17.546 11.777)" fill="#752092"/>
          <path id="Trazado_1268538" data-name="Trazado 1268538" d="M18.414,50.137,15.6,49.61c3.417-18.244,9.592-22.293,9.852-22.458l1.523,2.437C26.935,29.607,21.55,33.4,18.414,50.137Z" transform="translate(6.766 11.776)" fill="#752092"/>
          <path id="Trazado_1268539" data-name="Trazado 1268539" d="M64.18,67.928H15.434A1.434,1.434,0,0,1,14,66.494c0-4.146.1-8.029.3-11.551l2.867.163c-.175,3.057-.272,6.4-.287,9.954H62.746c-.022-3.554-.119-6.9-.287-9.954l2.867-.163c.185,3.523.287,7.405.287,11.551A1.434,1.434,0,0,1,64.18,67.928Z" transform="translate(6.072 23.829)" fill="#752092"/>
          <path id="Trazado_1268540" data-name="Trazado 1268540" d="M20,31H51.542v2.867H20Z" transform="translate(8.674 13.445)" fill="#752092"/>
          <path id="Trazado_1268541" data-name="Trazado 1268541" d="M31,43h2.867v8.6H31Z" transform="translate(13.445 18.649)" fill="#752092"/>
          <path id="Trazado_1268542" data-name="Trazado 1268542" d="M36,43h2.867v5.735H36Z" transform="translate(15.614 18.649)" fill="#752092"/>
          <path id="Trazado_1268543" data-name="Trazado 1268543" d="M41,43h2.867v8.6H41Z" transform="translate(17.782 18.649)" fill="#752092"/>
          <path id="Trazado_1268544" data-name="Trazado 1268544" d="M46,43h2.867v5.735H46Z" transform="translate(19.951 18.649)" fill="#752092"/>
          <path id="Trazado_1268545" data-name="Trazado 1268545" d="M51,43h2.867v8.6H51Z" transform="translate(22.119 18.649)" fill="#752092"/>
          <path id="Trazado_1268546" data-name="Trazado 1268546" d="M56,43h2.867v5.735H56Z" transform="translate(24.288 18.649)" fill="#752092"/>
          <path id="Trazado_1268547" data-name="Trazado 1268547" d="M26,43h2.867v5.735H26Z" transform="translate(11.276 18.649)" fill="#752092"/>
          <path id="Trazado_1268548" data-name="Trazado 1268548" d="M21,43h2.867v8.6H21Z" transform="translate(9.108 18.649)" fill="#752092"/>
          <path id="Trazado_1268549" data-name="Trazado 1268549" d="M16,43h2.867v5.735H16Z" transform="translate(6.939 18.649)" fill="#752092"/>
          <path id="Trazado_1268550" data-name="Trazado 1268550" d="M11,43h2.867v8.6H11Z" transform="translate(4.771 18.649)" fill="#752092"/>
          <path id="Trazado_1268551" data-name="Trazado 1268551" d="M6,43H8.867v5.735H6Z" transform="translate(2.602 18.649)" fill="#752092"/>
          <path id="Trazado_1268552" data-name="Trazado 1268552" d="M1,50H85.589v2.867H1Z" transform="translate(0.434 21.685)" fill="#752092"/>
        </g>
      </g>
    </g>
  </g>
</svg>
