<svg xmlns="http://www.w3.org/2000/svg" xmlns:xlink="http://www.w3.org/1999/xlink" width="188" height="162.599" viewBox="0 0 188 162.599">
  <defs>
    <clipPath id="clip-path">
      <rect id="Rectángulo_454933" data-name="Rectángulo 454933" width="188" height="162.599" fill="none"/>
    </clipPath>
  </defs>
  <g id="Grupo_1204663" data-name="Grupo 1204663" transform="translate(-706 -7880.748)">
    <g id="Grupo_1204161" data-name="Grupo 1204161" transform="translate(706 7880.748)">
      <g id="Grupo_1203498" data-name="Grupo 1203498" clip-path="url(#clip-path)">
        <path id="Trazado_1258868" data-name="Trazado 1258868" d="M163.429,142.2c21.76-23.418,15.6-51.474,3.551-77.973-6.152-13.532-10.153-27.38-15.54-41.1-2.482-6.321-5.767-12.507-10.818-17.046C126.179-6.885,107.466,3.87,92.973,10.757,70.4,23.032,43.3,29.991,23.521,46.846,8.253,59.858-5.605,83.933,2.289,104.347c3.9,10.094,12.728,17.66,22.486,22.338,17.639,8.456,38.142,9.98,56.562,16.427,13.28,4.648,25.3,16.011,39.6,17.463,15.077,1.531,31.937-7.238,42.034-17.883q.233-.246.462-.492" transform="translate(0 0)" fill="#fff"/>
        <path id="Trazado_1258869" data-name="Trazado 1258869" d="M171.123,143.2c21.76-23.418,15.6-51.473,3.551-77.972-6.152-13.532-10.153-27.38-15.54-41.1-2.482-6.321-5.767-12.507-10.819-17.046-14.442-12.972-33.154-2.216-47.648,4.671C78.1,24.033,50.993,30.992,31.215,47.847,15.947,60.859,2.089,84.934,9.983,105.348c3.9,10.094,12.728,17.66,22.486,22.338,17.639,8.456,38.142,9.98,56.562,16.427,13.28,4.648,25.3,16.011,39.6,17.463,15.077,1.531,31.937-7.238,42.034-17.883Q170.893,143.448,171.123,143.2Z" transform="translate(1.788 0.232)" fill="none" stroke="#c957bc" stroke-miterlimit="10" stroke-width="1"/>
        <g id="diseno" transform="translate(39.642 36.253)">
          <path id="Trazado_1268507" data-name="Trazado 1268507" d="M95.63,7.826v-4a3.864,3.864,0,0,0-7.728,0v4h-6.44v-4a3.864,3.864,0,0,0-7.728,0v4h-6.44v-4a3.864,3.864,0,0,0-7.728,0v4h-6.44v-4a3.864,3.864,0,0,0-7.728,0v4h-6.44v-4a3.864,3.864,0,0,0-7.728,0v4H23.5v80.1H86.613V85.35H26.076V10.405h5.152v3.938a3.864,3.864,0,0,0,7.728,0V10.405H45.4v3.938a3.864,3.864,0,0,0,7.728,0V10.405h6.44v3.938a3.864,3.864,0,0,0,7.728,0V10.405h6.44v3.938a3.864,3.864,0,0,0,7.728,0V10.405H87.9v3.938a3.864,3.864,0,0,0,7.728,0V10.405h5.152V85.35h-6.44v2.579h9.016V7.826ZM36.38,14.344a1.288,1.288,0,0,1-2.576,0V3.826a1.288,1.288,0,0,1,2.576,0Zm14.168,0a1.288,1.288,0,0,1-2.576,0V3.826a1.288,1.288,0,0,1,2.576,0Zm14.168,0a1.288,1.288,0,0,1-2.576,0V3.826a1.288,1.288,0,0,1,2.576,0Zm14.168,0a1.288,1.288,0,0,1-2.576,0V3.826a1.288,1.288,0,0,1,2.576,0Zm14.168,0a1.288,1.288,0,0,1-2.576,0V3.826a1.288,1.288,0,0,1,2.576,0Z" transform="translate(0 0)" fill="#752092"/>
          <path id="Trazado_1268508" data-name="Trazado 1268508" d="M406,496.982h2.576v2.579H406Z" transform="translate(-316.811 -411.632)" fill="#752092"/>
          <path id="Trazado_1268509" data-name="Trazado 1268509" d="M248.758,158.484H266.79v2.579H248.758Z" transform="translate(-186.573 -131.267)" fill="#752092"/>
          <path id="Trazado_1268510" data-name="Trazado 1268510" d="M368.758,158.484h7.728v2.579h-7.728Z" transform="translate(-285.964 -131.267)" fill="#752092"/>
          <path id="Trazado_1268511" data-name="Trazado 1268511" d="M368.758,188.393h10.3v2.579h-10.3Z" transform="translate(-285.964 -156.039)" fill="#752092"/>
          <path id="Trazado_1268512" data-name="Trazado 1268512" d="M368.758,263.548h7.728v2.579h-7.728Z" transform="translate(-285.964 -218.287)" fill="#752092"/>
          <path id="Trazado_1268513" data-name="Trazado 1268513" d="M368.758,293.456h10.3v2.579h-10.3Z" transform="translate(-285.964 -243.059)" fill="#752092"/>
          <path id="Trazado_1268514" data-name="Trazado 1268514" d="M368.758,391.086h7.728v2.579h-7.728Z" transform="translate(-285.964 -323.922)" fill="#752092"/>
          <path id="Trazado_1268515" data-name="Trazado 1268515" d="M368.758,420.995h10.3v2.579h-10.3Z" transform="translate(-285.964 -348.695)" fill="#752092"/>
          <path id="Trazado_1268516" data-name="Trazado 1268516" d="M99.205,164.036v2.579h30.913v-2.579H114.681V151.129h-1.288a3.893,3.893,0,0,1-3.886-3.891V143.4H88.921v3.836a3.893,3.893,0,0,1-3.886,3.891H83.747V179.56a5.105,5.105,0,0,0,3.866,4.948v5.32H110.8v-5.315a5.1,5.1,0,0,0,3.884-4.952V169.081h-2.576V179.56a2.52,2.52,0,0,1-2.516,2.519H88.839a2.52,2.52,0,0,1-2.516-2.519V153.579a6.479,6.479,0,0,0,5.174-6.341v-1.257h2.649l5.068,7.423,5.07-7.423h2.647v1.257a6.479,6.479,0,0,0,5.174,6.341v10.457h-12.9Zm-9.016,23.213v-2.59h18.032v2.59Zm9.025-38.414-1.948-2.853h3.9Z" transform="translate(-49.9 -118.775)" fill="#752092"/>
          <path id="Trazado_1268517" data-name="Trazado 1268517" d="M256.374,391.086H273.1v2.579H256.374Z" transform="translate(-192.881 -323.922)" fill="#752092"/>
          <path id="Trazado_1268518" data-name="Trazado 1268518" d="M113.5,210.591h2.576v2.579H113.5Z" transform="translate(-74.544 -174.425)" fill="#752092"/>
          <path id="Trazado_1268519" data-name="Trazado 1268519" d="M143.5,210.591h2.576v2.579H143.5Z" transform="translate(-99.392 -174.425)" fill="#752092"/>
          <path id="Trazado_1268520" data-name="Trazado 1268520" d="M53.5,120.481h2.576v2.579H53.5Z" transform="translate(-24.848 -99.79)" fill="#752092"/>
          <path id="Trazado_1268521" data-name="Trazado 1268521" d="M83.747,120.481h2.576v2.579H83.747Z" transform="translate(-49.9 -99.79)" fill="#752092"/>
        </g>
      </g>
    </g>
  </g>
</svg>
