<svg xmlns="http://www.w3.org/2000/svg" width="107" height="107" viewBox="0 0 107 107">
  <g id="Grupo_1204659" data-name="Grupo 1204659" transform="translate(-293.441 -8664.508)">
    <g id="Grupo_1119617" data-name="Grupo 1119617" transform="translate(-47.059 -28.492)">
      <g id="Grupo_156312" data-name="Grupo 156312" transform="translate(51.832 4244.563)">
        <path id="Elipse_5845" data-name="Elipse 5845" d="M53.5,0A53.5,53.5,0,1,1,0,53.5,53.5,53.5,0,0,1,53.5,0Z" transform="translate(288.668 4448.437)" fill="#241138"/>
      </g>
      <g id="disenador-de-moda_1_" data-name="disenador-de-moda (1)" transform="translate(362.371 8714.63)">
        <path id="Trazado_1268563" data-name="Trazado 1268563" d="M59.415,10.182s.008-1.911.008-1.913c.011-2.7-2.368-4.384-4.874-4.39A4.477,4.477,0,0,0,50.03,8.23l-.008,1.908a.952.952,0,0,0-.031,1.9L49.81,55.093a.966.966,0,0,0,.162.538L53.7,61.2a.961.961,0,0,0,1.593.007q.656-.963,1.311-1.925c.68-1,1.365-1.992,2.038-2.994a2.346,2.346,0,0,0,.589-1.159l.179-43.052a.951.951,0,0,0,.008-1.9ZM54.5,58.952l-2.048-3.065a5.263,5.263,0,0,0,2.093-.682,7.063,7.063,0,0,0,2.025.7ZM51.95,8.24a2.329,2.329,0,0,1,.76-1.7,2.7,2.7,0,0,1,1.83-.74c1.46,0,2.97.79,2.96,2.46l-.01,1.9H51.95Zm5.36,3.82V54.09a5.263,5.263,0,0,1-1.82-.56l.16-38.38a.96.96,0,0,0-1.92-.01l-.16,38.4a3.712,3.712,0,0,1-1.83.48V12.06Z" fill="#fff"/>
        <g id="Grupo_1204353" data-name="Grupo 1204353">
          <g id="Grupo_1204351" data-name="Grupo 1204351">
            <path id="Trazado_1268564" data-name="Trazado 1268564" d="M33.621,27.306c-.18-7.707-1.486-11.449-1.542-11.608a.96.96,0,0,0-.9-.637H29.01a.961.961,0,0,0-.961.961v3.455a2.988,2.988,0,0,1-5.976,0V16.022a.961.961,0,0,0-.961-.961H18.948a.959.959,0,0,0-.9.637c-.057.158-1.362,3.9-1.542,11.608,0,.017-5.458,10.368-5.859,20.451a.968.968,0,0,0,.931,1h.038a.96.96,0,0,0,.959-.922c.373-9.394,4.7-17.776,5.553-19.352l.121.066a3.183,3.183,0,0,0,1.738.481c.944,0,1.652-.714,2.534-.715s1.591.715,2.536.715c.911,0,1.658-.714,2.534-.715s1.6.715,2.541.715A3.88,3.88,0,0,0,32,28.479c.856,1.573,5.18,9.957,5.553,19.354a.96.96,0,0,0,.959.922h.038a.961.961,0,0,0,.922-1C39.069,37.674,33.622,27.323,33.621,27.306Zm-3.491-.2c-.883,0-1.594-.715-2.54-.715s-1.654.714-2.534.715-1.591-.715-2.536-.715-1.653.714-2.534.715c-.566,0-1.011-.4-1.533-.567a44.275,44.275,0,0,1,1.212-9.559h.487v2.494a4.909,4.909,0,1,0,9.818,0V16.982h.487a44.273,44.273,0,0,1,1.212,9.558c-.532.168-.963.568-1.539.568Z" fill="#fff"/>
            <path id="Trazado_1268565" data-name="Trazado 1268565" d="M21.483,30.411a.96.96,0,0,0-1.256.517,48.6,48.6,0,0,0-3.293,16.867.961.961,0,0,0,1.922,0A47.584,47.584,0,0,1,22,31.667a.96.96,0,0,0-.517-1.256Z" fill="#fff"/>
            <path id="Trazado_1268566" data-name="Trazado 1268566" d="M28.641,30.411a.961.961,0,0,0-.517,1.256,47.584,47.584,0,0,1,3.144,16.128.961.961,0,0,0,1.922,0A48.6,48.6,0,0,0,29.9,30.928a.959.959,0,0,0-1.256-.517Z" fill="#fff"/>
            <path id="Trazado_1268567" data-name="Trazado 1268567" d="M26.022,47.795V31.3a.961.961,0,0,0-1.922,0v16.5a.961.961,0,0,0,1.922,0Z" fill="#fff"/>
          </g>
          <path id="Trazado_1268568" data-name="Trazado 1268568" d="M43.553,2.37H6.57A2.885,2.885,0,0,0,3.688,5.252V58.565A2.885,2.885,0,0,0,6.57,61.447H43.553a2.885,2.885,0,0,0,2.882-2.882V5.252A2.885,2.885,0,0,0,43.553,2.37Zm.961,56.194a.962.962,0,0,1-.961.961H6.57a.962.962,0,0,1-.961-.961V5.252a.962.962,0,0,1,.961-.961H43.553a.962.962,0,0,1,.961.961Z" fill="#fff"/>
          <g id="Grupo_1204352" data-name="Grupo 1204352">
            <path id="Trazado_1268569" data-name="Trazado 1268569" d="M27.767,53.215H22.356a2.445,2.445,0,0,0,0,4.891h5.411a2.445,2.445,0,0,0,0-4.891Zm0,2.969H22.356a.523.523,0,1,1,0-1.047h5.411a.523.523,0,1,1,0,1.047Z" fill="#fff"/>
            <path id="Trazado_1268570" data-name="Trazado 1268570" d="M21.113,8.134h7.9a.961.961,0,1,0,0-1.922h-7.9a.961.961,0,1,0,0,1.922Z" fill="#fff"/>
          </g>
        </g>
      </g>
    </g>
  </g>
</svg>
