<svg xmlns="http://www.w3.org/2000/svg" width="107" height="107" viewBox="0 0 107 107">
  <g id="Grupo_1204660" data-name="Grupo 1204660" transform="translate(-254.441 -8827.635)">
    <g id="Grupo_1119619" data-name="Grupo 1119619" transform="translate(-86.059 134.635)">
      <g id="Grupo_156312" data-name="Grupo 156312" transform="translate(51.832 4244.563)">
        <path id="Elipse_5845" data-name="Elipse 5845" d="M53.5,0A53.5,53.5,0,1,1,0,53.5,53.5,53.5,0,0,1,53.5,0Z" transform="translate(288.668 4448.437)" fill="#241138"/>
      </g>
      <g id="diseno_1_" data-name="diseno (1)" transform="translate(366.064 8714.643)">
        <path id="Trazado_1268571" data-name="Trazado 1268571" d="M95.836,83.373a1.481,1.481,0,0,0-.119.1.9.9,0,0,0-.488.8.894.894,0,0,0,.027.217,1.537,1.537,0,0,0,0,.192l1.214,14.276a1.5,1.5,0,0,0,1.5,1.379H121.5A1.508,1.508,0,0,0,123,98.837v-37.3a1.5,1.5,0,0,0-1.233-1.481,10.441,10.441,0,0,1-4.223-1.807,7.66,7.66,0,0,1-3.023-6.279,1.486,1.486,0,0,0-.635-1.191,1.517,1.517,0,0,0-1.346-.2L103.7,53.5a.9.9,0,0,0,.567,1.717l8.462-2.793a9.427,9.427,0,0,0,3.726,7.274c.053.04.107.077.16.116v1.636a.9.9,0,1,0,1.808,0v-.576a12.642,12.642,0,0,0,2.77.917v6.427h-2.147a.9.9,0,0,0-.622.249v-3.03a.9.9,0,1,0-1.808,0v3.987a.9.9,0,0,0,1.756.3.9.9,0,0,0,.674.3h2.147V83.411a.9.9,0,0,0,0,1.738V98.536h-2.77V97.33a.9.9,0,1,0-1.808,0v1.205H98.252L97.117,85.183h3.234a.9.9,0,0,0,0-1.808H98.436a9.429,9.429,0,0,0,2.211-6.53,10.056,10.056,0,0,0-3.88-6.822h1.19a.9.9,0,0,0,0-1.808H94.373l-3.15-8.694,7.715-2.546a.9.9,0,0,0-.567-1.717L90.361,57.9a1.506,1.506,0,0,0-.944,1.944L92.806,69.2c.016.044.034.088.054.13a.9.9,0,0,0,.58.643c.031.019.062.038.095.054.825.423,4.961,2.745,5.311,6.985a7.617,7.617,0,0,1-3.011,6.362Zm0,0" transform="translate(-78.106 -44.41)" fill="#fff"/>
        <path id="Trazado_1268572" data-name="Trazado 1268572" d="M282.543,301.749h-3.612a.9.9,0,1,0,0,1.808h3.612v.187a.9.9,0,0,0,1.808,0v-3.987a.9.9,0,0,0-1.808,0Zm0,0" transform="translate(-244.032 -262.783)" fill="#fff"/>
        <path id="Trazado_1268573" data-name="Trazado 1268573" d="M316.35,364.918a.9.9,0,0,0-.9.9v3.987a.9.9,0,0,0,1.808,0v-3.987A.9.9,0,0,0,316.35,364.918Zm0,0" transform="translate(-276.935 -320.876)" fill="#fff"/>
        <path id="Trazado_1268574" data-name="Trazado 1268574" d="M316.35,238.58a.9.9,0,0,0,.9-.9v-3.987a.9.9,0,0,0-1.808,0v3.987A.9.9,0,0,0,316.35,238.58Zm0,0" transform="translate(-276.935 -204.69)" fill="#fff"/>
        <path id="Trazado_1268575" data-name="Trazado 1268575" d="M193.418,197.242H189.2a.9.9,0,0,0,0,1.808h4.218a.9.9,0,0,0,0-1.808Zm0,0" transform="translate(-165.131 -173.437)" fill="#fff"/>
        <path id="Trazado_1268576" data-name="Trazado 1268576" d="M263.317,197.242H259.1a.9.9,0,0,0,0,1.808h4.218a.9.9,0,0,0,0-1.808Zm0,0" transform="translate(-226.594 -173.437)" fill="#fff"/>
        <path id="Trazado_1268577" data-name="Trazado 1268577" d="M208.133,323.755a.9.9,0,0,0,.9.9h4.218a.9.9,0,1,0,0-1.808h-4.218a.9.9,0,0,0-.9.9Zm0,0" transform="translate(-182.573 -283.886)" fill="#fff"/>
        <path id="Trazado_1268578" data-name="Trazado 1268578" d="M51.791,31.918a.9.9,0,0,0,.9-.9V1.868A1.87,1.87,0,0,0,50.827,0H8.961L8.915,0H8.886a.962.962,0,0,0-.116.017L8.751.026a.846.846,0,0,0-.1.029L8.625.066a.912.912,0,0,0-.107.05l-.01.006a.967.967,0,0,0-.09.06L8.393.2A.919.919,0,0,0,8.3.284L.746,8.308A.93.93,0,0,0,.671,8.4l-.016.023a1.041,1.041,0,0,0-.058.1L.59,8.537a.777.777,0,0,0-.039.094c0,.009-.007.017-.009.026a.863.863,0,0,0-.027.109c0,.007,0,.014,0,.02a.955.955,0,0,0-.01.1c0,.009,0,.018,0,.028s0,.011,0,.017v51a1.87,1.87,0,0,0,1.868,1.868H50.827a1.87,1.87,0,0,0,1.868-1.868V36.591a.9.9,0,0,0-1.808,0V59.926a.061.061,0,0,1-.06.06H2.368a.061.061,0,0,1-.06-.06V9.832H8.358A1.508,1.508,0,0,0,9.865,8.326V1.808H50.827a.06.06,0,0,1,.06.06V31.014a.9.9,0,0,0,.9.9ZM8.057,8.024H3.5l4.56-4.842Zm0,0" fill="#fff"/>
        <path id="Trazado_1268579" data-name="Trazado 1268579" d="M379.349,322.852h-1.772a.9.9,0,1,0,0,1.808h1.772a.9.9,0,0,0,0-1.808Zm0,0" transform="translate(-330.772 -283.887)" fill="#fff"/>
        <path id="Trazado_1268580" data-name="Trazado 1268580" d="M379.349,448.461h-1.772a.9.9,0,1,0,0,1.808h1.772a.9.9,0,0,0,0-1.808Zm0,0" transform="translate(-330.772 -394.336)" fill="#fff"/>
        <path id="Trazado_1268581" data-name="Trazado 1268581" d="M379.349,130.156h-1.772a.9.9,0,1,0,0,1.808h1.772a.9.9,0,0,0,0-1.808Zm0,0" transform="translate(-330.772 -114.447)" fill="#fff"/>
        <path id="Trazado_1268582" data-name="Trazado 1268582" d="M379.349,48.563h-1.772a.9.9,0,1,0,0,1.808h1.772a.9.9,0,0,0,0-1.808Zm0,0" transform="translate(-330.772 -42.701)" fill="#fff"/>
        <path id="Trazado_1268583" data-name="Trazado 1268583" d="M31.693,396.351h7.723a.9.9,0,1,0,0-1.808H31.693a.9.9,0,1,0,0,1.808Zm0,0" transform="translate(-26.633 -346.925)" fill="#fff"/>
        <path id="Trazado_1268584" data-name="Trazado 1268584" d="M31.693,423.308H37.2a.9.9,0,0,0,0-1.808H31.693a.9.9,0,1,0,0,1.808Zm0,0" transform="translate(-26.633 -370.629)" fill="#fff"/>
        <path id="Trazado_1268585" data-name="Trazado 1268585" d="M31.693,450.269H41.7a.9.9,0,1,0,0-1.808H31.693a.9.9,0,1,0,0,1.808Zm0,0" transform="translate(-26.633 -394.336)" fill="#fff"/>
      </g>
    </g>
  </g>
</svg>
