<svg xmlns="http://www.w3.org/2000/svg" width="107" height="107" viewBox="0 0 107 107">
  <g id="Grupo_1204661" data-name="Grupo 1204661" transform="translate(-293.441 -8979.571)">
    <g id="Grupo_1119618" data-name="Grupo 1119618" transform="translate(-47.059 286.571)">
      <g id="Grupo_156312" data-name="Grupo 156312" transform="translate(51.832 4244.563)">
        <path id="Elipse_5845" data-name="Elipse 5845" d="M53.5,0A53.5,53.5,0,1,1,0,53.5,53.5,53.5,0,0,1,53.5,0Z" transform="translate(288.668 4448.437)" fill="#241138"/>
      </g>
      <g id="diseno-de-moda_2_" data-name="diseno-de-moda (2)" transform="translate(321.352 8714.937)">
        <path id="Trazado_1268553" data-name="Trazado 1268553" d="M184.115,117.439a20.681,20.681,0,0,1-8.041,13.883,1.98,1.98,0,0,0-.784,1.574v19.381a1.976,1.976,0,0,0,1.974,1.974h22.284a1.976,1.976,0,0,0,1.974-1.974V139a1.958,1.958,0,0,0-.569-1.385c-3.527-3.569-6.075-11.078-6.817-20.086a1.985,1.985,0,0,0-1.967-1.813h-6.1a1.974,1.974,0,0,0-1.958,1.726Zm8.118.244c.777,9.441,3.529,17.394,7.362,21.272a.059.059,0,0,1,.017.042v13.281a.064.064,0,0,1-.064.064H177.264a.064.064,0,0,1-.064-.064V132.9a.06.06,0,0,1,.023-.048,22.6,22.6,0,0,0,8.787-15.173.062.062,0,0,1,.062-.051h6.1A.064.064,0,0,1,192.233,117.682Z" transform="translate(-115.697 -100.975)" fill="#fff"/>
        <path id="Trazado_1268554" data-name="Trazado 1268554" d="M303.986,364.355a.955.955,0,0,0,.955-.955v-1.551a.955.955,0,0,0-1.91,0V363.4A.955.955,0,0,0,303.986,364.355Z" transform="translate(-227.168 -314.928)" fill="#fff"/>
        <path id="Trazado_1268555" data-name="Trazado 1268555" d="M330.986,364.355a.955.955,0,0,0,.955-.955v-1.551a.955.955,0,0,0-1.91,0V363.4A.955.955,0,0,0,330.986,364.355Z" transform="translate(-250.729 -314.928)" fill="#fff"/>
        <path id="Trazado_1268556" data-name="Trazado 1268556" d="M396.64,152.34a.955.955,0,1,0,0,1.91h2.619a.955.955,0,1,0,0-1.91h-.354V117.622h.354a.955.955,0,1,0,0-1.91H396.64a.955.955,0,1,0,0,1.91h.354V152.34Z" transform="translate(-308.021 -100.974)" fill="#fff"/>
        <path id="Trazado_1268557" data-name="Trazado 1268557" d="M200.568,437.257a.955.955,0,0,0,.955-.955v-2.619a.955.955,0,1,0-1.91,0v.354H177.2v-.354a.955.955,0,1,0-1.911,0V436.3a.955.955,0,1,0,1.911,0v-.354h22.411v.354A.955.955,0,0,0,200.568,437.257Z" transform="translate(-115.698 -377.612)" fill="#fff"/>
        <path id="Trazado_1268558" data-name="Trazado 1268558" d="M141.007,35H127.716a1.466,1.466,0,0,0-1.465,1.465v4.9a1.466,1.466,0,0,0,1.465,1.465h13.291a1.466,1.466,0,0,0,1.465-1.465v-4.9A1.467,1.467,0,0,0,141.007,35Zm-.446,5.917h-12.4V36.912h12.4Z" transform="translate(-72.904 -30.544)" fill="#fff"/>
        <path id="Trazado_1268559" data-name="Trazado 1268559" d="M96.084,60.2a.955.955,0,0,0-.955.955V63.24a.064.064,0,0,1-.064.064H50.354a.064.064,0,0,1-.064-.064V28.445h2.581a3.231,3.231,0,0,0,2.8-4.847l-3.465-6A3.2,3.2,0,0,0,50.291,16.1V1.976a.064.064,0,0,1,.064-.064h2.91a.955.955,0,1,0,0-1.91h-2.91A1.976,1.976,0,0,0,48.38,1.976V16.145A3.2,3.2,0,0,0,46.609,17.6l-3.465,6a3.231,3.231,0,0,0,2.8,4.847H48.38v34.8a1.976,1.976,0,0,0,1.974,1.974H95.065a1.976,1.976,0,0,0,1.974-1.974V61.153A.955.955,0,0,0,96.084,60.2ZM44.8,25.874a1.307,1.307,0,0,1,0-1.321l3.465-6a1.32,1.32,0,0,1,2.287,0l3.465,6a1.321,1.321,0,0,1-1.144,1.981h-6.93a1.307,1.307,0,0,1-1.144-.66Z" transform="translate(0 -0.002)" fill="#fff"/>
        <path id="Trazado_1268560" data-name="Trazado 1268560" d="M193.377,8.928a.955.955,0,0,0-.28-.657L185.106.28A.963.963,0,0,0,184.45,0H154.06a.955.955,0,0,0,0,1.91h29.415V8.437A1.466,1.466,0,0,0,184.94,9.9h6.527V56.693a.955.955,0,0,0,1.911,0S193.377,8.934,193.377,8.928Zm-7.992-.937V3.262l4.73,4.73h-4.73Z" transform="translate(-96.338 0)" fill="#fff"/>
        <path id="Trazado_1268561" data-name="Trazado 1268561" d="M272.465,36.912h10.909a.955.955,0,1,0,0-1.91H272.465a.955.955,0,1,0,0,1.91Z" transform="translate(-199.662 -30.544)" fill="#fff"/>
        <path id="Trazado_1268562" data-name="Trazado 1268562" d="M272.465,66.912h9a.955.955,0,1,0,0-1.91h-9a.955.955,0,1,0,0,1.91Z" transform="translate(-199.662 -56.723)" fill="#fff"/>
      </g>
    </g>
  </g>
</svg>
