<svg xmlns="http://www.w3.org/2000/svg" xmlns:xlink="http://www.w3.org/1999/xlink" width="84" height="84" viewBox="0 0 84 84">
  <defs>
    <clipPath id="clip-path">
      <rect id="Rect치ngulo_455150" data-name="Rect치ngulo 455150" width="58.094" height="58.136" fill="#752092"/>
    </clipPath>
  </defs>
  <g id="Grupo_1204615" data-name="Grupo 1204615" transform="translate(-705 -332.053)">
    <g id="Grupo_1177230" data-name="Grupo 1177230" transform="translate(-1 -1346.867)">
      <g id="Grupo_1119665" data-name="Grupo 1119665" transform="translate(534.111 -3840.08)">
        <rect id="Rect치ngulo_402006" data-name="Rect치ngulo 402006" width="84" height="84" rx="5" transform="translate(171.889 5519)" fill="#cdbfdc"/>
      </g>
    </g>
    <g id="Grupo_1203989" data-name="Grupo 1203989" transform="translate(717.953 344.984)">
      <g id="Grupo_1203988" data-name="Grupo 1203988" clip-path="url(#clip-path)">
        <path id="Trazado_1260386" data-name="Trazado 1260386" d="M401.428,169.164a2.9,2.9,0,1,0-1.355-1.761,2.9,2.9,0,0,0,1.355,1.761m.613-3a.959.959,0,0,1,.589-.451.979.979,0,0,1,.251-.032.968.968,0,1,1-.84.484Z" transform="translate(-351.568 -143.926)" fill="#752092"/>
        <path id="Trazado_1260387" data-name="Trazado 1260387" d="M305.741,36.663a2.9,2.9,0,1,0-1.768,1.355,2.906,2.906,0,0,0,1.768-1.355m-1.677-.968a.928.928,0,1,1,.007-.01l-.007.011Z" transform="translate(-263.973 -28.395)" fill="#752092"/>
        <path id="Trazado_1260388" data-name="Trazado 1260388" d="M73.1,34.61,77.7,32.916a.968.968,0,0,0,.438-.324l5.741-7.583,5.533-1.483a6.6,6.6,0,0,0,.182.954,6.777,6.777,0,1,0,4.792-8.3h0l-8.417,2.256-.5-1.87a.968.968,0,0,0-1.185-.685.993.993,0,0,0-.115.039L81.58,16.972l2.286-3.961a.968.968,0,0,0-.662-1.437A4.838,4.838,0,1,1,88.278,9.24l-2.446,4.237a.969.969,0,0,0,1.678.968l2.445-4.237a6.8,6.8,0,1,0-8.383,2.9l-2.919,5.039L69.71,21.793a.967.967,0,0,0-.427.34l-4.357,6.179a.968.968,0,0,0,.791,1.527.934.934,0,0,0,.251-.034L80.836,25.82,76.77,31.194,73.7,32.322a10.49,10.49,0,0,0,.113-2.12.97.97,0,1,0-1.936.112,8.585,8.585,0,0,1-.817,4.175,10.9,10.9,0,0,0-.533,8.5L75.389,56.2H74.345a21.7,21.7,0,0,1-4.357-9.84.968.968,0,0,0-1.919.26c0,.019.006.038.01.058A23.6,23.6,0,0,0,71.951,56.2H69.5a21.7,21.7,0,0,1-4.357-9.84.968.968,0,0,0-1.919.26c0,.019.006.038.01.058A23.608,23.608,0,0,0,67.111,56.2H64.66a15.654,15.654,0,0,1-3.373-9.681.968.968,0,0,0-1.936,0,17.557,17.557,0,0,0,2.718,9.336,6.786,6.786,0,0,1-4.654-6.431v-8.39A10.592,10.592,0,0,0,56.3,36.319l-.838-1.677a8.616,8.616,0,0,1-.153-7.388,10.553,10.553,0,0,0,.506-7.1,6.265,6.265,0,0,0,1.6.228,5.809,5.809,0,0,0,5.445-3.517.968.968,0,0,0-1.8-.711,3.865,3.865,0,0,1-3.644,2.292,4.126,4.126,0,0,1-2.776-1.028h-.006l-.462-.77a8.563,8.563,0,0,1-.318-8.275l3.464-6.921A.969.969,0,1,0,55.585.583L52.122,7.5a10.49,10.49,0,0,0,.387,10.137l.542.9a8.646,8.646,0,0,1,.471,7.966,10.519,10.519,0,0,0,.208,9l.838,1.676a8.663,8.663,0,0,1,.91,3.845v8.39a8.723,8.723,0,0,0,8.713,8.713H76.778a.968.968,0,0,0,.908-1.3L72.341,42.324a8.978,8.978,0,0,1,.466-7c.111-.229.2-.477.292-.714M70.7,23.477l13.182-5.36.468,1.743a.968.968,0,0,0,.451.588.989.989,0,0,0,.735.1l9.352-2.507a4.858,4.858,0,1,1-3.569,4.3A.968.968,0,0,0,90.1,21.323L68.045,27.243Z" transform="translate(-44.829 0)" fill="#752092"/>
        <path id="Trazado_1260389" data-name="Trazado 1260389" d="M114.812,9.792l2.9,2.9a.968.968,0,0,0,1.369,0l2.9-2.9a.968.968,0,0,0,.276-.564l.863-6.9h1.452l3.195,6.383a8.56,8.56,0,0,1-.316,8.271,3.831,3.831,0,0,1-2.341,1.708,4.364,4.364,0,0,1-.909.1,3.865,3.865,0,0,1-3.644-2.292.968.968,0,0,0-1.8.711,5.809,5.809,0,0,0,5.445,3.517,6.336,6.336,0,0,0,1.31-.137,5.747,5.747,0,0,0,3.594-2.6A10.49,10.49,0,0,0,129.5,7.847L126.049.929a.968.968,0,0,0-.871-.535h-2.9a.968.968,0,0,0-.96.848l-.927,7.415L118.4,10.643l-1.985-1.986L115.7,2.945a.968.968,0,0,0-1.921.24l.756,6.045a.968.968,0,0,0,.276.562" transform="translate(-100.006 -0.346)" fill="#752092"/>
        <path id="Trazado_1260390" data-name="Trazado 1260390" d="M4.841,8.394H.968a.968.968,0,1,0,0,1.936h.968V28.725a.968.968,0,1,0,1.936,0V10.33h.968a.968.968,0,0,0,0-1.936" transform="translate(0 -7.378)" fill="#752092"/>
        <path id="Trazado_1260391" data-name="Trazado 1260391" d="M4.841,316.725H3.873V297.362a.968.968,0,1,0-1.936,0v19.363H.968a.968.968,0,1,0,0,1.936H4.841a.968.968,0,1,0,0-1.936" transform="translate(0 -260.525)" fill="#752092"/>
        <path id="Trazado_1260392" data-name="Trazado 1260392" d="M4.841,200.394H.968a.968.968,0,1,0,0,1.936H4.841a.968.968,0,1,0,0-1.936" transform="translate(0 -176.143)" fill="#752092"/>
        <path id="Trazado_1260393" data-name="Trazado 1260393" d="M3.873,232.394H1.936A1.936,1.936,0,0,0,0,234.33v1.936A1.936,1.936,0,0,0,1.936,238.2H3.873a1.936,1.936,0,0,0,1.936-1.936V234.33a1.936,1.936,0,0,0-1.936-1.936M1.936,234.33H3.873v1.936H1.936Z" transform="translate(0 -204.27)" fill="#752092"/>
        <path id="Trazado_1260394" data-name="Trazado 1260394" d="M304.458,303.815a.968.968,0,0,0-.968.968v4.91H289.936V290.33h10.65a.968.968,0,0,0,0-1.936H288.968a.968.968,0,0,0-.968.968v21.3a.968.968,0,0,0,.968.968h15.49a.968.968,0,0,0,.968-.968v-5.879a.968.968,0,0,0-.968-.968" transform="translate(-253.147 -253.493)" fill="#752092"/>
        <path id="Trazado_1260395" data-name="Trazado 1260395" d="M339.266,258.508a2.9,2.9,0,0,0-5.325-.7l-.968,1.677L326.2,271.222a1,1,0,0,0-.069.2c-.01.031-.034.055-.041.087l-1.065,5.228h-1.149v-2.959a.968.968,0,0,0-1.936,0v2.956h-.968a.968.968,0,0,0,0,1.936h4.841a.968.968,0,0,0,.642-.244l4.586-4.067c.006,0,.011-.013.016-.018a.864.864,0,0,0,.063-.071.942.942,0,0,0,.1-.121.34.34,0,0,0,.022-.03l6.777-11.738.968-1.677a2.879,2.879,0,0,0,.286-2.2m-3.055-.184a.968.968,0,0,1,1.088,1.418l-.484.838-1.678-.968.484-.838a.968.968,0,0,1,.587-.45Zm-8.5,14.892,1.027.593-1.4,1.244Zm2.324-.9-.838-.484-.838-.484,5.809-10.06.838.484.838.484Z" transform="translate(-281.274 -225.327)" fill="#752092"/>
        <path id="Trazado_1260396" data-name="Trazado 1260396" d="M322.9,334.2a.968.968,0,0,0,.968-.968v-2.9h.968a.968.968,0,0,0,0-1.936h-3.873a.968.968,0,0,0,0,1.936h.968v2.9a.968.968,0,0,0,.968.968" transform="translate(-281.274 -288.652)" fill="#752092"/>
      </g>
    </g>
  </g>
</svg>
