<svg xmlns="http://www.w3.org/2000/svg" xmlns:xlink="http://www.w3.org/1999/xlink" width="402.955" height="581.999" viewBox="0 0 402.955 581.999">
  <defs>
    <clipPath id="clip-path">
      <rect id="Rectángulo_407269" data-name="Rectángulo 407269" width="402.955" height="581.999" fill="none"/>
    </clipPath>
  </defs>
  <g id="Grupo_1204657" data-name="Grupo 1204657" transform="translate(-290 -1890.885)">
    <g id="Grupo_1113593" data-name="Grupo 1113593" transform="translate(290 1890.886)">
      <g id="Enmascarar_grupo_1113592" data-name="Enmascarar grupo 1113592" transform="translate(0 -0.001)" clip-path="url(#clip-path)">
        <path id="Trazado_896531" data-name="Trazado 896531" d="M992.2,30.707c-2.017-17.009,3.644-29.266,24.186-29.16,19.944.1,25.858,13.116,23.9,29.112,4.162-.882-.045,8.147-.223,8.967-.458,2.039-.915,9.808-4.318,9.123-.334,3.718-1.156,8.136-2.593,9.808-2.467,3.11-6.482,6.153-9.474,8.916-3.263,3.009-10.416,3.318-13.722.288-3.238-2.715-7.468-5.59-10.236-8.782-1.487-1.694-2.427-6.372-2.638-10.2-3.252.324-4.338-7.16-4.786-9.155-.188-.839-3.057-9.988-.093-8.925" transform="translate(-683.709 -1.067)" fill="#72688d" fill-rule="evenodd"/>
        <path id="Trazado_896532" data-name="Trazado 896532" d="M993.362,692.028c-2.017-17.009,3.642-29.266,24.186-29.16,19.944.1,25.858,13.115,23.9,29.112,4.162-.882-.043,8.147-.223,8.967-.457,2.039-.915,9.808-4.318,9.123-.334,3.718-1.155,8.136-2.594,9.808-2.465,3.11-6.481,6.153-9.474,8.916-3.263,3.009-10.416,3.318-13.721.288-3.238-2.715-7.468-5.589-10.236-8.782-1.487-1.694-2.427-6.372-2.638-10.2-3.252.324-4.338-7.16-4.786-9.155-.188-.839-3.057-9.988-.093-8.925" transform="translate(-684.51 -457.387)" fill="#72688d" fill-rule="evenodd"/>
        <path id="Trazado_896533" data-name="Trazado 896533" d="M990.4,251.131c-2.017-17.009,3.642-29.266,24.186-29.16,19.944.1,25.858,13.116,23.9,29.112,4.162-.882-.043,8.147-.223,8.967-.458,2.039-.915,9.808-4.318,9.123-.334,3.718-1.155,8.136-2.594,9.808-2.465,3.11-6.481,6.153-9.474,8.916-3.263,3.009-10.416,3.318-13.722.288-3.232-2.715-7.468-5.59-10.235-8.782-1.487-1.694-2.427-6.372-2.638-10.2-3.252.324-4.338-7.16-4.786-9.155-.188-.838-3.057-9.988-.093-8.925" transform="translate(-682.465 -153.163)" fill="#72688d" fill-rule="evenodd"/>
        <path id="Trazado_896534" data-name="Trazado 896534" d="M991.561,912.451c-2.017-17.009,3.642-29.266,24.186-29.16,19.944.1,25.858,13.116,23.9,29.112,4.162-.882-.045,8.147-.229,8.967-.457,2.039-.914,9.808-4.317,9.123-.334,3.718-1.156,8.136-2.594,9.808-2.465,3.11-6.481,6.153-9.474,8.917-3.263,3.009-10.416,3.318-13.723.287-3.232-2.715-7.468-5.588-10.235-8.78-1.487-1.694-2.427-6.372-2.638-10.2-3.252.324-4.338-7.16-4.786-9.155-.188-.839-3.057-9.988-.092-8.925" transform="translate(-683.267 -609.481)" fill="#72688d" fill-rule="evenodd"/>
        <path id="Trazado_896535" data-name="Trazado 896535" d="M994.523,1353.347c-2.017-17.009,3.642-29.266,24.186-29.16,19.944.1,25.858,13.116,23.9,29.112,4.162-.882-.045,8.147-.223,8.967-.458,2.038-.915,9.808-4.318,9.123-.334,3.718-1.155,8.136-2.594,9.808-2.465,3.11-6.481,6.153-9.474,8.917-3.263,3.009-10.416,3.318-13.722.286-3.232-2.715-7.468-5.59-10.235-8.782-1.487-1.693-2.427-6.372-2.638-10.195-3.252.324-4.338-7.16-4.785-9.155-.188-.838-3.057-9.988-.093-8.925" transform="translate(-685.311 -913.705)" fill="#72688d" fill-rule="evenodd"/>
        <path id="Trazado_896536" data-name="Trazado 896536" d="M991.88,471.579c-2.017-17.009,3.643-29.266,24.186-29.16,19.944.1,25.858,13.116,23.9,29.112,4.163-.882-.045,8.147-.223,8.967-.457,2.037-.915,9.808-4.317,9.123-.334,3.718-1.156,8.136-2.594,9.808-2.465,3.11-6.481,6.153-9.474,8.916-3.263,3.009-10.416,3.318-13.723.288-3.238-2.715-7.468-5.59-10.235-8.782-1.487-1.694-2.427-6.372-2.638-10.2-3.252.324-4.338-7.16-4.785-9.155-.188-.839-3.057-9.988-.093-8.925" transform="translate(-683.488 -305.274)" fill="#72688d" fill-rule="evenodd"/>
        <path id="Trazado_896537" data-name="Trazado 896537" d="M993.042,1132.9c-2.017-17.009,3.643-29.266,24.186-29.159,19.944.1,25.858,13.115,23.9,29.112,4.162-.882-.045,8.147-.223,8.967-.457,2.038-.915,9.808-4.317,9.123-.334,3.718-1.156,8.136-2.594,9.808-2.465,3.11-6.481,6.153-9.474,8.916-3.263,3.009-10.415,3.318-13.722.288-3.238-2.715-7.468-5.59-10.236-8.782-1.487-1.694-2.427-6.372-2.638-10.2-3.252.324-4.338-7.16-4.786-9.155-.188-.839-3.057-9.988-.093-8.925" transform="translate(-684.289 -761.594)" fill="#72688d" fill-rule="evenodd"/>
        <path id="Trazado_896538" data-name="Trazado 896538" d="M996.006,1573.8c-2.017-17.009,3.642-29.266,24.186-29.16,19.944.1,25.858,13.116,23.9,29.112,4.162-.882-.043,8.147-.223,8.967-.457,2.039-.915,9.808-4.317,9.123-.334,3.718-1.156,8.136-2.594,9.808-2.465,3.11-6.481,6.153-9.474,8.917-3.263,3.009-10.416,3.318-13.722.286-3.232-2.715-7.468-5.589-10.235-8.782-1.487-1.693-2.427-6.372-2.638-10.2-3.252.325-4.338-7.16-4.786-9.155-.188-.838-3.057-9.988-.093-8.924" transform="translate(-686.334 -1065.817)" fill="#72688d" fill-rule="evenodd"/>
        <path id="Trazado_896540" data-name="Trazado 896540" d="M217.529,52.277c.308,1.987,1.257,4.485,1.633,6.61.751,4.252.607,8.2,4.139,8.5.312,2.7,1.5,8.326,3.165,10.2,3.2,3.509,6.837,6.019,10.365,8.916,3.172,2.607,8.727,2.853,11.9.169,3.356-2.837,7.143-5.085,10.17-8.637,2.118-2.6,2.763-7.716,3.1-10.647,3.268.09,3.567-7.124,4.084-9.222.642-2.531,1.37-5.127,1.5-5.926.362-2.278-.393-2.916-2.229-1.895a9.26,9.26,0,0,0-1.677,3.8c-.312-5.636-4.584-21.728-10.124-24.137-6.417,5.35-13.644,5.843-20.3,14.52a29.192,29.192,0,0,0-1.653,6.343,23,23,0,0,1,.166-4.032A39.42,39.42,0,0,0,227,62.909a30.985,30.985,0,0,1,4.979-19.373c3.567-7.83,8.07-11.034,15.684-12.991-19.514,2.971-22.754,29.61-22.784,39.777-.5-6.262-1.115-12.642.495-19.88-2.407,6.566-2.279,8.662-1.865,15.765-2.286-5.8-1.183-12.98-3.567-15.88-1.966-1-2.752-.231-2.416,1.945m30.293-20.439A38.041,38.041,0,0,0,235.13,40.29a20.44,20.44,0,0,1,12.691-8.457" transform="translate(-150.046 -20.715)" fill="#ffcb93" fill-rule="evenodd"/>
        <path id="Trazado_896541" data-name="Trazado 896541" d="M81.267,200.925c1.257,21.8-5.14,23.379-25.393,27.307-9.833-1.108-20.478,2.179-24,7.674-6.4,9.989-3.389,27.376-4.255,38.943-1.28,17.086-.738,34.84-3.213,52.145-8,17.758-5.506,43.366-11.2,63.831-.207.749-1.449,2.118-1.926,3.256-.465,1.1-.245,2.85-.458,4.251-.512,3.358-6.229,12.885-8.64,15.7-3.091,3.6-2.483,4.848-.728,8.892,1.129,2.6,1.592,5.261,2.683,7.919,1.434,3.506,1.908,3.224,5.139,4.587,1.253,1.606,2.321,3.4,3.584,5.05,2.414,3.149,3.411,0,2.9-2.1,2.859,1.56,5.376.98,3.3-2.675a5.582,5.582,0,0,0-5.068-2.667,8.257,8.257,0,0,0-3.068-2.987c.592-1.963.164-5.819-1.383-7.285a7.46,7.46,0,0,0,1.8-4.816,10.7,10.7,0,0,0,2.367-.389c.771,3.749-1.216,7.511-.971,10.907.194,2.72,2.572,6.229,3.962.845,1.573-6.116,6.327-12.5,7.111-17.969.7-4.9-1.627-9.981-.912-14.987,3.448-24.12,14.824-39.4,18.619-65.343,3.455-18.581,3.69-47.344,6.827-66.058,1.648,13.506,11.529,54.876,10.131,65.912-3.419,27-21.317,45.92-19.867,80.727,1.713,41.079,24.128,79.022,22.267,120.707-.669,14.887-6.4,28.965-6.2,43.334.373,25.765,18.613,58.49,19.17,86.206.081,4.107-4,6.421-1.093,10.183-2.563,11.22-3.968,18.988-6.8,30.144-1.742,2.105-3.806,5.01-.669,6.981a2.352,2.352,0,0,0,2.771,2.786,2.386,2.386,0,0,0,2.6,2.105A2.6,2.6,0,0,0,73.3,716.2a4.131,4.131,0,0,0,3.51,4.242c4.508,1,6.2-3.224,8.088-6.3,2.763-4.5,3.7-4.143,3.555-10.309-.275-11.916-1.1-19.528-.019-31.493,2.753-4.288,1.1-5.748.1-10.1-6.255-27.372.363-57.051-1.394-85.844-.509-8.359-3.8-20.454-2.871-28.032,1.086-8.851,4.512-15.69,4.329-25.345-.7-36.808,4.741-75.323.708-111.79a12.683,12.683,0,0,0,6.148.039c-2.539,38.1,2.773,74.751.446,111.969-.465,7.435,3.062,17.237,3.217,25.162.165,8.448-1.277,17.7-1.56,26.323-1.045,31.536,9.211,56.986.82,87.485-1.183,4.3-2.966,5.756-.8,10.271-.622,11.645-2.294,20.7-3.112,32.349-.282,4.034,1.319,5.34,2.467,8.582,1.043,2.955.374,5.722,4.235,6.895,2.485.755,5.746-.488,6.045-3.327a2.683,2.683,0,0,0,2.887-1.739,2.287,2.287,0,0,0,3.3-1.56,2.668,2.668,0,0,0,2.7-1.665c3.272-1.41,1.663-4.355.412-6.427-1.729-8.934-4.382-23.878-3.9-32.634,3.921-4.64-.64-7.187.057-11.257,5.7-33.291,15.639-52.137,17.061-86.649.577-14.059-7.656-32.108-6.478-43.2,4.073-38.373,24.14-81.186,25.808-120.114,1.568-36.619-18-53.56-22.58-80.917-1.839-10.978,8.477-53.867,10.422-64.784.75,20.9,1.845,45.266,4.534,64.323,3.438,26.749,15.927,44.293,19.085,65.606.892,5.992-1.924,10.844-.917,15.839.945,4.687,4.541,7.637,5.223,13.415a5.827,5.827,0,0,0-3.16,2.4,4.41,4.41,0,0,0-4.189,3.713c-2.042,2.014-2.563,4.635,1.107,4.124-.416,1.664,1.449,1.686,2.581,1.546,3.394-.421,6.765-1.1,10.149-1.619,3.344-.509,3.178-1.806,3.924-4.585.9-3.161,1.984-6.071,3.02-9.154.743-2.219,2.218-3.212,2.445-5.941.194-2.444-1.3-3.513-2.191-5.4-2.018-4.243-4.129-8.463-6.019-12.759-.374-.852-.023-2.222-.28-3.173-.266-.984-1.181-1.656-1.337-2.563-3.443-20.566-4.63-46.967-12.873-64.961-1.151-16.434.409-35.777-.752-52.152-1.045-14.733,3.163-30.354-3.789-39.15-3.779-4.784-12.394-7.752-24.012-7.325-19.887-4.884-25.551-6.758-24.831-27.364-8.569,6.226-11.864,10.044-23.352.067m88.872,223.831a31.963,31.963,0,0,1-.478-8.3,6.923,6.923,0,0,0,1.527,1.732,12.077,12.077,0,0,0-.557,5.7c-.171.28-.334.573-.487.874" transform="translate(0 -138.594)" fill="#ffcb93" fill-rule="evenodd"/>
        <path id="Trazado_896542" data-name="Trazado 896542" d="M272.733,173.206c2.516,2.7,3.99,4.044,8.04,3.985,4.282-.064,5.285-.906,8.025-3.987-2.779-.536-4.537-1.79-6.5-1.909-.611-.036-.964.473-1.594.478s-1.088-.415-1.574-.417c-1.895-.011-3.161,1.735-6.4,1.85" transform="translate(-188.189 -118.194)" fill="#ea6d6e" fill-rule="evenodd"/>
        <path id="Trazado_896543" data-name="Trazado 896543" d="M272.987,107a2.4,2.4,0,0,1,.577-.1c1.418-.022,2.87.408,4.22.267a6.321,6.321,0,0,0,3.43-1.661c-2.851-1.551-5.7-2.186-8.471.481a1.561,1.561,0,0,0,.245,1m-11.961-1c-2.776-2.668-5.62-2.034-8.471-.483a6.318,6.318,0,0,0,3.429,1.661c1.349.142,2.8-.29,4.22-.267a2.413,2.413,0,0,1,.576.1,1.567,1.567,0,0,0,.245-1" transform="translate(-174.265 -71.875)" fill="#fff" fill-rule="evenodd"/>
        <path id="Trazado_896544" data-name="Trazado 896544" d="M262.766,101.874a1.88,1.88,0,1,0,1.331.551,1.881,1.881,0,0,0-1.331-.551m19.855-.047a1.88,1.88,0,1,0,1.331.551,1.881,1.881,0,0,0-1.331-.551" transform="translate(-180.014 -70.262)" fill="#5e5734" fill-rule="evenodd"/>
        <path id="Trazado_896545" data-name="Trazado 896545" d="M283,102.378a1.71,1.71,0,1,0,1.71,1.711,1.71,1.71,0,0,0-1.71-1.711m-19.855.047a1.71,1.71,0,1,0,1.71,1.71,1.71,1.71,0,0,0-1.71-1.71" transform="translate(-180.394 -70.642)" fill="#8f844d" fill-rule="evenodd"/>
        <path id="Trazado_896546" data-name="Trazado 896546" d="M166.158,439.569l3.226,15.843c24.056,9.84,27.549.319,37.756.573,10.69.265,16.267,7.45,38.139-1.249l3.393-15.132c-19.834,8.036-62.838,7.791-82.513-.029" transform="translate(-114.651 -303.308)" fill="#2e2e2d" fill-rule="evenodd"/>
        <path id="Trazado_896547" data-name="Trazado 896547" d="M248.743,681.725c-1.8-4.387-7.678-17.338-9.336-21.511-21.8,3.584-52.772,2.931-69.875-.032-2.635,8.034-6.075,16.808-7.8,21.277,10.588,7.453,28.323,30.873,39.171,46.712a12.711,12.711,0,0,0,6.148.039c16.13-19.27,32.34-38.255,41.684-46.488" transform="translate(-111.597 -455.537)" fill="#2e2e2d" fill-rule="evenodd"/>
        <path id="Trazado_896548" data-name="Trazado 896548" d="M293.469,394.241c-2.907,3.949-3.826,12.288-2.481,18.712-.092-5.427-.731-11.257,2.481-18.712m-8.359-.041c2.923,3.972,3.842,12.372,2.467,18.81.139-6.024,1.128-9.362-2.467-18.81" transform="translate(-196.731 -272.002)" fill="#161615" fill-rule="evenodd"/>
        <path id="Trazado_896549" data-name="Trazado 896549" d="M169.975,318.654c14.586,3.623,26.192,6.415,34.685,22.1a2.657,2.657,0,0,1-.02,2.589c-6.344,17.937-35.745,14.347-39.318-7.394a27.036,27.036,0,0,1,2.771-17.087c-.067-9.232-.2-20.23-.184-29.456l1.783.065c-.017,9.24.236,19.951.288,29.184m72.839.018c-11.546,3.623-26.659,7.335-34.719,22.079-.537.981-.245,1.423.147,2.5,6.471,17.771,35.038,13.307,39.576-7.311,1.314-5.974-.052-10.547-3.131-16.718.067-9.231.376-20.6.357-29.82l-1.783.065c.017,9.24-.4,19.975-.446,29.21" transform="translate(-113.815 -199.687)" fill="#161615" fill-rule="evenodd"/>
        <path id="Trazado_896550" data-name="Trazado 896550" d="M254.867,96.365a6.241,6.241,0,0,0,.3-1.917,4.516,4.516,0,0,1-.205.933,2.348,2.348,0,0,0-.26-1.714,2.486,2.486,0,0,1,.156,1.164,3.3,3.3,0,0,0-.4-1.157,3.249,3.249,0,0,1,.13,1.315,2.021,2.021,0,0,0-.642-1.467,1.456,1.456,0,0,1,.367.967,2.318,2.318,0,0,0-1.481-1.076,1.9,1.9,0,0,1,.814.62,20.154,20.154,0,0,0-7.162-.88,3.491,3.491,0,0,0-1.049.374c-.065.033.278-.067.572-.05a6.166,6.166,0,0,0-3.407,2.039,7.579,7.579,0,0,1,2.452-1.115c-.1.1-.167.136-.263.241,2.654-1.2,6.088-.068,8.745.98a3.212,3.212,0,0,0-.883-.69,2.852,2.852,0,0,1,1.066.78,9.838,9.838,0,0,1,1.018.613,4.4,4.4,0,0,0,.019-.835,3.981,3.981,0,0,1,.121.877m10.219,0a6.242,6.242,0,0,1-.3-1.917,4.518,4.518,0,0,0,.205.933,2.351,2.351,0,0,1,.26-1.714,2.485,2.485,0,0,0-.157,1.164,3.3,3.3,0,0,1,.4-1.157,3.254,3.254,0,0,0-.13,1.315,2.022,2.022,0,0,1,.642-1.467,1.457,1.457,0,0,0-.367.967,2.321,2.321,0,0,1,1.481-1.076,1.9,1.9,0,0,0-.814.62,20.154,20.154,0,0,1,7.162-.88,3.474,3.474,0,0,1,1.049.374,5.677,5.677,0,0,0-.572-.05,6.165,6.165,0,0,1,3.407,2.039,7.58,7.58,0,0,0-2.452-1.115c.1.1.167.136.263.241-2.654-1.2-6.088-.068-8.745.98a3.211,3.211,0,0,1,.883-.69,2.849,2.849,0,0,0-1.065.78,9.741,9.741,0,0,0-1.018.612,4.381,4.381,0,0,1-.019-.835,3.981,3.981,0,0,0-.121.877" transform="translate(-167.392 -64.219)" fill="#170d00" fill-rule="evenodd"/>
        <path id="Trazado_896551" data-name="Trazado 896551" d="M258.466,101.5a6.821,6.821,0,0,0-9.729.545,7.269,7.269,0,0,1,9.729-.545" transform="translate(-171.632 -68.805)" fill="#161615" fill-rule="evenodd"/>
        <path id="Trazado_896552" data-name="Trazado 896552" d="M246.39,103.035c1.635,1.548,2.841,2.533,5.149,2.755,1.632.156,2.957-.354,4.433-.362.415,0,1.29.124,1.488-.153-.39.223-.907-.031-1.481-.04-2.85-.043-4.436,1.439-7.821-1.466l.081-.036a6.242,6.242,0,0,0,3.49,1.729,13.572,13.572,0,0,0,2.861-.223c.458-.057.925-.08,1.362-.1.41-.016,1.258.359,1.457.081-.422.217-.892-.12-1.457-.129-1.417-.023-2.87.408-4.219.267A6.312,6.312,0,0,1,248.3,103.7c2.97-1.616,5.933-2.237,8.818.834.223.239.459.486.346.728.159-.166-.043-.479-.243-.808a5.551,5.551,0,0,0-4.719-2.908c-3.189.089-4.736,2.11-6.113,1.485" transform="translate(-170.013 -70.07)" fill="#161615" fill-rule="evenodd"/>
        <path id="Trazado_896553" data-name="Trazado 896553" d="M279.286,109.941a1.577,1.577,0,0,1-.263,1.076l.093.025a1.259,1.259,0,0,0,.244-1.018Z" transform="translate(-192.529 -75.86)" fill="#161615" fill-rule="evenodd"/>
        <path id="Trazado_896554" data-name="Trazado 896554" d="M255.91,112.815a7.059,7.059,0,0,1-.09.716c.008-.263.012-.5.013-.712Zm3.077-.369a2.631,2.631,0,0,1,.148.459c-.087-.172-.164-.321-.239-.452Zm-.531.053a2.548,2.548,0,0,1,.144.714,7.4,7.4,0,0,0-.244-.7Zm-1.176.175a2.3,2.3,0,0,1-.062.817,6.072,6.072,0,0,0-.038-.8Zm.591-.093a2.457,2.457,0,0,1,.035.844,6.563,6.563,0,0,0-.137-.827Zm-1.317.187a2.6,2.6,0,0,1-.039.809c-.012-.283-.025-.572-.038-.8Zm-3.082-.292a1.783,1.783,0,0,0-.25.682,2.388,2.388,0,0,1,.334-.654Zm.484.135a2.479,2.479,0,0,0-.085.736,6.231,6.231,0,0,1,.181-.714Zm1.176.185a1.773,1.773,0,0,0-.006.747,2.02,2.02,0,0,1,.075-.741Zm-.6-.071a2.445,2.445,0,0,0-.009.772,2.242,2.242,0,0,1,.111-.758Zm-2.675-1.034a1.574,1.574,0,0,0-.408.605,1.812,1.812,0,0,1,.49-.551Zm1.049.575a1.389,1.389,0,0,0-.207.683,1.8,1.8,0,0,1,.3-.645Zm-.545-.269a1.449,1.449,0,0,0-.293.7,1.894,1.894,0,0,1,.381-.654Z" transform="translate(-173.509 -77.072)" fill="#161615" fill-rule="evenodd"/>
        <path id="Trazado_896555" data-name="Trazado 896555" d="M250.449,100.884a1.535,1.535,0,0,1-.606-.711,2.422,2.422,0,0,0,.693.677Zm-2.216.922a1.491,1.491,0,0,1-.641-.446,2.477,2.477,0,0,0,.795.4Zm.7-.25.119-.051a2.675,2.675,0,0,1-.935-.422,1.654,1.654,0,0,0,.816.473m1.069-.479.087-.039a1.139,1.139,0,0,1-.724-.565.78.78,0,0,0,.638.6m-.508.23a1.321,1.321,0,0,1-.8-.641,1.684,1.684,0,0,0,.914.591Zm1.413-.6.086-.031a2.241,2.241,0,0,1-.63-.753,1.486,1.486,0,0,0,.544.78m1-.3a1.058,1.058,0,0,1-.14-.768,2.089,2.089,0,0,0,.245.745Zm-.534.143a1.226,1.226,0,0,1-.319-.82,2.351,2.351,0,0,0,.42.791Z" transform="translate(-170.841 -68.755)" fill="#161615" fill-rule="evenodd"/>
        <path id="Trazado_896556" data-name="Trazado 896556" d="M273.478,173.152c2.858-.212,3.939-1.692,5.887-1.631.685.021,1.307.48,1.753.475.471-.007.853-.5,1.644-.47,1.569.06,3.38,1,6.041,1.582-2.617-.71-4.318-1.762-6.036-1.854-.8-.042-1.173.474-1.672.469-.446,0-1-.413-1.706-.425-1.825-.03-3.1,1.44-5.907,1.854m15.419.283c-2.329,2.695-4.57,3.328-7.777,3.335a10.7,10.7,0,0,1-7.913-3.435c2.436,2.726,4.158,3.826,7.893,3.826,3.609.028,5.721-.826,7.8-3.726" transform="translate(-188.517 -118.166)" fill="#161615" fill-rule="evenodd"/>
        <path id="Trazado_896557" data-name="Trazado 896557" d="M271.92,161.216c-3.027,3.551-6.813,5.8-10.17,8.636-3.175,2.685-8.729,2.438-11.9-.169-3.532-2.9-7.171-5.411-10.365-8.916-1.129-1.275-2.109-6.05-3.165-10.2.446,3.6,1.414,9.2,2.668,10.689,2.465,3.162,7.163,6.258,10.158,9.067,3.262,3.055,9.729,3.375,13.034.292,3.232-2.762,7.468-5.684,10.233-8.931,1.975-2.266,2.36-7.955,2.614-11.11-.5,3.953-1.724,8.955-3.1,10.647" transform="translate(-163.06 -103.89)" fill="#161615" fill-rule="evenodd"/>
        <path id="Trazado_896558" data-name="Trazado 896558" d="M217.835,101.081c-.643-2.531-1.37-5.127-1.5-5.925-.377-2.371.745-2.919,2.623-1.83-1.365-1.734-3.722-1.743-3.143,1.895.142.892.94,3.487,1.56,5.958.516,2.06.82,9.971,4.732,9.088-3.7-.134-3.713-6.91-4.274-9.185m47.066-.03c.643-2.531,1.37-5.127,1.5-5.926.466-2.935-1.037-2.555-2.278-1.867,1.337-1.683,3.376-1.708,2.8,1.932-.142.892-.94,3.489-1.56,5.958-.516,2.059-.82,9.971-4.732,9.087,3.7-.133,3.713-6.91,4.274-9.185" transform="translate(-148.855 -63.592)" fill="#161615" fill-rule="evenodd"/>
        <path id="Trazado_896559" data-name="Trazado 896559" d="M290.729,153a2.805,2.805,0,0,0-1.619-.311c-.611.012-.509-.544-.032-.537a2.2,2.2,0,0,1,1.652.847m2.18-.02a2.585,2.585,0,0,1,1.553-.3c.611.012.5-.539.021-.532a2.03,2.03,0,0,0-1.574.83m-1.881.78a7.132,7.132,0,0,1-.519,3.908,10.347,10.347,0,0,0,.519-3.908m1.5,0a7.127,7.127,0,0,0,.519,3.907,10.031,10.031,0,0,1-.519-3.907" transform="translate(-199.196 -104.986)" fill="#161615" fill-rule="evenodd"/>
        <path id="Trazado_896560" data-name="Trazado 896560" d="M317.658,101.514a6.821,6.821,0,0,1,9.729.545,7.269,7.269,0,0,0-9.729-.545" transform="translate(-219.188 -68.813)" fill="#161615" fill-rule="evenodd"/>
        <path id="Trazado_896561" data-name="Trazado 896561" d="M317.459,109.932a1.577,1.577,0,0,0,.264,1.076l-.092.025a1.262,1.262,0,0,1-.244-1.018Z" transform="translate(-218.98 -75.854)" fill="#161615" fill-rule="evenodd"/>
        <path id="Trazado_896562" data-name="Trazado 896562" d="M324.555,112.809a7.149,7.149,0,0,0,.09.716c-.007-.263-.012-.5-.013-.712Zm-3.077-.369a2.638,2.638,0,0,0-.149.459c.087-.172.164-.321.238-.453Zm.532.053a2.527,2.527,0,0,0-.143.714,7.243,7.243,0,0,1,.244-.7Zm1.176.175a2.3,2.3,0,0,0,.062.817,6.051,6.051,0,0,1,.038-.8Zm-.591-.093a2.465,2.465,0,0,0-.035.844,6.626,6.626,0,0,1,.137-.827Zm1.317.187a2.6,2.6,0,0,0,.039.809c.012-.283.025-.572.038-.8Zm3.082-.292a1.783,1.783,0,0,1,.25.682,2.386,2.386,0,0,0-.334-.654Zm-.484.136a2.5,2.5,0,0,1,.085.736,6.238,6.238,0,0,0-.181-.714Zm-1.176.185a1.767,1.767,0,0,1,0,.747,2.019,2.019,0,0,0-.074-.741Zm.6-.071a2.444,2.444,0,0,1,.009.772,2.249,2.249,0,0,0-.111-.758Zm2.675-1.034a1.577,1.577,0,0,1,.408.605,1.821,1.821,0,0,0-.49-.551Zm-1.049.575a1.39,1.39,0,0,1,.207.683,1.807,1.807,0,0,0-.3-.645Zm.544-.269a1.443,1.443,0,0,1,.293.7,1.9,1.9,0,0,0-.381-.654Z" transform="translate(-221.721 -77.065)" fill="#161615" fill-rule="evenodd"/>
        <path id="Trazado_896563" data-name="Trazado 896563" d="M337.268,100.875a1.533,1.533,0,0,0,.606-.711,2.422,2.422,0,0,1-.693.677Zm2.216.921a1.49,1.49,0,0,0,.642-.446,2.484,2.484,0,0,1-.795.4Zm-.7-.25-.119-.051a2.687,2.687,0,0,0,.935-.422,1.653,1.653,0,0,1-.816.473m-1.069-.48-.087-.038a1.139,1.139,0,0,0,.724-.565.78.78,0,0,1-.637.6m.508.23a1.319,1.319,0,0,0,.8-.641,1.683,1.683,0,0,1-.914.591Zm-1.413-.6-.086-.031a2.242,2.242,0,0,0,.63-.753,1.485,1.485,0,0,1-.544.78m-1-.3a1.058,1.058,0,0,0,.142-.768,2.093,2.093,0,0,1-.245.745Zm.534.143a1.226,1.226,0,0,0,.319-.82,2.34,2.34,0,0,1-.42.791Z" transform="translate(-231.639 -68.748)" fill="#161615" fill-rule="evenodd"/>
        <path id="Trazado_896564" data-name="Trazado 896564" d="M265.049,105.183a.855.855,0,1,0,.855.855.855.855,0,0,0-.855-.855m19.855-.047a.855.855,0,1,0,.855.855.855.855,0,0,0-.855-.855" transform="translate(-182.297 -72.545)" fill="#161615" fill-rule="evenodd"/>
        <path id="Trazado_896565" data-name="Trazado 896565" d="M285.059,107.7a.272.272,0,1,1-.2.071.273.273,0,0,1,.2-.071m-21.4.654a.171.171,0,1,1-.178.163.171.171,0,0,1,.178-.163m-.161-.607a.273.273,0,1,1-.284.261.273.273,0,0,1,.284-.261m21.4.557a.171.171,0,1,1-.178.164.171.171,0,0,1,.178-.164" transform="translate(-181.618 -74.312)" fill="#fff" fill-rule="evenodd"/>
        <path id="Trazado_896566" data-name="Trazado 896566" d="M326.39,103.026c-1.635,1.548-2.841,2.533-5.149,2.755-1.632.156-2.956-.354-4.433-.362-.413,0-1.29.124-1.488-.153.39.223.907-.031,1.481-.04,2.85-.043,4.436,1.439,7.821-1.466l-.081-.036a6.242,6.242,0,0,1-3.49,1.728,13.511,13.511,0,0,1-2.861-.223c-.457-.057-.925-.08-1.362-.1-.41-.016-1.258.359-1.457.082.422.216.892-.12,1.457-.129,1.418-.023,2.87.408,4.22.266a6.316,6.316,0,0,0,3.429-1.661c-2.97-1.617-5.933-2.237-8.819.834-.223.239-.459.486-.346.728-.159-.166.043-.479.243-.807a5.551,5.551,0,0,1,4.719-2.908c3.189.089,4.736,2.11,6.113,1.485" transform="translate(-217.533 -70.064)" fill="#161615" fill-rule="evenodd"/>
        <path id="Trazado_896567" data-name="Trazado 896567" d="M284.259,181.309c2.293,1.382,6.634.991,8.3-.389.721-.6.714-.892-.7-1.061-2.024-.239-2.353.446-3.757.446-1.713,0-2-.675-3.5-.469-2.325.319-1.482.78-.334,1.468" transform="translate(-195.356 -124.066)" fill="#ee8789" fill-rule="evenodd"/>
        <path id="Trazado_896568" data-name="Trazado 896568" d="M291.777,182.741a5.239,5.239,0,0,0,4.124-.168c.557-.363.395-.862-.277-.732a7.185,7.185,0,0,1-3.532-.009c-1.109-.269-.978.65-.32.911" transform="translate(-200.982 -125.432)" fill="#f1a0a7" fill-rule="evenodd"/>
        <path id="Trazado_896569" data-name="Trazado 896569" d="M55.416,231.2c2.2-10.923,13.152-10.116,12.756-.557-.43,10.344-13.494,40.681-17.265,59.74-1.374,4.458-6.626,2.25-5.454-1.4,5.9-18.362,5.075-33.555,9.962-57.781m71.666-69.376c-2.942,6.454,1.54,6.109,4.564,2.988,7.035-7.262,13.912-9.317,21.8-11.52,5.069-1.415,4.833-4.781.132-5.057-9.984-.585-22.146,4.049-26.494,13.589M113.29,313.793C110.026,297.9,83.5,256.59,76.682,292.17c-3.829,19.99,10.137,64.584,18.108,99.206,2.141,9.3,3.277,42.543,12.873,43.437,10.215.951,8.543-32.969,8.783-40.1.933-27.753.469-63.26-3.156-80.917m41.9,75.754c7.245-29.5,20.815-84.388,19.261-96.812-3.749-29.936-38.333,2.668-41.127,19.986-1.385,8.582-.068,51.168-1.078,76.162-.815,20.138-3.046,45.072,6.01,45.725,7.556.545,12.99-29,16.936-45.06M131.061,577.2a82,82,0,0,1-1.555,13.362c-.954,5.845,3.26,2.937,7.519,3.021,3.6.07,6.851,2.786,6.1-2.409-.809-5.563-1-8.992-1.572-14.345-.723-6.807-1.4-8.855-5.585-8.861-3.612,0-4.544,2.162-4.9,9.231m-15.1-1.316c-.359,7.216-.167,5.684.215,13.22.334,6.534-3.557,2.927-7.8,2.611-3.594-.266-7.113,2.414-5.812-3.232,1.393-6.054,1.56-7.8,2.7-13.643,1.44-7.433,2.712-10.819,6.881-10.426,3.6.334,4.214,3.648,3.825,11.48m41.08-377.443c-2.315,9.222-3.842,14.766-3.754,23.425.134,13.06-.936,15.117-10.317,15.405S125.7,240.214,126.832,225.9c.631-7.945.675-16.479.551-23.269-.293-15.806,4.347-11.937,15.063-10.5,7.079.948,18.183-7.943,14.6,6.315M120.9,201.4c-.017,10.779.211,14.037.411,25.1.237,13.121-5.581,13.152-15.026,11.48-3.486-.616-14.284.522-12.595-8.011,1.526-7.7-2.44-24.949-2.8-30.215-.932-13.549,3.113-5.887,14.065-6.5,7.975-.446,15.966-5.149,15.946,8.136M78.526,149.049c2.351-20.457-8.025-21.95-13.991-12.185-4.761,7.8-2.577,21.14-2.3,29.616.215,6.687-.069,17.933-.164,26.7-.068,6.308-.892,9.23-2.151,18.444-1.584,11.584,11.049,7.906,11.55-2.341,1.415-28.9,4.658-39.321,7.061-60.226m110.359,80.583c-2.144-6.872-12.543-6.673-12.149,2.886.431,10.345,16.284,51.913,19,60.718,1.374,4.458,6.1,1.12,4.925-2.528-5.907-18.363-2.64-31.789-11.78-61.078M132.51,59.367c-5.1,4.458-16.147,2.617-17.967-1.692,3.331-4.347,7.87-6.62,11.9-9.086,6.91.3,10.153,7.207,6.065,10.778m-18.862-3.5a24.507,24.507,0,0,1,4.028-6.106,10.021,10.021,0,0,0-1.115.593,27.7,27.7,0,0,0-2.848,3.688,5.419,5.419,0,0,0-.064,1.826m7.133-7.091a19.009,19.009,0,0,0-4.366,4.643,38.156,38.156,0,0,1,5.951-4.893c-.533.06-1.064.144-1.585.25M125.2,75.642c-.266-1.819.058-4.225-.1-7.295-.148-2.831-1.743-3.17-2.089-.3-.159,1.321.022,5.832-.334,7.425-.438,1.95,2.786,1.906,2.529.173m-3.413,4.048c-.409-1.91,3.678-2.332,4.183-.586.557,1.895-3.775,2.491-4.183.586m-.913,20.653c-2.62-1.128-4.124-4.347-.4-5.956,2.173-.943,7.792-1.187,8.755,1.946,1.18,3.84-5.166,5.38-8.35,4.012m12.105,457.906c6.721-30.527,2.653-47.945.817-76.287-1-15.417,1.012-28.637.959-33.3-.13-11.244,12.372-17.443,16.941-5.425,4.9,12.914,4.388,22.96,3.3,36.669-2.371,29.91-13.182,70.782-14.119,76.712-.648,4.1,1.522,5.684-.648,7.725-2.142,2.016-8.7.484-7.252-6.093m-18.522-84.42c.879,16.921-2.874,59.029,1.449,81.077,1.337,6.8-8.241,8.854-8.018,1.06.557-19.43-15.3-63.873-16.384-77.707-1.016-13-1.146-17.411,3.752-34.624,3.106-10.923,15.279-5.962,16.05,3.573.716,8.9,2.238,9.075,3.15,26.62m6.09-312.422c1.975,4.717-.314,7.719-2.8,4.844-5.947-6.868-12.1-9.681-19.314-12.511-6.656-2.611-6.993-5.133-1.039-6.033,9.419.733,19.489,4.943,23.155,13.7M185.475,211.8c1.136,9.484-11,10.706-11.41-1.215-.645-18.624.922-39.546-1.644-51.7-2.073-9.821-4.984-5.157-7.614-14.915-3.873-14.37,9.239-20.731,19.086-9.206,5.247,6.141-.677,20.937.927,36.854,1.586,15.746-.828,27.81.653,40.178" transform="translate(-31.248 -33.486)" fill="#ffd6a2" fill-rule="evenodd"/>
        <path id="Trazado_896570" data-name="Trazado 896570" d="M294.267,177.841c-1.56.031-2.206.768-3.48.789-1.243.021-2.053-.828-3.612-.789,1.74-.35,2.384.294,3.567.291,1.434,0,1.465-.622,3.528-.291" transform="translate(-198.154 -122.64)" fill="#fff" fill-rule="evenodd"/>
        <path id="Trazado_896571" data-name="Trazado 896571" d="M280.331,177.782c1.081-.007,1.8-.585,2.994-.7a26.969,26.969,0,0,0-2.99.385c-1.053.01-1.969-.51-3.085-.381,1.307.119,1.853.707,3.082.7m3.047-.549c-1.139.1-1.811.691-3.059.718s-2.293-.716-3.55-.747c-1.56-.056-2.58.914-4.751-.4,1.644.849,3.267.318,4.768.138,1.361-.163,2.287.344,3.536.349a27.546,27.546,0,0,1,3-.334c2.209.166,2.563,1.1,5.513-.274-3.164,1.609-3.455.379-5.456.557" transform="translate(-187.696 -121.908)" fill="#161615" fill-rule="evenodd"/>
        <path id="Trazado_896572" data-name="Trazado 896572" d="M296.37,183.345a4.542,4.542,0,0,1-3.078-.164c-.212-.143-.207-.378.223-.231a6.352,6.352,0,0,0,2.752.055c.541-.111.6.178.106.341" transform="translate(-202.281 -126.205)" fill="#f4bac6" fill-rule="evenodd"/>
        <path id="Trazado_896573" data-name="Trazado 896573" d="M263.3,1812.535c-8.292.557-15.755,2.51-20.377,5.907a19.82,19.82,0,0,1-.92-1.973c3.547-4.347,9.348-6.38,15.541-7.245-6.353-.719-12.07-.093-16.3,2.921.018-.7.111-1.895.194-2.643,4.57-3.25,15.851-2.038,21.218-.413.1.428.208,1.185.266,1.42-5.807-.194-9.2.463-15.617,3.626,5.865-2.472,11.392-3.485,15.808-2.618.08.318.111.7.2,1.02M212.75,1809.1c8.292.557,16.589,5.154,21.211,8.553a6.573,6.573,0,0,0,.924-1.974c-3.547-4.386-10.3-8.025-15.865-9.139a27.949,27.949,0,0,1,16.244,5.016c-.018-.7-.043-1.992-.061-2.7-4.57-3.25-16.254-4.735-21.622-3.108-.1.428-.29,1.184-.348,1.419a25.275,25.275,0,0,1,16.431,5.886c-4.019-2.124-12.26-5.781-16.674-4.913l-.24.954" transform="translate(-146.797 -1245.536)" fill="#d3a354" fill-rule="evenodd"/>
        <path id="Trazado_896574" data-name="Trazado 896574" d="M344.39,104a1.74,1.74,0,0,0,1.718-1.477A2.452,2.452,0,0,1,344.39,104" transform="translate(-237.633 -70.745)" fill="#161615" fill-rule="evenodd"/>
        <path id="Trazado_896575" data-name="Trazado 896575" d="M342.548,102.61a1.74,1.74,0,0,0,1.717-1.477,2.452,2.452,0,0,1-1.718,1.477" transform="translate(-236.363 -69.783)" fill="#161615" fill-rule="evenodd"/>
        <path id="Trazado_896576" data-name="Trazado 896576" d="M257.374,8.763a11.273,11.273,0,0,1,4.168,4.1A11.512,11.512,0,0,0,257.5,8.536c-.43-.181.223-.95.494-.737a17.457,17.457,0,0,1,5.176,5.32,15.878,15.878,0,0,0-5.1-5.549c-.242-.14.166-.82.341-.709A16.341,16.341,0,0,1,262.1,9.95a15.64,15.64,0,0,0-3.505-3.3c-.264-.163.134-.824.321-.721,2.452,1.382,4.672,4.207,6.464,8-1.645-3.9-3.986-6.907-6.355-8.211-.361-.177.189-1.09.528-.974a14.5,14.5,0,0,1,4.882,4.631,13.283,13.283,0,0,0-4.762-4.851c-.293-.145.134-.846.387-.691,8.27,3.589,10.8,18.372,9.722,24.764-.946.223-2.353,1.129-3.266,4.847-.389-6.715-4.88-21.26-9.642-23.9-.334-.183.157-.977.5-.78m-6.72,2.355a20.441,20.441,0,0,0-12.69,8.457,38.038,38.038,0,0,1,12.69-8.457M236.093,23.827c5.311-6.91,19.74-12.418,20.6-15.03.074-.223-.025-.3-.223-.411a10.4,10.4,0,0,0-2.265-.9,7.112,7.112,0,0,1,2.572.916c.171.08.49-.509.3-.613a14.884,14.884,0,0,0-4.493-1.636,13.6,13.6,0,0,1,4.63,1.482c.213.077.51-.547.309-.633a15.078,15.078,0,0,0-4.748-1.653,12.386,12.386,0,0,1,4.865,1.462c.334.137,1.019-1.057.655-1.226a18.8,18.8,0,0,0-6.48-2.164,16.817,16.817,0,0,1,6.63,1.895c.245.133.756-.834.544-1.037-.892-.478-3.042-1.421-4.2-1.88A20.174,20.174,0,0,1,259.1,4.124c.2.111.571-.512.354-.653C240.568-6.363,220.2,5.526,221.639,28.7c3.878,1.895,2.118,10.226,4.708,16.8-.415-7.1-.543-9.2,1.865-15.765-1.613,7.245-.992,13.619-.495,19.88.029-10.167,3.269-36.806,22.783-39.777-7.612,1.957-12.115,5.163-15.684,12.992A30.985,30.985,0,0,0,229.838,42.2,39.413,39.413,0,0,1,234.6,26.138a22.97,22.97,0,0,0-.166,4.032,29.205,29.205,0,0,1,1.652-6.343" transform="translate(-152.884 0.001)" fill="#2d1900" fill-rule="evenodd"/>
        <path id="Trazado_896577" data-name="Trazado 896577" d="M234.475,661.234a177.116,177.116,0,0,0,7.55,25.327c2.828-2.974,4.377-4.708,7.69-8.136-3.082-6.254-5.2-11.568-7.868-18.183-1.8.314-4.681.586-7.377.992m-.5,1.074a239.933,239.933,0,0,1-54,.049c-.07.415-.157.78-.223,1.137a241.091,241.091,0,0,0,54.473-.06q-.122-.557-.243-1.126m-36.844,55.258c2.105,3.666,2.941,5.412,4.1,7.561a9.457,9.457,0,0,0,10.1.88c2.069-3.144,3.59-5.2,5.39-7.727-4.806,1.3-14.167,1.359-19.6-.714m-17.675-56.326a131.79,131.79,0,0,1-6.458,25.2c-.662-.7-4.984-4.971-7.735-7.743,2.29-4.969,5.768-14.14,6.7-18.514,3.015.577,4.62.626,7.491,1.054" transform="translate(-114.035 -455.535)" fill="#161615" fill-rule="evenodd"/>
        <path id="Trazado_896578" data-name="Trazado 896578" d="M248.743,722.325c-.2-.547-1.091-2.442-1.459-3.3-14.442,14.67-26.337,30-38.4,47.606,14.623-16.179,26.019-31.748,39.861-44.306m-49.96,43.39c-13.025-25.174-22-32.247-35.951-46.416-.3.761-.78,1.966-1.1,2.763,18.992,19.418,21.415,21.649,37.047,43.653" transform="translate(-111.597 -496.136)" fill="#464545" fill-rule="evenodd"/>
        <path id="Trazado_896579" data-name="Trazado 896579" d="M238.844,388.223c2.129,15.269-3.915,28.408-19.128,33.349,8.4,2.2,15.349.97,21.41-5.663,5.377-5.882,7.877-14.631,7.588-22.514a16.606,16.606,0,0,0-.789-2.241c.722,8.434-1.5,17.944-7.3,24.3a19.268,19.268,0,0,1-18.628,6.039c14.177-5.339,19.495-19.216,17.506-33.471l-.659.207m-62.546-.44c-1.935,13.877,2.589,29.59,17.349,34.031a19.255,19.255,0,0,1-17.995-5.581c-6.437-6.49-9.251-17.244-7.612-26.152a33.891,33.891,0,0,0-1.02,3.4c-.461,8.318,2.208,17.244,8.149,23.234,6.2,6.25,13.116,7.259,21.272,5.108-16.172-3.344-21.548-19.015-19.476-33.865l-.669-.175" transform="translate(-115.211 -267.574)" fill="#5d5c5c" fill-rule="evenodd"/>
        <path id="Trazado_896580" data-name="Trazado 896580" d="M236.1,456.671c-10.515,3.961-22.9,1.126-26.4-10.477h-.761c3.652,12.1,16.359,15.277,27.4,11.118,4.57-1.721,9.04-5.17,12.178-11.673.156-1.023.78-3.455,1.145-5.109-2.277,7-5.641,12.586-13.564,16.142m-68.418-14.128c.223.495.66,3.1.946,4.518a21.676,21.676,0,0,0,18.291,12.083c9.817.8,18.04-2.58,20.749-12.956l-.789-.007c-2.615,10.021-10.559,13.072-19.986,12.276a21.374,21.374,0,0,1-19.213-15.915" transform="translate(-115.7 -303.97)" fill="#464545" fill-rule="evenodd"/>
        <path id="Trazado_896581" data-name="Trazado 896581" d="M297.3,500.024c-2.452,17.132.436,29.445-.25,46.274,2.736-15.352-.161-32.255.25-46.274" transform="translate(-204.45 -345.022)" fill="#fcb275" fill-rule="evenodd"/>
        <path id="Trazado_896582" data-name="Trazado 896582" d="M169.88,391.973c.187,1.131.946,1.737,1.214,2.734.274,1.021,0,2.167.469,3.232,1.794,4.073,3.941,8.961,6.1,12.855.869,1.56,2.195,2.854,2.034,4.818-.2,2.409-1.7,3.612-2.4,5.7-1.041,3.1-2.129,6.019-3.035,9.2-.634,2.215-.376,3.447-3.109,3.863-3.285.5-6.633,1.267-9.893,1.672-1.8.223-2.041-.223-1.156-1.42.977-1.323,3.763-2.575,5.305-1.9a.5.5,0,0,0,.66-.255,4.372,4.372,0,0,1,1.661-1.349c4.39,3.144,3.221-2.148,2.769-4.425a7.565,7.565,0,0,1,1.048-2.41,2.117,2.117,0,0,0,.05-1,10.012,10.012,0,0,1,.652-5.026.512.512,0,0,0-.188-.657,6.489,6.489,0,0,1-2.266-3.242,30.679,30.679,0,0,1,.376-3.869c-2.874,4.512-1.03,13.5-.111,18.672.5,2.793-1.242,1.817-2.373.573-1.44-1.584-1.711-3.666-2.053-5.73-.892-5.358-4.135-7.838-5.057-12.412-.955-4.739,1.992-9.842,1.1-15.866-3.151-21.276-15.812-38.85-19.237-65.518-3.056-21.667-2.467-51.77-5.5-72.256-2.188,20.213-13.676,54.379-12.161,72.8,1.714,20.865,24.083,43.74,22.53,80.766-1.629,38.829-21.591,81.809-25.655,120.1-1.2,11.294,6.281,29.9,5.7,43.983-1.262,34.175-11.384,52.874-15.827,86.155-.544,4.078,2.63,6.707.574,10.162-.341.573-.5.437-.542,1.148-.486,8.591,2.4,24.27,4.066,32.864,1.2,1.388,2.377,3.8.546,4.843-.368-1.465-1.292-2.417-2.649-4.093a22.673,22.673,0,0,1,1.648,4.273A1.488,1.488,0,0,1,113.3,712.6c-.617-1.838-1.7-3.579-2.387-5.429.046,2.415.7,2.724,1.481,5.324.463,1.531-.843,2.31-2.166,1.682.017-1.974-1.712-4.522-2.341-6.392-.155,2.02,1.527,3.927,1.4,6.509-.052,1.089-1.009,2.22-2.144,1.737-.381-1.862-2.061-3.669-2.75-7.956-.117,4.693,1.083,4.793,1.783,8.163.457,2.2-2.354,3.8-4.726,3.077-3.17-.963-2.675-3.728-3.567-6.257-1.076-3.043-2.675-4.444-2.411-8.175.814-11.591,2.819-20.219,3.431-31.805a2.93,2.93,0,0,0-.364-1.514c-1.368-2.984.014-5.515,1.015-9.124,8.488-30.6-1.226-56.174-.182-87.807.288-8.643,1.449-17.675,1.285-26.152-.155-7.88-3.734-17.979-3.273-25.345,2.341-37.473-2.741-75.679-.111-114.061-2.92,1.306-7.254,1.315-10.1-.916,4.163,36.618-.876,77.633-.172,114.6.182,9.565-3.4,16.83-4.475,25.618-.946,7.733,2.127,19.344,2.64,27.8,1.76,28.867-4.216,58.726,2.118,86.2.845,3.669,2.124,4.807.446,8.527-.264.589-.7.957-.756,1.632-1.028,11.893.165,19.441.439,31.3.135,5.84-.78,5.477-3.407,9.75-1.6,2.611-3.129,6.687-6.994,5.838-2.118-.469-3.51-2.421-2.229-4.425,1.337-2.088,2.658-3.139,3.528-5.717-1.358,1.895-4.116,4.019-4.985,6.087a1.664,1.664,0,0,1-1.818-1.758c.091-2.024,2.053-3.355,3.165-5.421-1.337,1.587-3.385,2.452-3.969,4.793a1.415,1.415,0,0,1-1.607-1.765c.324-1.862,1.69-2.462,2.459-4.563-1.287,1.619-2.522,1.8-3.471,4.205a1.391,1.391,0,0,1-1.767-1.783c.346-1.314,2.056-2.853,2.52-4.124-1.38,1.239-2.353,1.658-3.276,3.182-2.586-1.641.125-4.371,1.219-5.548,2.825-11.158,4.52-19.022,7.048-30.251.182-.807.311-.961-.051-1.573-1.541-2.61,1.138-5.377,1.073-8.882-.506-27.554-17.4-60.223-17.9-85.828-.288-14.69,5.01-28.867,5.684-43.95,1.859-41.639-20.2-79.924-21.99-120.779-1.56-35.666,18-56.319,19.464-80.36.892-14.718-9.557-59.813-12.141-73.014-4.263,23.436-3.587,49.415-7.964,72.928-4.241,25.717-14.763,41.215-18.256,65.082-.771,5.267,1.738,10.365,1.051,15.232-.78,5.435-5.537,11.591-6.975,17.981-.7,3.109-1.929.878-2.14-.78-.446-3.5,3.335-11.05-1.2-13.886a8.708,8.708,0,0,1,.931,2.071,7.191,7.191,0,0,1-3.79.153.5.5,0,0,0-.6.512,6.4,6.4,0,0,1-2.361,4.38c-.272.2-.487.5-.191.826,1.748,1.936,1.962,4.729,1.658,7.207a.506.506,0,0,0,.386.549,7.089,7.089,0,0,1,4.728,3.567.507.507,0,0,0,.429.249c1.845.025,3.529.477,4.489,2.168.885,1.56.494,2.335-1.271,1.662-2.675-1.021-4.9-2.4-7.558-3.49-2.744-1.126-3.085-.993-4.28-3.912-1.093-2.666-1.56-5.334-2.692-7.939-1.595-3.678-2.247-4.553.567-7.835,2.553-2.988,8.328-12.623,8.873-16.2a29.674,29.674,0,0,1,.389-4.012c.518-1.233,1.687-2.361,1.968-3.377,5.48-19.654,3.409-44.369,10.4-61.87,1.167-2.93,4.885-3.321,7.658-2.7a7.318,7.318,0,0,0-6.74.1c2.4-17.113,1.881-34.759,3.15-51.7.839-11.212-2.278-28.575,4.061-38.389,2.912-4.508,11.015-7.423,19.153-7.488,10.662-.084,21.343,3.317,33.608,2.941-9.251-.78-17.393-1.836-26.519-3.325,19.839-4.09,23.886-6.576,23.375-26.888l-1.053-.85c1.257,21.8-5.14,23.379-25.393,27.307-9.833-1.108-20.478,2.179-24,7.674-6.4,9.989-3.389,27.376-4.255,38.942-1.28,17.086-.738,34.84-3.213,52.146-8.006,17.758-5.506,43.366-11.2,63.83-.207.749-1.449,2.118-1.926,3.256-.465,1.1-.245,2.85-.458,4.251-.512,3.358-6.229,12.885-8.64,15.7-3.091,3.6-2.482,4.848-.728,8.892,1.129,2.6,1.592,5.261,2.683,7.919,1.434,3.506,1.908,3.224,5.139,4.588,1.253,1.606,2.319,3.4,3.584,5.05,2.414,3.149,3.411,0,2.9-2.1,2.859,1.56,5.377.98,3.3-2.675a5.582,5.582,0,0,0-5.068-2.667,8.259,8.259,0,0,0-3.068-2.987c.592-1.963.164-5.819-1.383-7.285a7.461,7.461,0,0,0,1.8-4.816,10.7,10.7,0,0,0,2.367-.389c.771,3.749-1.216,7.512-.971,10.907.194,2.72,2.572,6.229,3.962.846,1.573-6.116,6.327-12.5,7.111-17.969.7-4.9-1.627-9.981-.912-14.987,3.448-24.12,14.824-39.4,18.619-65.344,3.455-18.58,3.69-47.344,6.827-66.058,1.648,13.506,11.529,54.876,10.131,65.912-3.419,27-21.317,45.92-19.867,80.727,1.713,41.079,24.128,79.022,22.267,120.707-.669,14.887-6.4,28.964-6.2,43.333.373,25.765,18.613,58.49,19.17,86.2.081,4.107-4,6.421-1.093,10.183-2.563,11.22-3.968,18.988-6.8,30.144-1.209,1.226-2.642,3.359-2.229,5.19.86,3.8,8.99,12.5,13.087,13.095,4.57.669,6.2-3.224,8.089-6.3,2.763-4.5,3.7-4.143,3.554-10.309-.274-11.916-1.1-19.528-.019-31.493,2.753-4.288,1.1-5.748.1-10.1-6.255-27.372.363-57.051-1.394-85.844-.509-8.359-3.8-20.456-2.871-28.032,1.086-8.851,4.512-15.689,4.329-25.345-.7-36.808,4.741-75.322.708-111.79a11.538,11.538,0,0,0,6.148.039c-2.539,38.1,2.773,74.751.446,111.969-.465,7.435,3.062,17.237,3.217,25.162.165,8.448-1.277,17.7-1.56,26.323-1.045,31.536,9.211,56.986.82,87.484-1.183,4.3-2.966,5.756-.8,10.271-.622,11.645-2.294,20.7-3.112,32.349-.282,4.032,1.319,5.34,2.467,8.582,1.043,2.954.429,5.553,4.235,6.895,4.337,1.53,13.883-5.416,16.4-9.313,1.122-1.742-.111-3.843-1.049-5.4-1.729-8.934-4.382-23.879-3.9-32.634,3.921-4.64-.64-7.188.057-11.257,5.7-33.291,15.641-52.138,17.061-86.649.577-14.058-7.656-32.108-6.478-43.2,4.073-38.373,24.14-81.186,25.808-120.114,1.568-36.619-18-53.561-22.58-80.917-1.839-10.979,8.477-53.867,10.422-64.784.75,20.906,1.845,45.266,4.534,64.323,3.438,26.749,15.927,44.293,19.085,65.606.892,5.992-1.925,10.844-.917,15.838.945,4.688,4.541,7.637,5.224,13.416a5.825,5.825,0,0,0-3.16,2.4,4.411,4.411,0,0,0-4.188,3.713c-2.042,2.014-2.563,4.635,1.108,4.124-.416,1.664,1.449,1.686,2.581,1.547,3.394-.421,6.765-1.1,10.149-1.62,3.344-.509,3.178-1.806,3.924-4.585.9-3.161,1.984-6.071,3.02-9.154.743-2.219,2.218-3.212,2.445-5.942.194-2.444-1.3-3.512-2.191-5.4-2.018-4.243-4.129-8.463-6.019-12.759-.374-.852-.023-2.222-.28-3.172-.266-.984-1.181-1.656-1.337-2.563-3.443-20.566-4.63-46.967-12.873-64.961-1.151-16.434.409-35.777-.752-52.152-1.045-14.734,3.163-30.354-3.789-39.15-3.779-4.785-12.394-7.752-24.012-7.325-19.887-4.884-25.551-6.758-24.831-27.364l-1.08.878c-.669,19.135,3.956,21.64,22.949,27.183-8.805.789-18.083,2.443-27.915,3.043,13.4.183,23.982-3.263,35.368-2.669,8.726.456,15.6,3.077,18.769,7.113,6.951,8.875,2.545,24.669,3.514,38.363,1.129,15.913-.61,35.013.4,50.977a9.682,9.682,0,0,0-8.61,2.317c3.035-1.68,7.94-3.139,9.6.906,7.333,17.846,8.987,43.46,12.266,63M92.613,341.66c1.346,0,1.337,3.2-.012,3.2s-1.337-3.2.012-3.2M90.9,232.078c.94,1.833,2.351,2.029,3.421.052-.07,2.721-3.359,2.627-3.421-.052m68.189,202.28c-2.7.459-2.7-.3-.813-2.4a5.824,5.824,0,0,1,4.826-1.6.5.5,0,0,0,.492-.216,5.248,5.248,0,0,1,2.054-1.719,5.653,5.653,0,0,0,1.293,1.989,5.453,5.453,0,0,0-1.531,1.264,6.259,6.259,0,0,0-6.323,2.68m6.234-6.893a6.408,6.408,0,0,0-2.38,1.864,7.4,7.4,0,0,0-3.973.911,3.015,3.015,0,0,1,2.811-1.6.516.516,0,0,0,.605-.255,4.649,4.649,0,0,1,2.629-2.166c.089.425.191.844.308,1.247m4.816-2.708a31.964,31.964,0,0,1-.478-8.3,6.91,6.91,0,0,0,1.527,1.732,12.075,12.075,0,0,0-.557,5.7c-.171.279-.334.573-.487.874m-159.6-6.862c-.059,2.367-.76,2.961-1.871,4.741-.155.246-.022.446.178.585,1.439.957,1.77,4.9,1.344,6.464a8.942,8.942,0,0,0-.989-.346,10.038,10.038,0,0,0-1.619-7.157,7.7,7.7,0,0,0,2.44-4.362c.185.028.358.052.518.07m.125,18.132c1.38.622,2.735,1.3,4.115,1.916.507,1.189.577,4.458-1.31,1.993-.971-1.266-1.907-2.583-2.8-3.909" transform="translate(0 -138.594)" fill="#161615" fill-rule="evenodd"/>
        <path id="Trazado_896583" data-name="Trazado 896583" d="M131.025,1217.15a15.712,15.712,0,0,0-3.282,1.266c-1.173.631.383,5.072,1.76,4.716a15.2,15.2,0,0,0,3.548-1.625c.747-.454-.546-4.778-2.024-4.358M43.255,933.417c.019,1.718-1.442,4.243-2.188,4.019-.763-.223-.858-3.185.217-4.651.309-.421,1.964-.111,1.972.631m151.456-.009c-.167,1.783,1.615,4.444,2.389,4.312.729-.123.862-3.205.03-4.878a1.42,1.42,0,0,0-2.419.566m-8.673,5.166c-1.519-.634-4.57.308-4.6.85-.022.429,1.895,1,3.7.78a4.991,4.991,0,0,1,.9-1.632m3.057,2.994c-1.525.634-5.446.271-5.412-.353.03-.557,3.7-1.718,5.116-.854.288.175.294.886.3,1.207m-146.781,1.56c.215-.627.6-1.5,1.217-1.374,1.975.418,4,1.741,3.874,2.406-.1.531-3.078.486-5.091-1.032m-3.823.83c1.041,1.813,3.1,3.843,3.607,3.481.446-.321-.906-3.4-2.389-4.124-.3-.147-.829.234-1.217.649m64.862,273.029a16.638,16.638,0,0,1,3.009,2.16c.986.892-1.574,4.563-2.823,3.886a14.788,14.788,0,0,1-2.841-2.179c-.881-.823,1.487-4.516,2.654-3.866m-10.467-6a4.435,4.435,0,0,1-.59.741c-.606.669-1.866-.655-1.575-1.169a5.863,5.863,0,0,1,.446-.652c.626-.874,2.006.537,1.721,1.08m1.973,2.623c.72-.876-1.276-2.2-1.764-1.76a7.675,7.675,0,0,0-.721.93c-.585.838,1.154,2.148,1.761,1.68a4.717,4.717,0,0,0,.724-.85m3.13,1.69a5.768,5.768,0,0,1-.839,1.241c-.669.713-2.558-.838-2.1-1.573a8.678,8.678,0,0,1,.844-1.168c.576-.629,2.465.771,2.1,1.5m2.883,1.144c-.374-.274-1.263-.727-1.713-.973-.643-.351-1.92,1.849-1.266,2.365.493.39,1.2,1.084,1.859,1.06.8-.029,1.74-2.006,1.121-2.452m42.671-3.844c-.379.157-.811.419-1.173.606-.446.232.458,1.85.892,1.66.23-.1.809-.464,1.073-.619.427-.251-.308-1.846-.787-1.647m-3.832,2.593c-.409-.93,1.807-1.886,2.092-1.265.1.223.348.648.482.941.527,1.147-1.722,2.051-2.03,1.409-.167-.349-.381-.713-.545-1.084m-1.541.371a13.01,13.01,0,0,0-1.456.683c-.382.207.076,1.1.382,1.783.387.857,2.666-.134,2.377-1-.3-.892-.557-1.753-1.3-1.462m-4.709,1.652a17.728,17.728,0,0,1,2.154-.646c.634-.111,1.6,2.312.5,2.883a10.744,10.744,0,0,1-1.5.506c-1.082.312-1.629-2.563-1.154-2.743" transform="translate(-26.56 -643.347)" fill="#d9000d" fill-rule="evenodd"/>
        <path id="Trazado_896584" data-name="Trazado 896584" d="M197.4,663.673c-1.582,7.842-3.567,18.3-6.564,25.717l-.615-.615c3.034-7.517,4.856-17.261,6.458-25.2Zm53.59-.024a165.417,165.417,0,0,0,7.637,25.927l.617-.68a156.2,156.2,0,0,1-7.55-25.327Z" transform="translate(-131.254 -457.87)" fill="#5d5c5c" fill-rule="evenodd"/>
        <path id="Trazado_896585" data-name="Trazado 896585" d="M229.055,1257.987c-3.667-2.76-4.674-10.741-3.879-15.439.087,6.353,1.127,11.73,3.879,15.439m35.777.05c3.087-1.762,6.074-8.931,5.3-13-.568,5.7-2.733,10.317-5.3,13m-4.982-.409c-3.418-3.121-5.12-9.882-4.347-14.578.568,6.576,1.256,10.053,4.347,14.578m-25.986.711c4.458-2.444,6.242-11.146,5.472-15.213-.568,5.7-1.408,10.87-5.472,15.213" transform="translate(-155.199 -857.373)" fill="#161615" fill-rule="evenodd"/>
        <path id="Trazado_896586" data-name="Trazado 896586" d="M248.36.811C238.692-.215,229.986,6.174,226.434,14.7a12.158,12.158,0,0,1,1.628-1.743c-2.619,4.377-3.941,9.428-3.409,16.343a25.981,25.981,0,0,1,5.394-11.659,24.839,24.839,0,0,0-3.184,15.035c-.352-7.629,4.716-16.709,10.923-21.412a15.3,15.3,0,0,0-5.528,3.112,10.8,10.8,0,0,1,2.878-2.928c-3.88,1.855-6.281,4.793-8.882,10.954,2.217-10.348,11-15.374,21.134-15.827a30.762,30.762,0,0,0-5.771-.3c1.16-.358,2.242-.669,3.424-.936-5.741.111-7.255.305-12.572,3.619,5.223-4.9,11.665-6.315,18.817-5.37-7.218-1.443-12.872-.751-18.029,3.26,4.209-4.166,8.685-5.669,15.1-6.045m-12.922,7.32a18.964,18.964,0,0,0-9.27,12.422c1.108-6.517,3.15-9.92,9.269-12.422M229.8,19.362a10.143,10.143,0,0,1,3.52-4.87,23.655,23.655,0,0,0-3.52,4.869m6.713-10.8a9.848,9.848,0,0,1,5.447-1.858,22.991,22.991,0,0,0-5.447,1.858" transform="translate(-154.932 -0.481)" fill="#422600" fill-rule="evenodd"/>
        <path id="Trazado_896587" data-name="Trazado 896587" d="M294.111,670.974h-5.024a.4.4,0,0,0-.4.4v.947a.4.4,0,0,0,.4.4h5.024a.4.4,0,0,0,.4-.4v-.947a.4.4,0,0,0-.4-.4" transform="translate(-199.196 -462.98)" fill="#d3a354" fill-rule="evenodd"/>
        <path id="Trazado_896588" data-name="Trazado 896588" d="M141.335,620.809c-1.042,4.886,1.226,6.493,2.876-.446.937-3.942,11.408-57.461,13.006-77.677.732-9.266.619-15.285-2.695-24.013-3.083-8.122-10.328-6.176-10.986,2.9a143.456,143.456,0,0,0-.648,22.5c1.241,19.156,2.852,56.078-1.553,76.738m2.173-123.59c3.716.127,8.292-16.141.187-16.227s-4.034,16.094-.187,16.227M62.465,300.029c1.194-7.1,8.37-6.715,6.487,1.6-.616,2.721-11.017,42.353-13.967,52.222-.743,2.488-2.979,2.919-2.318-.853,3.74-21.348,5.785-29.09,9.8-52.969M113.29,498.617c3.511.042,8.94-15.409.149-15.918-8.95-.518-4.073,15.872-.149,15.918m21.036-270.674c-2.377,3.622-1.2,4.438,1.705,1.2,5.275-5.878,9.206-7.853,17.485-10.225,3.009-.863,4.1-1.968-.592-1.636a24,24,0,0,0-18.6,10.656M78.854,216.111c-.382,10.431-1.684,20.315-2.823,31.365-1.154,11.2-3.046,18.82-3.555,28.491-.315,5.985-6.235,7.1-5.828,1.708.839-11.1,2.83-18.694,3.518-27.466,1.33-17.012-1.137-17.855.128-32.865,1.274-15.1,8.856-9.294,8.561-1.232m113.812,86.681c-1.348-7.069-8.515-6.529-6.449,1.742.677,2.706,11.942,42.1,15.107,51.9.8,2.47,3.043,2.853,2.3-.9-4.209-21.261-6.42-28.962-10.957-52.742m-65.25-156.85c-.187-.977,2.492-1.245,2.611-.344.134,1.01-2.394,1.49-2.611.344M106.739,464.912c-3.411-17.164-15.012-55.245-16.646-75.441-3.448-42.636,19.082-24.658,25.175-2.471,5.342,19.457,4.777,60.222,3.936,78.019-.85,17.983-8.721,18.739-12.464-.1m46.151.518c-3.437,16.569-14.207,16.751-12.938-2.055,1.473-21.829,0-65.3,5.751-84.175,5.1-16.747,28.665-25.182,25.723,5.563-1.822,19.044-13.932,58.462-18.536,80.667M122.81,227.716c.77,1.326,1.123,3.8-1.461,1.5-5.87-5.238-8.114-7.69-15.892-10.245-5.921-1.94-2.334-2.229.551-1.828,7.14,1,13.467,4.824,16.8,10.577m64.72,46.031c1.131,9.474-4.718,12.2-5.127.284-.446-13.029.48-27.374-.585-37.383-1.155-10.846,1-17.213-5.859-25.858-6.185-7.791,2.412-14.266,9.01-6.13,5.084,6.271,2.306,15.938,2.161,31.929-.145,15.968-1.073,24.8.4,37.158M116.422,543.732c.591,11.434-1.17,58.84,1.751,73.741.9,4.592-3.375,5.326-3.226.061.373-13.132-13.307-61.459-14.037-70.808-.685-8.786-1.373-15.631,2.246-27.17,3.022-9.634,8.025-6.687,9.9.079,2.071,7.49,3.136,19.616,3.367,24.1" transform="translate(-36.258 -100.085)" fill="#ffe2b1" fill-rule="evenodd"/>
        <path id="Trazado_896539" data-name="Trazado 896539" d="M858.964,205.28h402.953v.683Zm0,68.344h402.953v.683H858.964Zm0,68.344h402.953v.683H858.964Zm0,68.344h402.953v.683H858.964Zm0,68.344h402.953v.683H858.964Zm0,68.344h402.953v.683H858.964Zm0-546.75h402.953V.932H858.964Zm0,68.344h402.953v.683H858.964Zm0,68.344h402.953v.683H858.964Z" transform="translate(-858.964 -0.171)" fill="#d9000d" fill-rule="evenodd"/>
      </g>
    </g>
  </g>
</svg>
