<svg xmlns="http://www.w3.org/2000/svg" xmlns:xlink="http://www.w3.org/1999/xlink" width="151.46" height="127.969" viewBox="0 0 151.46 127.969">
  <defs>
    <clipPath id="clip-path">
      <path id="Trazado_1269881" data-name="Trazado 1269881" d="M.278.279,149.235-.069,148.9,124.964-.06,125.313Z" transform="matrix(1, 0.017, -0.017, 1, 2.247, 0)" fill="none"/>
    </clipPath>
  </defs>
  <g id="Grupo_1204617" data-name="Grupo 1204617" transform="translate(7880 6789.354)">
    <g id="Grupo_1204479" data-name="Grupo 1204479" transform="translate(-7878.549 -6787.96)">
      <g id="Grupo_1203490" data-name="Grupo 1203490" transform="translate(-1.451 -1.324)">
        <g id="Grupo_1203489" data-name="Grupo 1203489" transform="translate(0)" clip-path="url(#clip-path)">
          <path id="Trazado_1258858" data-name="Trazado 1258858" d="M115.908,107.386c21.27-11.779,22.107-31.41,18.135-51.018-2.029-10.014-2.35-19.867-3.756-29.872-.648-4.611-1.937-9.269-4.9-13.138C116.908,2.3,100.472,6.213,88.027,8.292c-19.686,4.262-41.787,4.228-60.243,12C13.535,26.294-1.823,39.862.177,54.73c.988,7.352,6.24,13.872,12.777,18.641,11.815,8.619,27.191,13.139,40,20.562,9.236,5.352,16.18,14.934,26.824,18.343,11.225,3.595,25.852.676,35.679-4.643q.227-.123.45-.246" transform="translate(1.491 0.559)" fill="#752092"/>
          <g id="XMLID_2671_" transform="translate(11.38 21.153)">
            <g id="XMLID_283_" transform="translate(1.298 9.739)">
              <g id="XMLID_781_">
                <g id="XMLID_1820_" transform="translate(10.813)">
                  <g id="XMLID_1821_">
                    <g id="XMLID_1824_" transform="translate(0 0)">
                      <ellipse id="XMLID_2556_" cx="4.974" cy="4.306" rx="4.974" ry="4.306" fill="#ffcb6f"/>
                    </g>
                    <g id="XMLID_1823_" transform="translate(0.23)">
                      <path id="XMLID_2555_" d="M84.8,56.325c0-2.378-2.227-4.306-4.974-4.306a4.951,4.951,0,0,0-4.744,3.008,5.685,5.685,0,0,1,1.5-.2c2.747,0,4.974,1.928,4.974,4.306a3.777,3.777,0,0,1-.23,1.3A4.427,4.427,0,0,0,84.8,56.325Z" transform="translate(-75.081 -52.019)" fill="#ffae4d"/>
                    </g>
                  </g>
                </g>
                <g id="XMLID_1813_" transform="translate(10.813 50.545)">
                  <g id="XMLID_1814_">
                    <g id="XMLID_1818_">
                      <ellipse id="XMLID_2554_" cx="4.974" cy="4.306" rx="4.974" ry="4.306" fill="#ffcb6f"/>
                    </g>
                    <g id="XMLID_1817_" transform="translate(0.23)">
                      <path id="XMLID_2553_" d="M84.8,326.314c0-2.378-2.227-4.306-4.974-4.306a4.951,4.951,0,0,0-4.744,3.008,5.683,5.683,0,0,1,1.5-.2c2.747,0,4.974,1.928,4.974,4.306a3.778,3.778,0,0,1-.23,1.3,4.427,4.427,0,0,0,3.474-4.106Z" transform="translate(-75.081 -322.008)" fill="#ffae4d"/>
                    </g>
                  </g>
                </g>
                <g id="XMLID_782_" transform="translate(0 20.592)">
                  <g id="XMLID_783_">
                    <g id="XMLID_786_">
                      <ellipse id="XMLID_2292_" cx="4.974" cy="4.306" rx="4.974" ry="4.306" fill="#ffcb6f"/>
                    </g>
                    <g id="XMLID_785_" transform="translate(0.23 0)">
                      <path id="XMLID_1825_" d="M34.786,166.321c0-2.378-2.227-4.306-4.974-4.306a4.951,4.951,0,0,0-4.744,3.008,5.684,5.684,0,0,1,1.5-.2c2.747,0,4.974,1.928,4.974,4.306a3.778,3.778,0,0,1-.23,1.3A4.427,4.427,0,0,0,34.786,166.321Z" transform="translate(-25.068 -162.015)" fill="#ffae4d"/>
                    </g>
                  </g>
                </g>
              </g>
              <g id="XMLID_262_" transform="translate(70.475 4.68)">
                <g id="XMLID_775_" transform="translate(4.325 58.969)">
                  <g id="XMLID_776_">
                    <g id="XMLID_779_">
                      <ellipse id="XMLID_1822_" cx="4.974" cy="4.306" rx="4.974" ry="4.306" fill="#ffcb6f"/>
                    </g>
                    <g id="XMLID_778_">
                      <path id="XMLID_1819_" d="M369.97,396.311c0-2.378,2.227-4.306,4.974-4.306a4.951,4.951,0,0,1,4.743,3.008,5.686,5.686,0,0,0-1.5-.2c-2.747,0-4.974,1.928-4.974,4.306a3.778,3.778,0,0,0,.23,1.3A4.427,4.427,0,0,1,369.97,396.311Z" transform="translate(-369.97 -392.005)" fill="#ffae4d"/>
                    </g>
                  </g>
                </g>
                <g id="XMLID_336_" transform="translate(17.301 33.697)">
                  <g id="XMLID_337_">
                    <g id="XMLID_721_">
                      <ellipse id="XMLID_1816_" cx="4.974" cy="4.306" rx="4.974" ry="4.306" fill="#ffcb6f"/>
                    </g>
                    <g id="XMLID_719_">
                      <path id="XMLID_1812_" d="M429.986,261.316c0-2.378,2.227-4.306,4.974-4.306a4.951,4.951,0,0,1,4.744,3.008,5.685,5.685,0,0,0-1.5-.2c-2.747,0-4.974,1.928-4.974,4.306a3.778,3.778,0,0,0,.23,1.3A4.427,4.427,0,0,1,429.986,261.316Z" transform="translate(-429.986 -257.01)" fill="#ffae4d"/>
                    </g>
                  </g>
                </g>
                <g id="XMLID_267_">
                  <g id="XMLID_268_">
                    <g id="XMLID_282_" transform="translate(0)">
                      <ellipse id="XMLID_784_" cx="4.974" cy="4.306" rx="4.974" ry="4.306" fill="#ffcb6f"/>
                    </g>
                    <g id="XMLID_281_">
                      <path id="XMLID_543_" d="M349.964,81.324c0-2.378,2.227-4.306,4.974-4.306a4.951,4.951,0,0,1,4.744,3.008,5.684,5.684,0,0,0-1.5-.2c-2.747,0-4.974,1.928-4.974,4.306a3.778,3.778,0,0,0,.23,1.3A4.427,4.427,0,0,1,349.964,81.324Z" transform="translate(-349.964 -77.018)" fill="#ffae4d"/>
                    </g>
                  </g>
                </g>
              </g>
            </g>
            <g id="XMLID_2665_" transform="translate(19.28 1.127)">
              <g id="XMLID_2675_" transform="translate(0 18.796)">
                <path id="XMLID_541_" d="M150.634,115.474a7.257,7.257,0,0,0-5.018-1.935h-3.694V106.42h-7.875v7.119H130.5a7.247,7.247,0,0,0-5.011,1.931l-18.318,17.611a7.512,7.512,0,0,0,9.546,0l9.669-8.37-.043,17.651-1.414,32.145a4.77,4.77,0,0,0-3.779,4.472H131.7l.013-4.678H131.7l4.644-29.034a1.71,1.71,0,0,1,3.287,0l4.644,29.034h-.019l.013,4.678h10.548a4.77,4.77,0,0,0-3.779-4.472l-1.412-32.1-.023-17.8,9.788,8.472a7.512,7.512,0,0,0,9.546,0Z" transform="translate(-107.175 -106.42)" fill="#fed9c9"/>
              </g>
              <g id="XMLID_2681_" transform="translate(34.586 25.915)">
                <path id="XMLID_534_" d="M276.017,146.383A7.257,7.257,0,0,0,271,144.448h-3.694l-.16,45.067,2.51,15.695h-.019l.013,4.678H280.2a4.77,4.77,0,0,0-3.779-4.472l-1.412-32.1-.023-17.8,9.788,8.472a7.512,7.512,0,0,0,9.546,0Z" transform="translate(-267.145 -144.448)" fill="#ffc5b7"/>
              </g>
              <g id="XMLID_2669_" transform="translate(18.812)">
                <path id="XMLID_3434_" d="M219.926,16.949h-1.707c-4.2,0-7.61,2.95-7.61,6.59V29c0,4.046,3.788,7.327,8.461,7.327h.005c4.673,0,8.461-3.28,8.461-7.327V23.539c0-3.64-3.407-6.59-7.61-6.59Z" transform="translate(-207.058 -14.903)" fill="#fed9c9"/>
                <g id="XMLID_2678_" transform="translate(7.132 12.4)">
                  <g id="XMLID_2677_">
                    <ellipse id="XMLID_531_" cx="1.009" cy="1.123" rx="1.009" ry="1.123" fill="#2b1100"/>
                  </g>
                  <g id="XMLID_2676_" transform="translate(7.85)">
                    <ellipse id="XMLID_525_" cx="1.009" cy="1.123" rx="1.009" ry="1.123" fill="#2b1100"/>
                  </g>
                </g>
                <g id="XMLID_2732_">
                  <g id="XMLID_2670_">
                    <path id="XMLID_511_" d="M194.591,11.062l3.7-2.7A12.887,12.887,0,0,1,209.06,6.457c3.323.88,5.591,3.532,5.591,6.536v3.277l-1.137-1.09a3.936,3.936,0,0,0-3.985-.8,17.4,17.4,0,0,1-13.466-.745L194.6,12.576a.906.906,0,0,1,0-1.514Z" transform="translate(-194.185 -6.021)" fill="#cc826a"/>
                  </g>
                  <g id="XMLID_2734_" transform="translate(4.331 0.001)">
                    <path id="XMLID_335_" d="M224.762,6.461a12.913,12.913,0,0,0-10.544,1.752,13.2,13.2,0,0,1,6.218.121,7.162,7.162,0,0,1,5.552,5.866,3.9,3.9,0,0,1,3.228.984l1.137,1.09V13C230.353,9.993,228.084,7.341,224.762,6.461Z" transform="translate(-214.218 -6.026)" fill="#bf7a62"/>
                  </g>
                </g>
              </g>
              <g id="XMLID_2666_" transform="translate(24.781 35.298)">
                <g id="XMLID_2668_">
                  <path id="XMLID_3433_" d="M227.89,197.865a12.832,12.832,0,0,1-5.416-1.186,1.051,1.051,0,0,1-.526-1.522,1.4,1.4,0,0,1,1.758-.455,10.02,10.02,0,0,0,8.3.033l.082-.038a1.4,1.4,0,0,1,1.753.47,1.053,1.053,0,0,1-.543,1.517l-.082.037A12.847,12.847,0,0,1,227.89,197.865Z" transform="translate(-221.792 -194.567)" fill="#2b1100"/>
                  <path id="XMLID_273_" d="M227.89,232.864a12.832,12.832,0,0,1-5.416-1.186,1.051,1.051,0,0,1-.526-1.522,1.405,1.405,0,0,1,1.758-.455,10.019,10.019,0,0,0,8.3.033l.082-.038a1.4,1.4,0,0,1,1.753.47,1.053,1.053,0,0,1-.543,1.517l-.082.037A12.848,12.848,0,0,1,227.89,232.864Z" transform="translate(-221.792 -223.014)" fill="#2b1100"/>
                </g>
              </g>
            </g>
            <path id="XMLID_540_" d="M112.047,46.992a6.136,6.136,0,0,0-6.136,4.306H81.02l-.014-10.472,7.569,6.552a8.956,8.956,0,0,0,11.381,0A1.017,1.017,0,0,0,100,45.832L81.7,28.226a8.664,8.664,0,0,0-5.983-2.307h-2.4V22.362a9.331,9.331,0,0,0,2.947-2.514H88.61a6.136,6.136,0,0,0,6.136,4.306c3.458,0,6.272-2.435,6.272-5.429S98.2,13.3,94.746,13.3A6.136,6.136,0,0,0,88.61,17.6H77.47a7.366,7.366,0,0,0,.4-2.375L77.855,8.1c0-3.52-2.616-6.579-6.509-7.61A14.286,14.286,0,0,0,59.361,2.609l-3.7,2.7a1.953,1.953,0,0,0,.009,3.235,13.062,13.062,0,0,0,2.675,1.638v2.738H41.22a6.136,6.136,0,0,0-6.136-4.306c-3.458,0-6.272,2.435-6.272,5.429s2.813,5.429,6.272,5.429a6.136,6.136,0,0,0,6.136-4.306H58.345v.058a8.253,8.253,0,0,0,4.509,7.116v3.577H60.609a8.658,8.658,0,0,0-5.976,2.3l-5.5,5.292H30.408a6.136,6.136,0,0,0-6.136-4.306c-3.458,0-6.272,2.435-6.272,5.429s2.813,5.429,6.272,5.429a6.136,6.136,0,0,0,6.136-4.306H46.792L36.316,45.832a1.017,1.017,0,0,0,.047,1.546,8.956,8.956,0,0,0,11.381,0l7.447-6.447-.036,14.911-.335,7.623h-13.6a6.136,6.136,0,0,0-6.136-4.306c-3.458,0-6.272,2.435-6.272,5.429s2.813,5.429,6.272,5.429a6.136,6.136,0,0,0,6.136-4.306h13.5l-.947,21.522a5.8,5.8,0,0,0-3.812,5.257,1.222,1.222,0,0,0,1.3,1.114H61.808a1.221,1.221,0,0,0,1.3-1.12l.013-4.678c0-.013,0-.027,0-.041l4.613-28.843a.375.375,0,0,1,.717,0l4.613,28.842c0,.013,0,.027,0,.041l.013,4.678a1.22,1.22,0,0,0,1.3,1.12H84.92a1.222,1.222,0,0,0,1.3-1.114,5.8,5.8,0,0,0-3.812-5.257l-.37-8.418h10.9a6.136,6.136,0,0,0,6.136,4.306c3.458,0,6.272-2.435,6.272-5.429s-2.813-5.429-6.272-5.429a6.136,6.136,0,0,0-6.136,4.306h-11l-.913-23.026h24.889a6.136,6.136,0,0,0,6.136,4.306c3.458,0,6.271-2.435,6.271-5.429s-2.813-5.429-6.272-5.429Zm-17.3-31.45a3.46,3.46,0,0,1,3.677,3.182,3.715,3.715,0,0,1-7.353,0A3.46,3.46,0,0,1,94.746,15.542ZM35.085,17.226a3.46,3.46,0,0,1-3.677-3.182,3.46,3.46,0,0,1,3.677-3.182,3.46,3.46,0,0,1,3.677,3.182A3.46,3.46,0,0,1,35.085,17.226ZM24.272,37.819A3.46,3.46,0,0,1,20.6,34.636a3.46,3.46,0,0,1,3.677-3.182,3.46,3.46,0,0,1,3.677,3.182A3.461,3.461,0,0,1,24.272,37.819ZM35.085,67.771a3.216,3.216,0,1,1,0-6.365,3.216,3.216,0,1,1,0,6.365Zm63.987,6.739A3.216,3.216,0,1,1,95.4,77.693,3.46,3.46,0,0,1,99.072,74.511ZM57.476,6.923l3.558-2.6a11.385,11.385,0,0,1,9.553-1.691A5.85,5.85,0,0,1,75.261,8.1v.634a5.491,5.491,0,0,0-4.322-.282,16.025,16.025,0,0,1-12.225-.634Zm3.464,8.3V11.043a19.112,19.112,0,0,0,10.994-.517c1.479-.531,2.455.446,3.339,1.294v3.406c0,3.421-3.215,6.2-7.166,6.2s-7.166-2.783-7.166-6.2ZM83.42,91.359H75.665s.015-3.593,0-3.709L71.018,58.616c-.458-2.863-5.4-2.865-5.858,0L60.516,87.65c-.018.111,0,3.709,0,3.709H52.758a3.864,3.864,0,0,1,2.662-2.275,1.163,1.163,0,0,0,.914-1.031l1.414-32.145c0-.013,0-.027,0-.04l.043-17.651a1.345,1.345,0,0,0-2.215-.8l-9.669,8.37a6.113,6.113,0,0,1-6.748.664l17.4-16.73c1.983-1.907,4.925-1.559,7.59-1.559a1.22,1.22,0,0,0,1.3-1.123V23.354a11.245,11.245,0,0,0,5.28.009v3.679a1.22,1.22,0,0,0,1.3,1.123c2.706,0,5.735-.373,7.747,1.563L97.158,46.454a6.113,6.113,0,0,1-6.748-.664l-9.788-8.473a1.346,1.346,0,0,0-2.215.8l.023,17.8c0,.014,0,.028,0,.041l1.412,32.1a1.163,1.163,0,0,0,.915,1.031,3.863,3.863,0,0,1,2.663,2.275ZM112.047,55.6a3.46,3.46,0,0,1-3.677-3.182,3.715,3.715,0,0,1,7.353,0A3.46,3.46,0,0,1,112.047,55.6Z" transform="translate(-18 0)" fill="#2b1100"/>
          </g>
        </g>
      </g>
    </g>
  </g>
</svg>
