<svg xmlns="http://www.w3.org/2000/svg" xmlns:xlink="http://www.w3.org/1999/xlink" width="188" height="162.599" viewBox="0 0 188 162.599">
  <defs>
    <clipPath id="clip-path">
      <rect id="Rectángulo_454933" data-name="Rectángulo 454933" width="188" height="162.599" fill="none"/>
    </clipPath>
  </defs>
  <g id="Grupo_1204615" data-name="Grupo 1204615" transform="translate(-289.971 -6438.236)">
    <g id="Grupo_1203498" data-name="Grupo 1203498" transform="translate(289.971 6438.236)" clip-path="url(#clip-path)">
      <path id="Trazado_1258868" data-name="Trazado 1258868" d="M163.429,142.2c21.76-23.418,15.6-51.474,3.551-77.973-6.152-13.532-10.153-27.38-15.54-41.1-2.482-6.321-5.767-12.507-10.818-17.046C126.179-6.885,107.466,3.87,92.973,10.757,70.4,23.032,43.3,29.991,23.521,46.846,8.253,59.858-5.605,83.933,2.289,104.347c3.9,10.094,12.728,17.66,22.486,22.338,17.639,8.456,38.142,9.98,56.562,16.427,13.28,4.648,25.3,16.011,39.6,17.463,15.077,1.531,31.937-7.238,42.034-17.883q.233-.246.462-.492" transform="translate(0 0)" fill="#fff"/>
      <path id="Trazado_1258869" data-name="Trazado 1258869" d="M171.123,143.2c21.76-23.418,15.6-51.473,3.551-77.972-6.152-13.532-10.153-27.38-15.54-41.1-2.482-6.321-5.767-12.507-10.819-17.046-14.442-12.972-33.154-2.216-47.648,4.671C78.1,24.033,50.993,30.992,31.215,47.847,15.947,60.859,2.089,84.934,9.983,105.348c3.9,10.094,12.728,17.66,22.486,22.338,17.639,8.456,38.142,9.98,56.562,16.427,13.28,4.648,25.3,16.011,39.6,17.463,15.077,1.531,31.937-7.238,42.034-17.883Q170.893,143.448,171.123,143.2Z" transform="translate(1.788 0.232)" fill="none" stroke="#c957bc" stroke-miterlimit="10" stroke-width="1"/>
    </g>
    <g id="avatar" transform="translate(342.771 6472.063)">
      <path id="Trazado_1268707" data-name="Trazado 1268707" d="M85.156,94.6V77.059A15.853,15.853,0,0,0,72.845,61.554L62.787,59.205a6.978,6.978,0,0,1-5.413-6.822V50.829a14.049,14.049,0,0,0,5.1-7.37c.059,0,.114.012.175.012A7.1,7.1,0,0,0,68.782,32.7V28.116c0-12.23-9.408-22.179-20.972-22.179S26.838,15.886,26.838,28.116v4.573a7.068,7.068,0,0,0-1.021,3.626,7.164,7.164,0,0,0,7.155,7.155c.061,0,.116-.01.175-.012a14.063,14.063,0,0,0,5.1,7.37v1.554a6.977,6.977,0,0,1-5.411,6.822L22.776,61.554A15.855,15.855,0,0,0,10.465,77.059V94.6A1.734,1.734,0,0,0,12.2,96.333H83.42A1.733,1.733,0,0,0,85.156,94.6ZM63.009,39.968c0-.123.019-.243.019-.366V32.679a3.752,3.752,0,0,1,2,.829,3.635,3.635,0,0,1,1.309,2.809,3.679,3.679,0,0,1-3.33,3.651ZM47.812,9.407c9.651,0,17.5,8.394,17.5,18.711v1.573a7.031,7.031,0,0,0-2.287-.5V25.752a1.733,1.733,0,0,0-1.068-1.6L53.193,20.5a1.729,1.729,0,0,0-1.738.238A21.579,21.579,0,0,1,39.577,24.87a14.646,14.646,0,0,1-4.695-.76,1.734,1.734,0,0,0-2.289,1.644V29.2a7.107,7.107,0,0,0-2.287.489V28.119c0-10.32,7.854-18.712,17.505-18.712ZM29.285,36.317A3.68,3.68,0,0,1,32.6,32.668V39.6c0,.123.016.243.019.366A3.682,3.682,0,0,1,29.285,36.317ZM36.064,39.6V28a18.35,18.35,0,0,0,3.514.336,24.727,24.727,0,0,0,13.171-4.263l6.81,2.835V39.6A10.575,10.575,0,0,1,49,50.167H46.625A10.576,10.576,0,0,1,36.064,39.6Zm5.624,13.116a13.937,13.937,0,0,0,4.937.914H49a13.937,13.937,0,0,0,4.937-.914,10.379,10.379,0,0,0,5.6,8.914,20.155,20.155,0,0,1-11.722,8.642A20.149,20.149,0,0,1,36.09,61.633,10.382,10.382,0,0,0,41.688,52.719Zm40,40.147H70.917V83.193a1.734,1.734,0,1,0-3.468,0v9.673H28.175V83.193a1.734,1.734,0,1,0-3.468,0v9.673H13.935V77.061a12.4,12.4,0,0,1,9.63-12.129l9.169-2.14A23.949,23.949,0,0,0,47.248,73.73l.012,0a1.712,1.712,0,0,0,1.117,0A23.942,23.942,0,0,0,62.891,62.792l9.169,2.14a12.4,12.4,0,0,1,9.63,12.129V92.867Z" transform="translate(0 0)" fill="#752092"/>
    </g>
  </g>
</svg>
