<svg xmlns="http://www.w3.org/2000/svg" xmlns:xlink="http://www.w3.org/1999/xlink" width="123.572" height="106.876" viewBox="0 0 123.572 106.876">
  <defs>
    <clipPath id="clip-path">
      <rect id="Rectángulo_454933" data-name="Rectángulo 454933" width="123.572" height="106.876" fill="none"/>
    </clipPath>
  </defs>
  <g id="Grupo_1204647" data-name="Grupo 1204647" transform="translate(-306.746 -7020.178)">
    <g id="Grupo_1204076" data-name="Grupo 1204076" transform="translate(306.746 7020.178)">
      <g id="Grupo_1203498" data-name="Grupo 1203498" clip-path="url(#clip-path)">
        <path id="Trazado_1258868" data-name="Trazado 1258868" d="M107.421,93.468c14.3-15.393,10.253-33.833,2.334-51.251-4.044-8.895-6.674-18-10.214-27.013C97.909,11.049,95.75,6.984,92.43,4,82.937-4.526,70.638,2.544,61.111,7.07,46.275,15.139,28.46,19.713,15.461,30.791,5.424,39.344-3.684,55.169,1.5,68.587,4.07,75.222,9.87,80.195,16.284,83.27c11.594,5.558,25.071,6.56,37.178,10.8,8.729,3.055,16.63,10.524,26.026,11.478,9.91,1.006,20.992-4.758,27.629-11.754l.3-.323" transform="translate(0 0)" fill="#fff"/>
        <path id="Trazado_1258869" data-name="Trazado 1258869" d="M115.115,94.469c14.3-15.393,10.253-33.833,2.334-51.251-4.044-8.895-6.674-18-10.214-27.013-1.632-4.155-3.79-8.221-7.111-11.2C90.631-3.525,78.332,3.545,68.8,8.071,53.969,16.14,36.154,20.714,23.155,31.792,13.118,40.345,4.01,56.17,9.2,69.588c2.566,6.635,8.366,11.608,14.78,14.683,11.594,5.558,25.071,6.56,37.178,10.8,8.729,3.055,16.63,10.524,26.026,11.478,9.91,1.006,20.992-4.758,27.629-11.754Z" transform="translate(-1.461 -0.19)" fill="none" stroke="#c957bc" stroke-miterlimit="10" stroke-width="1"/>
        <g id="caderas" transform="translate(22.966 19.624)">
          <path id="Trazado_1268681" data-name="Trazado 1268681" d="M111.154,201.649a1.111,1.111,0,0,0,1.086-.885c.073-.352.153-.7.236-1.046a1.111,1.111,0,1,0-2.158-.527c-.09.366-.175.743-.253,1.121a1.111,1.111,0,0,0,.862,1.314A1.127,1.127,0,0,0,111.154,201.649Z" transform="translate(-80.986 -170.754)" fill="#752092"/>
          <path id="Trazado_1268682" data-name="Trazado 1268682" d="M104.919,238.8c-.033.372-.063.753-.088,1.134a1.111,1.111,0,0,0,1.036,1.181l.073,0a1.111,1.111,0,0,0,1.107-1.038c.024-.363.052-.727.084-1.081a1.111,1.111,0,1,0-2.213-.2Z" transform="translate(-76.496 -204.726)" fill="#752092"/>
          <path id="Trazado_1268683" data-name="Trazado 1268683" d="M112.822,359.724a1.111,1.111,0,0,0,2.183-.41c-.059-.316-.125-.678-.195-1.079a1.111,1.111,0,0,0-2.189.379c.072.413.139.785.2,1.11Z" transform="translate(-83.194 -307.652)" fill="#752092"/>
          <path id="Trazado_1268684" data-name="Trazado 1268684" d="M104.337,280.032a1.111,1.111,0,0,0,1.109,1.061h.051a1.111,1.111,0,0,0,1.06-1.16c-.016-.365-.029-.732-.039-1.09a1.111,1.111,0,1,0-2.221.059c.01.372.023.752.041,1.131Z" transform="translate(-76.038 -239.145)" fill="#752092"/>
          <path id="Trazado_1268685" data-name="Trazado 1268685" d="M107.179,320.027a1.111,1.111,0,0,0,1.1.978,1.127,1.127,0,0,0,.135-.008,1.111,1.111,0,0,0,.97-1.236q-.064-.533-.124-1.09a1.111,1.111,0,0,0-2.209.236q.061.572.127,1.119Z" transform="translate(-78.405 -273.52)" fill="#752092"/>
          <path id="Trazado_1268686" data-name="Trazado 1268686" d="M116.975,21.83a23.369,23.369,0,0,1-2.126-2.73l-.357-.605c-1.582-2.675-2.724-4.607-2.56-6.38.052-.56.426-2.692,2.349-10.685a1.111,1.111,0,0,0-2.16-.52c-1.491,6.2-2.3,9.9-2.4,11-.231,2.49,1.133,4.8,2.86,7.716l.355.6a14.32,14.32,0,0,0,1.2,1.664c-4.621,1.179-10.66,2.446-15.265,2.446S88.226,23.07,83.605,21.891a14.332,14.332,0,0,0,1.2-1.664l.355-.6c1.727-2.92,3.091-5.226,2.86-7.716-.1-1.1-.91-4.8-2.4-11a1.111,1.111,0,1,0-2.16.52c1.923,7.993,2.3,10.125,2.349,10.685.164,1.773-.978,3.706-2.56,6.38l-.357.605a23.351,23.351,0,0,1-2.126,2.73c-.64.754-1.357,1.6-2.084,2.541a1.08,1.08,0,0,0-.084.108,21.836,21.836,0,0,0-5,11.949c-.47,7.523,1.957,13.081,3.562,16.758.26.6.506,1.16.711,1.665.491,1.214,1.089,2.516,1.722,3.894,1.725,3.754,3.679,8.008,3.767,11.312a1.111,1.111,0,0,0,1.11,1.081h.03A1.111,1.111,0,0,0,85.578,70c-.1-3.6-1.985-7.854-3.738-11.675a1.11,1.11,0,0,0,.616-1.214l-.211-1.092a1.109,1.109,0,0,0-1.758-.675c-.2-.455-.388-.9-.56-1.323-.216-.533-.468-1.11-.734-1.721-1.611-3.69-3.817-8.744-3.381-15.731a19.048,19.048,0,0,1,4.147-10.211l.745.174.029.006c.075.016,7.552,1.588,11.126,4.916,3.8,3.542,4.227,8.72,4.274,9.887-.939,1.57-2.764,2.306-5.436,2.181-2.1-.1-4.069-1.589-5.354-2.823A1.111,1.111,0,0,0,83.8,42.3c1.56,1.5,4,3.311,6.79,3.44q.342.016.665.016a8.684,8.684,0,0,0,4.794-1.22C95.9,49.337,95.545,58.8,95,63.6c-.229,2.021-.4,4.165-.506,6.374a1.111,1.111,0,0,0,1.056,1.163h.054a1.111,1.111,0,0,0,1.109-1.057c.1-2.161.271-4.258.494-6.231.637-5.627,1.017-17.472,1.121-21.146H99.4c.1,3.674.484,15.518,1.121,21.146.223,1.972.389,4.068.494,6.231a1.111,1.111,0,0,0,1.109,1.057h.055a1.11,1.11,0,0,0,1.056-1.163c-.107-2.21-.277-4.355-.506-6.374-.544-4.807-.9-14.273-1.052-19.073a8.674,8.674,0,0,0,4.806,1.227q.323,0,.665-.016c2.786-.129,5.23-1.942,6.79-3.44a1.111,1.111,0,1,0-1.539-1.6c-1.285,1.234-3.257,2.726-5.354,2.823-2.671.124-4.5-.611-5.436-2.181.047-1.171.471-6.347,4.274-9.887,3.574-3.327,11.051-4.9,11.126-4.915l.029-.006.745-.174a19.047,19.047,0,0,1,4.147,10.211c.437,6.987-1.77,12.041-3.381,15.731-.267.611-.519,1.188-.734,1.721-.172.426-.361.868-.56,1.323a1.109,1.109,0,0,0-1.758.675l-.211,1.092a1.11,1.11,0,0,0,.616,1.214C114.145,62.143,112.256,66.4,112.16,70a1.111,1.111,0,0,0,1.081,1.14h.03a1.111,1.111,0,0,0,1.11-1.081c.088-3.3,2.043-7.558,3.767-11.312.633-1.378,1.232-2.68,1.722-3.894.2-.505.45-1.069.711-1.665,1.606-3.678,4.032-9.236,3.562-16.758-.415-6.636-4.479-11.427-7.168-14.6Zm-12.609,8a16.772,16.772,0,0,0-4.933,10.657H98.3a16.772,16.772,0,0,0-4.933-10.657c-3.639-3.387-10.366-5.056-11.89-5.4q.276-.332.544-.649c4.849,1.278,11.657,2.782,16.845,2.782s11.993-1.5,16.842-2.782q.268.317.544.649c-1.523.344-8.251,2.013-11.89,5.4Z" transform="translate(-49.548 0)" fill="#752092"/>
          <path id="Trazado_1268687" data-name="Trazado 1268687" d="M393.678,278.9a1.111,1.111,0,0,0-2.221-.059c-.009.358-.023.725-.039,1.09a1.111,1.111,0,0,0,1.06,1.16h.051a1.111,1.111,0,0,0,1.109-1.061c.017-.379.031-.76.041-1.131Z" transform="translate(-323.294 -239.144)" fill="#752092"/>
          <path id="Trazado_1268688" data-name="Trazado 1268688" d="M389.4,317.687a1.111,1.111,0,0,0-1.223.986q-.06.556-.124,1.09a1.111,1.111,0,0,0,.97,1.236,1.129,1.129,0,0,0,.135.008,1.111,1.111,0,0,0,1.1-.978q.066-.547.128-1.119a1.111,1.111,0,0,0-.986-1.223Z" transform="translate(-320.393 -273.522)" fill="#752092"/>
          <path id="Trazado_1268689" data-name="Trazado 1268689" d="M381.989,359.316a1.111,1.111,0,1,0,2.183.41c.061-.325.129-.7.2-1.11a1.111,1.111,0,1,0-2.189-.379c-.069.4-.135.763-.195,1.079Z" transform="translate(-315.159 -307.654)" fill="#752092"/>
          <path id="Trazado_1268690" data-name="Trazado 1268690" d="M392.772,238.8a1.111,1.111,0,0,0-2.213.2c.032.354.06.718.084,1.081a1.111,1.111,0,0,0,1.107,1.038l.073,0a1.111,1.111,0,0,0,1.036-1.181C392.834,239.558,392.8,239.177,392.772,238.8Z" transform="translate(-322.552 -204.726)" fill="#752092"/>
          <path id="Trazado_1268691" data-name="Trazado 1268691" d="M386.383,199.19a1.111,1.111,0,0,0-2.158.527c.083.342.163.694.236,1.046a1.111,1.111,0,0,0,1.086.885,1.126,1.126,0,0,0,.227-.023,1.111,1.111,0,0,0,.862-1.314C386.557,199.933,386.472,199.556,386.383,199.19Z" transform="translate(-317.073 -170.753)" fill="#752092"/>
          <path id="Trazado_1268692" data-name="Trazado 1268692" d="M19.924,220.3a1.111,1.111,0,0,0-1.514,1.626l.32.3H17.11a1.111,1.111,0,1,0,0,2.221H18.73l-.32.3a1.111,1.111,0,1,0,1.514,1.626l2.385-2.221a1.111,1.111,0,0,0,0-1.626L19.924,220.3Z" transform="translate(0 -189.404)" fill="#752092"/>
          <path id="Trazado_1268693" data-name="Trazado 1268693" d="M19.924,291.181a1.111,1.111,0,0,0-1.514,1.626l.32.3H17.11a1.111,1.111,0,0,0,0,2.221H18.73l-.32.3a1.111,1.111,0,1,0,1.514,1.626l2.385-2.221a1.111,1.111,0,0,0,0-1.626l-2.385-2.221Z" transform="translate(0 -250.446)" fill="#752092"/>
          <path id="Trazado_1268694" data-name="Trazado 1268694" d="M450.784,226.364a1.111,1.111,0,0,0,1.514-1.626l-.32-.3H453.6a1.111,1.111,0,1,0,0-2.221h-1.621l.32-.3a1.111,1.111,0,1,0-1.514-1.626l-2.385,2.221a1.111,1.111,0,0,0,0,1.626l2.385,2.221Z" transform="translate(-372.06 -189.402)" fill="#752092"/>
          <path id="Trazado_1268695" data-name="Trazado 1268695" d="M453.6,293.1h-1.621l.32-.3a1.111,1.111,0,1,0-1.514-1.626L448.4,293.4a1.111,1.111,0,0,0,0,1.626l2.385,2.221a1.111,1.111,0,0,0,1.514-1.626l-.32-.3H453.6a1.111,1.111,0,1,0,0-2.221Z" transform="translate(-372.06 -250.445)" fill="#752092"/>
        </g>
      </g>
    </g>
  </g>
</svg>
