<svg xmlns="http://www.w3.org/2000/svg" xmlns:xlink="http://www.w3.org/1999/xlink" width="123.572" height="106.876" viewBox="0 0 123.572 106.876">
  <defs>
    <clipPath id="clip-path">
      <rect id="Rectángulo_454933" data-name="Rectángulo 454933" width="123.572" height="106.876" fill="none"/>
    </clipPath>
  </defs>
  <g id="Grupo_1204649" data-name="Grupo 1204649" transform="translate(-847.746 -7020.178)">
    <g id="Grupo_1204078" data-name="Grupo 1204078" transform="translate(847.746 7020.178)">
      <g id="Grupo_1203498" data-name="Grupo 1203498" clip-path="url(#clip-path)">
        <path id="Trazado_1258868" data-name="Trazado 1258868" d="M107.421,93.468c14.3-15.393,10.253-33.833,2.334-51.251-4.044-8.895-6.674-18-10.214-27.013C97.909,11.049,95.75,6.984,92.43,4,82.937-4.526,70.638,2.544,61.111,7.07,46.275,15.139,28.46,19.713,15.461,30.791,5.424,39.344-3.684,55.169,1.5,68.587,4.07,75.222,9.87,80.195,16.284,83.27c11.594,5.558,25.071,6.56,37.178,10.8,8.729,3.055,16.63,10.524,26.026,11.478,9.91,1.006,20.992-4.758,27.629-11.754l.3-.323" transform="translate(0 0)" fill="#fff"/>
        <path id="Trazado_1258869" data-name="Trazado 1258869" d="M115.115,94.469c14.3-15.393,10.253-33.833,2.334-51.251-4.044-8.895-6.674-18-10.214-27.013-1.632-4.155-3.79-8.221-7.111-11.2C90.631-3.525,78.332,3.545,68.8,8.071,53.969,16.14,36.154,20.714,23.155,31.792,13.118,40.345,4.01,56.17,9.2,69.588c2.566,6.635,8.366,11.608,14.78,14.683,11.594,5.558,25.071,6.56,37.178,10.8,8.729,3.055,16.63,10.524,26.026,11.478,9.91,1.006,20.992-4.758,27.629-11.754Z" transform="translate(-1.461 -0.19)" fill="none" stroke="#c957bc" stroke-miterlimit="10" stroke-width="1"/>
        <g id="pie" transform="translate(35.965 25.822)">
          <path id="Trazado_1268705" data-name="Trazado 1268705" d="M48.53,28.848,51.725,1.693a1.516,1.516,0,1,0-3.011-.354l-3.247,27.6a1.517,1.517,0,0,0,.15.855A29.382,29.382,0,0,1,48.7,42.868v.857A4.984,4.984,0,0,1,43.726,48.7H39.047a6.2,6.2,0,0,1-2.76-.652,12.463,12.463,0,0,0-11.1,0,6.2,6.2,0,0,1-2.76.652H7.2a4.17,4.17,0,0,1-4.165-4.168.919.919,0,0,1,.918-.918H8.01a6.68,6.68,0,0,0,3.821-1.193L28.1,31.158a9.633,9.633,0,0,0,4.15-7.92V1.516a1.516,1.516,0,1,0-3.031,0V23.238a6.6,6.6,0,0,1-2.844,5.428L10.1,39.932a3.663,3.663,0,0,1-2.095.654H3.949A3.954,3.954,0,0,0,0,44.539a7.2,7.2,0,0,0,7.2,7.2H22.429a9.245,9.245,0,0,0,4.116-.972,9.416,9.416,0,0,1,8.385,0,9.247,9.247,0,0,0,4.117.972h4.679a8.019,8.019,0,0,0,8.009-8.009v-.857A32.439,32.439,0,0,0,48.53,28.848Z" transform="translate(0 0)" fill="#752092"/>
          <path id="Trazado_1268706" data-name="Trazado 1268706" d="M369.948,282.184a1.522,1.522,0,0,0,2.143.065l.033-.032a6.108,6.108,0,0,0,0-8.636h0a1.516,1.516,0,0,0-2.143,2.144,3.079,3.079,0,0,1,.006,4.343A1.515,1.515,0,0,0,369.948,282.184Z" transform="translate(-332.196 -245.538)" fill="#752092"/>
        </g>
      </g>
    </g>
  </g>
</svg>
