<svg xmlns="http://www.w3.org/2000/svg" xmlns:xlink="http://www.w3.org/1999/xlink" width="70.57" height="271.585" viewBox="0 0 70.57 271.585">
  <defs>
    <clipPath id="clip-path">
      <rect id="Rectángulo_455289" data-name="Rectángulo 455289" width="54.725" height="271.585" fill="none"/>
    </clipPath>
  </defs>
  <g id="Grupo_1204649" data-name="Grupo 1204649" transform="translate(7573.51 1566.55)">
    <g id="Grupo_1113499" transform="translate(-7637.51 -1601.85)">
      <path id="Polígono_9" d="M148.546,449.9l15.846,36.785H132.7L148.546,449.9Z" transform="translate(-29.821 -179.969)" fill="#6e2e88"/>
      <g id="Grupo_1113489" transform="translate(64 35.3)">
        <g id="Grupo_1204184" data-name="Grupo 1204184" clip-path="url(#clip-path)">
          <g id="Grupo_1113488" transform="translate(0.084 0.064)">
            <path id="Trazado_895013" d="M99.332,212.284a18.805,18.805,0,0,1-.623-3.565,26.476,26.476,0,0,0-3.509-8.828,47.774,47.774,0,0,0-8.828-9.677c-1.641-1.415-3.282-2.773-5.037-4.018-.34-.226-.453-.509-.226-1.019,1.132-2.377,2.151-4.867,3.282-7.244.905-1.811,1.811-3.565,2.547-5.433a9.318,9.318,0,0,0,.623-4.131c-.113-1.585,0-3.169-.17-4.81a42.629,42.629,0,0,0-2.037-8.432c-.849-2.6-1.641-5.15-2.32-7.81a5.447,5.447,0,0,1,1.358-5.206,7.773,7.773,0,0,1,5.886-2.66,12.277,12.277,0,0,1,4.754.453,13.552,13.552,0,0,1,3.339,2.037,2.9,2.9,0,0,0,3.339.17,26.441,26.441,0,0,1,7.131-2.377,2.99,2.99,0,0,1,1.415,0,1.566,1.566,0,0,1,1.188,1.019c1.868,4.075,1.358,7.979-.226,12a24.387,24.387,0,0,0-1.245,5.772,41.445,41.445,0,0,0-.17,5.32,18.47,18.47,0,0,0,1.754,7.357c1.358,3.226,3.452,6.112,5.263,9.111a2.638,2.638,0,0,1,.4,2.151,51.543,51.543,0,0,1-6.112,14.431c-2.094,3.226-3.9,6.621-5.829,9.96-1.245,2.207-3.169,3.678-5.037,5.263a.79.79,0,0,1-.849.17" transform="translate(-71.46 -80.546)" fill="#fbd5cf"/>
            <path id="Trazado_895014" d="M121.346,49.766a4.408,4.408,0,0,0,.226,1.188c.453,1.132-.283,2.15-.283,3.282,0,.679-.679,1.019-1.415,1.075a6.09,6.09,0,0,1-6.395-4.131c-.453-1.245-.905-2.49-1.3-3.792a4.372,4.372,0,0,1-.057-2.094,1.369,1.369,0,0,1,.905-1.019c.453-.17.792.113,1.132.4a25.768,25.768,0,0,1,2.773,3.282,2.461,2.461,0,0,0,.4.34c.057-.962.34-1.641,1.471-1.585.113-.849.509-1.585.566-2.433.17-1.3,2.49-2.433,3.678-1.811a1.217,1.217,0,0,0,1.075.113,2.308,2.308,0,0,1,3,1.075,1.141,1.141,0,0,1,.17.623,4.675,4.675,0,0,1-4.414,5.829,8.118,8.118,0,0,1-1.585-.4" transform="translate(-84.928 -38.398)" fill="#e9cbc7"/>
            <path id="Trazado_895015" d="M80.4,48.977a3.042,3.042,0,0,0-1.585.453,2.419,2.419,0,0,1-3.339-.849l-.17-.34c-.566-1.132-.962-2.264-1.528-3.4-.905-1.811.4-4.414,2.32-5.037a4.963,4.963,0,0,1,2.377-.623,5.057,5.057,0,0,1,3.678,3.678,6.579,6.579,0,0,0,.226,1.019A6.841,6.841,0,0,1,83.4,43.6c.962-.057,1.358.4,1.075,1.3a2.261,2.261,0,0,0-.113,1.075c.566-.226.736-.849,1.132-1.188.34-.283.679-.736,1.188-.4.453.283.34.792.17,1.188L85.149,50c-.453,1.188-.623,2.433-1.132,3.622a1.991,1.991,0,0,1-2.15,1.415c-1.019-.113-1.358-.736-1.585-1.7a14.064,14.064,0,0,1,0-4.358" transform="translate(-68.199 -37.043)" fill="#e9cbc7"/>
            <path id="Trazado_895018" d="M76.288,46.951c-3,1.245-5.772-.4-6.678-3.622-.792-2.886,1.7-7.187,5.489-7.47a3.452,3.452,0,0,1,3.735,3.226v1.3a6.222,6.222,0,0,1,3-1.754c.113,0,.283,0,.34-.113,1.075-1.981,3-1.924,4.81-2.037a17.866,17.866,0,0,1,7.3,1.415,13.892,13.892,0,0,1,2.83,1.245c.17-.679,0-1.3.17-1.924a2.876,2.876,0,0,1,4.075-1.471,3.657,3.657,0,0,0,1.528.283c2.83,0,4.527,1.811,4.414,4.924a5.774,5.774,0,0,1-3,5.263,19.182,19.182,0,0,1-2.886.962v2.094c.849-.113,1.3-.509,1.245-1.358.623,0,.566.453.453.792-.226.905-1.132,1.358-2.66,1.245a5.65,5.65,0,0,0,4.924,1.471,7.739,7.739,0,0,1-3.9.849c.905,1.528.283,3-.226,4.358-.453,1.188-.905,2.49-2.264,3.056-.283.113-.34.453-.4.792a10.824,10.824,0,0,1-3.056,5.489c-.623.623-.34,1.585-.509,2.377a29.827,29.827,0,0,0-.226,3.169c-.4,2.66,1.019,4.188,3.169,5.376a45.218,45.218,0,0,0,8.489,3.226,5.984,5.984,0,0,1,4.358,4.7c.905,3.4.509,6.734.226,10.13-.226,2.433-.453,4.924-.679,7.357-.283,3.113-.679,6.169-.905,9.281-.4,4.867-.849,9.734.34,14.544.679,2.66.4,5.433.4,8.206a2.227,2.227,0,0,0,.34,1.188,44.432,44.432,0,0,1,5.886,9.507,30.387,30.387,0,0,1,1.981,8.036,60.088,60.088,0,0,1,.34,11.941,122.49,122.49,0,0,1-1.585,12.846c-.905,5.263-2.264,10.356-3.678,15.506-.905,3.226-2.207,6.395-3.226,9.564-1.471,4.7-3.282,9.224-5.206,13.752a8.442,8.442,0,0,0-.509,4.414c.4,3.509.849,6.961.962,10.47a33.788,33.788,0,0,1-2.6,13.752c-2.943,7.583-6.734,14.714-10.243,22.014a21.178,21.178,0,0,0-2.037,8.319c-.17,3.339.453,6.565.792,9.9.226,2.433.453,4.867.623,7.3.283,3.282.849,6.508,1.3,9.734a6.932,6.932,0,0,0,.113,1.075c.283,2.83-1.3,3.565-3.565,3.226a13.567,13.567,0,0,1-9.281-5.716c-1.415-2.037-1.358-4.584-1.019-7.074a31.6,31.6,0,0,1,1.471-5.15,58.726,58.726,0,0,0,2.377-9.9c.113-.736.679-1.245.679-2.094A21.31,21.31,0,0,0,83.192,271c-1.019-3.622-1.528-7.357-2.32-11.035a74.826,74.826,0,0,1-1.641-13.752,68.113,68.113,0,0,1,.509-10.753c.453-3.848,1.358-7.64,1.3-11.545a32.356,32.356,0,0,0-1.3-7.357,47.361,47.361,0,0,0-3.226-8.715,108.6,108.6,0,0,1-6.338-17.261A85.5,85.5,0,0,1,67.4,179.206a84.818,84.818,0,0,1-.679-12,58.323,58.323,0,0,1,.905-11.771,50.149,50.149,0,0,1,3.4-10.583,5.557,5.557,0,0,0,.226-4.358,46.228,46.228,0,0,1-2.66-16.412,81.855,81.855,0,0,0-1.075-9.847c-.566-4.358-1.415-8.6-1.924-12.96-.283-2.377-.962-4.7-1.245-7.074-.509-4.018-.17-7.979,2.547-11.318,1.415-1.754,3.4-2.377,5.376-3.169,3.565-1.415,7.244-2.6,10.526-4.81,1.471-1.019,1.471-2.377,1.528-3.735.113-1.811-.113-3.565-.057-5.376a1.163,1.163,0,0,0-.453-1.019,10.275,10.275,0,0,1-2.66-3.735.931.931,0,0,0-1.019-.679,2.584,2.584,0,0,1-2.15-1.132c-1.075-1.471-1.811-3.113-1.075-5.037a2.039,2.039,0,0,0,0-1.528,9.864,9.864,0,0,1-.509-5.716m-2.886,94.226c-1.188,2.83-2.32,5.546-3.282,8.376a51.522,51.522,0,0,0-2.66,15.223,77.366,77.366,0,0,0,.17,10.243,51.985,51.985,0,0,0,.905,7.187c.679,2.83,1.415,5.6,2.207,8.432a86.78,86.78,0,0,0,4.131,11.884c2.037,4.584,4.358,9,5.489,13.922a53.675,53.675,0,0,1,1.471,8.432,32.949,32.949,0,0,1-.679,7.074c-.4,2.49-.849,4.98-1.075,7.527a65.3,65.3,0,0,0-.17,8.149,66.108,66.108,0,0,0,1.019,9.451c.792,3.961,1.415,7.923,2.264,11.884.623,2.886,1.528,5.716,1.075,8.772-.17,1.075-.623,2.037-.792,3.113-.283,1.585-.736,3.169-1.075,4.754-.623,2.773-1.924,5.376-2.32,8.206a13.139,13.139,0,0,0-.226,4.188,7.751,7.751,0,0,0,3.792,5.6,40.79,40.79,0,0,0,5.829,2.433,3.259,3.259,0,0,0,1.471.113c1.528-.113,2.037-.679,1.754-2.15a52.638,52.638,0,0,1-.905-5.206c-.34-2.207-.736-4.414-.905-6.621-.113-2.037-.4-4.075-.509-6.112-.113-2.377-.509-4.754-.566-7.074a89.977,89.977,0,0,1,.283-9.564c.283-4.188.792-8.319,1.188-12.45.4-4.471.849-9,1.245-13.469.283-3.169.509-6.395.849-9.564a101.743,101.743,0,0,0,.34-13.129c-.113-4.471-.34-8.885-.509-13.356-.057-1.868,0-3.735-.113-5.6-.283-3.848-.283-7.7-.453-11.545-.17-2.886-.17-5.716-.4-8.6-.4-5.037-.736-10.073-1.3-15.11a28.629,28.629,0,0,0-5.546-14.374,51.81,51.81,0,0,0-7.017-7.074,50.888,50.888,0,0,0-5.093-3.961M91.115,269.018c1.585-3.735,3.509-7.244,5.263-10.866,2.151-4.471,4.244-9,6-13.639a35.228,35.228,0,0,0,2.15-9.055,49.2,49.2,0,0,0-.113-7.64c-.113-1.7-.226-3.4-.453-5.093a14.066,14.066,0,0,1,.226-5.546,87.779,87.779,0,0,1,3.509-9.79c.905-2.433,1.528-4.98,2.49-7.414a111.431,111.431,0,0,0,3.961-12.79c.849-3.282,1.585-6.621,2.15-9.96a89.113,89.113,0,0,0,1.415-11.035,62.751,62.751,0,0,0,.113-9.225,40.886,40.886,0,0,0-1.754-10.073,36.506,36.506,0,0,0-3.9-7.527c-.566-.905-1.3-1.7-1.924-2.6-.4,1.358-.736,2.66-1.132,3.9a42.49,42.49,0,0,1-2.716,7.357c-1.981,3.9-4.3,7.64-6.395,11.488a20.485,20.485,0,0,1-7.3,7.923c-.4.226-.4.566-.283.962.453,2.83.566,5.716.849,8.6.283,3.113.453,6.282.566,9.394.226,5.433.509,10.809.566,16.242,0,3.509.226,7.074.17,10.639,0,2.83-.057,5.659.113,8.489a71.1,71.1,0,0,1,0,10.979c-.226,2.773-.34,5.6-.679,8.376-.509,3.961-.679,7.979-1.132,12-.34,2.943-.566,5.886-.905,8.772-.226,2.377-.509,4.754-.736,7.187M73.8,140.61a62.128,62.128,0,0,1,11.771,10.7,25.833,25.833,0,0,1,6.169,13.526A4.209,4.209,0,0,0,92.3,167.1c1.981-1.641,3.961-3.169,5.263-5.376,2.377-4.075,4.81-8.206,7.187-12.28a48.069,48.069,0,0,0,4.754-12.224,1.889,1.889,0,0,0-.283-1.811c-.905-1.132-1.471-2.49-2.264-3.678a31.764,31.764,0,0,1-2.773-4.867,23.369,23.369,0,0,1-2.037-11.432,29.024,29.024,0,0,1,1.868-9.055,12.819,12.819,0,0,0,.509-8.942c-.849-2.716-.679-2.943-3.622-2.49a19.147,19.147,0,0,0-1.924.453c-1.924.453-3.565,1.7-5.489,2.094a2.534,2.534,0,0,1-2.49-.4,10.643,10.643,0,0,0-3.678-2.207,9.99,9.99,0,0,0-8.149.736c-2.49,1.471-4.131,3.622-3.282,6.678.679,2.32,1.358,4.7,2.094,6.961a43.037,43.037,0,0,1,2.264,8.828c.17,1.7,0,3.4.17,5.093a7.662,7.662,0,0,1-.623,4.075c-1.924,4.414-4.018,8.772-6.055,13.3m-1.471,1.188c.283-.679.453-1.245.736-1.811,1.528-3.113,3.056-6.169,4.584-9.224a.82.82,0,0,0,.057-.623,113.456,113.456,0,0,1-1.641-13.808c-.283-3.792-.4-7.64-.623-11.432-.17-2.6-.4-5.263-.736-7.866-.17-1.3-.17-2.66-.283-4.018h.283c.623,1.868.453,3.9,1.019,5.829.453-.679.849-1.358,1.3-1.924a6.606,6.606,0,0,1,3.282-2.547c3.678-.962,7.244-.736,10.413,1.641a3.675,3.675,0,0,0,4.131.4c2.83-1.3,5.659-2.66,9-2.094.17-1.188.4-2.264.566-3.4a2.539,2.539,0,0,1,.4,1.7c-.113,1.019-.566,2.037,0,3.056a13.431,13.431,0,0,1,.4,10.356,55.449,55.449,0,0,0-1.868,7.47,23.8,23.8,0,0,0,1.019,11.941c.849,2.377,2.6,4.188,3.792,6.338.4.736.905,1.415,1.528,2.433a38.244,38.244,0,0,0-.34-7.187c-.283-1.811-.736-3.622-.905-5.433a44.584,44.584,0,0,1,0-6.734c.17-3.226.453-6.451.792-9.677.226-2.15.792-4.188.849-6.338a46.612,46.612,0,0,1,.4-5.6,18,18,0,0,0-.283-8.319c-.509-1.641-1.245-3.113-3.056-3.678-.623-.226-1.245-.4-1.924-.623-2.943-.962-6-1.7-8.545-3.622-1.075-.849-2.433-1.528-2.547-3.169,0-.623-.113-1.188-.113-1.811a47.88,47.88,0,0,1,.453-4.98A3.624,3.624,0,0,0,92.757,68.4,4.65,4.65,0,0,1,91,70.267a1.545,1.545,0,0,1-2.32-.283,8.674,8.674,0,0,1-1.641-2.151c-.453-.905-1.3-1.3-2.207-1.981v5.263c0,1.3,0,2.773-1.245,3.678a23.734,23.734,0,0,1-4.641,2.716c-2.943,1.188-5.829,2.377-8.772,3.565-3.226,1.3-4.471,4.075-5.093,7.187-.623,3.226,0,6.452.453,9.621.792,5.489,1.868,10.922,2.716,16.355a69.232,69.232,0,0,1,1.019,11.884,39.834,39.834,0,0,0,.679,7.3,60.221,60.221,0,0,0,2.264,8.319M86.7,44.121a1.388,1.388,0,0,1-1.019-1.188,2.436,2.436,0,0,1,1.188-2.547,2.556,2.556,0,0,1,3.056.792,9.4,9.4,0,0,1,1.415,3.169,14.091,14.091,0,0,0,1.641,4.7,6.345,6.345,0,0,0,6.565,3.339,1.183,1.183,0,0,0-.453-1.3,14.064,14.064,0,0,1-3.622-4.867,10.071,10.071,0,0,0-2.6-4.414,4.992,4.992,0,0,1,2.15,2.433A15.058,15.058,0,0,0,98.076,49.1c.226.226.4.509.849.453a22.121,22.121,0,0,1-1.7-2.547c-1.641-3.9-4.018-7.074-8.262-8.432-1.415-.453-3.622-.566-4.244,1.188a2.369,2.369,0,0,0,.453,2.49c-1.528-.962-2.6-.113-3.735.4a3.507,3.507,0,0,1,2.433-1.415c-1.415-.34-2.264.736-3.4,1.188a4.094,4.094,0,0,1,3.509-1.7c.226-2.32,1.924-3.509,4.3-2.886,4.754,1.188,7.753,4.3,9.621,8.715a4,4,0,0,0,2.943,2.66,4.649,4.649,0,0,0,0-2.49c-.17-2.83-1.075-5.376-3.565-6.848a18.842,18.842,0,0,0-11.262-2.943c-1.358.113-2.943.283-3.452,1.981a4.6,4.6,0,0,0-3.848,2.716,13.549,13.549,0,0,0-1.585,10.356c.113.4.17,1.019.623,1.019a2.952,2.952,0,0,1,1.754.679,9.93,9.93,0,0,1,.792-4.7,7.36,7.36,0,0,1,3.056-3.509c-3.056,2.773-3.622,6.338-3.169,10.413a2.276,2.276,0,0,1-.679-1.188,1.393,1.393,0,0,0-1.358-1.019c-.623,0-.623.679-.736,1.132a4.605,4.605,0,0,0,1.075,3.9,1.752,1.752,0,0,0,1.981.849,3.827,3.827,0,0,1,0-2.15c.34.17.34.509.4.736,1.3,4.471,4.471,7.357,8.262,9.677a2.452,2.452,0,0,0,2.49,0,13.933,13.933,0,0,0,5.32-5.093c1.754-3.056,1.868-6.565,2.6-10.073-2.547.509-4.471-1.019-6.678-1.528-.057-.283.509-.4.17-.849C91.4,48.422,91,46.158,90.776,43.781c-.057-.962-.736-1.245-1.585-.679-.17.113-.283.4-.623.283.17-.962.962-.905,1.7-.905-.4-.962-1.075-1.019-1.868-.736-1.019.4-1.132,1.075-.4,2.037-.905-.509-.962-.566-.905-1.132.113-1.3,1.358-1.245,2.207-1.641a2.115,2.115,0,0,0-2.6-.057c-.736.792-.736,1.868,0,3.056M78.326,39.82c.226-2.773-2.377-3.848-4.471-3.169a5.88,5.88,0,0,0-3.4,3.282A5.288,5.288,0,0,0,73.8,47.12a2.2,2.2,0,0,0,2.773-1.585,22.488,22.488,0,0,1,.849-2.773,5.219,5.219,0,0,0,.4-2.037A1.51,1.51,0,0,0,76.345,39.2a1.246,1.246,0,0,0-.453.057,3.891,3.891,0,0,0-2.264,5.15c2.433-3.792,2.716-4.075,4.018-3.509a2.208,2.208,0,0,0-1.924,1.075c-.849,1.471-2.6,2.716-1.188,4.754h-.17c-1.7-1.754-2.547-4.754-.34-7.074,1.358-1.471,2.886-1.415,4.244.113m22.976,6.678a4.406,4.406,0,0,0,4.188-4.7v-.283a6.423,6.423,0,0,0-4.244-5.15,2.453,2.453,0,0,0-2.49.113,2.505,2.505,0,0,0-.905,2.433c.113.849.736,1.245,1.358,1.754.509-.792.905-1.811,2.094-1.528a2.072,2.072,0,0,1,1.471,1.924c-.283-.283-.566-.566-.849-.905-.34-.453-.792-.792-1.358-.34-.509.453-1.075,1.019-.679,1.754a9.6,9.6,0,0,1,1.415,4.98M78.212,129.122a10.825,10.825,0,0,0,1.811-7.3,38.271,38.271,0,0,0-1.585-8.432L76.4,107.278c.453,7.3.509,14.6,1.811,21.845M105.32,44.744a6.033,6.033,0,0,0,1.245-5.886c-.509-1.924-2.15-2.377-3.848-2.66,3.169,2.15,4.075,4.98,2.6,8.489M98.7,59.231c1.585-.905,2.83-4.527,2.716-5.716a.96.96,0,0,0-.792-.905c-1.471,1.868-1.075,4.3-1.924,6.621m.623-9.225a3.046,3.046,0,0,0,3.4,1.754,7.815,7.815,0,0,1-3.4-1.754" transform="translate(-64.148 -35.413)" fill="#8e3b22"/>
            <path id="Trazado_895019" d="M102.119,361.6a4.605,4.605,0,0,1,.113.509,4.561,4.561,0,0,0,.4,3.339,1.16,1.16,0,0,1-.34,1.528c-.623-1.754-1.641-3.452-.17-5.376" transform="translate(-80.302 -177.004)" fill="#8e3b22"/>
            <path id="Trazado_895020" d="M126.7,361.189c.849-1.754-.113-3.735.736-5.489.566.17.4.792.34,1.245a5.094,5.094,0,0,0,0,2.264,1.986,1.986,0,0,1-1.019,1.981" transform="translate(-91.301 -174.443)" fill="#8e3b22"/>
            <path id="Trazado_895021" d="M108.4,136.758c-1.132-1.868-2.773-3-4.3-4.358,1.358.113,4.244,2.886,4.3,4.358" transform="translate(-81.491 -77.513)" fill="#8e3b22"/>
            <path id="Trazado_895022" d="M103.957,81.638a2.093,2.093,0,0,0,1.811-.4,2.642,2.642,0,0,1,3,0c.4.226.736.679,1.358.283-1.075.736-1.415,2.377-3.113,2.037-1.245-.283-2.037-1.3-3.113-1.924" transform="translate(-81.404 -55.104)" fill="#8e3b22"/>
            <path id="Trazado_895023" d="M90.1,57.075c.057-3.226,3.792-7.7,6.112-6.282-3.226.283-4.414,2.66-5.489,5.15-.17.4-.17.849-.566,1.132" transform="translate(-75.413 -41.973)" fill="#8e3b22"/>
            <path id="Trazado_895024" d="M96.3,63.571c1.7-1.415,5.433-2.264,6-.4-2.094-.792-3.961.4-6,.4" transform="translate(-78.105 -46.997)" fill="#8e3b22"/>
            <path id="Trazado_895025" d="M98.5,68.8a6.238,6.238,0,0,0,3.735,0c-.057.679-1.019,1.245-1.981,1.188-.962-.113-1.754-.623-1.754-1.188" transform="translate(-79.06 -49.906)" fill="#8e3b22"/>
            <path id="Trazado_895026" d="M111.5,75.461c0-.792.736-1.245.453-2.094a2.005,2.005,0,0,1,.226-1.868c.17.905.17,1.754.283,2.66a1.026,1.026,0,0,1-.679,1.245h-.226" transform="translate(-84.703 -51.078)" fill="#8e3b22"/>
            <path id="Trazado_895027" d="M118.143,68.4c-.283.962-1.019,1.075-1.754,1.019-.566-.057-1.075-.17-1.188-1.019,1.019.905,1.981.623,2.943,0" transform="translate(-86.309 -49.732)" fill="#8e3b22"/>
            <path id="Trazado_895028" d="M113.345,63.6c-.453.905-1.132,1.7-.962,2.83a2.212,2.212,0,0,1,.962-2.83" transform="translate(-85.02 -47.649)" fill="#8e3b22"/>
            <path id="Trazado_895029" d="M132.1,48.72c0-.679.057-1.358.113-2.32a1.661,1.661,0,0,1-.113,2.32" transform="translate(-93.645 -40.182)" fill="#8e3b22"/>
          </g>
        </g>
      </g>
    </g>
  </g>
</svg>
