<svg xmlns="http://www.w3.org/2000/svg" xmlns:xlink="http://www.w3.org/1999/xlink" width="62.41" height="263.417" viewBox="0 0 62.41 263.417">
  <defs>
    <clipPath id="clip-path">
      <rect id="Rectángulo_455293" data-name="Rectángulo 455293" width="51.432" height="263.417" fill="none"/>
    </clipPath>
  </defs>
  <g id="Grupo_1204651" data-name="Grupo 1204651" transform="translate(7572.51 783.14)">
    <g id="Grupo_1113497" transform="translate(-7641.91 -818.24)">
      <rect id="Rectángulo_406759" width="21.956" height="35.678" transform="translate(109.854 262.838)" fill="#6e2e88"/>
      <g id="Grupo_1113493" transform="translate(69.4 35.1)">
        <g id="Grupo_1204188" data-name="Grupo 1204188" clip-path="url(#clip-path)">
          <g id="Grupo_1113492" transform="translate(-0.045 -0.11)">
            <path id="Trazado_895060" d="M105.733,39.428a7.476,7.476,0,0,1,4.885-.439c1.866.439,2.58,1.976,3.458,3.348,1.537,2.36,1.537,5.05,1.866,7.739.274,2.415,0,4.995,1.1,7.136,1.262,2.525,1.153,5.05.933,7.63-.11,1.647-1.372,2.415-2.525,3.239l-.494.165c-2.031.933-2.8.494-2.8-1.811a.659.659,0,0,0-.165-.329c-.329,1.153-1.427,1.592-1.921,2.58a3.5,3.5,0,0,1-1.811,1.372,1.374,1.374,0,0,1-1.756-.384,1.745,1.745,0,0,1-.384-2.031,20.2,20.2,0,0,1,1.262-2.415,21.8,21.8,0,0,0,2.909-9.606,12.527,12.527,0,0,0-.22-2.47,1.883,1.883,0,0,0-1.482-1.427,19.2,19.2,0,0,1-6.038-2.909.86.86,0,0,0-.823-.274A3.866,3.866,0,0,1,97.61,46.4c-.549-1.427-1.427-2.745-1.647-4.611C94.591,43.929,94.1,47,90.639,45.026a24.591,24.591,0,0,0-1.1,3.4,47.443,47.443,0,0,1-1.482,5.654c-.6,2.086,0,5.269,1.811,6.477,1.427.988,1.811,2.415,2.2,3.9a24.728,24.728,0,0,0,.768,2.69c.22.659.659,1.317,0,1.921s-1.262,0-1.921-.165a.964.964,0,0,0-.22.274,2.717,2.717,0,0,1-3.9,1.153,1.758,1.758,0,0,0-1.647-.165,2.931,2.931,0,0,1-2.69-.329c-3.074-2.031-3.678-4.5-2.2-7.849.768-1.811,2.031-3.293,2.854-5.05a4.315,4.315,0,0,0,.439-1.427,35.761,35.761,0,0,1,1.482-7.52,8.146,8.146,0,0,1,1.208-2.854A9.615,9.615,0,0,1,88.333,42.5c1.1-.823,2.031-1.921,3.074-2.854,1.592-1.427,3.678-1.7,5.709-2.141a25.771,25.771,0,0,0,4.007-.768,3.588,3.588,0,0,1,4.446,1.921,7.641,7.641,0,0,0,.329.714" transform="translate(-73.907 -35.64)" fill="#e9cbc7"/>
            <path id="Trazado_895063" d="M85.632,136.062c10.594,1.866,20.968.878,31.342-1.262-.165,2.47,1.1,4.391,1.427,6.587a24.781,24.781,0,0,1,.11,4.94c-.274,3.184-2.086,5.983-2.415,9.112a15.363,15.363,0,0,0-.22,3.9,20.09,20.09,0,0,1,0,4.062,29.8,29.8,0,0,0,.11,3.129c.384,3.513,1.153,6.971,1.811,10.429.384,2.141.988,4.172,1.427,6.312a11.136,11.136,0,0,1,.494,3.293,5.888,5.888,0,0,1-1.317,2.69,77.7,77.7,0,0,1-7.136,8.179c-1.262,1.372-2.525,2.744-3.842,4.007a29.189,29.189,0,0,1-4.885,3.678c-1.043.6-1.592.384-2.086-.659a36.722,36.722,0,0,0-8.618-12.57,15.54,15.54,0,0,0-5.818-3.9c-.768-.22-.6-.933-.494-1.427a129.153,129.153,0,0,1,4.007-13.393,15.7,15.7,0,0,0,.823-6.751c-.384-3.678-1.372-7.245-1.976-10.868-.494-2.854-.988-5.654-1.317-8.563a60.354,60.354,0,0,0-1.153-7.685c-.22-.988.055-2.086-.329-3.293" transform="translate(-76.585 -79.965)" fill="#e95823"/>
            <path id="Trazado_895064" d="M144.569,137.269c-.274-1.482-.988-2.69-.878-4.172a1.264,1.264,0,0,1,.988-1.317,19.257,19.257,0,0,0,5.654-2.47c.165-.11.439-.055.714-.11.274,2.031-.329,4.007-.165,5.983,0,.274-.11.384-.384.494a17.266,17.266,0,0,1-5.983,1.592" transform="translate(-102.862 -77.439)" fill="#e95823"/>
            <path id="Trazado_895065" d="M71.6,132.755a6.213,6.213,0,0,1,2.635.823,18.157,18.157,0,0,0,3.842,1.1c.878.165,1.208.659,1.153,1.262-.11,1.1.274,2.2,0,3.4-2.47-.11-4.995.274-7.465-.494-.22-2.031.22-4.007-.11-6.148" transform="translate(-70.347 -79.018)" fill="#e95823"/>
            <path id="Trazado_895066" d="M99.278,52.774c-2.415-2.415-3.348-5.489-3.9-8.782,1.537,4.94,4.007,9,9.606,10.264a25.018,25.018,0,0,0-.274-7.575,5.242,5.242,0,0,0-2.69-3.952c-.11-.055-.165-.22-.22-.329a4.72,4.72,0,0,1,3.239,3.4,22.262,22.262,0,0,1,.768,7.355,78.856,78.856,0,0,1-1.1,12.954,12.6,12.6,0,0,1-2.47,6.477,4.632,4.632,0,0,0,2.964-2.36c1.153-1.537,1.482-3.513,2.36-5.16s.714-3.293.714-4.995V54.75a25.871,25.871,0,0,1,0-4.611,41.488,41.488,0,0,1,.384,4.5c0,3.513.494,6.971.22,10.484a11.31,11.31,0,0,1-1.647,5.763A3.49,3.49,0,0,1,105.92,72.1c-.439.165-.823.22-1.043-.329a1.1,1.1,0,0,0,1.317-.384,16.478,16.478,0,0,0,1.372-2.031c.6-.988-.11-2.031.384-2.964a1.016,1.016,0,0,0,0-1.043c-.878,2.25-1.317,4.721-3.129,6.422-.988.768-1.921,1.7-3.568,1.1,2.69-2.635,2.8-6.093,3.184-9.386-.659,1.153-1.1,2.415-1.647,3.623-.329.714,0,1.756-.329,2.58a4.257,4.257,0,0,1-2.909,2.8,10.109,10.109,0,0,0,.549,4.391,4.629,4.629,0,0,0,2.964,2.58,25.862,25.862,0,0,0,9.606.988,3.93,3.93,0,0,1,2.69.823,6.428,6.428,0,0,1,2.305,4.391,52.748,52.748,0,0,1,.22,9.77,31.134,31.134,0,0,0,.659,7.136,99.311,99.311,0,0,1,1.317,9.88c.384,3.293.549,6.587.823,9.935a9.668,9.668,0,0,1-2.415,7.026,23.024,23.024,0,0,1-5.818,4.995,2.641,2.641,0,0,1-.878.439c-.549.055-.549.439-.439.878.494,2.25.988,4.446,1.372,6.7.329,1.866.329,3.733.549,5.544a67.9,67.9,0,0,1,.439,11.088,73.9,73.9,0,0,1-1.262,10.978c-.768,3.9-1.537,7.739-2.305,11.582-.6,3.129-1.317,6.2-1.921,9.331-.714,3.733-1.372,7.41-1.921,11.143a70.9,70.9,0,0,0-.823,9.606,49.033,49.033,0,0,0,.933,9.386,66.047,66.047,0,0,1,1.153,18c-.439,5.763-1.866,11.307-2.964,16.906-.659,3.4-1.208,6.861-1.7,10.319a65.435,65.435,0,0,0-.165,9.276,54.655,54.655,0,0,1-.274,6.7A12.469,12.469,0,0,1,99,288.856a4.43,4.43,0,0,0-1.317,3.513,39.06,39.06,0,0,1,0,4.391,8.063,8.063,0,0,1-.384,2.525c-.494-.494-.11-1.043-.165-1.537-.274-3.4-.384-6.861-.714-10.264-.274-3.238-.494-6.477-.549-9.77a76.6,76.6,0,0,1,.274-9.386c.165-1.921-.11-3.842-.11-5.763,0-2.854-.165-5.654,0-8.508.165-3.952.055-7.849.055-11.8a84.831,84.831,0,0,1,1.262-17.126A47.419,47.419,0,0,0,98.235,213c-.22-4.391-.6-8.837-.933-13.228-.329-4.227-.823-8.453-1.043-12.68a110.691,110.691,0,0,0-.768-11.307c-.494-3.293-.823-6.642-1.647-9.935A31.728,31.728,0,0,0,88.355,155.2a33.373,33.373,0,0,0-6.587-6.751,10.879,10.879,0,0,0-3.458-1.976,9.03,9.03,0,0,0-.768,3.184c-.6,3.074-1.153,6.148-1.537,9.331-.274,2.58-.165,5.16-.22,7.739a49.584,49.584,0,0,0,.659,8.563c.714,4.227,1.592,8.453,2.58,12.68,1.317,5.434,2.69,10.813,4.227,16.193.988,3.458,1.921,6.916,2.909,10.374a16.178,16.178,0,0,1-.6,9.661,34.3,34.3,0,0,0-1.427,9.112,43.193,43.193,0,0,0,.439,8.837,79.444,79.444,0,0,0,2.25,9.99c.714,2.36,1.317,4.721,1.811,7.136a90.956,90.956,0,0,1,1.647,18.5c0,1.427.165,2.854.165,4.281a26.143,26.143,0,0,1-1.262,6.806c-.6,2.251-1.482,4.391-1.372,6.806a3.872,3.872,0,0,0,2.744,3.623c1.1.329,2.031,1.043,3.074,1.427,1.921.659,2.525.494,3.513-1.1.274,1.153-.549,2.086-1.976,2.2a7.48,7.48,0,0,1-5.05-1.866c-1.592-1.317-3.074-2.745-3.184-5.05a12.267,12.267,0,0,1,.988-4.83,25.918,25.918,0,0,0,1.592-7.355c.22-3.348.165-6.7.165-10.045a59.867,59.867,0,0,0-.878-7.685c-.714-5.269-2.47-10.319-3.842-15.424a53.4,53.4,0,0,1-2.086-13.832,42.555,42.555,0,0,1,2.25-13.887,12.521,12.521,0,0,0,.22-8.014c-1.647-4.995-3.239-10.045-4.721-15.095-1.1-3.678-1.866-7.465-2.8-11.2-.6-2.36-1.043-4.721-1.537-7.136a69.207,69.207,0,0,1-1.262-9.5c-.055-1.811-.329-3.568-.329-5.379a31.682,31.682,0,0,1,.549-6.038c.439-2.141.494-4.336.768-6.532.439-3.074,1.1-6.148,1.756-9.167a45.483,45.483,0,0,1,1.811-6.477,21.839,21.839,0,0,1-5.379-3.568,22.181,22.181,0,0,1-4.172-5.654,9.769,9.769,0,0,1-.549-5.6c.274-2.305.165-4.556.274-6.861.165-4.391,0-8.837.11-13.228.055-4.5.22-9,.384-13.448a11.123,11.123,0,0,1,1.153-4.775c1.262-2.36,3.348-3.184,5.763-3.623a39.654,39.654,0,0,0,10.1-2.964,3.311,3.311,0,0,0,2.25-2.854c0-.933.274-1.866.329-2.8C90,69.3,90,69.3,87.641,67.54a5.893,5.893,0,0,0,1.921,3.787,2.157,2.157,0,0,1-1.592-1.317,13.2,13.2,0,0,1-1.043-4.336c-.165-1.153-.329-2.305-1.756-2.69-1.482,1.756.384,8.4,3.184,9.935a.872.872,0,0,1-1.1-.329h0c-.11,0-.22,0-.274-.11a10.631,10.631,0,0,1-2.635-5.6c-.055-.384.055-.878-.384-1.262-.22,2.305,0,4.446,1.482,6.257.494.6.988.988,1.811.659-.274.823-.823.878-1.482.494a4.186,4.186,0,0,1-1.866-2.25,9.438,9.438,0,0,1-.165-6.148c.165-.714,1.153-.988,1.1-1.976a7.659,7.659,0,0,1-1.921-5.873c.11-.768.384-1.427,1.262-1.482-.494-2.964-.494-5.763,1.811-8.069-1.427,1.976-1.647,4.172-1.7,6.806.494-1.208.329-2.36.988-3.239-.165,1.043-.22,2.141-.439,3.184a4.112,4.112,0,0,0,.165,2.305c.659,1.811,1.043,3.733,1.7,5.6.6,1.866.659,4.007,2.086,5.489,3.184,3.293,7.849,4.775,11.856,1.537a9.237,9.237,0,0,0,2.8-4.5,10.3,10.3,0,0,1,.659-1.647c.988-1.976.659-4.062.768-6.148.11-1.811,0-1.866-1.756-2.36-1.208-.329-2.25-1.043-3.513-1.153l-.384-.384m10.484,40.619C99.333,95.424,89.069,96.412,78.749,94.6a34.429,34.429,0,0,0,.494,4.721c.6,3.952,1.1,7.9,1.647,11.856s1.7,7.849,2.305,11.8a18.574,18.574,0,0,1-.714,8.837,93.8,93.8,0,0,0-3.952,13.228c-.055.384-.165.768.384.988a15.435,15.435,0,0,1,4.611,2.854,34.182,34.182,0,0,1,8.014,9.935c.823,1.592,1.592,3.184,2.25,4.83a6.313,6.313,0,0,0,3.129-1.592,39.355,39.355,0,0,0,6.971-6.532,67.484,67.484,0,0,0,7.081-8.233c.6-.878,1.427-1.7,1.208-3.019-.439-3.348-1.427-6.532-2.031-9.825-.823-4.83-1.976-9.551-1.7-14.491.11-2.25-.329-4.5.22-6.751.439-1.756.988-3.513,1.592-5.215a16.2,16.2,0,0,0-.22-11.472,4.324,4.324,0,0,1-.384-3.239M94.064,164.256c.439,1.647.988,3.184,1.262,4.83a101.7,101.7,0,0,1,1.811,15.2c0,2.2.165,4.446.384,6.642.494,4.666.878,9.331,1.1,14,.165,3.9.384,7.794.274,11.692v.988a13.7,13.7,0,0,1-.329,5.6,92.936,92.936,0,0,0-1.647,17.4c-.11,5.16.055,10.319-.165,15.479-.11,2.031-.055,4.007,0,6.038a44.349,44.349,0,0,1,.11,6.038q-.329,4.775-.329,9.551a77.78,77.78,0,0,0,.659,7.959c.11,1.208.22,2.47.329,3.732.055,0,.11-.055.165-.11.22-.274.439-.6.659-.878,2.744-3.074,3.4-6.806,3.458-10.758,0-2.36-.165-4.775-.274-7.136-.165-3.787.659-7.465,1.208-11.143.494-3.678,1.427-7.3,2.2-10.923a64.026,64.026,0,0,0,1.592-12.515,86.9,86.9,0,0,0-.988-13.613,55.925,55.925,0,0,1-.878-6.7,74.152,74.152,0,0,1,.549-12.57c.549-4.227,1.262-8.453,1.976-12.68.439-2.58.988-5.16,1.427-7.74.714-3.9,1.482-7.739,2.2-11.637.659-3.568,1.262-7.081,1.592-10.7a85.576,85.576,0,0,0,.22-11.252,23.386,23.386,0,0,0-.329-3.129A62.668,62.668,0,0,1,106.633,153c-2.415,2.69-4.5,5.6-7.355,7.849-1.592,1.262-3.184,2.635-5.324,3.129m16.8-71.851a32.187,32.187,0,0,0,5.544-2.141,1.514,1.514,0,0,0,.988-1.811,30.669,30.669,0,0,0-.439-3.239c-.6-2.415-1.811-4.391-4.995-3.9a17.291,17.291,0,0,1-8.508-.988c-2.58-.988-4.391-2.58-4.556-5.489A16.862,16.862,0,0,1,99,70.833a5.327,5.327,0,0,0-1.537.878c-1.7,1.317-3.129,1.208-4.556-.384a16.909,16.909,0,0,0-2.525-1.7,31.613,31.613,0,0,1-.165,4.556c-.22,1.592-.549,3.074-2.36,3.623-.933.329-1.756.714-2.69,1.1-3.019,1.208-6.2,1.647-9.276,2.415a5.805,5.805,0,0,0-4.227,3.568c-.768,1.756-.659,3.568-.878,5.379a1.513,1.513,0,0,0,.878,1.647,23.339,23.339,0,0,0,6.038,1.866c.11-.439.22-.823.329-1.208a.5.5,0,0,1,.439.549c-.11.988.494,1.043,1.208,1.1,1.262.11,2.58.384,3.842.494,2.305.165,4.666.384,6.971.439s4.611-.329,6.971-.494a94.368,94.368,0,0,0,11.692-1.921,1.177,1.177,0,0,0,.933-.878,13.812,13.812,0,0,1,.274-2.031c.768.768.274,1.592.329,2.47m-32.44,6.7a22.8,22.8,0,0,1-7.465-.384c-.11,3.568-.274,7.026-.329,10.429-.055,4.94.11,9.825-.329,14.765-.22,2.69.878,4.775,2.305,6.751a17.967,17.967,0,0,0,7.3,6.093c.714-1.811,1.482-3.678,2.25-5.544a.666.666,0,0,0-.165-.714c-1.482-1.317-2.415-3.074-3.678-4.556a4.811,4.811,0,0,1-1.208-3.4c0-4.062.878-8.069,1.427-12.076a34.534,34.534,0,0,0,.6-5.215,60.324,60.324,0,0,0-.714-6.148m33.154-.659a18.354,18.354,0,0,1-.714,11.252,1.338,1.338,0,0,0,0,.659c.384,1.976.823,3.952,1.153,5.928.439,2.47.933,4.995-.549,7.3-.494.768-.878,1.537-1.317,2.305a1.7,1.7,0,0,0-.22,1.262c.384,2.415.823,4.885,1.262,7.41a7.775,7.775,0,0,0,.988-.439,24.631,24.631,0,0,0,5.818-5.1,8.544,8.544,0,0,0,2.36-5.873c-.11-2.141-.165-4.281-.439-6.422-.6-5.215-.823-10.484-1.976-15.589a26.934,26.934,0,0,1-.494-4.227,15.46,15.46,0,0,1-5.873,1.482M79.3,108.6l-.165,1.811c-.494,3.293-.988,6.642-1.427,9.935-.274,2.086-.165,4.062,1.592,5.6l.329.494c.823,1.208,1.7,2.36,2.58,3.623a8.927,8.927,0,0,0,.549-5.6c-.988-5.324-2.635-10.539-3.458-15.918m31.836-10.649a21.683,21.683,0,0,0,5.1-1.208,1.348,1.348,0,0,0,1.043-1.537h0a18.6,18.6,0,0,1,.11-2.47V90.1a20.892,20.892,0,0,1-5.983,2.69,1.259,1.259,0,0,0-1.043,1.317c-.11,1.317.768,2.36.823,3.787M70.845,92.075V97.4a.7.7,0,0,0,.549.823h.055a37.325,37.325,0,0,0,6.532.22c.11-1.1-.165-2.086,0-3.074.11-.659-.22-1.043-.933-1.153a23.1,23.1,0,0,1-6.2-2.141m38.752,33.1c.988-2.141,2.909-3.9,1.756-6.532v-.22c-.384-2.2-.768-4.391-1.153-6.642-.988,1.756-1.372,11.307-.549,13.393M86.1,62.874c-.549-2.2-.988-4.172-1.482-6.093-.11-.329-.165-.768-.659-.768-.439,0-.494.439-.494.714A6.97,6.97,0,0,0,86.1,62.874M99.717,72.1a4.531,4.531,0,0,0,2.58-4.062c-.714.439-.823,1.372-1.482,1.647-1.1.439-1.1,1.317-1.1,2.415" transform="translate(-69.318 -38.283)" fill="#8e3b22"/>
            <path id="Trazado_895067" d="M106.67,36.931a10.3,10.3,0,0,1,2.909.329c2.2.714,3.019,2.635,3.787,4.556,1.208,2.909,1.482,6.038,2.25,9.057.823,3.348,1.811,6.7,2.69,10.045a9.629,9.629,0,0,1,.22,4.83,2.679,2.679,0,0,1-1.7,2.031c-1.153.384-2.305.878-3.458,1.317a1.212,1.212,0,0,1-.878,0,4.565,4.565,0,0,0,2.47-3.787c-.494.659-.6,1.372-1.153,1.756-.494.384-.823,1.043-1.647,1.043,2.525-1.811,2.744-4.336,2.36-7.081.384,1.208,1.317,2.141,1.043,3.513-.22,1.317-.22,2.635-1.153,3.733a4.221,4.221,0,0,0,3.678-5.215c-.6-3.074-1.537-6.093-2.36-9.112-.878-3.184-1.317-6.422-2.141-9.606a15.805,15.805,0,0,0-1.921-4.666c-1.153-1.921-2.964-2.305-5.434-2.2-.11-1.427-.659-1.866-2.36-1.921a30.49,30.49,0,0,0-8.892,1.482,13.188,13.188,0,0,0-6.2,3.348c-2.141,2.2-3.019,4.995-3.623,7.9A35.2,35.2,0,0,1,84,54.111a9.278,9.278,0,0,1-2.635,3.678c-4.007,3.623-1.866,9.77,2.141,11.856a11.687,11.687,0,0,0,1.811.6c-.384.439-.768.274-1.153.165-4.446-1.208-7.575-7.739-3.513-12.405A13.325,13.325,0,0,0,84,50.6a23.432,23.432,0,0,1,2.086-7.355A11.424,11.424,0,0,1,92.4,37.37a31.292,31.292,0,0,1,11.362-2.47c1.976,0,2.8.6,2.964,1.921" transform="translate(-73.581 -34.9)" fill="#8e3b22"/>
            <path id="Trazado_895068" d="M104.032,47.769c.165,2.36.659,4.007,1.482,4.995-1.262.22-3.842-2.36-4.281-4.391-.494-2.25-.165-5.434,1.811-5.873a5.842,5.842,0,0,0-1.153,4.721,9.053,9.053,0,0,0,2.36,4.391,22.487,22.487,0,0,1-.659-3.842,13.071,13.071,0,0,1,.384-3.842c.439,4.5,2.58,7.63,7.136,8.837-2.086.549-5.05-1.592-7.136-5.05" transform="translate(-83.623 -38.328)" fill="#8e3b22"/>
            <path id="Trazado_895069" d="M87.925,79.3c-1.976,4.995.22,9.661,4.007,10.758a3.5,3.5,0,0,1-4.007-1.1c-2.141-2.964-2.141-6.038-.494-9.222.11-.22.22-.439.494-.439" transform="translate(-76.957 -54.929)" fill="#8e3b22"/>
            <path id="Trazado_895070" d="M117.855,52.145l.384.384c-.439.494-.823.055-1.153-.11a9.4,9.4,0,0,1-4.446-5.763c-.329-1.1-.549-2.2-.823-3.293a3.8,3.8,0,0,0-1.317-2.2c.6-.384.878,0,1.153.274a10.325,10.325,0,0,1,1.647,4.117,12.143,12.143,0,0,0,3.348,5.873,1.9,1.9,0,0,0,1.262.659" transform="translate(-87.895 -37.654)" fill="#8e3b22"/>
            <path id="Trazado_895071" d="M111.9,82.85a4.387,4.387,0,0,1,4.556-.055c-.6.988-1.208,1.976-2.58,1.976-1.208,0-1.427-1.153-1.976-1.921" transform="translate(-88.527 -56.228)" fill="#8e3b22"/>
            <path id="Trazado_895072" d="M99.6,64.456c1.482-1.208,4.94-1.208,6.148,0-2.141.11-4.117-.878-6.148,0" transform="translate(-82.978 -47.824)" fill="#8e3b22"/>
            <path id="Trazado_895073" d="M107.641,364.6c-.549-.933-.11-1.757.165-2.58.384-.988-1.153-1.427-.6-2.415.6.22,1.592,1.482,1.427,1.976-.329.988-.714,1.976-.988,2.964" transform="translate(-86.353 -181.372)" fill="#8e3b22"/>
            <path id="Trazado_895074" d="M126.028,64.968a16.27,16.27,0,0,0-5.16,0c-.329.055-.768.11-.768-.329s.439-.439.768-.439a14.113,14.113,0,0,1,5.215.714" transform="translate(-92.226 -48.117)" fill="#8e3b22"/>
            <path id="Trazado_895075" d="M103.3,69.9c1.262.22,2.47,1.537,3.787.055a1.7,1.7,0,0,1-1.592,1.208,2.407,2.407,0,0,1-2.2-1.262" transform="translate(-84.647 -50.689)" fill="#8e3b22"/>
            <path id="Trazado_895076" d="M124.868,70.2a2.533,2.533,0,0,1-3.019.988q-.494-.165-.549-.988c1.208.768,2.415,1.153,3.568,0" transform="translate(-92.767 -50.824)" fill="#8e3b22"/>
            <path id="Trazado_895077" d="M112.2,64.8c2.141.988,2.141,3.239,1.208,4.775a6.014,6.014,0,0,0,.22-2.744c-.22-.878-1.372-.933-1.427-2.031" transform="translate(-88.662 -48.388)" fill="#8e3b22"/>
            <path id="Trazado_895078" d="M113.582,76.2l.823,2.141c-.933-.329-1.153-.714-.823-2.141" transform="translate(-89.22 -53.53)" fill="#8e3b22"/>
            <path id="Trazado_895079" d="M117.419,163.466c-.988.329-1.866.988-3.019.823a10.027,10.027,0,0,0,4.446-2.69c-.11.988-.823,1.153-1.043,1.647l-.384.22" transform="translate(-89.655 -92.054)" fill="#8e3b22"/>
            <path id="Trazado_895080" d="M118.817,164.548l.384-.22c.439,0,.714-.494,1.372-.274a14.083,14.083,0,0,1-3.074,1.7c.274-.714,1.1-.659,1.317-1.262" transform="translate(-91.053 -93.136)" fill="#8e3b22"/>
            <path id="Trazado_895081" d="M129.565,360c-.384,1.372.055,2.8-.384,4.117a3.945,3.945,0,0,1-1.372,1.757c-.329-.494.165-.768.329-1.043a2.614,2.614,0,0,0,.494-2.36c-.384-1.1.384-1.756.988-2.47" transform="translate(-95.653 -181.553)" fill="#8e3b22"/>
          </g>
        </g>
      </g>
    </g>
  </g>
</svg>
