<svg xmlns="http://www.w3.org/2000/svg" xmlns:xlink="http://www.w3.org/1999/xlink" width="80.997" height="284.02" viewBox="0 0 80.997 284.02">
  <defs>
    <clipPath id="clip-path">
      <rect id="Rectángulo_455295" data-name="Rectángulo 455295" width="61.725" height="283.724" fill="none"/>
    </clipPath>
  </defs>
  <g id="Grupo_1204652" data-name="Grupo 1204652" transform="translate(7572.51 410.194)">
    <g id="Grupo_1113496" transform="translate(-7630.41 -445.994)">
      <circle id="Elipse_11496" cx="19.271" cy="19.271" r="19.271" transform="translate(100.355 281.279)" fill="#6e2e88"/>
      <g id="Grupo_1113495" transform="translate(57.9 35.8)">
        <g id="Grupo_1204190" data-name="Grupo 1204190" clip-path="url(#clip-path)">
          <g id="Grupo_1113494" transform="translate(-0.034 -0.178)">
            <path id="Trazado_895082" d="M90.35,214.345a26.872,26.872,0,0,0-2.016-4.388,18.585,18.585,0,0,0-3.617-4.151c-2.253-1.838-4.388-3.676-6.7-5.4a31.971,31.971,0,0,0-10.436-5.455c-1.6-.474-3.143-1.008-4.862-1.364.593-1.6,1.127-3.143,1.779-4.625,1.008-2.312,2.135-4.625,3.083-7,1.6-3.913,3.024-7.827,4.625-11.74a31.39,31.39,0,0,0,2.016-6.463c.415-2.728.237-5.336-1.72-7.412a16.281,16.281,0,0,1-3.736-6.878,10.892,10.892,0,0,1,.889-7.471c.593-1.245,1.067-2.49,1.779-3.676.652-1.127.119-2.372-.356-3.558a3.133,3.133,0,0,0,0,1.482c.356,1.482-.534,2.668-1.067,3.913-.119.3-.534.178-.83.178-1.66-.237-3.261-.593-4.921-.771a1.486,1.486,0,0,1-1.482-1.364v-.059c-.178-2.49-.474-5.04.593-7.471a10.6,10.6,0,0,1,2.55-3.32.541.541,0,0,1,.652-.119,35.7,35.7,0,0,0,6.937,2.016,33.533,33.533,0,0,0,4.8.712,96.183,96.183,0,0,0,11.681.178c3.913-.119,7.827-.3,11.681-.712a51.719,51.719,0,0,0,9.961-1.838,33.918,33.918,0,0,0,4.032-1.66,1.474,1.474,0,0,1,2.194.712,13.884,13.884,0,0,1,1.542,5.277c.059,2.075,0,4.091-.119,6.107,0,.178,0,.415-.178.534a10.845,10.845,0,0,1-5.455,2.728.9.9,0,0,1-1.008-.652,6.116,6.116,0,0,1-.534-4.447v-.771a3.746,3.746,0,0,0-.237,4.328,17.358,17.358,0,0,1,2.075,7.056,15.741,15.741,0,0,1-.178,5.277c-.474,2.312-2.016,4.091-3.38,5.87a3.957,3.957,0,0,0-.889,2.253,31.788,31.788,0,0,0,3.083,15.12c1.9,4.151,3.676,8.361,5.277,12.63a28.144,28.144,0,0,1,1.186,3.795c.3,1.423-.771,2.312-1.6,3.2a48.883,48.883,0,0,1-10.377,7.649c-1.957,1.127-3.913,2.312-5.87,3.439a24.162,24.162,0,0,0-4.625,3.913c-1.542,1.482-2.965,3.2-4.981,4.151a1.766,1.766,0,0,1-1.245.237m4.032-57.4a27.866,27.866,0,0,0,6.937,1.838c-2.312-.534-4.506-1.779-6.937-1.838" transform="translate(-59.779 -72.216)" fill="#fbd5cf"/>
            <path id="Trazado_895083" d="M80.957,43.5V42.61a5.9,5.9,0,0,1,1.72-4.566c.771-.949,1.957-1.008,3.024-1.364,2.312-.771,4.447,0,6.641.771,2.728.949,4.981,2.787,7.53,4.032a2.538,2.538,0,0,1,.83.949,13.064,13.064,0,0,0,4.21,3.143c2.49,1.245,3.439,3.38,3.736,5.929a41.866,41.866,0,0,1,0,5.455,2.333,2.333,0,0,0,.771,1.72,14.312,14.312,0,0,1,4.21,5.692,2.143,2.143,0,0,1-.178,1.9,8.2,8.2,0,0,1-2.905,2.965c-.83.534-.712,1.3-.534,2.016a4.639,4.639,0,0,0,1.067,2.075c.593.593.356,1.245-.474,1.364-1.127.178-2.312.652-3.439-.178-.237-.178-.534-.059-.83.059-2.609,1.423-4.328,1.127-6.344-.949a1.385,1.385,0,0,0-.415-.415c0,.949.652,1.482,1.245,2.075.178.178.534.356.356.712s-.593.119-.83,0a3.242,3.242,0,0,1-2.135-3.913,11.791,11.791,0,0,1,2.194-4.981,4.878,4.878,0,0,0,.356-3.32c-.059-.415-.178-.771.237-.889a.975.975,0,0,0,.712-1.067c0-.83.889-1.542.474-2.431a19.2,19.2,0,0,0-1.008-1.9,6.132,6.132,0,0,0-2.135-2.135,13.7,13.7,0,0,1-4.506-4.151,5.591,5.591,0,0,0,.356,2.609c0,.178.178.3.178.474.119.474.771,1.067.178,1.423-.652.415-1.067-.3-1.423-.771a9.138,9.138,0,0,1-1.6-7.175c.3-1.364.178-1.6-1.245-1.957a4.824,4.824,0,0,0-2.253,0,14.48,14.48,0,0,0-5.514,2.253c-2.965,2.075-4.032,5.159-3.736,8.716a8.7,8.7,0,0,1-.356,4.269,4.042,4.042,0,0,1-1.3,1.838c.889.949.889,2.431,2.431,2.846.356.119.593.593.83.949A32.558,32.558,0,0,0,84.87,71.9c.119.119.178.356.3.356.474,0,.949,0,1.127.593a2.618,2.618,0,0,1,0,1.9c0,.119-.059.178-.119.3-.178.474-.237,1.127-.83,1.067-.771-.059-.119-.771-.534-1.186-1.3,1.186-2.668,2.55-4.744,1.779-.119-.534.415-.415.415-.712a1.987,1.987,0,0,0-2.135.119,5.56,5.56,0,0,1-2.55.771,1,1,0,0,1-1.127-.83h0a4.743,4.743,0,0,0,2.965-1.186c-.237-.415-.593-.474-.889-.652-1.6,1.364-4.566,1.186-5.455-.356a2.462,2.462,0,0,1,1.482-.178,1.363,1.363,0,0,1,.83-1.3,19.392,19.392,0,0,0-3.439-2.312,2.991,2.991,0,0,1-1.779-2.075l-.356-1.245c-.712-1.957-.534-2.609,1.186-3.676,1.482-.889,2.668-2.075,4.091-3.083.83-.593.356-1.542.178-2.194-1.186-3.795.059-7.234,1.779-10.436a6.9,6.9,0,0,1,5.87-3.617" transform="translate(-61.83 -35.851)" fill="#e9cbc7"/>
            <path id="Trazado_895086" d="M91.2,59.141a6.193,6.193,0,0,1-.889-5.1,10.367,10.367,0,0,0,1.067,1.72c1.364,1.6,2.787,3.143,4.862,3.795,1.838.593,2.609,2.668,2.135,4.862a3.769,3.769,0,0,1-1.66,2.55c1.542.3,2.49-1.008,2.846-3.558.474.415.3.949.178,1.364a4.354,4.354,0,0,1-.889,2.075,5.853,5.853,0,0,0-.119,8.183,1.487,1.487,0,0,1,.237.415c-1.245-.178-2.431-2.075-2.55-4.21a10.041,10.041,0,0,0-2.135,7.708,50.541,50.541,0,0,0,.949,5.218A4.9,4.9,0,0,0,97.9,87.425a34.859,34.859,0,0,0,8.835,2.787c1.72.356,3.5.712,5.277,1.008a7.055,7.055,0,0,1,5.4,4.862,16.865,16.865,0,0,1,.593,9.072c-.356,1.779,0,3.617-.178,5.455-.237,4.151-.356,8.242-.712,12.393a90.475,90.475,0,0,0-.415,12.689,51.141,51.141,0,0,0,2.016,10.732,33.925,33.925,0,0,1,.356,14.646c-.534,3.143,0,6.285,0,9.428a102.431,102.431,0,0,1-.593,11.266,88.357,88.357,0,0,1-1.9,10.5,106.045,106.045,0,0,1-5.455,17.077c-2.135,5.218-4.388,10.376-6.7,15.535-.771,1.779-1.66,3.5-2.431,5.277a9.972,9.972,0,0,0-.474,5.277,30.6,30.6,0,0,1,0,8.064c-.534,6.463-2.787,12.452-5.455,18.322a79.009,79.009,0,0,0-4.862,13.1,26.371,26.371,0,0,0-.474,4.8c-.178,3.083-.474,6.226-.652,9.309a66.732,66.732,0,0,0,.771,14.586c.415,2.609.593,5.336.83,7.945a70.483,70.483,0,0,1,.652,7.115,7.787,7.787,0,0,1-.949,4.151,1.422,1.422,0,0,1-1.3.712c-4.328.237-7.708-1.6-10.969-4.21-2.194-1.779-1.957-3.913-1.72-6.107a34.551,34.551,0,0,1,2.253-8.835,1.075,1.075,0,0,0-.178-1.186,10.994,10.994,0,0,1-1.838-7.234c.119-3.2,1.067-6.226,1.72-9.309.356-1.6.534-3.2.771-4.8.237-1.779-.474-3.439-1.008-5.1-2.016-6.641-4.388-13.163-5.574-19.982a33.834,33.834,0,0,1-.119-10.377c.237-1.779.949-3.38,1.3-5.1a14,14,0,0,0-.593-6.819c-1.245-4.151-3.38-7.886-4.981-11.918a190.16,190.16,0,0,1-6.226-18.025c-1.364-4.8-2.609-9.665-3.854-14.527A53.543,53.543,0,0,1,58,182.474c-.3-2.728-.059-5.455-.119-8.183a44.434,44.434,0,0,1,1.542-11.5,19.841,19.841,0,0,0,.3-3.736,51,51,0,0,1,2.312-12.63,40.778,40.778,0,0,0,1.3-8.894c.178-3.32-.534-6.463-.83-9.724-.474-5.277-1.364-10.554-1.838-15.832a86.821,86.821,0,0,1-.474-10.377,9.181,9.181,0,0,1,4.744-8,32.819,32.819,0,0,1,6.048-2.372c2.728-.949,5.633-1.423,8.064-3.143a6.778,6.778,0,0,0,3.261-5.929,36.283,36.283,0,0,0-.237-5.1.956.956,0,0,0-.356-.771,16.589,16.589,0,0,1-5.1-6.344c-.119-.237-.178-.474-.474-.593a3.047,3.047,0,0,1-2.372-2.372,5.081,5.081,0,0,0-2.253,5.277,2.267,2.267,0,0,0,1.957,1.838,4.089,4.089,0,0,1,1.779.83,2.115,2.115,0,0,1,.652,3.2c-.237.415-.474.83-.771,1.364a3.753,3.753,0,0,0,2.135-2.016,9.093,9.093,0,0,0,.652-2.787,4.86,4.86,0,0,1-.415,5.336,3.187,3.187,0,0,0,2.312-.593c.652-.415.83-1.245,1.364-1.9.356,1.6-1.3,2.846-2.728,2.965a2.853,2.853,0,0,1-1.72-.237,2.088,2.088,0,0,0-1.957.178,1.884,1.884,0,0,1-2.075-.059v-.237c1.542-.237,1.838-1.72,2.668-2.609.652-.712.237-1.779-.83-2.49a5.438,5.438,0,0,0-1.364-.534,2.918,2.918,0,0,1-2.135-2.787,5.484,5.484,0,0,1,2.135-5.1,4.865,4.865,0,0,0,1.9-4.388,17.806,17.806,0,0,1,.534-6.107A8.442,8.442,0,0,1,80.231,50.9c.474-.237.652-.474.593-.949a4.084,4.084,0,0,1,3.2-4.269A3.834,3.834,0,0,1,88,48.824a18.7,18.7,0,0,1,.356,5.752,4.934,4.934,0,0,0,2.728,4.566M61.019,160.772c.119,0,.237.119.356.119a41.588,41.588,0,0,1,9.131,3.143,49.282,49.282,0,0,1,8.835,5.989,35.9,35.9,0,0,1,6.048,5.574,19.713,19.713,0,0,1,3.2,6.167c.356-.178.652-.3.949-.415a17,17,0,0,0,4.388-3.558,32.214,32.214,0,0,1,5.989-4.981c2.905-1.72,5.989-3.261,8.776-5.218a40.817,40.817,0,0,0,6.819-5.514c.771-.83,1.779-1.6,1.364-2.965a100.734,100.734,0,0,0-4.566-12.452,74.267,74.267,0,0,1-3.024-7.056,35.173,35.173,0,0,1-1.838-11.859,3.619,3.619,0,0,1,.889-2.431c1.482-1.779,2.965-3.617,3.439-5.929a17.766,17.766,0,0,0-1.72-11.444,5.688,5.688,0,0,1-.771-3.083,4,4,0,0,1,1.067-2.312c-.356,2.253-.3,4.328,1.008,6.226a8.222,8.222,0,0,0,3.439-1.186c1.6-.83,2.55-1.779,2.55-3.854,0-3.083,0-6.107-1.3-8.953-.593-1.3-1.245-1.6-2.49-.949-.593.3-1.245.593-1.9.889-4.091,1.66-8.42,2.135-12.748,2.55-3.973.415-7.945.534-11.977.593-5.218.059-10.377.178-15.476-.949A41.665,41.665,0,0,1,64.4,94.9a8.071,8.071,0,0,0-2.787,3.5c-1.067,2.372-.712,4.862-.534,7.293a1.066,1.066,0,0,0,1.008,1.127h0c1.66.3,3.38.534,5.1.83.415.059.593-.119.83-.474a6.251,6.251,0,0,0,.712-4.921c-.059-.415-.059-.712.237-.83a6.19,6.19,0,0,1-.237,6.463c-1.423,2.431-2.431,5.04-1.957,8a12.191,12.191,0,0,0,3.024,6.76,9.348,9.348,0,0,1,2.787,6.878,19.441,19.441,0,0,1-1.6,6.878c-2.431,6.582-5.04,13.1-7.945,19.508-.771,1.66-1.364,3.38-2.016,5.04m-.119.474a14.158,14.158,0,0,0-1.127,3.38,33.363,33.363,0,0,0-1.364,8.657,83.841,83.841,0,0,0,.356,8.657,51.8,51.8,0,0,0,1.542,9.072c1.364,4.862,2.609,9.784,3.973,14.646a151.8,151.8,0,0,0,6.107,17.433,97.25,97.25,0,0,1,4.921,13.341,11.117,11.117,0,0,1-.059,6.522,27.455,27.455,0,0,0-1.067,9.309A46.812,46.812,0,0,0,76.2,263.885c1.008,3.558,2.016,7.115,3.083,10.614a57.362,57.362,0,0,1,2.431,10.851A53.828,53.828,0,0,1,81.95,296.5a30.019,30.019,0,0,1-1.779,8.776,29.471,29.471,0,0,0-2.431,8.064,4.968,4.968,0,0,0,1.779,4.921,46.311,46.311,0,0,0,6.522,4.091,7.691,7.691,0,0,0,4.151.652.7.7,0,0,0,.652-.534,6.218,6.218,0,0,0,.712-2.728c0-1.9-.237-3.736-.356-5.633-.3-3.261-.534-6.582-1.127-9.843A64.1,64.1,0,0,1,88.71,291.22a50.209,50.209,0,0,1,.534-6.7,78.713,78.713,0,0,0,.83-9.843c.119-2.431.3-4.862.593-7.293.3-2.135.593-4.328.83-6.463.3-3.5.237-7,.237-10.5a46.2,46.2,0,0,0-.474-7.59,20.884,20.884,0,0,1-.534-3.795c0-1.779.3-3.5.237-5.337-.119-2.668.119-5.336,0-7.945-.119-2.253,0-4.506,0-6.76V208.563c0-3.676-.356-7.352-.652-11.029A68.5,68.5,0,0,0,87.7,182.474a17.392,17.392,0,0,0-4.8-8.183,85.683,85.683,0,0,0-8.953-7.115,42,42,0,0,0-13.223-5.87m30.6,111a61.217,61.217,0,0,1,3.973-10.554,73.03,73.03,0,0,0,4.921-14.468,35.681,35.681,0,0,0,.652-10.021,18.893,18.893,0,0,1,1.66-10.2c2.55-5.218,4.684-10.614,6.878-16.009a122.939,122.939,0,0,0,5.929-17.61,100.579,100.579,0,0,0,2.846-16.721A60.667,60.667,0,0,0,118,164.448a22.76,22.76,0,0,0-.652-3.5,19.447,19.447,0,0,1-4.684,4.921,79.907,79.907,0,0,1-11.207,6.878,15.154,15.154,0,0,0-4.862,3.558,33.651,33.651,0,0,1-4.388,4.328,5.493,5.493,0,0,1-3.5,1.6A45.457,45.457,0,0,1,90.9,192.672c.415,3.439.356,6.878.771,10.317.652,5.692.474,11.385.593,17.077,0,3.083,0,6.226.059,9.309,0,1.957-.119,3.913-.119,5.87,0,1.838-.474,3.676-.059,5.514a29.843,29.843,0,0,1,.593,3.32,91.649,91.649,0,0,1,.237,9.9A76.525,76.525,0,0,1,92.03,266.2a42.586,42.586,0,0,0-.593,6.107M113.91,92.7a3.852,3.852,0,0,0-1.364-.534,82.369,82.369,0,0,1-12.511-3.2c-2.135-.83-4.269-1.779-5.218-4.091a20.011,20.011,0,0,1-1.245-9.131,18.282,18.282,0,0,1-2.431,1.779,5.5,5.5,0,0,0-.83.83c-1.6,1.72-3.024,1.838-4.921.415A10.307,10.307,0,0,1,84.5,78a4.546,4.546,0,0,0-1.838-.949,20.759,20.759,0,0,1,.415,5.752,5.036,5.036,0,0,1-1.067,3.143,15.3,15.3,0,0,1-6.582,4.684c-2.668.889-5.4,1.72-8.064,2.609a4.309,4.309,0,0,0-2.312,1.3,78.691,78.691,0,0,0,8.242,1.838,91.274,91.274,0,0,0,15.594.593,94.961,94.961,0,0,0,16.425-1.364,29.823,29.823,0,0,0,8.657-2.905M85.626,46.69a1.192,1.192,0,0,0-.474-.237,3.118,3.118,0,0,0-3.676,3.38A1.313,1.313,0,0,1,80.7,51.2c-1.364.889-2.787,1.66-3.617,3.2a15.07,15.07,0,0,0-1.364,7.886c.059,1.423,0,2.787-1.127,3.795a.509.509,0,0,0-.178.771,4.506,4.506,0,0,0,1.66,1.838,15.852,15.852,0,0,1-.415-3.261,1.838,1.838,0,0,1,.356.771,17.989,17.989,0,0,0,4.091,7.886c1.779,1.957,3.676,3.558,6.582,3.676a7.571,7.571,0,0,0,6.878-3.083A24.839,24.839,0,0,0,96,69.814c.237-.593.059-1.6,1.127-1.72a2.334,2.334,0,0,1,.119-.356c-2.609-.119-3.5-.593-3.439-1.838,1.008.889,1.482.889,2.609.237A2.605,2.605,0,0,0,97.6,63.944c.356-2.194.059-3.439-2.075-4.328-.712-.3-1.482-.593-2.194-.83a2.943,2.943,0,0,0-1.6-.059c.059.534.652.593.652,1.067-.771.3-1.3-.415-1.957-.415-.534.474-.237,1.245-.949,1.9a6.436,6.436,0,0,1,.237-1.482,1.161,1.161,0,0,0-.415-1.542,4.76,4.76,0,0,1-1.6-3.083c-.237-1.245.178-2.431.119-3.676-.119-1.779-.119-1.779-1.779-1.9a.211.211,0,0,0-.119-.178,2.576,2.576,0,0,1,1.482-.3c-.059-.474-.178-.83-.593-.889-1.3-.237-2.075.771-2.846,1.542.237-1.66,1.66-1.838,2.965-2.194-.652-.652-1.008-.83-1.6-.652a2.849,2.849,0,0,0-1.957,3.024c-.712-1.66.119-2.905,2.253-3.38M118.12,161.543c.119-.652.178-1.067.237-1.482.237-1.542.119-3.143.3-4.744a25.764,25.764,0,0,0-1.186-11.029,45.263,45.263,0,0,1-1.66-16.662c.3-5.277.712-10.5.949-15.772a36.018,36.018,0,0,0,.178-5.1,9.083,9.083,0,0,1-5.574,2.372c.119.534.237,1.067.3,1.542a38.964,38.964,0,0,1,.83,7.471c0,2.787-1.423,5.1-3.143,7.175a4.579,4.579,0,0,0-1.127,3.439c.119,1.779.237,3.617.534,5.4a35.557,35.557,0,0,0,2.431,8.835,147.885,147.885,0,0,1,5.514,13.934c.474,1.423.83,2.965,1.3,4.684m-57.516-2.787c.356-.119.356-.356.415-.474,1.127-2.668,2.312-5.336,3.5-8,2.075-4.862,4.091-9.724,5.811-14.705,1.008-2.846,1.779-5.692,1.3-8.776a3.971,3.971,0,0,0-1.067-2.372c-4.032-3.913-5.574-8.479-3.913-13.993a7.593,7.593,0,0,0,.771-2.312,34.686,34.686,0,0,1-6.107-1.127,13.578,13.578,0,0,0,.356,3.2c.237,2.55.415,5.04.652,7.59.415,3.854,1.008,7.649,1.3,11.5a84.428,84.428,0,0,1,.474,10.969,25.3,25.3,0,0,1-1.127,7.293,38.207,38.207,0,0,0-2.372,11.207M80.883,284.1c-.237,3.024-1.245,5.929-1.838,8.894a18.32,18.32,0,0,0-.474,5.4,8.693,8.693,0,0,0,1.6,4.625c1.067-6.4,2.075-12.63.771-18.915M92.149,57.837c-.83-.534-1.008-1.3-1.6-1.9.356,2.016.474,2.135,1.6,1.9" transform="translate(-57.842 -39.634)" fill="#8e3b22"/>
            <path id="Trazado_895087" d="M110.974,73.863c-2.312-1.482-2.135-4.744.356-6.641,3.083-2.312,1.6-5.4-.712-7-.415-.3-.83-.652-1.245-.949a3.822,3.822,0,0,1-1.542-3.439c0-1.72.474-3.439-.119-5.159a13.529,13.529,0,0,0-1.245-3.024A5.424,5.424,0,0,0,104.452,46c-2.372-1.008-4.032-2.965-5.811-4.684a17.812,17.812,0,0,0-7.708-4.328,11.072,11.072,0,0,0-6.048-.415,5.255,5.255,0,0,0-3.913,3.024,3.525,3.525,0,0,0,.771,4.091c-.356-2.372.712-3.973,2.905-4.091-.949.712-2.135,1.186-2.372,2.312-.3,1.3.356,2.135,1.6,2.668-3.736.474-5.752,2.728-6.819,6.107-.059-2.372,1.779-4.8,4.8-6.285A2.485,2.485,0,0,0,78.6,43.86c-2.431,1.067-3.617,3.024-4.388,5.4a20.251,20.251,0,0,0-.712,7.53,4.109,4.109,0,0,1-2.55,4.388,14.2,14.2,0,0,0-2.016,1.245c-1.838,1.245-2.253,4.684.474,5.811a10.3,10.3,0,0,1,2.728,1.779c1.779,1.542,1.542,2.965-.652,3.795a2.783,2.783,0,0,0,3.2-.474c.237.356,0,.474-.119.593a3.156,3.156,0,0,1-4.388-.237c-.356-.415-.534-.83,0-1.245.356.178.534.652,1.008.652a1.414,1.414,0,0,0,1.364-.652,1.29,1.29,0,0,0-.3-1.364A7.276,7.276,0,0,0,69.528,69c-1.6-.771-2.728-1.72-2.728-3.617a4.841,4.841,0,0,1,2.668-4.21c.652-.415,1.3-.771,1.957-1.186a2.419,2.419,0,0,0,1.245-2.135c0-1.66-.119-3.38,0-5.04.237-3.083,1.008-6.048,3.32-8.3a5.079,5.079,0,0,1,4.447-1.72A5.225,5.225,0,0,1,80.556,39,6.565,6.565,0,0,1,86.6,35.5c5.514,0,9.961,2.253,13.756,6.107a17.533,17.533,0,0,0,4.862,3.676,4.048,4.048,0,0,1,2.016,1.957,11.538,11.538,0,0,1,1.542,6.4,18.294,18.294,0,0,0,0,2.55,3.022,3.022,0,0,0,1.364,2.194,10.828,10.828,0,0,1,2.846,2.846c1.186,2.016,1.3,4.269-.949,5.929a4.59,4.59,0,0,0-1.542,1.66c-1.067,2.253-.178,4.625,2.787,4.566-.474.712-.889.712-2.312.3h0Z" transform="translate(-61.489 -35.5)" fill="#8e3b22"/>
            <path id="Trazado_895088" d="M106.8,42.059a5.876,5.876,0,0,1,3.973,2.49c1.6,2.075,3.143,4.21,4.744,6.285a15.781,15.781,0,0,0,4.151,4.032,3.708,3.708,0,0,1,1.957,3.795.713.713,0,0,0,.119.474,11.593,11.593,0,0,1,.593,9.606c-.712,2.075.415,3.558,2.55,3.38h.3a2.148,2.148,0,0,1-2.312,0,2.072,2.072,0,0,1-1.186-2.253,12.721,12.721,0,0,1,.712-2.965c1.008-3.676-.119-6.819-2.253-9.724a4.346,4.346,0,0,0-2.075-1.482,6.647,6.647,0,0,1-4.032-3.854c-.712-1.542-1.364-3.083-2.135-4.566a16.465,16.465,0,0,0-2.965-4.032c-.534-.593-1.423-.593-2.135-1.245m14.468,16.009a3.4,3.4,0,0,0-1.72-2.787,16.256,16.256,0,0,1-4.506-4.269c-.3-.415-.474-.949-1.067-1.186.237.474.415.889.593,1.3.83,1.542,1.66,3.083,3.32,3.913a7.793,7.793,0,0,1,3.321,3.024" transform="translate(-77.771 -38.146)" fill="#8e3b22"/>
            <path id="Trazado_895089" d="M80.182,64.5c.237,3.439-.712,7.353-4.21,9.191-1.838,1.008-2.253,4.8.415,6.463a3.852,3.852,0,0,1,1.957,2.55c.178.949-.059,1.423-1.186,1.72.712-.534,1.186-1.127.771-2.075a4.164,4.164,0,0,0-1.66-1.838c-2.55-1.482-3.083-5.633-.712-7.234,3.024-2.075,4.091-4.981,4.388-8.42a.3.3,0,0,1,.237-.356" transform="translate(-64.435 -47.305)" fill="#8e3b22"/>
            <path id="Trazado_895090" d="M132.955,98.979a2.68,2.68,0,0,1-3.558.652,1.019,1.019,0,0,0-1.008,0,11.408,11.408,0,0,1-3.736.83c-1.542.119-3.38-1.6-3.854-2.846a.85.85,0,0,1,.119-.415c1.008,1.245,1.957,2.49,3.676,2.49a7.4,7.4,0,0,0,4.269-.949,3.562,3.562,0,0,0,3.676.237h.474" transform="translate(-83.47 -60.615)" fill="#8e3b22"/>
            <path id="Trazado_895091" d="M127.324,87.5c.237,4.744,1.482,6.107,4.921,5.514-.652.949-2.609.949-3.913,0-1.6-1.245-2.313-4.091-1.067-5.455" transform="translate(-85.843 -56.667)" fill="#8e3b22"/>
            <path id="Trazado_895092" d="M81.543,98.4a2.808,2.808,0,0,1-1.364,2.787c-.474.356-1.008.771-1.779.178A4.3,4.3,0,0,0,81.543,98.4" transform="translate(-66.21 -61.104)" fill="#8e3b22"/>
            <path id="Trazado_895093" d="M122.138,101.286c-.3.415-.534.652-.83.474a2.176,2.176,0,0,1-1.008-1.66c.712.356.771,1.364,1.779,1.245" transform="translate(-83.266 -61.796)" fill="#8e3b22"/>
            <path id="Trazado_895094" d="M98.5,179.364c6.226-3.083,12.452-1.779,18.618.712-.237.415-.534.3-.83.237a39.7,39.7,0,0,1-6.937-1.779,12.7,12.7,0,0,0-8.123.178,8.27,8.27,0,0,1-2.728.652" transform="translate(-74.392 -93.328)" fill="#8e3b22"/>
            <path id="Trazado_895095" d="M104.329,179.5A12.147,12.147,0,0,1,100,180.508a15.351,15.351,0,0,1,4.328-1.008" transform="translate(-75.003 -94.116)" fill="#8e3b22"/>
            <path id="Trazado_895096" d="M94.85,373.582a4.024,4.024,0,0,1-1.245-2.55,2.22,2.22,0,0,0-.949-1.72,1.616,1.616,0,0,1-.3-2.312h.178a4.014,4.014,0,0,0,1.482,2.49.883.883,0,0,1,.237.534c0,1.186.415,2.313.534,3.558" transform="translate(-71.75 -170.439)" fill="#8e3b22"/>
            <path id="Trazado_895097" d="M108.63,368.7c1.067,1.364.652,3.854-.83,4.328.3-1.482,1.127-2.787.83-4.328" transform="translate(-78.178 -171.131)" fill="#8e3b22"/>
            <path id="Trazado_895098" d="M124.444,361.6c-.889,1.364,0,3.38-1.6,4.566-.356-1.542.474-4.032,1.6-4.566" transform="translate(-84.267 -168.241)" fill="#8e3b22"/>
            <path id="Trazado_895099" d="M101.3,86.6a7.268,7.268,0,0,1,6.107-.356,2.813,2.813,0,0,1-3.2,2.372h0a1.7,1.7,0,0,1-1.067-.415c-.593-.474-.83-1.3-1.779-1.6" transform="translate(-75.532 -55.947)" fill="#8e3b22"/>
            <path id="Trazado_895100" d="M91,67.615c1.779-1.364,7.115-1.72,8.3-.712a1.36,1.36,0,0,1-1.245.415H93.194A6.747,6.747,0,0,0,91,67.555" transform="translate(-71.339 -48.047)" fill="#8e3b22"/>
            <path id="Trazado_895101" d="M93.8,74.471c.237-.356.534-.712,1.008-.356A2.18,2.18,0,0,0,97.713,74c.237-.178.652-.534.949-.059.237.415-.178.712-.474.949a4.534,4.534,0,0,1-4.388-.474" transform="translate(-72.479 -51.05)" fill="#8e3b22"/>
            <path id="Trazado_895102" d="M117.611,73.755c.356.474-.119.712-.356.949a3.434,3.434,0,0,1-3.676.059c-.3-.237-.652-.474-.356-.889s.534,0,.83.178c1.245.889,1.6.889,2.905.059.237-.119.415-.474.771-.415" transform="translate(-80.34 -51.045)" fill="#8e3b22"/>
            <path id="Trazado_895103" d="M105.259,80.7c1.067,1.067,2.016.652,2.905-.3-.059.949-.356,1.186-1.186,1.245-1.186.059-1.6-.119-1.779-.949" transform="translate(-77.12 -53.777)" fill="#8e3b22"/>
          </g>
        </g>
      </g>
    </g>
  </g>
</svg>
