<svg xmlns="http://www.w3.org/2000/svg" xmlns:xlink="http://www.w3.org/1999/xlink" width="151.455" height="127.264" viewBox="0 0 151.455 127.264">
  <defs>
    <clipPath id="clip-path">
      <rect id="Rectángulo_454929" data-name="Rectángulo 454929" width="151.455" height="127.264" transform="translate(-10 0)" fill="none"/>
    </clipPath>
  </defs>
  <g id="Grupo_1204621" data-name="Grupo 1204621" transform="translate(-365.254 -4910.88)">
    <g id="Grupo_1203493" data-name="Grupo 1203493" transform="translate(375.254 4910.88)">
      <g id="Grupo_1203490" data-name="Grupo 1203490">
        <g id="Grupo_1203489" data-name="Grupo 1203489" clip-path="url(#clip-path)">
          <path id="Trazado_1258858" data-name="Trazado 1258858" d="M112.82,119.983c20.7-13.241,21.518-35.308,17.652-57.35-1.975-11.257-2.287-22.333-3.656-33.579-.631-5.183-1.885-10.419-4.772-14.769C113.793,1.85,97.795,6.253,85.682,8.59,66.52,13.381,45.008,13.343,27.044,22.081c-13.87,6.746-28.818,22-26.872,38.711.962,8.264,6.074,15.594,12.437,20.954,11.5,9.689,26.467,14.77,38.936,23.114,8.99,6.016,15.749,16.787,26.109,20.619,10.926,4.041,25.163.76,34.728-5.219q.22-.138.438-.277" fill="#752092"/>
          <g id="anatomia" transform="translate(-0.845 20.82)">
            <rect id="Rectángulo_455351" data-name="Rectángulo 455351" width="19.89" height="22.95" transform="translate(40.545 25.474)" fill="#ffb398"/>
            <path id="Trazado_1269386" data-name="Trazado 1269386" d="M212.089,232v5.022l-8.37,6.7H200.37l-8.37-6.7V232Z" transform="translate(-151.822 -183.452)" fill="#ebe5dd"/>
            <g id="Grupo_1204449" data-name="Grupo 1204449" transform="translate(45.135 18.589)">
              <rect id="Rectángulo_455352" data-name="Rectángulo 455352" width="3.06" height="3.06" transform="translate(0 11.475)" fill="#fe946f"/>
              <rect id="Rectángulo_455353" data-name="Rectángulo 455353" width="3.06" height="3.06" transform="translate(6.885 11.475)" fill="#fe946f"/>
              <rect id="Rectángulo_455354" data-name="Rectángulo 455354" width="3.825" height="3.825" transform="translate(3.06 21.42)" fill="#fe946f"/>
              <rect id="Rectángulo_455355" data-name="Rectángulo 455355" width="6.885" height="6.885" transform="translate(1.53 0)" fill="#fe946f"/>
            </g>
            <path id="Trazado_1269387" data-name="Trazado 1269387" d="M46.5,107.348v8.37L36.409,114.6l-4.972-.552L14.7,112.37V110.7H8v-3.348L13.022,104l5.022,3.348,13.393,1.674,2.7-.452,7.349-1.222Z" transform="translate(-6.326 -82.237)" fill="#ffb398"/>
            <path id="Trazado_1269388" data-name="Trazado 1269388" d="M59.661,45.8H54.639L47.29,47.019l-4.018-2.963-13.66-9.81.837-1.456L24.64,29.441l1.674-2.9,6.027-.385,2.679,5.407L45.783,39.72l9.525,3.566Z" transform="translate(-19.484 -20.686)" fill="#fe946f"/>
            <path id="Trazado_1269389" data-name="Trazado 1269389" d="M288,107.348v8.37l10.095-1.122,4.972-.552,16.741-1.674V110.7h6.7v-3.348L321.481,104l-5.022,3.348-13.393,1.674-2.7-.452-7.349-1.222Z" transform="translate(-227.734 -82.237)" fill="#ffb398"/>
            <path id="Trazado_1269390" data-name="Trazado 1269390" d="M288,45.8h5.022l7.349,1.222,4.018-2.963,13.66-9.81-.837-1.456,5.809-3.348-1.674-2.9-6.027-.385-2.679,5.407L301.878,39.72l-9.525,3.566Z" transform="translate(-227.734 -20.686)" fill="#fe946f"/>
            <path id="Trazado_1269391" data-name="Trazado 1269391" d="M168.741,262.7l-3.348,16.741L162.044,301.2H152v-1.674l5.022-3.348,1.674-16.741.552-7.751L160.37,256Z" transform="translate(-120.193 -202.43)" fill="#ffb398"/>
            <path id="Trazado_1269392" data-name="Trazado 1269392" d="M79.209,256l-1.122,15.686L71.843,278.8,58.065,295.977l-8.705-5.022.837-1.44,6.027-.4,9.81-13.66Z" transform="translate(-39.031 -202.43)" fill="#fe946f"/>
            <path id="Trazado_1269393" data-name="Trazado 1269393" d="M264.741,299.526V301.2H254.7l-3.348-21.763L248,262.7l8.37-6.7,1.122,15.686.552,7.751,1.674,16.741Z" transform="translate(-196.104 -202.43)" fill="#ffb398"/>
            <path id="Trazado_1269394" data-name="Trazado 1269394" d="M317.849,290.954l-8.705,5.022L295.366,278.8l-6.244-7.115L288,256l13.175,19.453,9.81,13.66,6.027.4Z" transform="translate(-227.734 -202.43)" fill="#fe946f"/>
            <path id="Trazado_1269395" data-name="Trazado 1269395" d="M204.926,14.7h-2.511a6.7,6.7,0,1,0-13.392,0h-2.511a2.511,2.511,0,1,0,0,5.022h2.511a6.7,6.7,0,1,0,13.392,0h2.511a2.511,2.511,0,0,0,0-5.022Z" transform="translate(-145.497 -6.326)" fill="#ffb398"/>
            <rect id="Rectángulo_455356" data-name="Rectángulo 455356" width="19.89" height="13.005" transform="translate(1.53 43.834)" fill="#5aaae7"/>
            <rect id="Rectángulo_455357" data-name="Rectángulo 455357" width="19.89" height="13.005" transform="translate(78.795 43.834)" fill="#ffd422"/>
            <g id="Grupo_1204450" data-name="Grupo 1204450" transform="translate(21.763 44.016)">
              <path id="Trazado_1269396" data-name="Trazado 1269396" d="M112.37,218.224H104v-3.348h7.677l4.532-4.532,2.367,2.367-5.022,5.022A1.676,1.676,0,0,1,112.37,218.224Z" transform="translate(-104 -210.344)" fill="#f40e34"/>
              <path id="Trazado_1269397" data-name="Trazado 1269397" d="M316.71,241.553l-2.367-2.367,6.7-6.7a1.674,1.674,0,0,1,1.184-.49h5.022v3.348h-4.329Z" transform="translate(-270.327 -227.468)" fill="#f40e34"/>
            </g>
            <g id="Grupo_1204451" data-name="Grupo 1204451" transform="translate(46.665 8.644)">
              <rect id="Rectángulo_455358" data-name="Rectángulo 455358" width="3.825" height="6.12" transform="translate(1.53 0)" fill="#fe946f"/>
              <rect id="Rectángulo_455359" data-name="Rectángulo 455359" width="6.885" height="3.825" transform="translate(0 4.59)" fill="#fe946f"/>
            </g>
            <rect id="Rectángulo_455360" data-name="Rectángulo 455360" width="3.06" height="3.06" transform="translate(45.135 30.064)"/>
            <rect id="Rectángulo_455361" data-name="Rectángulo 455361" width="3.06" height="3.06" transform="translate(52.02 30.064)"/>
            <rect id="Rectángulo_455362" data-name="Rectángulo 455362" width="3.825" height="3.825" transform="translate(48.195 40.009)"/>
            <path id="Trazado_1269398" data-name="Trazado 1269398" d="M99.7,23.718,94.676,20.37a1.67,1.67,0,0,0-1.857,0L88.125,23.5,77.6,24.815l13.7-9.9a1.675,1.675,0,0,0,.474-2.2l0,0,4.359-2.513a1.673,1.673,0,0,0,.613-2.287l-1.674-2.9a1.672,1.672,0,0,0-1.342-.834L87.694,3.8a1.676,1.676,0,0,0-1.607.929l-2.5,5.053L73.329,17.552l-9.3,3.481a1.676,1.676,0,0,0-.249.118l-3.965,2.287H55.244V20.046a8.356,8.356,0,0,0,3.179-4.979h1.006a4.185,4.185,0,1,0,0-8.37H58.424a8.371,8.371,0,0,0-16.4,0H41.015a4.185,4.185,0,1,0,0,8.37h1.006A8.357,8.357,0,0,0,45.2,20.046v3.391H40.626L36.661,21.15a1.708,1.708,0,0,0-.249-.118l-9.3-3.481L16.861,9.784l-2.5-5.055A1.686,1.686,0,0,0,12.75,3.8l-6.027.386a1.673,1.673,0,0,0-1.342.834l-1.674,2.9a1.673,1.673,0,0,0,.613,2.287l4.359,2.513,0,0a1.675,1.675,0,0,0,.474,2.2l13.643,9.8.148.109L12.318,23.5,7.624,20.37a1.67,1.67,0,0,0-1.857,0L.745,23.718A1.676,1.676,0,0,0,0,25.111v3.348a1.674,1.674,0,0,0,1.674,1.674H6.7A1.674,1.674,0,0,0,8.2,31.8l16.723,1.672L38.5,34.98V53.057L25.642,72.047,16.293,85.065l-5.239.348a1.678,1.678,0,0,0-1.337.829l-.837,1.44a1.674,1.674,0,0,0,.611,2.292L18.2,95a1.675,1.675,0,0,0,2.142-.4L34.07,77.474,37.033,74.1l-.2,2.742-1.6,15.953L30.878,95.7a1.676,1.676,0,0,0-.745,1.393V98.77a1.674,1.674,0,0,0,1.674,1.674H41.852a1.674,1.674,0,0,0,1.654-1.419l3.335-21.689,3.079-15.4h.6L53.59,77.262l3.348,21.763a1.674,1.674,0,0,0,1.654,1.419H68.637a1.674,1.674,0,0,0,1.674-1.674V97.1a1.674,1.674,0,0,0-.746-1.393L65.2,92.793,63.61,76.888l-.2-2.789,2.915,3.321L80.1,94.594a1.675,1.675,0,0,0,2.142.4l8.706-5.022a1.674,1.674,0,0,0,.611-2.292l-.837-1.44a1.678,1.678,0,0,0-1.337-.829l-5.239-.348-9.323-12.98L61.94,53.057V34.98l8.6-.956L92.24,31.8a1.674,1.674,0,0,0,1.507-1.666H98.77a1.674,1.674,0,0,0,1.674-1.674V25.111A1.674,1.674,0,0,0,99.7,23.718ZM74.731,20.6a1.686,1.686,0,0,0,.424-.234l10.764-8.153a1.66,1.66,0,0,0,.49-.592l2.183-4.409,4.02.258.388.67-4.357,2.511a1.674,1.674,0,0,0-.615,2.286l.083.142L75.663,22.023l-3.448,2.542-5.589-.929Zm-25.6,37.99-7.284-5.827V50.222H58.592v2.543l-7.284,5.827Zm9.457-25.111V46.874H41.852V26.785H58.592ZM55.244,13.393a5.022,5.022,0,0,1-10.044,0V10.044h3.348v3.348H46.874v3.348h6.7V13.393H51.9V10.044h3.348Zm5.022-2.511a.838.838,0,0,1-.837.837h-.837V10.044h.837A.838.838,0,0,1,60.266,10.881ZM50.222,3.348A5.014,5.014,0,0,1,54.936,6.7H45.508A5.014,5.014,0,0,1,50.222,3.348ZM40.178,10.881a.838.838,0,0,1,.837-.837h.837v1.674h-.837A.838.838,0,0,1,40.178,10.881Zm8.37,10.712a8.362,8.362,0,0,0,3.348,0v1.843H48.548ZM12.333,13.082l.083-.142a1.674,1.674,0,0,0-.615-2.286L7.444,8.143l.388-.67,4.02-.258,2.184,4.411a1.685,1.685,0,0,0,.489.59l10.764,8.153a1.689,1.689,0,0,0,.424.234l8.105,3.034-5.588.93ZM30.267,30.7,10.044,28.618v-.159A1.674,1.674,0,0,0,8.37,26.785H3.348v-.778L6.7,23.775,10.79,26.5a1.681,1.681,0,0,0,.721.268L24.9,28.446a1.714,1.714,0,0,0,.484-.01l9.906-1.651H38.5v4.826Zm1.238,44.627L18.627,91.379l-4.839-2.791,3.516-.234a1.678,1.678,0,0,0,1.249-.695l9.836-13.7,9.674-14.284-.637,8.9ZM40.415,97.1h-5.59l2.933-1.955a1.673,1.673,0,0,0,.737-1.226l1.678-16.788,1.428-20,.019-.262,5.086,4.069L43.545,76.752Zm25.2,0h-5.59L56.885,76.678,53.738,60.937l5.086-4.069.033.468,1.417,19.838,1.674,16.741a1.673,1.673,0,0,0,.737,1.226Zm16.272-9.436a1.678,1.678,0,0,0,1.249.695l3.516.234-4.839,2.791L68.89,75.267l-5.872-6.693-.579-8.088-.058-.809L72.081,74ZM97.1,26.785H92.074A1.674,1.674,0,0,0,90.4,28.459v.159L75.148,30.143,61.94,31.611V26.785h3.21l9.905,1.651a1.85,1.85,0,0,0,.485.01l13.393-1.674a1.684,1.684,0,0,0,.721-.268l4.094-2.729L97.1,26.007Z" transform="translate(0)"/>
            <path id="Trazado_1269399" data-name="Trazado 1269399" d="M23.437,215.067v-5.022h6.7a1.674,1.674,0,0,0,1.184-.49l5.022-5.022-2.367-2.367L29.44,206.7h-6v-5.022A1.674,1.674,0,0,0,21.763,200H1.674A1.674,1.674,0,0,0,0,201.674v13.393a1.674,1.674,0,0,0,1.674,1.674H21.763A1.674,1.674,0,0,0,23.437,215.067Zm-3.348-1.674H3.348V203.348H20.089Z" transform="translate(0 -158.148)"/>
            <path id="Trazado_1269400" data-name="Trazado 1269400" d="M347.335,200H327.246a1.674,1.674,0,0,0-1.674,1.674V206.7h-3.348a1.674,1.674,0,0,0-1.184.49l-6.7,6.7,2.367,2.367,6.206-6.206h2.655v5.022a1.674,1.674,0,0,0,1.674,1.674h20.089a1.674,1.674,0,0,0,1.674-1.674V201.674A1.674,1.674,0,0,0,347.335,200Zm-1.674,13.393H328.92V203.348h16.741Z" transform="translate(-248.565 -158.148)"/>
          </g>
        </g>
      </g>
    </g>
  </g>
</svg>
