<svg xmlns="http://www.w3.org/2000/svg" xmlns:xlink="http://www.w3.org/1999/xlink" width="261" height="145" viewBox="0 0 261 145">
  <defs>
    <clipPath id="clip-path">
      <rect id="Rectángulo_455209" data-name="Rectángulo 455209" width="261" height="145" rx="25" transform="translate(1018.059 5623.095)" fill="#e2a4db"/>
    </clipPath>
    <clipPath id="clip-path-2">
      <rect id="Rectángulo_455208" data-name="Rectángulo 455208" width="200.25" height="219.667" fill="none"/>
    </clipPath>
  </defs>
  <g id="Grupo_1204662" data-name="Grupo 1204662" transform="translate(-1019 -6667.106)">
    <path id="Trazado_1269114" data-name="Trazado 1269114" d="M25,0H236a25,25,0,0,1,25,25v95a25,25,0,0,1-25,25H25A25,25,0,0,1,0,120V25A25,25,0,0,1,25,0Z" transform="translate(1019 6667.106)" fill="#bfc0dc"/>
    <g id="Enmascarar_grupo_1119171" data-name="Enmascarar grupo 1119171" transform="translate(0.941 1044.012)" clip-path="url(#clip-path)">
      <g id="Grupo_1204092" data-name="Grupo 1204092" transform="translate(1048.434 5637.841)">
        <g id="Grupo_1204091" data-name="Grupo 1204091" clip-path="url(#clip-path-2)">
          <path id="Trazado_1261651" data-name="Trazado 1261651" d="M40.638,1.911a6.113,6.113,0,0,1,8.441-.42,5.421,5.421,0,0,1,1.72,4.74c-.8,4.168-1.752,8.311-2.453,12.5a13.524,13.524,0,0,1,5.947,1.851,2,2,0,0,1,.992,2.55,9.474,9.474,0,0,1-5.155,2.31,26.659,26.659,0,0,1-13.242-.788c-1.21-.529-2.981-1.187-2.809-2.813a4.358,4.358,0,0,1,2.511-2.021A16.7,16.7,0,0,1,41.7,18.729c-.657-4.129-1.567-8.217-2.37-12.318a5.4,5.4,0,0,1,1.311-4.5" transform="translate(-7.475 0)" fill="#211e31"/>
          <path id="Trazado_1261652" data-name="Trazado 1261652" d="M178.463,60.941c-.088-.488.449-.559.8-.676,2.339.371,3.613,2.649,4.161,4.745a6.189,6.189,0,0,1,2.439.423,5.242,5.242,0,0,1,2.177-2.911,4.159,4.159,0,0,1,5,.41,7.173,7.173,0,0,1,2.294,3.691c3.6-.681,7.183-1.457,10.767-2.222.156.24.308.486.459.734-3.7.754-7.395,1.558-11.1,2.32A6.3,6.3,0,0,1,193.9,72.3a4.121,4.121,0,0,1-4.051,1.094,6.033,6.033,0,0,1-3.905-4.142,19.356,19.356,0,0,1-.467-2.947c-.532-.472-1.295-.323-1.942-.375a6.642,6.642,0,0,1-1.8,4.894,3.558,3.558,0,0,1-2.919.744c-4.322-1.313-5.549-7.988-2.036-10.8.206.055.619.159.825.212-.233.219-.464.438-.687.668a5.946,5.946,0,0,0,1.674,9.063,2.724,2.724,0,0,0,2.834-.718c2.086-2.32,1.493-6.215-.728-8.238a3.718,3.718,0,0,0-2.232-.812m10.676,1.913a4.122,4.122,0,0,0-2.659,3.524,6.607,6.607,0,0,0,1.179,4.563,4.216,4.216,0,0,0,3.239,1.822,3.76,3.76,0,0,0,3.3-2.243,6.047,6.047,0,0,0-1.29-6.658,3.787,3.787,0,0,0-3.766-1.008" transform="translate(-38.338 -13.223)" fill="#211e31"/>
          <path id="Trazado_1261653" data-name="Trazado 1261653" d="M180.667,67.721c0-.54.107-1.438.833-1.42,1.245.54,1.109,2.592-.029,3.2a1.875,1.875,0,0,1-.8-1.777" transform="translate(-39.639 -14.547)" fill="#211e31"/>
          <path id="Trazado_1261654" data-name="Trazado 1261654" d="M193.033,67.919c.561-.334,1.07.42,1.117.927.089.687-.01,1.835-.872,1.958a1.8,1.8,0,0,1-.245-2.884" transform="translate(-42.221 -14.884)" fill="#211e31"/>
          <path id="Trazado_1261655" data-name="Trazado 1261655" d="M168.095,120.87c.19-.517.336-1.482,1.094-1.023-1.156,3.37-2.271,6.761-3.187,10.2a32.694,32.694,0,0,0-1.065,9.8c-.29-.084-.571-.164-.856-.24a50.273,50.273,0,0,1,1.047-8.729c.8-3.389,1.923-6.69,2.968-10.008" transform="translate(-36.001 -26.27)" fill="#211e31"/>
          <path id="Trazado_1261656" data-name="Trazado 1261656" d="M207.239,122.822c.136-.329.794-.8.9-.212a10.634,10.634,0,0,1-1.232,2.031,179.56,179.56,0,0,0-11.647,22.32c-3.56-.854-7.081-1.856-10.6-2.864-.316,1.955-.382,3.939-.718,5.892a91.673,91.673,0,0,1-5.584,19.125,35.85,35.85,0,0,0,3.694,1.342c3.7,1.357,7.452,2.547,11.226,3.677,3.6,1,7.471,1.851,11.154.744,4.291-1.282,7.648-4.463,10.673-7.627A90.254,90.254,0,0,0,226.964,149.9c.123-.412.561-.373.9-.47a93.38,93.38,0,0,1-8.538,13.715,46.6,46.6,0,0,1-8.07,8.64,17.505,17.505,0,0,1-8.207,4.111,21.109,21.109,0,0,1-7.878-.575,118.633,118.633,0,0,1-12.122-3.811c-5.291-1.864-10.585-3.738-15.758-5.91-.543-.284-1.35-.519-1.332-1.271a22.632,22.632,0,0,1,.472-5.9c.624.5,1.238,1.01,1.87,1.5a25.054,25.054,0,0,1-1.674,4.722c2.112.953,4.331,1.626,6.489,2.459,1.548.587,3.062,1.253,4.636,1.765a45.628,45.628,0,0,0,2.179-6.028,81.594,81.594,0,0,0,4.09-18.838c-3.646-1-7.311-1.939-10.955-2.955-.091.511-.18,1.026-.269,1.54-.459-.155-.911-.308-1.37-.454a5.815,5.815,0,0,1,1.339-1.618,30.314,30.314,0,0,1,5.176,1.185c5.654,1.585,11.365,2.941,17.037,4.463,1.546-3.488,3.075-6.988,4.853-10.365,2.2-4.474,4.779-8.75,7.4-12.986" transform="translate(-36.402 -26.841)" fill="#211e31"/>
          <path id="Trazado_1261657" data-name="Trazado 1261657" d="M142.8,124.961c.112-.052.334-.159.443-.212.671,1.462,1.992,2.581,2.316,4.2A2.515,2.515,0,0,1,144.5,128a15.4,15.4,0,0,1-1.7-2.861Z" transform="translate(-31.332 -27.372)" fill="#211e31"/>
          <path id="Trazado_1261658" data-name="Trazado 1261658" d="M138.5,129.362c.556-.757.874-1.874,1.9-2.115a4.854,4.854,0,0,1-1.3,2.336l-.6-.222" transform="translate(-30.389 -27.92)" fill="#211e31"/>
          <path id="Trazado_1261659" data-name="Trazado 1261659" d="M115.112,131.546c.451-.452.911-.9,1.383-1.329q.137.521.29,1.049c-.4.345-.793.7-1.185,1.06-.162-.264-.326-.522-.488-.781" transform="translate(-25.257 -28.571)" fill="#211e31"/>
          <path id="Trazado_1261660" data-name="Trazado 1261660" d="M123.7,147.567a14.17,14.17,0,0,1,2.3-1.657l.172.144c.12.183.235.375.345.574a22.43,22.43,0,0,0-2.663,1.272Z" transform="translate(-27.142 -32.015)" fill="#211e31"/>
          <path id="Trazado_1261661" data-name="Trazado 1261661" d="M42.81,214.64c3.177.094,6.359.052,9.535-.073-.039,17.39,0,34.777-.018,52.163-3.195,0-6.39-.05-9.585.016.12-17.366-.026-34.737.068-52.106" transform="translate(-9.378 -47.079)" fill="#211e31"/>
          <path id="Trazado_1261662" data-name="Trazado 1261662" d="M161.642,215.249c-.222-.352-.138-.53.251-.527,5.576.514,11.133,1.219,16.708,1.754a254.767,254.767,0,0,0,52.442-.215,5.184,5.184,0,0,1,2.247.042c.018.128.052.384.07.514a40.588,40.588,0,0,0-5.711.433c-4.179.54-8.4.606-12.587.992a31.7,31.7,0,0,0,5.221,9.24,41.169,41.169,0,0,0,6.967,6.612,1.554,1.554,0,0,1,.5.982,15.14,15.14,0,0,1-2.994-2.146,35.851,35.851,0,0,1-6.1-6.458,37.346,37.346,0,0,1-4.359-8.17c-3.373.209-6.755.11-10.134.133-5.406.062-10.8-.336-16.2-.535-8.8-.585-17.58-1.524-26.321-2.652" transform="translate(-35.44 -47.113)" fill="#211e31"/>
          <path id="Trazado_1261663" data-name="Trazado 1261663" d="M245.853,224.145c.138.039.42.115.561.154a75.24,75.24,0,0,1,.8,8.567c-.144.062-.429.183-.571.245a30.135,30.135,0,0,1-.311-3.891c-.048-1.7-.382-3.378-.483-5.075" transform="translate(-53.944 -49.181)" fill="#211e31"/>
          <path id="Trazado_1261664" data-name="Trazado 1261664" d="M190.369,238.642c.522-.076.806.431,1.13.742,1.587,1.8,3.4,3.378,5.075,5.089,1.827,8.928,3.39,17.925,4.918,26.911.156.483-.267.648-.658.442-1.146-7.252-2.5-14.469-3.824-21.686-.389-1.759-.567-3.566-1.044-5.3-1.759-1.72-3.56-3.409-5.228-5.221-.216-.274-.577-.6-.368-.981" transform="translate(-41.756 -52.36)" fill="#211e31"/>
          <path id="Trazado_1261665" data-name="Trazado 1261665" d="M247.154,239.275c.577-.357.472.5.517.8.24,7.567.491,15.136.425,22.709-.041,2.451.128,4.91-.07,7.353-.738-.055-.621-.8-.621-1.334.089-5.654.037-11.308-.078-16.958.049-4.189-.318-8.379-.173-12.566" transform="translate(-54.222 -52.481)" fill="#211e31"/>
          <path id="Trazado_1261666" data-name="Trazado 1261666" d="M210.926,27.01a8.429,8.429,0,0,1,8.893.018,11.046,11.046,0,0,1,4.926,8.578,7.721,7.721,0,0,1-1.909,5.915,8.608,8.608,0,0,1-3.271,2.148,17.85,17.85,0,0,1,.123,11.255c-.3,1.057-.788,2.049-1.126,3.093,1.734,1.636,3.777,2.986,5.148,4.975a8.614,8.614,0,0,1,1.325,7.332,11.15,11.15,0,0,1-7.789,7.638,11.48,11.48,0,0,1-8.771-1.058c-.535-2.148-1.044-4.3-1.55-6.455-.478-1.423.624-2.665.945-4a5.56,5.56,0,0,0,3.8-.869,7.02,7.02,0,0,0,2.733-7.384,3.19,3.19,0,0,0-3.968-2.266c-1.5.489-2.261,1.969-2.958,3.263-.334-.54-.649-1.091-.971-1.634-.151-.248-.3-.493-.459-.734a7.348,7.348,0,0,0-1.926-.183,26.25,26.25,0,0,1-11.164-3.292c.2.183.4.368.61.553-.1.165-.3.491-.4.656a27.1,27.1,0,0,0-3.406-.728c-.4-.029-1.1-.186-.93-.742-.049-.491.6-.6.966-.637a4.72,4.72,0,0,1,2.613.571,25.364,25.364,0,0,1-9.911-11.9,20.5,20.5,0,0,0-4.117,10.835,3.491,3.491,0,0,1,3.472-.35.608.608,0,0,1-.008,1.122c-.877.115-1.759-.141-2.637-.047-.354.118-.892.188-.8.676a11.338,11.338,0,0,1-.215,2.354,5.9,5.9,0,0,0-1.333-1.649c.222-.229.454-.449.686-.668-.206-.052-.618-.157-.825-.212-.305-.023-.375-.386-.5-.595a16.309,16.309,0,0,1-1.717-7.6,11.95,11.95,0,0,1,3.341-8.259A10.313,10.313,0,0,1,183.5,34.11c.34-.1.763-.071,1.033-.337a19.968,19.968,0,0,1,14.4-5.022,23.8,23.8,0,0,1,8.718,2.023,9.666,9.666,0,0,1,3.273-3.764" transform="translate(-38.286 -5.65)" fill="#402123"/>
          <path id="Trazado_1261667" data-name="Trazado 1261667" d="M25.886,37.138a26.228,26.228,0,0,0,1.177-9.162c-.173,1.626,1.6,2.284,2.809,2.814a26.668,26.668,0,0,0,13.242.788,9.474,9.474,0,0,0,5.155-2.31c.2,3.446-.525,7.095.859,10.373a165.726,165.726,0,0,1,.627,21.665c-.165,2.012-.076,4.046-.433,6.037-.41,2.088-.425,4.224-.728,6.324a209.225,209.225,0,0,0-2.461,30.274,160.236,160.236,0,0,0,1.383,20.618c.639,5.5,1.55,10.963,2.01,16.481a167.61,167.61,0,0,1,.1,32.226q-3.092.3-6.2.361c-3.177.125-6.359.167-9.535.073-.094,17.369.052,34.74-.068,52.106-.1-12.417-.013-24.841-.034-37.264-.062-4.939.068-9.88-.073-14.816a99.431,99.431,0,0,1-18.6-1.814,31.623,31.623,0,0,1-8.647-2.884c-.66-.413-1.532-.8-1.681-1.655a45.232,45.232,0,0,1-.606-7.81,120.68,120.68,0,0,1,1.914-21.7,62.218,62.218,0,0,1,6-16.679c1.546-3.08,3.563-5.988,4.351-9.39a21.306,21.306,0,0,0-.329-9.342,84.635,84.635,0,0,0-6.9-19.394c-1.287-2.7-2.647-5.37-3.9-8.087a19.61,19.61,0,0,1-1.347-3.448c1.19,1.094,2.151,2.634,3.805,3.054a2.05,2.05,0,0,0,2.344-1,10.505,10.505,0,0,0,.82-5.4,33.011,33.011,0,0,0-1.616-7.959A25.847,25.847,0,0,0,5.2,52.063a4.3,4.3,0,0,0-3.114-1.647,10.239,10.239,0,0,1,3.265-2.2c5.189-2.362,10.89-3.4,16-5.959a8.618,8.618,0,0,0,4.534-5.116" transform="translate(-0.458 -6.138)" fill="#a3a3ab"/>
          <path id="Trazado_1261668" data-name="Trazado 1261668" d="M71.946,37.108a1.892,1.892,0,0,1,3.208-.078A1.857,1.857,0,0,1,73.7,39.917l-.631-.052a1.808,1.808,0,0,1-1.125-2.756" transform="translate(-15.722 -7.938)" fill="#e05659"/>
          <path id="Trazado_1261669" data-name="Trazado 1261669" d="M80.128,42.414a1.706,1.706,0,0,1,2.229,2.026,1.769,1.769,0,0,1-1.752,1.224c-.146-.026-.436-.08-.582-.109a1.75,1.75,0,0,1,.1-3.14" transform="translate(-17.355 -9.28)" fill="#e05659"/>
          <path id="Trazado_1261670" data-name="Trazado 1261670" d="M221.775,66.9c.266-.266,1.073-.066.728.386a20.507,20.507,0,0,0-2.456,1.855c.713.841,1.452,1.994.911,3.119a1.106,1.106,0,0,1-1.4.742c.237-.365.5-.717.723-1.088a1.953,1.953,0,0,0-.88-2.08c-.517.684-.913,1.443-1.378,2.158-.606.225-.353-.767-.186-1.026a9.836,9.836,0,0,1,3.936-4.067" transform="translate(-47.753 -14.652)" fill="#e05659"/>
          <path id="Trazado_1261671" data-name="Trazado 1261671" d="M185.871,68.256l.7-.123c-.2,2.154-1.339,4.038-2.14,6-.125.378-.379.962.081,1.222.992.48,2.146.2,3.208.258.034.82-.872.686-1.433.733-.966-.023-2.264-.008-2.746-1.028-.353-1.154.425-2.232.927-3.214a15.634,15.634,0,0,0,1.4-3.85" transform="translate(-40.252 -14.949)" fill="#e05659"/>
          <path id="Trazado_1261672" data-name="Trazado 1261672" d="M193.025,82.014c.462-.2.624.553.212.7a6.841,6.841,0,0,1-6.3.418.71.71,0,0,1-.5-.663c.5-.3,1.028.08,1.535.185a6.66,6.66,0,0,0,5.048-.637" transform="translate(-40.908 -17.987)" fill="#e05659"/>
          <path id="Trazado_1261673" data-name="Trazado 1261673" d="M204.631,88.864a30.263,30.263,0,0,0,4.017-2.35,8.441,8.441,0,0,1-1.8,2.713,15.155,15.155,0,0,1-9.726,4.683l0-.507c0-.911-.008-1.82,0-2.73a23.663,23.663,0,0,0,7.5-1.809" transform="translate(-43.251 -18.982)" fill="#e05659"/>
          <path id="Trazado_1261674" data-name="Trazado 1261674" d="M104.344,89.984a1.164,1.164,0,0,1,.723-.47c.115.008.35.018.464.023a11.245,11.245,0,0,0-2.589,6.8,4.067,4.067,0,0,0,2.809-2.023c.013.128.04.389.052.519l.233-.211c1.222.274,2.464.436,3.691.678a10.708,10.708,0,0,1,3.25-2.762c-.028.151-.088.457-.119.611-.763.913-1.859,1.524-2.451,2.592,1.548.543,3.09-.237,4.654-.2-.433.775-1.459.689-2.2.919-2,.517-3.767-.916-5.727-1.026-1.154-.237-2.748.365-2.816,1.7l-.282.027c-.7-.217-1.913-.4-1.8-1.389a15.438,15.438,0,0,1,2.109-5.79" transform="translate(-22.43 -19.641)" fill="#e05659"/>
          <path id="Trazado_1261675" data-name="Trazado 1261675" d="M109.219,92.189c.162-.311.329-.619.491-.929.4.036.806.076,1.211.115-.109.237-.219.475-.323.717.725.3,1.7.379,2.046,1.2a11.823,11.823,0,0,1-3.424-1.1" transform="translate(-23.964 -20.024)" fill="#e05659"/>
          <path id="Trazado_1261676" data-name="Trazado 1261676" d="M100.081,95.6a20.959,20.959,0,0,0,1.107-2.232,12.209,12.209,0,0,0-.183,4.207,8.524,8.524,0,0,0,1.237,2.958c-.062.089-.194.266-.256.355l-.336.138a6.209,6.209,0,0,1-1.141-2.307c-.151-.514-.028-1.183-.48-1.561a6.884,6.884,0,0,1,.052-1.558" transform="translate(-21.944 -20.487)" fill="#e05659"/>
          <path id="Trazado_1261677" data-name="Trazado 1261677" d="M99.651,98.62c1.031,1.047.47,3.022,1.884,3.881l-.125.3c-.068.151-.209.451-.277.6a9.432,9.432,0,0,1-1.206-1.71c-.065.374-.133.749-.2,1.126a17.456,17.456,0,0,1-.076-4.195" transform="translate(-21.845 -21.639)" fill="#e05659"/>
          <path id="Trazado_1261678" data-name="Trazado 1261678" d="M104.113,99.984c1.559,1.164,3.43,1.783,5.028,2.881.6.342.71,1.076.987,1.65a5.272,5.272,0,0,0,3.315,3.207c.525.227,1.307.2,1.44.906a6.746,6.746,0,0,1-4-1.726c-1.037-.863-1.269-2.244-1.874-3.378-1.133-.76-2.4-1.294-3.55-2.038.637,1.234.8,2.931-.486,3.819-.441.381-.82,1-1.47,1.01-.945.023-1.6-.765-2.261-1.323.076-.126.23-.376.306-.5a4.641,4.641,0,0,0,2.456,1.166c-.629-.717-1.268-1.425-1.845-2.184.305-.5.608-1,.885-1.514.5-.1,1.174.031,1.472-.5a5.527,5.527,0,0,0-.4-1.321Zm-1.391,3.022a5.771,5.771,0,0,0,1.386,1.775c.49.305.822-.313,1.015-.666a2.509,2.509,0,0,0-.336-2.148,5.46,5.46,0,0,0-2.065,1.039" transform="translate(-22.214 -21.938)" fill="#e05659"/>
          <path id="Trazado_1261679" data-name="Trazado 1261679" d="M125.817,122.293a2.1,2.1,0,0,1,1.169-3.646,2.368,2.368,0,0,1,2.289,1.43c-.071.715.041,1.558-.538,2.1a2.9,2.9,0,0,1-2.239.684c-.229-.187-.46-.373-.681-.564" transform="translate(-27.451 -26.027)" fill="#e05659"/>
          <path id="Trazado_1261680" data-name="Trazado 1261680" d="M123.063,135.483a42.113,42.113,0,0,1,8.457-2.156c-.049.159-.151.478-.2.637a42.111,42.111,0,0,0-10.46,3.145,8.691,8.691,0,0,0-4.056,2.77,1.809,1.809,0,0,0,1.3.671c2.394.144,4.547-1.058,6.753-1.788a34.192,34.192,0,0,1,6.873-1.519.82.82,0,0,1-.674.66c-1.5.4-3.033.608-4.521,1.041a31.022,31.022,0,0,1-3.751,1.044,9.877,9.877,0,0,0-2.759.806,4.529,4.529,0,0,1-3.135.013c-.068-.136-.136-.272-.2-.405a2.677,2.677,0,0,1-.057-1.25,8.375,8.375,0,0,1,1.8-1.444,14.636,14.636,0,0,1-.77-1.592c.3-.219.609-.431.914-.645a2.586,2.586,0,0,0-.4.749,4.6,4.6,0,0,0,.738,1.06c1.386-.595,2.715-1.326,4.15-1.8" transform="translate(-25.576 -29.254)" fill="#e05659"/>
          <path id="Trazado_1261681" data-name="Trazado 1261681" d="M128.878,144.291a26.562,26.562,0,0,1,5.432-1.016c-.1.637-.755.653-1.256.76a20.673,20.673,0,0,0-5.758,1.658c.016.208.044.621.059.83-.036-.117-.109-.355-.146-.472-.109-.2-.224-.392-.344-.575a5.014,5.014,0,0,1,2.012-1.185" transform="translate(-27.836 -31.437)" fill="#e05659"/>
          <path id="Trazado_1261682" data-name="Trazado 1261682" d="M130.634,148.638c1.5.18,3,.233,4.5.42.08.116.24.345.321.457-.136.07-.41.206-.546.274-1.146-.2-2.318-.222-3.461-.441a.913.913,0,0,1-.812-.71" transform="translate(-28.663 -32.613)" fill="#e05659"/>
          <path id="Trazado_1261683" data-name="Trazado 1261683" d="M73.274,40.9l.631.052c-.091,1.827-.276,3.646-.5,5.46-.235,1.763-.261,3.542-.47,5.307a26.754,26.754,0,0,1-.336,3.393c-.126-2.973.462-5.923.447-8.893-.089-1.783.342-3.537.229-5.32" transform="translate(-15.925 -8.974)" fill="#2b3565"/>
          <path id="Trazado_1261684" data-name="Trazado 1261684" d="M79.818,46.471c.146.029.436.084.582.109-.264,1.073-.538,2.14-.883,3.19-.569,1.66-.89,3.385-1.357,5.074.018-1.8.725-3.5.984-5.267.188-1.041.431-2.075.674-3.106" transform="translate(-17.15 -10.196)" fill="#2b3565"/>
          <path id="Trazado_1261685" data-name="Trazado 1261685" d="M91.167,49.768c.219.058.439.112.658.167-1.194,1.561-2.279,3.2-3.464,4.772q-.955,1.355-1.923,2.7l-.407.681a11.15,11.15,0,0,1-.987,1.334,6.04,6.04,0,0,1,1.044-1.986c.13-.2.253-.411.383-.611.522-.861,1.154-1.647,1.692-2.5.932-1.564,1.987-3.054,3-4.56" transform="translate(-18.66 -10.92)" fill="#2b3565"/>
          <path id="Trazado_1261686" data-name="Trazado 1261686" d="M111.654,83.853c.193.086.389.165.592.237-.423.716-.809,1.454-1.24,2.167-.692,1.083-1.256,2.237-1.841,3.378-.162.311-.329.618-.49.929-.518.958-1.055,1.909-1.65,2.819l-.232.212c-.013-.131-.04-.392-.052-.52,1.37-2.211,2.519-4.565,3.716-6.875.371-.8.765-1.581,1.2-2.346" transform="translate(-23.421 -18.399)" fill="#2b3565"/>
          <path id="Trazado_1261687" data-name="Trazado 1261687" d="M174.972,96.141a37.165,37.165,0,0,1,5.552-.8l0,.507c-.146,3.3-.345,6.6-.243,9.9a26.087,26.087,0,0,0,4.21-2.081c4.283-2.388,8.572-4.774,12.738-7.363.363-.13.415-.5.381-.835a43.479,43.479,0,0,1,9.163,2.5,34.917,34.917,0,0,1,11.156,6.325,21.089,21.089,0,0,1,6.33,10.545,32.2,32.2,0,0,1-.462,16.458,20.251,20.251,0,0,0-.88,3.364,217.248,217.248,0,0,0,1.67,28.953c.658,5.925,1.284,11.859,1.955,17.783a55.986,55.986,0,0,1,.35,7.022c.055,1.245-1.357,1.79-2.389,1.7a5.184,5.184,0,0,0-2.247-.041,254.823,254.823,0,0,1-52.442.214c-5.576-.535-11.133-1.24-16.708-1.754-.389,0-.472.175-.251.528,8.742,1.127,17.52,2.067,26.321,2.652,5.4.2,10.791.6,16.2.535,3.378-.023,6.76.076,10.133-.133a37.323,37.323,0,0,0,4.359,8.17,35.852,35.852,0,0,0,6.1,6.458,15.109,15.109,0,0,0,2.994,2.146,1.55,1.55,0,0,0-.5-.981,41.2,41.2,0,0,1-6.967-6.612,31.713,31.713,0,0,1-5.221-9.241c4.189-.386,8.408-.451,12.587-.992a40.707,40.707,0,0,1,5.711-.433c2.282,16.573.841,33.336-.287,49.94q-36.534.015-73.071.012c-.047-3.148-.041-6.3-.034-9.446,3.978-1.363,7.953-2.762,11.79-4.49-.624-1.89-1.1-3.826-1.694-5.724-2.477-7.873-5.359-15.615-8.588-23.208a5.5,5.5,0,0,1-.464-2.535c.107-2.125.251-4.245.376-6.37-.676-.151-1.532-.211-1.866-.929a7.5,7.5,0,0,1-.081-2.824c.452-5.025,1.133-10.026,1.713-15.04.736-6.427,1.741-12.834,2.022-19.305.763.6,1.53,1.2,2.3,1.8a22.632,22.632,0,0,0-.472,5.9c-.019.752.788.987,1.331,1.271,5.174,2.172,10.467,4.046,15.758,5.91a118.633,118.633,0,0,0,12.122,3.811,21.123,21.123,0,0,0,7.878.575,17.5,17.5,0,0,0,8.206-4.111,46.583,46.583,0,0,0,8.071-8.64,93.436,93.436,0,0,0,8.538-13.714c-.342.1-.781.058-.9.47a90.324,90.324,0,0,1-11.861,17.356c-3.026,3.164-6.382,6.345-10.674,7.627-3.683,1.107-7.554.254-11.153-.744-3.775-1.13-7.53-2.321-11.227-3.677a35.771,35.771,0,0,1-3.693-1.342,91.67,91.67,0,0,0,5.583-19.125c.337-1.953.4-3.937.718-5.892,3.519,1.008,7.04,2.01,10.6,2.864a179.4,179.4,0,0,1,11.647-22.32,10.658,10.658,0,0,0,1.232-2.031c-.1-.587-.763-.117-.9.212-2.624,4.236-5.2,8.512-7.4,12.986-1.777,3.378-3.307,6.878-4.852,10.365-5.673-1.522-11.383-2.88-17.037-4.463a30.345,30.345,0,0,0-5.176-1.185,5.806,5.806,0,0,0-1.339,1.618c-2.023-.6-4.061-1.159-6.095-1.726a32.719,32.719,0,0,1,1.066-9.8c.916-3.443,2.03-6.834,3.186-10.2-.756-.459-.9.507-1.094,1.023-1.044,3.317-2.166,6.619-2.968,10.008a50.273,50.273,0,0,0-1.047,8.729c-1.772-.472-3.529-1-5.3-1.454a4.959,4.959,0,0,1-2.021-.827c-2.587-2.208-5.2-4.385-7.854-6.5a21.044,21.044,0,0,0-4.189-2.887,4.858,4.858,0,0,0,1.3-2.336c-1.02.24-1.339,1.357-1.894,2.114a20.6,20.6,0,0,0-4.829.64,30.323,30.323,0,0,0-8.165,2.832l-.308.065c1.386-2.73,2.741-5.478,4.236-8.149a2.9,2.9,0,0,0,2.24-.684c.58-.538.468-1.381.538-2.1.992-.874,1.987-1.751,2.905-2.7.365-.37,1.07-1.156,1.527-.49,1.631,1.931,3.195,3.92,4.766,5.9.157.264.5.488.449.833l0,.177a15.416,15.416,0,0,0,1.7,2.861,2.515,2.515,0,0,0,1.06.953c-.324-1.621-1.645-2.741-2.315-4.2,7.35-5.834,14.773-11.584,22.5-16.909a41.593,41.593,0,0,1,5.3-2.822,45.365,45.365,0,0,1,8.6-2.424m43.588,99.742c.1,1.7.436,3.37.483,5.075a30.147,30.147,0,0,0,.311,3.892c.144-.063.428-.183.571-.246a75.227,75.227,0,0,0-.8-8.566c-.141-.04-.423-.116-.561-.155m-43.3,11.318c-.208.381.151.707.368.981,1.667,1.812,3.469,3.5,5.228,5.221.478,1.731.655,3.537,1.044,5.3,1.326,7.217,2.678,14.435,3.824,21.685.392.206.814.042.658-.441-1.527-8.987-3.09-17.985-4.918-26.911-1.67-1.713-3.488-3.292-5.075-5.09-.324-.311-.608-.816-1.13-.741m44.319.511c-.146,4.187.222,8.376.173,12.566.115,5.651.167,11.3.078,16.958,0,.533-.117,1.279.621,1.334.2-2.443.029-4.9.07-7.353.066-7.572-.185-15.142-.425-22.709-.044-.293.06-1.154-.517-.8" transform="translate(-26.65 -20.919)" fill="#2b3565"/>
          <path id="Trazado_1261688" data-name="Trazado 1261688" d="M103.078,99.3l.282-.026c0,.183.005.365.016.55l.005.159c-.379.592-.752,1.19-1.073,1.816-.277.514-.58,1.016-.885,1.514-.209.334-.41.676-.611,1.018-.076.126-.229.376-.305.5-.34.548-.7,1.083-1,1.658a9.56,9.56,0,0,1-1.626,2.706c.4-.911.927-1.759,1.341-2.663.347-.7.775-1.357,1.1-2.067.149-.311.3-.619.439-.929.068-.149.209-.45.277-.6.146-.261.308-.509.478-.754.062-.089.193-.266.255-.355.355-.509.7-1.023,1.055-1.535.076-.334.155-.666.248-.994" transform="translate(-21.477 -21.783)" fill="#2b3565"/>
          <path id="Trazado_1261689" data-name="Trazado 1261689" d="M116.922,130.3c1.989-1.527,4.051-2.958,6.03-4.5-.765,2.516-2.363,4.672-3.2,7.16-.462.274-.921.553-1.36.866-.305.215-.61.425-.913.645a22.234,22.234,0,0,0-1.744-3.108c.391-.355.783-.716,1.185-1.06" transform="translate(-25.394 -27.601)" fill="#2b3565"/>
          <path id="Trazado_1261690" data-name="Trazado 1261690" d="M120.994,142.667a9.869,9.869,0,0,1,2.759-.806,7.17,7.17,0,0,0,.234,1.717,5.093,5.093,0,0,0,1.418,1.443,14.217,14.217,0,0,0-2.3,1.658c-.642-1.371-1.4-2.682-2.115-4.013" transform="translate(-26.548 -31.126)" fill="#2b3565"/>
          <path id="Trazado_1261691" data-name="Trazado 1261691" d="M116.154,142.392c.062.133.13.269.2.4-.8,1.245-1.326,2.655-2.222,3.84.569-1.467,1.5-2.762,2.023-4.244" transform="translate(-25.042 -31.243)" fill="#2b3565"/>
          <path id="Trazado_1261692" data-name="Trazado 1261692" d="M173.275,146.321c3.644,1.016,7.309,1.958,10.956,2.955a81.682,81.682,0,0,1-4.09,18.839,45.773,45.773,0,0,1-2.18,6.027c-1.574-.512-3.088-1.177-4.635-1.765-2.159-.832-4.378-1.506-6.49-2.459a25.054,25.054,0,0,0,1.674-4.722c1.621-5.743,3.469-11.443,4.5-17.334.088-.514.177-1.029.269-1.54" transform="translate(-36.606 -32.105)" fill="#2b3565"/>
          <path id="Trazado_1261693" data-name="Trazado 1261693" d="M123.9,148.1a22.43,22.43,0,0,1,2.663-1.272c.037.118.109.355.146.473a3.6,3.6,0,0,0,2.391,2.819,6.429,6.429,0,0,0,4.333-.728c.136-.068.41-.2.546-.274a10.217,10.217,0,0,0,8.157,4.161c.872.1,1.931-.243,2.626.457,1.723,1.5,3.558,2.855,5.3,4.33-3.719,1.754-7.656,3.44-11.827,3.527-2.971.136-5.57-1.626-7.7-3.508-1.031-.922-1.973-1.934-2.944-2.919a9.772,9.772,0,0,1-1.24-2.015c-.757-1.713-1.637-3.367-2.451-5.051" transform="translate(-27.185 -32.216)" fill="#2b3565"/>
          <path id="Trazado_1261694" data-name="Trazado 1261694" d="M62.136,42.919a3.2,3.2,0,0,1,1.229.163,37.172,37.172,0,0,1,7.22,3.58c.016,2.971-.571,5.921-.446,8.893a26.727,26.727,0,0,0,.336-3.393c.209-1.763.235-3.545.47-5.306,1.475.715,3.012,1.29,4.516,1.943-.258,1.769-.966,3.466-.984,5.267.468-1.689.788-3.415,1.357-5.075a44.952,44.952,0,0,1,4.816,2.16c.848.448,1.488,1.193,2.318,1.676-.538.851-1.169,1.635-1.692,2.5-.6-.817-.869-1.873-1.676-2.523a19.974,19.974,0,0,0,1.293,3.132,6.051,6.051,0,0,0-1.044,1.987,11.026,11.026,0,0,0,.987-1.334c.611,1.276.358,2.785,1.037,4.029a13.14,13.14,0,0,0-.629-4.71q.971-1.345,1.923-2.7a29.327,29.327,0,0,1,2.467,5.461c2.744,8.958,2.154,18.434,3.049,27.658a26,26,0,0,0,2.532,7.852c-.415.9-.94,1.752-1.342,2.663A9.571,9.571,0,0,0,91.5,94.13a11.287,11.287,0,0,0,1.642,3.447c3.2,5.067,6.939,9.774,10.18,14.814.162.258.326.517.488.781a22.2,22.2,0,0,1,1.744,3.109,14.777,14.777,0,0,0,.77,1.592,8.4,8.4,0,0,0-1.8,1.443,2.667,2.667,0,0,0,.058,1.25c-.528,1.484-1.454,2.777-2.023,4.245.9-1.185,1.42-2.595,2.222-3.839a4.534,4.534,0,0,0,3.135-.014c.715,1.331,1.472,2.641,2.114,4.012l.151.332c.815,1.684,1.695,3.338,2.451,5.05a9.742,9.742,0,0,0,1.24,2.015,4.173,4.173,0,0,0,.331,1.107c7.291,13.482,14.168,27.193,20.4,41.195,1.527,3.19,2.748,6.518,4.247,9.721.047-.18.141-.538.187-.717a5.5,5.5,0,0,0,.465,2.535c3.229,7.593,6.11,15.335,8.587,23.208.6,1.9,1.07,3.834,1.694,5.724-3.837,1.728-7.812,3.127-11.79,4.489a79.119,79.119,0,0,1-9.888,2.616,43.693,43.693,0,0,1-15.6.546c-4.43-.668-8.7-2.065-13.036-3.145a51.264,51.264,0,0,0-14.4-1.891,46.045,46.045,0,0,0-17.027,4.234c-1.216-3.2-1.372-6.7-1.723-10.075-.767-11.863.2-23.74.465-35.6q-.792,0-1.574.034c.543-.068,1.086-.149,1.629-.225.167-5.559.149-11.125.023-16.687-.18-6.272-.746-12.526-1.482-18.757-.877-7.324-2.167-14.594-2.96-21.931-1.4-12.047-1.175-24.208-.621-36.3.188-3.939.569-7.872.53-11.82.358-1.993.269-4.025.433-6.039a165.726,165.726,0,0,0-.627-21.665M85.615,76.09a36.806,36.806,0,0,0,.183,4.889c.109.54-.05,1.306.548,1.592-.133-2.088-.36-4.168-.394-6.259l-.336-.222M64.856,79.831c.036,2.9-.048,5.821.269,8.707.081.052.24.16.321.212.029-2.015-.151-4.03-.13-6.044a35.74,35.74,0,0,0-.157-4.762,3.261,3.261,0,0,0-.3,1.887m46.616,57.921a4.912,4.912,0,0,0,.46,1.13c1.67,2.8,3.15,5.714,4.675,8.6.107.073.321.219.425.292a13.2,13.2,0,0,0-1.368-3c-1.1-2.166-2.289-4.286-3.531-6.371a2.212,2.212,0,0,0-.66-.65" transform="translate(-13.466 -9.417)" fill="#ffdac4"/>
          <path id="Trazado_1261695" data-name="Trazado 1261695" d="M112.922,79.754a1.893,1.893,0,1,1,.493,3.364c-.2-.073-.4-.151-.592-.237a1.925,1.925,0,0,1,.1-3.127" transform="translate(-24.589 -17.426)" fill="#b1d1af"/>
          <path id="Trazado_1261696" data-name="Trazado 1261696" d="M92.9,45.864a1.843,1.843,0,0,1,2.973,1.375,1.81,1.81,0,0,1-2.47,1.752c-.219-.055-.438-.109-.657-.167a2.172,2.172,0,0,1,.154-2.96" transform="translate(-20.239 -9.976)" fill="#f7b298"/>
          <path id="Trazado_1261697" data-name="Trazado 1261697" d="M179.482,56.289A20.493,20.493,0,0,1,183.6,45.454a25.37,25.37,0,0,0,9.911,11.9,4.71,4.71,0,0,0-2.613-.571c-.365.039-1.016.146-.966.637-.167.556.53.712.929.741a27.214,27.214,0,0,1,3.406.728c.1-.164.3-.49.4-.655q-.309-.279-.61-.553a26.261,26.261,0,0,0,11.164,3.292,7.309,7.309,0,0,1,1.926.183c-3.584.765-7.165,1.54-10.767,2.221a7.17,7.17,0,0,0-2.295-3.691,4.159,4.159,0,0,0-5-.41,5.244,5.244,0,0,0-2.176,2.911,6.192,6.192,0,0,0-2.439-.423c-.548-2.1-1.822-4.375-4.161-4.745.877-.094,1.759.162,2.636.047a.608.608,0,0,0,.008-1.122,3.488,3.488,0,0,0-3.471.35" transform="translate(-39.381 -9.973)" fill="#f7b298"/>
          <path id="Trazado_1261698" data-name="Trazado 1261698" d="M179.453,61.131a3.718,3.718,0,0,1,2.232.812c2.222,2.023,2.814,5.918.728,8.238a2.725,2.725,0,0,1-2.835.717c-.164-2.469-.1-4.957-.339-7.413a11.284,11.284,0,0,0,.214-2.354m.9,5.456a1.875,1.875,0,0,0,.8,1.777c1.138-.606,1.274-2.657.029-3.2-.726-.018-.831.88-.833,1.42" transform="translate(-39.328 -13.413)" fill="#f7b298"/>
          <path id="Trazado_1261699" data-name="Trazado 1261699" d="M192.434,63.535a3.789,3.789,0,0,1,3.766,1.008,6.05,6.05,0,0,1,1.29,6.659,3.76,3.76,0,0,1-3.3,2.242,4.21,4.21,0,0,1-3.239-1.822,6.609,6.609,0,0,1-1.18-4.563,4.126,4.126,0,0,1,2.66-3.524m.01,3.4a1.8,1.8,0,0,0,.245,2.884c.862-.123.961-1.271.872-1.958-.047-.507-.556-1.261-1.117-.927" transform="translate(-41.632 -13.905)" fill="#f7b298"/>
          <path id="Trazado_1261700" data-name="Trazado 1261700" d="M208.684,67.634c.7-1.295,1.453-2.775,2.957-3.263a3.189,3.189,0,0,1,3.968,2.266,7.019,7.019,0,0,1-2.733,7.384,5.56,5.56,0,0,1-3.8.869c-.321,1.332-1.422,2.574-.945,4,.506,2.154,1.015,4.306,1.55,6.455.258,1.1.454,2.206.765,3.289.034.336-.019.7-.382.835-4.166,2.589-8.455,4.975-12.738,7.363a26.052,26.052,0,0,1-4.21,2.08c-.1-3.3.1-6.6.243-9.9a15.157,15.157,0,0,0,9.726-4.683,8.459,8.459,0,0,0,1.8-2.712,30.3,30.3,0,0,1-4.017,2.349,23.643,23.643,0,0,1-7.5,1.809,11.829,11.829,0,0,1-9.87-3.962,18.031,18.031,0,0,1-3.531-9.387,3.559,3.559,0,0,0,2.919-.744,6.644,6.644,0,0,0,1.8-4.894c.647.052,1.409-.1,1.941.376a19.348,19.348,0,0,0,.468,2.947,6.035,6.035,0,0,0,3.905,4.143,4.123,4.123,0,0,0,4.05-1.094,6.3,6.3,0,0,0,1.574-4.842c3.7-.763,7.392-1.567,11.1-2.321.321.543.637,1.094.971,1.634m4.823-1.3a9.834,9.834,0,0,0-3.936,4.067c-.167.258-.421,1.25.185,1.026.464-.715.862-1.475,1.379-2.158a1.954,1.954,0,0,1,.88,2.08c-.227.371-.486.723-.724,1.089a1.108,1.108,0,0,0,1.4-.742c.54-1.125-.2-2.279-.911-3.119a20.5,20.5,0,0,1,2.456-1.856c.345-.451-.462-.653-.728-.386m-28.4,1.062a15.64,15.64,0,0,1-1.4,3.851c-.5.981-1.279,2.059-.927,3.213.482,1.021,1.78,1.005,2.746,1.029.561-.048,1.467.086,1.432-.734-1.062-.06-2.216.222-3.207-.258-.46-.258-.206-.843-.081-1.222.8-1.963,1.942-3.848,2.14-6l-.7.123m6.5,10.721a6.66,6.66,0,0,1-5.048.637c-.507-.1-1.034-.488-1.535-.185a.71.71,0,0,0,.5.663,6.841,6.841,0,0,0,6.3-.418c.412-.144.251-.9-.212-.7" transform="translate(-39.486 -14.088)" fill="#f7b298"/>
          <path id="Trazado_1261701" data-name="Trazado 1261701" d="M107.05,87.6a7.424,7.424,0,0,1,2.618-.736c-1.2,2.31-2.346,4.665-3.717,6.875a4.068,4.068,0,0,1-2.809,2.023,11.245,11.245,0,0,1,2.589-6.8c-.115,0-.35-.016-.464-.023A21.341,21.341,0,0,1,107.05,87.6" transform="translate(-22.63 -19.058)" fill="#f7b298"/>
          <path id="Trazado_1261702" data-name="Trazado 1261702" d="M108.762,90.311c.585-1.14,1.148-2.294,1.84-3.378.966.47,2.065.553,3.033,1.028a7.081,7.081,0,0,1,3.026,2.449c2.143,3.065,3.218,6.7,4.871,10.018,1.952,3.4,4.233,6.607,6.214,9.995-.919.95-1.913,1.827-2.9,2.7a2.369,2.369,0,0,0-2.289-1.43,2.1,2.1,0,0,0-1.169,3.646,14.261,14.261,0,0,1-.809,1.926c-1.978,1.545-4.04,2.976-6.029,4.5q-.153-.528-.29-1.049c-1-4.278-1.775-8.611-2.746-12.889-.835-.744-1.924-1.154-2.728-1.948-1.182-.989-1.861-2.42-3-3.44,1.281-.888,1.122-2.585.485-3.819,1.146.744,2.417,1.279,3.55,2.039.606,1.133.838,2.513,1.874,3.378a6.749,6.749,0,0,0,4,1.725c-.133-.7-.916-.678-1.441-.905a5.275,5.275,0,0,1-3.315-3.208c-.276-.574-.389-1.307-.987-1.649-1.6-1.1-3.469-1.717-5.027-2.882-.01-.185-.016-.368-.016-.55.068-1.336,1.663-1.94,2.816-1.7,1.96.109,3.727,1.542,5.727,1.026.744-.23,1.77-.144,2.2-.919-1.564-.034-3.106.746-4.654.2.592-1.067,1.688-1.678,2.451-2.592.031-.154.091-.46.12-.611a10.723,10.723,0,0,0-3.25,2.762c-1.226-.243-2.469-.4-3.691-.678.595-.911,1.133-1.861,1.649-2.819a11.853,11.853,0,0,0,3.425,1.1c-.347-.82-1.321-.9-2.047-1.2.1-.243.214-.481.324-.718-.405-.039-.809-.078-1.211-.115" transform="translate(-23.016 -19.074)" fill="#f7b298"/>
          <path id="Trazado_1261703" data-name="Trazado 1261703" d="M101.431,92.658a4.064,4.064,0,0,1,2.67-2.542,15.437,15.437,0,0,0-2.109,5.79c-.118.987,1.091,1.172,1.8,1.389-.094.329-.173.66-.248.994-.353.511-.7,1.026-1.055,1.535a8.539,8.539,0,0,1-1.237-2.958,12.21,12.21,0,0,1,.183-4.207" transform="translate(-22.187 -19.773)" fill="#f7b298"/>
          <path id="Trazado_1261704" data-name="Trazado 1261704" d="M103.552,102c.321-.627.694-1.224,1.073-1.816a5.527,5.527,0,0,1,.4,1.321c-.3.527-.973.4-1.472.5" transform="translate(-22.721 -21.983)" fill="#f7b298"/>
          <path id="Trazado_1261705" data-name="Trazado 1261705" d="M99.965,102.552a9.387,9.387,0,0,0,1.206,1.709c-.144.311-.29.619-.439.93a4.058,4.058,0,0,1-1-1.352l.032-.162c.067-.375.135-.752.2-1.125" transform="translate(-21.883 -22.501)" fill="#f7b298"/>
          <path id="Trazado_1261706" data-name="Trazado 1261706" d="M103.137,103.564a5.46,5.46,0,0,1,2.065-1.039,2.509,2.509,0,0,1,.336,2.148c-.193.353-.525.971-1.015.666a5.771,5.771,0,0,1-1.386-1.775" transform="translate(-22.63 -22.495)" fill="#f7b298"/>
          <path id="Trazado_1261707" data-name="Trazado 1261707" d="M101.635,105.473c.2-.342.4-.684.61-1.018.577.76,1.217,1.467,1.846,2.185a4.653,4.653,0,0,1-2.457-1.167" transform="translate(-22.3 -22.919)" fill="#f7b298"/>
          <path id="Trazado_1261708" data-name="Trazado 1261708" d="M128.926,130.592a20.551,20.551,0,0,1,4.829-.639l.6.222a21.131,21.131,0,0,1,4.189,2.887c2.657,2.12,5.267,4.3,7.854,6.5a4.961,4.961,0,0,0,2.02.828c1.775.451,3.532.981,5.3,1.453.285.076.567.157.856.24,2.033.566,4.072,1.122,6.095,1.725.46.146.911.3,1.371.454-1.029,5.891-2.876,11.592-4.5,17.334-.632-.493-1.245-1-1.869-1.5-.767-.6-1.535-1.2-2.3-1.8-1.652-1.277-3.289-2.569-4.865-3.936-1.741-1.475-3.576-2.835-5.3-4.331-.695-.7-1.754-.358-2.626-.457a10.219,10.219,0,0,1-8.157-4.161c-.081-.112-.24-.342-.321-.457-1.5-.188-3-.24-4.5-.421a.913.913,0,0,0,.812.71c1.144.219,2.315.24,3.461.441a6.429,6.429,0,0,1-4.333.728,3.6,3.6,0,0,1-2.391-2.819c-.016-.209-.045-.621-.06-.831a20.651,20.651,0,0,1,5.758-1.657c.5-.107,1.156-.123,1.255-.76a26.492,26.492,0,0,0-5.431,1.015,5,5,0,0,0-2.013,1.186l-.172-.144a5.065,5.065,0,0,1-1.418-1.444,7.155,7.155,0,0,1-.235-1.717A31.122,31.122,0,0,0,126.6,138.2c1.488-.434,3.026-.642,4.521-1.042a.819.819,0,0,0,.674-.66,34.141,34.141,0,0,0-6.873,1.52c-2.206.731-4.359,1.931-6.753,1.788a1.809,1.809,0,0,1-1.3-.671,8.686,8.686,0,0,1,4.056-2.77,42.145,42.145,0,0,1,10.46-3.146c.052-.159.154-.478.2-.637a42.113,42.113,0,0,0-8.457,2.157c-1.435.472-2.764,1.2-4.15,1.8a4.624,4.624,0,0,1-.738-1.059,2.591,2.591,0,0,1,.4-.749c.439-.313.9-.592,1.36-.866.251-.149.5-.3.76-.439a30.3,30.3,0,0,1,8.165-2.832" transform="translate(-25.642 -28.51)" fill="#f7b298"/>
          <path id="Trazado_1261709" data-name="Trazado 1261709" d="M.566,58.533a3.973,3.973,0,0,1,1.062-1.809,4.3,4.3,0,0,1,3.114,1.647,25.847,25.847,0,0,1,4.121,8.154,33.011,33.011,0,0,1,1.616,7.959,10.5,10.5,0,0,1-.82,5.4,2.05,2.05,0,0,1-2.344,1C5.661,80.466,4.7,78.926,3.51,77.833a37.856,37.856,0,0,1-3.4-12.469,18.409,18.409,0,0,1,.46-6.831" transform="translate(0 -12.446)" fill="#81808b"/>
          <path id="Trazado_1261710" data-name="Trazado 1261710" d="M60.971,84.733c.3-2.1.318-4.236.728-6.324.039,3.949-.342,7.882-.53,11.821-.553,12.09-.775,24.252.621,36.3.794,7.338,2.083,14.607,2.96,21.931.736,6.231,1.3,12.485,1.482,18.757.126,5.562.144,11.127-.023,16.687-.543.076-1.086.157-1.628.225-.859.107-1.723.146-2.581.2a167.681,167.681,0,0,0-.1-32.227c-.46-5.518-1.371-10.984-2.01-16.481a160.248,160.248,0,0,1-1.383-20.618,209.214,209.214,0,0,1,2.461-30.273" transform="translate(-12.837 -17.204)" fill="#81808b"/>
          <path id="Trazado_1261711" data-name="Trazado 1261711" d="M124.89,123.325c.222.19.452.376.681.564-1.5,2.67-2.851,5.419-4.236,8.149l.308-.066c-.256.141-.509.29-.76.439.835-2.488,2.433-4.644,3.2-7.16a14.261,14.261,0,0,0,.809-1.926" transform="translate(-26.523 -27.059)" fill="#81808b"/>
        </g>
      </g>
    </g>
  </g>
</svg>
