<svg xmlns="http://www.w3.org/2000/svg" xmlns:xlink="http://www.w3.org/1999/xlink" width="151.455" height="127.264" viewBox="0 0 151.455 127.264">
  <defs>
    <clipPath id="clip-path">
      <rect id="Rectángulo_454929" data-name="Rectángulo 454929" width="151.455" height="127.264" transform="translate(-10 0)" fill="none"/>
    </clipPath>
  </defs>
  <g id="Grupo_1204614" data-name="Grupo 1204614" transform="translate(-725.254 -4910.88)">
    <g id="Grupo_1204452" data-name="Grupo 1204452" transform="translate(735.254 4910.88)">
      <g id="Grupo_1203490" data-name="Grupo 1203490">
        <g id="Grupo_1203489" data-name="Grupo 1203489" clip-path="url(#clip-path)">
          <path id="Trazado_1258858" data-name="Trazado 1258858" d="M112.82,119.983c20.7-13.241,21.518-35.308,17.652-57.35-1.975-11.257-2.287-22.333-3.656-33.579-.631-5.183-1.885-10.419-4.772-14.769C113.793,1.85,97.795,6.253,85.682,8.59,66.52,13.381,45.008,13.343,27.044,22.081c-13.87,6.746-28.818,22-26.872,38.711.962,8.264,6.074,15.594,12.437,20.954,11.5,9.689,26.467,14.77,38.936,23.114,8.99,6.016,15.749,16.787,26.109,20.619,10.926,4.041,25.163.76,34.728-5.219q.22-.138.438-.277" fill="#752092"/>
          <g id="biomecanica" transform="translate(5.746 17.119)">
            <g id="Grupo_1204464" data-name="Grupo 1204464" transform="translate(10.105 10.363)">
              <g id="Grupo_1204454" data-name="Grupo 1204454" transform="translate(6.682 6.989)">
                <g id="Grupo_1204453" data-name="Grupo 1204453" transform="translate(0 11.145)">
                  <path id="Trazado_1269401" data-name="Trazado 1269401" d="M82.9,207.324a4.259,4.259,0,1,1,7.293,4.4L80.218,228.2a4.244,4.244,0,0,1-2.544,1.913L54.39,236.37a4.275,4.275,0,1,1-2.213-8.258l21.65-5.8Z" transform="translate(-49.007 -186.564)" fill="#fe9554" fill-rule="evenodd"/>
                  <path id="Trazado_1269402" data-name="Trazado 1269402" d="M300.767,126.526a3.734,3.734,0,1,1,2.221-7.131l10.38,2.22,10.572-11.266a3.732,3.732,0,1,1,5.436,5.115l-12.059,12.85a3.735,3.735,0,0,1-3.939,1.126Z" transform="translate(-249.654 -109.175)" fill="#fe9554" fill-rule="evenodd"/>
                </g>
                <path id="Trazado_1269403" data-name="Trazado 1269403" d="M165.763,121.074l-9.141,15.833a.958.958,0,0,0,.093,1.106l3.941,4.766a4.245,4.245,0,0,1,.968,3.032l-1.759,24.046a4.275,4.275,0,1,1-8.527-.629l1.65-22.353-10.966-13.263c-1.655-1.973-1.412-4.233.071-6.934l6.807-11.79-8.464-2.255L129.862,123.9a3.732,3.732,0,0,1-5.436-5.115l12.059-12.85a3.736,3.736,0,0,1,3.939-1.126l12.611,2.914,11.485,6.564c3.957,2.261,2.406,4.771,1.241,6.788Z" transform="translate(-108.931 -94.376)" fill="#fec872" fill-rule="evenodd"/>
                <circle id="Elipse_13664" data-name="Elipse 13664" cx="7.085" cy="7.085" r="7.085" transform="translate(50.16)" fill="#efc7a4"/>
              </g>
              <g id="Grupo_1204455" data-name="Grupo 1204455" transform="translate(87.409 38.093)">
                <path id="Trazado_1269404" data-name="Trazado 1269404" d="M466.925,217.992a3.134,3.134,0,1,0-3.134-3.134A3.14,3.14,0,0,0,466.925,217.992Z" transform="translate(-463.791 -211.723)" fill="#fdcd56" fill-rule="evenodd"/>
              </g>
              <g id="Grupo_1204456" data-name="Grupo 1204456" transform="translate(0 74.788)">
                <circle id="Elipse_13665" data-name="Elipse 13665" cx="3.134" cy="3.134" r="3.134" transform="translate(0 0.621) rotate(-5.682)" fill="#fdcd56"/>
              </g>
              <g id="Grupo_1204457" data-name="Grupo 1204457" transform="translate(67.881 87.151)">
                <path id="Trazado_1269405" data-name="Trazado 1269405" d="M366.588,470.058a3.134,3.134,0,1,0-3.134-3.134A3.141,3.141,0,0,0,366.588,470.058Z" transform="translate(-363.454 -463.789)" fill="#fdcd56" fill-rule="evenodd"/>
              </g>
              <g id="Grupo_1204458" data-name="Grupo 1204458" transform="translate(72.091 53.603)">
                <path id="Trazado_1269406" data-name="Trazado 1269406" d="M386.653,291.837a3.134,3.134,0,1,1-1.147,4.282A3.134,3.134,0,0,1,386.653,291.837Z" transform="translate(-385.085 -291.417)" fill="#fdcd56" fill-rule="evenodd"/>
              </g>
              <g id="Grupo_1204459" data-name="Grupo 1204459" transform="translate(33.682 73.805)">
                <path id="Trazado_1269407" data-name="Trazado 1269407" d="M193.584,396.784a3.134,3.134,0,1,1-4.282-1.147A3.134,3.134,0,0,1,193.584,396.784Z" transform="translate(-187.735 -395.216)" fill="#fdcd56" fill-rule="evenodd"/>
              </g>
              <g id="Grupo_1204460" data-name="Grupo 1204460" transform="translate(45.558 0)">
                <path id="Trazado_1269408" data-name="Trazado 1269408" d="M254.606,20.7a3.134,3.134,0,1,0-4.282,1.147A3.134,3.134,0,0,0,254.606,20.7Z" transform="translate(-248.757 -16)" fill="#fdcd56" fill-rule="evenodd"/>
              </g>
              <g id="Grupo_1204461" data-name="Grupo 1204461" transform="translate(18.624 7.17)">
                <circle id="Elipse_13666" data-name="Elipse 13666" cx="3.134" cy="3.134" r="3.134" fill="#fdcd56"/>
              </g>
              <g id="Grupo_1204462" data-name="Grupo 1204462" transform="translate(2.701 32.298)">
                <path id="Trazado_1269409" data-name="Trazado 1269409" d="M33.256,182.37a3.134,3.134,0,1,0,1.147,4.282A3.135,3.135,0,0,0,33.256,182.37Z" transform="translate(-28.554 -181.95)" fill="#fdcd56" fill-rule="evenodd"/>
              </g>
              <g id="Grupo_1204463" data-name="Grupo 1204463" transform="translate(80.526 0)">
                <circle id="Elipse_13667" data-name="Elipse 13667" cx="3.134" cy="3.134" r="3.134" fill="#fdcd56"/>
              </g>
            </g>
            <path id="Trazado_1269410" data-name="Trazado 1269410" d="M93.765,11.726A1.772,1.772,0,1,1,91.993,13.5a1.773,1.773,0,0,1,1.773-1.772Zm-8.072,7.8a1.351,1.351,0,0,0,.679-.183l4.363-2.519a4.5,4.5,0,1,0-1.363-2.359l-4.362,2.518a1.363,1.363,0,0,0,.683,2.543ZM15.94,44.024A1.772,1.772,0,1,1,14.167,45.8,1.775,1.775,0,0,1,15.94,44.024Zm0,6.269a4.5,4.5,0,0,0,4.286-3.134h5.036a1.362,1.362,0,1,0,0-2.724H20.226a4.5,4.5,0,1,0-4.286,5.859ZM31.863,18.9a1.772,1.772,0,1,1-1.773,1.772A1.773,1.773,0,0,1,31.863,18.9Zm0,6.269a4.474,4.474,0,0,0,3.028-1.176l4.363,2.52a1.362,1.362,0,0,0,1.363-2.36l-4.362-2.518a4.5,4.5,0,1,0-4.392,3.534ZM58.8,11.726A1.772,1.772,0,1,1,57.026,13.5,1.776,1.776,0,0,1,58.8,11.726Zm-1.362,6.057V22.82a1.362,1.362,0,0,0,2.724,0V17.783a4.5,4.5,0,1,0-2.724,0ZM46.921,89.075A1.772,1.772,0,1,1,48.694,87.3,1.773,1.773,0,0,1,46.921,89.075Zm1.363-6.057V77.982a1.363,1.363,0,1,0-2.725,0v5.036a4.5,4.5,0,1,0,2.725,0ZM85.33,68.873A1.772,1.772,0,1,1,87.1,67.1,1.773,1.773,0,0,1,85.33,68.873Zm0-6.269a4.506,4.506,0,0,0-4.285,3.134H76.009a1.363,1.363,0,0,0,0,2.725h5.035A4.5,4.5,0,1,0,85.33,62.6Zm-4.209,39.816a1.772,1.772,0,1,1,1.771-1.773A1.776,1.776,0,0,1,81.121,102.421Zm0-6.269a4.481,4.481,0,0,0-3.029,1.175l-4.363-2.519a1.362,1.362,0,0,0-1.363,2.36l4.361,2.518a4.5,4.5,0,1,0,4.393-3.533ZM13.5,90.365a1.772,1.772,0,1,1,1.773-1.772A1.773,1.773,0,0,1,13.5,90.365Zm7.392-7.612-4.364,2.519a4.5,4.5,0,1,0,1.364,2.359l4.361-2.518a1.362,1.362,0,0,0-1.361-2.36Zm79.759-29.39a1.772,1.772,0,1,1,1.773-1.772A1.773,1.773,0,0,1,100.648,53.363Zm0-6.269a4.475,4.475,0,0,0-3.027,1.175L93.257,45.75a1.362,1.362,0,1,0-1.362,2.36l4.361,2.518a4.5,4.5,0,1,0,4.392-3.533ZM74.031,18.714a5.722,5.722,0,1,1-5.722,5.723A5.729,5.729,0,0,1,74.031,18.714Zm0,14.169a8.447,8.447,0,1,0-8.447-8.446A8.456,8.456,0,0,0,74.031,32.884Zm-5.912,35.8a2.883,2.883,0,0,0-.657-2.063l-4.373-5.288a1.364,1.364,0,0,1-.13-1.549l9.48-16.419.066-.113c.607-1.051,1.236-2.139,1-3.005A3.49,3.49,0,0,0,71.7,38.445L60.389,31.981,47.974,29.112c-.034-.007-.067-.018-.1-.027a2.374,2.374,0,0,0-2.5.715c-.012.015-.026.028-.037.042L33.274,42.693a2.37,2.37,0,1,0,3.451,3.249L47.3,34.677a1.364,1.364,0,0,1,1.345-.385L57.1,36.548a1.36,1.36,0,0,1,.829,2l-6.8,11.777c-1.648,3.009-1.033,4.414-.213,5.391l10.971,13.27a1.367,1.367,0,0,1,.309.969L60.55,92.3a2.913,2.913,0,0,0,5.81.429Zm-21.288.743a2.888,2.888,0,0,1-1.733,1.3L21.816,76.987a2.913,2.913,0,0,1-1.508-5.627l21.65-5.8a1.36,1.36,0,0,0,.813-.611l5.255-8.678a6.665,6.665,0,0,0,.8,1.186l3.034,3.669ZM80.215,42.27a1.364,1.364,0,0,0,1.279-.4L92.066,30.605a2.369,2.369,0,1,1,3.448,3.249L83.456,46.7l-.037.041a2.373,2.373,0,0,1-2.5.716c-.033-.01-.066-.019-.1-.026L74.13,45.89l.732-1.27a9.792,9.792,0,0,0,1.351-3.206ZM65.791,60.33,72.7,48.358l7.453,1.722a5.1,5.1,0,0,0,5.3-1.53L97.5,35.72a5.095,5.095,0,1,0-7.423-6.98L80.032,39.445l-4.318-.924a6.805,6.805,0,0,0-2.661-2.442L61.566,29.516a1.336,1.336,0,0,0-.368-.145l-12.567-2.9A5.1,5.1,0,0,0,43.33,28L31.288,40.827a5.094,5.094,0,1,0,7.422,6.98L48.725,37.136l5.959,1.588L48.768,48.973,48.752,49a12.2,12.2,0,0,0-1.1,2.629L40.724,63.07,19.6,68.729a5.637,5.637,0,1,0,2.92,10.89l23.283-6.255a5.592,5.592,0,0,0,3.357-2.523L53.7,63.349,59.443,70.3,57.833,92.1a5.645,5.645,0,0,0,5.208,6.037c.14.01.278.016.418.016a5.644,5.644,0,0,0,5.617-5.224l1.76-24.045a5.593,5.593,0,0,0-1.277-4Z" fill-rule="evenodd"/>
          </g>
        </g>
      </g>
    </g>
  </g>
</svg>
