<svg xmlns="http://www.w3.org/2000/svg" xmlns:xlink="http://www.w3.org/1999/xlink" width="151.455" height="127.26" viewBox="0 0 151.455 127.26">
  <defs>
    <clipPath id="clip-path">
      <rect id="Rectángulo_454929" data-name="Rectángulo 454929" width="151.455" height="127.26" fill="none"/>
    </clipPath>
  </defs>
  <g id="Grupo_1204615" data-name="Grupo 1204615" transform="translate(-1085.254 -4911)">
    <g id="Grupo_1204465" data-name="Grupo 1204465" transform="translate(1095.254 4911)">
      <g id="Grupo_1203490" data-name="Grupo 1203490" transform="translate(-10 0)">
        <g id="Grupo_1203489" data-name="Grupo 1203489" clip-path="url(#clip-path)">
          <path id="Trazado_1258858" data-name="Trazado 1258858" d="M112.82,104.484c20.7-11.442,21.518-30.512,17.652-49.56-1.975-9.728-2.287-19.3-3.656-29.018-.631-4.479-1.885-9-4.772-12.763C113.793,2.4,97.795,6.2,85.682,8.223,66.52,12.363,45.008,12.33,27.044,19.881,13.174,25.711-1.774,38.89.172,53.334c.962,7.141,6.074,13.476,12.437,18.108,11.5,8.373,26.467,12.764,38.936,19.974,8.99,5.2,15.749,14.507,26.109,17.818,10.926,3.492,25.163.657,34.728-4.51q.22-.119.438-.239" transform="translate(10 -0.8)" fill="#752092"/>
          <g id="proteccion" transform="translate(20.602 20.239)">
            <path id="Trazado_1269411" data-name="Trazado 1269411" d="M304.856,175.983a2.568,2.568,0,0,0,0-4l-18.69-16.151a5.841,5.841,0,0,0-7.414,0l-.927.8,22.4,19.355A3.652,3.652,0,0,0,304.856,175.983Z" transform="translate(-217.135 -125.335)" fill="#ebad88"/>
            <path id="Trazado_1269412" data-name="Trazado 1269412" d="M287.093,164.636l4.634-4-5.561-4.805a5.842,5.842,0,0,0-7.414,0l-.927.8Z" transform="translate(-217.135 -125.334)" fill="#4362a0"/>
            <path id="Trazado_1269413" data-name="Trazado 1269413" d="M107,175.983a2.568,2.568,0,0,1,0-4l18.69-16.151a5.841,5.841,0,0,1,7.414,0l.927.8-22.4,19.355A3.652,3.652,0,0,1,107,175.983Z" transform="translate(-82.874 -125.335)" fill="#ebad88"/>
            <path id="Trazado_1269414" data-name="Trazado 1269414" d="M175.169,164.636l-4.634-4,5.561-4.805a5.842,5.842,0,0,1,7.414,0l.927.8Z" transform="translate(-133.282 -125.334)" fill="#4362a0"/>
            <path id="Trazado_1269415" data-name="Trazado 1269415" d="M211,154.5h19.66v20.765H211Z" transform="translate(-164.908 -125.335)" fill="#fe9554"/>
            <path id="Trazado_1269416" data-name="Trazado 1269416" d="M271,154.5h6.553v20.765H271Z" transform="translate(-211.801 -125.335)" fill="#fec872"/>
            <path id="Trazado_1269417" data-name="Trazado 1269417" d="M230.66,264.5v33.979h-6.553V272.995a3.312,3.312,0,0,0-6.553,0v25.484H211V264.5Z" transform="translate(-164.908 -214.57)" fill="#4362a0"/>
            <g id="Grupo_1204466" data-name="Grupo 1204466" transform="translate(59.199 49.93)">
              <path id="Trazado_1269418" data-name="Trazado 1269418" d="M271,264.5h6.553v33.979H271Z" transform="translate(-271 -264.5)" fill="#3e5a94"/>
            </g>
            <path id="Trazado_1269419" data-name="Trazado 1269419" d="M217.553,418.541H211v-3.209a3.312,3.312,0,0,1,6.553,0Z" transform="translate(-164.908 -334.631)" fill="#be652b"/>
            <path id="Trazado_1269420" data-name="Trazado 1269420" d="M277.553,418.541H271v-3.209a3.312,3.312,0,0,1,6.553,0Z" transform="translate(-211.801 -334.631)" fill="#be652b"/>
            <path id="Trazado_1269421" data-name="Trazado 1269421" d="M244.277,133.939A3.079,3.079,0,0,1,241,131.107V124.5h6.553v6.607A3.079,3.079,0,0,1,244.277,133.939Z" transform="translate(-188.355 -100.998)" fill="#e8916f"/>
            <path id="Trazado_1269422" data-name="Trazado 1269422" d="M232.553,81.847c-3.619,0-6.553-2.535-6.553-5.663v-3.02c0-3.128,2.934-5.663,6.553-5.663s6.553,2.535,6.553,5.663v3.02C239.107,79.311,236.173,81.847,232.553,81.847Z" transform="translate(-176.631 -54.758)" fill="#ebad88"/>
            <path id="Trazado_1269423" data-name="Trazado 1269423" d="M232.553,67.5c-3.619,0-6.553,2.535-6.553,5.663v.181a15.582,15.582,0,0,0,13.107,0v-.181C239.107,70.035,236.173,67.5,232.553,67.5Z" transform="translate(-176.631 -54.758)" fill="#be652b"/>
            <g id="Grupo_1204467" data-name="Grupo 1204467" transform="translate(0 0)">
              <path id="Trazado_1269424" data-name="Trazado 1269424" d="M158.939,100.188a5.473,5.473,0,0,0,6.951,0,3.853,3.853,0,0,0,0-6.008l-3.273-2.829a1.825,1.825,0,0,0-2.317,0,1.285,1.285,0,0,0,0,2l3.273,2.829a1.283,1.283,0,0,1,0,2,1.823,1.823,0,0,1-2.316,0L149.286,87.839l2.317-2,3.756,3.246a1.825,1.825,0,0,0,2.317,0,1.285,1.285,0,0,0,0-2L147.2,78.024a7.34,7.34,0,0,0-4.031-1.7,1.878,1.878,0,0,0-.407-.046h-4.915v-.665a6.81,6.81,0,0,0,3.277-5.661V66.934c0-3.9-3.675-7.081-8.192-7.081s-8.192,3.177-8.192,7.081v3.021a6.81,6.81,0,0,0,3.277,5.661v.665H123.1a1.882,1.882,0,0,0-.409.046,7.347,7.347,0,0,0-4.028,1.7L99.975,94.18a3.853,3.853,0,0,0,0,6.008,5.473,5.473,0,0,0,6.95,0l14.539-12.567v.9a1.656,1.656,0,0,0,3.277,0V79.114h3.308a5.046,5.046,0,0,0,9.768,0h3.308V97.053H124.741V94.608a1.656,1.656,0,0,0-3.277,0v37.852a1.539,1.539,0,0,0,1.638,1.416h6.553a1.54,1.54,0,0,0,1.638-1.416V106.967a1.656,1.656,0,0,1,3.277,0V132.46a1.539,1.539,0,0,0,1.638,1.416h6.553a1.54,1.54,0,0,0,1.638-1.416v-11.45a1.656,1.656,0,0,0-3.277,0v4.235a5.633,5.633,0,0,0-3.277,0V106.967c0-2.343-2.2-4.249-4.915-4.249s-4.915,1.906-4.915,4.249v18.277a5.633,5.633,0,0,0-3.277,0V99.886h16.383v14.975a1.656,1.656,0,0,0,3.277,0V87.622Zm-19.453,27.646a1.541,1.541,0,0,1,1.638,1.416v1.794h-3.277v-1.794A1.541,1.541,0,0,1,139.486,127.833Zm-13.107,0a1.541,1.541,0,0,1,1.638,1.416v1.794h-3.277v-1.794A1.541,1.541,0,0,1,126.379,127.833Zm22.907-44-2.317,2-2.568-2.22V79.678a3.521,3.521,0,0,1,.482.349ZM132.933,74.2c-2.71,0-4.915-1.906-4.915-4.249V69.31a18.422,18.422,0,0,0,9.83,0v.646C137.848,72.3,135.643,74.2,132.933,74.2Zm0-11.519a4.757,4.757,0,0,1,4.858,3.6,14.223,14.223,0,0,1-9.717,0A4.757,4.757,0,0,1,132.933,62.686Zm-28.325,35.5a1.823,1.823,0,0,1-2.315,0,1.284,1.284,0,0,1,0-2l11.97-10.347,2.317,2ZM118.9,85.836l-2.317-2,4.4-3.806a3.519,3.519,0,0,1,.482-.349v3.939Zm15.675-7.194a1.656,1.656,0,0,1-3.277,0V76.894a9.487,9.487,0,0,0,3.277,0Z" transform="translate(-77.01 -48.554)"/>
              <path id="Trazado_1269425" data-name="Trazado 1269425" d="M185.06,11.579a1.862,1.862,0,0,0,.634-.111c.946-.344,1.92-.655,2.9-.924a1.388,1.388,0,0,0,1.062-1.78,1.7,1.7,0,0,0-2.059-.918c-1.068.3-2.134.635-3.168,1.011a1.354,1.354,0,0,0-.875,1.855A1.662,1.662,0,0,0,185.06,11.579Z" transform="translate(-143.354 -6.31)"/>
              <path id="Trazado_1269426" data-name="Trazado 1269426" d="M146.862,31.193a1.8,1.8,0,0,0,1.007-.3c.81-.546,1.656-1.068,2.517-1.549a1.306,1.306,0,0,0,.485-1.959,1.8,1.8,0,0,0-2.266-.419c-.941.527-1.866,1.1-2.752,1.694a1.292,1.292,0,0,0-.283,1.988A1.742,1.742,0,0,0,146.862,31.193Z" transform="translate(-113.499 -21.692)"/>
              <path id="Trazado_1269427" data-name="Trazado 1269427" d="M227.8,3.08a1.889,1.889,0,0,0,.218-.012c1.015-.116,2.05-.2,3.078-.235a1.516,1.516,0,0,0,1.564-1.478A1.56,1.56,0,0,0,230.951,0c-1.123.043-2.254.13-3.363.257a1.47,1.47,0,0,0-1.408,1.59A1.578,1.578,0,0,0,227.8,3.08Z" transform="translate(-176.76 0)"/>
              <path id="Trazado_1269428" data-name="Trazado 1269428" d="M271.887,4.079c1.018.115,2.042.271,3.042.462a1.9,1.9,0,0,0,.356.034,1.606,1.606,0,0,0,1.6-1.11,1.428,1.428,0,0,0-1.245-1.689c-1.094-.21-2.214-.38-3.327-.506a1.611,1.611,0,0,0-1.837,1.221,1.471,1.471,0,0,0,1.412,1.588Z" transform="translate(-211.379 -1.021)"/>
              <path id="Trazado_1269429" data-name="Trazado 1269429" d="M114.826,60.213a1.8,1.8,0,0,0,.984.284,1.736,1.736,0,0,0,1.31-.565c.617-.709,1.278-1.4,1.965-2.062a1.286,1.286,0,0,0-.122-2,1.823,1.823,0,0,0-2.314.105c-.751.721-1.473,1.48-2.148,2.255A1.294,1.294,0,0,0,114.826,60.213Z" transform="translate(-89.232 -45.029)"/>
              <path id="Trazado_1269430" data-name="Trazado 1269430" d="M82.138,311.487A1.54,1.54,0,0,0,80.5,312.9v2.8a1.656,1.656,0,0,0,3.277,0v-2.8A1.539,1.539,0,0,0,82.138,311.487Z" transform="translate(-62.915 -252.687)"/>
              <path id="Trazado_1269431" data-name="Trazado 1269431" d="M83.777,268.449a1.656,1.656,0,0,0-3.277,0v2.8a1.656,1.656,0,0,0,3.277,0Z" transform="translate(-62.915 -216.625)"/>
              <path id="Trazado_1269432" data-name="Trazado 1269432" d="M93.461,97.341a1.864,1.864,0,0,0,.607.1,1.657,1.657,0,0,0,1.522-.891c.381-.824.809-1.643,1.273-2.434a1.332,1.332,0,0,0-.721-1.9,1.767,1.767,0,0,0-2.2.623c-.507.866-.976,1.762-1.393,2.663A1.361,1.361,0,0,0,93.461,97.341Z" transform="translate(-72.239 -74.682)"/>
              <path id="Trazado_1269433" data-name="Trazado 1269433" d="M417.228,153.788h.048a1.524,1.524,0,0,0,1.59-1.456,28.95,28.95,0,0,0-.245-2.912,1.6,1.6,0,0,0-1.817-1.242,1.478,1.478,0,0,0-1.437,1.571,26.541,26.541,0,0,1,.224,2.664A1.547,1.547,0,0,0,417.228,153.788Z" transform="translate(-324.623 -120.198)"/>
              <path id="Trazado_1269434" data-name="Trazado 1269434" d="M83.777,224a1.656,1.656,0,0,0-3.277,0v2.8a1.656,1.656,0,0,0,3.277,0Z" transform="translate(-62.915 -180.562)"/>
              <path id="Trazado_1269435" data-name="Trazado 1269435" d="M419.777,193.987a1.656,1.656,0,0,0-3.277,0v2.8a1.656,1.656,0,0,0,3.277,0Z" transform="translate(-325.517 -156.219)"/>
              <path id="Trazado_1269436" data-name="Trazado 1269436" d="M419.777,282.893a1.656,1.656,0,0,0-3.277,0v2.8a1.656,1.656,0,0,0,3.277,0Z" transform="translate(-325.517 -228.342)"/>
              <path id="Trazado_1269437" data-name="Trazado 1269437" d="M404.55,107.173c.383.822.727,1.67,1.024,2.519a1.629,1.629,0,0,0,1.568,1.007,1.891,1.891,0,0,0,.475-.061,1.4,1.4,0,0,0,1.094-1.766c-.325-.929-.7-1.856-1.12-2.756a1.735,1.735,0,0,0-2.131-.786A1.36,1.36,0,0,0,404.55,107.173Z" transform="translate(-316.085 -85.364)"/>
              <path id="Trazado_1269438" data-name="Trazado 1269438" d="M384.706,71.14a1.711,1.711,0,0,0,1.39.665,1.825,1.825,0,0,0,.867-.216,1.309,1.309,0,0,0,.52-1.952c-.595-.821-1.239-1.63-1.916-2.4a1.814,1.814,0,0,0-2.295-.276,1.294,1.294,0,0,0-.319,1.984C383.572,69.649,384.162,70.389,384.706,71.14Z" transform="translate(-299.04 -54.085)"/>
              <path id="Trazado_1269439" data-name="Trazado 1269439" d="M352.141,37.656c.811.545,1.6,1.127,2.355,1.73a1.825,1.825,0,0,0,2.315-.074,1.285,1.285,0,0,0-.086-2c-.822-.66-1.688-1.3-2.574-1.892a1.816,1.816,0,0,0-2.3.249A1.292,1.292,0,0,0,352.141,37.656Z" transform="translate(-274.723 -28.491)"/>
              <path id="Trazado_1269440" data-name="Trazado 1269440" d="M417.617,331.555c.038,0,.077,0,.115,0a1.559,1.559,0,0,0,1.633-1.318c.062-.768.093-1.55.093-2.324v-.568a1.656,1.656,0,0,0-3.277,0v.568c0,.709-.029,1.425-.085,2.128a1.5,1.5,0,0,0,1.521,1.511Z" transform="translate(-325.198 -264.404)"/>
              <path id="Trazado_1269441" data-name="Trazado 1269441" d="M314.251,15.49c.946.342,1.887.725,2.8,1.138a1.84,1.84,0,0,0,.762.163,1.689,1.689,0,0,0,1.451-.757,1.327,1.327,0,0,0-.687-1.913c-.994-.452-2.023-.871-3.058-1.245a1.74,1.74,0,0,0-2.144.761A1.355,1.355,0,0,0,314.251,15.49Z" transform="translate(-244.817 -10.357)"/>
              <path id="Trazado_1269442" data-name="Trazado 1269442" d="M419.777,238.441a1.656,1.656,0,0,0-3.277,0v2.8a1.656,1.656,0,0,0,3.277,0Z" transform="translate(-325.517 -192.281)"/>
              <path id="Trazado_1269443" data-name="Trazado 1269443" d="M324.172,474.075c-.884.45-1.8.871-2.728,1.251a1.339,1.339,0,0,0-.777,1.887,1.677,1.677,0,0,0,1.481.809,1.849,1.849,0,0,0,.7-.137c1.013-.416,2.017-.877,2.984-1.368a1.315,1.315,0,0,0,.581-1.939A1.787,1.787,0,0,0,324.172,474.075Z" transform="translate(-250.494 -384.424)"/>
              <path id="Trazado_1269444" data-name="Trazado 1269444" d="M282.693,491.146c-.989.233-2,.43-3.013.587a1.447,1.447,0,0,0-1.324,1.644,1.592,1.592,0,0,0,1.611,1.167,1.9,1.9,0,0,0,.291-.022c1.105-.171,2.214-.387,3.3-.642a1.406,1.406,0,0,0,1.15-1.739A1.681,1.681,0,0,0,282.693,491.146Z" transform="translate(-217.531 -398.39)"/>
              <path id="Trazado_1269445" data-name="Trazado 1269445" d="M195.628,487.6c-.991-.231-1.981-.5-2.943-.81a1.72,1.72,0,0,0-2.1.84,1.371,1.371,0,0,0,.972,1.818c1.053.335,2.136.633,3.22.886a1.883,1.883,0,0,0,.428.049,1.62,1.62,0,0,0,1.581-1.047,1.407,1.407,0,0,0-1.154-1.737Z" transform="translate(-148.871 -394.826)"/>
              <path id="Trazado_1269446" data-name="Trazado 1269446" d="M391.405,411.31a1.781,1.781,0,0,0-2.231.541c-.5.773-1.051,1.536-1.631,2.269a1.3,1.3,0,0,0,.427,1.969,1.816,1.816,0,0,0,.924.247,1.723,1.723,0,0,0,1.354-.617c.634-.8,1.234-1.636,1.783-2.481A1.32,1.32,0,0,0,391.405,411.31Z" transform="translate(-302.663 -333.518)"/>
              <path id="Trazado_1269447" data-name="Trazado 1269447" d="M410.411,374.511c.369-.917.694-1.858.967-2.8a1.416,1.416,0,0,0-1.191-1.718,1.669,1.669,0,0,0-1.988,1.029c-.249.86-.547,1.72-.884,2.558a1.378,1.378,0,0,0,1.01,1.8,1.865,1.865,0,0,0,.538.079A1.642,1.642,0,0,0,410.411,374.511Z" transform="translate(-318.268 -300.114)"/>
              <path id="Trazado_1269448" data-name="Trazado 1269448" d="M360.49,447c-.719.634-1.479,1.248-2.258,1.824a1.288,1.288,0,0,0-.18,2,1.753,1.753,0,0,0,1.246.5,1.793,1.793,0,0,0,1.064-.34c.852-.63,1.682-1.3,2.468-1.993a1.285,1.285,0,0,0-.023-2,1.825,1.825,0,0,0-2.317.02Z" transform="translate(-279.53 -362.276)"/>
              <path id="Trazado_1269449" data-name="Trazado 1269449" d="M156.476,467.735c-.886-.448-1.759-.936-2.6-1.45a1.808,1.808,0,0,0-2.285.334,1.3,1.3,0,0,0,.386,1.975c.915.562,1.869,1.1,2.838,1.585a1.829,1.829,0,0,0,.826.195,1.7,1.7,0,0,0,1.415-.7A1.316,1.316,0,0,0,156.476,467.735Z" transform="translate(-118.244 -378.05)"/>
              <path id="Trazado_1269450" data-name="Trazado 1269450" d="M238.661,496.473h-.081c-1.029,0-2.068-.039-3.088-.116a1.586,1.586,0,0,0-1.774,1.288,1.493,1.493,0,0,0,1.49,1.534c1.114.084,2.249.126,3.386.126h.068a1.431,1.431,0,1,0,0-2.833Z" transform="translate(-182.658 -402.655)"/>
              <path id="Trazado_1269451" data-name="Trazado 1269451" d="M86.517,359.624a26.7,26.7,0,0,1-.625-2.615,1.626,1.626,0,0,0-1.878-1.174,1.456,1.456,0,0,0-1.357,1.623,29.21,29.21,0,0,0,.683,2.86,1.614,1.614,0,0,0,1.587,1.069,1.882,1.882,0,0,0,.4-.044A1.414,1.414,0,0,0,86.517,359.624Z" transform="translate(-64.585 -288.65)"/>
              <path id="Trazado_1269452" data-name="Trazado 1269452" d="M83.777,179.542a1.656,1.656,0,0,0-3.277,0v2.8a1.656,1.656,0,0,0,3.277,0Z" transform="translate(-62.915 -144.501)"/>
              <path id="Trazado_1269453" data-name="Trazado 1269453" d="M121.76,436.347a1.82,1.82,0,0,0-2.306-.191,1.289,1.289,0,0,0-.221,1.994c.714.748,1.475,1.478,2.262,2.168a1.825,1.825,0,0,0,2.317.016,1.285,1.285,0,0,0,.018-2C123.11,437.7,122.414,437.031,121.76,436.347Z" transform="translate(-92.894 -353.559)"/>
              <path id="Trazado_1269454" data-name="Trazado 1269454" d="M85.354,135.617a1.435,1.435,0,0,0-1.275-1.672,1.649,1.649,0,0,0-1.934,1.1,29.009,29.009,0,0,0-.532,2.884,1.479,1.479,0,0,0,1.441,1.568q.1.009.189.009a1.573,1.573,0,0,0,1.626-1.255A26.5,26.5,0,0,1,85.354,135.617Z" transform="translate(-63.776 -108.637)"/>
              <path id="Trazado_1269455" data-name="Trazado 1269455" d="M98.535,399.077a1.751,1.751,0,0,0-2.169-.705,1.345,1.345,0,0,0-.816,1.875c.463.883.978,1.759,1.529,2.6a1.7,1.7,0,0,0,1.428.72,1.834,1.834,0,0,0,.8-.183,1.319,1.319,0,0,0,.621-1.929c-.5-.772-.975-1.573-1.4-2.38Z" transform="translate(-74.564 -323.068)"/>
              <path id="Trazado_1269456" data-name="Trazado 1269456" d="M455.654,233h-8.059l1.354-1.17a1.285,1.285,0,0,0,0-2,1.825,1.825,0,0,0-2.317,0l-4.15,3.588a1.285,1.285,0,0,0,0,2l4.15,3.588a1.825,1.825,0,0,0,2.317,0,1.285,1.285,0,0,0,0-2l-1.354-1.17h8.059a1.431,1.431,0,1,0,0-2.833Z" transform="translate(-345.448 -186.102)"/>
              <path id="Trazado_1269457" data-name="Trazado 1269457" d="M424.591,443.614h1.914a1.431,1.431,0,1,0,0-2.832h-5.87A1.539,1.539,0,0,0,419,442.2v5.074a1.656,1.656,0,0,0,3.277,0v-1.655l5.7,4.926a1.825,1.825,0,0,0,2.317,0,1.285,1.285,0,0,0,0-2Z" transform="translate(-327.469 -357.575)"/>
              <path id="Trazado_1269458" data-name="Trazado 1269458" d="M420.636,27.321h5.87a1.431,1.431,0,1,0,0-2.832h-1.914l5.7-4.926a1.285,1.285,0,0,0,0-2,1.825,1.825,0,0,0-2.317,0l-5.7,4.926V20.831a1.656,1.656,0,0,0-3.277,0v5.074A1.539,1.539,0,0,0,420.636,27.321Z" transform="translate(-327.47 -13.909)"/>
              <path id="Trazado_1269459" data-name="Trazado 1269459" d="M10.661,239l4.15-3.588a1.285,1.285,0,0,0,0-2l-4.15-3.588a1.825,1.825,0,0,0-2.317,0,1.285,1.285,0,0,0,0,2L9.7,233H1.638a1.431,1.431,0,1,0,0,2.832H9.7L8.344,237a1.285,1.285,0,0,0,0,2,1.826,1.826,0,0,0,2.317,0Z" transform="translate(0 -186.103)"/>
              <path id="Trazado_1269460" data-name="Trazado 1269460" d="M49.246,440.782h-5.87a1.431,1.431,0,1,0,0,2.832h1.914l-5.7,4.926a1.285,1.285,0,0,0,0,2,1.825,1.825,0,0,0,2.317,0l5.7-4.926v1.655a1.656,1.656,0,0,0,3.277,0V442.2A1.539,1.539,0,0,0,49.246,440.782Z" transform="translate(-30.568 -357.575)"/>
              <path id="Trazado_1269461" data-name="Trazado 1269461" d="M45.292,24.488H43.377a1.431,1.431,0,1,0,0,2.832h5.87A1.54,1.54,0,0,0,50.885,25.9V20.83a1.656,1.656,0,0,0-3.277,0v1.655l-5.7-4.926a1.825,1.825,0,0,0-2.317,0,1.285,1.285,0,0,0,0,2Z" transform="translate(-30.569 -13.908)"/>
            </g>
          </g>
        </g>
      </g>
    </g>
  </g>
</svg>
