<svg xmlns="http://www.w3.org/2000/svg" xmlns:xlink="http://www.w3.org/1999/xlink" width="261" height="145" viewBox="0 0 261 145">
  <defs>
    <clipPath id="clip-path">
      <rect id="Rectángulo_455239" data-name="Rectángulo 455239" width="261" height="145" rx="25" transform="translate(321 5407.711)" fill="#fffae6"/>
    </clipPath>
  </defs>
  <g id="Grupo_1204663" data-name="Grupo 1204663" transform="translate(-321.941 -6883.886)">
    <path id="Trazado_1269181" data-name="Trazado 1269181" d="M25,0H236a25,25,0,0,1,25,25v95a25,25,0,0,1-25,25H25A25,25,0,0,1,0,120V25A25,25,0,0,1,25,0Z" transform="translate(321.941 6883.886)" fill="#fec872"/>
    <g id="Enmascarar_grupo_1119174" data-name="Enmascarar grupo 1119174" transform="translate(0.941 1476.175)" clip-path="url(#clip-path)">
      <g id="Layer_1" transform="translate(876.059 5293.856)">
        <g id="Grupo_1204448" data-name="Grupo 1204448" transform="translate(-545 125.855)">
          <path id="Trazado_1269115" data-name="Trazado 1269115" d="M973.2,127.194a13.828,13.828,0,0,1,10.4-.578,9.537,9.537,0,0,0,2.3.907c3.394.522,6.292,2.65,8.547,5.147a13.263,13.263,0,0,1,3.273,10.381,28.051,28.051,0,0,1-2.756,8.633,22.469,22.469,0,0,0-2.28,6.86,18.785,18.785,0,0,0,.426,6.338c.4,1.773,1.175,3.465,1.277,5.294a3.643,3.643,0,0,1-1.652,3.415c-1.9,1.125-4.241.821-6.287.319a31.875,31.875,0,0,1-3.79-1.186,17,17,0,0,1-2.31-1.044A11.718,11.718,0,0,0,975.577,167a10.028,10.028,0,0,1,1.029-2.553c.486-.892.983-1.783,1.434-2.7a9.661,9.661,0,0,0,4.433,1.793c1.566.091,2.781-1.079,3.79-2.123a25.763,25.763,0,0,0,5.639-9.494c-.056,0-.172.01-.228.01l-.01-.046a11.989,11.989,0,0,1,0-1.414,6.758,6.758,0,0,0,.334,1.414c.37-1.226.719-2.462,1.13-3.678a5.189,5.189,0,0,0-2.219.319c-.086-1.251,1.581-1.322,2.452-1.074a12.413,12.413,0,0,0-.142-6.46,10.091,10.091,0,0,0-1.677-2.893,14.252,14.252,0,0,1-3.633,4.21,25.416,25.416,0,0,1-4,2.8,18.9,18.9,0,0,1-4.96,1.672,6.335,6.335,0,0,1-3.227.02c-.35-.836-.269-1.935-1.12-2.483a2.958,2.958,0,0,0-4.3,1.611,5.328,5.328,0,0,0,2.432,5.968,29.288,29.288,0,0,1-.071,3.465c-.187,2.153-.968,4.21-1.054,6.373a15.918,15.918,0,0,0,.836,5.7c.527,1.809,1.267,3.622,1.165,5.538a3.114,3.114,0,0,1-1.6,2.447,8.4,8.4,0,0,1-5.38.289,14.1,14.1,0,0,1-6.911-3.769,37.207,37.207,0,0,1-3.947-5.163,7.264,7.264,0,0,0-1.393-1.576,9.772,9.772,0,0,0-4.018,1.165c-.03-.071-.086-.213-.111-.279a11.709,11.709,0,0,1,.532-8.932,17.968,17.968,0,0,1,3.293-4.656c1.495-1.55,3.329-2.756,4.666-4.453a13.533,13.533,0,0,0,2.28-4.529c1.094-3.369,2-6.916,4.165-9.793a21.183,21.183,0,0,1,8.025-6.52h0Z" transform="translate(-873.874 -125.854)" fill="#3b1a18" stroke="#3b1a18" stroke-width="0"/>
          <path id="Trazado_1269116" data-name="Trazado 1269116" d="M1371.807,371.81a14.193,14.193,0,0,0,3.633-4.21,9.95,9.95,0,0,1,1.677,2.893,12.358,12.358,0,0,1,.142,6.46c-.871-.243-2.538-.172-2.452,1.074a5.135,5.135,0,0,1,2.219-.319c-.41,1.216-.76,2.452-1.13,3.678a6.762,6.762,0,0,1-.334-1.414,1.6,1.6,0,0,0-1.079,2.032c.405.5.9-.243,1.089-.573.056,0,.172-.01.228-.01a25.832,25.832,0,0,1-5.639,9.494c-1,1.049-2.224,2.214-3.79,2.123a9.662,9.662,0,0,1-4.433-1.794c-.187-.142-.37-.289-.547-.436a30,30,0,0,1-3.678-3.932,31.16,31.16,0,0,0,1.829,5.082,18.368,18.368,0,0,0,.968,1.981,9.921,9.921,0,0,0-1.028,2.553,17.533,17.533,0,0,1,.664,4.317,1.756,1.756,0,0,1-.573,1.626,2.8,2.8,0,0,1-2.057.03c.1-1.92-.643-3.729-1.165-5.538a16.153,16.153,0,0,1-.836-5.7c.086-2.163.866-4.22,1.054-6.374a28.269,28.269,0,0,0,.071-3.465,5.326,5.326,0,0,1-2.432-5.968,2.958,2.958,0,0,1,4.3-1.611c.851.552.77,1.652,1.12,2.483a6.28,6.28,0,0,0,3.227-.02,18.843,18.843,0,0,0,4.96-1.672,25.424,25.424,0,0,0,4-2.8m-4.413,3.739a14.292,14.292,0,0,1,2.376.218,5.86,5.86,0,0,1,2.062,1.51c.248-.147.638-.446.344-.755a3.919,3.919,0,0,0-3.536-1.606c-.481.035-1.13.035-1.251.638m1.51,2.959c-.7.36-1.14,1.687-.309,2.113.816-.015,1.2-1,1.115-1.7a.517.517,0,0,0-.806-.41m4.185,2.533c-.319,1.56-.121,3.192-.537,4.737a3.688,3.688,0,0,1-2.032-.456c.005.091.02.284.02.38.649.583,2.244.851,2.553-.238a34.089,34.089,0,0,0,.355-3.6c0-.3.177-1.044-.365-.831m-6.7,5.634c-.1.441.274.724.552,1a4.334,4.334,0,0,0,3.085,1.332c.294-.1.907-.187.623-.628a15.309,15.309,0,0,1-4.261-1.7Z" transform="translate(-1257.774 -355.352)" fill="#f3a788" stroke="#f3a788" stroke-width="0"/>
          <path id="Trazado_1269117" data-name="Trazado 1269117" d="M1618.9,512.271c.117-.6.765-.6,1.251-.638a3.924,3.924,0,0,1,3.536,1.606c.294.309-.1.608-.344.755a5.857,5.857,0,0,0-2.062-1.51,14.286,14.286,0,0,0-2.376-.218Z" transform="translate(-1509.269 -492.079)" fill="#2e1b14" stroke="#2e1b14" stroke-width="0"/>
          <path id="Trazado_1269118" data-name="Trazado 1269118" d="M1634.339,581.026a.519.519,0,0,1,.806.41c.086.7-.3,1.687-1.115,1.7-.831-.431-.39-1.758.309-2.113Z" transform="translate(-1523.203 -557.87)" fill="#0c0b0b" stroke="#0c0b0b" stroke-width="0"/>
          <path id="Trazado_1269119" data-name="Trazado 1269119" d="M1756.793,613.832a1.593,1.593,0,0,1,1.079-2.032,10.153,10.153,0,0,0,0,1.414l.01.046c-.187.334-.684,1.079-1.089.573h0Z" transform="translate(-1640.084 -587.18)" fill="#080705" stroke="#080705" stroke-width="0"/>
          <path id="Trazado_1269120" data-name="Trazado 1269120" d="M1683.163,632.194c.542-.213.36.532.365.831a34.158,34.158,0,0,1-.355,3.6c-.309,1.089-1.9.821-2.553.238,0-.1-.015-.284-.02-.38a3.732,3.732,0,0,0,2.032.456c.415-1.545.218-3.177.537-4.737Z" transform="translate(-1567.843 -606.505)" fill="#d64d2e" stroke="#d64d2e" stroke-width="0"/>
          <path id="Trazado_1269121" data-name="Trazado 1269121" d="M1598.583,744a15.306,15.306,0,0,0,4.261,1.7c.284.441-.329.532-.623.628a4.355,4.355,0,0,1-3.085-1.332C1598.856,744.724,1598.481,744.441,1598.583,744Z" transform="translate(-1489.965 -712.682)" fill="#d55434" stroke="#d55434" stroke-width="0"/>
          <path id="Trazado_1269122" data-name="Trazado 1269122" d="M1427.6,748.1a30,30,0,0,0,3.678,3.932c-.618.38-1.236.76-1.849,1.15a31.514,31.514,0,0,1-1.829-5.082Z" transform="translate(-1327.661 -716.575)" fill="#d64d2e" stroke="#d64d2e" stroke-width="0"/>
          <path id="Trazado_1269123" data-name="Trazado 1269123" d="M1465.454,825.7c.177.147.36.294.547.436-.451.912-.942,1.8-1.434,2.7a17.443,17.443,0,0,1-.968-1.981c.613-.39,1.231-.775,1.849-1.15Z" transform="translate(-1361.837 -790.243)" fill="#dc5b39" stroke="#dc5b39" stroke-width="0"/>
          <path id="Trazado_1269124" data-name="Trazado 1269124" d="M727.546,903.539a9.771,9.771,0,0,1,4.018-1.165,7.381,7.381,0,0,1,1.393,1.576,37.616,37.616,0,0,0,3.947,5.163,14.043,14.043,0,0,0,6.911,3.769,8.4,8.4,0,0,0,5.381-.289,3.114,3.114,0,0,0,1.6-2.447,2.8,2.8,0,0,0,2.057-.03,1.752,1.752,0,0,0,.573-1.626,17.539,17.539,0,0,0-.664-4.317,11.718,11.718,0,0,1,4.767,4.681,17.005,17.005,0,0,0,2.31,1.044,1.237,1.237,0,0,0-.02.922,30.747,30.747,0,0,1,1.809,6.774c.578,3.5,1.191,7,1.723,10.5-.284.167-.567.339-.856.5-.476.263-.963.5-1.449.75-.258-3.2-1.059-6.313-1.53-9.474-.071-.314-.071-.836-.527-.75.593,2.979,1.17,5.968,1.611,8.973a11.688,11.688,0,0,1-.608,6.252,25.373,25.373,0,0,1-2.108,3.785c-1.383,2.29-1.875,4.965-2.422,7.544-.608,3.293-1.059,6.612-1.5,9.925-8.451-1.758-16.866-3.663-25.291-5.527-.436-.132-.958-.1-1.322-.38.745-5.026,1.829-10,2.741-14.991-1.864-.745-3.815-1.246-5.71-1.9-2.731-.937-5.492-1.768-8.233-2.665-.035.041-.106.122-.137.162a5.157,5.157,0,0,0-1.11-.821,120.25,120.25,0,0,1,4.479-16.592c.912-2.31,1.951-4.7,3.871-6.358a18.636,18.636,0,0,1,2.422-1.9c.613-.4,1.388-.669,1.743-1.363.025.066.086.208.112.279m6.971,19.115a21.387,21.387,0,0,0-.841,2.7c-.841,3.177-1.758,6.338-2.624,9.51.081.015.238.051.319.066,1.044-3.957,2.168-7.893,3.258-11.84.091-.162-.01-.319-.112-.441m13.963,13.608a12.527,12.527,0,0,1-3.84,1.981c-2.118.623-4.332.193-6.465-.066l.187.269a14.952,14.952,0,0,0,5.386.294,12.182,12.182,0,0,0,5.076-2.356c.157-.238-.243-.269-.344-.117Z" transform="translate(-651.069 -863.031)" fill="#e9eaec" stroke="#e9eaec" stroke-width="0"/>
          <path id="Trazado_1269125" data-name="Trazado 1269125" d="M2121.164,1137.568a21.826,21.826,0,0,1,2.7.238c12.509,1.408,25.028,2.731,37.537,4.144-.39,2.731-.724,5.472-1.2,8.187-1.023,7.245-1.956,14.5-2.918,21.75-.076.5-.172.993-.263,1.495-.076,0-.223-.005-.3-.01-.319-.015-.638-.04-.948-.076-1.956-.269-3.927-.405-5.882-.684.552-2.827,1.115-5.649,1.611-8.481.147-.542-.633-.431-.932-.583-1.241-.329-2.518-.481-3.774-.719a20.113,20.113,0,0,0-3.055-.41,47.194,47.194,0,0,1-1.1,5.745c-7.625,1.444-15.25,2.893-22.844,4.494a10.271,10.271,0,0,1-1.758.2,29.48,29.48,0,0,1,2.66-1.87q9.142-6.331,18.178-12.813a8.665,8.665,0,0,0,1.783-1.363,5.434,5.434,0,0,0-2.878-.228c-2.913.365-5.315,2.184-7.726,3.7-3.764,2.452-7.478,4.985-11.192,7.513a29.594,29.594,0,0,1-2.964,1.981c.142-1.373.476-2.721.729-4.078.451-2.118.811-4.256,1.186-6.389a15.386,15.386,0,0,0,.066-1.87c.041-.127.122-.385.162-.512,1.408-.664,3-1.12,4.083-2.3a2.381,2.381,0,0,0,.593-2.548c-.137-.344-.527-.213-.79-.157-.973.263-1.92.6-2.9.826a23.8,23.8,0,0,1,.354-2.873c.643-4.1,1.226-8.208,1.773-12.316h0Z" transform="translate(-1981.089 -1086.31)" fill="#f07391" stroke="#f07391" stroke-width="0"/>
          <path id="Trazado_1269126" data-name="Trazado 1269126" d="M1491.326,1232.824c.451-.086.456.441.527.75.471,3.167,1.277,6.277,1.53,9.474a11.741,11.741,0,0,1-.821,5.279c-.729,1.824-2.077,3.318-2.822,5.137a42.177,42.177,0,0,0-2.2,9.312c-.4,2.179-.573,4.393-.912,6.581l-.324-.061c.436-3.318.892-6.632,1.5-9.925a24,24,0,0,1,2.422-7.544,25.372,25.372,0,0,0,2.108-3.785,11.688,11.688,0,0,0,.608-6.252c-.441-3.009-1.023-5.993-1.611-8.972h0Z" transform="translate(-1383.387 -1176.732)" fill="#131b19" stroke="#131b19" stroke-width="0"/>
          <path id="Trazado_1269127" data-name="Trazado 1269127" d="M1036.765,1302.6a.393.393,0,0,1,.112.441c-1.089,3.942-2.209,7.883-3.258,11.84-.081-.02-.238-.051-.319-.066.866-3.172,1.783-6.333,2.625-9.51a21.4,21.4,0,0,1,.841-2.7h0Z" transform="translate(-953.337 -1242.982)" fill="#0c0b0b" stroke="#0c0b0b" stroke-width="0"/>
          <path id="Trazado_1269128" data-name="Trazado 1269128" d="M1825.75,1381.687a14.1,14.1,0,0,1,2.949-.887,23.926,23.926,0,0,0-.355,2.873,23.583,23.583,0,0,1-2.7.537,1.252,1.252,0,0,0-.765.365,28.258,28.258,0,0,0,6.814-1.571,1.979,1.979,0,0,1-.38,2.173,8.843,8.843,0,0,1-3.719,2.249c-.846.289-.76,1.348-1.15,2.006-.38.932-1.256,1.474-1.9,2.194,1.464-.39,2.214-1.935,2.66-3.268a15.35,15.35,0,0,1-.066,1.87c-.375,2.133-.735,4.271-1.186,6.389l-.02-.248a24.03,24.03,0,0,1-3.42-.213c-1.576.7-3.02,1.667-4.524,2.508a2.17,2.17,0,0,0-2.092-.537,10.356,10.356,0,0,0-1.449-3.384c.046-.111.091-.218.137-.329-.907-.071-1.728-.517-2.629-.588a4.614,4.614,0,0,1-2.25-1.155c2.964-.922,5.887-1.961,8.826-2.964.451-.111.684-.537.932-.881a51.638,51.638,0,0,1,4.124-5.2,5.931,5.931,0,0,1,2.168-1.935Z" transform="translate(-1690.402 -1317.22)" fill="#f3a687" stroke="#f3a687" stroke-width="0"/>
          <path id="Trazado_1269129" data-name="Trazado 1269129" d="M2930.682,1385.7c.354.025.709.061,1.069.1-.805,6.08-1.692,12.149-2.447,18.229-.258,1.753-.416,3.526-.765,5.264a8.069,8.069,0,0,1-1.039-.345c.091-.5.182-1,.264-1.495.962-7.25,1.895-14.51,2.918-21.75Z" transform="translate(-2751.57 -1321.871)" fill="#498664" stroke="#498664" stroke-width="0"/>
          <path id="Trazado_1269130" data-name="Trazado 1269130" d="M2357.022,1387.6c5.958.339,11.9.866,17.859,1.16-.669,12.975-1.165,25.96-1.783,38.94-2.173-.015-4.332-.35-6.505-.344-.157,2.873-.466,5.735-.75,8.593q-1.466,15.731-2.943,31.462a30.161,30.161,0,0,1-.334,3.238c-12.635-1.1-25.286-2.032-37.922-3.111-.846-.076-1.7-.122-2.543-.172.1-1.145.142-2.3.213-3.445,0-.071.015-.208.021-.274.126-1.368.177-2.736.243-4.1,1.986.39,3.9,1.059,5.877,1.49.416.1.831.2,1.251.3,1.312-7.625,2.64-15.245,3.886-22.875-.41-.041-.821-.076-1.226-.111l.015-.081c.421.046.841.1,1.267.157,5.082.912,10.224,1.479,15.291,2.472.77-5.35,1.256-10.746,1.95-16.111.532-4.681,1.023-9.368,1.6-14.044.071,0,.223.005.3.01a8.088,8.088,0,0,0,1.039.344c.345-1.738.5-3.511.765-5.264.755-6.085,1.642-12.149,2.447-18.229h-.01Z" transform="translate(-2176.842 -1323.675)" fill="#76bb8e" stroke="#76bb8e" stroke-width="0"/>
          <path id="Trazado_1269131" data-name="Trazado 1269131" d="M2109.308,1419.856c.263-.056.648-.187.79.157a2.371,2.371,0,0,1-.593,2.548c-1.084,1.186-2.675,1.636-4.083,2.3-.041.127-.122.385-.162.512-.446,1.333-1.2,2.878-2.66,3.268.648-.719,1.525-1.267,1.9-2.194.39-.664.3-1.718,1.15-2.006a8.926,8.926,0,0,0,3.719-2.25,1.98,1.98,0,0,0,.38-2.173,28.145,28.145,0,0,1-6.814,1.571,1.264,1.264,0,0,1,.765-.365,22.156,22.156,0,0,0,2.7-.537c.983-.228,1.93-.562,2.9-.826h0Z" transform="translate(-1968.463 -1354.229)" fill="#131b19" stroke="#131b19" stroke-width="0"/>
          <path id="Trazado_1269132" data-name="Trazado 1269132" d="M1516.547,1420.75c.486-.243.973-.486,1.449-.75.238,1.191.324,2.406.486,3.612.309,2.624.77,5.244.866,7.888,2.184-.476,4.347-1.039,6.5-1.616a4.636,4.636,0,0,0,2.249,1.155c.9.071,1.723.517,2.63.588-.046.112-.091.218-.137.329a10.311,10.311,0,0,1,1.449,3.384,2.169,2.169,0,0,1,2.092.537c-3.42,2-6.9,3.9-10.472,5.588a18.779,18.779,0,0,1-3.09,1.206,9.385,9.385,0,0,0-1.55.547,5.644,5.644,0,0,1-5.416-.294,14.566,14.566,0,0,1-2.9-2.442,42.107,42.107,0,0,1,2.2-9.312c.745-1.819,2.092-3.308,2.822-5.137a11.671,11.671,0,0,0,.821-5.279m-1.206,13.542c.091-.02.279-.056.375-.071a10.22,10.22,0,0,1,3.42-2.589c.03-.066.091-.187.116-.253a8.045,8.045,0,0,0-3.911,2.913Z" transform="translate(-1406.551 -1354.434)" fill="#f0a282" stroke="#f0a282" stroke-width="0"/>
          <path id="Trazado_1269133" data-name="Trazado 1269133" d="M684.048,1450.2c2.741.892,5.507,1.723,8.233,2.665,1.895.659,3.845,1.16,5.71,1.905-.912,5-2,9.966-2.741,14.991a3.952,3.952,0,0,0,1.322.38c8.425,1.865,16.841,3.769,25.291,5.527l.324.061a18.818,18.818,0,0,0,3.085.5,30.451,30.451,0,0,0,3.46-.9c.294-.066.593-.137.887-.2.253-.071.512-.137.77-.213a27.44,27.44,0,0,1,3.992-1.013,3.008,3.008,0,0,1,2.2,1.023c-.152.583-.3,1.16-.426,1.748.132.046.39.132.527.172s.385.132.517.172a14.966,14.966,0,0,1,2.994,1.444,8.9,8.9,0,0,0-1.55,1.16c.041.106.111.314.152.415.471-.106.932-.248,1.4-.365.745.02,1.216.719,1.484,1.338.588,1.185-.162,2.432-.593,3.536-.912-.385-1.849-.7-2.786-1.013-.015.076-.041.233-.056.314.917.274,1.819.608,2.716.958a5.6,5.6,0,0,1-1.763,2.077,9.632,9.632,0,0,0-2.477-.826c.537.714,1.586.628,2.371.9a11.173,11.173,0,0,1-4.236,1.87,1.072,1.072,0,0,0-.973-.279,15.645,15.645,0,0,1-2.711-.735,42.73,42.73,0,0,1-6.429-2.883c-.983-.613-2.179-.314-3.263-.456-1.834-.106-3.673-.117-5.507-.157-.1,0-.3-.01-.405-.015-3.663-.111-7.316-.258-10.979-.405-.112,0-.329-.015-.441-.02-.466-.025-.927-.046-1.388-.071-.132-.005-.385-.02-.517-.03-.583-.04-1.165-.086-1.748-.111h-.167a78.954,78.954,0,0,1-13.046-1.672,9.332,9.332,0,0,1-4-1.758,8.027,8.027,0,0,1-2.158-5.163,58.934,58.934,0,0,1,.8-11.4c.633-4.443,1.221-8.9,1.991-13.309.035-.041.1-.122.137-.162m54.681,30.449c.258.365.73.456,1.12.628a19.772,19.772,0,0,1,1.94.968c-.091-.405-.5-.557-.811-.755a4.906,4.906,0,0,0-2.249-.846h0Z" transform="translate(-618.95 -1383.104)" fill="#f2a788" stroke="#f2a788" stroke-width="0"/>
          <path id="Trazado_1269134" data-name="Trazado 1269134" d="M2072.625,1515.191c2.412-1.52,4.813-3.344,7.726-3.7a5.435,5.435,0,0,1,2.878.228,8.369,8.369,0,0,1-1.783,1.363q-9.044,6.475-18.178,12.813a29.474,29.474,0,0,0-2.66,1.87c-.056.046-.162.142-.213.188-1.388.821-2.675,1.8-3.977,2.756-.38-1.317-.638-2.66-1.018-3.972,1.049-.648,2.042-1.373,3.07-2.047a27.723,27.723,0,0,0,2.964-1.981C2065.147,1520.176,2068.861,1517.643,2072.625,1515.191Z" transform="translate(-1923.654 -1441.209)" fill="#98a4aa" stroke="#98a4aa" stroke-width="0"/>
          <path id="Trazado_1269135" data-name="Trazado 1269135" d="M1184.205,1569.38c.106-.152.5-.117.345.117a12.246,12.246,0,0,1-5.077,2.356,14.944,14.944,0,0,1-5.385-.294l-.187-.269c2.133.258,4.347.689,6.465.066a12.355,12.355,0,0,0,3.84-1.981h0Z" transform="translate(-1086.814 -1496.159)" fill="#0c0b0b" stroke="#0c0b0b" stroke-width="0"/>
          <path id="Trazado_1269136" data-name="Trazado 1269136" d="M2582.143,1628.2a20.886,20.886,0,0,1,3.055.41c1.257.233,2.533.385,3.774.719-.547,2.964-1.028,5.943-1.656,8.891-.821,4.818-1.7,9.631-2.549,14.444-.025.339-.461.157-.669.162-2.123-.405-4.286-.522-6.4-.988q1.01-5.312,2-10.624a44.729,44.729,0,0,0,.709-4.555,11.414,11.414,0,0,0,2.437-1.814,3.717,3.717,0,0,0,.922-1.312c-.912.091-1.819.248-2.716.41a46.916,46.916,0,0,0,1.1-5.745h0Z" transform="translate(-2419.492 -1552.085)" fill="#ea8031" stroke="#ea8031" stroke-width="0"/>
          <path id="Trazado_1269137" data-name="Trazado 1269137" d="M1602.3,1647.613a8.045,8.045,0,0,1,3.911-2.913c-.031.066-.091.188-.117.253a10.32,10.32,0,0,0-3.42,2.589c-.1.02-.284.056-.375.071Z" transform="translate(-1493.51 -1567.75)" fill="#0c0b0b" stroke="#0c0b0b" stroke-width="0"/>
          <path id="Trazado_1269138" data-name="Trazado 1269138" d="M2769.062,1650.405c.3.152,1.079.041.932.583-.5,2.832-1.054,5.659-1.611,8.481-.329-.056-.659-.117-.983-.177.628-2.949,1.115-5.928,1.657-8.891h0Z" transform="translate(-2599.582 -1573.161)" fill="#cb507d" stroke="#cb507d" stroke-width="0"/>
          <path id="Trazado_1269139" data-name="Trazado 1269139" d="M1719.158,1686.408c1.5-.841,2.949-1.8,4.524-2.508a23.345,23.345,0,0,0,3.42.213l.02.248c-.253,1.358-.588,2.7-.73,4.078-1.028.669-2.021,1.393-3.07,2.047-1.348.694-2.457,1.854-3.9,2.341-.106.01-.314.036-.415.051-2.513.248-4.884,1.449-7.443,1.378a15.179,15.179,0,0,1-3.2-.993,6.784,6.784,0,0,0-2.766-.056,18.948,18.948,0,0,0,3.09-1.206c3.577-1.692,7.052-3.592,10.472-5.588h0Z" transform="translate(-1591.576 -1604.964)" fill="#fff" stroke="#fff" stroke-width="0"/>
          <path id="Trazado_1269140" data-name="Trazado 1269140" d="M2067.358,1733.91c.9-.162,1.8-.319,2.716-.41a3.674,3.674,0,0,1-.922,1.312c-1.373.562-2.7,1.251-4.114,1.7-3.187,1.008-6.419,1.869-9.677,2.609-4.585,1.186-9.19,2.3-13.831,3.278-1.646.274-3.217,1.069-4.929.841,1.636-1.1,3.192-2.315,4.808-3.445a6.67,6.67,0,0,0,1.135-1c.051-.046.157-.137.213-.187a9.786,9.786,0,0,0,1.758-.2c7.594-1.6,15.219-3.05,22.844-4.494h0Z" transform="translate(-1905.807 -1652.051)" fill="#b4bdc3" stroke="#b4bdc3" stroke-width="0"/>
          <path id="Trazado_1269141" data-name="Trazado 1269141" d="M2048.519,1761.1c1.418-.451,2.741-1.14,4.114-1.7a11.673,11.673,0,0,1-2.437,1.814,129.7,129.7,0,0,1-12.656,3.455c-3.577.876-7.184,1.642-10.771,2.467a45.6,45.6,0,0,0-4.514.983,15.171,15.171,0,0,1-3.055.41c.294-.233.578-.476.881-.7,1.712.228,3.283-.567,4.93-.841,4.636-.983,9.241-2.092,13.831-3.278,3.258-.74,6.49-1.6,9.677-2.609h0Z" transform="translate(-1889.288 -1676.638)" fill="#92989b" stroke="#92989b" stroke-width="0"/>
          <path id="Trazado_1269142" data-name="Trazado 1269142" d="M1942.037,1798.655a129.686,129.686,0,0,0,12.656-3.455,43.473,43.473,0,0,1-.709,4.555q-.988,5.312-2,10.624c-.953,4.935-1.738,9.9-2.675,14.839l-.015.081c-1.013,6.024-2.092,12.038-3.065,18.072-.269,1.545-.537,3.085-.841,4.62-1.976-.431-3.891-1.1-5.877-1.49-6.987-1.7-13.938-3.546-20.914-5.279,2.807-13.021,5.4-26.087,8.147-39.118a45.612,45.612,0,0,1,4.514-.983c3.587-.826,7.194-1.591,10.771-2.467h0Z" transform="translate(-1793.785 -1710.625)" fill="#f07391" stroke="#f07391" stroke-width="0"/>
          <path id="Trazado_1269143" data-name="Trazado 1269143" d="M1914.035,1816.141c1.444-.481,2.553-1.641,3.9-2.341.38,1.312.638,2.655,1.018,3.972a27.769,27.769,0,0,0-3.111,2.432c-.6.421-1.464.644-1.652,1.444l.036-.284v-.411c-1.211-.015-2.417.041-3.628-.035.213-.39.405-.8.613-1.185l.061-.086c.831-1.236,1.839-2.341,2.766-3.506m2.011.284a.955.955,0,0,0,.37,1.743,1.072,1.072,0,0,0,.856-1.261A.835.835,0,0,0,1916.051,1816.425Z" transform="translate(-1786.19 -1728.282)" fill="#b1b9be" stroke="#b1b9be" stroke-width="0"/>
          <path id="Trazado_1269144" data-name="Trazado 1269144" d="M1493.612,1824.3a14.371,14.371,0,0,0,2.9,2.442,5.657,5.657,0,0,0,5.416.294,5.813,5.813,0,0,0-2.685,3.445,30.453,30.453,0,0,1-3.46.9,18.834,18.834,0,0,1-3.085-.5C1493.039,1828.693,1493.212,1826.479,1493.612,1824.3Z" transform="translate(-1389.463 -1738.25)" fill="#fefeff" stroke="#fefeff" stroke-width="0"/>
          <path id="Trazado_1269145" data-name="Trazado 1269145" d="M2534.643,1840.444c.851-4.813,1.728-9.626,2.548-14.444.324.061.654.117.983.177,1.955.279,3.927.416,5.882.684.263.046.532.1.8.152q-.03.464-.045.927c-2.24-.289-4.484-.573-6.728-.8-.937,4.752-1.611,9.555-2.624,14.292-2.254-.273-4.494-.633-6.723-1.049-.41,1.606-.588,3.263-.912,4.884-.6,3.111-1.125,6.232-1.656,9.353-.421-.066-.846-.111-1.267-.157.937-4.94,1.722-9.9,2.675-14.839,2.113.466,4.276.583,6.4.988.208,0,.638.177.669-.162h0Z" transform="translate(-2369.368 -1739.864)" fill="#c1581b" stroke="#c1581b" stroke-width="0"/>
          <path id="Trazado_1269146" data-name="Trazado 1269146" d="M2017.306,1840.656c1.3-.953,2.589-1.935,3.977-2.756a6.679,6.679,0,0,1-1.135,1c-1.616,1.13-3.172,2.346-4.808,3.445-.3.223-.588.466-.882.7l-.258.041a27.27,27.27,0,0,1,3.111-2.432Z" transform="translate(-1884.542 -1751.161)" fill="#131b19" stroke="#131b19" stroke-width="0"/>
          <path id="Trazado_1269147" data-name="Trazado 1269147" d="M2567.689,1842.8c.309.035.628.061.947.076-.573,4.676-1.064,9.363-1.6,14.044-.689,5.365-1.18,10.761-1.95,16.111-5.066-.993-10.209-1.56-15.29-2.472.527-3.121,1.049-6.247,1.657-9.352.324-1.621.5-3.278.912-4.884,2.229.421,4.469.775,6.723,1.049,1.008-4.737,1.687-9.54,2.624-14.292,2.25.223,4.489.507,6.728.8q.015-.464.045-.927c-.268-.056-.537-.106-.8-.152h0Z" transform="translate(-2393.006 -1755.813)" fill="#ea7f30" stroke="#ea7f30" stroke-width="0"/>
          <path id="Trazado_1269148" data-name="Trazado 1269148" d="M1632.1,1862.378c2.558.071,4.93-1.125,7.443-1.378-.811,1.11-1.773,2.108-2.533,3.253-1.7.273-3.435.233-5.122.567-1.064.137-1.49,1.251-2.047,2.016-.132-.046-.4-.132-.527-.172.122-.588.274-1.165.426-1.748a1.96,1.96,0,0,0-1.165-2.062c-.015-.091-.046-.273-.056-.365a5.581,5.581,0,0,0-4.175.3,4.91,4.91,0,0,0-1.561,2.325c-.3.071-.593.137-.887.2a5.814,5.814,0,0,1,2.685-3.445,9.4,9.4,0,0,1,1.55-.547,6.786,6.786,0,0,1,2.766.056,15.256,15.256,0,0,0,3.2.993h0Z" transform="translate(-1512.117 -1773.091)" fill="#aab4ba" stroke="#aab4ba" stroke-width="0"/>
          <path id="Trazado_1269149" data-name="Trazado 1269149" d="M1922.733,1860.051c.1-.015.309-.041.416-.051-.927,1.16-1.935,2.265-2.766,3.506l-.182-.2C1920.965,1862.158,1921.923,1861.16,1922.733,1860.051Z" transform="translate(-1795.304 -1772.142)" fill="#131b19" stroke="#131b19" stroke-width="0"/>
          <path id="Trazado_1269150" data-name="Trazado 1269150" d="M2010.031,1863.46a.835.835,0,0,1,1.226.481,1.072,1.072,0,0,1-.856,1.261.956.956,0,0,1-.37-1.743m.177.182c-.74.172-.223,1.712.451,1.16C2011.343,1864.479,2010.968,1863.293,2010.208,1863.643Z" transform="translate(-1880.17 -1775.318)" fill="#131b19" stroke="#131b19" stroke-width="0"/>
          <path id="Trazado_1269151" data-name="Trazado 1269151" d="M2014.915,1867.973c.76-.355,1.14.831.451,1.16C2014.692,1869.69,2014.176,1868.15,2014.915,1867.973Z" transform="translate(-1884.877 -1779.648)" fill="#e8e9e8" stroke="#e8e9e8" stroke-width="0"/>
          <path id="Trazado_1269152" data-name="Trazado 1269152" d="M1640.96,1885.4a5.557,5.557,0,0,1,4.175-.3c.015.091.041.274.056.365a4.064,4.064,0,0,0-5.021,2.052l-.77.213a4.885,4.885,0,0,1,1.56-2.325Z" transform="translate(-1528.73 -1795.705)" fill="#8d959d" stroke="#8d959d" stroke-width="0"/>
          <path id="Trazado_1269153" data-name="Trazado 1269153" d="M1654.505,1894.944a4.066,4.066,0,0,1,5.021-2.052,1.967,1.967,0,0,1,1.165,2.062,3.045,3.045,0,0,0-2.2-1.023,27.608,27.608,0,0,0-3.992,1.013h.005Z" transform="translate(-1543.065 -1803.129)" fill="#fff" stroke="#fff" stroke-width="0"/>
          <path id="Trazado_1269154" data-name="Trazado 1269154" d="M1780.747,1925.768c1.687-.334,3.42-.294,5.122-.568l.182.2-.061.086a16.231,16.231,0,0,1-4.554.659,2.793,2.793,0,0,0-1.15.309,12.6,12.6,0,0,0-1.069,1.5c-.132-.046-.385-.132-.517-.172.557-.765.983-1.88,2.047-2.016h0Z" transform="translate(-1660.973 -1834.039)" fill="#899094" stroke="#899094" stroke-width="0"/>
          <path id="Trazado_1269155" data-name="Trazado 1269155" d="M1791.219,1931.459a16.259,16.259,0,0,0,4.555-.659c-.208.39-.4.8-.613,1.186-.132.137-.263.274-.4.41-.937.755-1.778,1.621-2.766,2.315a15.091,15.091,0,0,0-2.994-1.444,14.213,14.213,0,0,1,1.069-1.5,2.738,2.738,0,0,1,1.15-.309h0Z" transform="translate(-1670.751 -1839.355)" fill="#fefffe" stroke="#fefffe" stroke-width="0"/>
          <path id="Trazado_1269156" data-name="Trazado 1269156" d="M1506.178,1931.81a15.23,15.23,0,0,0,3.055-.41c-2.751,13.031-5.345,26.1-8.147,39.117,6.976,1.733,13.927,3.577,20.914,5.279-.071,1.368-.117,2.736-.243,4.1-12.514,0-25.023.035-37.537-.015-1.115-11.085-3.065-22.064-4.621-33.093l-.025-.157c-.253-1.783-.5-3.567-.775-5.34,1.084.137,2.285-.162,3.263.456a43.227,43.227,0,0,0,6.429,2.883c.132.182.258.37.38.568a3.837,3.837,0,0,0,2.964,1.773,7.648,7.648,0,0,0,5.695-2.168,8.888,8.888,0,0,0,2.933-4.839c.172-.127.344-.253.527-.38a17.611,17.611,0,0,0-.081-2.133c.826-1.606,2.518-2.574,3.359-4.155.188-.8,1.054-1.023,1.652-1.444l.258-.041Z" transform="translate(-1376.267 -1839.924)" fill="#fff" stroke="#fff" stroke-width="0"/>
          <path id="Trazado_1269157" data-name="Trazado 1269157" d="M1902.6,1954.71c.137-.137.269-.274.4-.41,1.206.076,2.417.02,3.627.035v.41l-.2.015c-1.277,0-2.558.051-3.83-.056h0Z" transform="translate(-1778.595 -1861.664)" fill="#4b5356" stroke="#4b5356" stroke-width="0"/>
          <path id="Trazado_1269158" data-name="Trazado 1269158" d="M1686.138,1964.715c.983-.694,1.824-1.56,2.766-2.315,1.277.106,2.554.051,3.83.056a13.706,13.706,0,0,0-3.45,3.739c-.41.866-.471,1.854-.866,2.731a10.385,10.385,0,0,1-5.335,6.115,17.564,17.564,0,0,0-2.619,1.358,3.837,3.837,0,0,1-2.964-1.773,8.923,8.923,0,0,1,2.25.339.809.809,0,0,0,1.049.106,11.169,11.169,0,0,0,4.235-1.869l.106-.071a5.549,5.549,0,0,0,1.763-2.077c.03-.066.1-.193.132-.253.426-1.1,1.18-2.356.593-3.536-.269-.618-.74-1.312-1.484-1.338-.517-.051-1.034-.051-1.55-.051a9.161,9.161,0,0,1,1.55-1.16h0Z" transform="translate(-1564.9 -1869.354)" fill="#afb8bd" stroke="#afb8bd" stroke-width="0"/>
          <path id="Trazado_1269159" data-name="Trazado 1269159" d="M1748.371,1963.215l.2-.015-.036.284c-.841,1.581-2.533,2.548-3.359,4.154a18.748,18.748,0,0,1,.081,2.133c-.177.127-.35.248-.527.38a8.887,8.887,0,0,1-2.933,4.838,7.648,7.648,0,0,1-5.695,2.168,17.324,17.324,0,0,1,2.619-1.358,10.351,10.351,0,0,0,5.335-6.115c.39-.876.456-1.864.866-2.731a13.782,13.782,0,0,1,3.45-3.739Z" transform="translate(-1620.531 -1870.113)" fill="#899094" stroke="#899094" stroke-width="0"/>
          <path id="Trazado_1269160" data-name="Trazado 1269160" d="M1817.405,2031c.517,0,1.033,0,1.55.051-.471.112-.932.259-1.4.365-.041-.1-.112-.309-.152-.415Z" transform="translate(-1697.712 -1934.478)" fill="#9296a1" stroke="#9296a1" stroke-width="0"/>
          <path id="Trazado_1269161" data-name="Trazado 1269161" d="M580.208,2064.953c.517-7.787,3.719-15.047,7.138-21.953a9.387,9.387,0,0,0,4,1.758,79.042,79.042,0,0,0,13.046,1.667c-.816,2.761-1.88,5.766-4.463,7.367-3.2,1.895-7.062,1.439-10.619,1.434a6.867,6.867,0,0,0,2.857.385c2.812.02,5.836-.142,8.228-1.8,1.89-1.231,2.878-3.349,3.729-5.35a5.254,5.254,0,0,0,.436-2.026c.583.025,1.165.071,1.748.111q-.144,1.041-.319,2.083a6.427,6.427,0,0,0,2.006.248,5.263,5.263,0,0,0,.659-2.209c3.658.147,7.316.294,10.979.405-.274,4.149-.8,8.283-1.3,12.418a9.672,9.672,0,0,1-1.277,4.357,4.213,4.213,0,0,1-2.128,1.464,128.891,128.891,0,0,0,1.3-13.325c.071-1.52.066-3.045.213-4.56-.066-.071-.193-.218-.253-.289-.436,6.242-.522,12.534-1.687,18.695a6.131,6.131,0,0,0,2.665-1.621,7.7,7.7,0,0,0,1.373-4.013c.557-4.367,1.1-8.734,1.495-13.117,1.834.046,3.673.056,5.507.157.279,1.778.517,3.557.775,5.34-.942-.233-1.383-1.155-1.824-1.92a4.792,4.792,0,0,1-.719-2.452,2.549,2.549,0,0,0-.127-1.033c-.142.355-.274.719-.4,1.079-.365-.046-.735-.091-1.1-.132.035.567.679.451,1.084.567a9.02,9.02,0,0,0,2.705,4.241l.405-.2c1.555,11.029,3.511,22,4.621,33.093-6.333-.081-12.666.071-18.994-.056.076-4.3.512-8.6.385-12.9a1.628,1.628,0,0,0-.263.74q-.129,6.079-.532,12.154c-5.208.122-10.427-.091-15.63.132-1.439-.532-2.928,0-4.392.056a32.1,32.1,0,0,0-3.759-.137,91.792,91.792,0,0,1-1.074-16.288c.223-6.865,1.971-13.568,4.1-20.058.476-1.388,1.089-2.731,1.6-4.1-.081-.051-.243-.157-.324-.213-.937,2.366-1.667,4.808-2.528,7.2a72.529,72.529,0,0,0-3.045,15.1,89.92,89.92,0,0,0,.922,18.335c-1.778.086-3.557.02-5.34.03a3.64,3.64,0,0,0-.334-1.13,6.332,6.332,0,0,1-.329-1.5,71.828,71.828,0,0,1-1.226-18.244M601.456,2049a6.016,6.016,0,0,1-3.567,3.668c-2.513.958-5.239.831-7.873.8l.01.34a20.75,20.75,0,0,0,7.99-.785,6.1,6.1,0,0,0,4-4.782c-.365.086-.426.481-.557.77h0Z" transform="translate(-523.019 -1945.87)" fill="#162b4e" stroke="#162b4e" stroke-width="0"/>
          <path id="Trazado_1269162" data-name="Trazado 1269162" d="M1819.4,2051.193a4.851,4.851,0,0,1,2.249.846c.309.2.719.344.811.755a19.758,19.758,0,0,0-1.94-.968c-.39-.177-.861-.264-1.12-.628h0Z" transform="translate(-1699.611 -1953.648)" fill="#0c0b0b" stroke="#0c0b0b" stroke-width="0"/>
          <path id="Trazado_1269163" data-name="Trazado 1269163" d="M417.105,2085.5c.081.051.243.157.324.213-.512,1.378-1.125,2.716-1.6,4.1-2.128,6.49-3.881,13.193-4.1,20.058a92.24,92.24,0,0,0,1.074,16.289,33.258,33.258,0,0,1,3.759.136c-.583.066-1.16.127-1.743.183-6.374-.071-12.747-.015-19.12-.015l.086-.269c3.714.01,7.427-.01,11.136,0a9.979,9.979,0,0,1-.142-1.155,3.636,3.636,0,0,1,.334,1.13c1.778-.015,3.562.056,5.34-.031a89.206,89.206,0,0,1-.922-18.335,72.534,72.534,0,0,1,3.045-15.1c.856-2.4,1.586-4.838,2.528-7.2Z" transform="translate(-348.041 -1986.217)" fill="#080705" stroke="#080705" stroke-width="0"/>
          <path id="Trazado_1269164" data-name="Trazado 1269164" d="M1809.661,2108.105c.937.314,1.875.623,2.787,1.013-.031.066-.1.192-.132.253-.892-.344-1.793-.684-2.716-.957.015-.076.041-.233.056-.314Z" transform="translate(-1690.307 -2007.672)" fill="#131b19" stroke="#131b19" stroke-width="0"/>
          <path id="Trazado_1269165" data-name="Trazado 1269165" d="M778.583,2110.605h.167a5.241,5.241,0,0,1-.436,2.031c-.851,2-1.844,4.124-3.729,5.35-2.386,1.656-5.416,1.819-8.228,1.8a6.878,6.878,0,0,1-2.857-.385c3.557,0,7.412.461,10.619-1.434,2.579-1.6,3.648-4.6,4.464-7.366h0Z" transform="translate(-697.207 -2010.046)" fill="#080705" stroke="#080705" stroke-width="0"/>
          <path id="Trazado_1269166" data-name="Trazado 1269166" d="M1093.214,2112.9c.132.005.385.02.517.03-.157.578-.309,1.16-.456,1.738.486.091.983.167,1.474.233a17.246,17.246,0,0,0,.375-1.9l.441.021a5.263,5.263,0,0,1-.659,2.209,6.279,6.279,0,0,1-2.006-.248q.175-1.042.319-2.083Z" transform="translate(-1009.918 -2012.229)" fill="#050d17" stroke="#050d17" stroke-width="0"/>
          <path id="Trazado_1269167" data-name="Trazado 1269167" d="M1100.661,2113.5c.461.02.927.046,1.388.071a16.18,16.18,0,0,1-.375,1.9c-.5-.066-.988-.137-1.474-.233.147-.577.3-1.16.456-1.738Z" transform="translate(-1016.848 -2012.798)" fill="#162948" stroke="#162948" stroke-width="0"/>
          <path id="Trazado_1269168" data-name="Trazado 1269168" d="M1262.582,2123.366c.061.071.188.218.253.289-.147,1.515-.142,3.04-.213,4.56a129.064,129.064,0,0,1-1.3,13.324,4.209,4.209,0,0,0,2.128-1.464,9.672,9.672,0,0,0,1.277-4.357c.5-4.129,1.023-8.263,1.3-12.418.1,0,.3.01.405.015-.39,4.383-.932,8.75-1.495,13.117a7.736,7.736,0,0,1-1.373,4.012,6.04,6.04,0,0,1-2.665,1.621c1.16-6.161,1.251-12.458,1.687-18.695Z" transform="translate(-1169.406 -2022.102)" fill="#080705" stroke="#080705" stroke-width="0"/>
          <path id="Trazado_1269169" data-name="Trazado 1269169" d="M1412.9,2126.579c.127-.365.253-.724.4-1.079a2.55,2.55,0,0,1,.127,1.034,4.792,4.792,0,0,0,.719,2.452c.441.77.881,1.687,1.824,1.92l.025.157-.405.2a9.02,9.02,0,0,1-2.706-4.24c-.405-.117-1.049,0-1.084-.567.365.035.73.081,1.1.132Z" transform="translate(-1312.661 -2024.191)" fill="#090f14" stroke="#090f14" stroke-width="0"/>
          <path id="Trazado_1269170" data-name="Trazado 1269170" d="M788.84,2146.97c.137-.284.193-.684.557-.77a6.087,6.087,0,0,1-4,4.783,20.75,20.75,0,0,1-7.99.785l-.01-.339c2.634.035,5.36.162,7.873-.8a6.017,6.017,0,0,0,3.567-3.668h0Z" transform="translate(-710.402 -2043.842)" fill="#080d10" stroke="#080d10" stroke-width="0"/>
          <path id="Trazado_1269171" data-name="Trazado 1269171" d="M1779.6,2157.9a9.685,9.685,0,0,1,2.477.826l-.106.071C1781.186,2158.528,1780.137,2158.614,1779.6,2157.9Z" transform="translate(-1661.827 -2054.949)" fill="#131b19" stroke="#131b19" stroke-width="0"/>
          <path id="Trazado_1269172" data-name="Trazado 1269172" d="M1670.1,2192.6a16.119,16.119,0,0,0,2.71.735l-.081.172a8.9,8.9,0,0,0-2.249-.339C1670.358,2192.975,1670.232,2192.782,1670.1,2192.6Z" transform="translate(-1557.875 -2087.891)" fill="#305a55" stroke="#305a55" stroke-width="0"/>
          <path id="Trazado_1269173" data-name="Trazado 1269173" d="M1722.176,2206.565a1.066,1.066,0,0,1,.973.279.814.814,0,0,1-1.049-.106l.081-.172h0Z" transform="translate(-1607.24 -2101.126)" fill="#d9dfe2" stroke="#d9dfe2" stroke-width="0"/>
          <path id="Trazado_1269174" data-name="Trazado 1269174" d="M3130.243,2342c.39.01.785.02,1.181.035q-1.543,15.708-2.868,31.437c-.421,0-.841-.01-1.257-.01q1.49-15.731,2.944-31.462Z" transform="translate(-2941.248 -2229.722)" fill="#183934" stroke="#183934" stroke-width="0"/>
          <path id="Trazado_1269175" data-name="Trazado 1269175" d="M3154.968,2342.7c7.478.081,14.956.117,22.434.2,0,9.16-.076,18.32-.111,27.48v.314c.01,1.231,0,2.457.01,3.688-8.4-.081-16.8-.2-25.2-.238q1.3-15.731,2.868-31.437Z" transform="translate(-2964.791 -2230.386)" fill="#305a55" stroke="#305a55" stroke-width="0"/>
          <path id="Trazado_1269176" data-name="Trazado 1269176" d="M2448.246,2407.272c.973-6.034,2.052-12.048,3.065-18.072.405.035.816.076,1.226.112-1.246,7.635-2.574,15.255-3.886,22.875-.421-.106-.836-.2-1.251-.3.309-1.535.577-3.075.841-4.621h0Z" transform="translate(-2295.794 -2274.531)" fill="#4c8664" stroke="#4c8664" stroke-width="0"/>
          <path id="Trazado_1269177" data-name="Trazado 1269177" d="M910.362,2633.54a1.569,1.569,0,0,1,.263-.74c.127,4.3-.309,8.6-.385,12.9,6.328.126,12.661-.025,18.994.056,12.514.051,25.023.015,37.537.015,0,.071-.015.208-.02.274q-28.012.015-56.019-.02c-5.2.02-10.4-.076-15.6.035-.314-.076-.623-.157-.932-.233,5.2-.223,10.422-.01,15.63-.132q.41-6.072.532-12.154Z" transform="translate(-821.285 -2505.789)" fill="#0c0b0b" stroke="#0c0b0b" stroke-width="0"/>
          <path id="Trazado_1269178" data-name="Trazado 1269178" d="M400.14,2885.442c1.464-.061,2.954-.588,4.393-.056.309.076.618.157.932.233,4.261,1.186,8.593,2.138,12.858,3.313,4.266,1.1,8.542,2.178,12.818,3.258a2.412,2.412,0,0,1-.942.228c-8.653,1.135-17.307,2.3-25.96,3.425-8.532-2.655-17.018-5.492-25.585-8.041-.066-.046-.193-.137-.253-.187,4.641-.466,9.277-.962,13.922-1.383,2.021-.243,4.068-.293,6.085-.613.578-.051,1.16-.117,1.743-.182Z" transform="translate(-331.617 -2745.355)" fill="#eb8030" stroke="#eb8030" stroke-width="0"/>
          <path id="Trazado_1269179" data-name="Trazado 1269179" d="M-544.894,2888.448c9.94-.076,19.88,0,29.821-.025,5.938,0,11.876-.02,17.813.015l-.086.268c-4.073.147-8.167.02-12.245.061h-23.032c-4.124-.025-8.253.061-12.377-.061l.1-.259h.005Z" transform="translate(545 -2748.452)" fill="#3a3b39" stroke="#3a3b39" stroke-width="0"/>
          <path id="Trazado_1269180" data-name="Trazado 1269180" d="M3649.205,2888.24c3.329-.061,6.657-.02,9.986-.041l-.015.35c-3.329.02-6.652.01-9.976,0v-.314Z" transform="translate(-3436.707 -2748.249)" fill="#3e423f" stroke="#3e423f" stroke-width="0"/>
        </g>
      </g>
    </g>
  </g>
</svg>
