<svg xmlns="http://www.w3.org/2000/svg" xmlns:xlink="http://www.w3.org/1999/xlink" width="151.46" height="127.264" viewBox="0 0 151.46 127.264">
  <defs>
    <clipPath id="clip-path">
      <rect id="Rectángulo_454929" data-name="Rectángulo 454929" width="151.46" height="127.264" fill="none"/>
    </clipPath>
  </defs>
  <g id="Grupo_1204616" data-name="Grupo 1204616" transform="translate(8227 6789)">
    <g id="Grupo_1204477" data-name="Grupo 1204477" transform="translate(-8227 -6789)">
      <g id="Grupo_1203490" data-name="Grupo 1203490" transform="translate(0 0)">
        <g id="Grupo_1203489" data-name="Grupo 1203489" clip-path="url(#clip-path)">
          <path id="Trazado_1258858" data-name="Trazado 1258858" d="M129.008,119.983c23.674-13.241,24.605-35.308,20.185-57.35-2.258-11.257-2.615-22.333-4.181-33.579-.722-5.183-2.155-10.419-5.457-14.769C130.12,1.85,111.827,6.253,97.976,8.59c-21.911,4.791-46.51,4.753-67.052,13.491C15.064,28.827-2.029,44.078.2,60.792c1.1,8.264,6.946,15.594,14.221,20.954,13.15,9.689,30.265,14.77,44.523,23.114,10.28,6.016,18.009,16.787,29.855,20.619,12.494,4.041,28.773.76,39.711-5.219q.252-.138.5-.277" transform="translate(0 0)" fill="#752092"/>
          <g id="ergonomia" transform="translate(22.579 23.12)">
            <g id="Grupo_1204468" data-name="Grupo 1204468" transform="translate(17.061 20.754)">
              <path id="Trazado_1269462" data-name="Trazado 1269462" d="M387.489,183.935h-18.07a5.612,5.612,0,0,1-3.331-1.03,2.913,2.913,0,0,1,0-4.958,5.611,5.611,0,0,1,3.331-1.03h18.07a5.612,5.612,0,0,1,3.331,1.03,2.913,2.913,0,0,1,0,4.958,5.611,5.611,0,0,1-3.331,1.03Z" transform="translate(-298.673 -163.696)" fill="#283366" fill-rule="evenodd"/>
              <path id="Trazado_1269463" data-name="Trazado 1269463" d="M382.539,183.695H366.667a5.413,5.413,0,0,1-3.214-.994,2.813,2.813,0,0,1,0-4.787,5.413,5.413,0,0,1,3.214-.994h15.873a5.413,5.413,0,0,1,3.214.994,2.813,2.813,0,0,1,0,4.787A5.413,5.413,0,0,1,382.539,183.695Z" transform="translate(-296.695 -163.698)" fill="#545d85" fill-rule="evenodd"/>
              <path id="Trazado_1269464" data-name="Trazado 1269464" d="M87.845,334.882h23.41a3.432,3.432,0,1,1,0,6.855H87.845a3.432,3.432,0,1,1,0-6.855Z" transform="translate(-84.24 -289.136)" fill="#9c9c9c" fill-rule="evenodd"/>
              <path id="Trazado_1269465" data-name="Trazado 1269465" d="M87.809,339.818H108.8c1.963,0,3.569,1.314,3.569,2.919s-1.606,2.919-3.569,2.919H87.809c-1.963,0-3.569-1.314-3.569-2.919S85.846,339.818,87.809,339.818Z" transform="translate(-84.24 -293.056)" fill="#b3b3b3" fill-rule="evenodd"/>
              <path id="Trazado_1269466" data-name="Trazado 1269466" d="M124.455,152.452a2.238,2.238,0,0,1,.189,1.239l6.042,29.851a4.23,4.23,0,0,1-.789,5.2,5.83,5.83,0,0,1-5.2,1.36,5.789,5.789,0,0,1-2.157-1.881,4.789,4.789,0,0,1-.831-2.761l-5.069-26.294c-5.3-.175-9.594-.2-12.547-.182-5.335.024-7.437.166-10.1-.836a14.826,14.826,0,0,1-6.966-5.632l.319-33.028c-.14-.372-1.112-3.094.612-5.06,2.055-2.342,6.636-2.128,9.331-.371a6.689,6.689,0,0,1,2.93,4.819l2.328,7.545h1.227l.15,8.146-3.642-.218q.1,7.57.207,15.139c2.75.087,5.1.166,6.924.23,11.739.408,16.043.655,17.036,2.738Z" transform="translate(-86.314 -112.701)" fill="#fee383" fill-rule="evenodd"/>
              <path id="Trazado_1269467" data-name="Trazado 1269467" d="M127.709,179.321h18.916c8.712,0,8.157,7.928.233,7.928H124.62c-3.213,0-5.842-1.784-5.842-3.964s2.629-3.964,5.842-3.964Z" transform="translate(-110.646 -165.604)" fill="#f09058" fill-rule="evenodd"/>
              <path id="Trazado_1269468" data-name="Trazado 1269468" d="M127.012,179.321h15.581c8.032,0,7.521,7.419.214,7.419H124.164c-2.962,0-5.386-1.669-5.386-3.709s2.424-3.709,5.386-3.709Z" transform="translate(-110.646 -165.604)" fill="#ffad7d" fill-rule="evenodd"/>
            </g>
            <ellipse id="Elipse_13668" data-name="Elipse 13668" cx="8.393" cy="6.891" rx="8.393" ry="6.891" transform="translate(15.772 2.306)" fill="#f09058"/>
            <path id="Trazado_1269469" data-name="Trazado 1269469" d="M82.026,36.318c-4.118-.438-7.288-3.144-7.288-6.418s3.17-5.98,7.288-6.418c4.118.438,7.288,3.144,7.288,6.418S86.144,35.88,82.026,36.318Z" transform="translate(-59.914 -21.098)" fill="#ffad7d" fill-rule="evenodd"/>
            <path id="Trazado_1269470" data-name="Trazado 1269470" d="M102.312,463.768c-1.728-.2-3.254-1.288-3.254-2.855,0-1.45,1.4-2.65,3.228-2.854,2.973.324,4.348,3.185,2.109,4.894a4.209,4.209,0,0,1-2.083.815Z" transform="translate(-78.509 -366.198)" fill="#837683" fill-rule="evenodd"/>
            <path id="Trazado_1269471" data-name="Trazado 1269471" d="M174.246,468.7c-1.693-.18-3.187-1.181-3.187-2.616,0-1.329,1.374-2.429,3.162-2.616,2.913.3,4.259,2.919,2.066,4.485a4.294,4.294,0,0,1-2.041.747Z" transform="translate(-133.558 -370.495)" fill="#837683" fill-rule="evenodd"/>
            <path id="Trazado_1269472" data-name="Trazado 1269472" d="M388.936,19.893h2.732a4.385,4.385,0,0,1,4.06,4.634v19.26a4.385,4.385,0,0,1-4.06,4.635h-2.732a1.431,1.431,0,0,1-1.328-1.516v-25.5A1.432,1.432,0,0,1,388.936,19.893Z" transform="translate(-299.123 -18.248)" fill="#8589b3" fill-rule="evenodd"/>
            <path id="Trazado_1269473" data-name="Trazado 1269473" d="M389.018,22.961h1.076c1.714,0,3.113,2.016,3.113,4.487V46.1c0,2.471-1.4,4.487-3.113,4.487h-1.076c-.562,0-1.018-.657-1.018-1.468V24.429c0-.811.456-1.468,1.018-1.468Z" transform="translate(-299.423 -20.684)" fill="#adb0db" fill-rule="evenodd"/>
            <path id="Trazado_1269474" data-name="Trazado 1269474" d="M69.668,73.966c-.061-2.961-2.834-5.354-6.234-5.354h-19.1V55.4H66.385c3.438,0,6.235-2.446,6.235-5.453s-2.8-5.453-6.235-5.453H46.349L44.29,37.833c-1.324-4.285-4.136-6.645-7.919-6.645-4.393,0-7.968,3.126-7.968,6.968v34.4a6.549,6.549,0,0,0,2.374,4.956A4.833,4.833,0,0,0,27.523,80c-2.512-2.138-3.448-5.8-3.448-8.63V38.155a8.7,8.7,0,0,1,.625-3.237,1.2,1.2,0,0,0-.868-1.573,1.472,1.472,0,0,0-1.8.759,11.031,11.031,0,0,0-.49,1.555c-3.834-.035-6.941-2.772-6.941-6.133a6.238,6.238,0,0,1,4.325-5.662,13.133,13.133,0,0,0,2.784,5.249,1.49,1.49,0,0,0,1.125.488,1.542,1.542,0,0,0,.854-.252,1.136,1.136,0,0,0,.269-1.731,10.8,10.8,0,0,1-1.326-12.292,1.171,1.171,0,0,0-.654-1.651,1.51,1.51,0,0,0-1.888.572,12.874,12.874,0,0,0-1.577,7.117c-3.958,1.16-6.738,4.461-6.738,8.163,0,4.638,4.218,8.429,9.475,8.6,0,.011,0,.021,0,.032V71.372c0,4.051,1.568,9.09,5.9,11.513a5.647,5.647,0,0,0,5.77,4.364h9.816v11.3H38.126c-3.815,0-4.161,2.489-4.192,4.438a4.117,4.117,0,0,0-3.246,3.829,4.323,4.323,0,0,0,4.576,4,4.324,4.324,0,0,0,4.577-4,4.087,4.087,0,0,0-3.081-3.778c.035-2.016.315-2.017,1.366-2.017H49.237c1.078,0,1.369,0,1.37,2.838a3.989,3.989,0,0,0-2.528,3.574,4.323,4.323,0,0,0,4.576,4,4.324,4.324,0,0,0,4.577-4,4.2,4.2,0,0,0-3.8-3.94c-.012-2.2-.231-4.943-4.195-4.943H45.563v-11.3h9.816a6.318,6.318,0,0,0,3.775-1.217l3.623,20.821c.514,2.956,2.961,4.585,6.89,4.585a1.632,1.632,0,0,0,.213-.014c3.4-.452,5.743-3.239,5.226-6.211L69.669,73.967Zm-34.4,34.383a1.545,1.545,0,1,1,1.751-1.531A1.654,1.654,0,0,1,35.264,108.35Zm19.143-.915a1.767,1.767,0,1,1-1.751-1.531A1.654,1.654,0,0,1,54.407,107.435Zm3.979-25.287a2.84,2.84,0,0,1-3.007,2.629H32.92a2.84,2.84,0,0,1-3.007-2.629c0-2.015,1.231-2.629,5.267-2.629a1.606,1.606,0,0,0,.348-.039c.277.026.558.039.843.039H58.02l.407,2.336a1.092,1.092,0,0,0-.042.293Zm11.168,26.818c-3.15-.03-3.785-1.341-3.984-2.485L60.631,78.1a1.368,1.368,0,0,0-1.4-1.05H36.371c-2.836,0-5.142-2.017-5.142-4.5v-34.4c0-2.48,2.307-4.5,5.142-4.5,3.06,0,4.512,2.621,5.191,4.819L43.9,46.054a1.4,1.4,0,0,0,1.364.913H66.385a3.009,3.009,0,1,1,0,5.965H42.973c-2.751,0-3.472-.309-3.84-.881-.652-1.01-.709-3.368-.719-6.589A1.333,1.333,0,0,0,37,44.23h0a1.332,1.332,0,0,0-1.409,1.239c.022,6.984.317,9.549,5.926,9.892V69.848a1.333,1.333,0,0,0,1.413,1.235H63.434a3.222,3.222,0,0,1,3.41,2.982,1.092,1.092,0,0,0,.016.186l5.452,31.332a3.054,3.054,0,0,1-2.758,3.382Zm-33.79-79.85c5.426,0,9.841-3.861,9.841-8.606S41.189,11.9,35.763,11.9s-9.841,3.861-9.841,8.606S30.337,29.116,35.763,29.116Zm0-14.741c3.868,0,7.015,2.752,7.015,6.135s-3.147,6.135-7.015,6.135-7.015-2.752-7.015-6.135S31.895,14.375,35.763,14.375ZM126.2,51.77h-2.761a3.8,3.8,0,0,0,.474-1.826A3.989,3.989,0,0,0,123,47.436a1.159,1.159,0,0,0-.149-.3L109.794,28.341V17.351c0-2.561-2.383-4.645-5.312-4.645h-3.9A1.333,1.333,0,0,0,99.17,13.94V41.82a1.333,1.333,0,0,0,1.413,1.235h3.9c2.929,0,5.312-2.084,5.312-4.645V33.1l8.662,12.465h-20.6c-2.761,0-5.008,1.965-5.008,4.379a3.789,3.789,0,0,0,.477,1.826H78.383a1.246,1.246,0,1,0,0,2.471h28.585v54.725h-16a1.246,1.246,0,1,0,0,2.471h22.469a1.246,1.246,0,1,0,0-2.471h-3.642V54.241h16.4a1.246,1.246,0,1,0,0-2.471Zm-19.23-13.36a2.349,2.349,0,0,1-2.487,2.175h-2.487V15.176h2.487a2.349,2.349,0,0,1,2.487,2.175ZM97.575,51.755a1.946,1.946,0,0,1-1.9-1.812,2.062,2.062,0,0,1,2.182-1.908H118.9a2.062,2.062,0,0,1,2.182,1.908,1.884,1.884,0,0,1-1.622,1.768,1.542,1.542,0,0,0-.2.059H97.673c-.032-.005-.064-.011-.1-.014ZM84.235,60.792a1.333,1.333,0,0,1-1.413,1.235H56.588a1.246,1.246,0,1,1,0-2.471H82.822A1.333,1.333,0,0,1,84.235,60.792Z" transform="translate(-11.776 -11.904)"/>
          </g>
        </g>
      </g>
    </g>
  </g>
</svg>
