<svg xmlns="http://www.w3.org/2000/svg" width="311.088" height="64.643" viewBox="0 0 311.088 64.643">
  <g id="Grupo_1204659" data-name="Grupo 1204659" transform="translate(-894.08 -6430.19)">
    <path id="Trazado_1270232" data-name="Trazado 1270232" d="M9.84,15,6.32,3.64H3.6L.08,15h2.5l.656-2.368H6.624L7.28,15ZM4.928,6.456,6.1,10.68H3.76ZM13,17.72v-3.7a2.287,2.287,0,0,0,2.08,1.184c1.76,0,2.944-1.44,2.944-4.016v-.656c0-2.576-1.184-4.016-2.944-4.016A2.321,2.321,0,0,0,12.888,7.9l-.08-1.168H10.632V17.72Zm1.312-4.3c-.928,0-1.36-.64-1.36-1.952v-1.2c0-1.328.432-1.968,1.36-1.968.912,0,1.344.656,1.344,1.968v1.2C15.656,12.76,15.224,13.416,14.312,13.416ZM21.52,15V10.68A1.585,1.585,0,0,1,23.3,8.856c.208,0,.4.016.592.032V6.632a1.785,1.785,0,0,0-.432-.048,2.126,2.126,0,0,0-2,1.7l-.064-1.552H19.168V15Zm6.6.208c2.288,0,3.7-1.584,3.7-4.048v-.592c0-2.464-1.408-4.048-3.7-4.048S24.408,8.1,24.408,10.568v.592C24.408,13.624,25.832,15.208,28.12,15.208Zm0-1.808c-.944,0-1.344-.64-1.344-2.016V10.328c0-1.376.4-2,1.344-2s1.344.624,1.344,2.016v1.04C29.464,12.76,29.064,13.4,28.12,13.4Zm9,1.6L39.5,6.728H37.216l-1.408,6.016L34.432,6.728H32.016L34.4,15Zm6.3.208a3.321,3.321,0,0,0,3.536-2.832H44.664A1.2,1.2,0,0,1,43.4,13.432c-.9,0-1.28-.544-1.344-1.808v-.24h4.928C47.16,8.2,45.928,6.52,43.416,6.52c-2.32,0-3.712,1.568-3.712,4.048v.592C39.7,13.656,41.08,15.208,43.416,15.208ZM42.072,9.88c.1-1.12.48-1.584,1.328-1.584.864,0,1.216.512,1.264,1.584v.1H42.072Zm9.448,5.328c1.968,0,3.232-1.216,3.376-3.408H52.64c-.064,1.008-.368,1.6-1.152,1.6-.848,0-1.216-.672-1.216-2.016V10.328c0-1.36.384-2,1.232-2,.8,0,1.072.56,1.136,1.584h2.272C54.768,7.736,53.5,6.52,51.52,6.52c-2.24,0-3.616,1.552-3.616,4.048v.592C47.9,13.672,49.3,15.208,51.52,15.208ZM58.3,15V9.912c0-.976.464-1.5,1.2-1.5s1.04.5,1.04,1.344V15h2.336V9.224c0-1.5-.64-2.7-2.384-2.7A2.417,2.417,0,0,0,58.3,7.768V3.16H55.944V15Zm7.976.208a2.27,2.27,0,0,0,2.144-1.3L68.5,15h2.192V9.208c0-1.648-1.184-2.688-3.152-2.688-2.016,0-3.312,1.024-3.344,2.8H66.4c.048-.768.4-1.1,1.04-1.1.656,0,.928.336.928.976v.736L66.4,10.2c-1.632.208-2.5,1.072-2.5,2.56A2.289,2.289,0,0,0,66.272,15.208Zm.848-1.7a.853.853,0,0,1-.928-.912c0-.592.3-.928.96-1.008l1.216-.16v.816A1.206,1.206,0,0,1,67.12,13.512ZM74.376,15V9.928c0-1.04.432-1.536,1.136-1.536.656,0,.976.464.976,1.3V15h2.336V9.928c0-1.024.416-1.536,1.12-1.536.64,0,.976.448.976,1.3V15h2.336V9.24c0-1.536-.64-2.72-2.336-2.72A2.615,2.615,0,0,0,78.6,7.9,2.032,2.032,0,0,0,76.5,6.52,2.4,2.4,0,0,0,74.312,7.9l-.08-1.168H72.024V15Zm12.6-11.84H84.56V5.7h2.416ZM84.592,6.728V15h2.352V6.728Zm7.208,8.48a3.321,3.321,0,0,0,3.536-2.832H93.048a1.2,1.2,0,0,1-1.264,1.056c-.9,0-1.28-.544-1.344-1.808v-.24h4.928C95.544,8.2,94.312,6.52,91.8,6.52c-2.32,0-3.712,1.568-3.712,4.048v.592C88.088,13.656,89.464,15.208,91.8,15.208ZM90.456,9.88c.1-1.12.48-1.584,1.328-1.584.864,0,1.216.512,1.264,1.584v.1H90.456ZM98.88,15V9.9c0-.96.464-1.488,1.2-1.488s1.04.5,1.04,1.344V15h2.336V9.224c0-1.52-.64-2.7-2.384-2.7a2.412,2.412,0,0,0-2.256,1.392l-.08-1.184H96.528V15Zm9.224.208a4.414,4.414,0,0,0,1.36-.208V13.24a2.362,2.362,0,0,1-.784.144c-.624,0-.928-.256-.928-.816V8.44h1.68V6.728h-1.68V4.2h-2.336V6.728H104.2V8.44h1.216v4.3C105.416,14.264,106.264,15.208,108.1,15.208Zm5.736,0c2.288,0,3.7-1.584,3.7-4.048v-.592c0-2.464-1.408-4.048-3.7-4.048s-3.712,1.584-3.712,4.048v.592C110.128,13.624,111.552,15.208,113.84,15.208Zm0-1.808c-.944,0-1.344-.64-1.344-2.016V10.328c0-1.376.4-2,1.344-2s1.344.624,1.344,2.016v1.04C115.184,12.76,114.784,13.4,113.84,13.4Zm11.744,3.664a15.329,15.329,0,0,1-1.776-6.96,15.263,15.263,0,0,1,1.776-6.944h-1.92a12.18,12.18,0,0,0-2.24,6.944,12.075,12.075,0,0,0,2.24,6.96Zm3.032-8.336a2.426,2.426,0,0,0,2.464-2.64,2.456,2.456,0,1,0-4.9,0A2.4,2.4,0,0,0,128.616,8.728ZM129.288,15,135.88,3.64H134.1L127.5,15Zm-.672-7.76c-.56,0-.9-.416-.9-1.152,0-.784.336-1.152.9-1.152s.9.368.9,1.152C129.512,6.824,129.176,7.24,128.616,7.24Zm6.24,7.968a2.426,2.426,0,0,0,2.464-2.64,2.456,2.456,0,1,0-4.9,0A2.411,2.411,0,0,0,134.856,15.208Zm.016-1.5c-.56,0-.9-.4-.9-1.136,0-.784.336-1.168.9-1.168.544,0,.88.384.88,1.168C135.752,13.3,135.416,13.7,134.872,13.7Zm4.968,3.36a12.142,12.142,0,0,0,2.224-6.96A12.287,12.287,0,0,0,139.84,3.16H137.9A15.224,15.224,0,0,1,139.7,10.1a15.185,15.185,0,0,1-1.792,6.96Zm12.5-8.656V6.584H146V8.408Zm0,3.344V9.928H146v1.824Z" transform="translate(894 6449.511)" fill="#12263f"/>
    <path id="Trazado_1270233" data-name="Trazado 1270233" d="M23.468,15V3.64H21.58a4.32,4.32,0,0,1-2.544,1.712V7.528a4.938,4.938,0,0,0,2.048-.96V15Zm3.96,0V12.664H25.092V15Zm4.952,0V3.64H30.492a4.32,4.32,0,0,1-2.544,1.712V7.528A4.938,4.938,0,0,0,30,6.568V15Zm5.016.208c2.192,0,3.632-1.408,3.632-3.872v-.16c0-2.4-1.3-3.6-2.9-3.6a2.26,2.26,0,0,0-1.792.8l.336-2.7h3.808V3.64H34.916l-.832,6.512,2.064.144a1.338,1.338,0,0,1,1.232-.912c.784,0,1.264.592,1.264,1.872v.16c0,1.3-.48,1.872-1.248,1.872-.688,0-1.2-.4-1.28-1.584H33.764A3.319,3.319,0,0,0,37.4,15.208Z" transform="translate(1050 6437.511)" fill="#12263f"/>
    <path id="Trazado_1270234" data-name="Trazado 1270234" d="M13.048,15V3.64H11.16A4.32,4.32,0,0,1,8.616,5.352V7.528a4.938,4.938,0,0,0,2.048-.96V15Zm3.96,0V12.664H14.672V15Zm4.808.208c2.192,0,3.632-1.408,3.632-3.872v-.16c0-2.4-1.3-3.6-2.9-3.6a2.26,2.26,0,0,0-1.792.8l.336-2.7H24.9V3.64H19.336L18.5,10.152l2.064.144A1.338,1.338,0,0,1,21.8,9.384c.784,0,1.264.592,1.264,1.872v.16c0,1.3-.48,1.872-1.248,1.872-.688,0-1.2-.4-1.28-1.584H18.184A3.319,3.319,0,0,0,21.816,15.208Z" transform="translate(1063 6462.511)" fill="#12263f"/>
    <path id="Trazado_1270235" data-name="Trazado 1270235" d="M2.528,15,3.84,12.552,5.152,15H7.68L5.2,10.792,7.536,6.728h-2.4l-1.2,2.288L2.752,6.728H.224l2.384,4L.1,15ZM15.44,15V3.64H13.552a4.32,4.32,0,0,1-2.544,1.712V7.528a4.938,4.938,0,0,0,2.048-.96V15Zm5.192.208c2.56,0,3.632-2.016,3.632-4.992V8.44c0-2.976-1.056-5.008-3.632-5.008-2.512,0-3.584,2.032-3.584,5.008v1.776C17.048,13.192,18.12,15.208,20.632,15.208Zm0-1.952c-.864,0-1.152-.736-1.152-2.624V8.056c0-1.92.288-2.672,1.152-2.672.928,0,1.184.752,1.184,2.672v2.576C21.816,12.52,21.56,13.256,20.632,13.256Zm8.232,1.952c2.56,0,3.632-2.016,3.632-4.992V8.44c0-2.976-1.056-5.008-3.632-5.008-2.512,0-3.584,2.032-3.584,5.008v1.776C25.28,13.192,26.352,15.208,28.864,15.208Zm0-1.952c-.864,0-1.152-.736-1.152-2.624V8.056c0-1.92.288-2.672,1.152-2.672.928,0,1.184.752,1.184,2.672v2.576C30.048,12.52,29.792,13.256,28.864,13.256ZM42.512,8.408V6.584H36.176V8.408Zm0,3.344V9.928H36.176v1.824ZM49.728,15A22.314,22.314,0,0,1,53.1,5.256V3.64H46.1V5.672h4.48A23.673,23.673,0,0,0,47.072,15Zm7.528.208c2.192,0,3.584-1.488,3.584-3.872v-.16c0-2.336-1.3-3.536-2.9-3.536a2.323,2.323,0,0,0-2.176,1.3V8.472c0-2.288.512-3.168,1.488-3.168.672,0,1.1.384,1.216,1.424h2.32c-.24-2.16-1.5-3.3-3.472-3.3-2.384,0-3.84,1.728-3.84,5.632v.624C53.48,13.288,54.84,15.208,57.256,15.208ZM57.24,13.32c-.784,0-1.184-.608-1.184-1.9v-.128c0-1.216.416-1.808,1.184-1.808.752,0,1.168.592,1.168,1.792v.144C58.408,12.728,58.024,13.32,57.24,13.32ZM64.384,15V12.664H62.048V15Zm4.664.208c2.192,0,3.584-1.488,3.584-3.872v-.16c0-2.336-1.3-3.536-2.9-3.536a2.323,2.323,0,0,0-2.176,1.3V8.472c0-2.288.512-3.168,1.488-3.168.672,0,1.1.384,1.216,1.424h2.32c-.24-2.16-1.5-3.3-3.472-3.3-2.384,0-3.84,1.728-3.84,5.632v.624C65.272,13.288,66.632,15.208,69.048,15.208Zm-.016-1.888c-.784,0-1.184-.608-1.184-1.9v-.128c0-1.216.416-1.808,1.184-1.808.752,0,1.168.592,1.168,1.792v.144C70.2,12.728,69.816,13.32,69.032,13.32ZM76.752,15a22.314,22.314,0,0,1,3.376-9.744V3.64H73.12V5.672H77.6A23.673,23.673,0,0,0,74.1,15Zm6.712-6.272a2.426,2.426,0,0,0,2.464-2.64,2.456,2.456,0,1,0-4.9,0A2.4,2.4,0,0,0,83.464,8.728ZM84.136,15,90.728,3.64H88.952L82.344,15Zm-.672-7.76c-.56,0-.9-.416-.9-1.152,0-.784.336-1.152.9-1.152s.9.368.9,1.152C84.36,6.824,84.024,7.24,83.464,7.24Zm6.24,7.968a2.426,2.426,0,0,0,2.464-2.64,2.456,2.456,0,1,0-4.9,0A2.411,2.411,0,0,0,89.7,15.208Zm.016-1.5c-.56,0-.9-.4-.9-1.136,0-.784.336-1.168.9-1.168.544,0,.88.384.88,1.168C90.6,13.3,90.264,13.7,89.72,13.7Z" transform="translate(1113 6448.511)" fill="#12263f"/>
    <path id="Trazado_1270236" data-name="Trazado 1270236" d="M0,0H38" transform="translate(1059.5 6460.011)" fill="none" stroke="#707070" stroke-width="1"/>
    <path id="Trazado_1269475" data-name="Trazado 1269475" d="M0,0S-9.155,12.15-8.5,32.8,1,64,1,64" transform="translate(1060.505 6430.511)" fill="none" stroke="#000" stroke-width="1"/>
    <path id="Trazado_1269476" data-name="Trazado 1269476" d="M0,0S-9.155,12.15-8.5,32.8,1,64,1,64" transform="translate(1097.972 6494.511) rotate(180)" fill="none" stroke="#000" stroke-width="1"/>
  </g>
</svg>
