<svg xmlns="http://www.w3.org/2000/svg" xmlns:xlink="http://www.w3.org/1999/xlink" width="188" height="162.599" viewBox="0 0 188 162.599">
  <defs>
    <clipPath id="clip-path">
      <rect id="Rectángulo_454933" data-name="Rectángulo 454933" width="188" height="162.599" fill="none"/>
    </clipPath>
  </defs>
  <g id="Grupo_1204659" data-name="Grupo 1204659" transform="translate(-290.941 -7460.748)">
    <g id="Grupo_1203667" data-name="Grupo 1203667" transform="translate(290.941 7460.748)">
      <g id="Grupo_1203498" data-name="Grupo 1203498" clip-path="url(#clip-path)">
        <path id="Trazado_1258868" data-name="Trazado 1258868" d="M163.429,142.2c21.76-23.418,15.6-51.474,3.551-77.973-6.152-13.532-10.153-27.38-15.54-41.1-2.482-6.321-5.767-12.507-10.818-17.046C126.179-6.885,107.466,3.87,92.973,10.757,70.4,23.032,43.3,29.991,23.521,46.846,8.253,59.858-5.605,83.933,2.289,104.347c3.9,10.094,12.728,17.66,22.486,22.338,17.639,8.456,38.142,9.98,56.562,16.427,13.28,4.648,25.3,16.011,39.6,17.463,15.077,1.531,31.937-7.238,42.034-17.883q.233-.246.462-.492" transform="translate(0 0)" fill="#fff"/>
        <path id="Trazado_1258869" data-name="Trazado 1258869" d="M171.123,143.2c21.76-23.418,15.6-51.473,3.551-77.972-6.152-13.532-10.153-27.38-15.54-41.1-2.482-6.321-5.767-12.507-10.819-17.046-14.442-12.972-33.154-2.216-47.648,4.671C78.1,24.033,50.993,30.992,31.215,47.847,15.947,60.859,2.089,84.934,9.983,105.348c3.9,10.094,12.728,17.66,22.486,22.338,17.639,8.456,38.142,9.98,56.562,16.427,13.28,4.648,25.3,16.011,39.6,17.463,15.077,1.531,31.937-7.238,42.034-17.883Q170.893,143.448,171.123,143.2Z" transform="translate(1.788 0.232)" fill="none" stroke="#c957bc" stroke-miterlimit="10" stroke-width="1"/>
        <path id="Trazado_1258870" data-name="Trazado 1258870" d="M134.57,125.231v4.691c0,2.581-.468,3.058-3,3.059-1.29,0-2.582-.022-3.874,0-4.82.095-4.841-.016-4.752-4.819.017-.923,0-1.846,0-2.852H111.326c0,1.738.007,3.461,0,5.182-.009,1.819-.663,2.482-2.481,2.482q-36.255,0-72.509,0c-1.823,0-2.482-.658-2.483-2.477q-.007-13.015,0-26.031c0-1.828.669-2.626,2.469-2.45,2.625.256,4.528-.3,6.093-2.751,1.171-1.828,3.217-3.095,4.926-4.66-.047-.037-.271-.232-.516-.4a12.015,12.015,0,0,1-4.97-7.062,1.668,1.668,0,0,0-.918-1,9.771,9.771,0,0,1-7.079-9.6,9.618,9.618,0,0,1,7.326-9.124c.789-.213.9-.662,1.028-1.25,1.973-9.051,4.274-18.022,5.712-27.2,2.172-13.86,15.589-23.7,29.569-22.054,12.6,1.48,22.1,11.087,24.011,23.605,1.151,7.555,3.047,15,4.608,22.489a1.823,1.823,0,0,1,.067.232c.2,2.746,1.128,4.892,4.395,5.015-.476-1.937-.986-4.024-1.5-6.109-.473-1.916-.96-3.829-1.43-5.747-.4-1.617-.067-2.27,1.507-2.9,4.261-1.714,8.519-3.431,12.8-5.1a1.312,1.312,0,0,0,1.03-1.475c-.074-2.178-.036-4.358-.021-6.538.011-1.651.7-2.328,2.376-2.337q3.45-.017,6.9,0c1.649.01,2.328.7,2.338,2.376.012,2.18.042,4.36-.017,6.538a1.254,1.254,0,0,0,.958,1.4c4.125,1.617,8.233,3.278,12.348,4.922,2.243.9,2.49,1.357,1.919,3.639-2.355,9.421-4.725,18.838-7.041,28.269a2.969,2.969,0,0,0,.238,1.916,61.411,61.411,0,0,1,7.094,28.713q.006,3.452,0,6.9c-.006,1.826-.661,2.493-2.466,2.5-4.277.007-8.552,0-13.027,0M86.148,92.3c3.2,0,6.22.006,9.242,0a7.753,7.753,0,0,0,8.186-7.607,1.958,1.958,0,0,1,2.037-2.079c3.411-.312,5.733-2.7,5.709-5.866A5.818,5.818,0,0,0,105.629,71a2.043,2.043,0,0,1-2.043-1.709c-.283-1.216-.581-2.43-.837-3.652-1.737-8.277-3.76-16.509-5.122-24.848-1.785-10.929-10.615-19.443-21.6-20.137a23.284,23.284,0,0,0-23.9,17.1c-.59,2.209-.693,4.543-1.178,6.783C49.154,52.8,47.3,61.052,45.459,69.31a2.083,2.083,0,0,1-2.183,1.7A5.8,5.8,0,0,0,43.213,82.6c1.651.137,2.158.661,2.269,2.352A7.755,7.755,0,0,0,53.2,92.29c1.734.027,3.469.006,5.2.006h4.5c0-3.34-.033-6.522.022-9.7a1.884,1.884,0,0,0-1-1.83c-6-4.008-9.694-9.561-10.406-16.779-.386-3.919-.159-7.9-.253-11.848a2.438,2.438,0,0,1,1.618-2.53A23.025,23.025,0,0,0,65.928,34.441c.3-1.039.7-1.916,1.944-1.977,1.316-.064,1.771.817,2.131,1.9a24.66,24.66,0,0,0,7.506,11.217,25.411,25.411,0,0,0,17.776,6.044c1.822-.048,2.476.65,2.483,2.47.007,2.1-.009,4.2,0,6.3C97.82,69.225,94.189,76.1,86.819,81a1.406,1.406,0,0,0-.642.89c-.044,3.423-.028,6.844-.028,10.411m60.043,29.01c0-1.272-.022-2.437,0-3.6a58.215,58.215,0,0,0-7.281-29.955,3.275,3.275,0,0,1-.258-2.163c2.26-9.275,4.586-18.535,6.882-27.8a1.915,1.915,0,0,0,.049-1.14c-.235-.51-2.883-1.152-3.435-.916-3.554,1.522-7.1,3.069-10.664,4.56a1.125,1.125,0,0,0-.807,1.251c.036,2.944.015,5.89.015,8.835v2.486h-3.874V71.628c0-3.349-.021-6.7.017-10.046a1.212,1.212,0,0,0-.875-1.334c-3.531-1.473-7.037-3.007-10.563-4.492a1.787,1.787,0,0,0-1.128-.1c-.838.26-1.639.638-2.545,1.006.1.438.173.823.267,1.2,2.295,9.226,4.611,18.446,6.855,27.685a3.455,3.455,0,0,1-.286,2.274,56.9,56.9,0,0,0-7.111,24.4c-.171,3-.027,6.022-.027,9.084Zm-52.3-65.752c-11.521-.483-20.1-5.631-25.779-15.568a1.97,1.97,0,0,0-.233.269A27.675,27.675,0,0,1,55.8,52.562a1.485,1.485,0,0,0-.615,1.1c-.053,2.581-.044,5.163-.025,7.745a19.365,19.365,0,0,0,37.823,5.763c1.23-3.782.829-7.652.912-11.617m-17.519,50.4H37.789v23.1H76.375Zm15.639,23.08h15.439v-.891c0-5.523.037-11.045-.012-16.568A15.523,15.523,0,0,0,92.014,96.184ZM61.026,101.983h1.4q7.624,0,15.25,0c2.059,0,2.66.6,2.66,2.666q0,11.562,0,23.123v1.273h7.673V96.207a10.31,10.31,0,0,0-4.974.721,19.351,19.351,0,0,1-17.172-.063,10.241,10.241,0,0,0-4.837-.656ZM82.272,83.211a23.288,23.288,0,0,1-15.492,0c0,3.229-.015,6.29.026,9.351a1.108,1.108,0,0,0,.588.764,16.366,16.366,0,0,0,14.252,0,1.21,1.21,0,0,0,.6-.875c.044-3.021.027-6.044.027-9.238m19.107,11.544a21.3,21.3,0,0,1,7.594,7.524A63.04,63.04,0,0,1,114.8,86.685a1.441,1.441,0,0,0,.142-.917c-.292-1.311-.643-2.609-1.025-4.115a10.3,10.3,0,0,1-6.1,4.572.989.989,0,0,0-.579.622,12.033,12.033,0,0,1-5.858,7.907M119.8,53.414c3.023,1.293,5.758,2.469,8.5,3.622a1.148,1.148,0,0,0,.8.064c2.8-1.179,5.584-2.391,8.6-3.69-1.881-.753-3.521-1.407-5.16-2.067-1.552-.625-1.84-1.049-1.843-2.714q0-3.307,0-6.618h-3.875c0,2.3-.043,4.516.016,6.728a2.384,2.384,0,0,1-1.734,2.567c-1.691.633-3.36,1.331-5.3,2.107M57.048,96.156a15.631,15.631,0,0,0-11.96,5.753h11.96Zm73.562,29.172h-3.721v3.725h3.721Z" transform="translate(7.868 3.893)" fill="#752092"/>
        <path id="Trazado_1258871" data-name="Trazado 1258871" d="M72.659,59.233h2.73a7.177,7.177,0,1,1-14.353,0h2.722a4.481,4.481,0,0,0,2.078,3.542,5.9,5.9,0,0,0,2.618.711c2.19,0,3.6-1.509,4.205-4.251" transform="translate(14.186 13.769)" fill="#752092"/>
        <path id="Trazado_1258872" data-name="Trazado 1258872" d="M63.013,53.509a3.381,3.381,0,1,1-3.4-3.358,3.41,3.41,0,0,1,3.4,3.358" transform="translate(13.076 11.658)" fill="#752092"/>
        <path id="Trazado_1258873" data-name="Trazado 1258873" d="M78.729,53.567a3.381,3.381,0,1,1-3.347-3.415,3.409,3.409,0,0,1,3.347,3.415" transform="translate(16.729 11.658)" fill="#752092"/>
        <path id="Trazado_1258874" data-name="Trazado 1258874" d="M54.145,107.689a7.746,7.746,0,1,1,7.768-7.753,7.768,7.768,0,0,1-7.768,7.753m.076-3.876a3.871,3.871,0,1,0-3.922-3.787,3.9,3.9,0,0,0,3.922,3.787" transform="translate(10.792 21.432)" fill="#752092"/>
      </g>
    </g>
  </g>
</svg>
