<svg xmlns="http://www.w3.org/2000/svg" width="338.686" height="431.205" viewBox="0 0 338.686 431.205">
  <g id="Grupo_1204614" data-name="Grupo 1204614" transform="translate(-627.508 -5637.773)">
    <path id="Trazado_893668" data-name="Trazado 893668" d="M174.554,234.736c.727-9.963,3.28-19.7,3.73-22.49,1.848-11.557,2.4-25.661,4.013-38.608.929-7.467,1.95-11.537,3.138-17.866.78-4.161,1.648-7.129,2.157-30.468.323-14.774.539-32.221,4.361-40.582,2.4-5.249,8.4-5.374,16.42-6.729,7.452-1.258,14.409-3.706,17.322-7.38,2.563-3.333,4.914-10.219.655-15.767-2.77-3.61-3.234-6.23-3.734-11.449a1.334,1.334,0,0,1-1.824-.769,7.909,7.909,0,0,1-.2-2.619c-.124-1.957-1.615-2.886-1.22-6.128a1.559,1.559,0,0,1,2.133-1.422c0-6.792-2.74-19.705,10.421-25.19.013-3.548,2.116-7.27,7.727-7.27s7.714,3.721,7.726,7.274c13.16,5.484,10.421,18.4,10.421,25.19a1.559,1.559,0,0,1,2.133,1.422c.394,3.242-1.093,4.168-1.22,6.128a7.909,7.909,0,0,1-.2,2.619,1.334,1.334,0,0,1-1.825.769c-.5,5.219-.963,7.838-3.734,11.449-4.259,5.548-1.909,12.437.655,15.767,2.913,3.672,9.87,6.12,17.322,7.38,8.025,1.354,14.021,1.479,16.42,6.729,3.822,8.361,4.038,25.807,4.361,40.582.508,23.34,1.376,26.308,2.157,30.468,1.188,6.329,2.209,10.4,3.138,17.866,1.609,12.945,2.164,27.049,4.013,38.608.448,2.79,3,12.527,3.73,22.49.127,1.741-.5,3.4-1.071,6.082a20.305,20.305,0,0,1-2.147,6.331,87.108,87.108,0,0,1-5.13,7.38c-1.35,1.719-1.777,1.276-3.659,3.358-.768.849-2.062.812-2.22-.869a4.571,4.571,0,0,1,.726-2.688c.507-.877,1.377-1.389,1.56-2.118a51.381,51.381,0,0,1,2.336-6.716c.319-.764.225-4.514.485-6.853a5.28,5.28,0,0,0-1.788-3.908c-.036.027-.579-.615-.619.061-.056.917-.558,4.813-.78,5.74a20.529,20.529,0,0,1-1.823,4.554c-.957,1.714-2.932,1.122-2.409-1.646a29.044,29.044,0,0,0,.381-4.82c0-2.517-.137-6.779-.161-8.62-.074-6.45.9-8.048.942-11.915a10.455,10.455,0,0,0-.141-2.187c-3.312-17.592-7.879-23.407-11.557-37.225-1.732-6.507-1.755-13.872-1.851-15.7-.519-9.941-2.99-23.534-3.409-39.639-.659,9.977-2.8,14.062-3.8,25.725-1.058,12.294.5,17.914,3.061,26.808,2.067,7.163,5.34,16.086,8.281,27.818,6.755,26.951,3.32,49.425-2.021,83-2.836,17.842,1.5,25.52,2.206,38.428.512,9.478-.288,21.43-4.383,47.323-4.516,28.545-4.884,31.07-3.735,38.95.107.733.52,2.575.916,4.835a11.481,11.481,0,0,0,1.977,4.833,15.326,15.326,0,0,0,3.836,3.5,3.433,3.433,0,0,1,1.777,3.846c-.582,1.285-1.5,1.537-3.289,1.537h-17.5c-4.222,0-4.665-2.1-4.5-5.087a27.892,27.892,0,0,1,1.432-5.818c.6-2.154.547-3.173.984-5.475.478-2.5,1.135-3.445,1.389-7.029.44-6.187-.137-21.774-2.1-35.811-2.142-15.3-5.307-31.236-6.15-38.483-1.863-15.976.609-29.686-.539-42.121-1.809-19.57-5.877-31.433-9.83-59.838-.048-.342-.172-.106-.78-.106s-.733-.236-.78.106c-3.952,28.4-8.02,40.268-9.829,59.838-1.148,12.437,1.324,26.144-.539,42.121-.842,7.248-4.006,23.183-6.15,38.483-1.962,14.037-2.535,29.624-2.1,35.811.253,3.584.91,4.533,1.389,7.029a55.623,55.623,0,0,0,.984,5.475,28.051,28.051,0,0,1,1.435,5.818c.169,2.986-.273,5.087-4.5,5.087h-17.5c-1.789,0-2.707-.252-3.29-1.537a3.428,3.428,0,0,1,1.777-3.846,15.292,15.292,0,0,0,3.836-3.5,11.466,11.466,0,0,0,1.977-4.833c.4-2.26.808-4.1.916-4.835,1.148-7.881.78-10.406-3.736-38.95-4.1-25.892-4.895-37.844-4.382-47.323.7-12.907,5.042-20.586,2.206-38.428-5.34-33.574-8.775-56.048-2.021-83,2.938-11.731,6.214-20.655,8.281-27.818,2.566-8.894,4.119-14.515,3.062-26.808-1-11.663-3.143-15.747-3.8-25.725-.418,16.105-2.89,29.7-3.409,39.639-.1,1.831-.12,9.192-1.851,15.7-3.678,13.818-8.245,19.633-11.557,37.225a10.428,10.428,0,0,0-.141,2.187c.04,3.867,1.016,5.467.942,11.915-.021,1.845-.161,6.1-.161,8.62a29.031,29.031,0,0,0,.381,4.82c.523,2.768-1.449,3.361-2.409,1.646a20.523,20.523,0,0,1-1.824-4.56c-.223-.925-.724-4.821-.78-5.74-.041-.674-.584-.033-.619-.061-.8.788-1.962,2.34-1.788,3.908.26,2.34.165,6.089.484,6.853a51.39,51.39,0,0,1,2.336,6.716c.183.731,1.053,1.243,1.56,2.118a4.572,4.572,0,0,1,.726,2.688c-.158,1.681-1.452,1.719-2.22.869-1.885-2.081-2.309-1.64-3.659-3.358a87.118,87.118,0,0,1-5.13-7.38,20.308,20.308,0,0,1-2.148-6.331c-.567-2.685-1.2-4.343-1.071-6.082" transform="translate(562.487 5639.041)" fill="#efa6a8"/>
    <path id="Trazado_893675" data-name="Trazado 893675" d="M924.932,2522.6H822.388c-.26,0-.474-.107-.474-.243s.214-.242.474-.242H924.932c.26,0,.474.107.474.242s-.214.243-.474.243" transform="translate(7.24 3538.131)" fill="#72688d"/>
    <path id="Trazado_893676" data-name="Trazado 893676" d="M814.874,2513.014a2.064,2.064,0,1,1-2.063-2.063,2.064,2.064,0,0,1,2.063,2.063" transform="translate(16.583 3547.469)" fill="#72688d"/>
    <path id="Trazado_893679" data-name="Trazado 893679" d="M935.145,1885.625H848.236c-.239,0-.436-.107-.436-.243s.2-.243.436-.243h86.909c.239,0,.436.107.436.243s-.2.243-.436.243" transform="translate(-19.823 4092.324)" fill="#72688d"/>
    <path id="Trazado_893680" data-name="Trazado 893680" d="M840.776,1876.054a2.064,2.064,0,1,1-2.063-2.064,2.063,2.063,0,0,1,2.063,2.064" transform="translate(-10.493 4101.655)" fill="#72688d"/>
    <path id="Trazado_893681" data-name="Trazado 893681" d="M1080.65,1540.745H994.065c-.469,0-.853-.107-.853-.243s.385-.243.853-.243h86.581c.469,0,.854.107.854.243s-.385.243-.854.243" transform="translate(-165.742 4354.952)" fill="#72688d"/>
    <path id="Trazado_893682" data-name="Trazado 893682" d="M986.174,1531.164a2.064,2.064,0,1,1-2.063-2.063,2.064,2.064,0,0,1,2.063,2.063" transform="translate(-156.642 4364.289)" fill="#72688d"/>
    <path id="Trazado_893683" data-name="Trazado 893683" d="M74.05,630.162H.192a.249.249,0,0,1,0-.485H74.05a.249.249,0,0,1,0,.485" transform="translate(684.437 5142.884)" fill="#72688d"/>
    <path id="Trazado_893684" data-name="Trazado 893684" d="M565,620.588a2.064,2.064,0,1,1-2.064-2.064A2.064,2.064,0,0,1,565,620.588" transform="translate(195.499 5152.217)" fill="#72688d"/>
    <path id="Trazado_893685" data-name="Trazado 893685" d="M1120.516,1315.245H1009.987c-.667,0-1.214-.107-1.214-.243s.547-.243,1.214-.243h110.529c.667,0,1.216.107,1.216.243s-.547.243-1.216.243" transform="translate(-205.976 4538.865)" fill="#72688d"/>
    <path id="Trazado_893686" data-name="Trazado 893686" d="M1001.737,1305.674a2.064,2.064,0,1,1-2.063-2.064,2.064,2.064,0,0,1,2.063,2.064" transform="translate(-196.638 4548.196)" fill="#72688d"/>
    <path id="Trazado_893689" data-name="Trazado 893689" d="M1054.558,954.634H958.645c-.42,0-.765-.107-.765-.243s.345-.243.765-.243h95.912c.42,0,.766.107.766.243s-.346.243-.766.243" transform="translate(-155.083 4849.502)" fill="#72688d"/>
    <path id="Trazado_893690" data-name="Trazado 893690" d="M950.854,945.054a2.064,2.064,0,1,1-2.063-2.063,2.064,2.064,0,0,1,2.063,2.063" transform="translate(-145.752 4858.84)" fill="#72688d"/>
    <path id="Trazado_893693" data-name="Trazado 893693" d="M1048.485,510.137H934.052c-.443,0-.807-.107-.807-.243s.364-.243.807-.243h114.433c.443,0,.807.107.807.243s-.364.243-.807.243" transform="translate(-130.739 5226.92)" fill="#72688d"/>
    <path id="Trazado_893694" data-name="Trazado 893694" d="M926.212,500.564a2.064,2.064,0,1,1-2.064-2.064,2.064,2.064,0,0,1,2.064,2.064" transform="translate(-121.401 5236.252)" fill="#72688d"/>
    <path id="Trazado_893695" data-name="Trazado 893695" d="M812.673,372.4H700.351c-.2,0-.376-.107-.376-.243s.169-.243.376-.243H812.673c.2,0,.376.107.376.243s-.169.243-.376.243" transform="translate(102.708 5331.241)" fill="#72688d"/>
    <path id="Trazado_893696" data-name="Trazado 893696" d="M692.933,362.823a2.064,2.064,0,1,1-2.063-2.063,2.064,2.064,0,0,1,2.063,2.063" transform="translate(112.053 5340.578)" fill="#72688d"/>
    <path id="Trazado_893697" data-name="Trazado 893697" d="M41.691,1400.325H.705c-.387,0-.705-.107-.705-.243s.318-.243.705-.243H41.691c.387,0,.705.107.705.243s-.318.243-.705.243" transform="translate(708.539 4429.918)" fill="#72688d"/>
    <path id="Trazado_893706" data-name="Trazado 893706" d="M55.68,1400.325H.942c-.517,0-.942-.107-.942-.243s.425-.243.942-.243H55.677c.517,0,.942.107.942.243s-.425.243-.942.243" transform="translate(685.343 4473.651)" fill="#72688d"/>
    <path id="Trazado_893698" data-name="Trazado 893698" d="M79.36,1390.754a2.064,2.064,0,1,1-2.063-2.064,2.064,2.064,0,0,1,2.063,2.064" transform="translate(673.394 4439.252)" fill="#72688d"/>
    <path id="Trazado_893705" data-name="Trazado 893705" d="M79.36,1390.754a2.064,2.064,0,1,1-2.063-2.064,2.064,2.064,0,0,1,2.063,2.064" transform="translate(664.422 4482.985)" fill="#72688d"/>
    <path id="Trazado_893699" data-name="Trazado 893699" d="M693.672,222.439H572.354a.251.251,0,1,1,0-.485H693.672a.251.251,0,1,1,0,.485" transform="translate(229.864 5453.313)" fill="#72688d"/>
    <path id="Trazado_893704" data-name="Trazado 893704" d="M680.44,222.442H572.316a.245.245,0,1,1,0-.485H680.44a.245.245,0,1,1,0,.485" transform="translate(229.865 5420.511)" fill="#72688d"/>
    <path id="Trazado_893700" data-name="Trazado 893700" d="M565,212.86a2.064,2.064,0,1,1-2.064-2.064A2.064,2.064,0,0,1,565,212.86" transform="translate(239.207 5462.65)" fill="#72688d"/>
    <path id="Trazado_893703" data-name="Trazado 893703" d="M565,212.86a2.064,2.064,0,1,1-2.064-2.064A2.064,2.064,0,0,1,565,212.86" transform="translate(239.207 5429.85)" fill="#72688d"/>
    <path id="Trazado_1269881" data-name="Trazado 1269881" d="M9.945-3.789A4.025,4.025,0,0,1,8.59-.9,4.76,4.76,0,0,1,5.367.156,4.28,4.28,0,0,1,1.926-1.316,6.038,6.038,0,0,1,.672-5.359v-.7A6.819,6.819,0,0,1,1.25-8.945,4.332,4.332,0,0,1,2.9-10.863a4.629,4.629,0,0,1,2.5-.668A4.637,4.637,0,0,1,8.57-10.477,4.326,4.326,0,0,1,9.961-7.516H7.617A2.376,2.376,0,0,0,7-9.113a2.271,2.271,0,0,0-1.605-.5,1.991,1.991,0,0,0-1.754.84,4.707,4.707,0,0,0-.6,2.605V-5.3a5.038,5.038,0,0,0,.559,2.7,1.954,1.954,0,0,0,1.762.852,2.314,2.314,0,0,0,1.621-.5A2.241,2.241,0,0,0,7.6-3.789ZM16.234,0a2.507,2.507,0,0,1-.227-.758,2.732,2.732,0,0,1-2.133.914,3,3,0,0,1-2.059-.719A2.312,2.312,0,0,1,11-2.375a2.389,2.389,0,0,1,1-2.062,4.915,4.915,0,0,1,2.879-.727h1.039v-.484a1.393,1.393,0,0,0-.3-.937,1.183,1.183,0,0,0-.949-.352,1.345,1.345,0,0,0-.895.273.929.929,0,0,0-.324.75H11.188a2.268,2.268,0,0,1,.453-1.359,3,3,0,0,1,1.281-.98,4.669,4.669,0,0,1,1.859-.355,3.689,3.689,0,0,1,2.48.785,2.747,2.747,0,0,1,.918,2.207v3.664a4.041,4.041,0,0,0,.336,1.82V0ZM14.367-1.57a1.945,1.945,0,0,0,.922-.223,1.462,1.462,0,0,0,.625-.6V-3.844H15.07q-1.7,0-1.8,1.172l-.008.133a.9.9,0,0,0,.3.7A1.153,1.153,0,0,0,14.367-1.57ZM27.531-4.148A5.119,5.119,0,0,1,26.664-.98,2.872,2.872,0,0,1,24.242.156,2.639,2.639,0,0,1,22.047-.9l-.1.9H19.914V-12h2.258v4.3a2.571,2.571,0,0,1,2.055-.914,2.9,2.9,0,0,1,2.426,1.137,5.126,5.126,0,0,1,.879,3.2Zm-2.258-.164a3.363,3.363,0,0,0-.406-1.871,1.374,1.374,0,0,0-1.211-.59,1.489,1.489,0,0,0-1.484.883v3.336a1.509,1.509,0,0,0,1.5.891,1.394,1.394,0,0,0,1.438-1.078A5.562,5.562,0,0,0,25.273-4.312ZM32.813.156A4.15,4.15,0,0,1,29.785-.984a4.054,4.054,0,0,1-1.168-3.039v-.219a5.106,5.106,0,0,1,.492-2.277A3.612,3.612,0,0,1,30.5-8.066a3.914,3.914,0,0,1,2.059-.543,3.508,3.508,0,0,1,2.73,1.094,4.444,4.444,0,0,1,1,3.1v.922H30.906a2.1,2.1,0,0,0,.66,1.328,2,2,0,0,0,1.395.5A2.437,2.437,0,0,0,35-2.609l1.109,1.242A3.389,3.389,0,0,1,34.734-.246,4.511,4.511,0,0,1,32.813.156Zm-.258-6.945a1.411,1.411,0,0,0-1.09.455,2.357,2.357,0,0,0-.535,1.3H34.07v-.181a1.681,1.681,0,0,0-.406-1.165A1.456,1.456,0,0,0,32.555-6.789ZM40.164-1.82H44.3V0H37.281V-1.375l3.977-5.258H37.4v-1.82h6.773v1.33ZM50.609,0a2.507,2.507,0,0,1-.227-.758A2.732,2.732,0,0,1,48.25.156a3,3,0,0,1-2.059-.719,2.312,2.312,0,0,1-.816-1.812,2.389,2.389,0,0,1,1-2.062,4.915,4.915,0,0,1,2.879-.727h1.039v-.484a1.393,1.393,0,0,0-.3-.937,1.183,1.183,0,0,0-.949-.352,1.345,1.345,0,0,0-.895.273.929.929,0,0,0-.324.75H45.563a2.268,2.268,0,0,1,.453-1.359,3,3,0,0,1,1.281-.98,4.669,4.669,0,0,1,1.859-.355,3.689,3.689,0,0,1,2.48.785,2.747,2.747,0,0,1,.918,2.207v3.664a4.041,4.041,0,0,0,.336,1.82V0ZM48.742-1.57a1.945,1.945,0,0,0,.922-.223,1.462,1.462,0,0,0,.625-.6V-3.844h-.844q-1.7,0-1.8,1.172l-.008.133a.9.9,0,0,0,.3.7A1.153,1.153,0,0,0,48.742-1.57Z" transform="translate(716.289 5683.432)" fill="#12263f"/>
    <path id="Trazado_1269882" data-name="Trazado 1269882" d="M-28.105-11.375l2.922,8.25,2.906-8.25H-19.2V0h-2.352V-3.109l.234-5.367L-24.387,0H-26l-3.062-8.469.234,5.359V0h-2.344V-11.375ZM-14.918,0h-2.266V-8.453h2.266Zm-2.4-10.641a1.112,1.112,0,0,1,.34-.836,1.277,1.277,0,0,1,.926-.328,1.28,1.28,0,0,1,.922.328,1.105,1.105,0,0,1,.344.836,1.108,1.108,0,0,1-.348.844,1.283,1.283,0,0,1-.918.328,1.283,1.283,0,0,1-.918-.328A1.108,1.108,0,0,1-17.316-10.641ZM-9.168.156A4.15,4.15,0,0,1-12.2-.984a4.054,4.054,0,0,1-1.168-3.039v-.219a5.106,5.106,0,0,1,.492-2.277,3.612,3.612,0,0,1,1.395-1.547,3.914,3.914,0,0,1,2.059-.543,3.508,3.508,0,0,1,2.73,1.094,4.444,4.444,0,0,1,1,3.1v.922h-5.383a2.1,2.1,0,0,0,.66,1.328,2,2,0,0,0,1.395.5A2.437,2.437,0,0,0-6.98-2.609l1.109,1.242A3.389,3.389,0,0,1-7.246-.246,4.511,4.511,0,0,1-9.168.156Zm-.258-6.945a1.411,1.411,0,0,0-1.09.455,2.357,2.357,0,0,0-.535,1.3H-7.91v-.181a1.681,1.681,0,0,0-.406-1.165A1.456,1.456,0,0,0-9.426-6.789Zm7.133-1.664.07.945a2.971,2.971,0,0,1,2.43-1.1A2.255,2.255,0,0,1,2.449-7.32,2.9,2.9,0,0,1,4.988-8.609a2.521,2.521,0,0,1,2.047.8A3.681,3.681,0,0,1,7.707-5.4V0H5.441V-5.391A1.61,1.61,0,0,0,5.16-6.441a1.246,1.246,0,0,0-.992-.332A1.409,1.409,0,0,0,2.762-5.8L2.77,0H.512V-5.383A1.59,1.59,0,0,0,.223-6.445a1.259,1.259,0,0,0-.984-.328,1.463,1.463,0,0,0-1.391.8V0H-4.41V-8.453Zm19.352,4.3A5.119,5.119,0,0,1,16.191-.98,2.872,2.872,0,0,1,13.77.156,2.639,2.639,0,0,1,11.574-.9l-.1.9H9.441V-12H11.7v4.3a2.571,2.571,0,0,1,2.055-.914A2.9,2.9,0,0,1,16.18-7.473a5.126,5.126,0,0,1,.879,3.2ZM14.8-4.312a3.363,3.363,0,0,0-.406-1.871,1.374,1.374,0,0,0-1.211-.59,1.489,1.489,0,0,0-1.484.883v3.336a1.509,1.509,0,0,0,1.5.891,1.394,1.394,0,0,0,1.438-1.078A5.562,5.562,0,0,0,14.8-4.312Zm8.4-2.023a6.134,6.134,0,0,0-.812-.062,1.654,1.654,0,0,0-1.68.867V0H18.449V-8.453h2.133l.063,1.008a2.092,2.092,0,0,1,1.883-1.164,2.366,2.366,0,0,1,.7.1ZM23.652-4.3a5.013,5.013,0,0,1,.484-2.242A3.546,3.546,0,0,1,25.531-8.07a4.069,4.069,0,0,1,2.113-.539,3.849,3.849,0,0,1,2.793,1.047,4.2,4.2,0,0,1,1.207,2.844l.016.578A4.418,4.418,0,0,1,30.574-1.02,3.775,3.775,0,0,1,27.66.156a3.793,3.793,0,0,1-2.918-1.172A4.5,4.5,0,0,1,23.652-4.2Zm2.258.16A3.16,3.16,0,0,0,26.363-2.3a1.5,1.5,0,0,0,1.3.638,1.5,1.5,0,0,0,1.281-.63A3.457,3.457,0,0,0,29.4-4.309a3.128,3.128,0,0,0-.461-1.831,1.5,1.5,0,0,0-1.3-.649,1.474,1.474,0,0,0-1.281.646A3.516,3.516,0,0,0,25.91-4.144ZM-24.453,15.664a.727.727,0,0,0-.41-.652,4.659,4.659,0,0,0-1.316-.426q-3.016-.633-3.016-2.562a2.323,2.323,0,0,1,.934-1.879,3.766,3.766,0,0,1,2.441-.754,4.053,4.053,0,0,1,2.574.758,2.388,2.388,0,0,1,.965,1.969h-2.258a1.092,1.092,0,0,0-.312-.8A1.322,1.322,0,0,0-25.828,11a1.351,1.351,0,0,0-.883.258.814.814,0,0,0-.312.656.7.7,0,0,0,.355.605,3.657,3.657,0,0,0,1.2.4,9.8,9.8,0,0,1,1.422.379,2.336,2.336,0,0,1,1.789,2.273,2.2,2.2,0,0,1-.992,1.871,4.28,4.28,0,0,1-2.562.715,4.47,4.47,0,0,1-1.887-.379,3.166,3.166,0,0,1-1.293-1.039,2.414,2.414,0,0,1-.469-1.426h2.141a1.179,1.179,0,0,0,.445.922,1.766,1.766,0,0,0,1.109.32,1.635,1.635,0,0,0,.98-.246A.766.766,0,0,0-24.453,15.664Zm8.711,1.477a2.831,2.831,0,0,1-2.312,1.016,2.67,2.67,0,0,1-2.074-.781,3.335,3.335,0,0,1-.73-2.289V9.547H-18.6v5.467q0,1.322,1.2,1.322a1.63,1.63,0,0,0,1.578-.8V9.547h2.266V18H-15.68Zm11.5-3.289a5.07,5.07,0,0,1-.887,3.129,2.843,2.843,0,0,1-2.395,1.176,2.633,2.633,0,0,1-2.07-.891V21.25h-2.258V9.547h2.094l.078.828a2.654,2.654,0,0,1,2.141-.984,2.862,2.862,0,0,1,2.43,1.156,5.207,5.207,0,0,1,.867,3.188ZM-6.5,13.688a3.327,3.327,0,0,0-.418-1.82,1.361,1.361,0,0,0-1.215-.641,1.479,1.479,0,0,0-1.461.813V15.5a1.5,1.5,0,0,0,1.477.836Q-6.5,16.336-6.5,13.688Zm7.547,4.469A4.15,4.15,0,0,1-1.98,17.016a4.054,4.054,0,0,1-1.168-3.039v-.219a5.106,5.106,0,0,1,.492-2.277A3.612,3.612,0,0,1-1.262,9.934,3.914,3.914,0,0,1,.8,9.391a3.508,3.508,0,0,1,2.73,1.094,4.444,4.444,0,0,1,1,3.1v.922H-.859A2.1,2.1,0,0,0-.2,15.836a2,2,0,0,0,1.395.5,2.437,2.437,0,0,0,2.039-.945l1.109,1.242a3.389,3.389,0,0,1-1.375,1.121A4.511,4.511,0,0,1,1.047,18.156ZM.789,11.211a1.411,1.411,0,0,0-1.09.455,2.357,2.357,0,0,0-.535,1.3H2.3v-.181A1.681,1.681,0,0,0,1.9,11.623,1.456,1.456,0,0,0,.789,11.211Zm9.766.453a6.134,6.134,0,0,0-.812-.062,1.654,1.654,0,0,0-1.68.867V18H5.8V9.547H7.938L8,10.555A2.092,2.092,0,0,1,9.883,9.391a2.366,2.366,0,0,1,.7.1ZM14.023,18H11.758V9.547h2.266Zm-2.4-10.641a1.112,1.112,0,0,1,.34-.836,1.277,1.277,0,0,1,.926-.328,1.28,1.28,0,0,1,.922.328,1.193,1.193,0,0,1,0,1.68,1.448,1.448,0,0,1-1.836,0A1.108,1.108,0,0,1,11.625,7.359ZM15.531,13.7a5.013,5.013,0,0,1,.484-2.242A3.546,3.546,0,0,1,17.41,9.93a4.069,4.069,0,0,1,2.113-.539,3.849,3.849,0,0,1,2.793,1.047,4.2,4.2,0,0,1,1.207,2.844l.016.578a4.418,4.418,0,0,1-1.086,3.121,3.775,3.775,0,0,1-2.914,1.176,3.793,3.793,0,0,1-2.918-1.172,4.5,4.5,0,0,1-1.09-3.187Zm2.258.16a3.16,3.16,0,0,0,.453,1.843,1.628,1.628,0,0,0,2.578.008,3.457,3.457,0,0,0,.461-2.015,3.128,3.128,0,0,0-.461-1.831,1.5,1.5,0,0,0-1.3-.649,1.474,1.474,0,0,0-1.281.646A3.516,3.516,0,0,0,17.789,13.856ZM29.68,11.664a6.134,6.134,0,0,0-.812-.062,1.654,1.654,0,0,0-1.68.867V18H24.93V9.547h2.133l.063,1.008a2.092,2.092,0,0,1,1.883-1.164,2.366,2.366,0,0,1,.7.1Z" transform="translate(705.375 5730.379)" fill="#12263f"/>
    <path id="Trazado_1269883" data-name="Trazado 1269883" d="M-33.008-4.93h-4.5v3.047h5.281V0h-7.625V-11.375h7.609v1.9h-5.266v2.711h4.5Zm5.227-1,1.422-2.523h2.414l-2.406,4.141L-23.844,0h-2.422l-1.508-2.656L-29.273,0H-31.7L-29.2-4.312l-2.4-4.141h2.422Zm7.625-4.6v2.078h1.445V-6.8h-1.445v4.219a1.007,1.007,0,0,0,.18.672.9.9,0,0,0,.688.2,3.6,3.6,0,0,0,.664-.055V-.047a4.648,4.648,0,0,1-1.367.2,2.156,2.156,0,0,1-2.422-2.4V-6.8h-1.234V-8.453h1.234v-2.078Zm7.453,4.2a6.134,6.134,0,0,0-.812-.062,1.654,1.654,0,0,0-1.68.867V0h-2.258V-8.453h2.133l.063,1.008a2.092,2.092,0,0,1,1.883-1.164,2.366,2.366,0,0,1,.7.1ZM-7.727.156A4.15,4.15,0,0,1-10.754-.984a4.054,4.054,0,0,1-1.168-3.039v-.219A5.106,5.106,0,0,1-11.43-6.52a3.612,3.612,0,0,1,1.395-1.547,3.914,3.914,0,0,1,2.059-.543,3.508,3.508,0,0,1,2.73,1.094,4.444,4.444,0,0,1,1,3.1v.922H-9.633a2.1,2.1,0,0,0,.66,1.328,2,2,0,0,0,1.395.5,2.437,2.437,0,0,0,2.039-.945L-4.43-1.367A3.389,3.389,0,0,1-5.8-.246,4.511,4.511,0,0,1-7.727.156Zm-.258-6.945a1.411,1.411,0,0,0-1.09.455,2.357,2.357,0,0,0-.535,1.3h3.141v-.181a1.681,1.681,0,0,0-.406-1.165A1.456,1.456,0,0,0-7.984-6.789ZM-.852-8.453l.07.945a2.971,2.971,0,0,1,2.43-1.1A2.255,2.255,0,0,1,3.891-7.32,2.9,2.9,0,0,1,6.43-8.609a2.521,2.521,0,0,1,2.047.8A3.681,3.681,0,0,1,9.148-5.4V0H6.883V-5.391A1.61,1.61,0,0,0,6.6-6.441a1.246,1.246,0,0,0-.992-.332A1.409,1.409,0,0,0,4.2-5.8L4.211,0H1.953V-5.383a1.59,1.59,0,0,0-.289-1.062A1.259,1.259,0,0,0,.68-6.773a1.463,1.463,0,0,0-1.391.8V0H-2.969V-8.453ZM13.266,0H11V-8.453h2.266Zm-2.4-10.641a1.112,1.112,0,0,1,.34-.836,1.277,1.277,0,0,1,.926-.328,1.28,1.28,0,0,1,.922.328,1.105,1.105,0,0,1,.344.836,1.108,1.108,0,0,1-.348.844,1.283,1.283,0,0,1-.918.328,1.283,1.283,0,0,1-.918-.328A1.108,1.108,0,0,1,10.867-10.641Zm3.906,6.352a5.094,5.094,0,0,1,.887-3.148,2.877,2.877,0,0,1,2.426-1.172,2.589,2.589,0,0,1,2.039.922V-12h2.266V0H20.352l-.109-.9A2.657,2.657,0,0,1,18.07.156,2.869,2.869,0,0,1,15.676-1.02,5.258,5.258,0,0,1,14.773-4.289Zm2.258.168A3.337,3.337,0,0,0,17.445-2.3a1.349,1.349,0,0,0,1.2.634,1.511,1.511,0,0,0,1.477-.884V-5.889a1.489,1.489,0,0,0-1.461-.884Q17.031-6.773,17.031-4.121ZM29.039,0a2.507,2.507,0,0,1-.227-.758A2.732,2.732,0,0,1,26.68.156a3,3,0,0,1-2.059-.719A2.312,2.312,0,0,1,23.8-2.375a2.389,2.389,0,0,1,1-2.062,4.915,4.915,0,0,1,2.879-.727h1.039v-.484a1.393,1.393,0,0,0-.3-.937,1.183,1.183,0,0,0-.949-.352,1.345,1.345,0,0,0-.895.273.929.929,0,0,0-.324.75H23.992a2.268,2.268,0,0,1,.453-1.359,3,3,0,0,1,1.281-.98,4.669,4.669,0,0,1,1.859-.355,3.689,3.689,0,0,1,2.48.785,2.747,2.747,0,0,1,.918,2.207v3.664a4.041,4.041,0,0,0,.336,1.82V0ZM27.172-1.57a1.945,1.945,0,0,0,.922-.223,1.462,1.462,0,0,0,.625-.6V-3.844h-.844q-1.7,0-1.8,1.172l-.008.133a.9.9,0,0,0,.3.7A1.153,1.153,0,0,0,27.172-1.57Zm5.2-2.719a5.094,5.094,0,0,1,.887-3.148A2.877,2.877,0,0,1,35.68-8.609a2.589,2.589,0,0,1,2.039.922V-12h2.266V0H37.945l-.109-.9A2.657,2.657,0,0,1,35.664.156,2.869,2.869,0,0,1,33.27-1.02,5.258,5.258,0,0,1,32.367-4.289Zm2.258.168A3.337,3.337,0,0,0,35.039-2.3a1.349,1.349,0,0,0,1.2.634,1.511,1.511,0,0,0,1.477-.884V-5.889a1.489,1.489,0,0,0-1.461-.884Q34.625-6.773,34.625-4.121ZM-38.1,13.7a5.013,5.013,0,0,1,.484-2.242A3.546,3.546,0,0,1-36.223,9.93a4.069,4.069,0,0,1,2.113-.539,3.849,3.849,0,0,1,2.793,1.047,4.2,4.2,0,0,1,1.207,2.844l.016.578A4.418,4.418,0,0,1-31.18,16.98a3.775,3.775,0,0,1-2.914,1.176,3.793,3.793,0,0,1-2.918-1.172A4.5,4.5,0,0,1-38.1,13.8Zm2.258.16a3.16,3.16,0,0,0,.453,1.843,1.5,1.5,0,0,0,1.3.638,1.5,1.5,0,0,0,1.281-.63,3.457,3.457,0,0,0,.461-2.015,3.128,3.128,0,0,0-.461-1.831,1.5,1.5,0,0,0-1.3-.649,1.474,1.474,0,0,0-1.281.646A3.516,3.516,0,0,0-35.844,13.856ZM-22.6,9.547l.07.945a2.971,2.971,0,0,1,2.43-1.1,2.255,2.255,0,0,1,2.242,1.289A2.9,2.9,0,0,1-15.32,9.391a2.521,2.521,0,0,1,2.047.8A3.681,3.681,0,0,1-12.6,12.6V18h-2.266V12.609a1.61,1.61,0,0,0-.281-1.051,1.246,1.246,0,0,0-.992-.332,1.409,1.409,0,0,0-1.406.969l.008,5.8H-19.8V12.617a1.59,1.59,0,0,0-.289-1.062,1.259,1.259,0,0,0-.984-.328,1.463,1.463,0,0,0-1.391.8V18h-2.258V9.547ZM-8.484,18H-10.75V9.547h2.266Zm-2.4-10.641a1.112,1.112,0,0,1,.34-.836A1.277,1.277,0,0,1-9.617,6.2a1.28,1.28,0,0,1,.922.328,1.105,1.105,0,0,1,.344.836A1.108,1.108,0,0,1-8.7,8.2a1.283,1.283,0,0,1-.918.328,1.283,1.283,0,0,1-.918-.328A1.108,1.108,0,0,1-10.883,7.359Zm8.148,10.8a4.15,4.15,0,0,1-3.027-1.141A4.054,4.054,0,0,1-6.93,13.977v-.219a5.106,5.106,0,0,1,.492-2.277A3.612,3.612,0,0,1-5.043,9.934a3.914,3.914,0,0,1,2.059-.543,3.508,3.508,0,0,1,2.73,1.094,4.444,4.444,0,0,1,1,3.1v.922H-4.641a2.1,2.1,0,0,0,.66,1.328,2,2,0,0,0,1.395.5,2.437,2.437,0,0,0,2.039-.945L.563,16.633A3.389,3.389,0,0,1-.812,17.754,4.511,4.511,0,0,1-2.734,18.156Zm-.258-6.945a1.411,1.411,0,0,0-1.09.455,2.357,2.357,0,0,0-.535,1.3h3.141v-.181a1.681,1.681,0,0,0-.406-1.165A1.456,1.456,0,0,0-2.992,11.211ZM4.141,9.547l.07.945a2.971,2.971,0,0,1,2.43-1.1A2.255,2.255,0,0,1,8.883,10.68a2.9,2.9,0,0,1,2.539-1.289,2.521,2.521,0,0,1,2.047.8,3.681,3.681,0,0,1,.672,2.41V18H11.875V12.609a1.61,1.61,0,0,0-.281-1.051,1.246,1.246,0,0,0-.992-.332A1.409,1.409,0,0,0,9.2,12.2L9.2,18H6.945V12.617a1.59,1.59,0,0,0-.289-1.062,1.259,1.259,0,0,0-.984-.328,1.463,1.463,0,0,0-1.391.8V18H2.023V9.547Zm19.352,4.3a5.119,5.119,0,0,1-.867,3.168A2.872,2.872,0,0,1,20.2,18.156a2.639,2.639,0,0,1-2.2-1.055l-.1.9H15.875V6h2.258v4.3a2.571,2.571,0,0,1,2.055-.914,2.9,2.9,0,0,1,2.426,1.137,5.126,5.126,0,0,1,.879,3.2Zm-2.258-.164a3.363,3.363,0,0,0-.406-1.871,1.374,1.374,0,0,0-1.211-.59,1.489,1.489,0,0,0-1.484.883v3.336a1.509,1.509,0,0,0,1.5.891,1.394,1.394,0,0,0,1.438-1.078A5.562,5.562,0,0,0,21.234,13.688Zm8.4-2.023a6.134,6.134,0,0,0-.812-.062,1.654,1.654,0,0,0-1.68.867V18H24.883V9.547h2.133l.063,1.008a2.092,2.092,0,0,1,1.883-1.164,2.366,2.366,0,0,1,.7.1Zm.453,2.031a5.013,5.013,0,0,1,.484-2.242A3.546,3.546,0,0,1,31.965,9.93a4.069,4.069,0,0,1,2.113-.539,3.849,3.849,0,0,1,2.793,1.047,4.2,4.2,0,0,1,1.207,2.844l.016.578a4.418,4.418,0,0,1-1.086,3.121,3.775,3.775,0,0,1-2.914,1.176,3.793,3.793,0,0,1-2.918-1.172,4.5,4.5,0,0,1-1.09-3.187Zm2.258.16A3.16,3.16,0,0,0,32.8,15.7a1.628,1.628,0,0,0,2.578.008,3.457,3.457,0,0,0,.461-2.015,3.128,3.128,0,0,0-.461-1.831,1.5,1.5,0,0,0-1.3-.649,1.474,1.474,0,0,0-1.281.646A3.516,3.516,0,0,0,32.344,13.856ZM-23.023,36h-2.266V27.547h2.266Zm-2.4-10.641a1.112,1.112,0,0,1,.34-.836,1.277,1.277,0,0,1,.926-.328,1.28,1.28,0,0,1,.922.328,1.105,1.105,0,0,1,.344.836,1.108,1.108,0,0,1-.348.844,1.283,1.283,0,0,1-.918.328,1.283,1.283,0,0,1-.918-.328A1.108,1.108,0,0,1-25.422,25.359Zm6.336,2.188.07.977a2.951,2.951,0,0,1,2.43-1.133,2.453,2.453,0,0,1,2,.789,3.682,3.682,0,0,1,.672,2.359V36h-2.258V30.594a1.465,1.465,0,0,0-.312-1.043,1.4,1.4,0,0,0-1.039-.324,1.553,1.553,0,0,0-1.43.813V36h-2.258V27.547Zm7.5,8.453V29.2h-1.258V27.547h1.258v-.719a2.918,2.918,0,0,1,.816-2.207,3.162,3.162,0,0,1,2.285-.785,5.278,5.278,0,0,1,1.148.156l-.023,1.75a2.878,2.878,0,0,0-.687-.07q-1.273,0-1.273,1.2v.68h1.68V29.2H-9.32V36Zm9.008.156a4.15,4.15,0,0,1-3.027-1.141,4.054,4.054,0,0,1-1.168-3.039v-.219a5.106,5.106,0,0,1,.492-2.277,3.612,3.612,0,0,1,1.395-1.547,3.914,3.914,0,0,1,2.059-.543A3.508,3.508,0,0,1-.1,28.484a4.444,4.444,0,0,1,1,3.1v.922H-4.484a2.1,2.1,0,0,0,.66,1.328,2,2,0,0,0,1.395.5,2.437,2.437,0,0,0,2.039-.945L.719,34.633A3.389,3.389,0,0,1-.656,35.754,4.511,4.511,0,0,1-2.578,36.156Zm-.258-6.945a1.411,1.411,0,0,0-1.09.455,2.357,2.357,0,0,0-.535,1.3H-1.32v-.181a1.681,1.681,0,0,0-.406-1.165A1.456,1.456,0,0,0-2.836,29.211Zm9.766.453a6.134,6.134,0,0,0-.812-.062,1.654,1.654,0,0,0-1.68.867V36H2.18V27.547H4.313l.063,1.008a2.092,2.092,0,0,1,1.883-1.164,2.366,2.366,0,0,1,.7.1ZM10.4,36H8.133V27.547H10.4ZM8,25.359a1.112,1.112,0,0,1,.34-.836,1.277,1.277,0,0,1,.926-.328,1.28,1.28,0,0,1,.922.328,1.193,1.193,0,0,1,0,1.68,1.283,1.283,0,0,1-.918.328,1.283,1.283,0,0,1-.918-.328A1.108,1.108,0,0,1,8,25.359ZM11.906,31.7a5.013,5.013,0,0,1,.484-2.242,3.546,3.546,0,0,1,1.395-1.523,4.069,4.069,0,0,1,2.113-.539,3.849,3.849,0,0,1,2.793,1.047A4.2,4.2,0,0,1,19.9,31.281l.016.578a4.418,4.418,0,0,1-1.086,3.121,3.775,3.775,0,0,1-2.914,1.176A3.793,3.793,0,0,1,13,34.984a4.5,4.5,0,0,1-1.09-3.187Zm2.258.16a3.16,3.16,0,0,0,.453,1.843,1.628,1.628,0,0,0,2.578.008,3.457,3.457,0,0,0,.461-2.015A3.128,3.128,0,0,0,17.2,29.86a1.5,1.5,0,0,0-1.3-.649,1.474,1.474,0,0,0-1.281.646A3.516,3.516,0,0,0,14.164,31.856Zm11.891-2.192a6.134,6.134,0,0,0-.812-.062,1.654,1.654,0,0,0-1.68.867V36H21.3V27.547h2.133l.063,1.008a2.092,2.092,0,0,1,1.883-1.164,2.366,2.366,0,0,1,.7.1Z" transform="translate(705.024 5950.454)" fill="#12263f"/>
    <path id="Trazado_1269884" data-name="Trazado 1269884" d="M-40.766-9.477H-44.25V0h-2.344V-9.477h-3.437v-1.9h9.266Zm5.43,3.141a6.134,6.134,0,0,0-.812-.062,1.654,1.654,0,0,0-1.68.867V0h-2.258V-8.453h2.133l.063,1.008a2.092,2.092,0,0,1,1.883-1.164,2.366,2.366,0,0,1,.7.1Zm.453,2.031A5.013,5.013,0,0,1-34.4-6.547,3.546,3.546,0,0,1-33-8.07a4.069,4.069,0,0,1,2.113-.539A3.849,3.849,0,0,1-28.1-7.562a4.2,4.2,0,0,1,1.207,2.844l.016.578A4.418,4.418,0,0,1-27.961-1.02,3.775,3.775,0,0,1-30.875.156a3.793,3.793,0,0,1-2.918-1.172A4.5,4.5,0,0,1-34.883-4.2Zm2.258.16A3.16,3.16,0,0,0-32.172-2.3a1.5,1.5,0,0,0,1.3.638,1.5,1.5,0,0,0,1.281-.63,3.457,3.457,0,0,0,.461-2.015,3.128,3.128,0,0,0-.461-1.831,1.5,1.5,0,0,0-1.3-.649,1.474,1.474,0,0,0-1.281.646A3.516,3.516,0,0,0-32.625-4.144Zm9.219-4.309.07.977a2.951,2.951,0,0,1,2.43-1.133,2.453,2.453,0,0,1,2,.789,3.682,3.682,0,0,1,.672,2.359V0h-2.258V-5.406A1.465,1.465,0,0,0-20.8-6.449a1.4,1.4,0,0,0-1.039-.324,1.553,1.553,0,0,0-1.43.813V0h-2.258V-8.453Zm10.4,6.789a1.481,1.481,0,0,0,1.016-.344,1.2,1.2,0,0,0,.406-.914h2.117a2.9,2.9,0,0,1-.469,1.574A3.093,3.093,0,0,1-11.2-.238a3.949,3.949,0,0,1-1.77.395A3.67,3.67,0,0,1-15.828-1,4.56,4.56,0,0,1-16.875-4.18v-.148a4.508,4.508,0,0,1,1.039-3.117,3.627,3.627,0,0,1,2.852-1.164,3.555,3.555,0,0,1,2.543.9,3.2,3.2,0,0,1,.973,2.4h-2.117a1.551,1.551,0,0,0-.406-1.072,1.354,1.354,0,0,0-1.031-.412,1.36,1.36,0,0,0-1.191.575,3.333,3.333,0,0,0-.4,1.866v.235a3.375,3.375,0,0,0,.4,1.878A1.377,1.377,0,0,0-13.008-1.664ZM-8.531-4.3a5.013,5.013,0,0,1,.484-2.242A3.546,3.546,0,0,1-6.652-8.07a4.069,4.069,0,0,1,2.113-.539A3.849,3.849,0,0,1-1.746-7.562,4.2,4.2,0,0,1-.539-4.719l.016.578A4.418,4.418,0,0,1-1.609-1.02,3.775,3.775,0,0,1-4.523.156,3.793,3.793,0,0,1-7.441-1.016,4.5,4.5,0,0,1-8.531-4.2Zm2.258.16A3.16,3.16,0,0,0-5.82-2.3a1.5,1.5,0,0,0,1.3.638,1.5,1.5,0,0,0,1.281-.63,3.457,3.457,0,0,0,.461-2.015A3.128,3.128,0,0,0-3.242-6.14a1.5,1.5,0,0,0-1.3-.649,1.474,1.474,0,0,0-1.281.646A3.516,3.516,0,0,0-6.273-4.144Z" transform="translate(966.717 5779.484)" fill="#12263f"/>
    <path id="Trazado_1269885" data-name="Trazado 1269885" d="M-41.273-3.609A4.185,4.185,0,0,1-42.605-.824a4.365,4.365,0,0,1-2.98.98,4.008,4.008,0,0,1-3.23-1.445,5.815,5.815,0,0,1-1.215-3.867V-6.25a6.481,6.481,0,0,1,.566-2.789,4.231,4.231,0,0,1,1.605-1.848,4.47,4.47,0,0,1,2.406-.645,4.11,4.11,0,0,1,2.906,1.012,4.235,4.235,0,0,1,1.273,2.8h-1.508a3.268,3.268,0,0,0-.848-1.975,2.565,2.565,0,0,0-1.824-.611,2.684,2.684,0,0,0-2.254,1.063,4.882,4.882,0,0,0-.816,3.026v1.1a5.018,5.018,0,0,0,.773,2.948A2.5,2.5,0,0,0-45.586-1.07a2.887,2.887,0,0,0,1.918-.566,3.143,3.143,0,0,0,.887-1.973Zm5.906-3.547a4.331,4.331,0,0,0-.711-.055A1.9,1.9,0,0,0-38.008-6V0h-1.445V-8.453h1.406l.023.977a2.251,2.251,0,0,1,2.016-1.133,1.477,1.477,0,0,1,.641.109ZM-28.82,0a3.036,3.036,0,0,1-.2-.891A3.225,3.225,0,0,1-31.43.156,2.984,2.984,0,0,1-33.48-.551a2.287,2.287,0,0,1-.8-1.793,2.39,2.39,0,0,1,1-2.051,4.733,4.733,0,0,1,2.824-.73h1.406v-.664A1.623,1.623,0,0,0-29.5-7a1.821,1.821,0,0,0-1.336-.449,2.108,2.108,0,0,0-1.3.391,1.151,1.151,0,0,0-.523.945h-1.453a2,2,0,0,1,.449-1.223,3.066,3.066,0,0,1,1.219-.934,4.1,4.1,0,0,1,1.691-.344,3.342,3.342,0,0,1,2.289.73A2.635,2.635,0,0,1-27.6-5.867v3.891a4.757,4.757,0,0,0,.3,1.852V0Zm-2.4-1.1a2.54,2.54,0,0,0,1.289-.352,2.127,2.127,0,0,0,.883-.914V-4.1H-30.18q-2.656,0-2.656,1.555a1.316,1.316,0,0,0,.453,1.063A1.742,1.742,0,0,0-31.219-1.1ZM-29.883-12h1.75l-2.094,2.3-1.164,0Zm5.914,3.547.047,1.063a3.08,3.08,0,0,1,2.531-1.219q2.68,0,2.7,3.023V0h-1.445V-5.594a1.946,1.946,0,0,0-.418-1.352,1.675,1.675,0,0,0-1.277-.437,2.086,2.086,0,0,0-1.234.375,2.546,2.546,0,0,0-.828.984V0h-1.445V-8.453ZM-13,.156A3.693,3.693,0,0,1-15.8-.973a4.19,4.19,0,0,1-1.078-3.02v-.266a5.073,5.073,0,0,1,.48-2.246,3.748,3.748,0,0,1,1.344-1.547,3.378,3.378,0,0,1,1.871-.559,3.166,3.166,0,0,1,2.563,1.086A4.7,4.7,0,0,1-9.7-4.414v.6H-15.43a3,3,0,0,0,.73,2.02,2.3,2.3,0,0,0,1.777.77,2.517,2.517,0,0,0,1.3-.312,3.259,3.259,0,0,0,.93-.828l.883.688A3.55,3.55,0,0,1-13,.156Zm-.18-7.578a1.928,1.928,0,0,0-1.469.637A3.1,3.1,0,0,0-15.383-5h4.234v-.109a2.753,2.753,0,0,0-.594-1.707A1.815,1.815,0,0,0-13.18-7.422ZM-8.414-4.3a4.993,4.993,0,0,1,.488-2.234A3.643,3.643,0,0,1-6.566-8.07a3.7,3.7,0,0,1,1.988-.539,3.565,3.565,0,0,1,2.793,1.2A4.6,4.6,0,0,1-.719-4.234v.1a5.036,5.036,0,0,1-.473,2.215A3.589,3.589,0,0,1-2.543-.391a3.743,3.743,0,0,1-2.02.547,3.556,3.556,0,0,1-2.785-1.2A4.575,4.575,0,0,1-8.414-4.2Zm1.453.172a3.616,3.616,0,0,0,.652,2.258,2.088,2.088,0,0,0,1.746.852,2.075,2.075,0,0,0,1.75-.863A3.955,3.955,0,0,0-2.164-4.3a3.61,3.61,0,0,0-.66-2.254,2.1,2.1,0,0,0-1.754-.863A2.075,2.075,0,0,0-6.3-6.57,3.925,3.925,0,0,0-6.961-4.133Z" transform="translate(966.289 5649.773)" fill="#752092"/>
    <path id="Trazado_1269886" data-name="Trazado 1269886" d="M-23.234-3.609A4.185,4.185,0,0,1-24.566-.824a4.365,4.365,0,0,1-2.98.98,4.008,4.008,0,0,1-3.23-1.445,5.815,5.815,0,0,1-1.215-3.867V-6.25a6.481,6.481,0,0,1,.566-2.789,4.231,4.231,0,0,1,1.605-1.848,4.47,4.47,0,0,1,2.406-.645,4.11,4.11,0,0,1,2.906,1.012,4.235,4.235,0,0,1,1.273,2.8h-1.508a3.268,3.268,0,0,0-.848-1.975,2.565,2.565,0,0,0-1.824-.611,2.684,2.684,0,0,0-2.254,1.063,4.882,4.882,0,0,0-.816,3.026v1.1a5.018,5.018,0,0,0,.773,2.948A2.5,2.5,0,0,0-27.547-1.07a2.886,2.886,0,0,0,1.918-.566,3.143,3.143,0,0,0,.887-1.973ZM-16.2,0a3.036,3.036,0,0,1-.2-.891A3.225,3.225,0,0,1-18.8.156a2.984,2.984,0,0,1-2.051-.707,2.287,2.287,0,0,1-.8-1.793,2.39,2.39,0,0,1,1-2.051,4.733,4.733,0,0,1,2.824-.73h1.406v-.664A1.623,1.623,0,0,0-16.875-7a1.821,1.821,0,0,0-1.336-.449,2.108,2.108,0,0,0-1.3.391,1.151,1.151,0,0,0-.523.945h-1.453a2,2,0,0,1,.449-1.223,3.066,3.066,0,0,1,1.219-.934,4.1,4.1,0,0,1,1.691-.344,3.342,3.342,0,0,1,2.289.73,2.635,2.635,0,0,1,.859,2.012v3.891a4.757,4.757,0,0,0,.3,1.852V0Zm-2.4-1.1A2.54,2.54,0,0,0-17.3-1.453a2.127,2.127,0,0,0,.883-.914V-4.1h-1.133q-2.656,0-2.656,1.555a1.316,1.316,0,0,0,.453,1.063A1.742,1.742,0,0,0-18.594-1.1Zm9.969-6.055a4.331,4.331,0,0,0-.711-.055A1.9,1.9,0,0,0-11.266-6V0h-1.445V-8.453H-11.3l.023.977A2.251,2.251,0,0,1-9.266-8.609a1.477,1.477,0,0,1,.641.109ZM-2.391,0a3.036,3.036,0,0,1-.2-.891A3.225,3.225,0,0,1-5,.156,2.984,2.984,0,0,1-7.051-.551a2.287,2.287,0,0,1-.8-1.793,2.39,2.39,0,0,1,1-2.051,4.733,4.733,0,0,1,2.824-.73h1.406v-.664A1.623,1.623,0,0,0-3.07-7a1.821,1.821,0,0,0-1.336-.449,2.107,2.107,0,0,0-1.3.391,1.151,1.151,0,0,0-.523.945H-7.68A2,2,0,0,1-7.23-7.332a3.066,3.066,0,0,1,1.219-.934A4.1,4.1,0,0,1-4.32-8.609a3.342,3.342,0,0,1,2.289.73,2.635,2.635,0,0,1,.859,2.012v3.891a4.757,4.757,0,0,0,.3,1.852V0Zm-2.4-1.1A2.54,2.54,0,0,0-3.5-1.453a2.127,2.127,0,0,0,.883-.914V-4.1H-3.75q-2.656,0-2.656,1.555a1.316,1.316,0,0,0,.453,1.063A1.742,1.742,0,0,0-4.789-1.1Z" transform="translate(966.289 5679.773)" fill="#752092"/>
    <path id="Trazado_1269887" data-name="Trazado 1269887" d="M-34.914-3.609A4.185,4.185,0,0,1-36.246-.824a4.365,4.365,0,0,1-2.98.98,4.008,4.008,0,0,1-3.23-1.445,5.815,5.815,0,0,1-1.215-3.867V-6.25a6.481,6.481,0,0,1,.566-2.789A4.231,4.231,0,0,1-41.5-10.887a4.47,4.47,0,0,1,2.406-.645,4.11,4.11,0,0,1,2.906,1.012,4.235,4.235,0,0,1,1.273,2.8h-1.508a3.268,3.268,0,0,0-.848-1.975,2.565,2.565,0,0,0-1.824-.611,2.684,2.684,0,0,0-2.254,1.063,4.882,4.882,0,0,0-.816,3.026v1.1a5.018,5.018,0,0,0,.773,2.948A2.5,2.5,0,0,0-39.227-1.07a2.887,2.887,0,0,0,1.918-.566,3.143,3.143,0,0,0,.887-1.973Zm7.039,2.773a3.07,3.07,0,0,1-2.477.992A2.628,2.628,0,0,1-32.41-.629a3.4,3.4,0,0,1-.715-2.324v-5.5h1.445v5.461q0,1.922,1.563,1.922a2.163,2.163,0,0,0,2.2-1.234V-8.453h1.445V0h-1.375Zm7.109.992a3.693,3.693,0,0,1-2.8-1.129,4.19,4.19,0,0,1-1.078-3.02v-.266A5.073,5.073,0,0,1-24.16-6.5a3.748,3.748,0,0,1,1.344-1.547,3.378,3.378,0,0,1,1.871-.559,3.166,3.166,0,0,1,2.563,1.086,4.7,4.7,0,0,1,.914,3.109v.6H-23.2a3,3,0,0,0,.73,2.02,2.3,2.3,0,0,0,1.777.77,2.517,2.517,0,0,0,1.3-.312,3.259,3.259,0,0,0,.93-.828l.883.688A3.55,3.55,0,0,1-20.766.156Zm-.18-7.578a1.928,1.928,0,0,0-1.469.637A3.1,3.1,0,0,0-23.148-5h4.234v-.109a2.753,2.753,0,0,0-.594-1.707A1.815,1.815,0,0,0-20.945-7.422ZM-14.227,0h-1.445V-12h1.445Zm3.883,0h-1.445V-12h1.445Zm1.93-4.3a4.993,4.993,0,0,1,.488-2.234A3.643,3.643,0,0,1-6.566-8.07a3.7,3.7,0,0,1,1.988-.539,3.565,3.565,0,0,1,2.793,1.2A4.6,4.6,0,0,1-.719-4.234v.1a5.036,5.036,0,0,1-.473,2.215A3.589,3.589,0,0,1-2.543-.391a3.743,3.743,0,0,1-2.02.547,3.556,3.556,0,0,1-2.785-1.2A4.575,4.575,0,0,1-8.414-4.2Zm1.453.172a3.616,3.616,0,0,0,.652,2.258,2.088,2.088,0,0,0,1.746.852,2.075,2.075,0,0,0,1.75-.863A3.955,3.955,0,0,0-2.164-4.3a3.61,3.61,0,0,0-.66-2.254,2.1,2.1,0,0,0-1.754-.863A2.075,2.075,0,0,0-6.3-6.57,3.925,3.925,0,0,0-6.961-4.133Z" transform="translate(966.289 5707.773)" fill="#752092"/>
    <path id="Trazado_1269888" data-name="Trazado 1269888" d="M-31.227-10.148h-3.656V0h-1.492V-10.148h-3.648v-1.227h8.8ZM-30.148-4.3a4.993,4.993,0,0,1,.488-2.234A3.643,3.643,0,0,1-28.3-8.07a3.7,3.7,0,0,1,1.988-.539,3.565,3.565,0,0,1,2.793,1.2,4.6,4.6,0,0,1,1.066,3.18v.1a5.036,5.036,0,0,1-.473,2.215A3.589,3.589,0,0,1-24.277-.391,3.743,3.743,0,0,1-26.3.156a3.556,3.556,0,0,1-2.785-1.2A4.575,4.575,0,0,1-30.148-4.2Zm1.453.172a3.616,3.616,0,0,0,.652,2.258,2.088,2.088,0,0,0,1.746.852,2.075,2.075,0,0,0,1.75-.863A3.955,3.955,0,0,0-23.9-4.3a3.61,3.61,0,0,0-.66-2.254,2.1,2.1,0,0,0-1.754-.863,2.075,2.075,0,0,0-1.727.852A3.925,3.925,0,0,0-28.7-4.133ZM-25.656-12h1.75L-26-9.7l-1.164,0Zm9.1,4.844a4.331,4.331,0,0,0-.711-.055A1.9,1.9,0,0,0-19.2-6V0h-1.445V-8.453h1.406l.023.977A2.251,2.251,0,0,1-17.2-8.609a1.477,1.477,0,0,1,.641.109ZM-10.32,0a3.036,3.036,0,0,1-.2-.891A3.225,3.225,0,0,1-12.93.156,2.984,2.984,0,0,1-14.98-.551a2.287,2.287,0,0,1-.8-1.793,2.39,2.39,0,0,1,1-2.051,4.733,4.733,0,0,1,2.824-.73h1.406v-.664A1.623,1.623,0,0,0-11-7a1.821,1.821,0,0,0-1.336-.449,2.107,2.107,0,0,0-1.3.391,1.151,1.151,0,0,0-.523.945h-1.453a2,2,0,0,1,.449-1.223,3.066,3.066,0,0,1,1.219-.934,4.1,4.1,0,0,1,1.691-.344,3.342,3.342,0,0,1,2.289.73A2.635,2.635,0,0,1-9.1-5.867v3.891A4.757,4.757,0,0,0-8.8-.125V0Zm-2.4-1.1a2.54,2.54,0,0,0,1.289-.352,2.127,2.127,0,0,0,.883-.914V-4.1H-11.68q-2.656,0-2.656,1.555a1.316,1.316,0,0,0,.453,1.063A1.742,1.742,0,0,0-12.719-1.1ZM-4-5.367l1.875-3.086H-.437L-3.2-4.273-.352,0H-2.023L-3.977-3.164-5.93,0h-1.68l2.852-4.273-2.766-4.18h1.672Z" transform="translate(966.289 5740.773)" fill="#752092"/>
    <path id="Trazado_1269889" data-name="Trazado 1269889" d="M-61.289-2.977h-4.766L-67.125,0h-1.547l4.344-11.375h1.313L-58.664,0H-60.2ZM-65.6-4.2h3.867l-1.937-5.32Zm15.4.07a5.026,5.026,0,0,1-.891,3.113A2.846,2.846,0,0,1-53.484.156,2.947,2.947,0,0,1-55.961-.977l-.07.977h-1.328V-12h1.445v4.477A2.93,2.93,0,0,1-53.5-8.609a2.863,2.863,0,0,1,2.418,1.164A5.177,5.177,0,0,1-50.2-4.258ZM-51.648-4.3a3.906,3.906,0,0,0-.57-2.281,1.888,1.888,0,0,0-1.641-.8,2.122,2.122,0,0,0-2.055,1.328V-2.4a2.181,2.181,0,0,0,2.07,1.328,1.878,1.878,0,0,0,1.617-.8A4.153,4.153,0,0,0-51.648-4.3Zm2.914,0a4.952,4.952,0,0,1,.922-3.129A2.915,2.915,0,0,1-45.4-8.609a2.932,2.932,0,0,1,2.352,1.016V-12H-41.6V0H-42.93L-43-.906A2.943,2.943,0,0,1-45.414.156a2.887,2.887,0,0,1-2.395-1.2,5.008,5.008,0,0,1-.926-3.141Zm1.445.164a3.749,3.749,0,0,0,.594,2.25,1.92,1.92,0,0,0,1.641.813A2.108,2.108,0,0,0-43.047-2.3V-6.187a2.125,2.125,0,0,0-1.992-1.2,1.929,1.929,0,0,0-1.656.82A4.128,4.128,0,0,0-47.289-4.133Zm7.547-.172a4.993,4.993,0,0,1,.488-2.234A3.643,3.643,0,0,1-37.895-8.07a3.7,3.7,0,0,1,1.988-.539,3.565,3.565,0,0,1,2.793,1.2,4.6,4.6,0,0,1,1.066,3.18v.1a5.036,5.036,0,0,1-.473,2.215A3.589,3.589,0,0,1-33.871-.391a3.743,3.743,0,0,1-2.02.547,3.556,3.556,0,0,1-2.785-1.2A4.575,4.575,0,0,1-39.742-4.2Zm1.453.172a3.616,3.616,0,0,0,.652,2.258,2.088,2.088,0,0,0,1.746.852,2.075,2.075,0,0,0,1.75-.863A3.955,3.955,0,0,0-33.492-4.3a3.61,3.61,0,0,0-.66-2.254,2.1,2.1,0,0,0-1.754-.863,2.075,2.075,0,0,0-1.727.852A3.925,3.925,0,0,0-38.289-4.133Zm9.414-4.32.039.938a3.122,3.122,0,0,1,2.508-1.094A2.417,2.417,0,0,1-23.914-7.25a3.2,3.2,0,0,1,1.1-.984,3.242,3.242,0,0,1,1.6-.375q2.781,0,2.828,2.945V0h-1.445V-5.578a1.941,1.941,0,0,0-.414-1.355,1.823,1.823,0,0,0-1.391-.449,1.916,1.916,0,0,0-1.336.48,1.949,1.949,0,0,0-.617,1.293V0h-1.453V-5.539a1.613,1.613,0,0,0-1.8-1.844A1.934,1.934,0,0,0-28.8-6.172V0h-1.445V-8.453ZM-12.7.156A3.693,3.693,0,0,1-15.5-.973a4.19,4.19,0,0,1-1.078-3.02v-.266A5.073,5.073,0,0,1-16.1-6.5a3.748,3.748,0,0,1,1.344-1.547,3.378,3.378,0,0,1,1.871-.559A3.166,3.166,0,0,1-10.32-7.523a4.7,4.7,0,0,1,.914,3.109v.6h-5.727a3,3,0,0,0,.73,2.02,2.3,2.3,0,0,0,1.777.77,2.517,2.517,0,0,0,1.3-.312,3.259,3.259,0,0,0,.93-.828l.883.688A3.55,3.55,0,0,1-12.7.156Zm-.18-7.578a1.928,1.928,0,0,0-1.469.637A3.1,3.1,0,0,0-15.086-5h4.234v-.109a2.753,2.753,0,0,0-.594-1.707A1.815,1.815,0,0,0-12.883-7.422Zm6.516-1.031.047,1.063A3.08,3.08,0,0,1-3.789-8.609q2.68,0,2.7,3.023V0H-2.531V-5.594a1.946,1.946,0,0,0-.418-1.352,1.675,1.675,0,0,0-1.277-.437,2.086,2.086,0,0,0-1.234.375,2.546,2.546,0,0,0-.828.984V0H-7.734V-8.453Z" transform="translate(966.289 5807.773)" fill="#752092"/>
    <path id="Trazado_1269890" data-name="Trazado 1269890" d="M-39.516-4.453V0h-1.5V-11.375h4.2a4.215,4.215,0,0,1,2.926.953A3.231,3.231,0,0,1-32.836-7.9a3.189,3.189,0,0,1-1.035,2.551,4.4,4.4,0,0,1-2.965.895Zm0-1.227h2.7a2.7,2.7,0,0,0,1.844-.567,2.075,2.075,0,0,0,.641-1.64,2.143,2.143,0,0,0-.641-1.628,2.525,2.525,0,0,0-1.758-.634h-2.781ZM-27.641.156a3.693,3.693,0,0,1-2.8-1.129,4.19,4.19,0,0,1-1.078-3.02v-.266a5.073,5.073,0,0,1,.48-2.246,3.748,3.748,0,0,1,1.344-1.547,3.378,3.378,0,0,1,1.871-.559,3.166,3.166,0,0,1,2.563,1.086,4.7,4.7,0,0,1,.914,3.109v.6H-30.07a3,3,0,0,0,.73,2.02,2.3,2.3,0,0,0,1.777.77,2.517,2.517,0,0,0,1.3-.312,3.259,3.259,0,0,0,.93-.828l.883.688A3.55,3.55,0,0,1-27.641.156Zm-.18-7.578a1.928,1.928,0,0,0-1.469.637A3.1,3.1,0,0,0-30.023-5h4.234v-.109a2.753,2.753,0,0,0-.594-1.707A1.815,1.815,0,0,0-27.82-7.422ZM-21.1,0h-1.445V-12H-21.1ZM-16-1.961l2.094-6.492h1.477L-15.461,0h-1.1l-3.062-8.453h1.477ZM-9.469,0h-1.445V-8.453h1.445Zm-1.562-10.7a.863.863,0,0,1,.215-.594.807.807,0,0,1,.637-.242.819.819,0,0,1,.641.242.854.854,0,0,1,.219.594.826.826,0,0,1-.219.586.834.834,0,0,1-.641.234.821.821,0,0,1-.637-.234A.834.834,0,0,1-11.031-10.7Zm8.8,8.453a1.064,1.064,0,0,0-.441-.91,4.249,4.249,0,0,0-1.539-.559,7.277,7.277,0,0,1-1.742-.562,2.479,2.479,0,0,1-.953-.781,1.869,1.869,0,0,1-.309-1.078A2.193,2.193,0,0,1-6.34-7.891a3.432,3.432,0,0,1,2.246-.719,3.532,3.532,0,0,1,2.332.742,2.357,2.357,0,0,1,.895,1.9H-2.32a1.3,1.3,0,0,0-.5-1.023,1.888,1.888,0,0,0-1.27-.43,1.976,1.976,0,0,0-1.234.344,1.082,1.082,0,0,0-.445.9.877.877,0,0,0,.414.789,5.1,5.1,0,0,0,1.5.508A7.8,7.8,0,0,1-2.109-4.3a2.558,2.558,0,0,1,1,.809A1.988,1.988,0,0,1-.789-2.344,2.163,2.163,0,0,1-1.7-.527,3.8,3.8,0,0,1-4.047.156,4.257,4.257,0,0,1-5.844-.2a2.922,2.922,0,0,1-1.223-1A2.42,2.42,0,0,1-7.508-2.6h1.445A1.5,1.5,0,0,0-5.48-1.449a2.258,2.258,0,0,0,1.434.426A2.331,2.331,0,0,0-2.73-1.355,1.02,1.02,0,0,0-2.234-2.242Z" transform="translate(966.289 5859.773)" fill="#752092"/>
    <path id="Trazado_1269891" data-name="Trazado 1269891" d="M-40.789-11.375l3.719,9.281,3.719-9.281h1.945V0h-1.5V-4.43l.141-4.781L-36.5,0h-1.148l-3.727-9.187.148,4.758V0h-1.5V-11.375ZM-23.766-.836a3.07,3.07,0,0,1-2.477.992A2.628,2.628,0,0,1-28.3-.629a3.4,3.4,0,0,1-.715-2.324v-5.5h1.445v5.461q0,1.922,1.563,1.922A2.163,2.163,0,0,0-23.8-2.3V-8.453h1.445V0h-1.375Zm8.523-1.406a1.064,1.064,0,0,0-.441-.91,4.249,4.249,0,0,0-1.539-.559,7.277,7.277,0,0,1-1.742-.562,2.479,2.479,0,0,1-.953-.781,1.869,1.869,0,0,1-.309-1.078,2.193,2.193,0,0,1,.879-1.758A3.432,3.432,0,0,1-17.1-8.609a3.532,3.532,0,0,1,2.332.742,2.357,2.357,0,0,1,.895,1.9h-1.453a1.3,1.3,0,0,0-.5-1.023,1.888,1.888,0,0,0-1.27-.43,1.976,1.976,0,0,0-1.234.344,1.082,1.082,0,0,0-.445.9.877.877,0,0,0,.414.789,5.1,5.1,0,0,0,1.5.508,7.8,7.8,0,0,1,1.754.578,2.558,2.558,0,0,1,1,.809A1.988,1.988,0,0,1-13.8-2.344,2.163,2.163,0,0,1-14.7-.527a3.8,3.8,0,0,1-2.352.684,4.257,4.257,0,0,1-1.8-.359,2.922,2.922,0,0,1-1.223-1A2.42,2.42,0,0,1-20.516-2.6h1.445a1.5,1.5,0,0,0,.582,1.152,2.258,2.258,0,0,0,1.434.426,2.331,2.331,0,0,0,1.316-.332A1.02,1.02,0,0,0-15.242-2.242ZM-10.344,0h-1.445V-12h1.445Zm1.93-4.3a4.993,4.993,0,0,1,.488-2.234A3.643,3.643,0,0,1-6.566-8.07a3.7,3.7,0,0,1,1.988-.539,3.565,3.565,0,0,1,2.793,1.2A4.6,4.6,0,0,1-.719-4.234v.1a5.036,5.036,0,0,1-.473,2.215A3.589,3.589,0,0,1-2.543-.391a3.743,3.743,0,0,1-2.02.547,3.556,3.556,0,0,1-2.785-1.2A4.575,4.575,0,0,1-8.414-4.2Zm1.453.172a3.616,3.616,0,0,0,.652,2.258,2.088,2.088,0,0,0,1.746.852,2.075,2.075,0,0,0,1.75-.863A3.955,3.955,0,0,0-2.164-4.3a3.61,3.61,0,0,0-.66-2.254,2.1,2.1,0,0,0-1.754-.863A2.075,2.075,0,0,0-6.3-6.57,3.925,3.925,0,0,0-6.961-4.133Z" transform="translate(966.289 5900.773)" fill="#752092"/>
    <path id="Trazado_1269892" data-name="Trazado 1269892" d="M-42.578-4.453V0h-1.5V-11.375h4.2a4.215,4.215,0,0,1,2.926.953A3.231,3.231,0,0,1-35.9-7.9a3.189,3.189,0,0,1-1.035,2.551,4.4,4.4,0,0,1-2.965.895Zm0-1.227h2.7a2.7,2.7,0,0,0,1.844-.567,2.075,2.075,0,0,0,.641-1.64,2.143,2.143,0,0,0-.641-1.628,2.525,2.525,0,0,0-1.758-.634h-2.781ZM-32.641,0h-1.445V-8.453h1.445ZM-34.2-10.7a.863.863,0,0,1,.215-.594.807.807,0,0,1,.637-.242.819.819,0,0,1,.641.242.854.854,0,0,1,.219.594.826.826,0,0,1-.219.586.834.834,0,0,1-.641.234.821.821,0,0,1-.637-.234A.834.834,0,0,1-34.2-10.7ZM-26.82.156a3.693,3.693,0,0,1-2.8-1.129A4.19,4.19,0,0,1-30.7-3.992v-.266a5.073,5.073,0,0,1,.48-2.246,3.748,3.748,0,0,1,1.344-1.547A3.378,3.378,0,0,1-27-8.609a3.166,3.166,0,0,1,2.563,1.086,4.7,4.7,0,0,1,.914,3.109v.6H-29.25a3,3,0,0,0,.73,2.02,2.3,2.3,0,0,0,1.777.77,2.517,2.517,0,0,0,1.3-.312,3.259,3.259,0,0,0,.93-.828l.883.688A3.55,3.55,0,0,1-26.82.156ZM-27-7.422a1.928,1.928,0,0,0-1.469.637A3.1,3.1,0,0,0-29.2-5h4.234v-.109a2.753,2.753,0,0,0-.594-1.707A1.815,1.815,0,0,0-27-7.422Zm9.234.266a4.331,4.331,0,0,0-.711-.055A1.9,1.9,0,0,0-20.406-6V0h-1.445V-8.453h1.406l.023.977a2.251,2.251,0,0,1,2.016-1.133,1.477,1.477,0,0,1,.641.109Zm2.7-1.3.047,1.063a3.08,3.08,0,0,1,2.531-1.219q2.68,0,2.7,3.023V0h-1.445V-5.594a1.946,1.946,0,0,0-.418-1.352,1.675,1.675,0,0,0-1.277-.437,2.086,2.086,0,0,0-1.234.375,2.546,2.546,0,0,0-.828.984V0h-1.445V-8.453ZM-2.391,0a3.036,3.036,0,0,1-.2-.891A3.225,3.225,0,0,1-5,.156,2.984,2.984,0,0,1-7.051-.551a2.287,2.287,0,0,1-.8-1.793,2.39,2.39,0,0,1,1-2.051,4.733,4.733,0,0,1,2.824-.73h1.406v-.664A1.623,1.623,0,0,0-3.07-7a1.821,1.821,0,0,0-1.336-.449,2.107,2.107,0,0,0-1.3.391,1.151,1.151,0,0,0-.523.945H-7.68A2,2,0,0,1-7.23-7.332a3.066,3.066,0,0,1,1.219-.934A4.1,4.1,0,0,1-4.32-8.609a3.342,3.342,0,0,1,2.289.73,2.635,2.635,0,0,1,.859,2.012v3.891a4.757,4.757,0,0,0,.3,1.852V0Zm-2.4-1.1A2.54,2.54,0,0,0-3.5-1.453a2.127,2.127,0,0,0,.883-.914V-4.1H-3.75q-2.656,0-2.656,1.555a1.316,1.316,0,0,0,.453,1.063A1.742,1.742,0,0,0-4.789-1.1Z" transform="translate(966.289 5982.773)" fill="#752092"/>
    <path id="Trazado_1269893" data-name="Trazado 1269893" d="M-19.633-4.453V0h-1.5V-11.375h4.2a4.215,4.215,0,0,1,2.926.953A3.231,3.231,0,0,1-12.953-7.9a3.189,3.189,0,0,1-1.035,2.551,4.4,4.4,0,0,1-2.965.895Zm0-1.227h2.7a2.7,2.7,0,0,0,1.844-.567,2.075,2.075,0,0,0,.641-1.64,2.143,2.143,0,0,0-.641-1.628,2.525,2.525,0,0,0-1.758-.634h-2.781ZM-9.7,0h-1.445V-8.453H-9.7Zm-1.562-10.7a.863.863,0,0,1,.215-.594.807.807,0,0,1,.637-.242.819.819,0,0,1,.641.242.854.854,0,0,1,.219.594.826.826,0,0,1-.219.586.834.834,0,0,1-.641.234.821.821,0,0,1-.637-.234A.834.834,0,0,1-11.258-10.7ZM-3.875.156a3.693,3.693,0,0,1-2.8-1.129A4.19,4.19,0,0,1-7.75-3.992v-.266A5.073,5.073,0,0,1-7.27-6.5,3.748,3.748,0,0,1-5.926-8.051a3.378,3.378,0,0,1,1.871-.559A3.166,3.166,0,0,1-1.492-7.523,4.7,4.7,0,0,1-.578-4.414v.6H-6.3a3,3,0,0,0,.73,2.02,2.3,2.3,0,0,0,1.777.77,2.517,2.517,0,0,0,1.3-.312,3.259,3.259,0,0,0,.93-.828l.883.688A3.55,3.55,0,0,1-3.875.156Zm-.18-7.578a1.928,1.928,0,0,0-1.469.637A3.1,3.1,0,0,0-6.258-5h4.234v-.109a2.753,2.753,0,0,0-.594-1.707A1.815,1.815,0,0,0-4.055-7.422Z" transform="translate(966.289 6062.773)" fill="#752092"/>
    <path id="Trazado_1269894" data-name="Trazado 1269894" d="M1.32,0V-11.375H5.039a4.317,4.317,0,0,1,2.785.766,2.759,2.759,0,0,1,.934,2.266A2.31,2.31,0,0,1,8.3-6.934a2.938,2.938,0,0,1-1.234.949A2.638,2.638,0,0,1,8.527-5a2.814,2.814,0,0,1,.535,1.723A3.042,3.042,0,0,1,8.07-.875,4.1,4.1,0,0,1,5.266,0Zm1.5-5.32v4.094H5.3A2.385,2.385,0,0,0,6.949-1.77a1.907,1.907,0,0,0,.605-1.5q0-2.055-2.234-2.055Zm0-1.2H5.086A2.375,2.375,0,0,0,6.66-7.017a1.654,1.654,0,0,0,.59-1.339A1.626,1.626,0,0,0,6.7-9.722a2.686,2.686,0,0,0-1.664-.427H2.82Zm12.32-.633a4.331,4.331,0,0,0-.711-.055A1.9,1.9,0,0,0,12.5-6V0H11.055V-8.453h1.406l.023.977A2.251,2.251,0,0,1,14.5-8.609a1.477,1.477,0,0,1,.641.109ZM21.375,0a3.036,3.036,0,0,1-.2-.891A3.225,3.225,0,0,1,18.766.156a2.984,2.984,0,0,1-2.051-.707,2.287,2.287,0,0,1-.8-1.793,2.39,2.39,0,0,1,1-2.051,4.733,4.733,0,0,1,2.824-.73h1.406v-.664A1.623,1.623,0,0,0,20.7-7a1.821,1.821,0,0,0-1.336-.449,2.108,2.108,0,0,0-1.3.391,1.151,1.151,0,0,0-.523.945H16.086a2,2,0,0,1,.449-1.223,3.066,3.066,0,0,1,1.219-.934,4.1,4.1,0,0,1,1.691-.344,3.342,3.342,0,0,1,2.289.73,2.635,2.635,0,0,1,.859,2.012v3.891a4.757,4.757,0,0,0,.3,1.852V0Zm-2.4-1.1a2.54,2.54,0,0,0,1.289-.352,2.127,2.127,0,0,0,.883-.914V-4.1H20.016q-2.656,0-2.656,1.555a1.316,1.316,0,0,0,.453,1.063A1.742,1.742,0,0,0,18.977-1.1Zm7.242-.078h4.945V0H24.453V-1.062l4.664-6.2H24.523v-1.2H30.93V-7.43ZM32.281-4.3a4.993,4.993,0,0,1,.488-2.234A3.643,3.643,0,0,1,34.129-8.07a3.7,3.7,0,0,1,1.988-.539,3.565,3.565,0,0,1,2.793,1.2,4.6,4.6,0,0,1,1.066,3.18v.1A5.036,5.036,0,0,1,39.5-1.918,3.589,3.589,0,0,1,38.152-.391a3.743,3.743,0,0,1-2.02.547,3.556,3.556,0,0,1-2.785-1.2A4.575,4.575,0,0,1,32.281-4.2Zm1.453.172a3.616,3.616,0,0,0,.652,2.258,2.088,2.088,0,0,0,1.746.852,2.075,2.075,0,0,0,1.75-.863A3.955,3.955,0,0,0,38.531-4.3a3.61,3.61,0,0,0-.66-2.254,2.1,2.1,0,0,0-1.754-.863,2.075,2.075,0,0,0-1.727.852A3.925,3.925,0,0,0,33.734-4.133Z" transform="translate(627.289 5776.773)" fill="#752092"/>
    <path id="Trazado_1269895" data-name="Trazado 1269895" d="M7.6-2.977H2.836L1.766,0H.219L4.563-11.375H5.875L10.227,0H8.688ZM3.289-4.2H7.156L5.219-9.523ZM12.9-8.453l.047,1.063a3.08,3.08,0,0,1,2.531-1.219q2.68,0,2.7,3.023V0H16.734V-5.594a1.946,1.946,0,0,0-.418-1.352,1.675,1.675,0,0,0-1.277-.437,2.086,2.086,0,0,0-1.234.375,2.546,2.546,0,0,0-.828.984V0H11.531V-8.453ZM22.32-10.5v2.047H23.9v1.117H22.32v5.249a1.173,1.173,0,0,0,.211.763.888.888,0,0,0,.719.254,3.5,3.5,0,0,0,.688-.094V0a4.215,4.215,0,0,1-1.109.155A1.8,1.8,0,0,1,21.367-.43a2.517,2.517,0,0,1-.492-1.664V-7.336H19.336V-8.453h1.539V-10.5ZM29.094.156A3.693,3.693,0,0,1,26.3-.973a4.19,4.19,0,0,1-1.078-3.02v-.266A5.073,5.073,0,0,1,25.7-6.5a3.748,3.748,0,0,1,1.344-1.547,3.378,3.378,0,0,1,1.871-.559,3.166,3.166,0,0,1,2.563,1.086,4.7,4.7,0,0,1,.914,3.109v.6H26.664a3,3,0,0,0,.73,2.02,2.3,2.3,0,0,0,1.777.77,2.517,2.517,0,0,0,1.3-.312,3.259,3.259,0,0,0,.93-.828l.883.688A3.55,3.55,0,0,1,29.094.156Zm-.18-7.578a1.928,1.928,0,0,0-1.469.637A3.1,3.1,0,0,0,26.711-5h4.234v-.109a2.753,2.753,0,0,0-.594-1.707A1.815,1.815,0,0,0,28.914-7.422Zm12.3,3.289a5.026,5.026,0,0,1-.891,3.113A2.846,2.846,0,0,1,37.938.156,2.947,2.947,0,0,1,35.461-.977L35.391,0H34.063V-12h1.445v4.477a2.93,2.93,0,0,1,2.414-1.086A2.863,2.863,0,0,1,40.34-7.445a5.177,5.177,0,0,1,.879,3.188ZM39.773-4.3a3.906,3.906,0,0,0-.57-2.281,1.888,1.888,0,0,0-1.641-.8,2.122,2.122,0,0,0-2.055,1.328V-2.4a2.181,2.181,0,0,0,2.07,1.328,1.878,1.878,0,0,0,1.617-.8A4.153,4.153,0,0,0,39.773-4.3Zm7.352-2.859a4.331,4.331,0,0,0-.711-.055A1.9,1.9,0,0,0,44.484-6V0H43.039V-8.453h1.406l.023.977a2.251,2.251,0,0,1,2.016-1.133,1.477,1.477,0,0,1,.641.109ZM53.359,0a3.036,3.036,0,0,1-.2-.891A3.225,3.225,0,0,1,50.75.156,2.984,2.984,0,0,1,48.7-.551a2.287,2.287,0,0,1-.8-1.793,2.39,2.39,0,0,1,1-2.051,4.733,4.733,0,0,1,2.824-.73h1.406v-.664A1.623,1.623,0,0,0,52.68-7a1.821,1.821,0,0,0-1.336-.449,2.107,2.107,0,0,0-1.3.391,1.151,1.151,0,0,0-.523.945H48.07a2,2,0,0,1,.449-1.223,3.066,3.066,0,0,1,1.219-.934,4.1,4.1,0,0,1,1.691-.344,3.342,3.342,0,0,1,2.289.73,2.635,2.635,0,0,1,.859,2.012v3.891a4.757,4.757,0,0,0,.3,1.852V0Zm-2.4-1.1a2.54,2.54,0,0,0,1.289-.352,2.127,2.127,0,0,0,.883-.914V-4.1H52q-2.656,0-2.656,1.555A1.316,1.316,0,0,0,49.8-1.484,1.742,1.742,0,0,0,50.961-1.1ZM58.2-1.18h4.945V0H56.438V-1.062l4.664-6.2H56.508v-1.2h6.406V-7.43ZM64.266-4.3a4.993,4.993,0,0,1,.488-2.234A3.643,3.643,0,0,1,66.113-8.07,3.7,3.7,0,0,1,68.1-8.609a3.565,3.565,0,0,1,2.793,1.2,4.6,4.6,0,0,1,1.066,3.18v.1a5.036,5.036,0,0,1-.473,2.215A3.589,3.589,0,0,1,70.137-.391a3.743,3.743,0,0,1-2.02.547,3.556,3.556,0,0,1-2.785-1.2A4.575,4.575,0,0,1,64.266-4.2Zm1.453.172a3.616,3.616,0,0,0,.652,2.258,2.088,2.088,0,0,0,1.746.852,2.075,2.075,0,0,0,1.75-.863A3.955,3.955,0,0,0,70.516-4.3a3.61,3.61,0,0,0-.66-2.254A2.1,2.1,0,0,0,68.1-7.422a2.075,2.075,0,0,0-1.727.852A3.925,3.925,0,0,0,65.719-4.133Z" transform="translate(627.289 5834.773)" fill="#752092"/>
    <path id="Trazado_1269896" data-name="Trazado 1269896" d="M3.258-11.375,6.977-2.094,10.7-11.375h1.945V0h-1.5V-4.43l.141-4.781L7.547,0H6.4L2.672-9.187,2.82-4.43V0H1.32V-11.375ZM20.281,0a3.036,3.036,0,0,1-.2-.891A3.225,3.225,0,0,1,17.672.156a2.984,2.984,0,0,1-2.051-.707,2.287,2.287,0,0,1-.8-1.793,2.39,2.39,0,0,1,1-2.051,4.733,4.733,0,0,1,2.824-.73h1.406v-.664A1.623,1.623,0,0,0,19.6-7a1.821,1.821,0,0,0-1.336-.449,2.108,2.108,0,0,0-1.3.391,1.151,1.151,0,0,0-.523.945H14.992a2,2,0,0,1,.449-1.223,3.066,3.066,0,0,1,1.219-.934,4.1,4.1,0,0,1,1.691-.344,3.342,3.342,0,0,1,2.289.73A2.635,2.635,0,0,1,21.5-5.867v3.891a4.757,4.757,0,0,0,.3,1.852V0Zm-2.4-1.1a2.54,2.54,0,0,0,1.289-.352,2.127,2.127,0,0,0,.883-.914V-4.1H18.922q-2.656,0-2.656,1.555a1.316,1.316,0,0,0,.453,1.063A1.742,1.742,0,0,0,17.883-1.1Zm7.25-7.352.047,1.063a3.08,3.08,0,0,1,2.531-1.219q2.68,0,2.7,3.023V0H28.969V-5.594a1.946,1.946,0,0,0-.418-1.352,1.675,1.675,0,0,0-1.277-.437,2.086,2.086,0,0,0-1.234.375,2.546,2.546,0,0,0-.828.984V0H23.766V-8.453ZM32.211-4.3A4.993,4.993,0,0,1,32.7-6.539,3.643,3.643,0,0,1,34.059-8.07a3.7,3.7,0,0,1,1.988-.539,3.565,3.565,0,0,1,2.793,1.2,4.6,4.6,0,0,1,1.066,3.18v.1a5.036,5.036,0,0,1-.473,2.215A3.589,3.589,0,0,1,38.082-.391a3.743,3.743,0,0,1-2.02.547,3.556,3.556,0,0,1-2.785-1.2A4.575,4.575,0,0,1,32.211-4.2Zm1.453.172a3.616,3.616,0,0,0,.652,2.258,2.088,2.088,0,0,0,1.746.852,2.075,2.075,0,0,0,1.75-.863A3.955,3.955,0,0,0,38.461-4.3a3.61,3.61,0,0,0-.66-2.254,2.1,2.1,0,0,0-1.754-.863,2.075,2.075,0,0,0-1.727.852A3.925,3.925,0,0,0,33.664-4.133Z" transform="translate(627.289 5878.773)" fill="#752092"/>
  </g>
</svg>
