<svg xmlns="http://www.w3.org/2000/svg" xmlns:xlink="http://www.w3.org/1999/xlink" width="188" height="162.599" viewBox="0 0 188 162.599">
  <defs>
    <clipPath id="clip-path">
      <rect id="Rectángulo_454933" data-name="Rectángulo 454933" width="188" height="162.599" fill="none"/>
    </clipPath>
  </defs>
  <g id="Grupo_1204616" data-name="Grupo 1204616" transform="translate(-705.029 -6438.236)">
    <g id="Grupo_1204424" data-name="Grupo 1204424" transform="translate(705.029 6438.236)">
      <g id="Grupo_1203498" data-name="Grupo 1203498" clip-path="url(#clip-path)">
        <path id="Trazado_1258868" data-name="Trazado 1258868" d="M163.429,142.2c21.76-23.418,15.6-51.474,3.551-77.973-6.152-13.532-10.153-27.38-15.54-41.1-2.482-6.321-5.767-12.507-10.818-17.046C126.179-6.885,107.466,3.87,92.973,10.757,70.4,23.032,43.3,29.991,23.521,46.846,8.253,59.858-5.605,83.933,2.289,104.347c3.9,10.094,12.728,17.66,22.486,22.338,17.639,8.456,38.142,9.98,56.562,16.427,13.28,4.648,25.3,16.011,39.6,17.463,15.077,1.531,31.937-7.238,42.034-17.883q.233-.246.462-.492" transform="translate(0 0)" fill="#fff"/>
        <path id="Trazado_1258869" data-name="Trazado 1258869" d="M171.123,143.2c21.76-23.418,15.6-51.473,3.551-77.972-6.152-13.532-10.153-27.38-15.54-41.1-2.482-6.321-5.767-12.507-10.819-17.046-14.442-12.972-33.154-2.216-47.648,4.671C78.1,24.033,50.993,30.992,31.215,47.847,15.947,60.859,2.089,84.934,9.983,105.348c3.9,10.094,12.728,17.66,22.486,22.338,17.639,8.456,38.142,9.98,56.562,16.427,13.28,4.648,25.3,16.011,39.6,17.463,15.077,1.531,31.937-7.238,42.034-17.883Q170.893,143.448,171.123,143.2Z" transform="translate(1.788 0.232)" fill="none" stroke="#c957bc" stroke-miterlimit="10" stroke-width="1"/>
      </g>
    </g>
    <g id="Line" transform="translate(760.498 6478)">
      <path id="Trazado_1268674" data-name="Trazado 1268674" d="M75.6,50.832a86.2,86.2,0,0,0,1.9-18V28.68a13.83,13.83,0,0,0-9.814-13.288L53.086,10.9a1.981,1.981,0,0,1-1.4-1.9V3.986A1.987,1.987,0,0,0,49.7,2H33.808a1.987,1.987,0,0,0-1.986,1.986V9a1.977,1.977,0,0,1-1.4,1.9L15.814,15.389A13.834,13.834,0,0,0,6,28.68v4.157a86.087,86.087,0,0,0,1.907,18,81.674,81.674,0,0,1,.127,36.144A2,2,0,0,0,9.973,89.4H73.533a2,2,0,0,0,1.939-2.417A81.624,81.624,0,0,1,75.6,50.832Zm-2.068-18a83.046,83.046,0,0,1-2.078,18.375,85.253,85.253,0,0,0-.363,34.211h-6.2a23.4,23.4,0,0,1-1.456-14.23L67.115,54A13.7,13.7,0,0,0,70.57,38.9l-3.138-7.848a1.987,1.987,0,0,0-3.688,1.476c.832,2.5,4.044,8.779,3.832,11.439C67.3,55.4,51.287,57.27,47.5,46.8a1.987,1.987,0,0,0-3.553,1.776l.749,1.5c3.087,6.521,11.169,9.075,17.751,6.747l-2.9,13.542a27.414,27.414,0,0,0,1.067,15.062H22.891a27.413,27.413,0,0,0,1.067-15.062l-2.9-13.542c7.522,2.55,15.529-.735,18.5-8.249A1.986,1.986,0,0,0,36,46.8l-.749,1.5A9.829,9.829,0,0,1,25.6,53.645a9.722,9.722,0,0,1-8.98-13.264l3.138-7.848a1.986,1.986,0,0,0-3.688-1.476L12.936,38.9A13.692,13.692,0,0,0,16.39,54l3.683,17.189a23.4,23.4,0,0,1-1.456,14.23h-6.2A85.263,85.263,0,0,0,12.05,51.21,90.632,90.632,0,0,1,9.973,28.68a9.88,9.88,0,0,1,7.01-9.492l14.607-4.493a5.934,5.934,0,0,0,4.2-5.7V5.973H47.712V9a5.929,5.929,0,0,0,4.207,5.695l14.605,4.493a9.884,9.884,0,0,1,7.01,9.494Z" transform="translate(0 0)" fill="#752092"/>
      <path id="Trazado_1268675" data-name="Trazado 1268675" d="M24.992,40.419a1.986,1.986,0,0,0,0,3.973A1.986,1.986,0,0,0,24.992,40.419Z" transform="translate(16.801 37.891)" fill="#752092"/>
    </g>
  </g>
</svg>
