<svg xmlns="http://www.w3.org/2000/svg" xmlns:xlink="http://www.w3.org/1999/xlink" width="188" height="162.599" viewBox="0 0 188 162.599">
  <defs>
    <clipPath id="clip-path">
      <rect id="Rectángulo_454933" data-name="Rectángulo 454933" width="188" height="162.599" fill="none"/>
    </clipPath>
  </defs>
  <g id="Grupo_1204617" data-name="Grupo 1204617" transform="translate(-1114.029 -6438.236)">
    <g id="Grupo_1204425" data-name="Grupo 1204425" transform="translate(1114.029 6438.236)">
      <g id="Grupo_1203498" data-name="Grupo 1203498" clip-path="url(#clip-path)">
        <path id="Trazado_1258868" data-name="Trazado 1258868" d="M163.429,142.2c21.76-23.418,15.6-51.474,3.551-77.973-6.152-13.532-10.153-27.38-15.54-41.1-2.482-6.321-5.767-12.507-10.818-17.046C126.179-6.885,107.466,3.87,92.973,10.757,70.4,23.032,43.3,29.991,23.521,46.846,8.253,59.858-5.605,83.933,2.289,104.347c3.9,10.094,12.728,17.66,22.486,22.338,17.639,8.456,38.142,9.98,56.562,16.427,13.28,4.648,25.3,16.011,39.6,17.463,15.077,1.531,31.937-7.238,42.034-17.883q.233-.246.462-.492" transform="translate(0 0)" fill="#fff"/>
        <path id="Trazado_1258869" data-name="Trazado 1258869" d="M171.123,143.2c21.76-23.418,15.6-51.473,3.551-77.972-6.152-13.532-10.153-27.38-15.54-41.1-2.482-6.321-5.767-12.507-10.819-17.046-14.442-12.972-33.154-2.216-47.648,4.671C78.1,24.033,50.993,30.992,31.215,47.847,15.947,60.859,2.089,84.934,9.983,105.348c3.9,10.094,12.728,17.66,22.486,22.338,17.639,8.456,38.142,9.98,56.562,16.427,13.28,4.648,25.3,16.011,39.6,17.463,15.077,1.531,31.937-7.238,42.034-17.883Q170.893,143.448,171.123,143.2Z" transform="translate(1.788 0.232)" fill="none" stroke="#c957bc" stroke-miterlimit="10" stroke-width="1"/>
      </g>
    </g>
    <g id="cintura" transform="translate(1166.645 6456)">
      <g id="Grupo_1204393" data-name="Grupo 1204393" transform="translate(59.516 36.954)">
        <g id="Grupo_1204392" data-name="Grupo 1204392" transform="translate(0 0)">
          <path id="Trazado_1268676" data-name="Trazado 1268676" d="M327.826,86a1.826,1.826,0,1,0,1.826,1.826A1.826,1.826,0,0,0,327.826,86Z" transform="translate(-326 -86)" fill="#752092"/>
        </g>
      </g>
      <g id="Grupo_1204395" data-name="Grupo 1204395" transform="translate(12.684 26)">
        <g id="Grupo_1204394" data-name="Grupo 1204394" transform="translate(0 0)">
          <path id="Trazado_1268677" data-name="Trazado 1268677" d="M136.424,67.476c-2.073-7.434-11.108-19.1-9.986-39.55A1.826,1.826,0,0,0,124.616,26H82.443a1.826,1.826,0,0,0-1.823,1.926c1.117,20.352-7.891,32.142-10,39.535C66.81,80.79,73.027,98.006,81.738,109.271a1.826,1.826,0,0,0,1.444.709h40.7a1.826,1.826,0,0,0,1.444-.709C133.613,98.552,140.107,80.631,136.424,67.476Zm-56.913-11.5a66.927,66.927,0,0,0,4.831-26.321h38.374a66.945,66.945,0,0,0,4.829,26.317q.217.551.454,1.112a57.828,57.828,0,0,1-48.941,0Q79.292,56.524,79.511,55.972ZM101.7,106.329H84.087c-9.4-12.571-12.21-26.836-10.411-35.968,9.886,3.8,19.253,11.974,28.028,18.62ZM74.662,66.83A52.621,52.621,0,0,1,76.9,61.776q.325-.67.659-1.367a61.477,61.477,0,0,0,51.942,0q.332.7.656,1.362a50.888,50.888,0,0,1,2.232,5.06c-10.435,3.928-20.269,12.415-28.859,18.952C94.9,79.219,85.1,70.756,74.662,66.83Zm48.308,39.5H105.355V88.98c8.837-6.694,18.146-14.817,28-18.609C135.524,81.909,129.864,97.012,122.97,106.329Z" transform="translate(-69.476 -26)" fill="#752092"/>
        </g>
      </g>
      <g id="Grupo_1204397" data-name="Grupo 1204397" transform="translate(60.201 44.225)">
        <g id="Grupo_1204396" data-name="Grupo 1204396">
          <path id="Trazado_1268678" data-name="Trazado 1268678" d="M335.353,134.611a73.248,73.248,0,0,1-1.993-7.342,1.826,1.826,0,1,0-3.569.769,76.974,76.974,0,0,0,2.093,7.709,1.826,1.826,0,1,0,3.47-1.136Z" transform="translate(-329.749 -125.828)" fill="#752092"/>
        </g>
      </g>
      <g id="Grupo_1204399" data-name="Grupo 1204399" transform="translate(74.122 33.302)">
        <g id="Grupo_1204398" data-name="Grupo 1204398">
          <path id="Trazado_1268679" data-name="Trazado 1268679" d="M423.526,73.3H412.233l4.186-4.186a1.826,1.826,0,0,0-2.582-2.582l-7.3,7.3a1.826,1.826,0,0,0,0,2.582l7.3,7.3a1.826,1.826,0,0,0,2.582-2.582l-4.186-4.186h11.293a1.826,1.826,0,0,0,0-3.651Z" transform="translate(-405.999 -65.999)" fill="#752092"/>
        </g>
      </g>
      <g id="Grupo_1204401" data-name="Grupo 1204401" transform="translate(0 33.303)">
        <g id="Grupo_1204400" data-name="Grupo 1204400" transform="translate(0 0)">
          <path id="Trazado_1268680" data-name="Trazado 1268680" d="M18.817,73.838l-7.3-7.3a1.826,1.826,0,0,0-2.582,2.582L13.119,73.3H1.826a1.826,1.826,0,0,0,0,3.651H13.119L8.933,81.14a1.826,1.826,0,0,0,2.582,2.582l7.3-7.3A1.826,1.826,0,0,0,18.817,73.838Z" transform="translate(0 -66)" fill="#752092"/>
        </g>
      </g>
    </g>
  </g>
</svg>
