<svg xmlns="http://www.w3.org/2000/svg" xmlns:xlink="http://www.w3.org/1999/xlink" width="188" height="162.599" viewBox="0 0 188 162.599">
  <defs>
    <clipPath id="clip-path">
      <rect id="Rectángulo_454933" data-name="Rectángulo 454933" width="188" height="162.599" fill="none"/>
    </clipPath>
  </defs>
  <g id="Grupo_1204664" data-name="Grupo 1204664" transform="translate(-1115 -7880.748)">
    <g id="Grupo_1203498" data-name="Grupo 1203498" transform="translate(1115 7880.748)" clip-path="url(#clip-path)">
      <path id="Trazado_1258868" data-name="Trazado 1258868" d="M163.429,142.2c21.76-23.418,15.6-51.474,3.551-77.973-6.152-13.532-10.153-27.38-15.54-41.1-2.482-6.321-5.767-12.507-10.818-17.046C126.179-6.885,107.466,3.87,92.973,10.757,70.4,23.032,43.3,29.991,23.521,46.846,8.253,59.858-5.605,83.933,2.289,104.347c3.9,10.094,12.728,17.66,22.486,22.338,17.639,8.456,38.142,9.98,56.562,16.427,13.28,4.648,25.3,16.011,39.6,17.463,15.077,1.531,31.937-7.238,42.034-17.883q.233-.246.462-.492" transform="translate(0 0)" fill="#fff"/>
      <path id="Trazado_1258869" data-name="Trazado 1258869" d="M171.123,143.2c21.76-23.418,15.6-51.473,3.551-77.972-6.152-13.532-10.153-27.38-15.54-41.1-2.482-6.321-5.767-12.507-10.819-17.046-14.442-12.972-33.154-2.216-47.648,4.671C78.1,24.033,50.993,30.992,31.215,47.847,15.947,60.859,2.089,84.934,9.983,105.348c3.9,10.094,12.728,17.66,22.486,22.338,17.639,8.456,38.142,9.98,56.562,16.427,13.28,4.648,25.3,16.011,39.6,17.463,15.077,1.531,31.937-7.238,42.034-17.883Q170.893,143.448,171.123,143.2Z" transform="translate(1.788 0.232)" fill="none" stroke="#c957bc" stroke-miterlimit="10" stroke-width="1"/>
      <g id="moda" transform="translate(59 30.232)">
        <path id="Trazado_1268522" data-name="Trazado 1268522" d="M53.213,64.036a1.575,1.575,0,0,0-1.285,1.819,27.166,27.166,0,0,1,.338,6.2A54.514,54.514,0,0,1,37.33,76.042c-.01,0-.019,0-.028,0-.7.084-1.4.134-2.1.19a54.481,54.481,0,0,1-8.2.019c-.779-.059-1.558-.116-2.345-.21-.01,0-.019,0-.029,0A53.846,53.846,0,0,1,9.7,72.057a27.5,27.5,0,0,1,.354-6.364l.013.007h0c.651.38,1.349.76,2.081,1.135.23.118.48.231.718.347.522.256,1.05.508,1.608.753.309.136.633.263.953.395.527.216,1.062.427,1.619.629.358.13.724.253,1.1.376.56.186,1.133.36,1.72.527.393.112.786.22,1.19.322.614.155,1.247.29,1.889.42.406.082.806.168,1.223.239.715.122,1.455.212,2.2.3.372.043.732.1,1.112.132,1.138.1,2.3.159,3.506.159A37.939,37.939,0,0,0,36.733,71l.015,0,.059-.007c.336-.05.672-.1.961-.157s.6-.1.912-.162l.022,0,.421-.079.171-.036c.357-.077.728-.158,1.028-.245.354-.078.708-.167,1.069-.258l.3-.075c.473-.131.929-.261,1.4-.408l.18-.055c.43-.133.869-.271,1.258-.419.626-.219,1.4-.5,2.192-.825.269-.111.541-.228.813-.351.5-.216,1-.432,1.5-.682l.011-.005a1.736,1.736,0,0,0,.408-.269,1.576,1.576,0,0,0-1.777-2.569l-.051.025h0c-.448.224-.894.417-1.363.62-.492.222-.98.421-1.452.6s-.908.337-1.312.478c-.442.152-.9.3-1.339.442s-.857.255-1.3.378l-.235.059c-.334.084-.66.166-1.012.245l-.441.1c-.247.056-.487.112-.6.146l-.481.091c-.263.05-.524.1-.842.149s-.6.1-.9.147a35.336,35.336,0,0,1-5.357.408c-1.138,0-2.242-.056-3.316-.151-.37-.033-.718-.094-1.081-.137-.69-.082-1.381-.161-2.042-.276-.413-.072-.8-.166-1.2-.25-.579-.121-1.162-.239-1.717-.382-.41-.106-.8-.227-1.2-.343-.513-.15-1.027-.3-1.517-.466-.391-.133-.765-.274-1.142-.415-.459-.172-.917-.344-1.355-.527-.364-.152-.714-.308-1.062-.466-.413-.187-.822-.375-1.212-.568-.331-.164-.653-.329-.968-.5-.368-.195-.728-.39-1.073-.586-.3-.168-.586-.336-.865-.5-.142-.086-.273-.17-.411-.255a25.639,25.639,0,0,1,2.028-4.869A26.728,26.728,0,0,1,23.258,47.031h1.094a19.943,19.943,0,0,0-2.358,5.863,1.575,1.575,0,0,0,1.2,1.88,1.6,1.6,0,0,0,.344.038,1.575,1.575,0,0,0,1.536-1.233,16.869,16.869,0,0,1,1.038-3.11,17.2,17.2,0,0,1,2.072-3.437h1.23V53.59a1.576,1.576,0,1,0,3.151,0V47.031h1.23a17.21,17.21,0,0,1,2.072,3.44A16.877,16.877,0,0,1,36.9,53.579a1.575,1.575,0,0,0,1.536,1.233,1.6,1.6,0,0,0,.344-.038,1.575,1.575,0,0,0,1.2-1.88,19.772,19.772,0,0,0-1.231-3.7,20.031,20.031,0,0,0-1.128-2.166H38.72a23.2,23.2,0,0,1,2.131,1.348,1.575,1.575,0,0,0,1.817-2.574c-.765-.54-1.426-.952-1.975-1.273V37.749q3.674-6.307,7.364-12.613v0l0,0,3.806-6.541a1.574,1.574,0,0,0-.5-2.113,33.552,33.552,0,0,0-12.3-4.9V7.935a4.732,4.732,0,0,0-4.727-4.727H27.627A4.732,4.732,0,0,0,22.9,7.935V11.58a33.559,33.559,0,0,0-12.3,4.9,1.575,1.575,0,0,0-.5,2.113l3.806,6.541v0q3.7,6.306,7.365,12.613V44.56A29.825,29.825,0,0,0,10.078,56.092a28.736,28.736,0,0,0-2.614,6.689h0v0l0,.008s0,0,0,.005a30.475,30.475,0,0,0-.828,10.465,1.574,1.574,0,0,0,.923,1.293,57,57,0,0,0,15.344,4.4v7.221H14.714a3.207,3.207,0,0,0-3.2,3.2v3.253a3.207,3.207,0,0,0,3.2,3.2H47.251a3.207,3.207,0,0,0,3.2-3.2V89.382a3.207,3.207,0,0,0-3.2-3.2H39.066V78.956a57.767,57.767,0,0,0,15.34-4.4,1.576,1.576,0,0,0,.928-1.3,30.246,30.246,0,0,0-.3-7.939,1.565,1.565,0,0,0-1.82-1.285ZM17.723,25.05c1-.377,2.032-.708,3.075-1,.22-.062.443-.118.664-.175,1.081-.281,2.173-.532,3.287-.719a35.96,35.96,0,0,1,12.483.035c.691.115,1.378.255,2.064.408.223.05.444.108.666.162.469.114.936.234,1.4.366q.369.1.736.217.692.211,1.377.449c.217.075.434.147.649.225.1.035.189.076.284.112q-3.109,5.308-6.2,10.615H23.754q-3.1-5.314-6.2-10.627c.058-.022.114-.047.172-.069Zm6.7,18.828V38.9H37.542v4.98ZM43.455,16.024a31.131,31.131,0,0,1,4.917,2.31l-2.345,4.029c-.2-.077-.4-.141-.6-.215q-.435-.162-.872-.314c-.464-.161-.929-.311-1.4-.456-.282-.087-.564-.176-.847-.257-.513-.147-1.029-.278-1.547-.4-.239-.058-.477-.124-.717-.178-.326-.074-.654-.135-.982-.2V14.831a30.827,30.827,0,0,1,4.389,1.193Zm-17.4-8.089a1.578,1.578,0,0,1,1.576-1.576H34.34a1.578,1.578,0,0,1,1.576,1.576V19.84a38.559,38.559,0,0,0-4.932-.363c-.037,0-.074,0-.111,0-.911,0-1.8.052-2.693.113-.217.015-.44.01-.655.029-.5.043-.981.125-1.473.187V7.935Zm-7.544,8.091A30.833,30.833,0,0,1,22.9,14.831v5.477c-.334.067-.67.13-1,.206-.248.056-.492.124-.739.185-.518.128-1.033.26-1.544.407-.283.082-.564.171-.845.259-.47.147-.937.3-1.4.463q-.43.152-.856.313c-.193.073-.389.137-.581.212L13.6,18.334a31.1,31.1,0,0,1,4.912-2.309ZM47.3,89.382l-.052,3.3-32.589-.052.052-3.3H47.251a.058.058,0,0,1,.052.052Zm-21.253-3.2V79.351c.373.033.745.049,1.117.074.246.016.5.036.742.049a55.6,55.6,0,0,0,6.158,0c.248-.013.494-.033.742-.049.368-.025.736-.041,1.1-.073v6.828Z" transform="translate(0 0.696)" fill="#752092"/>
        <path id="Trazado_1268523" data-name="Trazado 1268523" d="M71,3.01l-.226-.152a4.943,4.943,0,0,0-6.75,1.132L41.089,34.736c-1.539.387-5.487,1.635-7.549,4.641a7.507,7.507,0,0,0-1.149,5.834c.679,3.62,1.266,6.746.96,9.134A5.8,5.8,0,0,1,30.925,58.6a1.575,1.575,0,0,0,.625,2.8,23.482,23.482,0,0,0,4.433.395c.691,0,1.434-.028,2.208-.1,4.671-.4,8.4-2.184,10.793-5.158,2.7-3.356,3.686-8.174,2.976-14.3L72.408,9.743l.009-.017A4.987,4.987,0,0,0,71,3.01ZM46.527,54.561c-1.865,2.32-4.762,3.664-8.61,3.993l-.011,0a21.3,21.3,0,0,1-2.756.07,9.234,9.234,0,0,0,1.328-3.895c.366-2.866-.263-6.219-.992-10.1-.855-4.559,4.365-6.323,6.2-6.8L47.767,42l1.1.75c.58,5.191-.2,9.164-2.336,11.816ZM69.733,8.074,49.878,39.623,44.25,35.771l22.3-29.893a1.8,1.8,0,0,1,2.463-.408l.217.145a1.831,1.831,0,0,1,.5,2.459Z" transform="translate(13.697 0)" fill="#752092"/>
      </g>
    </g>
  </g>
</svg>
