<svg xmlns="http://www.w3.org/2000/svg" xmlns:xlink="http://www.w3.org/1999/xlink" width="123.572" height="106.876" viewBox="0 0 123.572 106.876">
  <defs>
    <clipPath id="clip-path">
      <rect id="Rectángulo_454933" data-name="Rectángulo 454933" width="123.572" height="106.876" fill="none"/>
    </clipPath>
  </defs>
  <g id="Grupo_1204648" data-name="Grupo 1204648" transform="translate(-576.713 -7020.178)">
    <g id="Grupo_1204077" data-name="Grupo 1204077" transform="translate(576.713 7020.178)">
      <g id="Grupo_1203498" data-name="Grupo 1203498" clip-path="url(#clip-path)">
        <path id="Trazado_1258868" data-name="Trazado 1258868" d="M107.421,93.468c14.3-15.393,10.253-33.833,2.334-51.251-4.044-8.895-6.674-18-10.214-27.013C97.909,11.049,95.75,6.984,92.43,4,82.937-4.526,70.638,2.544,61.111,7.07,46.275,15.139,28.46,19.713,15.461,30.791,5.424,39.344-3.684,55.169,1.5,68.587,4.07,75.222,9.87,80.195,16.284,83.27c11.594,5.558,25.071,6.56,37.178,10.8,8.729,3.055,16.63,10.524,26.026,11.478,9.91,1.006,20.992-4.758,27.629-11.754l.3-.323" transform="translate(0 0)" fill="#fff"/>
        <path id="Trazado_1258869" data-name="Trazado 1258869" d="M115.115,94.469c14.3-15.393,10.253-33.833,2.334-51.251-4.044-8.895-6.674-18-10.214-27.013-1.632-4.155-3.79-8.221-7.111-11.2C90.631-3.525,78.332,3.545,68.8,8.071,53.969,16.14,36.154,20.714,23.155,31.792,13.118,40.345,4.01,56.17,9.2,69.588c2.566,6.635,8.366,11.608,14.78,14.683,11.594,5.558,25.071,6.56,37.178,10.8,8.729,3.055,16.63,10.524,26.026,11.478,9.91,1.006,20.992-4.758,27.629-11.754Z" transform="translate(-1.461 -0.19)" fill="none" stroke="#c957bc" stroke-miterlimit="10" stroke-width="1"/>
        <g id="Layer_4" transform="translate(24.625 10.822)">
          <g id="Grupo_1204403" data-name="Grupo 1204403" transform="translate(4.906 4)">
            <g id="Grupo_1204402" data-name="Grupo 1204402">
              <path id="Trazado_1268696" data-name="Trazado 1268696" d="M43.7,46.316a2.694,2.694,0,0,0-.952-.12,14.575,14.575,0,0,1,1.265-2.94l-2.161-1.3a25.52,25.52,0,0,0-2.534,7.6l.026,0a3.981,3.981,0,0,0-.074.645l.069,4.809a12.439,12.439,0,0,1-2.049,7.142c-.63.945-1.288,1.906-1.907,2.811-.759,1.111-1.458,2.13-1.969,2.918-3.84,5.9-8.393,12.643-8.4,12.645l2.09,1.41s4.569-6.757,8.421-12.683c.5-.773,1.19-1.776,1.936-2.869.621-.908,1.287-1.881,1.921-2.829a14.961,14.961,0,0,0,2.474-8.583l-.07-4.809a1.719,1.719,0,0,1,.985-1.506c19.121,7.533,34.944,2.952,35.609,2.749l-.722-2.416A57.056,57.056,0,0,1,43.7,46.316Z" transform="translate(-8.764 -11.281)" fill="#752092"/>
              <path id="Trazado_1268697" data-name="Trazado 1268697" d="M31.129,20.863,74.561,6.395,73.764,4,30.4,18.45A14.656,14.656,0,0,0,20.2,28.3L4.906,73.549l2.389.807L22.6,29.079A12.191,12.191,0,0,1,31.129,20.863Z" transform="translate(-4.906 -4)" fill="#752092"/>
              <path id="Trazado_1268698" data-name="Trazado 1268698" d="M74.508,42.807a1.261,1.261,0,0,0,.106,2.517c.036,0,.073,0,.109-.006.664-.056,1.307-.126,1.926-.2a1.262,1.262,0,0,0-.3-2.506Q75.458,42.725,74.508,42.807Z" transform="translate(-18.037 -11.405)" fill="#752092"/>
              <path id="Trazado_1268699" data-name="Trazado 1268699" d="M83.808,41.1c-.54.151-1.135.308-1.776.456a1.261,1.261,0,0,0,.284,2.49,1.306,1.306,0,0,0,.288-.034c.682-.16,1.313-.323,1.887-.487a1.26,1.26,0,1,0-.683-2.425Z" transform="translate(-19.514 -11.108)" fill="#752092"/>
              <path id="Trazado_1268700" data-name="Trazado 1268700" d="M52.029,39.874a1.261,1.261,0,1,0-.862,2.37q.931.337,1.847.625a1.211,1.211,0,0,0,.376.058,1.262,1.262,0,0,0,.375-2.466c-.573-.178-1.152-.375-1.735-.588Z" transform="translate(-13.621 -10.867)" fill="#752092"/>
              <path id="Trazado_1268701" data-name="Trazado 1268701" d="M59.352,41.954a1.261,1.261,0,0,0-.512,2.469q.965.2,1.911.354a1.232,1.232,0,0,0,.208.019,1.261,1.261,0,0,0,.2-2.505c-.6-.1-1.2-.21-1.811-.336Z" transform="translate(-15.059 -11.275)" fill="#752092"/>
              <path id="Trazado_1268702" data-name="Trazado 1268702" d="M66.9,42.951a1.3,1.3,0,0,0-1.331,1.185,1.261,1.261,0,0,0,1.186,1.333c.657.037,1.3.058,1.938.074h.024a1.262,1.262,0,0,0,.025-2.524C68.134,43.01,67.522,42.988,66.9,42.951Z" transform="translate(-16.542 -11.472)" fill="#752092"/>
              <path id="Trazado_1268703" data-name="Trazado 1268703" d="M61.253,59.086,56.4,63.941l1.782,1.785L60.9,63V75.158h2.521V63.041l3.017,3.018,1.782-1.785-5.187-5.187A1.258,1.258,0,0,0,61.253,59.086Z" transform="translate(-14.784 -14.496)" fill="#752092"/>
              <path id="Trazado_1268704" data-name="Trazado 1268704" d="M79.953,63.075,75.1,67.929l1.782,1.785L79.6,66.991V86.384h2.521V67.031l3.015,3.016,1.782-1.785-5.187-5.187a1.307,1.307,0,0,0-1.782,0Z" transform="translate(-18.371 -15.265)" fill="#752092"/>
            </g>
          </g>
        </g>
      </g>
    </g>
  </g>
</svg>
