<svg xmlns="http://www.w3.org/2000/svg" xmlns:xlink="http://www.w3.org/1999/xlink" width="196.371" height="540.883" viewBox="0 0 196.371 540.883">
  <defs>
    <clipPath id="clip-path">
      <rect id="Rectángulo_455009" data-name="Rectángulo 455009" width="186.802" height="540.882" fill="none"/>
    </clipPath>
    <clipPath id="clip-path-2">
      <rect id="Rectángulo_455010" data-name="Rectángulo 455010" width="161.363" height="139.328" fill="none"/>
    </clipPath>
  </defs>
  <g id="Grupo_1204659" data-name="Grupo 1204659" transform="translate(-1119.934 -8574.895)">
    <g id="Grupo_1203675" data-name="Grupo 1203675" transform="translate(1119.934 8574.895)">
      <g id="Grupo_1203674" data-name="Grupo 1203674" clip-path="url(#clip-path)">
        <path id="Trazado_1259238" data-name="Trazado 1259238" d="M80.139,272.989c-1.909,14.077-14.293,28.837-29.724,40.178C34.283,325.022,14.559,333.331,0,333.233a15.391,15.391,0,0,0,.884-5.207A15.932,15.932,0,0,0,.577,324.9c12.713-.094,30.249-7.69,44.9-18.461,13.8-10.14,24.814-22.915,26.392-34.558Z" transform="translate(0 -74.501)" fill="#fab433" fill-rule="evenodd"/>
        <path id="Trazado_1259239" data-name="Trazado 1259239" d="M12.2,339.311A52.2,52.2,0,0,1,0,340.843a15.394,15.394,0,0,0,.884-5.207,15.932,15.932,0,0,0-.307-3.129c12.713-.094,30.249-7.691,44.9-18.461a97.053,97.053,0,0,0,15.859-14.4,3.778,3.778,0,0,1,1.106,1.088c3.7,5.71-12.066,19.924-35.2,31.748-5.144,2.629-10.22,4.917-15.044,6.825" transform="translate(0 -82.111)" fill="#fcc846" fill-rule="evenodd"/>
        <path id="Trazado_1259240" data-name="Trazado 1259240" d="M84.467,299.537l.293.34,2.092,2.42a.24.24,0,0,1-.038.335.237.237,0,0,1-.335-.007l-2.092-2.419-.25-.29Z" transform="translate(-23.055 -82.08)" fill="#ac273d" fill-rule="evenodd"/>
        <path id="Trazado_1259241" data-name="Trazado 1259241" d="M87.77,295.489l.364.423,2,2.315a.242.242,0,0,1-.038.337.238.238,0,0,1-.336-.007l-2-2.316-.3-.35Z" transform="translate(-23.965 -80.971)" fill="#ac273d" fill-rule="evenodd"/>
        <path id="Trazado_1259242" data-name="Trazado 1259242" d="M90.386,291.9l.1.121,1.893,2.2a.243.243,0,0,1-.039.338.238.238,0,0,1-.337-.007l-1.89-2.2-.024-.028c.1-.142.2-.282.293-.424" transform="translate(-24.687 -79.986)" fill="#ac273d" fill-rule="evenodd"/>
        <path id="Trazado_1259243" data-name="Trazado 1259243" d="M65.506,317.213l.325.5,2.044,3.137a.248.248,0,0,1-.08.333.229.229,0,0,1-.328-.048l-2.044-3.137-.313-.477Z" transform="translate(-17.842 -86.923)" fill="#ac273d" fill-rule="evenodd"/>
        <path id="Trazado_1259244" data-name="Trazado 1259244" d="M69.02,314.42l2.172,3.337a.248.248,0,0,1-.079.333.231.231,0,0,1-.329-.047l-2.152-3.305Z" transform="translate(-18.807 -86.158)" fill="#ac273d" fill-rule="evenodd"/>
        <path id="Trazado_1259245" data-name="Trazado 1259245" d="M72.584,311.4l.3.46,1.965,3.022a.248.248,0,0,1-.079.333.231.231,0,0,1-.329-.048l-1.965-3.022-.272-.415Z" transform="translate(-19.785 -85.332)" fill="#ac273d" fill-rule="evenodd"/>
        <path id="Trazado_1259246" data-name="Trazado 1259246" d="M76.118,308.2c.2.272.4.536.584.782l2.1,2.807a.247.247,0,0,1-.06.336.233.233,0,0,1-.333-.028l-2.1-2.807c-.194-.258-.378-.505-.558-.746Z" transform="translate(-20.757 -84.454)" fill="#ac273d" fill-rule="evenodd"/>
        <path id="Trazado_1259247" data-name="Trazado 1259247" d="M47.557,329.239l.242.5,1.713,3.517a.256.256,0,0,1-.117.327.226.226,0,0,1-.319-.085l-1.711-3.515-.24-.492Z" transform="translate(-12.914 -90.219)" fill="#ac273d" fill-rule="evenodd"/>
        <path id="Trazado_1259248" data-name="Trazado 1259248" d="M51.07,327.15q.217.384.434.764l1.923,3.382a.251.251,0,0,1-.1.33.227.227,0,0,1-.324-.066l-1.923-3.38q-.221-.387-.438-.772Z" transform="translate(-13.878 -89.646)" fill="#ac273d" fill-rule="evenodd"/>
        <path id="Trazado_1259249" data-name="Trazado 1259249" d="M54.864,324.756q.195.344.389.685l1.914,3.368a.251.251,0,0,1-.1.33.228.228,0,0,1-.324-.066L54.832,325.7q-.194-.339-.385-.679Z" transform="translate(-14.92 -88.99)" fill="#ac273d" fill-rule="evenodd"/>
        <path id="Trazado_1259250" data-name="Trazado 1259250" d="M58.586,322.263l.345.607,1.9,3.341a.251.251,0,0,1-.1.33.227.227,0,0,1-.324-.066l-1.9-3.34-.335-.59Z" transform="translate(-15.941 -88.307)" fill="#ac273d" fill-rule="evenodd"/>
        <path id="Trazado_1259251" data-name="Trazado 1259251" d="M29.674,338.069l.223.584,1.371,3.6a.258.258,0,0,1-.142.318.222.222,0,0,1-.307-.112l-1.371-3.594-.232-.606Z" transform="translate(-8.006 -92.638)" fill="#ac273d" fill-rule="evenodd"/>
        <path id="Trazado_1259252" data-name="Trazado 1259252" d="M33.07,336.624l.155.318,1.692,3.475a.257.257,0,0,1-.117.327.226.226,0,0,1-.319-.086l-1.692-3.475-.175-.359Z" transform="translate(-8.938 -92.242)" fill="#ac273d" fill-rule="evenodd"/>
        <path id="Trazado_1259253" data-name="Trazado 1259253" d="M37.142,334.748l.17.347,1.7,3.5a.255.255,0,0,1-.116.327.225.225,0,0,1-.319-.086l-1.7-3.495-.183-.375Z" transform="translate(-10.055 -91.728)" fill="#ac273d" fill-rule="evenodd"/>
        <path id="Trazado_1259254" data-name="Trazado 1259254" d="M41.138,332.754l.192.393,1.71,3.511a.254.254,0,0,1-.115.327.225.225,0,0,1-.319-.083L40.9,333.39l-.2-.409Z" transform="translate(-11.152 -91.182)" fill="#ac273d" fill-rule="evenodd"/>
        <path id="Trazado_1259255" data-name="Trazado 1259255" d="M10.182,343.956l.113.531.734,3.465a.263.263,0,0,1-.185.3.217.217,0,0,1-.283-.157l-.734-3.465-.124-.588c.16-.028.319-.054.48-.083" transform="translate(-2.659 -94.252)" fill="#ac273d" fill-rule="evenodd"/>
        <path id="Trazado_1259256" data-name="Trazado 1259256" d="M13.921,343.183l.083.263,1.088,3.448a.261.261,0,0,1-.158.311.22.22,0,0,1-.3-.129l-1.088-3.448-.107-.337.481-.109" transform="translate(-3.683 -94.04)" fill="#ac273d" fill-rule="evenodd"/>
        <path id="Trazado_1259257" data-name="Trazado 1259257" d="M18.241,342.061l.178.561,1.114,3.526a.26.26,0,0,1-.158.311.22.22,0,0,1-.3-.128l-1.114-3.526-.194-.61.473-.134" transform="translate(-4.869 -93.732)" fill="#ac273d" fill-rule="evenodd"/>
        <path id="Trazado_1259258" data-name="Trazado 1259258" d="M22.035,340.891l.068.179,1.334,3.505a.258.258,0,0,1-.142.317.222.222,0,0,1-.308-.113l-1.334-3.5-.089-.232Z" transform="translate(-5.909 -93.412)" fill="#ac273d" fill-rule="evenodd"/>
        <path id="Trazado_1259259" data-name="Trazado 1259259" d="M2.963,344.831l.661,3.143a.264.264,0,0,1-.185.3.217.217,0,0,1-.283-.158l-.686-3.259q.246-.011.493-.025" transform="translate(-0.677 -94.491)" fill="#ac273d" fill-rule="evenodd"/>
        <path id="Trazado_1259260" data-name="Trazado 1259260" d="M6.808,344.474c.087.417.176.84.268,1.273.183.854.333,1.578.483,2.3.16.775.321,1.548.454,2.176a.262.262,0,0,1-.184.3.216.216,0,0,1-.283-.157c-.176-.825-.317-1.5-.457-2.179-.168-.81-.335-1.617-.48-2.3-.094-.441-.189-.9-.285-1.356q.242-.027.485-.058" transform="translate(-1.733 -94.394)" fill="#ac273d" fill-rule="evenodd"/>
        <path id="Trazado_1259261" data-name="Trazado 1259261" d="M26.1,339.465c.2.518.39,1.031.584,1.535.314.815.606,1.591.9,2.365.3.8.6,1.592.89,2.346a.258.258,0,0,1-.142.318.221.221,0,0,1-.307-.113c-.31-.807-.6-1.578-.891-2.346-.3-.8-.605-1.6-.9-2.365q-.3-.792-.6-1.57Z" transform="translate(-7.025 -93.021)" fill="#ac273d" fill-rule="evenodd"/>
        <path id="Trazado_1259262" data-name="Trazado 1259262" d="M44.556,330.932c.242.5.494,1.021.77,1.583.386.788.758,1.558,1.13,2.328s.758,1.569,1.13,2.329a.256.256,0,0,1-.116.327.226.226,0,0,1-.319-.086c-.386-.789-.759-1.56-1.131-2.331s-.758-1.569-1.13-2.327c-.238-.486-.5-1.024-.77-1.586Z" transform="translate(-12.09 -90.683)" fill="#ac273d" fill-rule="evenodd"/>
        <path id="Trazado_1259263" data-name="Trazado 1259263" d="M61.979,319.858q.568.879,1.144,1.76c.457.7.921,1.411,1.383,2.126.451.695.9,1.39,1.359,2.089a.249.249,0,0,1-.079.334.23.23,0,0,1-.329-.049c-.452-.69-.906-1.391-1.36-2.091s-.914-1.411-1.382-2.125q-.57-.869-1.139-1.752Z" transform="translate(-16.873 -87.648)" fill="#ac273d" fill-rule="evenodd"/>
        <path id="Trazado_1259264" data-name="Trazado 1259264" d="M78.833,305.576c.445.518.879,1.021,1.28,1.481.564.647,1.029,1.186,1.484,1.714.531.617,1.072,1.245,1.491,1.725a.241.241,0,0,1-.038.336.236.236,0,0,1-.335-.005c-.579-.664-1.033-1.191-1.495-1.726-.531-.618-1.055-1.225-1.48-1.713-.447-.513-.861-.992-1.263-1.458Z" transform="translate(-21.504 -83.735)" fill="#ac273d" fill-rule="evenodd"/>
        <path id="Trazado_1259265" data-name="Trazado 1259265" d="M92.644,288.386c.319.372.648.759.975,1.145.39.46.782.921,1.205,1.411a.243.243,0,0,1-.041.338.237.237,0,0,1-.337-.008c-.383-.444-.794-.929-1.205-1.413-.288-.339-.576-.678-.87-1.022q.138-.224.273-.45" transform="translate(-25.312 -79.024)" fill="#ac273d" fill-rule="evenodd"/>
        <path id="Trazado_1259266" data-name="Trazado 1259266" d="M81.616,302.7l.139.16,2.179,2.515a.242.242,0,0,1-.038.337.237.237,0,0,1-.336-.007L81.383,303.2l-.11-.125Z" transform="translate(-22.271 -82.948)" fill="#ac273d" fill-rule="evenodd"/>
        <path id="Trazado_1259267" data-name="Trazado 1259267" d="M151.39,0a20.171,20.171,0,0,1,12.1,36.306,27.049,27.049,0,0,0-24.206,0A20.171,20.171,0,0,1,151.39,0" transform="translate(-35.957)" fill="#e79c75" fill-rule="evenodd"/>
        <path id="Trazado_1259268" data-name="Trazado 1259268" d="M151.39,0a20.119,20.119,0,0,1,15.056,6.75,21.512,21.512,0,0,1-7.369,27.772,27.449,27.449,0,0,0-7.687-1.075,25.9,25.9,0,0,0-12.1,2.859A20.171,20.171,0,0,1,151.39,0" transform="translate(-35.957)" fill="#ebae92" fill-rule="evenodd"/>
        <path id="Trazado_1259269" data-name="Trazado 1259269" d="M151.618,46.073c9.445,0,17.372,4.6,19.566,10.808-6.308.209-12.853.32-19.566.32s-13.258-.111-19.566-.32c2.194-6.209,10.121-10.808,19.566-10.808" transform="translate(-36.185 -12.625)" fill="#e79c75" fill-rule="evenodd"/>
        <path id="Trazado_1259270" data-name="Trazado 1259270" d="M151.658,61.124c-5.787,24.7,9.483,31.3,24.459,36.542,15.152,5.3,21.231,5.474,26.473,20.415,1.568,4.47,1.012,5.022-2.161,8.566-5.415,6.049-10.876,17.156-14.075,27.732-5.305,19.771-21.085,35.98-19.283,59.931,2.034,27.048,17.066,35.573,22.7,62.608,3.16,15.155,4.641,36.127,1.925,69.437-26.045,15.071-93.226,15.071-119.271,0-2.83-34.711-1.1-56.024,2.333-71.318,5.743-25.567,20.309-34.317,22.3-60.727,1.8-23.951-13.977-40.16-19.283-59.931-3.2-10.575-8.66-21.683-14.075-27.732-3.173-3.543-3.728-4.1-2.16-8.566,5.241-14.941,11.32-15.112,26.472-20.415,14.975-5.242,30.247-11.843,24.459-36.542Z" transform="translate(-16.632 -16.749)" fill="#ebae92" fill-rule="evenodd"/>
        <path id="Trazado_1259271" data-name="Trazado 1259271" d="M165.923,469V487.49H143.688V469a146.67,146.67,0,0,0,22.235,0" transform="translate(-39.374 -128.517)" fill="#e58f60" fill-rule="evenodd"/>
        <path id="Trazado_1259272" data-name="Trazado 1259272" d="M165.923,469v8.009a146.852,146.852,0,0,1-22.235,0V469a146.67,146.67,0,0,0,22.235,0" transform="translate(-39.374 -128.517)" fill="#cd7e58" fill-rule="evenodd"/>
        <rect id="Rectángulo_455006" data-name="Rectángulo 455006" width="8.949" height="102.427" transform="translate(110.958 358.973)" fill="#e58f60"/>
        <path id="Trazado_1259273" data-name="Trazado 1259273" d="M158.5,635.558c5.056,2.667,8.67,9.753,8.67,18.077,0,7.469-2.91,13.942-7.16,17.119H148.1c-4.25-3.178-7.16-9.65-7.16-17.119,0-8.323,3.614-15.41,8.67-18.077Z" transform="translate(-38.62 -174.157)" fill="#cd7e58" fill-rule="evenodd"/>
        <path id="Trazado_1259274" data-name="Trazado 1259274" d="M145.98,668.774c-3.069-3.516-5.043-8.99-5.043-15.14,0-8.323,3.615-15.41,8.67-18.077h7.542a22.7,22.7,0,0,1,4.513,14c0,10.65-6.463,19.284-14.435,19.284a10.942,10.942,0,0,1-1.247-.073" transform="translate(-38.62 -174.157)" fill="#e58f60" fill-rule="evenodd"/>
        <path id="Trazado_1259275" data-name="Trazado 1259275" d="M79.934,722.229h6.884c10.118,0,32.222-.362,38.473-16.883h19.389c6.252,16.521,28.355,16.883,38.473,16.883h6.884a8.721,8.721,0,0,1,8.58,8.809v2.084a9.123,9.123,0,0,1-.06,1.041H71.414a9.125,9.125,0,0,1-.06-1.041v-2.084a8.722,8.722,0,0,1,8.58-8.809" transform="translate(-19.553 -193.281)" fill="#cd7e58" fill-rule="evenodd"/>
        <path id="Trazado_1259276" data-name="Trazado 1259276" d="M142.267,710.02a21.425,21.425,0,0,0,2.455-4.675h19.389a21.424,21.424,0,0,0,2.455,4.675Z" transform="translate(-38.984 -193.28)" fill="#ba7051" fill-rule="evenodd"/>
        <path id="Trazado_1259277" data-name="Trazado 1259277" d="M79.934,722.229h6.884c10.118,0,32.222-.362,38.473-16.883h16.075c-3.67,12.1-13.876,22.4-27.768,28.817H71.414a9.125,9.125,0,0,1-.06-1.041v-2.084a8.722,8.722,0,0,1,8.58-8.809" transform="translate(-19.553 -193.281)" fill="#e58f60" fill-rule="evenodd"/>
        <path id="Trazado_1259278" data-name="Trazado 1259278" d="M142.267,710.02a21.425,21.425,0,0,0,2.455-4.675H160.8a36.377,36.377,0,0,1-1.781,4.675Z" transform="translate(-38.984 -193.28)" fill="#d8865c" fill-rule="evenodd"/>
        <path id="Trazado_1259279" data-name="Trazado 1259279" d="M144.478,684.039H161.8a6.935,6.935,0,0,1,6.879,6.95v1.644a6.935,6.935,0,0,1-6.879,6.951h-17.32a6.935,6.935,0,0,1-6.879-6.951v-1.644a6.935,6.935,0,0,1,6.879-6.95" transform="translate(-37.705 -187.442)" fill="#cd7e58" fill-rule="evenodd"/>
        <path id="Trazado_1259280" data-name="Trazado 1259280" d="M144.478,684.039H161.8q.265,0,.525.02c1.652,1.26,2.587,2.692,2.587,4.21,0,5.048-10.321,9.142-23.051,9.142q-1.222,0-2.412-.049a6.963,6.963,0,0,1-1.848-4.728v-1.644a6.935,6.935,0,0,1,6.879-6.95" transform="translate(-37.705 -187.442)" fill="#e58f60" fill-rule="evenodd"/>
        <rect id="Rectángulo_455007" data-name="Rectángulo 455007" width="8.949" height="10.212" transform="translate(110.958 358.974)" fill="#cd7e58"/>
        <rect id="Rectángulo_455008" data-name="Rectángulo 455008" width="3.141" height="58.961" transform="translate(112.564 402.44)" fill="#e9a480"/>
        <path id="Trazado_1259281" data-name="Trazado 1259281" d="M152.825,638.082c2.648,0,4.428,3.869,3.978,8.641s-2.963,8.641-5.612,8.641-4.428-3.869-3.978-8.641,2.964-8.641,5.612-8.641" transform="translate(-40.321 -174.849)" fill="#e9a480" fill-rule="evenodd"/>
        <path id="Trazado_1259282" data-name="Trazado 1259282" d="M149.733,27.19a11.75,11.75,0,1,0-11.749-11.75,11.772,11.772,0,0,0,11.749,11.75" transform="translate(-37.811 -1.011)" fill="#e9bba3" fill-rule="evenodd"/>
        <path id="Trazado_1259283" data-name="Trazado 1259283" d="M158.8,355.114a143.253,143.253,0,0,1-27.275,2.541c-19.743-.059-43.47-3.358-56.5-9.9l-.189-.1c-.334-.169-.661-.34-.986-.514l-.3-.16c-.381-.206-.757-.416-1.125-.629-2.822-34.612-1.112-55.9,2.3-71.186,5.737-25.669,20.336-34.4,22.325-60.859,1.8-23.951-13.977-40.16-19.283-59.931C74.575,143.8,69.115,132.7,63.7,126.647c-3.173-3.543-3.728-4.1-2.16-8.566,5.242-14.941,11.321-15.112,26.473-20.415,14.975-5.242,30.246-11.843,24.458-36.542H128c-2.647,10.064-5.649,29.727.125,38.576,2.574,3.946,7.3,6.914,15.957,8.806,31.529,6.894,15.11,51.133,6.913,70.537-11.894,28.158-16.5,52-13.173,79.4,3.763,31.038,25.175,45.286,20.98,96.674" transform="translate(-16.631 -16.749)" fill="#e9bba3" fill-rule="evenodd"/>
        <path id="Trazado_1259284" data-name="Trazado 1259284" d="M75.317,414.8c-1.58-19.363-3.81-43.126-5.129-66.669l.024-.012a312.949,312.949,0,0,1-.379-31.579,165.039,165.039,0,0,1,3.554-28.821,87.172,87.172,0,0,1,6.15-17.895c2.255-4.852,4.875-9.481,7.352-14.216,4.956-9.474,7.954-17.564,8.765-28.36.776-10.309-1.874-19.32-6.024-28.626-3.186-7.142-7.016-14.012-10.007-21.238l-.378-1.244c3.553-6.147,5.11-14.843,3.8-24.485-1.855-13.673-8.954-25.446-17.582-30.741,4.991-6.891,11.625-8.256,22.044-11.833,9.2,9.088,26.289,15.2,45.861,15.2s36.665-6.108,45.861-15.2c4.822,1.656,8.834,2.838,12.246,4.313a21.759,21.759,0,0,1,9.4,7.772c-8.445,5.41-15.354,17.029-17.18,30.49-1.23,9.063.073,17.29,3.184,23.35-3.095,8.109-7.421,15.7-10.954,23.617-4.15,9.306-6.8,18.317-6.023,28.626.812,10.8,3.808,18.886,8.765,28.36,2.477,4.735,5.1,9.364,7.353,14.216a88.373,88.373,0,0,1,5.485,15.14H133.372V428.738c-21.424-.021-43.12-4.191-56.952-12.195l-1.009-.584Z" transform="translate(-17.939 -29.89)" fill="#cc6b2f" fill-rule="evenodd"/>
        <path id="Trazado_1259285" data-name="Trazado 1259285" d="M79.624,177.382h0l-.013-.044-.364-1.2c3.553-6.147,5.111-14.843,3.8-24.485-1.855-13.673-8.954-25.446-17.582-30.741,4.991-6.891,11.625-8.255,22.044-11.833,9.2,9.088,26.289,15.2,45.861,15.2q.455,0,.909,0h.015l.854-.012.1,0c.264-.006.529-.012.792-.02l.1,0c.283-.008.566-.018.847-.029h.039c.279-.011.558-.023.836-.037l.089,0q.382-.019.764-.041l.158-.009c.24-.015.478-.029.717-.046l.174-.012q.373-.026.746-.055l.136-.01c.232-.019.464-.038.695-.058l.244-.022q.3-.026.6-.056l.322-.032.543-.056.314-.034.577-.065.306-.036.467-.057.481-.062.307-.041.563-.078.072-.01.261-.037.044-.007.465-.07h.011l.259-.04.062-.009.456-.073.258-.042L148,123.1q.755-.124,1.5-.261l.254-.047.506-.1.253-.049c12.307,12.4,20.958,26.3,16.63,37.963-2.008,5.411-9.253,10.584-12.672,14.218-29.716,31.6-34.256,72.326-11.905,110.139h-9.195V428.738q-.5,0-1,0h-.009c-21.093-.149-42.325-4.313-55.939-12.191l-1.009-.584-.094-1.162c-1.579-19.363-3.809-43.126-5.128-66.669l.024-.011a312.962,312.962,0,0,1-.379-31.58,164.97,164.97,0,0,1,3.554-28.821,87.127,87.127,0,0,1,6.15-17.895c2.255-4.852,4.875-9.481,7.352-14.216,4.956-9.473,7.954-17.564,8.765-28.36.776-10.309-1.874-19.32-6.024-28.626-3.186-7.142-7.015-14.012-10.007-21.238" transform="translate(-17.939 -29.89)" fill="#fe9554" fill-rule="evenodd"/>
        <path id="Trazado_1259286" data-name="Trazado 1259286" d="M159.375,133.343a.6.6,0,0,0-1.194-.027v6a.6.6,0,0,0,1.194.026ZM158.18,289.337a.6.6,0,0,0,1.194.027v-3.083a.6.6,0,0,0-1.194-.027Zm0-6.64a.6.6,0,0,0,1.194.027v-6a.6.6,0,0,0-1.194-.027Zm0-9.559a.6.6,0,0,0,1.194.027v-6a.6.6,0,0,0-1.194-.027Zm0-9.559a.6.6,0,0,0,1.194.028v-6a.6.6,0,0,0-1.194-.027Zm0-9.558a.6.6,0,0,0,1.194.027v-6a.6.6,0,0,0-1.194-.028Zm0-9.559a.6.6,0,0,0,1.194.027v-6a.6.6,0,0,0-1.194-.027Zm0-9.558a.6.6,0,0,0,1.194.027v-6a.6.6,0,0,0-1.194-.027Zm0-9.559a.6.6,0,0,0,1.194.027v-6a.6.6,0,0,0-1.194-.027Zm0-9.559a.6.6,0,0,0,1.194.028v-6a.6.6,0,0,0-1.194-.027Zm0-9.558a.6.6,0,0,0,1.194.027v-6a.6.6,0,0,0-1.194-.028Zm0-9.559a.6.6,0,0,0,1.194.028v-6a.6.6,0,0,0-1.194-.027Zm0-9.557a.6.6,0,0,0,1.194.027v-6a.6.6,0,0,0-1.194-.027Zm0-9.56a.6.6,0,0,0,1.194.028v-6a.6.6,0,0,0-1.194-.028Zm0-9.559a.6.6,0,0,0,1.194.028v-6a.6.6,0,0,0-1.194-.027Zm0-9.557a.6.6,0,0,0,1.194.027v-6a.6.6,0,0,0-1.194-.027Zm0-9.56a.6.6,0,0,0,1.194.028v-6a.6.6,0,0,0-1.194-.028Z" transform="translate(-43.345 -36.377)" fill="#9f3432" fill-rule="evenodd"/>
        <path id="Trazado_1259287" data-name="Trazado 1259287" d="M88.982,185.537a.6.6,0,0,0,.2,1.178c1.966-.348,3.917-.709,5.89-1.026a.6.6,0,0,0-.067-1.187.649.649,0,0,0-.125.007q-2.957.475-5.9,1.028m101.036,1.147a.6.6,0,0,0,.284-1.159c-1.833-.444-4.077-.733-5.965-1.04a.6.6,0,0,0-.188,1.18c1.96.316,3.918.651,5.87,1.019m-9.4-1.557a.6.6,0,0,0,.182-1.181c-1.979-.288-3.962-.544-5.947-.788a.6.6,0,1,0-.143,1.186c1.974.245,3.94.5,5.909.783m-9.462-1.188a.6.6,0,0,0,.242-1.164.648.648,0,0,0-.114-.023c-1.987-.181-3.97-.4-5.96-.572a.6.6,0,0,0-.112,1.19c1.987.166,3.962.39,5.944.57m-9.5-.85a.6.6,0,0,0,.1-1.19c-1.994-.156-3.994-.259-5.991-.373a.6.6,0,0,0-.166,1.179.815.815,0,0,0,.105.015c1.983.128,3.966.24,5.95.37m-9.523-.534a.6.6,0,0,0,.188-1.172.679.679,0,0,0-.141-.022c-1.995-.079-3.987-.136-5.983-.182a.6.6,0,0,0-.025,1.194c1.988.046,3.973.1,5.96.181m-9.537-.235a.6.6,0,0,0,.017-1.194c-2,0-3.993-.025-5.992,0a.6.6,0,0,0,0,1.195c1.994,0,3.983-.018,5.978,0m-9.54.057a.6.6,0,0,0-.026-1.194c-1.993.041-3.991.1-5.983.184a.6.6,0,0,0,0,1.194c1.974-.01,4.017-.144,6.005-.184m-9.534.351a.6.6,0,0,0,.032-1.191.687.687,0,0,0-.1,0c-1.991.1-3.986.227-5.974.375a.6.6,0,0,0,.034,1.194c1.963-.062,4.021-.274,6-.375m-9.516.656a.6.6,0,0,0-.041-1.193c-1.893.067-4.111.372-6.021.577a.6.6,0,0,0,.128,1.188q2.964-.318,5.933-.572m-9.486.979a.6.6,0,0,0-.136-1.187c-1.986.248-3.963.5-5.944.791a.6.6,0,0,0,.073,1.188l.1-.007q2.947-.431,5.908-.786" transform="translate(-24.251 -49.629)" fill="#9f3432" fill-rule="evenodd"/>
        <path id="Trazado_1259288" data-name="Trazado 1259288" d="M192.065,360.754a.6.6,0,0,0-.207-1.177c-1.949.365-3.925.7-5.883,1a.6.6,0,0,0,.186,1.18c1.971-.3,3.943-.644,5.9-1M85.474,359.579a.6.6,0,0,0-.229,1.172c.65.124,1.307.237,1.96.349a.6.6,0,0,0,.264-1.164c-.637-.142-1.346-.24-1.995-.358m5.462.931a.6.6,0,0,0-.187,1.18q2.96.466,5.924.871a.6.6,0,0,0,.176-1.181c-1.975-.278-3.942-.56-5.912-.87m9.444,1.325a.6.6,0,1,0-.144,1.186q2.971.365,5.949.665a.6.6,0,0,0,.18-1.179c-1.925-.29-4.026-.432-5.985-.672m9.486,1a.6.6,0,1,0-.105,1.19c1.988.171,3.983.3,5.967.474a.6.6,0,0,0,.314-1.128.617.617,0,0,0-.232-.064c-1.9-.224-4.006-.306-5.944-.472m9.515.7a.6.6,0,0,0-.167,1.18.707.707,0,0,0,.1.013c1.994.115,3.983.208,5.978.293a.6.6,0,0,0,.152-1.18.7.7,0,0,0-.1-.013c-1.988-.09-3.97-.178-5.956-.293m9.531.415a.6.6,0,0,0-.034,1.194q2.994.082,5.984.121a.6.6,0,0,0,.108-1.187.82.82,0,0,0-.1-.008q-2.984-.036-5.962-.12m9.541.141a.6.6,0,0,0-.028,1.194c1.983.035,4.026-.014,6.011-.049a.6.6,0,1,0-.02-1.195q-2.982.052-5.963.049m9.541-.129a.6.6,0,0,0-.084,1.186.778.778,0,0,0,.118.008c1.993-.051,3.989-.128,5.981-.219a.6.6,0,0,0-.044-1.194c-1.991.083-3.979.168-5.97.219m9.531-.4a.6.6,0,0,0,.062,1.194c1.994-.125,3.986-.242,5.979-.4a.6.6,0,0,0,.02-1.189.805.805,0,0,0-.11,0c-1.98.155-3.967.285-5.95.4m9.516-.687a.6.6,0,0,0,0,1.19.647.647,0,0,0,.106,0q2.981-.26,5.957-.583a.6.6,0,0,0-.117-1.189c-1.982.207-3.959.409-5.945.582m9.487-.988a.6.6,0,0,0,.136,1.187c1.984-.248,3.963-.5,5.944-.783a.6.6,0,0,0-.11-1.189c-1.941.183-4.008.552-5.97.785" transform="translate(-23.23 -98.529)" fill="#9f3432" fill-rule="evenodd"/>
        <path id="Trazado_1259289" data-name="Trazado 1259289" d="M88.33,122.414a.6.6,0,1,0-.939.738l.716.927q.531.707,1.052,1.421c.577.807,1.159,1.625,1.7,2.456a.6.6,0,0,0,1-.661c-.441-.677-.912-1.344-1.376-2l-.7-.975c-.356-.481-.714-.958-1.078-1.432Zm25.994,303.464a.6.6,0,0,0,1.194.031c0-.768.016-1.58.04-2.348a.6.6,0,0,0-1.194-.035c-.02.783-.023,1.568-.04,2.351m.08-5.915a.6.6,0,0,0,1.195.028c.031-2,.027-4,.052-5.991a.6.6,0,0,0-1.195-.017c0,1.991-.035,3.988-.052,5.98m.078-9.557a.6.6,0,1,0,1.194.009l.041-5.974a.6.6,0,0,0-1.194-.015c0,1.991-.026,3.989-.041,5.981m.063-9.557a.6.6,0,0,0,1.195.014c0-1.992.023-3.989.036-5.981a.6.6,0,0,0-1.195-.015c0,1.993-.028,3.989-.036,5.982m.058-9.559a.6.6,0,0,0,1.195.015c0-1.992.02-3.989.035-5.982a.6.6,0,0,0-1.195-.014c0,1.993-.025,3.988-.035,5.981m.056-9.558a.6.6,0,0,0,1.195.014c0-1.992.023-3.988.035-5.981a.6.6,0,0,0-1.194-.014c0,1.992-.025,3.989-.036,5.981m.057-9.559a.6.6,0,0,0,1.195.015c0-1.992.023-3.988.037-5.981a.6.6,0,1,0-1.195-.008Zm.061-9.558a.6.6,0,0,0,1.194.015c0-1.991.025-3.989.042-5.981a.6.6,0,0,0-1.194-.017c0,1.993-.03,3.99-.042,5.983m.07-9.56a.6.6,0,0,0,1.195.017c0-1.989.031-3.989.056-5.98a.6.6,0,0,0-1.194-.033c-.049,1.989-.042,4-.057,6m.1-9.564a.6.6,0,0,0,1.195.033c.041-1.994.091-3.988.139-5.981a.6.6,0,0,0-1.195-.031c0,1.98-.105,3.991-.139,5.979m.222-9.559a.6.6,0,0,0,1.194.031c0-1.972.09-4,.134-5.977a.6.6,0,0,0-1.194-.038q-.062,2.992-.134,5.983m.211-9.555a.6.6,0,0,0,1.194.037l.123-5.986a.6.6,0,0,0-1.195-.035Zm.192-9.555a.6.6,0,0,0,1.195.022l.106-5.975a.6.6,0,0,0-1.195-.03c-.041,1.994-.069,3.989-.106,5.984m.163-9.555a.6.6,0,0,0,1.194.037c.049-1.994.059-4,.085-5.994a.6.6,0,0,0-1.194-.034c-.049,1.992-.055,4-.085,5.991m.127-9.555a.6.6,0,0,0,1.186.107.672.672,0,0,0,.009-.1q.03-2.987.057-5.976a.6.6,0,0,0-1.195-.017c0,1.991-.036,3.988-.057,5.98m.081-9.555a.6.6,0,0,0,1.195.015c0-1.994.018-3.99.023-5.984a.6.6,0,0,0-1.194-.022c-.025,1.994-.013,4-.023,5.991m.025-9.555a.6.6,0,0,0,1.185.108.768.768,0,0,0,.01-.11q0-2.988-.017-5.977a.6.6,0,0,0-1.186-.1.759.759,0,0,0-.009.109q.015,2.986.017,5.972m-.041-9.554a.6.6,0,0,0,1.191.054l0-.065q-.024-2.988-.065-5.977a.6.6,0,0,0-1.193-.044c-.068,1.929.047,4.076.064,6.032m-.122-9.553a.6.6,0,0,0,1.195-.02q-.048-2.989-.123-5.977a.6.6,0,0,0-1.187-.078.736.736,0,0,0-.007.106q.071,2.984.122,5.969m-.214-9.549a.6.6,0,0,0,1.194-.034q-.083-2.988-.189-5.975a.6.6,0,0,0-1.11-.285.606.606,0,0,0-.084.327q.107,2.984.189,5.967m-.325-9.545a.6.6,0,0,0,1.194,0c-.01-1.954-.17-4.055-.267-6.019a.6.6,0,0,0-1.194.04c.074,1.992.187,3.989.267,5.983m-.452-9.539a.6.6,0,0,0,1.193-.059c-.124-1.992-.229-3.985-.358-5.977a.6.6,0,0,0-1.194.052c.088,1.986.249,3.994.359,5.984m-.6-9.53a.6.6,0,0,0,1.192-.014v-.073q-.212-2.983-.464-5.964a.6.6,0,0,0-1.193.041c.068,1.937.326,4.051.465,6.01m-.776-9.514a.6.6,0,0,0,1.19-.112q-.276-2.978-.588-5.952a.6.6,0,0,0-1.188,0,.651.651,0,0,0,0,.125q.311,2.967.587,5.938m-.98-9.494a.6.6,0,0,0,1.188-.131c-.248-1.983-.479-3.965-.735-5.947a.6.6,0,0,0-1.184.16c.275,1.963.5,3.949.732,5.919m-1.22-9.464a.6.6,0,0,0,1.189-.073l-.007-.1q-.426-2.963-.907-5.917a.6.6,0,0,0-1.18.191c.36,1.922.625,3.956.9,5.9m-1.5-9.42a.6.6,0,0,0,1.177-.208q-.517-2.948-1.111-5.885a.6.6,0,0,0-1.181.166l.01.072q.587,2.92,1.106,5.855m-1.838-9.354a.6.6,0,0,0,1.167-.257q-.641-2.928-1.355-5.835a.6.6,0,0,0-1.171.232c.385,1.923.936,3.922,1.36,5.86m-2.24-9.263a.6.6,0,0,0,1.165-.258c-.419-1.873-1.1-3.963-1.66-5.816a.6.6,0,1,0-1.143.349q.866,2.85,1.638,5.724m-2.718-9.124a.6.6,0,0,0,1.137-.367c-.623-1.9-1.3-3.8-2.007-5.668a.6.6,0,0,0-1.12.415c.7,1.862,1.36,3.731,1.99,5.62m-3.3-8.928a.6.6,0,0,0,1.136-.357.7.7,0,0,0-.031-.1c-.759-1.854-1.575-3.679-2.427-5.492a.6.6,0,0,0-1.08.513c.845,1.793,1.651,3.6,2.4,5.435m-3.985-8.625a.6.6,0,0,0,1.059-.553c-.921-1.778-1.9-3.535-2.936-5.248a.6.6,0,0,0-1.066.529.722.722,0,0,0,.047.1c1.025,1.678,1.992,3.431,2.9,5.178" transform="translate(-23.912 -33.482)" fill="#9f3432" fill-rule="evenodd"/>
        <path id="Trazado_1259290" data-name="Trazado 1259290" d="M219.327,123.15a.6.6,0,0,0-.918-.764,58.255,58.255,0,0,0-3.545,4.907.6.6,0,0,0,.948.723l.046-.06c1.088-1.65,2.253-3.247,3.468-4.805m-29.7,169.569a.6.6,0,0,0,1.191.061l0-.073-.026-2.97a.6.6,0,0,0-1.195-.007c0,1,.017,1.993.026,2.988m-.051-6.558a.6.6,0,0,0,1.186.1.779.779,0,0,0,.009-.11q-.016-2.986-.023-5.972a.6.6,0,0,0-1.191-.063l0,.065q.007,2.988.023,5.976m-.025-9.563a.6.6,0,0,0,1.194.02c.025-1.993.007-4,.018-5.991a.6.6,0,0,0-1.195-.014c0,1.994-.017,3.989-.017,5.984m.041-9.563a.6.6,0,0,0,1.195.018c0-1.988.036-3.989.065-5.978a.6.6,0,0,0-1.194-.036c-.049,1.984-.066,4.012-.066,6m.121-9.563a.6.6,0,0,0,1.194.033c.042-1.994.076-3.988.123-5.981a.6.6,0,0,0-1.175-.167.651.651,0,0,0-.02.139q-.071,2.988-.123,5.976m.215-9.563a.6.6,0,0,0,1.195.034q.084-2.984.188-5.967a.6.6,0,0,0-1.166-.2.707.707,0,0,0-.028.159q-.106,2.988-.189,5.976m.325-9.56a.6.6,0,0,0,1.188.11l.005-.061q.122-2.982.266-5.963a.6.6,0,0,0-1.194-.059q-.146,2.986-.266,5.973m.453-9.557a.6.6,0,0,0,1.18.164.7.7,0,0,0,.013-.1q.162-2.979.357-5.957a.6.6,0,0,0-1.177-.18.732.732,0,0,0-.015.1q-.2,2.983-.358,5.97m.6-9.55a.6.6,0,0,0,1.191.094c.124-1.982.3-3.977.463-5.957a.6.6,0,1,0-1.191-.1c-.166,1.984-.332,3.976-.464,5.962m.778-9.539a.6.6,0,0,0,1.19.11c.178-1.975.364-3.966.587-5.936a.6.6,0,0,0-1.162-.25.846.846,0,0,0-.026.122q-.32,2.973-.588,5.954m.983-9.522a.6.6,0,0,0,1.185.154c.248-1.979.473-3.957.734-5.935a.6.6,0,0,0-1.183-.166c-.248,1.983-.5,3.96-.735,5.946m1.224-9.5a.6.6,0,0,0,1.181.181c.287-1.972.584-3.938.905-5.9a.6.6,0,1,0-1.179-.195q-.482,2.953-.907,5.917m1.51-9.459a.6.6,0,0,0,1.142.329.776.776,0,0,0,.034-.12c.348-1.954.709-3.91,1.106-5.855a.6.6,0,0,0-1.077-.46.611.611,0,0,0-.094.221c-.4,1.956-.762,3.92-1.111,5.885m1.848-9.4a.6.6,0,1,0,1.167.254c.418-1.937.868-3.878,1.348-5.8a.6.6,0,0,0-1.159-.29c-.483,1.935-.935,3.887-1.355,5.837m2.253-9.319a.592.592,0,0,0,.151.576.6.6,0,0,0,1-.264c.515-1.911,1.049-3.833,1.638-5.723a.6.6,0,0,0-1.1-.458.844.844,0,0,0-.044.105c-.586,1.91-1.13,3.834-1.649,5.764m2.739-9.192a.6.6,0,0,0,1.13.385c.608-1.882,1.29-3.765,1.988-5.615a.6.6,0,1,0-1.117-.425q-1.06,2.81-2,5.655m3.325-9.005a.6.6,0,0,0,1.089.49c.817-1.827,1.55-3.649,2.416-5.467a.6.6,0,0,0-1.067-.536c-.879,1.758-1.686,3.692-2.438,5.513m4.03-8.723a.6.6,0,0,0,1.058.555c.918-1.76,1.873-3.48,2.9-5.181a.6.6,0,0,0-1.022-.619c-1.037,1.721-2,3.463-2.934,5.244" transform="translate(-51.941 -33.48)" fill="#9f3432" fill-rule="evenodd"/>
        <path id="Trazado_1259291" data-name="Trazado 1259291" d="M94.81,262.638h93.446a28.088,28.088,0,0,0,.03,8.364H94.78a28.086,28.086,0,0,0,.03-8.364" transform="translate(-25.972 -71.969)" fill="#fab433" fill-rule="evenodd"/>
        <path id="Trazado_1259292" data-name="Trazado 1259292" d="M94.81,262.638h90.1a1.476,1.476,0,0,1,.048.349c0,3.18-10.625,6.039-27.531,8.015H94.78a28.086,28.086,0,0,0,.03-8.364" transform="translate(-25.972 -71.969)" fill="#fcc846" fill-rule="evenodd"/>
        <path id="Trazado_1259293" data-name="Trazado 1259293" d="M98.538,262.638v4.293a.239.239,0,1,1-.478,0v-4.293Z" transform="translate(-26.871 -71.969)" fill="#ac273d" fill-rule="evenodd"/>
        <path id="Trazado_1259294" data-name="Trazado 1259294" d="M118.829,262.638v4.293a.239.239,0,1,1-.478,0v-4.293Z" transform="translate(-32.431 -71.969)" fill="#ac273d" fill-rule="evenodd"/>
        <path id="Trazado_1259295" data-name="Trazado 1259295" d="M139.167,262.638v4.293a.239.239,0,0,1-.478,0v-4.293Z" transform="translate(-38.004 -71.969)" fill="#ac273d" fill-rule="evenodd"/>
        <path id="Trazado_1259296" data-name="Trazado 1259296" d="M159.459,262.638v4.293a.239.239,0,1,1-.478,0v-4.293Z" transform="translate(-43.564 -71.969)" fill="#ac273d" fill-rule="evenodd"/>
        <path id="Trazado_1259297" data-name="Trazado 1259297" d="M179.845,262.638v4.293a.239.239,0,1,1-.478,0v-4.293Z" transform="translate(-49.151 -71.969)" fill="#ac273d" fill-rule="evenodd"/>
        <path id="Trazado_1259298" data-name="Trazado 1259298" d="M200.136,262.638v4.293a.239.239,0,1,1-.478,0v-4.293Z" transform="translate(-54.711 -71.969)" fill="#ac273d" fill-rule="evenodd"/>
        <path id="Trazado_1259299" data-name="Trazado 1259299" d="M220.379,262.638v4.293a.239.239,0,1,1-.478,0v-4.293Z" transform="translate(-60.258 -71.969)" fill="#ac273d" fill-rule="evenodd"/>
        <path id="Trazado_1259300" data-name="Trazado 1259300" d="M102.23,262.638v2.46a.239.239,0,1,1-.478,0v-2.46Z" transform="translate(-27.882 -71.969)" fill="#ac273d" fill-rule="evenodd"/>
        <path id="Trazado_1259301" data-name="Trazado 1259301" d="M106.522,262.638v2.46a.239.239,0,1,1-.478,0v-2.46Z" transform="translate(-29.058 -71.969)" fill="#ac273d" fill-rule="evenodd"/>
        <path id="Trazado_1259302" data-name="Trazado 1259302" d="M110.821,262.638v2.46a.239.239,0,1,1-.478,0v-2.46Z" transform="translate(-30.236 -71.969)" fill="#ac273d" fill-rule="evenodd"/>
        <path id="Trazado_1259303" data-name="Trazado 1259303" d="M115.113,262.638v2.46a.239.239,0,1,1-.478,0v-2.46Z" transform="translate(-31.413 -71.969)" fill="#ac273d" fill-rule="evenodd"/>
        <path id="Trazado_1259304" data-name="Trazado 1259304" d="M122.141,262.638v2.46a.239.239,0,1,1-.478,0v-2.46Z" transform="translate(-33.338 -71.969)" fill="#ac273d" fill-rule="evenodd"/>
        <path id="Trazado_1259305" data-name="Trazado 1259305" d="M126.432,262.638v2.46a.239.239,0,1,1-.478,0v-2.46Z" transform="translate(-34.514 -71.969)" fill="#ac273d" fill-rule="evenodd"/>
        <path id="Trazado_1259306" data-name="Trazado 1259306" d="M130.732,262.638v2.46a.239.239,0,1,1-.478,0v-2.46Z" transform="translate(-35.692 -71.969)" fill="#ac273d" fill-rule="evenodd"/>
        <path id="Trazado_1259307" data-name="Trazado 1259307" d="M135.024,262.638v2.46a.239.239,0,1,1-.478,0v-2.46Z" transform="translate(-36.869 -71.969)" fill="#ac273d" fill-rule="evenodd"/>
        <path id="Trazado_1259308" data-name="Trazado 1259308" d="M142.86,262.638v2.46a.239.239,0,1,1-.478,0v-2.46Z" transform="translate(-39.016 -71.969)" fill="#ac273d" fill-rule="evenodd"/>
        <path id="Trazado_1259309" data-name="Trazado 1259309" d="M147.151,262.638v2.46a.239.239,0,1,1-.478,0v-2.46Z" transform="translate(-40.192 -71.969)" fill="#ac273d" fill-rule="evenodd"/>
        <path id="Trazado_1259310" data-name="Trazado 1259310" d="M151.452,262.638v2.46a.239.239,0,1,1-.478,0v-2.46Z" transform="translate(-41.37 -71.969)" fill="#ac273d" fill-rule="evenodd"/>
        <path id="Trazado_1259311" data-name="Trazado 1259311" d="M155.743,262.638v2.46a.239.239,0,1,1-.478,0v-2.46Z" transform="translate(-42.546 -71.969)" fill="#ac273d" fill-rule="evenodd"/>
        <path id="Trazado_1259312" data-name="Trazado 1259312" d="M162.771,262.638v2.46a.239.239,0,1,1-.478,0v-2.46Z" transform="translate(-44.472 -71.969)" fill="#ac273d" fill-rule="evenodd"/>
        <path id="Trazado_1259313" data-name="Trazado 1259313" d="M167.062,262.638v2.46a.239.239,0,1,1-.478,0v-2.46Z" transform="translate(-45.648 -71.969)" fill="#ac273d" fill-rule="evenodd"/>
        <path id="Trazado_1259314" data-name="Trazado 1259314" d="M171.362,262.638v2.46a.239.239,0,1,1-.478,0v-2.46Z" transform="translate(-46.826 -71.969)" fill="#ac273d" fill-rule="evenodd"/>
        <path id="Trazado_1259315" data-name="Trazado 1259315" d="M175.654,262.638v2.46a.239.239,0,1,1-.478,0v-2.46Z" transform="translate(-48.002 -71.969)" fill="#ac273d" fill-rule="evenodd"/>
        <path id="Trazado_1259316" data-name="Trazado 1259316" d="M184.061,262.638v2.46a.239.239,0,1,1-.478,0v-2.46Z" transform="translate(-50.306 -71.969)" fill="#ac273d" fill-rule="evenodd"/>
        <path id="Trazado_1259317" data-name="Trazado 1259317" d="M188.352,262.638v2.46a.239.239,0,1,1-.478,0v-2.46Z" transform="translate(-51.482 -71.969)" fill="#ac273d" fill-rule="evenodd"/>
        <path id="Trazado_1259318" data-name="Trazado 1259318" d="M192.651,262.638v2.46a.239.239,0,1,1-.478,0v-2.46Z" transform="translate(-52.66 -71.969)" fill="#ac273d" fill-rule="evenodd"/>
        <path id="Trazado_1259319" data-name="Trazado 1259319" d="M196.944,262.638v2.46a.239.239,0,1,1-.478,0v-2.46Z" transform="translate(-53.836 -71.969)" fill="#ac273d" fill-rule="evenodd"/>
        <path id="Trazado_1259320" data-name="Trazado 1259320" d="M203.971,262.638v2.46a.239.239,0,1,1-.478,0v-2.46Z" transform="translate(-55.762 -71.969)" fill="#ac273d" fill-rule="evenodd"/>
        <path id="Trazado_1259321" data-name="Trazado 1259321" d="M208.263,262.638v2.46a.239.239,0,1,1-.478,0v-2.46Z" transform="translate(-56.938 -71.969)" fill="#ac273d" fill-rule="evenodd"/>
        <path id="Trazado_1259322" data-name="Trazado 1259322" d="M212.563,262.638v2.46a.239.239,0,1,1-.478,0v-2.46Z" transform="translate(-58.116 -71.969)" fill="#ac273d" fill-rule="evenodd"/>
        <path id="Trazado_1259323" data-name="Trazado 1259323" d="M216.854,262.638v2.46a.239.239,0,1,1-.478,0v-2.46Z" transform="translate(-59.292 -71.969)" fill="#ac273d" fill-rule="evenodd"/>
      </g>
    </g>
    <g id="Grupo_1203677" data-name="Grupo 1203677" transform="translate(1154.941 8935.408)">
      <g id="Grupo_1203676" data-name="Grupo 1203676" clip-path="url(#clip-path-2)">
        <path id="Trazado_1259324" data-name="Trazado 1259324" d="M9.136,139.328c37.292-4.133,117.571-1.2,150.7-6.645,6.559-47.053-9.78-98.068-15.475-131.265C90.7.28,75.424-3.065,0,7.416,6.789,42.5,3.662,106.205,9.136,139.328" transform="translate(0 0)" fill="#fff" fill-rule="evenodd"/>
        <path id="Trazado_1259325" data-name="Trazado 1259325" d="M11.912,137.789c10.224-1.041,20.665-1.435,30.914-1.755,13.38-.416,26.773-.6,40.159-.807,14.555-.228,29.129-.45,43.673-1.046,6.255-.257,12.517-.584,18.757-1.084,4.483-.359,9-.8,13.459-1.472a173.784,173.784,0,0,0,1.214-26.982c-.523-18.544-3.461-37-7.119-55.16-1.682-8.349-3.529-16.66-5.344-24.98-1.459-6.687-2.916-13.4-4.12-20.143-16.436-.379-32.887-1.17-49.316-1.348-12.737-.138-25.338.254-38.043,1.193C38.558,5.5,20.973,7.66,3.5,10.067A258.8,258.8,0,0,1,6.562,37.68C7.344,49.22,7.744,60.8,8.105,72.356c.385,12.294.692,24.6,1.31,36.886.474,9.433,1.076,19.169,2.5,28.546" transform="translate(-0.965 -0.823)" fill="#fee383" fill-rule="evenodd"/>
        <path id="Trazado_1259326" data-name="Trazado 1259326" d="M10.108,120.908a143.249,143.249,0,0,0,28.851,2.907c55.471,0,101.948-31.291,114.208-73.35l-.2-.982c-1.682-8.349-3.53-16.659-5.345-24.979-1.459-6.688-2.916-13.4-4.12-20.144-16.436-.379-32.887-1.17-49.316-1.348-12.737-.138-25.338.254-38.043,1.193C38.558,5.5,20.973,7.66,3.5,10.067A258.8,258.8,0,0,1,6.562,37.68C7.344,49.22,7.744,60.8,8.105,72.356c.385,12.294.692,24.6,1.31,36.886.194,3.853.409,7.757.692,11.666" transform="translate(-0.965 -0.823)" fill="#ffe586" fill-rule="evenodd"/>
        <path id="Trazado_1259327" data-name="Trazado 1259327" d="M16.149,137.412l.648-.055v-4.063H22.11v3.667l.648-.042v-3.625h5.313v3.321l.647-.033v-3.288h5.313v3.053l.648-.026v-3.027h5.313v2.837l.647-.021v-2.816h5.313v2.653l.647-.019v-2.635h5.313v2.5l.648-.016v-2.48h5.313v2.362l.648-.013v-2.348h5.313v2.246l.648-.012v-2.235H69.8v2.144l.647-.011v-2.133h5.314v2.049l.647-.009v-2.039h5.3v1.957l.662-.011v-1.947h5.3v1.864l.647-.011v-1.853h5.313v1.766l.647-.011v-1.755h5.313v1.66l.648-.012v-1.647h5.313v1.537l.648-.014v-1.523h5.313v1.395l.647-.017v-1.377h5.313v1.224l.647-.02v-1.2h5.314v1.021l.647-.025v-1h5.313v.779l.647-.029v-.75h5.313v.486l.647-.036v-.45h5.314v.122l.647-.045v-.077h1.075q1.29-.093,2.579-.2.828-.066,1.658-.136h.013l.079-.007.08-.007.08-.007.08-.007.08-.007.08-.007.08-.007.077-.007q1.395-.119,2.792-.258h-2.792v-5.313h5.313v5.05l.648-.073v-4.976H159.2v3.328q.2-1.661.367-3.328v-.012l.009-.1v-.008l.039-.4.009-.1,0-.028q.118-1.255.218-2.509v-2.8h.2l.038-.648h-.235v-5.313h.459l.017-.647h-.476v-5.313h.525l0-.648h-.521V103.49h.41l-.022-.647h-.387V97.529h.13l-.04-.647h-.09V95.511q-.136-1.973-.3-3.942l0-.027-.009-.12-.011-.12-.01-.12-.01-.12-.011-.12v-.02q-.136-1.552-.29-3.1v3.1h-5.313V85.608h5.085l-.07-.648h-5.015V79.646h4.383L158.183,79h-4.3V73.686h3.564l-.1-.647h-3.469v-5.3h2.643l-.106-.647h-2.537V61.776h1.626l-.115-.648h-1.511V55.815h.529l-.124-.647h-.406v-2.1q-.315-1.61-.638-3.216v0l-.01-.051-.064-.317-.056-.277h-5.193V43.893h4.1l-.135-.648h-3.964V37.933h2.832l-.14-.647h-2.692V31.971h1.537l-.141-.647h-1.4V26.011h.234l-.142-.647h-.092v-.421l-.1-.438-.552-2.535v3.393h-5.313V20.05h4.9l-.14-.648h-4.757V14.089H145.6l-.134-.647h-3.5V8.128H144.4l-.123-.647h-2.32V4.319l-.647-.016V7.48H136V4.157l-.647-.02V7.48H130.04V3.973l-.647-.021V7.48h-5.313v-3.7l-.647-.022V7.48h-5.314v-3.9l-.647-.021V7.48h-5.313V3.4l-.647-.019v4.1H106.2V3.232l-.648-.016V7.48h-5.313V3.1l-.648-.012V7.48H94.274V3.012l-.647-.007V7.48H88.314V2.987l-.647,0V7.48h-5.3V3.041l-.662.012V7.48h-5.3V3.174l-.647.019V7.48H70.445V3.386l-.647.028V7.48H64.485v-3.8l-.648.036V7.48H58.523V4.05l-.648.045V7.48H52.563V4.5l-.648.053V7.48H46.6V5.01l-.647.059V7.48H40.641v-1.9l-.647.065V7.48H34.68V6.2l-.648.07V7.48H28.719V6.866l-.647.075V7.48H23.547l-.789.1-.027,0-.082.009-.081.01-.082.01-.081.01-.082.01-.081.01-.082.009-.051.007q-1.889.232-3.779.472H22.11v5.313H16.8V8.323l-.648.084v5.034H10.837V9.1l-.648.087v4.253H4.875V9.906L4.228,10v3.227l.035.219.009.059.011.07.011.07.011.07.011.07.011.07.011.07.011.07.01.07.005.03q.273,1.8.513,3.606V14.089h5.313V19.4H5.095l.08.648h5.014v5.313H5.759l.064.647h4.366v5.313H6.294l.052.647h3.842v5.314H6.737l.027.4.017.252h3.408v5.313H7.112l.038.648h3.039v5.313H7.43l.031.648h2.728v5.313H7.7l.026.647h2.463v5.313H7.931l.024.648h2.233v5.313H8.139l.021.647h2.029v5.3H8.328l.02.647h1.841V79H8.509l.019.647h1.661v5.313h-1.5l.02.648h1.479V90.92H8.878l.021.648h1.29v5.313h-1.1l.024.647h1.08v5.313H9.32l.028.647h.84V108.8H9.595l.022.44.011.208h.561v5.313H9.912l.038.647h.238v3.775c.035.513.07,1.025.107,1.538l.007.1.009.126.009.126.009.126.009.126,0,.044q.2,2.658.441,5.313l.005.061.048.5v0l.008.085h5.3v5.313H11.416l.079.647h4.654Zm.648-10.078h5.313v5.313H16.8Zm0-5.961h5.313v5.313H16.8Zm0-5.961h5.313v5.313H16.8Zm0-5.961h5.313v5.313H16.8Zm0-5.961h5.313V108.8H16.8Zm0-5.961h5.313v5.313H16.8Zm0-5.961h5.313v5.313H16.8Zm0-5.961h5.313V90.92H16.8Zm0-5.961h5.313v5.313H16.8Zm0-5.961h5.313V79H16.8Zm0-5.949h5.313v5.3H16.8Zm0-5.961h5.313v5.313H16.8Zm0-5.961h5.313v5.313H16.8Zm0-5.96h5.313v5.313H16.8Zm0-5.961h5.313v5.313H16.8Zm0-5.961h5.313v5.313H16.8Zm0-5.961h5.313v5.313H16.8Zm0-5.961h5.313v5.313H16.8Zm0-5.961h5.313v5.313H16.8Zm0-5.961h5.313V19.4H16.8ZM16.149,19.4H10.837V14.089h5.313Zm0,5.961H10.837V20.05h5.313Zm0,5.961H10.837V26.011h5.313Zm0,5.961H10.837V31.972h5.313Zm0,5.96H10.837V37.932h5.313Zm0,5.961H10.837V43.894h5.313Zm0,5.961H10.837V49.854h5.313Zm0,5.961H10.837V55.815h5.313Zm0,5.961H10.837V61.776h5.313Zm0,5.949H10.837v-5.3h5.313Zm0,5.961H10.837V73.686h5.313Zm0,5.961H10.837V79.646h5.313Zm0,5.961H10.837V85.607h5.313Zm0,5.961H10.837V91.568h5.313Zm0,5.961H10.837V97.529h5.313Zm0,5.961H10.837V103.49h5.313Zm0,5.961H10.837v-5.313h5.313Zm0,5.961H10.837v-5.313h5.313Zm0,5.961H10.837v-5.313h5.313ZM153.235,73.038h-5.313v-5.3h5.313Zm-5.961,0h-5.313v-5.3h5.313Zm-5.961,0H136v-5.3h5.313Zm-5.961,0H130.04v-5.3h5.313Zm-5.961,0h-5.313v-5.3h5.313Zm-5.961,0h-5.313v-5.3h5.313Zm-5.961,0h-5.313v-5.3h5.313Zm-5.961,0H106.2v-5.3h5.313Zm-5.961,0h-5.313v-5.3h5.313Zm-5.961,0H94.274v-5.3h5.313Zm-5.961,0H88.314v-5.3h5.313Zm-5.961,0h-5.3v-5.3h5.3Zm-5.961,0h-5.3v-5.3h5.3Zm-5.946,0H70.445v-5.3h5.313Zm-5.961,0H64.484v-5.3H69.8Zm-5.961,0H58.523v-5.3h5.313Zm-5.961,0H52.562v-5.3h5.313Zm-5.961,0H46.6v-5.3h5.313Zm-5.961,0H40.641v-5.3h5.313Zm-5.961,0H34.68v-5.3h5.313Zm-5.961,0H28.719v-5.3h5.313Zm-5.961,0H22.758v-5.3h5.313ZM22.758,61.776h5.313v5.313H22.758Zm5.961,0h5.313v5.313H28.719Zm5.961,0h5.313v5.313H34.68Zm5.961,0h5.313v5.313H40.641Zm5.961,0h5.313v5.313H46.6Zm5.961,0h5.313v5.313H52.563Zm5.961,0h5.313v5.313H58.523Zm5.961,0H69.8v5.313H64.485Zm5.96,0h5.313v5.313H70.445Zm5.961,0h5.3v5.313h-5.3Zm5.961,0h5.3v5.313h-5.3Zm5.947,0h5.313v5.313H88.314Zm5.961,0h5.313v5.313H94.274Zm5.961,0h5.313v5.313h-5.313Zm5.961,0h5.313v5.313H106.2Zm5.961,0h5.313v5.313h-5.313Zm5.961,0h5.313v5.313h-5.313Zm5.961,0h5.313v5.313h-5.313Zm5.961,0h5.313v5.313H130.04Zm5.961,0h5.313v5.313H136Zm5.961,0h5.313v5.313h-5.313Zm5.961,0h5.313v5.313h-5.313Zm-.647,70.871h-5.313v-5.313h5.313Zm-5.961,0H136v-5.313h5.313Zm-5.961,0H130.04v-5.313h5.313Zm-5.961,0h-5.313v-5.313h5.313Zm-5.961,0h-5.313v-5.313h5.313Zm-5.961,0h-5.313v-5.313h5.313Zm-5.961,0H106.2v-5.313h5.313Zm-5.961,0h-5.313v-5.313h5.313Zm-5.961,0H94.274v-5.313h5.313Zm-5.961,0H88.314v-5.313h5.313Zm-5.961,0h-5.3v-5.313h5.3Zm-5.961,0h-5.3v-5.313h5.3Zm-5.946,0H70.445v-5.313h5.313Zm-5.961,0H64.484v-5.313H69.8Zm-5.961,0H58.523v-5.313h5.313Zm-5.961,0H52.562v-5.313h5.313Zm-5.961,0H46.6v-5.313h5.313Zm-5.961,0H40.641v-5.313h5.313Zm-5.961,0H34.68v-5.313h5.313Zm-5.961,0H28.719v-5.313h5.313Zm-5.961,0H22.758v-5.313h5.313ZM159.2,126.686h-5.313v-5.313H159.2Zm-5.961,0h-5.313v-5.313h5.313Zm-5.961,0h-5.313v-5.313h5.313Zm-5.961,0H136v-5.313h5.313Zm-5.961,0H130.04v-5.313h5.313Zm-5.961,0h-5.313v-5.313h5.313Zm-5.961,0h-5.313v-5.313h5.313Zm-5.961,0h-5.313v-5.313h5.313Zm-5.961,0H106.2v-5.313h5.313Zm-5.961,0h-5.313v-5.313h5.313Zm-5.961,0H94.274v-5.313h5.313Zm-5.961,0H88.314v-5.313h5.313Zm-5.961,0h-5.3v-5.313h5.3Zm-5.961,0h-5.3v-5.313h5.3Zm-5.946,0H70.445v-5.313h5.313Zm-5.961,0H64.484v-5.313H69.8Zm-5.961,0H58.523v-5.313h5.313Zm-5.961,0H52.562v-5.313h5.313Zm-5.961,0H46.6v-5.313h5.313Zm-5.961,0H40.641v-5.313h5.313Zm-5.961,0H34.68v-5.313h5.313Zm-5.961,0H28.719v-5.313h5.313Zm-5.961,0H22.758v-5.313h5.313ZM159.2,120.725h-5.313v-5.313H159.2Zm-5.961,0h-5.313v-5.313h5.313Zm-5.961,0h-5.313v-5.313h5.313Zm-5.961,0H136v-5.313h5.313Zm-5.961,0H130.04v-5.313h5.313Zm-5.961,0h-5.313v-5.313h5.313Zm-5.961,0h-5.313v-5.313h5.313Zm-5.961,0h-5.313v-5.313h5.313Zm-5.961,0H106.2v-5.313h5.313Zm-5.961,0h-5.313v-5.313h5.313Zm-5.961,0H94.274v-5.313h5.313Zm-5.961,0H88.314v-5.313h5.313Zm-5.961,0h-5.3v-5.313h5.3Zm-5.961,0h-5.3v-5.313h5.3Zm-5.946,0H70.445v-5.313h5.313Zm-5.961,0H64.484v-5.313H69.8Zm-5.961,0H58.523v-5.313h5.313Zm-5.961,0H52.562v-5.313h5.313Zm-5.961,0H46.6v-5.313h5.313Zm-5.961,0H40.641v-5.313h5.313Zm-5.961,0H34.68v-5.313h5.313Zm-5.961,0H28.719v-5.313h5.313Zm-5.961,0H22.758v-5.313h5.313ZM159.2,114.764h-5.313v-5.313H159.2Zm-5.961,0h-5.313v-5.313h5.313Zm-5.961,0h-5.313v-5.313h5.313Zm-5.961,0H136v-5.313h5.313Zm-5.961,0H130.04v-5.313h5.313Zm-5.961,0h-5.313v-5.313h5.313Zm-5.961,0h-5.313v-5.313h5.313Zm-5.961,0h-5.313v-5.313h5.313Zm-5.961,0H106.2v-5.313h5.313Zm-5.961,0h-5.313v-5.313h5.313Zm-5.961,0H94.274v-5.313h5.313Zm-5.961,0H88.314v-5.313h5.313Zm-5.961,0h-5.3v-5.313h5.3Zm-5.961,0h-5.3v-5.313h5.3Zm-5.946,0H70.445v-5.313h5.313Zm-5.961,0H64.484v-5.313H69.8Zm-5.961,0H58.523v-5.313h5.313Zm-5.961,0H52.562v-5.313h5.313Zm-5.961,0H46.6v-5.313h5.313Zm-5.961,0H40.641v-5.313h5.313Zm-5.961,0H34.68v-5.313h5.313Zm-5.961,0H28.719v-5.313h5.313Zm-5.961,0H22.758v-5.313h5.313ZM159.2,108.8h-5.313V103.49H159.2Zm-5.961,0h-5.313V103.49h5.313Zm-5.961,0h-5.313V103.49h5.313Zm-5.961,0H136V103.49h5.313Zm-5.961,0H130.04V103.49h5.313Zm-5.961,0h-5.313V103.49h5.313Zm-5.961,0h-5.313V103.49h5.313Zm-5.961,0h-5.313V103.49h5.313Zm-5.961,0H106.2V103.49h5.313Zm-5.961,0h-5.313V103.49h5.313Zm-5.961,0H94.274V103.49h5.313Zm-5.961,0H88.314V103.49h5.313Zm-5.961,0h-5.3V103.49h5.3Zm-5.961,0h-5.3V103.49h5.3Zm-5.946,0H70.445V103.49h5.313Zm-5.961,0H64.484V103.49H69.8Zm-5.961,0H58.523V103.49h5.313Zm-5.961,0H52.562V103.49h5.313Zm-5.961,0H46.6V103.49h5.313Zm-5.961,0H40.641V103.49h5.313Zm-5.961,0H34.68V103.49h5.313Zm-5.961,0H28.719V103.49h5.313Zm-5.961,0H22.758V103.49h5.313ZM159.2,102.842h-5.313V97.529H159.2Zm-5.961,0h-5.313V97.529h5.313Zm-5.961,0h-5.313V97.529h5.313Zm-5.961,0H136V97.529h5.313Zm-5.961,0H130.04V97.529h5.313Zm-5.961,0h-5.313V97.529h5.313Zm-5.961,0h-5.313V97.529h5.313Zm-5.961,0h-5.313V97.529h5.313Zm-5.961,0H106.2V97.529h5.313Zm-5.961,0h-5.313V97.529h5.313Zm-5.961,0H94.274V97.529h5.313Zm-5.961,0H88.314V97.529h5.313Zm-5.961,0h-5.3V97.529h5.3Zm-5.961,0h-5.3V97.529h5.3Zm-5.946,0H70.445V97.529h5.313Zm-5.961,0H64.484V97.529H69.8Zm-5.961,0H58.523V97.529h5.313Zm-5.961,0H52.562V97.529h5.313Zm-5.961,0H46.6V97.529h5.313Zm-5.961,0H40.641V97.529h5.313Zm-5.961,0H34.68V97.529h5.313Zm-5.961,0H28.719V97.529h5.313Zm-5.961,0H22.758V97.529h5.313ZM159.2,96.881h-5.313V91.568H159.2Zm-5.961,0h-5.313V91.568h5.313Zm-5.961,0h-5.313V91.568h5.313Zm-5.961,0H136V91.568h5.313Zm-5.961,0H130.04V91.568h5.313Zm-5.961,0h-5.313V91.568h5.313Zm-5.961,0h-5.313V91.568h5.313Zm-5.961,0h-5.313V91.568h5.313Zm-5.961,0H106.2V91.568h5.313Zm-5.961,0h-5.313V91.568h5.313Zm-5.961,0H94.274V91.568h5.313Zm-5.961,0H88.314V91.568h5.313Zm-5.961,0h-5.3V91.568h5.3Zm-5.961,0h-5.3V91.568h5.3Zm-5.946,0H70.445V91.568h5.313Zm-5.961,0H64.484V91.568H69.8Zm-5.961,0H58.523V91.568h5.313Zm-5.961,0H52.562V91.568h5.313Zm-5.961,0H46.6V91.568h5.313Zm-5.961,0H40.641V91.568h5.313Zm-5.961,0H34.68V91.568h5.313Zm-5.961,0H28.719V91.568h5.313Zm-5.961,0H22.758V91.568h5.313ZM153.235,90.92h-5.313V85.607h5.313Zm-5.961,0h-5.313V85.607h5.313Zm-5.961,0H136V85.607h5.313Zm-5.961,0H130.04V85.607h5.313Zm-5.961,0h-5.313V85.607h5.313Zm-5.961,0h-5.313V85.607h5.313Zm-5.961,0h-5.313V85.607h5.313Zm-5.961,0H106.2V85.607h5.313Zm-5.961,0h-5.313V85.607h5.313Zm-5.961,0H94.274V85.607h5.313Zm-5.961,0H88.314V85.607h5.313Zm-5.961,0h-5.3V85.607h5.3Zm-5.961,0h-5.3V85.607h5.3Zm-5.946,0H70.445V85.607h5.313Zm-5.961,0H64.484V85.607H69.8Zm-5.961,0H58.523V85.607h5.313Zm-5.961,0H52.562V85.607h5.313Zm-5.961,0H46.6V85.607h5.313Zm-5.961,0H40.641V85.607h5.313Zm-5.961,0H34.68V85.607h5.313Zm-5.961,0H28.719V85.607h5.313Zm-5.961,0H22.758V85.607h5.313Zm125.164-5.961h-5.313V79.646h5.313Zm-5.961,0h-5.313V79.646h5.313Zm-5.961,0H136V79.646h5.313Zm-5.961,0H130.04V79.646h5.313Zm-5.961,0h-5.313V79.646h5.313Zm-5.961,0h-5.313V79.646h5.313Zm-5.961,0h-5.313V79.646h5.313Zm-5.961,0H106.2V79.646h5.313Zm-5.961,0h-5.313V79.646h5.313Zm-5.961,0H94.274V79.646h5.313Zm-5.961,0H88.314V79.646h5.313Zm-5.961,0h-5.3V79.646h5.3Zm-5.961,0h-5.3V79.646h5.3Zm-5.946,0H70.445V79.646h5.313Zm-5.961,0H64.484V79.646H69.8Zm-5.961,0H58.523V79.646h5.313Zm-5.961,0H52.562V79.646h5.313Zm-5.961,0H46.6V79.646h5.313Zm-5.961,0H40.641V79.646h5.313Zm-5.961,0H34.68V79.646h5.313Zm-5.961,0H28.719V79.646h5.313Zm-5.961,0H22.758V79.646h5.313ZM153.235,79h-5.313V73.686h5.313Zm-5.961,0h-5.313V73.686h5.313Zm-5.961,0H136V73.686h5.313Zm-5.961,0H130.04V73.686h5.313Zm-5.961,0h-5.313V73.686h5.313Zm-5.961,0h-5.313V73.686h5.313Zm-5.961,0h-5.313V73.686h5.313Zm-5.961,0H106.2V73.686h5.313Zm-5.961,0h-5.313V73.686h5.313Zm-5.961,0H94.274V73.686h5.313Zm-5.961,0H88.314V73.686h5.313Zm-5.961,0h-5.3V73.686h5.3ZM81.7,79h-5.3V73.686h5.3Zm-5.946,0H70.445V73.686h5.313ZM69.8,79H64.484V73.686H69.8Zm-5.961,0H58.523V73.686h5.313Zm-5.961,0H52.562V73.686h5.313Zm-5.961,0H46.6V73.686h5.313Zm-5.961,0H40.641V73.686h5.313Zm-5.961,0H34.68V73.686h5.313Zm-5.961,0H28.719V73.686h5.313Zm-5.961,0H22.758V73.686h5.313ZM153.235,61.128h-5.313V55.815h5.313Zm-5.961,0h-5.313V55.815h5.313Zm-5.961,0H136V55.815h5.313Zm-5.961,0H130.04V55.815h5.313Zm-5.961,0h-5.313V55.815h5.313Zm-5.961,0h-5.313V55.815h5.313Zm-5.961,0h-5.313V55.815h5.313Zm-5.961,0H106.2V55.815h5.313Zm-5.961,0h-5.313V55.815h5.313Zm-5.961,0H94.274V55.815h5.313Zm-5.961,0H88.314V55.815h5.313Zm-5.961,0h-5.3V55.815h5.3Zm-5.961,0h-5.3V55.815h5.3Zm-5.946,0H70.445V55.815h5.313Zm-5.961,0H64.484V55.815H69.8Zm-5.961,0H58.523V55.815h5.313Zm-5.961,0H52.562V55.815h5.313Zm-5.961,0H46.6V55.815h5.313Zm-5.961,0H40.641V55.815h5.313Zm-5.961,0H34.68V55.815h5.313Zm-5.961,0H28.719V55.815h5.313Zm-5.961,0H22.758V55.815h5.313Zm125.164-5.961h-5.313V49.854h5.313Zm-5.961,0h-5.313V49.854h5.313Zm-5.961,0H136V49.854h5.313Zm-5.961,0H130.04V49.854h5.313Zm-5.961,0h-5.313V49.854h5.313Zm-5.961,0h-5.313V49.854h5.313Zm-5.961,0h-5.313V49.854h5.313Zm-5.961,0H106.2V49.854h5.313Zm-5.961,0h-5.313V49.854h5.313Zm-5.961,0H94.274V49.854h5.313Zm-5.961,0H88.314V49.854h5.313Zm-5.961,0h-5.3V49.854h5.3Zm-5.961,0h-5.3V49.854h5.3Zm-5.946,0H70.445V49.854h5.313Zm-5.961,0H64.484V49.854H69.8Zm-5.961,0H58.523V49.854h5.313Zm-5.961,0H52.562V49.854h5.313Zm-5.961,0H46.6V49.854h5.313Zm-5.961,0H40.641V49.854h5.313Zm-5.961,0H34.68V49.854h5.313Zm-5.961,0H28.719V49.854h5.313Zm-5.961,0H22.758V49.854h5.313Zm119.2-5.961h-5.313V43.894h5.313Zm-5.961,0H136V43.894h5.313Zm-5.961,0H130.04V43.894h5.313Zm-5.961,0h-5.313V43.894h5.313Zm-5.961,0h-5.313V43.894h5.313Zm-5.961,0h-5.313V43.894h5.313Zm-5.961,0H106.2V43.894h5.313Zm-5.961,0h-5.313V43.894h5.313Zm-5.961,0H94.274V43.894h5.313Zm-5.961,0H88.314V43.894h5.313Zm-5.961,0h-5.3V43.894h5.3Zm-5.961,0h-5.3V43.894h5.3Zm-5.946,0H70.445V43.894h5.313Zm-5.961,0H64.484V43.894H69.8Zm-5.961,0H58.523V43.894h5.313Zm-5.961,0H52.562V43.894h5.313Zm-5.961,0H46.6V43.894h5.313Zm-5.961,0H40.641V43.894h5.313Zm-5.961,0H34.68V43.894h5.313Zm-5.961,0H28.719V43.894h5.313Zm-5.961,0H22.758V43.894h5.313Zm119.2-5.961h-5.313V37.932h5.313Zm-5.961,0H136V37.932h5.313Zm-5.961,0H130.04V37.932h5.313Zm-5.961,0h-5.313V37.932h5.313Zm-5.961,0h-5.313V37.932h5.313Zm-5.961,0h-5.313V37.932h5.313Zm-5.961,0H106.2V37.932h5.313Zm-5.961,0h-5.313V37.932h5.313Zm-5.961,0H94.274V37.932h5.313Zm-5.961,0H88.314V37.932h5.313Zm-5.961,0h-5.3V37.932h5.3Zm-5.961,0h-5.3V37.932h5.3Zm-5.946,0H70.445V37.932h5.313Zm-5.961,0H64.484V37.932H69.8Zm-5.961,0H58.523V37.932h5.313Zm-5.961,0H52.562V37.932h5.313Zm-5.961,0H46.6V37.932h5.313Zm-5.961,0H40.641V37.932h5.313Zm-5.961,0H34.68V37.932h5.313Zm-5.961,0H28.719V37.932h5.313Zm-5.961,0H22.758V37.932h5.313Zm119.2-5.96h-5.313V31.972h5.313Zm-5.961,0H136V31.972h5.313Zm-5.961,0H130.04V31.972h5.313Zm-5.961,0h-5.313V31.972h5.313Zm-5.961,0h-5.313V31.972h5.313Zm-5.961,0h-5.313V31.972h5.313Zm-5.961,0H106.2V31.972h5.313Zm-5.961,0h-5.313V31.972h5.313Zm-5.961,0H94.274V31.972h5.313Zm-5.961,0H88.314V31.972h5.313Zm-5.961,0h-5.3V31.972h5.3Zm-5.961,0h-5.3V31.972h5.3Zm-5.946,0H70.445V31.972h5.313Zm-5.961,0H64.484V31.972H69.8Zm-5.961,0H58.523V31.972h5.313Zm-5.961,0H52.562V31.972h5.313Zm-5.961,0H46.6V31.972h5.313Zm-5.961,0H40.641V31.972h5.313Zm-5.961,0H34.68V31.972h5.313Zm-5.961,0H28.719V31.972h5.313Zm-5.961,0H22.758V31.972h5.313Zm119.2-5.961h-5.313V26.011h5.313Zm-5.961,0H136V26.011h5.313Zm-5.961,0H130.04V26.011h5.313Zm-5.961,0h-5.313V26.011h5.313Zm-5.961,0h-5.313V26.011h5.313Zm-5.961,0h-5.313V26.011h5.313Zm-5.961,0H106.2V26.011h5.313Zm-5.961,0h-5.313V26.011h5.313Zm-5.961,0H94.274V26.011h5.313Zm-5.961,0H88.314V26.011h5.313Zm-5.961,0h-5.3V26.011h5.3Zm-5.961,0h-5.3V26.011h5.3Zm-5.946,0H70.445V26.011h5.313Zm-5.961,0H64.484V26.011H69.8Zm-5.961,0H58.523V26.011h5.313Zm-5.961,0H52.562V26.011h5.313Zm-5.961,0H46.6V26.011h5.313Zm-5.961,0H40.641V26.011h5.313Zm-5.961,0H34.68V26.011h5.313Zm-5.961,0H28.719V26.011h5.313Zm-5.961,0H22.758V26.011h5.313Zm113.243-5.961H136V20.05h5.313Zm-5.961,0H130.04V20.05h5.313Zm-5.961,0h-5.313V20.05h5.313Zm-5.961,0h-5.313V20.05h5.313Zm-5.961,0h-5.313V20.05h5.313Zm-5.961,0H106.2V20.05h5.313Zm-5.961,0h-5.313V20.05h5.313Zm-5.961,0H94.274V20.05h5.313Zm-5.961,0H88.314V20.05h5.313Zm-5.961,0h-5.3V20.05h5.3Zm-5.961,0h-5.3V20.05h5.3Zm-5.946,0H70.445V20.05h5.313Zm-5.961,0H64.484V20.05H69.8Zm-5.961,0H58.523V20.05h5.313Zm-5.961,0H52.562V20.05h5.313Zm-5.961,0H46.6V20.05h5.313Zm-5.961,0H40.641V20.05h5.313Zm-5.961,0H34.68V20.05h5.313Zm-5.961,0H28.719V20.05h5.313Zm-5.961,0H22.758V20.05h5.313ZM141.314,19.4H136V14.089h5.313Zm-5.961,0H130.04V14.089h5.313Zm-5.961,0h-5.313V14.089h5.313Zm-5.961,0h-5.313V14.089h5.313Zm-5.961,0h-5.313V14.089h5.313Zm-5.961,0H106.2V14.089h5.313Zm-5.961,0h-5.313V14.089h5.313Zm-5.961,0H94.274V14.089h5.313Zm-5.961,0H88.314V14.089h5.313Zm-5.961,0h-5.3V14.089h5.3Zm-5.961,0h-5.3V14.089h5.3Zm-5.946,0H70.445V14.089h5.313Zm-5.961,0H64.484V14.089H69.8Zm-5.961,0H58.523V14.089h5.313Zm-5.961,0H52.562V14.089h5.313Zm-5.961,0H46.6V14.089h5.313Zm-5.961,0H40.641V14.089h5.313Zm-5.961,0H34.68V14.089h5.313Zm-5.961,0H28.719V14.089h5.313Zm-5.961,0H22.758V14.089h5.313Zm113.243-5.961H136V8.128h5.313Zm-5.961,0H130.04V8.128h5.313Zm-5.961,0h-5.313V8.128h5.313Zm-5.961,0h-5.313V8.128h5.313Zm-5.961,0h-5.313V8.128h5.313Zm-5.961,0H106.2V8.128h5.313Zm-5.961,0h-5.313V8.128h5.313Zm-5.961,0H94.274V8.128h5.313Zm-5.961,0H88.314V8.128h5.313Zm-5.961,0h-5.3V8.128h5.3Zm-5.961,0h-5.3V8.128h5.3Zm-5.946,0H70.445V8.128h5.313Zm-5.961,0H64.484V8.128H69.8Zm-5.961,0H58.523V8.128h5.313Zm-5.961,0H52.562V8.128h5.313Zm-5.961,0H46.6V8.128h5.313Zm-5.961,0H40.641V8.128h5.313Zm-5.961,0H34.68V8.128h5.313Zm-5.961,0H28.719V8.128h5.313Zm-5.961,0H22.758V8.128h5.313Z" transform="translate(-1.166 -0.824)" fill="#fff" fill-rule="evenodd"/>
        <path id="Trazado_1259328" data-name="Trazado 1259328" d="M184.608,18a4.158,4.158,0,1,0-4.158-4.158A4.166,4.166,0,0,0,184.608,18" transform="translate(-49.773 -2.672)" fill="#c957bc" fill-rule="evenodd"/>
        <path id="Trazado_1259329" data-name="Trazado 1259329" d="M209.093,174.919a4.158,4.158,0,1,0-4.158-4.158,4.166,4.166,0,0,0,4.158,4.158" transform="translate(-56.527 -45.954)" fill="#c957bc" fill-rule="evenodd"/>
        <path id="Trazado_1259330" data-name="Trazado 1259330" d="M71.205,61.133l-3.064-24.51a.664.664,0,0,1,.469-.724A135.6,135.6,0,0,1,98.623,29.24a212.253,212.253,0,0,1,34.352-.851.673.673,0,0,1,.638.638c.84,16.737,1.929,33.641,4.4,50.224,2.067,13.9,5.284,29.007,11.439,41.709a.672.672,0,0,1-.312.9.645.645,0,0,1-.3.066L140.65,122c-15.586.143-31.158.311-46.735.9-17.906.675-35.76,1.893-53.574,3.842a.678.678,0,0,1-.742-.621v-.062a130.589,130.589,0,0,0-4.13-31.075c-2.435-9.813-5.706-19.372-9-28.92a.676.676,0,0,1,.446-.862l.1-.022.018,0c5.926-.655,11.461-2.542,15.528-7.079,3.223-3.6,4.942-8.158,6.471-12.661a.671.671,0,0,1,.851-.421.652.652,0,0,1,.2.108q10.549,8.029,21.131,16.014M28,66.408c3.218,9.326,6.391,18.667,8.768,28.251a132.528,132.528,0,0,1,4.162,30.665c17.654-1.912,35.347-3.109,53.09-3.774,15.538-.583,31.069-.75,46.615-.892l7.147-.065c-5.922-12.628-9.065-27.427-11.105-41.144-2.443-16.427-3.538-33.166-4.377-49.747a210.009,210.009,0,0,0-33.532.875,134.763,134.763,0,0,0-29.228,6.419l3.194,25.551a.672.672,0,0,1-1.072.618Q60.817,54.973,49.994,46.746c-1.523,4.4-3.286,8.723-6.441,12.243-4.1,4.578-9.581,6.638-15.549,7.419" transform="translate(-7.289 -7.742)" fill="#752092" fill-rule="evenodd"/>
        <path id="Trazado_1259331" data-name="Trazado 1259331" d="M35.308,70.771a.364.364,0,0,0-.689.235l.468,1.379a.364.364,0,0,0,.69-.234Zm.592-.5c.463-.125.923-.265,1.378-.413a.365.365,0,0,1,.225.694c-.467.15-.936.293-1.41.421a.364.364,0,0,1-.193-.7m3.4-1.156a.364.364,0,0,0,.278.673c.445-.18.923-.385,1.351-.6a.364.364,0,0,0-.316-.656c-.416.209-.88.408-1.312.583m3.212-1.595a.365.365,0,0,0,.374.626c.424-.25.841-.515,1.248-.792a.364.364,0,0,0-.41-.6c-.395.268-.8.524-1.213.767m2.936-2.054a.364.364,0,0,0,.464.561c.38-.314.751-.637,1.112-.975.337-.269-.085-.862-.5-.532-.35.326-.709.639-1.078.945m2.585-2.483a.364.364,0,0,0,.542.487c.327-.351.658-.752.955-1.128a.364.364,0,0,0-.568-.456c-.293.366-.61.754-.929,1.1m2.208-2.831a.364.364,0,0,0,.554.466l.049-.059c.277-.408.539-.819.8-1.237a.364.364,0,0,0-.622-.379c-.253.408-.511.811-.781,1.209M52.1,57.063a.364.364,0,0,0,.644.341c.232-.43.452-.871.665-1.311a.364.364,0,0,0-.656-.316c-.209.432-.426.865-.652,1.287m2.207-3.015a.366.366,0,0,0-.5.054.362.362,0,0,0,.057.526c.389.283.776.588,1.16.88a.364.364,0,0,0,.456-.568c-.372-.3-.79-.612-1.176-.893m2.9,2.2a.364.364,0,0,0-.455.568c.382.306.79.59,1.176.892a.368.368,0,0,0,.5-.054.363.363,0,0,0-.057-.526Zm2.9,2.2a.364.364,0,1,0-.44.581l1.162.879a.364.364,0,1,0,.44-.581Zm2.9,2.2a.364.364,0,0,0-.44.581l1.162.88a.368.368,0,0,0,.267.07.364.364,0,0,0,.172-.652c-.389-.29-.773-.588-1.162-.879m2.9,2.2a.364.364,0,1,0-.44.581l1.162.878a.368.368,0,0,0,.5-.054.363.363,0,0,0-.057-.526Zm2.905,2.2a.368.368,0,0,0-.268-.07.364.364,0,0,0-.172.652l1.162.879a.364.364,0,0,0,.44-.582Zm2.905,2.2a.367.367,0,0,0-.5.054.363.363,0,0,0,.057.526l1.162.879a.364.364,0,0,0,.44-.582Zm2.905,2.2a.37.37,0,0,0-.268-.07.364.364,0,0,0-.172.652l1.162.878a.364.364,0,0,0,.439-.581Zm2.9,2.2a.364.364,0,0,0-.439.582l1.162.878a.364.364,0,0,0,.44-.582Zm1.791,1.61a.364.364,0,0,0,.723-.091l-.182-1.446a.364.364,0,0,0-.722.091Zm-.453-3.615a.364.364,0,0,0,.723-.091l-.18-1.445a.364.364,0,0,0-.723.091Zm-.452-3.614a.364.364,0,0,0,.723-.091l-.181-1.445a.364.364,0,0,0-.723.091ZM77.973,62.4a.364.364,0,0,0,.723-.09l-.18-1.446a.364.364,0,0,0-.723.091Zm-.451-3.614a.364.364,0,0,0,.722-.091l-.18-1.445a.364.364,0,0,0-.723.09ZM77.07,55.17a.364.364,0,0,0,.723-.091l-.181-1.445a.364.364,0,0,0-.723.091Zm-.452-3.614a.364.364,0,0,0,.723-.091l-.18-1.445a.364.364,0,0,0-.723.091Zm-.451-3.614a.364.364,0,0,0,.722-.091l-.18-1.446a.364.364,0,0,0-.723.091Zm-.452-3.614a.364.364,0,0,0,.723-.09l-.181-1.446a.364.364,0,0,0-.723.091Zm.348-3.656a.364.364,0,0,0,.218.7c.458-.144.935-.276,1.388-.427a.364.364,0,0,0-.208-.7c-.462.126-.939.285-1.4.429m3.5-1.041a.364.364,0,0,0,.195.7l1.4-.384a.364.364,0,0,0-.187-.7ZM83.1,38.7a.364.364,0,0,0,.175.708l1.412-.342a.364.364,0,0,0-.167-.708Zm3.558-.828a.364.364,0,0,0,.154.712c.472-.1.948-.209,1.422-.3a.364.364,0,0,0-.146-.714Zm3.578-.729a.364.364,0,0,0,.134.716l1.43-.264a.364.364,0,0,0-.128-.717Zm3.6-.634a.364.364,0,0,0,.117.719L95.381,37a.364.364,0,0,0-.109-.721Zm3.61-.545a.364.364,0,0,0,.1.722l1.441-.192a.364.364,0,0,0-.093-.723Zm3.622-.458a.364.364,0,0,0,.083.723l1.445-.159a.364.364,0,0,0-.077-.724Zm3.63-.377a.364.364,0,0,0,.067.726l1.448-.128a.364.364,0,0,0-.061-.726Zm3.638-.3a.364.364,0,0,0,.052.726l1.451-.1a.364.364,0,0,0-.046-.727Zm3.643-.227a.364.364,0,0,0,.037.728l1.453-.07a.364.364,0,0,0-.033-.728Zm3.645-.156a.364.364,0,0,0,.025.728c.484-.009.97-.03,1.454-.043a.365.365,0,0,0-.019-.729c-.486.014-.975.035-1.46.044m3.648-.09a.364.364,0,0,0,.011.729l1.454-.018a.364.364,0,0,0-.006-.729Zm3.648-.027a.364.364,0,0,0,0,.728l1.455.007a.364.364,0,0,0,.006-.729Zm3.648.032a.364.364,0,0,0-.013.729L128,35.12a.364.364,0,0,0,.017-.729Zm3.646.089a.364.364,0,0,0-.023.727l.641.021.008.146a.364.364,0,0,0,.728-.035l-.025-.466a.144.144,0,0,0-.034-.05l.033.033-.017-.332Zm1.472,3.039a.364.364,0,0,0-.727.04l.082,1.456a.364.364,0,0,0,.727-.042Zm.208,3.635a.364.364,0,0,0-.727.043c.028.473.041.988.087,1.455a.364.364,0,0,0,.727-.045Zm.222,3.634a.364.364,0,0,0-.727.046c.027.484.06.97.093,1.454a.364.364,0,0,0,.727-.047c-.033-.484-.067-.97-.093-1.453m.238,3.633a.364.364,0,0,0-.727.049l.1,1.453a.365.365,0,0,0,.728-.05Zm.257,3.631a.364.364,0,0,0-.726.053l.109,1.454a.364.364,0,1,0,.726-.055Zm.279,3.629a.364.364,0,1,0-.726.059l.119,1.453A.364.364,0,0,0,133,57.1Zm.3,3.627a.364.364,0,0,0-.726.064l.13,1.452a.364.364,0,0,0,.726-.066Zm.332,3.624a.364.364,0,0,0-.726.069l.141,1.451a.364.364,0,0,0,.724-.072Zm.36,3.621a.364.364,0,0,0-.725.075l.154,1.451a.364.364,0,0,0,.724-.078Zm.393,3.617a.364.364,0,0,0-.724.083l.167,1.449a.364.364,0,0,0,.723-.085Zm.428,3.613a.364.364,0,0,0-.723.091l.182,1.447a.364.364,0,0,0,.723-.093Zm.466,3.609a.364.364,0,0,0-.722.1l.2,1.445a.364.364,0,0,0,.721-.1Zm.507,3.6a.364.364,0,0,0-.721.106l.215,1.443a.364.364,0,0,0,.721-.109Zm.552,3.6a.364.364,0,0,0-.72.114c.073.478.15.963.234,1.44a.364.364,0,0,0,.718-.119c-.083-.475-.159-.958-.232-1.435m.6,3.588a.364.364,0,0,0-.718.125l.254,1.437a.364.364,0,0,0,.717-.129Zm.65,3.577a.364.364,0,0,0-.715.136l.277,1.434a.364.364,0,0,0,.714-.141c-.1-.474-.187-.953-.275-1.429m.708,3.567a.364.364,0,0,0-.713.149c.1.476.2.953.3,1.427a.364.364,0,0,0,.712-.154c-.105-.472-.2-.949-.3-1.423m.773,3.553a.364.364,0,0,0-.71.161l.33,1.423a.364.364,0,1,0,.709-.168Zm.845,3.535a.364.364,0,0,0-.707.177c.108.468.237.951.361,1.415a.364.364,0,0,0,.7-.184c-.121-.465-.251-.94-.359-1.408m.924,3.514a.364.364,0,0,0-.7.193l.4,1.406a.364.364,0,0,0,.7-.2Zm1.011,3.488a.364.364,0,0,0-.7.213c.125.457.287.942.433,1.395a.364.364,0,0,0,.694-.22c-.144-.453-.306-.931-.431-1.388m1.107,3.459a.364.364,0,0,0-.691.232l.474,1.382a.364.364,0,0,0,.687-.241c-.161-.455-.317-.915-.471-1.374m1.21,3.423a.364.364,0,0,0-.682.255q.253.684.519,1.366a.364.364,0,0,0,.679-.263q-.263-.678-.516-1.358m-.454,2.92a.364.364,0,0,0-.007-.729l-1.457.013a.365.365,0,0,0,.007.729Zm-3.642.034a.364.364,0,0,0-.007-.729l-1.457.014a.364.364,0,0,0,.007.729Zm-3.642.035a.364.364,0,0,0-.008-.729l-1.455.014a.365.365,0,0,0,.005.729Zm-3.642.038a.364.364,0,0,0-.008-.729c-.485,0-.973.007-1.458.016a.364.364,0,0,0,.009.729c.484-.009.972-.012,1.457-.016m-3.642.041a.364.364,0,0,0-.009-.729c-.484,0-.973.011-1.458.017a.364.364,0,0,0,.009.729c.484-.007.973-.017,1.457-.017m-3.642.046a.364.364,0,0,0-.009-.729l-1.457.02a.364.364,0,0,0,.01.729Zm-3.641.053a.364.364,0,0,0-.011-.729l-1.457.023a.364.364,0,0,0,.012.728Zm-3.64.059a.364.364,0,0,0-.014-.729c-.484.008-.973.013-1.456.027a.364.364,0,0,0,.013.729c.484-.014.972-.019,1.457-.027m-3.641.069a.364.364,0,0,0-.014-.729c-.485.006-.972.02-1.457.03a.364.364,0,0,0,.015.729c.484-.011.972-.025,1.456-.03m-3.64.079a.364.364,0,0,0-.016-.729l-1.458.034a.364.364,0,0,0,.018.729Zm-3.64.089a.364.364,0,0,0-.02-.729l-1.457.04a.364.364,0,0,0,.021.728Zm-3.64.1a.364.364,0,0,0-.022-.729l-1.457.045a.364.364,0,0,0,.023.728Zm-3.639.116a.364.364,0,0,0-.025-.728l-1.456.05a.364.364,0,0,0,.025.728Zm-3.639.13a.364.364,0,0,0-.027-.728l-1.457.056a.364.364,0,0,0,.029.727Zm-3.638.145a.364.364,0,0,0-.03-.728l-1.456.062a.364.364,0,0,0,.032.728Zm-3.638.159a.364.364,0,0,0-.033-.728l-1.456.068a.364.364,0,0,0,.035.728Zm-3.636.175a.364.364,0,0,0-.037-.728l-1.456.075a.364.364,0,0,0,.038.728Zm-3.636.191a.364.364,0,0,0-.039-.728l-1.456.081a.364.364,0,0,0,.041.727Zm-3.635.206a.364.364,0,0,0-.043-.727l-1.455.088a.364.364,0,0,0,.044.727Zm-3.633.224a.364.364,0,0,0-.047-.727c-.484.03-.971.057-1.454.094a.364.364,0,0,0,.048.727c.482-.038.97-.064,1.453-.094m-3.632.24a.364.364,0,0,0-.051-.726l-1.454.1a.364.364,0,0,0,.051.727Zm-3.632.258a.364.364,0,0,0-.054-.726l-1.453.108a.364.364,0,1,0,.054.726Zm-3.63.275a.364.364,0,1,0-.057-.726c-.484.034-.969.075-1.453.115a.364.364,0,1,0,.058.726c.483-.04.968-.081,1.452-.115m-3.629.293a.364.364,0,0,0-.06-.726l-1.453.122a.364.364,0,0,0,.062.726Zm-3.627.311a.364.364,0,0,0-.064-.726l-1.452.13a.364.364,0,0,0,.066.726Zm-3.625.33a.364.364,0,0,0-.068-.726l-1.451.138a.364.364,0,0,0,.069.725Zm-3.624.348a.364.364,0,0,0-.072-.725l-1.451.145a.364.364,0,0,0,.074.725Zm-2.836-1.357a.364.364,0,0,0,.728-.04c-.025-.486-.056-.973-.088-1.458a.364.364,0,0,0-.727.048c.032.483.062.967.087,1.451m-.251-3.623a.364.364,0,0,0,.726-.061q-.06-.728-.131-1.456a.364.364,0,0,0-.725.07c.045.482.091.965.13,1.447m-.358-3.614a.364.364,0,0,0,.723-.083c-.054-.479-.1-.977-.174-1.451a.364.364,0,0,0-.723.092c.083.437.122.99.173,1.442m-.462-3.6a.364.364,0,0,0,.721-.1c-.067-.482-.138-.965-.214-1.445a.364.364,0,0,0-.72.112Zm-.56-3.59a.364.364,0,0,0,.718-.122c-.075-.479-.166-.961-.251-1.439a.364.364,0,0,0-.717.129c.085.475.176.955.25,1.432m-.652-3.574a.364.364,0,0,0,.715-.14c-.093-.477-.187-.955-.287-1.432a.364.364,0,0,0-.713.147Zm-.739-3.558a.364.364,0,0,0,.712-.156c-.094-.473-.212-.954-.319-1.425a.364.364,0,0,0-.71.163c.107.469.223.948.317,1.419m-.817-3.542a.364.364,0,1,0,.708-.171l-.349-1.418a.364.364,0,0,0-.706.177Zm-.888-3.525a.364.364,0,0,0,.7-.185l-.375-1.41a.364.364,0,0,0-.7.19c.13.466.251.937.374,1.406m-.953-3.509a.364.364,0,0,0,.7-.2l-.4-1.4a.364.364,0,0,0-.7.2Zm-1.009-3.494a.364.364,0,0,0,.7-.207l-.419-1.4a.364.364,0,0,0-.7.211c.15.451.282.935.417,1.393m-1.057-3.481a.364.364,0,0,0,.7-.216l-.435-1.392a.364.364,0,0,0-.694.219Zm-1.1-3.468a.364.364,0,0,0,.693-.224l-.449-1.388a.365.365,0,0,0-.693.227Zm-1.13-3.459a.364.364,0,0,0,.691-.23l-.46-1.383a.364.364,0,0,0-.691.231Z" transform="translate(-9.543 -9.47)" fill="#c957bc" fill-rule="evenodd"/>
        <path id="Trazado_1259332" data-name="Trazado 1259332" d="M111.976,17.9a.911.911,0,0,0-1.821-.041v3.683a.911.911,0,0,0,1.821.041Zm-1.821,112.91a.911.911,0,0,0,1.821.041v-3.683a.911.911,0,0,0-1.821-.041Zm0-9.106a.911.911,0,0,0,1.821.041v-3.683a.911.911,0,0,0-1.821-.041Zm0-9.1a.911.911,0,0,0,1.821.041v-3.683a.911.911,0,0,0-1.821-.041Zm0-9.106a.911.911,0,0,0,1.821.041V99.846a.911.911,0,0,0-1.821-.041Zm0-9.106a.911.911,0,0,0,1.821.041V90.74a.911.911,0,0,0-1.821-.041Zm0-9.106a.911.911,0,0,0,1.821.041V81.635a.911.911,0,0,0-1.821-.041Zm0-9.106a.911.911,0,0,0,1.821.041V72.529a.911.911,0,0,0-1.821-.041Zm0-9.106a.911.911,0,0,0,1.821.041V63.423a.911.911,0,0,0-1.821-.041Zm0-9.106a.911.911,0,0,0,1.821.041V54.318a.911.911,0,0,0-1.821-.041Zm0-9.1a.911.911,0,0,0,1.821.041V45.212a.911.911,0,0,0-1.821-.041Zm0-9.106a.911.911,0,0,0,1.821.041V36.107a.911.911,0,0,0-1.821-.041Zm0-9.106a.911.911,0,0,0,1.821.041V27a.911.911,0,0,0-1.821-.041Z" transform="translate(-30.384 -4.687)" fill="#c957bc" fill-rule="evenodd"/>
        <path id="Trazado_1259333" data-name="Trazado 1259333" d="M151.658,96.762a.911.911,0,0,0,.041-1.821h-3.683a.911.911,0,0,0-.041,1.821ZM20.537,94.941a.911.911,0,0,0-.041,1.821h3.683a.911.911,0,0,0,.041-1.821Zm9.1,0a.911.911,0,0,0-.041,1.821h3.683a.911.911,0,0,0,.041-1.821Zm9.106,0a.911.911,0,0,0-.041,1.821H42.39a.911.911,0,0,0,.041-1.821Zm9.106,0a.911.911,0,0,0-.041,1.821H51.5a.911.911,0,0,0,.041-1.821Zm9.106,0a.911.911,0,0,0-.041,1.821H60.6a.911.911,0,0,0,.041-1.821Zm9.106,0a.911.911,0,0,0-.041,1.821h3.684a.911.911,0,0,0,.041-1.821Zm9.106,0a.911.911,0,0,0-.041,1.821h3.684a.911.911,0,0,0,.041-1.821Zm9.106,0a.911.911,0,0,0-.041,1.821h3.684a.911.911,0,0,0,.041-1.821Zm9.106,0a.911.911,0,0,0-.041,1.821h3.683a.911.911,0,0,0,.041-1.821Zm9.106,0a.911.911,0,0,0-.041,1.821h3.683a.911.911,0,0,0,.041-1.821Zm9.106,0a.911.911,0,0,0-.041,1.821h3.683a.911.911,0,0,0,.041-1.821Zm9.106,0a.911.911,0,0,0-.041,1.821h3.683a.911.911,0,0,0,.041-1.821Zm9.106,0a.911.911,0,0,0-.041,1.821h3.683a.911.911,0,0,0,.041-1.821Zm9.1,0a.911.911,0,0,0-.041,1.821h3.683a.911.911,0,0,0,.042-1.821Z" transform="translate(-5.416 -26.188)" fill="#c957bc" fill-rule="evenodd"/>
        <path id="Trazado_1259334" data-name="Trazado 1259334" d="M11.079,22.415a4.158,4.158,0,1,0-4.158-4.158,4.166,4.166,0,0,0,4.158,4.158" transform="translate(-1.909 -3.889)" fill="#c957bc" fill-rule="evenodd"/>
        <path id="Trazado_1259335" data-name="Trazado 1259335" d="M23.056,180.242a4.158,4.158,0,1,0-4.158-4.158,4.166,4.166,0,0,0,4.158,4.158" transform="translate(-5.213 -47.422)" fill="#c957bc" fill-rule="evenodd"/>
      </g>
    </g>
  </g>
</svg>
