<svg xmlns="http://www.w3.org/2000/svg" width="94.371" height="89.054" viewBox="0 0 94.371 89.054">
  <g id="Grupo_1204651" data-name="Grupo 1204651" transform="translate(-696.711 -8508)">
    <rect id="Rect치ngulo_454933" data-name="Rect치ngulo 454933" width="94" height="81.3" transform="translate(697.082 8515.754)" fill="none"/>
    <rect id="Rect치ngulo_455132" data-name="Rect치ngulo 455132" width="84" height="84" rx="18" transform="translate(696.711 8508)" fill="#6e2370"/>
    <g id="maniqui" transform="translate(578.158 8515.306)">
      <path id="Trazado_1268499" data-name="Trazado 1268499" d="M175.025,13.36l-.434-1.911a4.953,4.953,0,0,0-3.47-3.666l-5.076-1.45a1.659,1.659,0,0,1-1.2-1.588V1.652A1.653,1.653,0,0,0,163.195,0H157.91a1.653,1.653,0,0,0-1.652,1.652V4.745a1.659,1.659,0,0,1-1.2,1.588l-1.19.34a.991.991,0,1,0,.544,1.905l1.19-.34a3.649,3.649,0,0,0,2.635-3.493V1.982h4.624V4.745A3.649,3.649,0,0,0,165.5,8.239l5.076,1.45a2.972,2.972,0,0,1,2.082,2.2l.434,1.911a.33.33,0,0,1-.322.4,5.894,5.894,0,0,0-5.229,3.157l-.875,1.662a7.587,7.587,0,0,0-.879,3.637h-10.47a7.585,7.585,0,0,0-.879-3.637l-.875-1.662a5.894,5.894,0,0,0-5.229-3.157.33.33,0,0,1-.322-.4l.434-1.911a2.988,2.988,0,0,1,1.678-2.052.991.991,0,1,0-.814-1.807,4.98,4.98,0,0,0-2.8,3.42l-.434,1.911a2.312,2.312,0,0,0,2.255,2.824,3.917,3.917,0,0,1,3.475,2.1l.875,1.662a5.583,5.583,0,0,1-.119,5.445,21.411,21.411,0,0,0-2.914,10.777V39.9a2.315,2.315,0,0,0,2.312,2.312h2.048v.33a3.637,3.637,0,0,0,3.567,3.632v4.494a.991.991,0,0,0,1.982,0V46.177h1.982V61.7h-1.982V55.293a.991.991,0,0,0-1.982,0V61.7h-6.012a3.637,3.637,0,0,0-3.633,3.633v.661a1.653,1.653,0,0,0,1.652,1.652h21.932a1.653,1.653,0,0,0,1.652-1.652v-.661a3.637,3.637,0,0,0-3.633-3.633h-6.012V46.175a3.637,3.637,0,0,0,3.567-3.632v-.33h2.048a2.315,2.315,0,0,0,2.312-2.312V36.167a21.451,21.451,0,0,0-.124-2.3.991.991,0,1,0-1.97.213,19.5,19.5,0,0,1,.113,2.088V39.9a.331.331,0,0,1-.33.33H151.965a.331.331,0,0,1-.33-.33V36.167a19.428,19.428,0,0,1,2.644-9.779,7.664,7.664,0,0,0,.748-1.748h11.054a7.666,7.666,0,0,0,.748,1.747,19.455,19.455,0,0,1,1.585,3.457.991.991,0,1,0,1.874-.646,21.444,21.444,0,0,0-1.747-3.809,5.583,5.583,0,0,1-.119-5.444l.875-1.662a3.917,3.917,0,0,1,3.475-2.1,2.312,2.312,0,0,0,2.255-2.825Zm-3.836,51.974v.33H149.917v-.33a1.653,1.653,0,0,1,1.652-1.652h17.969A1.653,1.653,0,0,1,171.188,65.334Zm-6.078-22.791a1.653,1.653,0,0,1-1.652,1.652h-5.813a1.653,1.653,0,0,1-1.652-1.652v-.33h9.116Z" fill="#fff"/>
    </g>
  </g>
</svg>
