<svg xmlns="http://www.w3.org/2000/svg" xmlns:xlink="http://www.w3.org/1999/xlink" width="974.813" height="454.188" viewBox="0 0 974.813 454.188">
  <defs>
    <clipPath id="clip-path">
      <rect id="Rectángulo_455280" data-name="Rectángulo 455280" width="96.251" height="452.862" fill="none"/>
    </clipPath>
    <clipPath id="clip-path-2">
      <rect id="Rectángulo_455281" data-name="Rectángulo 455281" width="91.519" height="454.187" fill="none"/>
    </clipPath>
    <clipPath id="clip-path-3">
      <rect id="Rectángulo_455282" data-name="Rectángulo 455282" width="96.062" height="452.389" fill="none"/>
    </clipPath>
    <clipPath id="clip-path-4">
      <rect id="Rectángulo_455283" data-name="Rectángulo 455283" width="88.68" height="454.187" fill="none"/>
    </clipPath>
    <clipPath id="clip-path-5">
      <rect id="Rectángulo_455284" data-name="Rectángulo 455284" width="98.522" height="452.862" fill="none"/>
    </clipPath>
  </defs>
  <g id="Grupo_1204649" data-name="Grupo 1204649" transform="translate(-310.315 -9075.094)">
    <g id="Grupo_1113518" transform="translate(310.314 9075.094)">
      <g id="Grupo_1113498" transform="translate(425.984)">
        <path id="Polígono_8" d="M550.3,475.317,523.8,413.8h53Z" transform="translate(-454.049 -22.172)" fill="#752092"/>
        <g id="Grupo_1113457">
          <g id="Grupo_1204175" data-name="Grupo 1204175" clip-path="url(#clip-path)">
            <g id="Grupo_1113456" transform="translate(-0.044 0.173)">
              <path id="Trazado_894995" d="M465.2,186.078a59.219,59.219,0,0,1,6.909-17.225c2.934-5.3,5.205-10.978,5.584-17.13.095-1.893.473-3.786.662-5.679a26.167,26.167,0,0,0-1.325-11.452c-1.609-4.732-3.029-9.464-4.543-14.2v-.473c1.514-3.029,1.609-6.814,4.543-9.18a24.606,24.606,0,0,1,10.6-4.827,31.248,31.248,0,0,1,7.287-.757A20,20,0,0,1,504.95,107.9c1.7.946,3.5,2.461,5.773,1.325,2.65-1.325,5.205-2.65,7.855-3.786a13.572,13.572,0,0,1,9.464-.284,1.939,1.939,0,0,1,1.514,1.42,24.213,24.213,0,0,1,.568,13.723c-.946,4.07-3.218,7.666-4.922,11.357-1.609,3.6-2.839,7.193-2.65,11.262,0,1.609-.284,3.218-.284,4.732-.095,4.543,1.42,8.707,3.123,12.871,2.745,6.53,6.341,12.587,9.464,18.834,1.7,3.407,1.325,6.246-.189,9.37a92.75,92.75,0,0,1-7,10.884c-3.975,5.773-9.086,10.6-13.723,15.9a36.175,36.175,0,0,1-11.073,8.9c-.379.189-.852.379-1.23.568-1.325.568-2.082.473-2.745-1.23a76.239,76.239,0,0,0-10.411-17.793,61.189,61.189,0,0,0-6.909-7.95,77.023,77.023,0,0,0-14.2-10.6c-.663-.379-1.514-.284-2.082-.946" transform="translate(-450.865 -5.769)" fill="#fdd6cf"/>
              <path id="Trazado_894996" d="M462.443,74.932c-5.678-5.395-4.827-12.02.946-16.752,4.353-3.6,9.275-4.164,14.48-3.786a9.364,9.364,0,0,1,6.341,3.691c1.325,1.609,2.555,2.745,4.732,2.366.852-.189,1.893.189,1.609,1.23-.473,1.609,0,3.218,0,4.732a6.071,6.071,0,0,1-1.609,4.354,21.626,21.626,0,0,1-8.423,6.057c-3.312,1.325-6.72,1.8-10.127,2.65-3.312.757-6.72,1.609-8.991,4.543-.663.852-1.42,1.514-2.461.946-1.136-.568-1.136-1.609-.946-2.745a12.5,12.5,0,0,1,4.353-7.287" transform="translate(-450.474 -3.082)" fill="#eacbc7"/>
              <path id="Trazado_894997" d="M539.97,61.935a9.806,9.806,0,0,1-.662,3.691,4.077,4.077,0,0,0,1.041,4.543,7.585,7.585,0,0,1,.663,10.221c-1.041,1.42-2.934,2.177-4.543,3.123a1.426,1.426,0,0,1-1.8-.662,2.663,2.663,0,0,0-2.271-1.23,6.054,6.054,0,0,1-3.5-1.23,2.173,2.173,0,0,0-1.325-.379,17.7,17.7,0,0,1-11.83-4.637,12.346,12.346,0,0,1-4.448-11.168c.663-5.016,4.638-6.057,8.707-4.448a6.265,6.265,0,0,0,7.571-2.271c2.839-4.637,6.719-4.827,10.411-1.42,1.7,1.609,1.8,3.88,1.987,6.057" transform="translate(-453.329 -3.052)" fill="#eacbc7"/>
              <path id="Trazado_895000" d="M490.794,16.383c-1.136-1.7-.852-3.218.852-5.205,3.029-3.407,8.518-3.5,12.209,0a17.629,17.629,0,0,1,5.395,12.587c.095,2.934-.379,5.962.379,8.9,1.23,5.111,3.975,9.086,9.086,10.978a4.266,4.266,0,0,0,3.975-.568c.473-.284,1.041-.662,1.7-1.041-.663,1.7-1.609,2.177-4.638,2.555,1.23,1.325,2.839,1.987,4.259,2.934a6.414,6.414,0,0,1,2.65,2.839,5.914,5.914,0,0,1-3.123,6.814,18.056,18.056,0,0,0-3.88,2.271c-2.082,1.609-3.312,4.259-.284,6.53a4.112,4.112,0,0,0,.662.568c2.177,1.7,2.082,3.6,0,5.205-.284-.379,0-.568.189-.757,1.514-2.555,1.609-2.839-.946-4.543-3.407-2.271-2.555-6.436.663-8.423a16.792,16.792,0,0,1,3.123-1.8A4.85,4.85,0,0,0,526,51.779c0-1.609-1.23-2.745-2.65-3.6a14.925,14.925,0,0,1-4.164-3.5c-.662-.852-1.987-1.136-3.218-1.8a29.414,29.414,0,0,1-6.719,12.966c-.095.095-.284.284-.284.379-.189,4.164-1.23,8.328.757,12.3,1.8,3.5,5.016,5.016,8.328,6.152,3.123,1.041,6.53,1.7,9.748,2.555,5.3,1.42,9.938,7.1,10.411,12.777a234.025,234.025,0,0,0,5.111,32.462,140.093,140.093,0,0,1,3.218,20.821c.568,6.436-2.271,11.357-5.962,15.9a88.847,88.847,0,0,1-7.95,8.9,89.624,89.624,0,0,1,4.732,10.695c1.609,4.448,2.271,9.086,3.5,13.628a82.926,82.926,0,0,1,2.366,19.307,180.569,180.569,0,0,1-.473,18.928,118,118,0,0,1-2.177,14.1c-1.893,9.937-4.921,19.591-7.95,29.244-2.745,8.991-5.868,17.887-8.234,27.068,0,.189-.189.284-.189.473,0,5.205-.662,10.411.189,15.616,1.609,9.559,1.23,18.928-2.177,28.2-3.029,8.139-6.246,16.184-9.37,24.323-2.177,5.868-4.543,11.641-6.814,17.509-1.609,4.164-2.461,8.612-3.6,12.966-.757,2.839-1.23,5.679-1.893,8.518a13.191,13.191,0,0,0,.189,4.732c1.23,7.666,3.691,14.953,6.152,22.241a37.45,37.45,0,0,1,2.082,12.114c0,2.745-1.514,3.88-5.489,4.827-2.934.662-5.584-.473-8.328-1.514a19.6,19.6,0,0,1-7.477-4.827,6.3,6.3,0,0,1-1.988-4.921,93.856,93.856,0,0,1,1.42-11.546,40.382,40.382,0,0,0,.379-13.912c-.473-2.934,0-5.962-.473-8.991-.852-6.246-1.514-12.587-2.082-18.928-.379-3.6-1.136-7.193-1.7-10.789-1.041-6.909-2.271-13.818-3.029-20.821-.946-8.045-1.8-16.089-2.366-24.134a118.477,118.477,0,0,1-.189-20.064,49.1,49.1,0,0,1,2.745-10.978q1.136-3.265,2.555-6.53a5.828,5.828,0,0,0-.379-6.057c-6.72-9.654-11.452-20.443-15.521-31.421a135.366,135.366,0,0,1-7.193-27.352,114.592,114.592,0,0,1-1.23-20.537c.189-5.395.663-10.789,1.23-16.184a61.286,61.286,0,0,1,2.934-12.3,44.474,44.474,0,0,1,2.082-5.962c.946-1.893-.284-2.65-1.42-3.407-6.152-4.732-9.843-10.695-10.221-18.739-.284-5.868-.284-11.641-.095-17.509.379-12.587.568-25.175.568-37.668,0-4.921.852-9.653,3.691-13.818a2.052,2.052,0,0,0-.757-2.839h0c-2.934-2.082-3.312-4.07-1.136-6.909,2.177-2.745,2.177-2.839-.852-4.732-2.177-1.325-3.975-3.029-4.448-5.584-.663-3.5,1.136-6.057,3.407-8.328a19.171,19.171,0,0,1,7.95-4.543c5.489-1.7,7-6.152,7.477-10.978s-.284-9.653.852-14.386c1.42-6.152,3.975-11.641,9.843-15.048a5.528,5.528,0,0,1,4.259-.662c-.852-1.514-1.514-3.029-.663-4.732,1.041-2.082,2.934-3.029,4.921-3.691A22.433,22.433,0,0,1,499.406.578a65.167,65.167,0,0,1,10.411,1.987c8.329,2.555,13.345,8.234,15.995,16.278,1.136,3.407,1.42,7,1.987,10.505.946,6.152,4.732,10.032,10.411,11.736,3.6,1.136,5.205,3.5,6.152,6.625a11.351,11.351,0,0,1-4.732,13.439c-3.691,2.366-3.88,5.489-.946,8.612,2.177,2.271,2.177,5.016-.189,7.1a9.512,9.512,0,0,1-5.016,2.082c.473-1.041,1.325-.946,1.893-1.23a6.154,6.154,0,0,0,3.5-2.271c1.136-2.082.946-3.6-.946-5.016-3.123-2.366-4.354-6.909,0-9.937,2.839-1.987,5.395-4.07,5.962-7.761a11.189,11.189,0,0,0-2.745-9.18c-1.041-1.23-2.745-.946-4.07-1.609-5.016-2.177-8.612-5.205-9.937-10.884-.852-3.691-.852-7.477-1.893-11.073-2.65-9.37-8.518-15.332-18.077-17.414a51.663,51.663,0,0,0-14.291-1.42,12.444,12.444,0,0,0-7.193,2.461c-2.177,1.7-2.65,3.786-.662,5.868a1.165,1.165,0,0,1,.473.946c-.284.473-.662.473-1.136.379-3.5-.473-5.773,1.42-7.855,3.975a27.246,27.246,0,0,0-5.868,16.657c-.095,3.123.379,6.246-.379,9.275-1.136,4.921-2.839,9.37-8.234,11.357a18.616,18.616,0,0,0-7.382,4.543c-1.893,2.177-3.786,4.543-2.65,7.666a9.977,9.977,0,0,0,4.07,4.543c2.271,1.609,2.461,3.029.568,5.111a6.872,6.872,0,0,0-1.609,2.934,2.408,2.408,0,0,0,1.325,3.123h.189a2.945,2.945,0,0,1,2.177,2.366c2.934-3.88,6.909-5.395,11.262-6.341a54.205,54.205,0,0,0,16.184-5.773,5.765,5.765,0,0,0,3.123-4.827c0-2.461.568-4.827.189-7.382a4.243,4.243,0,0,0-1.325-2.934,19.348,19.348,0,0,1-4.448-6.246c-.662-1.8-2.177-1.609-3.6-2.177-.095,6.246-3.691,9.748-9.086,12.02a9.159,9.159,0,0,0-4.543,3.218,4.549,4.549,0,0,0,.757,6.436c.189.095.379.284.568.379.473.284.852.473,1.325.757a2.441,2.441,0,0,1,1.514,3.029h0a3.238,3.238,0,0,1-3.029,2.366c.189-.852.852-.852,1.325-1.136,1.7-1.136,1.609-2.934-.284-3.786a5.6,5.6,0,0,1-3.218-2.839,5.484,5.484,0,0,1,.852-6.152c1.8-2.177,4.448-3.218,6.814-4.543,3.88-2.177,5.205-5.679,5.962-9.653a1.408,1.408,0,0,0-.662-1.42,10.662,10.662,0,0,1-3.407-8.139c0-2.934,2.082-5.395,5.962-3.691a16.855,16.855,0,0,1,3.691-9.559,32.379,32.379,0,0,0-3.218,11.452c.568-.379,0-1.23.946-1.42a4.871,4.871,0,0,1-1.041,3.218,1.212,1.212,0,0,1-.662-1.23,1.744,1.744,0,0,0-1.325-2.082h-.568a2.389,2.389,0,0,0-2.555,2.082c-.663,3.123,1.42,8.045,4.164,9.843.284.189.757.568,1.041.473,2.271-.473,2.839,1.325,3.6,2.745,2.461,4.543,5.773,8.139,10.884,9.937a10.982,10.982,0,0,0,7.382,0c5.111-1.8,7.571-5.962,9.654-10.505a60.6,60.6,0,0,0,1.893-5.868,14.707,14.707,0,0,1-4.07-4.637c-2.745.379-4.07-.095-4.354-1.8,1.23,0,2.177,2.082,3.691.568a16.749,16.749,0,0,1-1.8-7.477c-.946-.473-1.8.284-2.65.189-.189-1.23.757-1.609,1.514-1.987a1.972,1.972,0,0,0,1.23-1.987,19.959,19.959,0,0,0-1.42-8.518c-.852-2.461-7.193-4.827-10.032-2.082-.189.189-.284.568-.662.473,0-2.745,3.123-3.312,8.423-1.609-1.42-3.691-7.666-3.218-11.073.946,0-2.366,1.893-3.691,6.72-4.448-3.407-2.177-9.086.568-9.559,4.448,0,.568,1.325,1.136,0,1.7h0ZM464.388,181.06c-.757,4.732-2.555,8.991-2.65,13.818q-.426,6.388-1.42,12.777c-.946,7.193,0,14.386,1.23,21.484a167.612,167.612,0,0,0,4.921,20.348c.946,3.029,2.177,5.962,3.312,8.991,3.5,9.559,7.287,18.928,12.966,27.446,2.177,3.312,2.934,6.72,1.42,10.411-.852,1.987-1.42,4.07-2.177,6.152-2.839,7.477-3.407,15.237-2.839,23.187.568,7.855.946,15.711,1.893,23.471.662,5.678,1.136,11.357,1.988,17.036,1.041,6.625,2.461,13.25,3.123,19.969.757,8.518,2.555,16.846,2.461,25.459a15.376,15.376,0,0,0,.284,3.6A26.688,26.688,0,0,1,489,427.129,84.562,84.562,0,0,0,487.67,441.8c0,1.987-.284,4.637,2.366,5.678a87.562,87.562,0,0,0,8.328,3.029c2.271.568,4.637,1.136,7,0,2.082-.946,2.839-1.609,2.461-3.786a63.934,63.934,0,0,0-2.65-10.978c-1.609-4.827-3.5-9.559-4.543-14.575a156.408,156.408,0,0,1-2.555-18.739c-.757-8.991-.568-17.982-.568-26.973a178.735,178.735,0,0,1,1.609-22.43c.946-8.234,1.8-16.373,2.839-24.607.946-6.72,2.271-13.345,3.786-19.875a69.453,69.453,0,0,0,1.609-14.575c0-2.934-.662-5.679-.946-8.518-.473-5.489-1.041-11.073-1.8-16.562a217.951,217.951,0,0,1-1.893-22.241c-.379-9.275-1.7-18.361-5.111-27.162-2.65-6.909-6.53-13.061-10.695-19.118a56.575,56.575,0,0,0-11.925-12.3,59.456,59.456,0,0,0-10.6-6.814m34.828,38.141c3.691-1.514,7.1-3.218,9.843-6.057,6.057-6.341,12.3-12.493,17.32-19.78,2.934-4.354,6.436-8.423,8.139-13.439.379-1.041,1.041-1.987.473-3.218-2.271-5.111-4.827-10.127-7.477-15.048a67.086,67.086,0,0,1-5.584-13.439c-1.041-3.5-.568-7.1-.568-10.695-.189-6.057,1.987-11.262,4.732-16.373,3.123-5.868,4.448-11.925,2.839-18.55-.663-2.745-1.987-3.88-4.732-3.975a11.648,11.648,0,0,0-3.6.379c-3.6.757-6.814,2.65-10.032,4.259a4.048,4.048,0,0,1-3.88.284c-1.041-.568-2.177-.946-3.218-1.609a16.655,16.655,0,0,0-7.571-2.461,31.343,31.343,0,0,0-16.278,3.312c-4.637,2.271-9.086,9.464-6.246,15.994a95.629,95.629,0,0,1,3.407,10.411c1.42,4.732,1.136,9.464.757,14.386a50.146,50.146,0,0,1-6.341,20.348c-2.839,5.111-5.3,10.316-6.341,16.089,16.562,8.518,27.068,22.336,34.355,39.087m36.816-39.56a1.465,1.465,0,0,0-.757,1.041c-1.609,4.448-4.638,7.95-7.287,11.83-3.691,5.489-8.234,10.316-12.493,15.237-2.745,3.218-5.3,6.436-8.9,8.8a42.538,42.538,0,0,1-7.193,3.6c2.65,6.057,3.691,12.3,4.259,18.644.284,3.5.473,7.1.757,10.6.473,6.057,1.23,12.02,1.514,18.077.284,4.354.852,8.707,1.23,13.061.662,6.625,1.988,13.155.946,19.875-.852,6.152-1.987,12.209-3.029,18.266-.757,4.543-1.609,8.991-2.177,13.534-.852,6.341-1.23,12.682-2.177,18.928a167.808,167.808,0,0,0-1.893,19.5c-.284,9.37-.095,18.739,0,28.109a35.389,35.389,0,0,0,.757,7.761c.757-1.041.473-2.177.757-3.218,1.987-7.382,3.407-14.859,6.436-21.957,2.934-7,5.489-14.1,8.234-21.294,2.65-7.1,5.773-13.912,7.477-21.294a44.512,44.512,0,0,0,1.325-11.168c-.095-6.53-1.7-12.966-1.514-19.5.189-3.786,0-7.666,1.23-11.357,2.65-8.045,5.111-16.184,7.666-24.228a254.245,254.245,0,0,0,7.855-30,153.286,153.286,0,0,0,2.65-27.919c0-8.045-.379-16.089-2.461-23.944-.946-3.691-1.609-7.477-3.123-11.073m-46-122.656c1.041,2.461.568,4.543.473,6.53-.095,3.5-1.42,6.057-4.732,7.666-2.461,1.23-5.111,2.177-7.382,3.312,1.609,5.3.379,10.505-.379,15.521-.757,5.111-2.177,10.032-3.312,15.048A24.132,24.132,0,0,1,489,98.721c5.3-.662,10.316,0,14.859,2.839,2.745,1.7,5.016,1.893,7.761,0,4.259-2.934,8.991-4.921,14.48-3.6a2.212,2.212,0,0,0-.473-1.987c-2.839-5.016-4.732-10.505-7.1-15.711-1.041-2.271-1.893-4.827-4.638-5.868-5.584-2.082-7.571-7.95-6.814-13.723.095-1.041.757-1.987.189-3.123a4.438,4.438,0,0,0-1.8,1.7c-2.555,3.5-6.341,5.205-10.221,1.23-1.325-1.42-3.029-2.082-5.205-3.407m-24.228,114.9c1.514-3.123,2.934-6.152,4.448-9.18,1.041-1.987,1.8-3.88-.379-5.679a12.594,12.594,0,0,1-1.325-1.8,9.55,9.55,0,0,1-2.366-7.1c.379-3.6.473-7.193.663-10.695.189-3.786.284-7.666.757-11.452.663-6.625,1.514-13.25,2.461-19.875a13.334,13.334,0,0,1,1.8-5.773c.379,1.514-.189,2.745-.189,3.975a16.442,16.442,0,0,1-.473,3.691c-.284,1.8-.284,2.082.568,3.5.284-.757.473-1.325.662-1.987,1.8-7.287,3.6-14.575,4.827-22.052a38.4,38.4,0,0,0,.757-10.884c-.095-1.325-.568-1.8-1.988-1.42a48.433,48.433,0,0,1-5.3,1.42c-7.382,1.325-12.3,5.489-14.48,12.682-1.325,4.259-1.136,8.707-1.42,13.061-.379,6.909.379,13.818,0,20.727-.379,9.275-.663,18.455-.473,27.73,0,3.5,0,7,1.7,10.221,2.271,4.448,5.868,7.761,9.748,10.978m66.155-4.921a16.958,16.958,0,0,0,1.325-1.23c2.65-3.029,5.395-5.962,7.761-9.18,2.65-3.6,4.543-7.666,4.07-12.4a123.964,123.964,0,0,0-2.177-15.616c-1.8-8.707-2.745-17.7-5.489-26.216-1.23-3.975-.852-8.139-1.23-12.209-.568-5.016-2.366-9.086-7.287-11.262a27.422,27.422,0,0,0-3.975-1.136c-2.555-.663-5.111-1.23-7.855-1.893,3.786,5.679,5.395,12.209,8.518,18.455.284-1.987,0-3.691,1.514-5.3,0,3.312-.189,6.152,1.041,8.9a25.58,25.58,0,0,1,.379,20.916c-.568,1.514-1.42,3.029-.946,4.827.662,2.745,1.42,5.489,1.893,8.329.662,3.975,1.514,7.855,1.514,11.83a3.745,3.745,0,0,1-.473,2.461c-1.514,2.177-2.555,4.732-4.354,6.814a1.718,1.718,0,0,0-.284,2.177c.852,1.609,1.42,3.312,2.271,4.921,1.23,2.271,2.461,4.543,3.786,7m-61.707-54.325c-.473,3.691-1.041,7.477-1.42,11.168-.663,7.666-1.23,15.237-1.7,22.9-.095,1.42-.568,2.934.284,4.259,1.42,2.366,3.123,4.543,4.732,6.814.663-1.8,1.136-3.6,1.8-5.3a44.326,44.326,0,0,0,2.461-15.237,31.946,31.946,0,0,0-1.987-9.748c-1.514-4.921-2.934-9.843-4.164-14.859M524.865,152a53.657,53.657,0,0,1,4.732-6.436,2.072,2.072,0,0,0,.284-1.8c-.284-1.893-.473-3.691-.852-5.584-.852-4.637-1.514-9.275-2.745-13.818-4.543,4.732-5.3,22.052-1.42,27.635" transform="translate(-450.053 -0.183)" fill="#8e3a21"/>
              <path id="Trazado_895001" d="M490.2,11.066c-.568-3.6,2.177-6.72,6.53-7.382,6.72-1.041,12.871.757,18.55,4.448,2.461,1.609,3.691,4.164,4.732,6.814,1.893,4.448,2.082,9.086,2.082,13.723,0,3.691,1.987,6.341,4.827,8.423.284.189.663.284.663.757-2.177-.379-5.205-3.6-6.057-6.057-1.041-2.934-.284-5.868-.379-8.8-.189-5.868-1.514-11.357-6.72-14.764A22.389,22.389,0,0,0,495.5,5.1a7.445,7.445,0,0,0-3.6,2.555,3.052,3.052,0,0,0-.852,2.461c0,.568.284,1.23-.757,1.041h0Z" transform="translate(-452.2 -0.354)" fill="#8e3a21"/>
              <path id="Trazado_895002" d="M496.8,50.593c3.312-.568,6.246-4.164,9.275.379a4.6,4.6,0,0,1-3.5,3.407c-3.029.568-4.07-1.893-5.773-3.786" transform="translate(-452.558 -2.782)" fill="#8e3a21"/>
              <path id="Trazado_895003" d="M499.2,31.548c-4.164-.095-8.139-.757-12.3-.662,3.88-2.934,10.884-2.65,12.3.662" transform="translate(-452.027 -1.719)" fill="#8e3a21"/>
              <path id="Trazado_895004" d="M492.348,17.283c-7.1,2.082-8.707,8.139-10.505,14.1-.095.284-.095.662-.189.946,0,.284-.189.473-.379.852-.852-.946-.284-1.893,0-2.65.852-4.448,2.366-8.612,6.057-11.546,1.42-1.136,2.934-2.65,5.111-1.7h0" transform="translate(-451.702 -1.083)" fill="#8e3a21"/>
              <path id="Trazado_895005" d="M480.969,45.455c1.041-1.893.473-5.016-1.325-7.1-.662.568,0,1.23-.189,1.893-1.041-.284-.757-1.136-.757-1.8a.874.874,0,0,1,.946-.852c.852-.095,1.041.568,1.325,1.136a24.988,24.988,0,0,1,1.609,4.448c.568,1.609,0,2.177-1.609,2.366" transform="translate(-451.586 -2.187)" fill="#8e3a21"/>
              <path id="Trazado_895006" d="M490.3,37.662c1.325-.946,2.082.757,3.218.662,1.325-.095,2.177-.946,3.313-1.325.852,1.136,0,1.609-.757,1.987a5.1,5.1,0,0,1-5.773-1.325" transform="translate(-452.21 -2.155)" fill="#8e3a21"/>
              <path id="Trazado_895007" d="M489.771,11.5l1.325,1.041c-3.88.284-6.341,2.271-8.9,4.164a14.13,14.13,0,0,1,7.571-5.205h0" transform="translate(-451.775 -0.789)" fill="#8e3a21"/>
              <path id="Trazado_895008" d="M507.592,32.2c-.568,2.934-1.514,5.773-1.8,8.707-.473-3.123.757-5.962,1.8-8.707" transform="translate(-453.034 -1.898)" fill="#8e3a21"/>
              <path id="Trazado_895009" d="M505.655,43.1a1.665,1.665,0,0,1,.284,2.366h0a2.179,2.179,0,0,1-2.839.757c1.987-.379,2.839-1.325,2.65-3.123" transform="translate(-452.895 -2.482)" fill="#8e3a21"/>
              <path id="Trazado_895010" d="M498.835,324.875c-3.218-1.8-3.691-3.407-1.8-6.057a1.2,1.2,0,0,0,0-1.7c-.284-.379-.852-.662-.852-1.325,1.041-.568,1.514.284,2.082.852a1.489,1.489,0,0,1,.568,1.8c0,.095-.095.189-.189.284-2.271,2.082-1.893,4.07.189,6.152" transform="translate(-452.511 -17.083)" fill="#8e3a21"/>
              <path id="Trazado_895011" d="M501.9,131.747c4.637-1.136,9.086-4.732,14.48-1.136-2.745.568-5.016-1.041-7.477-.568-2.366.473-4.543,1.7-7,1.609" transform="translate(-452.831 -7.087)" fill="#8e3a21"/>
              <path id="Trazado_895012" d="M519.545,324.05c-1.23-.946-1.041-2.177-.757-3.218.473-1.514,1.893-2.745,1.325-4.732,1.041.852,1.609,1.8,1.136,2.839a16.271,16.271,0,0,0-1.7,5.111" transform="translate(-453.725 -17.11)" fill="#8e3a21"/>
            </g>
          </g>
        </g>
      </g>
      <g id="Grupo_1113499" transform="translate(247.016)">
        <path id="Polígono_9" d="M356.2,414.6l26.5,61.517h-53Z" transform="translate(-264.681 -22.214)" fill="#752092"/>
        <g id="Grupo_1113489">
          <g id="Grupo_1204176" data-name="Grupo 1204176" clip-path="url(#clip-path-2)">
            <g id="Grupo_1113488" transform="translate(0.14 0.107)">
              <path id="Trazado_895013" d="M308.664,226c-.757-1.893-.663-3.975-1.041-5.962a44.278,44.278,0,0,0-5.868-14.764,79.9,79.9,0,0,0-14.764-16.184c-2.745-2.366-5.489-4.637-8.423-6.72-.568-.379-.757-.852-.379-1.7,1.893-3.975,3.6-8.139,5.489-12.114,1.514-3.029,3.029-5.962,4.259-9.086a15.583,15.583,0,0,0,1.041-6.909c-.189-2.65,0-5.3-.284-8.045a71.286,71.286,0,0,0-3.407-14.1c-1.42-4.354-2.745-8.612-3.88-13.061a9.109,9.109,0,0,1,2.271-8.707c2.555-3.123,5.962-4.164,9.843-4.448a20.532,20.532,0,0,1,7.95.757,22.663,22.663,0,0,1,5.584,3.407c1.893,1.514,3.786,1.136,5.584.284a44.22,44.22,0,0,1,11.925-3.975,5,5,0,0,1,2.366,0,2.619,2.619,0,0,1,1.988,1.7c3.123,6.814,2.271,13.344-.379,20.064a40.779,40.779,0,0,0-2.082,9.654,69.315,69.315,0,0,0-.284,8.9,30.889,30.889,0,0,0,2.934,12.3c2.271,5.395,5.773,10.221,8.8,15.237a4.412,4.412,0,0,1,.663,3.6c-2.366,8.518-5.395,16.657-10.221,24.134-3.5,5.395-6.53,11.073-9.748,16.657-2.082,3.691-5.3,6.152-8.423,8.8a1.322,1.322,0,0,1-1.42.284" transform="translate(-262.051 -5.684)" fill="#fdd6cf"/>
              <path id="Trazado_895014" d="M324.617,19.392A7.372,7.372,0,0,0,325,21.38c.757,1.893-.473,3.6-.473,5.489,0,1.136-1.136,1.7-2.366,1.8a10.185,10.185,0,0,1-10.695-6.909c-.757-2.082-1.514-4.164-2.177-6.341a7.312,7.312,0,0,1-.095-3.5,2.29,2.29,0,0,1,1.514-1.7c.757-.284,1.325.189,1.893.662,1.893,1.514,3.029,3.691,4.637,5.489a4.119,4.119,0,0,0,.662.568c.095-1.609.568-2.745,2.461-2.65.189-1.42.852-2.65.946-4.07.284-2.177,4.164-4.07,6.152-3.029a2.035,2.035,0,0,0,1.8.189,3.859,3.859,0,0,1,5.016,1.8,1.907,1.907,0,0,1,.284,1.041c1.041,5.111-2.082,9.275-7.382,9.748a13.575,13.575,0,0,1-2.65-.662" transform="translate(-263.713 -0.476)" fill="#eacbc7"/>
              <path id="Trazado_895015" d="M281.945,20.271a5.088,5.088,0,0,0-2.65.757,4.046,4.046,0,0,1-5.584-1.42l-.284-.568c-.946-1.893-1.609-3.786-2.555-5.679-1.514-3.029.663-7.382,3.88-8.423,1.325-.473,2.461-1.23,3.975-1.041a8.456,8.456,0,0,1,6.152,6.152,11,11,0,0,0,.379,1.7,11.443,11.443,0,0,1,1.7-.473c1.609-.095,2.271.662,1.8,2.177a3.781,3.781,0,0,0-.189,1.8c.946-.379,1.23-1.42,1.893-1.987.568-.473,1.136-1.23,1.987-.662.757.473.568,1.325.284,1.987L289.9,21.975c-.757,1.987-1.041,4.07-1.893,6.057-.757,1.7-1.893,2.555-3.6,2.366s-2.271-1.23-2.65-2.839a23.522,23.522,0,0,1,0-7.287" transform="translate(-261.643 -0.315)" fill="#eacbc7"/>
              <path id="Trazado_895018" d="M281.451,19.408c-5.016,2.082-9.653-.662-11.168-6.057-1.325-4.827,2.839-12.02,9.18-12.493a5.773,5.773,0,0,1,6.246,5.395V8.429A10.406,10.406,0,0,1,290.725,5.5c.189,0,.473,0,.568-.189,1.8-3.312,5.016-3.218,8.045-3.407,4.259-.284,8.328.946,12.209,2.366a23.234,23.234,0,0,1,4.732,2.082c.284-1.136,0-2.177.284-3.218,1.041-2.65,3.88-3.786,6.814-2.461a6.115,6.115,0,0,0,2.555.473c4.732,0,7.571,3.029,7.382,8.234-.189,3.88-1.609,7-5.016,8.8a32.079,32.079,0,0,1-4.827,1.609v3.5c1.42-.189,2.177-.852,2.082-2.271,1.041,0,.946.757.757,1.325-.379,1.514-1.893,2.271-4.448,2.082a9.449,9.449,0,0,0,8.234,2.461,12.942,12.942,0,0,1-6.53,1.42c1.514,2.555.473,5.016-.379,7.287-.757,1.987-1.514,4.164-3.786,5.111-.473.189-.568.757-.663,1.325a18.1,18.1,0,0,1-5.111,9.18c-1.041,1.041-.568,2.65-.852,3.975a49.876,49.876,0,0,0-.379,5.3c-.663,4.448,1.7,7,5.3,8.991a75.62,75.62,0,0,0,14.2,5.395c4.07,1.23,6.152,3.691,7.287,7.855,1.514,5.679.852,11.262.379,16.941-.379,4.07-.757,8.234-1.136,12.3-.473,5.205-1.136,10.316-1.514,15.521-.663,8.139-1.42,16.278.568,24.323,1.136,4.448.662,9.086.662,13.723a3.725,3.725,0,0,0,.568,1.987,74.308,74.308,0,0,1,9.843,15.9c1.893,4.259,2.65,8.9,3.312,13.439a100.49,100.49,0,0,1,.568,19.969,204.848,204.848,0,0,1-2.65,21.484c-1.514,8.8-3.786,17.319-6.152,25.932-1.514,5.395-3.691,10.695-5.395,15.994-2.461,7.855-5.489,15.427-8.707,23a14.118,14.118,0,0,0-.852,7.382c.663,5.868,1.42,11.641,1.609,17.509a56.507,56.507,0,0,1-4.354,23c-4.921,12.682-11.262,24.607-17.13,36.816a35.417,35.417,0,0,0-3.407,13.912c-.284,5.584.757,10.978,1.325,16.562.379,4.07.757,8.139,1.041,12.209.473,5.489,1.42,10.884,2.177,16.278a11.593,11.593,0,0,0,.189,1.8c.473,4.732-2.177,5.962-5.962,5.395a22.688,22.688,0,0,1-15.521-9.559c-2.366-3.407-2.271-7.666-1.7-11.83A52.837,52.837,0,0,1,289.4,424.1a98.213,98.213,0,0,0,3.975-16.562c.189-1.23,1.136-2.082,1.136-3.5A35.639,35.639,0,0,0,293,394.1c-1.7-6.057-2.555-12.3-3.88-18.455a125.137,125.137,0,0,1-2.745-23,113.913,113.913,0,0,1,.852-17.982c.757-6.436,2.271-12.777,2.177-19.307a54.111,54.111,0,0,0-2.177-12.3,79.2,79.2,0,0,0-5.395-14.575,181.613,181.613,0,0,1-10.6-28.866c-1.8-6.246-3.691-12.493-4.637-19.023a141.846,141.846,0,0,1-1.136-20.064,97.536,97.536,0,0,1,1.514-19.686,83.865,83.865,0,0,1,5.679-17.7,9.294,9.294,0,0,0,.379-7.287,77.312,77.312,0,0,1-4.448-27.446c0-5.584-1.136-10.978-1.8-16.468-.946-7.287-2.366-14.386-3.218-21.673-.473-3.975-1.609-7.855-2.082-11.83-.852-6.72-.284-13.345,4.259-18.928,2.366-2.934,5.678-3.975,8.991-5.3,5.962-2.366,12.114-4.354,17.6-8.045,2.461-1.7,2.461-3.975,2.555-6.246.189-3.029-.189-5.962-.095-8.991a1.945,1.945,0,0,0-.757-1.7,17.184,17.184,0,0,1-4.448-6.246,1.557,1.557,0,0,0-1.7-1.136,4.321,4.321,0,0,1-3.6-1.893c-1.8-2.461-3.029-5.205-1.8-8.423a3.41,3.41,0,0,0,0-2.555,16.5,16.5,0,0,1-.852-9.559m-4.827,157.579c-1.987,4.732-3.88,9.275-5.489,14.007a86.163,86.163,0,0,0-4.448,25.459,129.4,129.4,0,0,0,.284,17.13,86.933,86.933,0,0,0,1.514,12.02c1.136,4.732,2.366,9.37,3.691,14.1a145.139,145.139,0,0,0,6.909,19.875c3.407,7.666,7.288,15.048,9.18,23.282a89.782,89.782,0,0,1,2.461,14.1c.284,3.975-.568,7.95-1.136,11.83-.663,4.164-1.42,8.328-1.8,12.587a109.194,109.194,0,0,0-.284,13.628,110.564,110.564,0,0,0,1.7,15.805c1.325,6.625,2.366,13.25,3.786,19.875,1.041,4.827,2.555,9.559,1.8,14.67-.284,1.8-1.041,3.407-1.325,5.205-.473,2.65-1.23,5.3-1.8,7.95-1.041,4.637-3.218,8.991-3.88,13.723-.284,2.366-.852,4.732-.379,7,.852,3.975,2.65,7.382,6.341,9.37a68.213,68.213,0,0,0,9.748,4.07,5.45,5.45,0,0,0,2.461.189c2.555-.189,3.407-1.136,2.934-3.6a88.034,88.034,0,0,1-1.514-8.707c-.568-3.691-1.23-7.382-1.514-11.073-.189-3.407-.662-6.814-.852-10.221-.189-3.975-.852-7.95-.946-11.83a150.469,150.469,0,0,1,.473-15.995c.473-7,1.325-13.912,1.987-20.821.663-7.477,1.42-15.048,2.082-22.525.473-5.3.852-10.695,1.42-15.994a170.144,170.144,0,0,0,.568-21.957c-.189-7.477-.568-14.859-.852-22.335-.095-3.123,0-6.246-.189-9.37-.473-6.436-.473-12.871-.757-19.307-.284-4.827-.284-9.559-.663-14.386-.663-8.423-1.23-16.846-2.177-25.269a47.878,47.878,0,0,0-9.275-24.039c-3.407-4.448-7.571-8.139-11.736-11.83a85.1,85.1,0,0,0-8.518-6.625m29.623,213.8c2.65-6.246,5.868-12.114,8.8-18.171,3.6-7.477,7.1-15.048,10.032-22.809a58.914,58.914,0,0,0,3.6-15.143,82.285,82.285,0,0,0-.189-12.777c-.189-2.839-.379-5.679-.757-8.518a23.521,23.521,0,0,1,.379-9.275c1.42-5.584,3.786-10.978,5.868-16.373,1.514-4.07,2.555-8.328,4.164-12.4a186.364,186.364,0,0,0,6.625-21.389c1.42-5.489,2.65-11.073,3.6-16.657a149.047,149.047,0,0,0,2.366-18.455,104.946,104.946,0,0,0,.189-15.427c-.473-5.679-1.041-11.357-2.934-16.846a61.05,61.05,0,0,0-6.53-12.587c-.946-1.514-2.177-2.839-3.218-4.354-.663,2.271-1.23,4.448-1.893,6.53a71.058,71.058,0,0,1-4.543,12.3c-3.312,6.53-7.193,12.777-10.694,19.212A34.259,34.259,0,0,1,308.9,220.9c-.663.379-.663.946-.473,1.609.757,4.732.946,9.559,1.42,14.386.473,5.205.757,10.505.946,15.711.379,9.086.852,18.077.946,27.162,0,5.868.379,11.83.284,17.793,0,4.732-.095,9.464.189,14.2a118.916,118.916,0,0,1,0,18.361c-.379,4.637-.568,9.37-1.136,14.007-.852,6.625-1.136,13.345-1.893,20.064-.568,4.921-.946,9.843-1.514,14.669-.379,3.975-.852,7.95-1.23,12.02M277.286,176.04a103.9,103.9,0,0,1,19.685,17.887,43.2,43.2,0,0,1,10.316,22.619c.189,1.23,0,2.555.946,3.786,3.313-2.745,6.625-5.3,8.8-8.991,3.975-6.814,8.045-13.723,12.02-20.537a80.388,80.388,0,0,0,7.95-20.443,3.159,3.159,0,0,0-.473-3.029c-1.514-1.893-2.461-4.164-3.786-6.152a53.121,53.121,0,0,1-4.638-8.139,39.08,39.08,0,0,1-3.407-19.118c.473-5.205,1.041-10.316,3.123-15.143a21.439,21.439,0,0,0,.852-14.953c-1.42-4.543-1.136-4.921-6.057-4.164a32.022,32.022,0,0,0-3.218.757c-3.218.757-5.962,2.839-9.18,3.5-1.42.284-2.745.568-4.164-.662a17.8,17.8,0,0,0-6.152-3.691,16.707,16.707,0,0,0-13.628,1.23c-4.164,2.461-6.909,6.057-5.489,11.168,1.136,3.88,2.271,7.855,3.5,11.641a71.964,71.964,0,0,1,3.786,14.764c.284,2.839,0,5.679.284,8.518a12.815,12.815,0,0,1-1.041,6.814c-3.218,7.382-6.72,14.67-10.127,22.241m-2.461,1.893c.473-1.136.757-2.082,1.23-3.029,2.555-5.205,5.111-10.316,7.666-15.427a1.371,1.371,0,0,0,.095-1.041,189.724,189.724,0,0,1-2.745-23.093c-.473-6.341-.663-12.777-1.041-19.118-.284-4.354-.663-8.8-1.23-13.155-.284-2.177-.284-4.448-.473-6.72h.473c1.041,3.123.757,6.53,1.7,9.748.757-1.136,1.42-2.271,2.177-3.218,1.514-1.8,3.123-3.691,5.489-4.259,6.152-1.609,12.114-1.23,17.414,2.745a6.146,6.146,0,0,0,6.909.662c4.732-2.177,9.464-4.448,15.048-3.5.284-1.987.663-3.786.946-5.679a4.246,4.246,0,0,1,.663,2.839c-.189,1.7-.946,3.407,0,5.111,2.745,5.679,2.555,11.546.663,17.319a92.716,92.716,0,0,0-3.123,12.493,39.8,39.8,0,0,0,1.7,19.969c1.42,3.975,4.354,7,6.341,10.6.663,1.23,1.514,2.366,2.555,4.07a63.955,63.955,0,0,0-.568-12.02c-.473-3.029-1.23-6.057-1.514-9.086a74.566,74.566,0,0,1,0-11.262c.284-5.395.757-10.789,1.325-16.184.379-3.6,1.325-7,1.42-10.6a77.943,77.943,0,0,1,.663-9.37c.663-4.637,1.041-9.275-.473-13.912-.852-2.745-2.082-5.205-5.111-6.152-1.041-.379-2.082-.662-3.218-1.041-4.921-1.609-10.032-2.839-14.291-6.057-1.8-1.42-4.07-2.555-4.259-5.3,0-1.041-.189-1.987-.189-3.029a80.086,80.086,0,0,1,.757-8.328,6.061,6.061,0,0,0-2.745,2.366,7.776,7.776,0,0,1-2.934,3.123c-1.609.946-2.555.946-3.88-.473a14.507,14.507,0,0,1-2.745-3.6c-.757-1.514-2.177-2.177-3.691-3.312v8.8c0,2.177,0,4.637-2.082,6.152A39.691,39.691,0,0,1,285.9,70.42c-4.921,1.987-9.748,3.975-14.669,5.962-5.395,2.177-7.477,6.814-8.518,12.02-1.041,5.395,0,10.789.757,16.089,1.325,9.18,3.123,18.266,4.543,27.352a115.772,115.772,0,0,1,1.7,19.875,66.613,66.613,0,0,0,1.136,12.209,100.7,100.7,0,0,0,3.786,13.912M298.865,14.676a2.321,2.321,0,0,1-1.7-1.987,4.074,4.074,0,0,1,1.987-4.259,4.275,4.275,0,0,1,5.111,1.325,15.715,15.715,0,0,1,2.366,5.3,23.567,23.567,0,0,0,2.745,7.855c2.366,4.164,6.909,6.436,10.978,5.584a1.978,1.978,0,0,0-.757-2.177c-2.366-2.366-4.827-4.827-6.057-8.139-1.041-2.65-1.987-5.395-4.353-7.382a8.349,8.349,0,0,1,3.6,4.07c1.42,2.934,2.65,5.868,5.111,8.139.379.379.663.852,1.42.757-.946-1.514-2.177-2.745-2.839-4.259-2.745-6.53-6.72-11.83-13.818-14.1-2.366-.757-6.057-.946-7.1,1.987a3.961,3.961,0,0,0,.757,4.164c-2.555-1.609-4.354-.189-6.246.662a5.864,5.864,0,0,1,4.07-2.366c-2.366-.568-3.786,1.23-5.679,1.987A6.847,6.847,0,0,1,294.322,9c.379-3.88,3.218-5.868,7.193-4.827,7.95,1.987,12.966,7.193,16.089,14.575a6.683,6.683,0,0,0,4.921,4.448c.568-1.42.189-2.839,0-4.164-.284-4.732-1.8-8.991-5.962-11.452-5.773-3.407-12.02-5.489-18.834-4.921-2.271.189-4.921.473-5.773,3.312-3.123.189-5.111,2.082-6.436,4.543-3.029,5.395-4.259,11.168-2.65,17.319.189.662.284,1.7,1.041,1.7a4.936,4.936,0,0,1,2.934,1.136c0-2.839.095-5.489,1.325-7.855a12.308,12.308,0,0,1,5.111-5.868c-5.111,4.637-6.057,10.6-5.3,17.414a3.807,3.807,0,0,1-1.136-1.987,2.329,2.329,0,0,0-2.271-1.7c-1.041,0-1.041,1.136-1.23,1.893-.663,2.555.473,4.637,1.8,6.53a2.929,2.929,0,0,0,3.312,1.42q-.473-2.839,0-3.6c.568.284.568.852.663,1.23,2.177,7.477,7.477,12.3,13.818,16.184a4.1,4.1,0,0,0,4.164,0,23.3,23.3,0,0,0,8.9-8.518c2.934-5.111,3.123-10.978,4.354-16.846-4.259.852-7.477-1.7-11.168-2.555-.095-.473.852-.662.284-1.42-2.745-3.123-3.407-6.909-3.786-10.884-.095-1.609-1.23-2.082-2.65-1.136-.284.189-.473.662-1.041.473.284-1.609,1.609-1.514,2.839-1.514-.663-1.609-1.8-1.7-3.123-1.23-1.7.662-1.893,1.8-.662,3.407-1.514-.852-1.609-.946-1.514-1.893.189-2.177,2.271-2.082,3.691-2.745-1.514-1.041-3.5-1.041-4.354-.095-1.23,1.325-1.23,3.123,0,5.111m-14.007-7c.379-4.637-3.975-6.436-7.477-5.3-2.839.946-4.448,3.029-5.679,5.489-2.366,4.637.663,10.6,5.584,12.02,1.987.568,4.353-.662,4.637-2.65a37.6,37.6,0,0,1,1.42-4.637A8.73,8.73,0,0,0,284.006,9a2.524,2.524,0,0,0-2.461-2.555,2.084,2.084,0,0,0-.757.095c-2.839.662-5.584,5.205-3.786,8.612,4.07-6.341,4.543-6.814,6.72-5.868a3.692,3.692,0,0,0-3.218,1.8c-1.42,2.461-4.353,4.543-1.987,7.95h-.284c-2.839-2.934-4.259-7.95-.568-11.83,2.271-2.461,4.827-2.366,7.1.189m38.425,11.168a7.368,7.368,0,0,0,7-7.855v-.473a10.742,10.742,0,0,0-7.1-8.612,4.1,4.1,0,0,0-4.164.189,4.189,4.189,0,0,0-1.514,4.07c.189,1.42,1.23,2.082,2.271,2.934.852-1.325,1.514-3.029,3.5-2.555a3.465,3.465,0,0,1,2.461,3.218c-.473-.473-.946-.946-1.42-1.514-.568-.757-1.325-1.325-2.271-.568-.852.757-1.8,1.7-1.136,2.934a16.052,16.052,0,0,1,2.366,8.328M284.668,156.828a18.1,18.1,0,0,0,3.029-12.209,64,64,0,0,0-2.65-14.1L281.64,120.3c.757,12.209.852,24.418,3.029,36.532M330,15.717a10.089,10.089,0,0,0,2.082-9.843c-.852-3.218-3.6-3.975-6.436-4.448,5.3,3.6,6.814,8.328,4.354,14.2M318.929,39.945c2.65-1.514,4.732-7.571,4.543-9.559a1.606,1.606,0,0,0-1.325-1.514c-2.461,3.123-1.8,7.193-3.218,11.073m1.041-15.427a5.094,5.094,0,0,0,5.679,2.934,13.069,13.069,0,0,1-5.679-2.934" transform="translate(-261.148 -0.113)" fill="#8e3a21"/>
              <path id="Trazado_895019" d="M299.628,326.3a7.713,7.713,0,0,1,.189.852,7.628,7.628,0,0,0,.662,5.584,1.94,1.94,0,0,1-.568,2.555c-1.041-2.934-2.745-5.773-.284-8.991" transform="translate(-263.142 -17.591)" fill="#8e3a21"/>
              <path id="Trazado_895020" d="M323.7,329.58c1.42-2.934-.189-6.246,1.23-9.18.946.284.663,1.325.568,2.082a8.522,8.522,0,0,0,0,3.786c.284,1.42-.568,2.461-1.7,3.313" transform="translate(-264.5 -17.275)" fill="#8e3a21"/>
              <path id="Trazado_895021" d="M308.293,104.387c-1.893-3.123-4.637-5.016-7.193-7.287,2.271.189,7.1,4.827,7.193,7.287" transform="translate(-263.289 -5.31)" fill="#8e3a21"/>
              <path id="Trazado_895022" d="M300.995,46.818a3.5,3.5,0,0,0,3.029-.662,4.418,4.418,0,0,1,5.016,0c.663.379,1.23,1.136,2.271.473-1.8,1.23-2.366,3.975-5.205,3.407-2.082-.473-3.407-2.177-5.205-3.218" transform="translate(-263.278 -2.539)" fill="#8e3a21"/>
              <path id="Trazado_895023" d="M287.1,26.18c.095-5.395,6.341-12.871,10.221-10.505-5.395.473-7.382,4.448-9.18,8.612-.284.662-.284,1.42-.946,1.893" transform="translate(-262.539 -0.923)" fill="#8e3a21"/>
              <path id="Trazado_895024" d="M293.3,29.261c2.839-2.366,9.086-3.786,10.032-.662-3.5-1.325-6.625.662-10.032.662" transform="translate(-262.871 -1.543)" fill="#8e3a21"/>
              <path id="Trazado_895025" d="M295.5,33.5a10.432,10.432,0,0,0,6.246,0c-.095,1.136-1.7,2.082-3.312,1.987-1.609-.189-2.934-1.041-2.934-1.987" transform="translate(-262.989 -1.902)" fill="#8e3a21"/>
              <path id="Trazado_895026" d="M308.5,42.825c0-1.325,1.23-2.082.757-3.5a3.353,3.353,0,0,1,.379-3.123c.284,1.514.284,2.934.473,4.448a1.715,1.715,0,0,1-1.136,2.082h-.379" transform="translate(-263.685 -2.047)" fill="#8e3a21"/>
              <path id="Trazado_895027" d="M317.121,33.1c-.473,1.609-1.7,1.8-2.934,1.7-.946-.095-1.8-.284-1.987-1.7,1.7,1.514,3.313,1.041,4.921,0" transform="translate(-263.884 -1.881)" fill="#8e3a21"/>
              <path id="Trazado_895028" d="M311.095,28.3c-.757,1.514-1.893,2.839-1.609,4.732-.663-2.177,0-3.88,1.609-4.732" transform="translate(-263.725 -1.624)" fill="#8e3a21"/>
              <path id="Trazado_895029" d="M329.1,14.88c0-1.136.095-2.271.189-3.88,1.23,1.609.663,2.745-.189,3.88" transform="translate(-264.789 -0.697)" fill="#8e3a21"/>
            </g>
          </g>
        </g>
      </g>
      <g id="Grupo_1113500" transform="translate(0)">
        <g id="Grupo_1113348" transform="translate(73.821 390.871)">
          <g id="Grupo_1113337">
            <g id="Grupo_1113342">
              <path id="Polígono_7" d="M100.241,446l22.241,30.285H78Z" transform="translate(-78 -414.768)" fill="#752092"/>
              <path id="Polígono_8-2" d="M100.241,444.232,78,413h44.482Z" transform="translate(-78 -413)" fill="#752092"/>
            </g>
          </g>
        </g>
        <g id="Grupo_1113491">
          <g id="Grupo_1204177" data-name="Grupo 1204177" clip-path="url(#clip-path-3)">
            <g id="Grupo_1113490" transform="translate(-0.313 0.031)">
              <path id="Trazado_895030" d="M37.717,75.7c.189,2.839-.852,5.489-1.136,8.234-.473,4.164-1.42,8.234-1.136,12.4a52.285,52.285,0,0,0,1.041,6.72,9.961,9.961,0,0,0,4.448,6.246c2.745,1.987,5.679,3.786,9.086,4.164,4.354.473,8.612.757,13.061-1.041,3.6-1.514,8.9-8.518,8.234-12.682A56.55,56.55,0,0,0,68.192,88c-1.42-3.6-2.65-7.287-5.016-10.411a1.137,1.137,0,0,1,0-1.325c2.839,1.041,5.679,1.893,7.477,4.827,2.934,4.921,5.773,9.748,7.1,15.427a11.954,11.954,0,0,1,.379,4.827c-.284,1.7.946,3.312,1.893,4.732a24.506,24.506,0,0,1,4.921,14.764c0,2.555-.473,5.016-2.366,6.909a9.15,9.15,0,0,1-6.53,2.555,17.7,17.7,0,0,1-5.016-.379c1.987,1.136,4.07,1.041,6.436,1.041-.757,1.893-1.23,3.691-1.987,5.3A21.854,21.854,0,0,0,73.871,149.9a48.236,48.236,0,0,0,3.312,10.884c2.461,5.016,5.111,9.843,7.666,14.764.568,1.041,1.041,2.177,1.609,3.218.379.757.473,1.42-.473,1.8-2.65,1.041-4.07,3.407-5.679,5.489a132.431,132.431,0,0,0-9.086,13.723c-2.177,3.691-4.259,7.287-6.53,10.884-2.461,3.88-5.111,7.666-7.666,11.452a16.489,16.489,0,0,1-5.016,4.543,4.025,4.025,0,0,1-1.041.189A117.009,117.009,0,0,0,43.3,211.417a151.889,151.889,0,0,0-9.464-13.628c-2.461-3.218-4.637-6.814-7.761-9.464-3.218-2.745-6.625-5.3-10.789-6.53-1.23-.379-2.461,0-3.691-.379-.379-1.609.946-2.461,1.7-3.407,2.65-3.5,5.395-6.909,8.234-10.316,1.8-2.177,3.6-4.448,5.3-6.72a32.527,32.527,0,0,0,5.489-13.534A10.386,10.386,0,0,0,31,141.382a100.494,100.494,0,0,1-4.827-9.559c-1.987-4.637-4.164-9.275-3.88-14.48.189-2.839.757-5.679,1.136-8.612.189-1.23.379-2.461.473-3.691a55.481,55.481,0,0,1,2.271-13.628,46.331,46.331,0,0,1,4.354-11.262,3.14,3.14,0,0,1,1.514-1.42,18.763,18.763,0,0,0,4.448-2.555c.379-.379.852-.189,1.325-.189m13.345,55.082c3.691-1.041,6.246-3.691,5.395-5.679-.852,2.934-3.407,3.975-5.395,5.679" transform="translate(-0.305 -4.087)" fill="#e85722"/>
              <path id="Trazado_895031" d="M45.874,17.655a1.3,1.3,0,0,0,.757-.852,1.3,1.3,0,0,1,1.514-.852c.284,0,.473.284.662.473a2.862,2.862,0,0,0,2.555.852A19.2,19.2,0,0,1,56,17.655c.662-2.366,1.893-4.07,4.448-4.354.473,0,.568-.473.757-.757a2.445,2.445,0,0,1,4.259.662,34.237,34.237,0,0,1,1.893,5.205c2.082-1.514,3.6,0,4.921,1.041,1.514,1.23.663,3.5,1.514,5.205,1.23-1.136,1.8-.379,2.177.757a75.538,75.538,0,0,1,2.461,7.855c.189.852.662,1.893-.379,2.366-1.23.568-1.325-.757-1.8-1.42a1.766,1.766,0,0,1-.284-.379c-.473,1.42-.095,2.839-.095,4.259,0,.852,0,1.609-1.041,1.8-.946.284-1.325-.568-1.7-1.23-.473-.852-.852-1.8-1.42-2.934-.284,1.42-.568,2.461-.757,3.6a2.009,2.009,0,0,1-1.8,1.7A2.163,2.163,0,0,1,66.979,39.9a5.131,5.131,0,0,1-.852-2.271c.095-3.5-.568-7.1.284-10.6a1.857,1.857,0,0,0-.095-1.42c-1.136.379-2.271.946-3.6.379-1.23-.568-1.609-1.7-2.082-3.123-2.555,1.42-3.691-.284-4.827-2.177-1.041-1.7-2.839-2.177-4.732-2.366a6.506,6.506,0,0,1-2.271-.473c-.852,1.609-.757,4.07-3.123,4.354-2.082.189-3.312-1.42-4.448-3.029-1.041.852-1.893,1.609-2.839,2.366-1.42,1.136-3.029,1.609-4.637.662A4.485,4.485,0,0,1,31.3,17.844a5.824,5.824,0,0,1,.189-1.8c.284-.946.946-1.609,1.893-1.23,1.609.568,2.745-.284,3.691-1.23a4.935,4.935,0,0,1,5.395-1.041,3.371,3.371,0,0,1,2.461,2.65,4.512,4.512,0,0,0,1.136,2.082" transform="translate(-1.363 -0.65)" fill="#eacbc7"/>
              <path id="Trazado_895032" d="M26.265,42.507a18.379,18.379,0,0,1,.189,2.271,1.885,1.885,0,0,1-1.609,1.987c-1.136.189-1.7-.568-1.987-1.609a48.849,48.849,0,0,1-2.366-9.748,43.9,43.9,0,0,1,.946-13.155,9.888,9.888,0,0,1,3.029-5.584,1.728,1.728,0,0,1,1.987-.379,1.528,1.528,0,0,1,.757,1.7c-.095.946-.189,1.893-.189,2.745.284,1.8,1.041,3.6,1.23,5.489a2.936,2.936,0,0,0,2.082.852c1.041-.095,1.325.473,1.42,1.42.284,2.934.946,5.868.757,8.9a1.023,1.023,0,0,1-.662,1.041c-.568.095-.852-.284-.946-.757a14.2,14.2,0,0,0-1.041-3.407c.284,2.366.568,4.637.852,7a6.992,6.992,0,0,1,0,1.987,1.636,1.636,0,0,1-1.42,1.609,2.034,2.034,0,0,1-2.177-.946c-.284-.379-.189-1.041-.946-1.42" transform="translate(-0.778 -0.895)" fill="#eacbc7"/>
              <path id="Trazado_895035" d="M39.448,62.124l-.757.473a2.422,2.422,0,0,1,0-1.987c1.23-3.312.662-6.625-.568-9.748-1.893-4.732-3.975-9.464-5.962-14.1a32.789,32.789,0,0,1-1.893-7.855,62.8,62.8,0,0,1-.473-7.287c-.095-3.786,1.136-7.1,2.555-10.411a2.9,2.9,0,0,1,2.271-1.893c-2.65,2.555-3.123,5.962-3.5,9.275a17.1,17.1,0,0,0,2.366,9.843,17.4,17.4,0,0,1,9.559-1.325,2.218,2.218,0,0,1,1.987,1.987c-.095.095-.189.284-.284.284a34.414,34.414,0,0,0-10.789-.284c-.757,0-1.23-.662-1.609-1.325s-.757-1.42-1.23-2.177a37.5,37.5,0,0,0,1.893,10.221c2.082,5.868,4.921,11.546,6.625,17.6,0,.189.189.379.284.568,2.839,2.745,5.868,5.3,10.127,5.111,2.555,0,4.354-1.7,6.341-2.934,4.827-3.123,6.436-8.234,7.761-13.345a20.585,20.585,0,0,0,0-8.991,19.8,19.8,0,0,1,.473-4.637c0-.568.284-1.136-.189-1.514-2.271-1.987-3.123-4.827-4.164-7.477-1.7-4.448-3.218-8.991-7.477-11.736-.095,0-.095-.284-.284-.662a10.615,10.615,0,0,1,5.3,4.637c1.987,3.123,3.407,6.53,5.395,9.653,1.42,2.177,2.745,4.354,5.3,5.773-1.136.379-1.7-.568-2.366-.568-1.325,4.259-.662,8.612-.946,12.871-.379,5.868-2.177,11.262-6.814,15.237a3.1,3.1,0,0,0-.757,2.934c.189,3.123.568,6.152.946,9.18.473,3.407,3.029,4.637,5.773,5.395a32.038,32.038,0,0,0,7.193,1.8c2.555.284,5.205.189,7.761.568,2.934.473,6.057.568,8.8,2.082a13.767,13.767,0,0,1,7.1,10.316c.946,5.205-.095,10.221-.757,15.332-.568,4.448-1.041,8.9-1.514,13.345-.662,5.679-1.325,11.357-1.893,17.13-.662,7.1-2.65,14.1-2.461,21.294.095,3.312,1.23,6.341,2.177,9.464a76.048,76.048,0,0,1,3.5,23.944,42.371,42.371,0,0,1-.568,6.057,7.65,7.65,0,0,0,0,2.934,102.521,102.521,0,0,1,1.041,23.471,146.255,146.255,0,0,1-2.555,18.266,160.674,160.674,0,0,1-4.448,16.373c-2.271,7.95-4.354,15.9-6.53,23.85-.662,2.366-1.42,4.732-2.177,7.1a84.885,84.885,0,0,0-2.555,9.937c-.662,3.407-.189,6.814.189,10.221.757,6.341,1.893,12.587,1.514,18.928a69.01,69.01,0,0,1-2.177,12.493c-2.65,10.316-6.625,20.253-10.032,30.38-3.691,10.884-7.855,21.768-10.411,33.03a22.449,22.449,0,0,0,.189,10.032c.852,3.5.852,7.1,1.23,10.695a22.808,22.808,0,0,1-.568,9.464c-.662,2.082.568,4.448.757,6.72A78.23,78.23,0,0,1,58,446.371a6.575,6.575,0,0,1-6.909,6.246,4.421,4.421,0,0,1-1.609-.284,39.52,39.52,0,0,0-8.139-2.082A9.6,9.6,0,0,1,33.2,439.367a5.779,5.779,0,0,1,.284-1.23c2.177-7.1,1.893-14.291,2.461-21.484.189-2.366.852-4.638,1.041-7,.568-4.921-.473-9.654-1.8-14.291-3.029-10.505-5.773-21.011-8.139-31.705A147.8,147.8,0,0,1,23.17,336.4a47.92,47.92,0,0,1,3.218-19.969c1.987-5.016,3.123-10.221,1.609-15.711-.946-3.407-2.934-6.341-4.637-9.275A147.177,147.177,0,0,1,9.636,260.021C7.08,251.692,5,243.269,3.2,234.751c-1.42-6.72-2.271-13.534-3.218-20.443-.946-6.53.662-12.777,1.325-19.212a39.494,39.494,0,0,0-.568-9.464c-1.514-8.8-1.609-17.509.946-26.121,1.893-6.246,1.987-12.682,1.609-19.212-.284-5.205-.095-10.411-.189-15.616,0-3.691-.284-7.382-.473-11.073-.189-6.53-.568-13.155.473-19.686.189-1.136,0-2.271.189-3.5.757-5.016,4.354-7.666,8.328-10.127,2.461-1.514,5.205-2.082,7.95-2.745a69.827,69.827,0,0,0,14.859-5.395c2.177-1.136,3.691-2.65,4.07-5.205.284-1.609.473-3.312.662-4.921M55.726,280.653V269.39a149.666,149.666,0,0,0-1.136-19.5c-.852-6.625-1.42-13.345-3.312-19.875-.852-2.934-1.041-5.962-2.271-8.8a94.053,94.053,0,0,0-8.518-15.427c-4.259-6.246-8.707-12.4-13.345-18.266-3.5-4.354-7.761-7.855-13.345-9.275-2.271-.568-3.691,0-4.732,2.082A58.806,58.806,0,0,0,1.78,200.775c-.379,2.65-1.23,5.3-.946,8.045.852,7.193,1.8,14.386,3.123,21.578,1.7,9.086,3.88,18.077,6.436,26.973a177.294,177.294,0,0,0,8.518,22.714c2.082,4.637,4.827,8.9,7.287,13.345,1.8,3.218,3.5,6.436,3.786,10.221A28.533,28.533,0,0,1,28,315.576c-3.312,9.18-3.6,18.55-2.366,28.014a265.8,265.8,0,0,0,5.111,27.257c2.271,9.275,4.448,18.55,6.72,27.73a40.069,40.069,0,0,1,1.42,11.641c0,.757,0,1.609-.852,2.082-.284.095-.379.663-.379,1.041l-.568,11.073a49.456,49.456,0,0,1-.852,9.18c-.473,1.893-1.514,3.691-1.8,5.678-.189,1.609-.757,3.407.284,4.637,2.177,2.839,4.921,5.016,8.707,5.584a21.982,21.982,0,0,1,6.436,1.514,5.623,5.623,0,0,0,4.921-.284c2.555-1.136,2.65-3.5,2.555-5.868a80.588,80.588,0,0,0-2.461-14.291c-1.23-5.111-2.65-10.127-3.6-15.237-1.42-7.571-1.325-15.237-1.893-22.9-.379-5.489.189-10.884.568-16.373.473-7.1.662-14.1.852-21.2.189-5.962.662-11.925,1.23-17.887.757-7.477,1.987-14.953,3.029-22.43q.852-8.518.852-17.036a164.9,164.9,0,0,0-.284-16.752m-5.016-57.732a18.959,18.959,0,0,0,4.543-3.691c3.029-4.07,5.868-8.234,8.612-12.587,4.164-6.625,7.855-13.628,12.3-19.969,2.745-3.975,5.016-8.423,9.748-10.695-.852-1.8-1.8-3.5-2.65-5.3-3.5-6.814-7.571-13.439-9.559-20.916a25.955,25.955,0,0,1,0-14.953c.757-2.461,1.893-4.732,2.839-7.193-6.057-.379-7.666-.852-8.518-2.366,1.42.284,2.745.662,4.07.852a12.851,12.851,0,0,0,7.287-.757c3.5-1.514,4.732-4.543,4.827-8.139.095-5.395-1.893-10.127-4.827-14.48-.946-1.514-2.271-2.934-1.987-4.921a12.783,12.783,0,0,0-.473-5.016,50.671,50.671,0,0,0-8.9-17.414,1.684,1.684,0,0,0-1.041-.757c-1.42-.473-2.745-.946-4.448-1.609a24.973,24.973,0,0,1,3.6,6.625c.946,2.271,1.8,4.543,2.65,6.814a32,32,0,0,1,2.271,10.316c.189,6.246-4.637,12.209-11.168,13.534-5.962,1.136-11.925.662-17.319-2.555-3.218-1.893-6.057-4.164-6.909-8.139a43.367,43.367,0,0,1-.189-16.752c.568-3.5,1.136-7,1.8-10.884a31.721,31.721,0,0,1-5.962,3.5,2.782,2.782,0,0,0-.946,1.136,33.387,33.387,0,0,0-3.029,7.1,63.568,63.568,0,0,0-3.6,16.184,72.344,72.344,0,0,1-.946,7.761c-.852,4.827-1.041,9.559.757,14.291a106.618,106.618,0,0,0,6.72,14.575,12.571,12.571,0,0,1,1.7,8.234,31.8,31.8,0,0,1-6.72,14.859c-3.407,4.354-7,8.518-10.411,12.871a28.308,28.308,0,0,0-3.6,5.205,13.969,13.969,0,0,1,4.448.473,30.072,30.072,0,0,1,12.02,8.234c3.691,4.164,6.814,8.8,10.127,13.25A100.544,100.544,0,0,1,50.805,223.3M56.2,429.051c.473-4.353-.189-8.707-.284-13.061a17.419,17.419,0,0,0-.473-3.88,22.545,22.545,0,0,1-.473-12.02c1.8-7.477,4.637-14.575,6.909-21.862,2.366-7.477,5.205-14.669,7.666-22.146a230.055,230.055,0,0,0,6.72-23.944c1.609-7.477.946-14.764,0-22.052-.852-7-.946-14.007.946-20.821,1.987-7.1,4.07-14.2,6.057-21.294.946-3.407,1.23-7.1,2.745-10.411,1.987-4.543,2.934-9.37,4.259-14.007s1.893-9.464,2.745-14.2a119.959,119.959,0,0,0,1.325-14.2,112.715,112.715,0,0,0-.568-12.682,72.416,72.416,0,0,0-6.72-23.85c-.757-1.7-1.609-1.893-2.934-.473a34.546,34.546,0,0,0-2.934,3.407c-4.827,6.625-8.707,13.818-12.871,20.821-4.637,7.855-9.748,15.237-16.562,21.389-.379.379-.757.662-.568,1.42a135.433,135.433,0,0,1,3.6,18.266,186.765,186.765,0,0,1,2.177,21.673c.189,10.316.852,20.632.568,30.948-.095,3.691,0,7.287-.379,10.978-.662,7.382-1.609,14.764-2.461,22.146q-.994,8.66-1.7,17.319c-.662,7.1-.662,14.2-1.136,21.389-.379,4.827-.379,9.654-.852,14.386-.757,7.855,0,15.616.568,23.377a89.607,89.607,0,0,0,2.461,14.953,88.184,88.184,0,0,0,2.177,8.612M28.943,76.415c-2.366.662-4.354,1.42-6.436,1.893C17.586,79.633,12.475,80.58,8.5,84.271c-1.325,1.23-2.65,2.461-3.029,4.354a78.231,78.231,0,0,0-1.325,16.941c.095,6.436.473,12.966.568,19.4v13.818c0,6.909.473,13.912-1.325,20.727a55.758,55.758,0,0,0-1.7,21.673,58.713,58.713,0,0,1,.852,9.937,76.568,76.568,0,0,1,10.789-19.686c1.23-1.514,2.839-2.839,3.029-5.016.662-6.72,1.514-13.345,1.987-20.064.473-7.1.568-14.1,1.041-21.2.284-4.448.757-8.9,1.325-13.345.379-2.934,1.136-5.868,1.136-8.8a48.494,48.494,0,0,1,1.514-11.641,87.238,87.238,0,0,1,5.584-14.953M93.3,192.73a101.693,101.693,0,0,0,0-13.155A87.151,87.151,0,0,0,89.987,163.3,46.979,46.979,0,0,1,87.9,153.17c-.284-5.773,1.136-11.357,1.893-17.036.852-6.72,1.42-13.345,2.177-20.064.662-5.773,1.041-11.641,2.177-17.319A32.063,32.063,0,0,0,94.34,87.11c-.946-5.489-4.07-8.612-9.275-9.843a43.9,43.9,0,0,0-6.057-.662,93.5,93.5,0,0,1-10.221-1.041c4.921,5.016,7.571,11.168,9.37,18.077a4.873,4.873,0,0,1,1.23-2.745c.757.946.284,1.8,0,2.555a10.278,10.278,0,0,0,1.23,9.748A29.989,29.989,0,0,1,84.876,113.7c.852,5.3.095,11.168-5.962,13.061a1.834,1.834,0,0,0-1.325,1.514c-.946,3.123-2.271,6.152-3.123,9.37-1.514,6.436,0,12.493,1.987,18.455,1.325,4.07,3.786,7.666,5.773,11.452,3.407,6.246,6.909,12.493,9.18,19.4.568,1.893.662,3.88,1.7,5.868M57.241,109.162c1.893.473,3.407-.568,4.921-1.041,4.827-1.609,8.707-7.95,7.382-13.818A95.362,95.362,0,0,0,64.339,79.16a23.388,23.388,0,0,0-3.6-7,10.869,10.869,0,0,1-2.555-4.543,29.813,29.813,0,0,1-1.136-9.18,2.449,2.449,0,0,0-.284-1.8,25.991,25.991,0,0,0-2.461,2.082A15.563,15.563,0,0,0,52.982,60.8c-1.23,1.987-2.745,2.65-4.921,1.609a11.92,11.92,0,0,1-5.489-4.637,6.729,6.729,0,0,0-2.461-2.177,35.1,35.1,0,0,1,.473,4.164c0,3.407.284,6.814-1.514,9.843a17.548,17.548,0,0,0-2.082,6.152c-.473,3.218-.757,6.436-1.041,9.653-.379,3.786-.852,7.477-.189,11.168.379,2.177.662,4.543,2.461,6.152a22.229,22.229,0,0,0,17.793,6.246,42.83,42.83,0,0,0-7.193-11.357,22.052,22.052,0,0,1,8.423,11.357m-39.75,57.164c4.732-5.773,9.275-11.073,12.02-17.793a12.157,12.157,0,0,0-.946-11.641,36.925,36.925,0,0,1-1.8-3.312,62.287,62.287,0,0,1-5.489-14.1c-.568,7.761-1.041,15.521-1.514,23.282-.379,7.761-1.42,15.427-2.271,23.566" transform="translate(0.33 -0.449)" fill="#8e3a21"/>
              <path id="Trazado_895036" d="M87.462,43.632c-1.325.568-2.461,0-3.5-.757-3.407-2.177-4.827-5.773-6.152-9.37-1.7-4.543-2.082-9.464-3.312-14.1-2.177-8.328-7.287-14.2-15.237-16.941a31.728,31.728,0,0,0-16.278-1.42c-3.5.662-6.909,1.23-10.127,2.839-7.1,3.6-10.6,9.653-11.925,17.225-.757,4.448-1.136,8.991-1.7,13.439-.568,4.354-1.514,8.518-3.975,12.209-1.42,2.177-3.691,3.029-6.057,3.786-.284-.662,0-.757.379-.852,5.773-1.514,7.1-6.246,8.045-11.168,1.041-5.395,1.325-10.789,2.082-16.184.946-6.436,3.312-12.3,8.423-16.278A29.117,29.117,0,0,1,42.318.38a40.814,40.814,0,0,1,15.143.852C67.209,3.693,72.887,9.939,75.537,19.4c1.041,3.691,1.136,7.571,2.366,11.168,1.136,3.312,1.987,6.625,4.164,9.464a9.192,9.192,0,0,0,5.395,3.6" transform="translate(-0.174 -0.032)" fill="#8e3a21"/>
              <path id="Trazado_895037" d="M35.157,47.466c-.946,5.111-.189,10.316-4.448,13.628,2.177-2.65,2.461-6.057,2.934-9.275a31.8,31.8,0,0,0,.568-5.962c0-1.7-1.136-3.123-1.8-4.732A48.237,48.237,0,0,1,29.1,30.241a3.882,3.882,0,0,1,.095-1.041,12.12,12.12,0,0,1,1.23,3.691c1.136,4.259,3.312,8.139,4.827,12.3,1.8,4.732,3.5,9.37,2.745,14.575,0,.284.095.662-.662.946-.189-2.555.095-5.111-.568-7.95a16.317,16.317,0,0,1-.946,5.205c-.473,1.514-.946,3.218-2.934,3.975,2.839-4.637,3.975-9.18,2.271-14.67" transform="translate(-1.247 -1.595)" fill="#8e3a21"/>
              <path id="Trazado_895038" d="M25.223,26.289c1.136,1.7.852,3.312,1.041,4.732.379,3.786.568,7.571.662,11.357,0,1.136-.568,2.366-.189,3.407,1.23,4.07-.757,7.571-1.8,11.168a5.8,5.8,0,0,1-3.786,4.164c3.123-2.934,3.786-7,4.827-10.884A30.282,30.282,0,0,1,23.236,56.1a12.8,12.8,0,0,1-4.354,4.637c-.662.379-1.325.852-2.082-.189,3.218-1.23,4.543-4.07,6.057-6.814,3.123-5.489,3.6-11.546,3.218-17.793a93.7,93.7,0,0,0-.662-9.843" transform="translate(-0.588 -1.429)" fill="#8e3a21"/>
              <path id="Trazado_895039" d="M47.8,6.7c3.218,1.136,4.164,4.164,5.584,6.814.379,0,.189-.284.284-.379v-.946c1.514,3.123,2.839,5.868,4.259,8.612.852,1.609,1.8,3.123,2.745,4.732.284.473.757.473,1.23.662a11.389,11.389,0,0,1,4.827,1.987c-.568.757-1.325.379-1.893.189a9.688,9.688,0,0,0-5.679-.379c-.852.189-1.42-.095-1.136-.852.379-.852-.095-1.23-.473-1.7A46.846,46.846,0,0,1,53.1,15.786c-1.23-3.312-2.461-6.625-5.3-8.991m6.909,9.559a35.083,35.083,0,0,0,3.88,9.086,1.088,1.088,0,0,0,1.325.473.293.293,0,0,0,.189-.095,85,85,0,0,1-5.489-9.464" transform="translate(-2.248 -0.39)" fill="#8e3a21"/>
              <path id="Trazado_895040" d="M89.271,53.114c-3.691-.095-8.423-5.679-9.18-11.262.662,1.23,1.325,2.461,1.893,3.691a19.4,19.4,0,0,0,2.271,3.6,6.322,6.322,0,0,0,3.312,2.745,32.614,32.614,0,0,1-4.732-6.057,39.572,39.572,0,0,1-3.88-9.748c-1.609-5.3-1.7-10.884-2.555-16.278a31.475,31.475,0,0,1,1.609,7.761C79.05,34.943,81.037,41.946,85.58,48.1A13.413,13.413,0,0,0,88.7,51.505a1.14,1.14,0,0,1,.568,1.514" transform="translate(-3.781 -1.092)" fill="#8e3a21"/>
              <path id="Trazado_895041" d="M20.841,43.782c-1.8,4.164-3.786,8.139-8.045,10.316a3.757,3.757,0,0,1-3.6.473,11.112,11.112,0,0,0,5.489-2.934,25.273,25.273,0,0,0,6.246-12.493A23.28,23.28,0,0,1,21.6,36.4c.662,1.7-.189,3.407-.379,5.111.379,0,.284-.662.662-.568.473,5.3-4.259,16.846-10.032,17.7,5.679-3.6,7.571-9.086,8.9-14.859" transform="translate(-0.18 -1.981)" fill="#8e3a21"/>
              <path id="Trazado_895042" d="M55.88,50.548c-3.975,5.016-5.395,5.016-9.18-.379,1.514-.852,2.934-2.082,4.732-2.271,2.177-.284,3.029,1.609,4.448,2.65" transform="translate(-2.19 -2.596)" fill="#8e3a21"/>
              <path id="Trazado_895043" d="M77.619,46.286c.852,4.637,1.987,9.18,5.584,12.966-1.325.189-1.8-.568-2.366-1.23A26.056,26.056,0,0,1,76.484,46.38a6.189,6.189,0,0,1-.189-2.934q.757.189,1.23-.946c1.8,5.584,2.555,11.641,8.329,14.953-.662.852-1.23.284-1.8,0-2.555-1.514-3.88-4.07-4.921-6.625-.568-1.42-1.041-2.934-1.514-4.354" transform="translate(-3.77 -2.308)" fill="#8e3a21"/>
              <path id="Trazado_895044" d="M71.977,29.8c.379,3.786.662,7.571,1.136,11.357.473,3.975.852,7.95,1.23,12.02.284,3.5-1.8,8.991-4.543,10.695.662-1.42,1.514-2.555,2.082-3.786a20.889,20.889,0,0,0,1.136-9.937c-.379-4.921-1.041-9.748-1.23-14.67,0-1.514-.189-3.123-.284-4.637,0-.379,0-.757.473-.946" transform="translate(-3.427 -1.627)" fill="#8e3a21"/>
              <path id="Trazado_895045" d="M44.609,34.591c-.852,1.514-2.934,2.366-4.354,1.609a2.3,2.3,0,0,0-2.555-.189c.473-1.893,1.893-2.65,3.5-3.123,2.271-.662,4.164.189,5.868,2.555-1.041.095-1.514-.852-2.461-.852" transform="translate(-1.707 -1.781)" fill="#8e3a21"/>
              <path id="Trazado_895046" d="M40.195,8.1c1.514.095,1.987,1.23,2.366,2.461.946,3.123.946,6.436,1.987,9.559a51.672,51.672,0,0,0,2.839,6.625c-1.041,0-1.23-.757-1.514-1.23a27.241,27.241,0,0,1-3.691-11.357,30.726,30.726,0,0,0-.757-4.07A3.263,3.263,0,0,0,40.1,8.1" transform="translate(-1.836 -0.465)" fill="#8e3a21"/>
              <path id="Trazado_895047" d="M64.165,63.628c2.65-2.461,3.88-5.679,4.921-8.991.473-1.514.757-3.029,1.136-4.637,1.609,3.312-3.312,14.291-6.625,15.143-.284-.662.757-.946.568-1.609h0Z" transform="translate(-3.092 -2.71)" fill="#8e3a21"/>
              <path id="Trazado_895048" d="M65.718,35.26c-1.041-.284-1.8-1.041-2.934-1.136-1.7,2.65-2.555,2.839-5.584,1.23A4.928,4.928,0,0,1,60.986,32.8c2.082-.189,3.5,1.041,4.732,2.461" transform="translate(-2.752 -1.787)" fill="#8e3a21"/>
              <path id="Trazado_895049" d="M43.9,8.3a16.183,16.183,0,0,1,2.082,6.341,36.591,36.591,0,0,0,4.732,12.777c.189.189.189.473,0,.568C48.159,25.9,44.752,16.25,43.9,8.3" transform="translate(-2.04 -0.475)" fill="#8e3a21"/>
              <path id="Trazado_895050" d="M23.4,61.909c3.975-3.218,5.584-7.477,6.436-12.209C31.35,53.486,26.9,61.814,23.4,61.909" transform="translate(-0.941 -2.694)" fill="#8e3a21"/>
              <path id="Trazado_895051" d="M35.618,12a20.6,20.6,0,0,0,1.514,15.521C33.914,25.155,33.157,16.448,35.618,12" transform="translate(-1.518 -0.674)" fill="#8e3a21"/>
              <path id="Trazado_895052" d="M75.482,51.5c1.8,2.366.473,12.114-2.082,12.966A23.42,23.42,0,0,0,75.482,51.5" transform="translate(-3.62 -2.79)" fill="#8e3a21"/>
              <path id="Trazado_895053" d="M64.177,63.973c-.852,0-.946,1.23-2.177,1.23a40.2,40.2,0,0,0,4.164-7c0,2.177-1.42,3.88-2.082,5.773h0" transform="translate(-3.009 -3.149)" fill="#8e3a21"/>
              <path id="Trazado_895054" d="M74.479,26.332c-1.893.568-4.827-1.893-5.679-4.732,1.893,1.8,3.123,3.786,5.679,4.732" transform="translate(-3.374 -1.188)" fill="#8e3a21"/>
              <path id="Trazado_895055" d="M49.5,43.352c1.609,1.893,3.029,1.325,4.354-.852.189,1.987-.852,2.461-1.893,2.555a2.139,2.139,0,0,1-2.461-1.7h0" transform="translate(-2.34 -2.308)" fill="#8e3a21"/>
              <path id="Trazado_895056" d="M42.33,328.334a3.985,3.985,0,0,1-2.177-3.786,8.279,8.279,0,0,0-1.609-4.921,4.13,4.13,0,0,1-.379-4.827A12.991,12.991,0,0,0,41,321.046a1.6,1.6,0,0,1,.284.946c.189,2.082.095,4.259,1.041,6.246" transform="translate(-1.7 -16.898)" fill="#8e3a21"/>
              <path id="Trazado_895057" d="M56.466,317.4c.946,1.325-.662,8.518-2.366,9.937.095-3.6,0-7,2.366-9.937" transform="translate(-2.586 -17.037)" fill="#8e3a21"/>
              <path id="Trazado_895058" d="M41.7,136.123c6.72-.568,12.966-1.987,16.846-8.423.757,2.271-.473,3.407-1.7,4.448a17.1,17.1,0,0,1-9.653,3.88,17.793,17.793,0,0,1-5.489,0" transform="translate(-1.922 -6.873)" fill="#8e3a21"/>
              <path id="Trazado_895059" d="M72.791,322.643c-.379-.568,0-.852.189-1.23a7.32,7.32,0,0,0,1.041-4.638,3.555,3.555,0,0,1,2.461-3.975c-1.987,2.839-.379,6.246-2.65,8.8a2.551,2.551,0,0,1-.662.757c-.189.095-.284.284-.473.379" transform="translate(-3.579 -16.791)" fill="#8e3a21"/>
            </g>
          </g>
        </g>
      </g>
      <g id="Grupo_1113497" transform="translate(644.512)">
        <rect id="Rectángulo_406759" width="37.857" height="61.517" transform="translate(69.751 392.669)" fill="#752092"/>
        <g id="Grupo_1113493">
          <g id="Grupo_1204178" data-name="Grupo 1204178" clip-path="url(#clip-path-4)">
            <g id="Grupo_1113492" transform="translate(-0.077)">
              <path id="Trazado_895060" d="M736.338,6.418a12.89,12.89,0,0,1,8.423-.757c3.218.757,4.448,3.407,5.962,5.773,2.65,4.07,2.65,8.707,3.218,13.345.473,4.164,0,8.612,1.893,12.3,2.177,4.354,1.987,8.707,1.609,13.155-.189,2.839-2.366,4.164-4.354,5.584l-.852.284c-3.5,1.609-4.827.852-4.827-3.123a1.136,1.136,0,0,0-.284-.568c-.568,1.987-2.461,2.745-3.312,4.448a6.038,6.038,0,0,1-3.123,2.366,2.369,2.369,0,0,1-3.029-.662,3.009,3.009,0,0,1-.662-3.5,34.807,34.807,0,0,1,2.177-4.164,37.582,37.582,0,0,0,5.016-16.562,21.6,21.6,0,0,0-.379-4.259,3.246,3.246,0,0,0-2.555-2.461A33.106,33.106,0,0,1,730.849,22.6a1.482,1.482,0,0,0-1.42-.473,6.665,6.665,0,0,1-7.1-3.691c-.946-2.461-2.461-4.732-2.839-7.95-2.366,3.691-3.218,8.991-9.18,5.584a42.4,42.4,0,0,0-1.893,5.868,81.8,81.8,0,0,1-2.555,9.748c-1.041,3.6,0,9.086,3.123,11.168,2.461,1.7,3.123,4.164,3.786,6.72a42.625,42.625,0,0,0,1.325,4.637c.379,1.136,1.136,2.271,0,3.312s-2.177,0-3.313-.284a1.661,1.661,0,0,0-.378.473c-1.609,2.65-4.07,3.407-6.72,1.987a3.032,3.032,0,0,0-2.839-.284,5.054,5.054,0,0,1-4.638-.568c-5.3-3.5-6.341-7.761-3.786-13.534,1.325-3.123,3.5-5.679,4.921-8.707a7.436,7.436,0,0,0,.757-2.461,61.667,61.667,0,0,1,2.555-12.966,14.043,14.043,0,0,1,2.082-4.921c1.136-1.609,1.893-3.312,3.6-4.543,1.893-1.42,3.5-3.312,5.3-4.921,2.745-2.461,6.341-2.934,9.843-3.691,2.271-.473,4.638-.473,6.909-1.325a6.186,6.186,0,0,1,7.666,3.312,13.183,13.183,0,0,0,.568,1.23" transform="translate(-681.464 -0.077)" fill="#eacbc7"/>
              <path id="Trazado_895063" d="M697.38,101.877c18.266,3.218,36.153,1.514,54.04-2.177-.284,4.259,1.893,7.571,2.461,11.357a42.73,42.73,0,0,1,.189,8.518c-.473,5.489-3.6,10.316-4.164,15.711-.189,2.271-.757,4.354-.379,6.72a34.648,34.648,0,0,1,0,7,51.4,51.4,0,0,0,.189,5.395c.663,6.057,1.987,12.02,3.123,17.982.662,3.691,1.7,7.193,2.461,10.884a19.2,19.2,0,0,1,.852,5.679c-.095,1.7-1.325,3.218-2.271,4.637-3.6,5.111-8.044,9.559-12.3,14.1-2.177,2.366-4.354,4.732-6.625,6.909a50.321,50.321,0,0,1-8.423,6.341c-1.8,1.041-2.745.662-3.6-1.136-3.6-8.139-8.234-15.616-14.859-21.673-2.934-2.745-6.057-5.489-10.032-6.72-1.325-.379-1.041-1.609-.852-2.461,1.7-7.855,4.354-15.427,6.909-23.093a27.068,27.068,0,0,0,1.42-11.641c-.663-6.341-2.366-12.493-3.407-18.739-.852-4.921-1.7-9.748-2.271-14.764a104.079,104.079,0,0,0-1.988-13.25c-.379-1.7.095-3.6-.568-5.679" transform="translate(-681.781 -5.342)" fill="#e85722"/>
              <path id="Trazado_895064" d="M756.813,108.012c-.473-2.555-1.7-4.637-1.514-7.193a2.179,2.179,0,0,1,1.7-2.271,33.2,33.2,0,0,0,9.748-4.259c.284-.189.757-.095,1.23-.189.473,3.5-.568,6.909-.284,10.316,0,.473-.189.662-.662.852a29.772,29.772,0,0,1-10.316,2.745" transform="translate(-684.903 -5.042)" fill="#e85722"/>
              <path id="Trazado_895065" d="M683.2,97.795a10.711,10.711,0,0,1,4.543,1.42,31.306,31.306,0,0,0,6.625,1.893c1.514.284,2.082,1.136,1.987,2.177-.189,1.893.473,3.786,0,5.868-4.259-.189-8.612.473-12.871-.852-.379-3.5.379-6.909-.189-10.6" transform="translate(-681.041 -5.235)" fill="#e85722"/>
              <path id="Trazado_895066" d="M732.575,25.187c-4.164-4.164-5.773-9.464-6.719-15.143,2.65,8.518,6.909,15.521,16.562,17.7a43.137,43.137,0,0,0-.473-13.061c-.568-2.934-1.893-5.395-4.638-6.814-.189-.095-.284-.379-.378-.568a8.138,8.138,0,0,1,5.584,5.868,38.384,38.384,0,0,1,1.325,12.682,135.963,135.963,0,0,1-1.893,22.336c-.568,3.407-1.136,7.287-4.259,11.168,2.555-.473,3.88-2.271,5.111-4.07,1.987-2.65,2.555-6.057,4.07-8.9s1.23-5.679,1.23-8.612v-9.18c0-2.65-.473-5.3,0-7.95a71.517,71.517,0,0,1,.663,7.761c0,6.057.852,12.02.379,18.077-.284,3.5-.757,6.909-2.839,9.937a6.017,6.017,0,0,1-2.271,2.082c-.757.284-1.42.379-1.8-.568a1.9,1.9,0,0,0,2.271-.662,28.422,28.422,0,0,0,2.366-3.5c1.041-1.7-.189-3.5.662-5.111a1.751,1.751,0,0,0,0-1.8c-1.514,3.88-2.271,8.139-5.395,11.073-1.7,1.325-3.312,2.934-6.152,1.893,4.638-4.543,4.827-10.505,5.489-16.184-1.136,1.987-1.893,4.164-2.839,6.246-.568,1.23,0,3.029-.568,4.448a7.339,7.339,0,0,1-5.016,4.827c0,2.461-.189,5.111.946,7.571a7.982,7.982,0,0,0,5.111,4.448,44.593,44.593,0,0,0,16.562,1.7,6.776,6.776,0,0,1,4.638,1.42c2.461,1.893,3.5,4.543,3.975,7.571.852,5.584.568,11.168.379,16.846a53.679,53.679,0,0,0,1.136,12.3c1.23,5.584,1.609,11.357,2.272,17.036s.946,11.357,1.42,17.13a16.67,16.67,0,0,1-4.164,12.114,39.7,39.7,0,0,1-10.032,8.612,4.554,4.554,0,0,1-1.514.757c-.946.095-.946.757-.757,1.514.852,3.88,1.7,7.666,2.366,11.546.568,3.218.568,6.436.946,9.559a117.064,117.064,0,0,1,.757,19.118,127.41,127.41,0,0,1-2.177,18.928c-1.325,6.72-2.65,13.345-3.975,19.969-1.041,5.395-2.271,10.695-3.312,16.089-1.23,6.436-2.366,12.777-3.312,19.212a122.21,122.21,0,0,0-1.42,16.562A84.536,84.536,0,0,0,744.5,315.36a113.877,113.877,0,0,1,1.987,31.043c-.757,9.937-3.218,19.5-5.111,29.15-1.136,5.868-2.082,11.83-2.934,17.793-.757,5.3-.284,10.695-.284,15.995a94.237,94.237,0,0,1-.473,11.546,21.5,21.5,0,0,1-5.584,11.357,7.638,7.638,0,0,0-2.271,6.057,67.345,67.345,0,0,1,0,7.571,13.905,13.905,0,0,1-.662,4.354c-.852-.852-.189-1.8-.284-2.65-.473-5.868-.662-11.83-1.23-17.7-.473-5.584-.852-11.168-.946-16.846a132.092,132.092,0,0,1,.473-16.184c.284-3.312-.189-6.625-.189-9.937,0-4.921-.284-9.748,0-14.669.284-6.814.095-13.534.095-20.348,0-9.937.189-19.875,2.177-29.528a81.762,81.762,0,0,0,1.514-20.916c-.379-7.571-1.041-15.237-1.609-22.809-.568-7.287-1.42-14.575-1.8-21.862-.379-6.53-.284-13.061-1.325-19.5-.852-5.678-1.42-11.452-2.839-17.13-1.8-6.814-5.3-12.682-9.464-18.361a57.543,57.543,0,0,0-11.357-11.641,18.757,18.757,0,0,0-5.962-3.407c-.946,1.7-1.041,3.6-1.325,5.489-1.041,5.3-1.987,10.6-2.65,16.089-.473,4.448-.284,8.9-.379,13.345a85.491,85.491,0,0,0,1.136,14.764c1.23,7.287,2.745,14.575,4.448,21.862,2.272,9.37,4.638,18.644,7.288,27.919,1.7,5.962,3.313,11.925,5.016,17.887,1.609,5.584.757,11.168-1.041,16.657-1.7,5.111-2.177,10.411-2.461,15.711a74.479,74.479,0,0,0,.757,15.237,136.979,136.979,0,0,0,3.88,17.225c1.23,4.07,2.271,8.139,3.123,12.3,2.271,10.505,2.745,21.2,2.839,31.894,0,2.461.284,4.921.284,7.382,0,4.07-1.136,7.855-2.177,11.736s-2.555,7.571-2.366,11.736a6.677,6.677,0,0,0,4.732,6.246c1.893.568,3.5,1.8,5.3,2.461,3.313,1.136,4.354.852,6.057-1.893.473,1.988-.946,3.6-3.407,3.786-3.312.189-6.152-1.23-8.707-3.218-2.745-2.271-5.3-4.732-5.489-8.707a21.15,21.15,0,0,1,1.7-8.328,44.694,44.694,0,0,0,2.745-12.682c.379-5.773.284-11.546.284-17.319,0-4.448-.947-8.9-1.514-13.25-1.23-9.086-4.259-17.793-6.625-26.594a92.07,92.07,0,0,1-3.6-23.85,73.376,73.376,0,0,1,3.88-23.944,21.588,21.588,0,0,0,.379-13.818c-2.839-8.612-5.584-17.319-8.139-26.027-1.893-6.341-3.218-12.871-4.827-19.307-1.041-4.07-1.8-8.139-2.65-12.3a119.3,119.3,0,0,1-2.177-16.373c-.095-3.123-.568-6.152-.568-9.275a54.633,54.633,0,0,1,.946-10.411c.757-3.691.852-7.477,1.325-11.262.757-5.3,1.893-10.6,3.029-15.805a78.41,78.41,0,0,1,3.123-11.168c-3.218-1.8-6.625-3.407-9.275-6.152a38.247,38.247,0,0,1-7.193-9.748c-1.514-3.029-1.325-6.436-.946-9.653.473-3.975.284-7.855.473-11.83.284-7.571,0-15.237.189-22.809.095-7.761.379-15.521.663-23.187a19.179,19.179,0,0,1,1.987-8.234c2.177-4.07,5.773-5.489,9.937-6.246a68.371,68.371,0,0,0,17.414-5.111c2.177-1.041,3.691-2.366,3.88-4.921,0-1.609.473-3.218.568-4.827.284-4.543.284-4.543-3.786-7.571a10.16,10.16,0,0,0,3.312,6.53,3.718,3.718,0,0,1-2.745-2.271c-1.23-2.366-1.42-4.921-1.8-7.477-.284-1.987-.568-3.975-3.029-4.637-2.555,3.029.662,14.48,5.489,17.13a1.5,1.5,0,0,1-1.893-.568h0c-.189,0-.379,0-.473-.189a18.33,18.33,0,0,1-4.543-9.653c-.095-.662.095-1.514-.663-2.177-.379,3.975,0,7.666,2.555,10.789.852,1.041,1.7,1.7,3.123,1.136-.473,1.42-1.42,1.514-2.555.852a7.217,7.217,0,0,1-3.218-3.88,16.273,16.273,0,0,1-.284-10.6c.284-1.23,1.988-1.7,1.893-3.407A13.206,13.206,0,0,1,704.372,32.1c.189-1.325.662-2.461,2.177-2.555-.852-5.111-.852-9.937,3.123-13.912-2.461,3.407-2.839,7.193-2.934,11.736.852-2.082.568-4.07,1.7-5.584-.284,1.8-.379,3.691-.757,5.489a7.092,7.092,0,0,0,.284,3.975c1.136,3.123,1.8,6.436,2.934,9.653,1.041,3.218,1.136,6.909,3.6,9.464,5.489,5.679,13.534,8.234,20.443,2.65a15.926,15.926,0,0,0,4.827-7.761,17.76,17.76,0,0,1,1.136-2.839c1.7-3.407,1.136-7,1.325-10.6.189-3.123,0-3.218-3.029-4.07-2.082-.568-3.88-1.8-6.057-1.987l-.662-.662m18.077,70.035c-17.887,3.6-35.585,5.3-53.378,2.177a59.347,59.347,0,0,0,.852,8.139c1.041,6.814,1.893,13.628,2.839,20.443s2.934,13.534,3.975,20.348a32.024,32.024,0,0,1-1.23,15.237c-2.65,7.477-5.3,15.048-6.814,22.809-.095.663-.284,1.325.662,1.7a26.611,26.611,0,0,1,7.95,4.921,58.934,58.934,0,0,1,13.818,17.13c1.42,2.745,2.745,5.489,3.88,8.328,2.271-.189,3.786-1.609,5.395-2.745,4.638-3.123,8.329-7.193,12.02-11.262,4.259-4.543,8.707-8.991,12.209-14.2,1.041-1.514,2.461-2.934,2.082-5.205-.757-5.773-2.461-11.262-3.5-16.941-1.42-8.328-3.407-16.468-2.934-24.985.189-3.88-.568-7.761.379-11.641.757-3.029,1.7-6.057,2.745-8.991a27.93,27.93,0,0,0-.379-19.78c-.663-1.7-1.42-3.407-.663-5.584M723.584,217.405c.757,2.839,1.7,5.489,2.177,8.329,1.514,8.707,2.934,17.414,3.123,26.216,0,3.786.284,7.666.662,11.452.852,8.045,1.514,16.089,1.893,24.134.284,6.72.662,13.439.473,20.159v1.7c.662,3.312.095,6.53-.568,9.653-2.082,9.937-2.65,19.969-2.839,30-.189,8.9.095,17.793-.284,26.689-.189,3.5-.095,6.909,0,10.411a76.492,76.492,0,0,1,.189,10.411q-.568,8.234-.568,16.468a134.113,134.113,0,0,0,1.136,13.723c.189,2.082.379,4.259.568,6.436.095,0,.189-.095.284-.189.379-.473.757-1.041,1.136-1.514,4.732-5.3,5.868-11.736,5.962-18.55,0-4.07-.284-8.234-.473-12.3-.284-6.53,1.136-12.871,2.082-19.212.852-6.341,2.461-12.587,3.786-18.834a110.392,110.392,0,0,0,2.745-21.578,149.829,149.829,0,0,0-1.7-23.471c-.568-3.88-1.42-7.666-1.514-11.546a127.854,127.854,0,0,1,.946-21.673c.946-7.287,2.177-14.575,3.407-21.862.757-4.448,1.7-8.9,2.461-13.345,1.23-6.72,2.555-13.344,3.786-20.064,1.136-6.152,2.177-12.209,2.745-18.455a147.547,147.547,0,0,0,.379-19.4,40.322,40.322,0,0,0-.568-5.395A108.047,108.047,0,0,1,745.258,198c-4.164,4.637-7.761,9.653-12.682,13.534-2.745,2.177-5.489,4.543-9.18,5.395m28.96-123.886a55.491,55.491,0,0,0,9.559-3.691,2.611,2.611,0,0,0,1.7-3.123,52.883,52.883,0,0,0-.757-5.584c-1.041-4.164-3.123-7.571-8.612-6.72a29.813,29.813,0,0,1-14.669-1.7c-4.448-1.7-7.571-4.448-7.855-9.464a29.066,29.066,0,0,1,.379-6.436,9.184,9.184,0,0,0-2.65,1.514c-2.934,2.271-5.395,2.082-7.855-.663-1.23-1.325-2.839-1.8-4.354-2.934a54.5,54.5,0,0,1-.284,7.855c-.379,2.745-.946,5.3-4.07,6.246-1.609.568-3.029,1.23-4.637,1.893-5.205,2.082-10.695,2.839-15.995,4.164a10.01,10.01,0,0,0-7.287,6.152c-1.325,3.029-1.136,6.152-1.514,9.275a2.608,2.608,0,0,0,1.514,2.839,40.242,40.242,0,0,0,10.411,3.218c.189-.757.379-1.42.568-2.082a.86.86,0,0,1,.757.946c-.189,1.7.852,1.8,2.082,1.893,2.177.189,4.448.663,6.625.852,3.975.284,8.045.662,12.02.757s7.95-.568,12.02-.852c6.814-.473,13.439-1.987,20.159-3.312a2.03,2.03,0,0,0,1.609-1.514c.284-1.136,0-2.271.473-3.5,1.325,1.325.473,2.745.568,4.259m-55.933,11.546a39.319,39.319,0,0,1-12.871-.662c-.189,6.152-.473,12.114-.568,17.982-.095,8.518.189,16.941-.568,25.459-.379,4.637,1.514,8.234,3.975,11.641,3.313,4.448,7.287,8.234,12.587,10.505,1.23-3.123,2.555-6.341,3.88-9.559a1.148,1.148,0,0,0-.284-1.23c-2.555-2.271-4.164-5.3-6.341-7.855a8.3,8.3,0,0,1-2.082-5.868c0-7,1.514-13.912,2.461-20.821.378-3.029,1.136-6.057,1.041-8.991,0-3.5-.852-7-1.23-10.6m57.164-1.136a31.647,31.647,0,0,1-1.23,19.4,2.308,2.308,0,0,0,0,1.136c.662,3.407,1.42,6.814,1.987,10.221.757,4.259,1.609,8.612-.946,12.587-.852,1.325-1.514,2.65-2.271,3.975a2.935,2.935,0,0,0-.379,2.177c.663,4.164,1.42,8.423,2.177,12.777a13.411,13.411,0,0,0,1.7-.757,42.471,42.471,0,0,0,10.032-8.8c2.366-2.839,4.259-6.152,4.07-10.127-.189-3.691-.284-7.382-.757-11.073-1.041-8.991-1.42-18.077-3.407-26.878a46.428,46.428,0,0,1-.852-7.287,26.656,26.656,0,0,1-10.127,2.555m-55.365,17.793-.284,3.123c-.852,5.678-1.7,11.452-2.461,17.13-.473,3.6-.284,7,2.745,9.653l.568.852c1.42,2.082,2.934,4.07,4.448,6.246a15.393,15.393,0,0,0,.946-9.653c-1.7-9.18-4.543-18.171-5.962-27.446m54.892-18.361c3.218-.189,5.962-1.23,8.8-2.082a2.324,2.324,0,0,0,1.8-2.65h0a32.064,32.064,0,0,1,.189-4.259V89.544a36.023,36.023,0,0,1-10.316,4.637,2.17,2.17,0,0,0-1.8,2.271c-.189,2.271,1.325,4.07,1.42,6.53M683.551,92.951v9.18a1.2,1.2,0,0,0,.947,1.42h.095c3.786.662,7.571.379,11.262.379.189-1.893-.284-3.6,0-5.3.189-1.136-.379-1.8-1.609-1.987a39.824,39.824,0,0,1-10.695-3.691m66.817,57.069c1.7-3.691,5.016-6.72,3.029-11.262v-.379c-.662-3.786-1.325-7.571-1.987-11.452-1.7,3.029-2.366,19.5-.946,23.093M709.861,42.6c-.946-3.786-1.7-7.193-2.555-10.505-.189-.568-.284-1.325-1.136-1.325-.757,0-.852.757-.852,1.23a12.017,12.017,0,0,0,4.543,10.6m23.471,15.9c3.029-1.514,4.164-3.88,4.448-7-1.23.757-1.42,2.366-2.555,2.839-1.893.757-1.893,2.271-1.893,4.164" transform="translate(-680.918 -0.391)" fill="#8e3a21"/>
              <path id="Trazado_895067" d="M738.476,3.312a17.755,17.755,0,0,1,5.016.568c3.786,1.23,5.205,4.543,6.53,7.855,2.082,5.016,2.555,10.411,3.88,15.616,1.42,5.773,3.123,11.546,4.637,17.319A16.6,16.6,0,0,1,758.919,53a4.618,4.618,0,0,1-2.934,3.5c-1.987.662-3.975,1.514-5.962,2.271a2.09,2.09,0,0,1-1.514,0c2.366-1.514,4.07-3.312,4.259-6.53-.852,1.136-1.041,2.366-1.987,3.029-.852.662-1.42,1.8-2.839,1.8,4.354-3.123,4.732-7.477,4.07-12.209.663,2.082,2.271,3.691,1.8,6.057-.378,2.271-.378,4.543-1.987,6.436,4.543-.568,7.193-4.448,6.341-8.991-1.041-5.3-2.65-10.505-4.07-15.711-1.514-5.489-2.271-11.073-3.691-16.562a27.251,27.251,0,0,0-3.313-8.045c-1.987-3.312-5.111-3.975-9.37-3.786-.189-2.461-1.136-3.218-4.07-3.312-5.3-.189-10.316,1.23-15.332,2.555a22.739,22.739,0,0,0-10.695,5.773c-3.691,3.786-5.205,8.612-6.246,13.628-.663,3.312-.757,6.814-1.988,10.032a16,16,0,0,1-4.543,6.341c-6.909,6.246-3.218,16.846,3.691,20.443a20.145,20.145,0,0,0,3.123,1.041c-.663.757-1.325.473-1.988.284-7.666-2.082-13.06-13.345-6.057-21.389a22.975,22.975,0,0,0,5.773-12.777,40.4,40.4,0,0,1,3.6-12.682A19.7,19.7,0,0,1,713.87,4.07,58.763,58.763,0,0,1,733.366,0c3.407,0,4.827,1.041,5.111,3.312" transform="translate(-681.425)" fill="#8e3a21"/>
              <path id="Trazado_895068" d="M717.807,16.486c.284,4.07,1.136,6.909,2.555,8.612-2.177.379-6.625-4.07-7.382-7.571-.852-3.88-.284-9.37,3.123-10.127a10.072,10.072,0,0,0-1.987,8.139c.473,3.029,2.177,5.3,4.069,7.571a38.784,38.784,0,0,1-1.136-6.625,22.538,22.538,0,0,1,.662-6.625c.757,7.761,4.448,13.155,12.3,15.237-3.6.946-8.707-2.745-12.3-8.707" transform="translate(-682.617 -0.396)" fill="#8e3a21"/>
              <path id="Trazado_895069" d="M700.737,44.2c-3.407,8.612.379,16.657,6.909,18.55a6.027,6.027,0,0,1-6.909-1.893c-3.691-5.111-3.691-10.411-.852-15.9.189-.379.379-.757.852-.757" transform="translate(-681.826 -2.368)" fill="#8e3a21"/>
              <path id="Trazado_895070" d="M734.782,25.113l.663.662c-.757.852-1.42.095-1.987-.189a16.213,16.213,0,0,1-7.666-9.937c-.568-1.893-.946-3.786-1.42-5.679A6.545,6.545,0,0,0,722.1,6.184c1.041-.662,1.514,0,1.987.473,1.7,2.082,2.177,4.637,2.839,7.1A20.937,20.937,0,0,0,732.7,23.882a3.284,3.284,0,0,0,2.177,1.136" transform="translate(-683.125 -0.316)" fill="#8e3a21"/>
              <path id="Trazado_895071" d="M723.4,48.235c2.745-1.325,5.3-1.7,7.855-.095-1.041,1.7-2.082,3.407-4.448,3.407-2.082,0-2.461-1.987-3.407-3.312" transform="translate(-683.195 -2.523)" fill="#8e3a21"/>
              <path id="Trazado_895072" d="M711.2,30.012c2.555-2.082,8.518-2.082,10.6,0-3.691.189-7.1-1.514-10.6,0" transform="translate(-682.541 -1.524)" fill="#8e3a21"/>
              <path id="Trazado_895073" d="M719.646,333.112c-.946-1.609-.189-3.029.284-4.448.662-1.7-1.988-2.461-1.041-4.164,1.041.379,2.745,2.555,2.461,3.407-.568,1.7-1.23,3.407-1.7,5.111" transform="translate(-682.942 -17.387)" fill="#8e3a21"/>
              <path id="Trazado_895074" d="M741.921,30.425a28.054,28.054,0,0,0-8.9,0c-.568.095-1.325.189-1.325-.568s.757-.757,1.325-.757a24.333,24.333,0,0,1,8.991,1.23" transform="translate(-683.639 -1.559)" fill="#8e3a21"/>
              <path id="Trazado_895075" d="M714.9,34.8c2.177.379,4.259,2.65,6.53.095a2.926,2.926,0,0,1-2.745,2.082A4.15,4.15,0,0,1,714.9,34.8" transform="translate(-682.739 -1.865)" fill="#8e3a21"/>
              <path id="Trazado_895076" d="M739.052,35.1a4.367,4.367,0,0,1-5.205,1.7q-.852-.284-.946-1.7c2.082,1.325,4.164,1.987,6.152,0" transform="translate(-683.704 -1.881)" fill="#8e3a21"/>
              <path id="Trazado_895077" d="M723.8,29.7c3.691,1.7,3.691,5.584,2.082,8.234.379-1.8.757-3.218.379-4.732s-2.366-1.609-2.461-3.5" transform="translate(-683.216 -1.591)" fill="#8e3a21"/>
              <path id="Trazado_895078" d="M725.286,41.1l1.42,3.691c-1.609-.568-1.988-1.23-1.42-3.691" transform="translate(-683.282 -2.202)" fill="#8e3a21"/>
              <path id="Trazado_895079" d="M731.205,129.718c-1.7.568-3.218,1.7-5.205,1.42a17.288,17.288,0,0,0,7.666-4.637c-.189,1.7-1.42,1.987-1.8,2.839l-.663.379" transform="translate(-683.334 -6.778)" fill="#8e3a21"/>
              <path id="Trazado_895080" d="M731.371,129.846l.663-.379c.757,0,1.23-.852,2.366-.473-1.893,1.041-3.218,2.366-5.3,2.934.473-1.23,1.893-1.136,2.271-2.177" transform="translate(-683.5 -6.906)" fill="#8e3a21"/>
              <path id="Trazado_895081" d="M742.518,324.9c-.663,2.366.095,4.827-.663,7.1a6.8,6.8,0,0,1-2.366,3.029c-.568-.852.284-1.325.568-1.8a4.507,4.507,0,0,0,.852-4.07c-.662-1.893.662-3.029,1.7-4.259" transform="translate(-684.046 -17.408)" fill="#8e3a21"/>
            </g>
          </g>
        </g>
      </g>
      <g id="Grupo_1113496" transform="translate(845.531)">
        <ellipse id="Elipse_11496" cx="30.784" cy="30.784" rx="30.784" ry="30.784" transform="translate(67.714 392.205)" fill="#752092"/>
        <g id="Grupo_1113495">
          <g id="Grupo_1204179" data-name="Grupo 1204179" clip-path="url(#clip-path-5)">
            <g id="Grupo_1113494" transform="translate(-0.055)">
              <path id="Trazado_895082" d="M942.393,231.39c-1.041-2.366-1.8-4.921-3.218-7a29.669,29.669,0,0,0-5.773-6.625c-3.6-2.934-7-5.868-10.695-8.612-5.111-3.786-10.505-7-16.657-8.707-2.555-.757-5.016-1.609-7.761-2.177.946-2.555,1.8-5.016,2.839-7.382,1.609-3.691,3.407-7.382,4.921-11.168,2.555-6.246,4.827-12.493,7.382-18.739a50.1,50.1,0,0,0,3.218-10.316c.662-4.354.379-8.518-2.745-11.83a25.985,25.985,0,0,1-5.962-10.978,17.386,17.386,0,0,1,1.42-11.925c.947-1.987,1.7-3.975,2.839-5.868,1.041-1.8.189-3.786-.568-5.679a5,5,0,0,0,0,2.366c.568,2.366-.852,4.259-1.7,6.246-.189.473-.852.284-1.325.284-2.65-.379-5.205-.946-7.855-1.23a2.372,2.372,0,0,1-2.366-2.177v-.095c-.284-3.975-.757-8.045.946-11.925a16.915,16.915,0,0,1,4.07-5.3.864.864,0,0,1,1.041-.189c3.5,1.7,7.382,2.271,11.073,3.218a53.527,53.527,0,0,0,7.666,1.136A153.524,153.524,0,0,0,941.825,97c6.246-.189,12.493-.473,18.645-1.136a82.551,82.551,0,0,0,15.9-2.934,54.128,54.128,0,0,0,6.436-2.65c1.514-.757,2.65-.379,3.5,1.136a22.162,22.162,0,0,1,2.461,8.423c.095,3.312,0,6.53-.189,9.748,0,.284,0,.662-.284.852-2.65,2.082-5.3,3.975-8.707,4.354a1.441,1.441,0,0,1-1.609-1.041,9.762,9.762,0,0,1-.852-7.1v-1.23a5.98,5.98,0,0,0-.379,6.909,27.7,27.7,0,0,1,3.313,11.262,25.131,25.131,0,0,1-.284,8.423c-.757,3.691-3.218,6.53-5.395,9.37a6.315,6.315,0,0,0-1.42,3.6,50.734,50.734,0,0,0,4.922,24.134c3.028,6.625,5.868,13.345,8.423,20.159a44.916,44.916,0,0,1,1.893,6.057c.473,2.271-1.23,3.691-2.555,5.111-4.827,4.921-10.6,8.707-16.562,12.209-3.123,1.8-6.246,3.691-9.37,5.489-2.839,1.609-5.016,3.975-7.382,6.246-2.461,2.366-4.732,5.111-7.95,6.625a2.818,2.818,0,0,1-1.987.379m6.436-91.613c3.6,1.23,7.193,2.65,11.073,2.934-3.691-.852-7.193-2.839-11.073-2.934" transform="translate(-893.597 -4.817)" fill="#fdd6cf"/>
              <path id="Trazado_895083" d="M924.3,11.955v-1.42c-.379-2.934,1.041-5.205,2.745-7.287,1.23-1.514,3.123-1.609,4.827-2.177,3.691-1.23,7.1,0,10.6,1.23,4.354,1.514,7.95,4.448,12.02,6.436a4.051,4.051,0,0,1,1.325,1.514,20.852,20.852,0,0,0,6.72,5.016c3.975,1.987,5.489,5.395,5.962,9.464.379,2.934,0,5.773,0,8.707a3.724,3.724,0,0,0,1.23,2.745c2.839,2.555,5.395,5.395,6.72,9.086a3.421,3.421,0,0,1-.284,3.029,13.084,13.084,0,0,1-4.638,4.732c-1.325.852-1.136,2.082-.852,3.218a7.4,7.4,0,0,0,1.7,3.312c.947.946.568,1.987-.757,2.177-1.8.284-3.691,1.041-5.489-.284-.378-.284-.852-.095-1.325.095-4.164,2.271-6.909,1.8-10.127-1.514a2.212,2.212,0,0,0-.662-.662c0,1.514,1.041,2.366,1.987,3.312.284.284.852.568.568,1.136s-.946.189-1.325,0c-2.745-.946-3.88-3.312-3.407-6.246.379-3.029,1.893-5.489,3.5-7.95.947-1.514.852-3.5.568-5.3-.095-.662-.284-1.23.379-1.42a1.557,1.557,0,0,0,1.136-1.7c0-1.325,1.42-2.461.757-3.88a30.635,30.635,0,0,0-1.609-3.029,9.787,9.787,0,0,0-3.407-3.407,21.864,21.864,0,0,1-7.193-6.625,8.925,8.925,0,0,0,.568,4.164c0,.284.284.473.284.757.189.757,1.23,1.7.284,2.271-1.041.662-1.7-.473-2.271-1.23-2.271-3.5-3.5-7.287-2.555-11.452.473-2.177.284-2.555-1.987-3.123a7.7,7.7,0,0,0-3.6,0,23.112,23.112,0,0,0-8.8,3.6c-4.732,3.312-6.436,8.234-5.962,13.912.189,2.271.379,4.637-.568,6.814A6.452,6.452,0,0,1,919.28,42.9c1.42,1.514,1.42,3.88,3.88,4.543.568.189.946.946,1.325,1.514a51.968,51.968,0,0,0,6.057,8.328c.189.189.284.568.473.568.757,0,1.514,0,1.8.946a4.177,4.177,0,0,1,0,3.029c0,.189-.095.284-.189.473-.284.757-.379,1.8-1.325,1.7-1.23-.095-.189-1.23-.852-1.893-2.082,1.893-4.259,4.07-7.571,2.839-.189-.852.663-.662.663-1.136-1.23-.757-2.271-.379-3.407.189a8.875,8.875,0,0,1-4.07,1.23,1.6,1.6,0,0,1-1.8-1.325h0c1.8-.284,3.5-.568,4.732-1.893-.379-.662-.946-.757-1.419-1.041-2.555,2.177-7.287,1.893-8.707-.568a3.931,3.931,0,0,1,2.366-.284,2.176,2.176,0,0,1,1.325-2.082,30.946,30.946,0,0,0-5.489-3.691,4.775,4.775,0,0,1-2.839-3.312l-.568-1.987c-1.136-3.123-.852-4.164,1.893-5.868,2.366-1.42,4.259-3.312,6.53-4.921,1.325-.946.568-2.461.284-3.5-1.893-6.057.095-11.546,2.839-16.657,1.893-3.6,5.205-5.395,9.37-5.773" transform="translate(-893.862 -0.03)" fill="#eacbc7"/>
              <path id="Trazado_895086" d="M946.586,31.381c-1.8-2.461-1.988-5.205-1.42-8.139a16.542,16.542,0,0,0,1.7,2.745c2.177,2.555,4.448,5.016,7.761,6.057,2.934.946,4.164,4.259,3.407,7.761a6.016,6.016,0,0,1-2.65,4.07c2.461.473,3.975-1.609,4.543-5.679.757.662.473,1.514.284,2.177a6.949,6.949,0,0,1-1.42,3.312c-3.6,4.164-3.691,8.8-.189,13.061a2.376,2.376,0,0,1,.379.662c-1.987-.284-3.88-3.312-4.07-6.72-2.65,3.691-4.164,7.666-3.407,12.3a80.639,80.639,0,0,0,1.514,8.328,7.827,7.827,0,0,0,4.259,5.205,55.639,55.639,0,0,0,14.1,4.448c2.745.568,5.584,1.136,8.423,1.609,4.448.852,7.1,3.786,8.612,7.761a26.919,26.919,0,0,1,.947,14.48c-.568,2.839,0,5.773-.284,8.707-.378,6.625-.568,13.155-1.136,19.78a144.412,144.412,0,0,0-.662,20.253,81.635,81.635,0,0,0,3.218,17.13c2.082,7.761,1.893,15.616.568,23.377-.852,5.016,0,10.032,0,15.048a163.468,163.468,0,0,1-.946,17.982,141,141,0,0,1-3.028,16.752,169.274,169.274,0,0,1-8.707,27.257c-3.407,8.328-7,16.562-10.695,24.8-1.23,2.839-2.65,5.584-3.88,8.423a15.921,15.921,0,0,0-.757,8.423,48.836,48.836,0,0,1,0,12.871c-.852,10.316-4.448,19.875-8.707,29.244a126.131,126.131,0,0,0-7.76,20.916,42.087,42.087,0,0,0-.757,7.666c-.284,4.921-.757,9.937-1.041,14.859a106.519,106.519,0,0,0,1.23,23.282c.662,4.164.946,8.518,1.325,12.682a112.472,112.472,0,0,1,1.041,11.357,12.43,12.43,0,0,1-1.514,6.625,2.27,2.27,0,0,1-2.082,1.136c-6.909.379-12.3-2.555-17.509-6.72-3.5-2.839-3.123-6.246-2.745-9.748a55.15,55.15,0,0,1,3.6-14.1,1.716,1.716,0,0,0-.284-1.893c-2.461-3.407-3.123-7.287-2.934-11.546.189-5.111,1.7-9.937,2.745-14.859.568-2.555.852-5.111,1.23-7.666.379-2.839-.757-5.489-1.609-8.139-3.218-10.6-7-21.011-8.9-31.894a54,54,0,0,1-.189-16.562c.379-2.839,1.514-5.395,2.082-8.139a22.346,22.346,0,0,0-.946-10.884c-1.988-6.625-5.395-12.587-7.95-19.023a303.477,303.477,0,0,1-9.937-28.771c-2.177-7.666-4.164-15.427-6.152-23.187a85.444,85.444,0,0,1-1.7-12.02c-.473-4.354-.095-8.707-.189-13.061a70.929,70.929,0,0,1,2.461-18.361,31.662,31.662,0,0,0,.473-5.962,81.4,81.4,0,0,1,3.691-20.159,65.089,65.089,0,0,0,2.082-14.2c.284-5.3-.852-10.316-1.325-15.521-.757-8.423-2.177-16.846-2.934-25.269a138.567,138.567,0,0,1-.757-16.562,14.654,14.654,0,0,1,7.571-12.777c3.029-1.8,6.436-2.65,9.653-3.786,4.353-1.514,8.991-2.271,12.871-5.016,3.312-2.366,5.3-5.3,5.205-9.464a57.9,57.9,0,0,0-.379-8.139,1.526,1.526,0,0,0-.568-1.23A26.478,26.478,0,0,1,923.3,48.606c-.189-.379-.284-.757-.757-.946a4.863,4.863,0,0,1-3.786-3.786,8.109,8.109,0,0,0-3.6,8.423,3.619,3.619,0,0,0,3.123,2.934,6.526,6.526,0,0,1,2.839,1.325c1.987,1.42,2.271,3.029,1.041,5.111-.378.662-.757,1.325-1.23,2.177a5.989,5.989,0,0,0,3.407-3.218,14.512,14.512,0,0,0,1.041-4.448,7.757,7.757,0,0,1-.663,8.518,5.087,5.087,0,0,0,3.691-.946c1.041-.662,1.325-1.987,2.177-3.029.568,2.555-2.082,4.543-4.353,4.732a4.554,4.554,0,0,1-2.745-.379,3.332,3.332,0,0,0-3.123.284c-1.136.473-2.271.757-3.312-.095v-.379c2.461-.379,2.934-2.745,4.259-4.164,1.041-1.136.378-2.839-1.325-3.975a8.678,8.678,0,0,0-2.177-.852,4.657,4.657,0,0,1-3.407-4.448,8.754,8.754,0,0,1,3.407-8.139,7.765,7.765,0,0,0,3.029-7,28.422,28.422,0,0,1,.852-9.748c1.23-4.07,3.88-6.53,7.382-8.328.757-.379,1.041-.757.946-1.514A6.519,6.519,0,0,1,935.134,9.9c2.839-.379,5.489,1.8,6.341,5.016.852,3.029.663,6.057.568,9.18-.094,3.407,1.609,5.584,4.354,7.287M898.318,193.6c.189,0,.379.189.568.189a66.384,66.384,0,0,1,14.575,5.016,78.668,78.668,0,0,1,14.1,9.559c3.407,2.745,6.909,5.395,9.653,8.9a31.467,31.467,0,0,1,5.111,9.843c.568-.284,1.041-.473,1.514-.662,2.839-1.325,4.827-3.6,7-5.679,3.029-2.839,5.868-5.868,9.559-7.95,4.637-2.745,9.559-5.205,14.007-8.328,3.786-2.745,7.761-5.3,10.884-8.8,1.23-1.325,2.839-2.555,2.177-4.732a160.8,160.8,0,0,0-7.287-19.875c-1.609-3.786-3.6-7.287-4.827-11.262a56.135,56.135,0,0,1-2.934-18.928,5.776,5.776,0,0,1,1.42-3.88c2.366-2.839,4.732-5.773,5.489-9.464a28.357,28.357,0,0,0-2.745-18.266,9.078,9.078,0,0,1-1.23-4.921,6.384,6.384,0,0,1,1.7-3.691c-.568,3.6-.473,6.909,1.609,9.937a13.123,13.123,0,0,0,5.489-1.893c2.555-1.325,4.07-2.839,4.07-6.152,0-4.921,0-9.748-2.082-14.291-.946-2.082-1.987-2.555-3.975-1.514-.946.473-1.987.946-3.029,1.42-6.53,2.65-13.439,3.407-20.348,4.07-6.341.662-12.682.852-19.118.946-8.328.095-16.562.284-24.7-1.514a66.5,66.5,0,0,1-11.262-3.218,12.884,12.884,0,0,0-4.448,5.584c-1.7,3.786-1.136,7.761-.852,11.641a1.7,1.7,0,0,0,1.609,1.8h0c2.65.473,5.395.852,8.139,1.325.662.095.946-.189,1.325-.757a9.978,9.978,0,0,0,1.136-7.855c-.095-.662-.095-1.136.379-1.325,1.893,3.6,1.609,6.814-.379,10.316-2.272,3.88-3.88,8.045-3.123,12.777.662,4.07,1.987,7.855,4.827,10.789a14.921,14.921,0,0,1,4.448,10.978c0,3.88-1.23,7.477-2.555,10.979-3.88,10.505-8.044,20.916-12.682,31.137-1.23,2.65-2.177,5.395-3.218,8.045m-.094.852a22.6,22.6,0,0,0-1.8,5.395,53.239,53.239,0,0,0-2.177,13.818,133.84,133.84,0,0,0,.568,13.818,82.7,82.7,0,0,0,2.461,14.48c2.177,7.761,4.164,15.616,6.341,23.377a242.3,242.3,0,0,0,9.748,27.825,155.231,155.231,0,0,1,7.855,21.294,17.744,17.744,0,0,1-.095,10.411,43.824,43.824,0,0,0-1.7,14.859,74.716,74.716,0,0,0,3.218,18.266c1.609,5.678,3.218,11.357,4.921,16.941a91.563,91.563,0,0,1,3.88,17.319,85.922,85.922,0,0,1,.379,17.793c-.473,4.732-.946,9.464-2.839,14.007a47.045,47.045,0,0,0-3.88,12.871c-.378,3.123.189,5.678,2.839,7.855a73.916,73.916,0,0,0,10.411,6.53c2.082,1.136,4.354,1.136,6.625,1.041a1.109,1.109,0,0,0,1.041-.852,9.925,9.925,0,0,0,1.136-4.354c0-3.029-.378-5.962-.568-8.991-.473-5.205-.852-10.505-1.8-15.711-1.23-6.909-2.366-13.723-2.177-20.821a80.116,80.116,0,0,1,.852-10.695,125.642,125.642,0,0,0,1.325-15.711c.19-3.88.473-7.761.947-11.641.473-3.407.947-6.909,1.325-10.316.473-5.584.379-11.168.379-16.752a73.755,73.755,0,0,0-.757-12.114,33.327,33.327,0,0,1-.852-6.057c0-2.839.473-5.584.379-8.518-.189-4.259.189-8.518,0-12.682-.189-3.6,0-7.193,0-10.789V269.974c0-5.868-.568-11.736-1.041-17.6-.663-8.139-1.7-16.184-4.164-24.039-1.514-5.016-3.786-9.559-7.666-13.061a136.757,136.757,0,0,0-14.291-11.357,67.033,67.033,0,0,0-21.105-9.37m48.835,177.075c1.42-5.868,3.88-11.357,6.341-16.846,3.218-7.477,6.246-15.048,7.855-23.093a56.945,56.945,0,0,0,1.041-15.995,30.153,30.153,0,0,1,2.65-16.278c4.07-8.329,7.477-16.941,10.978-25.553a196.224,196.224,0,0,0,9.464-28.109,160.549,160.549,0,0,0,4.543-26.689,96.863,96.863,0,0,0-.284-19.591,36.344,36.344,0,0,0-1.041-5.584,31.038,31.038,0,0,1-7.477,7.855c-5.489,4.354-11.736,7.571-17.887,10.978-2.839,1.514-5.678,3.123-7.761,5.679a53.72,53.72,0,0,1-7,6.909c-1.609,1.325-3.313,2.555-5.584,2.555,2.082,5.395,2.745,11.073,3.5,16.657.662,5.489.568,10.979,1.23,16.468,1.041,9.086.757,18.171.946,27.257,0,4.921,0,9.937.095,14.859,0,3.123-.189,6.246-.189,9.37,0,2.934-.757,5.868-.095,8.8a47.625,47.625,0,0,1,.946,5.3,146.279,146.279,0,0,1,.379,15.805,122.147,122.147,0,0,1-1.514,19.5,67.966,67.966,0,0,0-.947,9.748M982.833,85.043a6.15,6.15,0,0,0-2.177-.852c-6.72-1.42-13.534-2.65-19.969-5.111-3.407-1.325-6.814-2.839-8.328-6.53a31.937,31.937,0,0,1-1.988-14.575,29.192,29.192,0,0,1-3.88,2.839,8.765,8.765,0,0,0-1.325,1.325c-2.555,2.745-4.827,2.934-7.855.662a16.443,16.443,0,0,1-1.42-1.23,7.257,7.257,0,0,0-2.934-1.514,33.136,33.136,0,0,1,.662,9.18,8.038,8.038,0,0,1-1.7,5.016,24.421,24.421,0,0,1-10.505,7.477c-4.259,1.42-8.612,2.745-12.871,4.164a6.878,6.878,0,0,0-3.691,2.082A125.6,125.6,0,0,0,918,90.911c8.234,1.23,16.562,1.136,24.891.946,8.8-.189,17.6-.473,26.216-2.177a47.6,47.6,0,0,0,13.818-4.637M937.689,11.6a1.9,1.9,0,0,0-.757-.379c-3.029-.757-6.057,1.893-5.868,5.395a2.1,2.1,0,0,1-1.23,2.177c-2.177,1.42-4.448,2.65-5.773,5.111-2.082,3.975-2.366,8.234-2.177,12.587.094,2.271,0,4.448-1.8,6.057a.812.812,0,0,0-.284,1.23,7.192,7.192,0,0,0,2.65,2.934c-.189-1.8-.852-3.5-.662-5.205a2.933,2.933,0,0,1,.568,1.23,28.714,28.714,0,0,0,6.53,12.587c2.839,3.123,5.868,5.679,10.505,5.868,4.543.189,8.234-1.23,10.979-4.921a39.644,39.644,0,0,0,3.88-7.761c.379-.946.095-2.555,1.8-2.745a3.709,3.709,0,0,1,.189-.568c-4.164-.189-5.584-.946-5.489-2.934,1.609,1.42,2.366,1.42,4.164.379,1.42-.757,1.7-2.177,1.893-3.5.568-3.5.095-5.489-3.313-6.909-1.135-.473-2.366-.946-3.5-1.325a4.7,4.7,0,0,0-2.555-.095c.095.852,1.041.946,1.041,1.7-1.23.473-2.082-.662-3.123-.662-.852.757-.378,1.987-1.514,3.029a10.271,10.271,0,0,1,.379-2.366,1.853,1.853,0,0,0-.662-2.461A7.6,7.6,0,0,1,941,25.135c-.379-1.987.284-3.88.189-5.868-.189-2.839-.189-2.839-2.839-3.029a.336.336,0,0,0-.189-.284,4.112,4.112,0,0,1,2.366-.473c-.095-.757-.284-1.325-.946-1.42-2.082-.379-3.312,1.23-4.543,2.461.379-2.65,2.65-2.934,4.732-3.5-1.041-1.041-1.609-1.325-2.555-1.041-2.271.757-3.123,2.555-3.123,4.827-1.136-2.65.189-4.637,3.6-5.395m51.864,183.511c.189-1.041.284-1.7.379-2.366.379-2.461.189-5.016.473-7.571a41.121,41.121,0,0,0-1.893-17.6c-2.745-8.707-3.218-17.6-2.65-26.594.473-8.423,1.136-16.752,1.514-25.175.095-2.65.568-5.3.284-8.139-2.65,2.177-5.489,3.691-8.9,3.786.189.852.379,1.7.473,2.461a62.173,62.173,0,0,1,1.325,11.925c0,4.448-2.271,8.139-5.016,11.452a7.308,7.308,0,0,0-1.8,5.489c.189,2.839.378,5.773.852,8.612a56.75,56.75,0,0,0,3.88,14.1,236.05,236.05,0,0,1,8.8,22.241c.757,2.271,1.325,4.732,2.082,7.477m-91.8-4.543c.568-.189.568-.568.662-.757,1.8-4.259,3.691-8.518,5.584-12.777,3.313-7.761,6.53-15.521,9.275-23.471,1.609-4.543,2.839-9.086,2.082-14.007a6.337,6.337,0,0,0-1.7-3.786c-6.436-6.246-8.9-13.534-6.246-22.336.379-1.23,1.23-2.271,1.23-3.691a55.363,55.363,0,0,1-9.748-1.8c-.189,1.893.379,3.5.568,5.111.379,4.07.662,8.045,1.041,12.114.662,6.152,1.609,12.209,2.082,18.361a134.776,134.776,0,0,1,.757,17.509,40.388,40.388,0,0,1-1.8,11.641,60.98,60.98,0,0,0-3.786,17.887m32.557,199.979c-.379,4.827-1.988,9.464-2.934,14.2a29.242,29.242,0,0,0-.757,8.612,13.875,13.875,0,0,0,2.555,7.382c1.7-10.221,3.312-20.159,1.23-30.191M948.1,29.3c-1.325-.852-1.609-2.082-2.556-3.029.568,3.218.757,3.407,2.556,3.029" transform="translate(-893.342 -0.528)" fill="#8e3a21"/>
              <path id="Trazado_895087" d="M972.708,60.949c-3.691-2.366-3.407-7.571.568-10.6,4.921-3.691,2.555-8.612-1.136-11.168-.663-.473-1.325-1.041-1.988-1.514a6.1,6.1,0,0,1-2.461-5.489c0-2.745.757-5.489-.189-8.234a21.6,21.6,0,0,0-1.987-4.827,8.656,8.656,0,0,0-3.218-2.65c-3.786-1.609-6.436-4.732-9.275-7.477a28.431,28.431,0,0,0-12.3-6.909,17.672,17.672,0,0,0-9.653-.662c-2.745.662-5.111,2.082-6.246,4.827a5.627,5.627,0,0,0,1.23,6.53c-.568-3.786,1.136-6.341,4.637-6.53-1.514,1.136-3.407,1.893-3.786,3.691-.473,2.082.568,3.407,2.555,4.259-5.962.757-9.18,4.354-10.884,9.748-.094-3.786,2.839-7.666,7.666-10.032-1.514-1.8-3.312-1.7-5.205-.852-3.88,1.7-5.773,4.827-7,8.612a32.326,32.326,0,0,0-1.136,12.02c.189,3.312-1.041,5.584-4.07,7a22.65,22.65,0,0,0-3.218,1.987c-2.934,1.987-3.6,7.477.757,9.275a16.432,16.432,0,0,1,4.353,2.839c2.839,2.461,2.461,4.732-1.041,6.057a4.442,4.442,0,0,0,5.111-.757c.379.568,0,.757-.189.946a5.037,5.037,0,0,1-7-.379c-.568-.662-.852-1.325,0-1.987.568.284.852,1.041,1.609,1.041a2.257,2.257,0,0,0,2.177-1.041,2.059,2.059,0,0,0-.473-2.177,11.616,11.616,0,0,0-4.354-3.312c-2.555-1.23-4.354-2.745-4.354-5.773,0-3.123,1.8-5.205,4.259-6.72,1.041-.662,2.082-1.23,3.123-1.893A3.862,3.862,0,0,0,911.57,35.4c0-2.65-.189-5.395,0-8.045.378-4.921,1.609-9.653,5.3-13.25,1.893-1.8,4.07-3.218,7.1-2.745-.473-2.082-.852-4.164.189-6.057,1.987-3.6,5.395-5.3,9.559-5.3,8.8,0,15.9,3.6,21.957,9.748a27.983,27.983,0,0,0,7.761,5.868,6.461,6.461,0,0,1,3.218,3.123c1.609,3.218,2.839,6.53,2.461,10.221a29.25,29.25,0,0,0,0,4.07,4.824,4.824,0,0,0,2.177,3.5,17.284,17.284,0,0,1,4.543,4.543c1.893,3.218,2.082,6.814-1.514,9.464a7.327,7.327,0,0,0-2.461,2.65c-1.7,3.6-.284,7.382,4.448,7.287-.757,1.136-1.42,1.136-3.691.473h0Z" transform="translate(-893.817 0)" fill="#8e3a21"/>
              <path id="Trazado_895088" d="M942.3,6.295a9.38,9.38,0,0,1,6.341,3.975c2.555,3.312,5.016,6.72,7.571,10.032a25.188,25.188,0,0,0,6.625,6.436,5.918,5.918,0,0,1,3.123,6.057,1.138,1.138,0,0,0,.189.757c2.745,5.016,2.65,10.127.947,15.332-1.136,3.312.662,5.679,4.069,5.395h.473c-.946.757-2.177.662-3.691,0-1.7-.757-1.893-2.082-1.893-3.6,0-1.7.757-3.123,1.136-4.732,1.609-5.868-.189-10.884-3.6-15.521a6.938,6.938,0,0,0-3.313-2.366,10.61,10.61,0,0,1-6.436-6.152c-1.136-2.461-2.177-4.921-3.407-7.287a26.275,26.275,0,0,0-4.732-6.436c-.852-.946-2.271-.946-3.407-1.987m23.093,25.553a5.434,5.434,0,0,0-2.745-4.448,25.945,25.945,0,0,1-7.193-6.814c-.473-.662-.757-1.514-1.7-1.893.379.757.662,1.42.946,2.082,1.325,2.461,2.65,4.921,5.3,6.246a12.437,12.437,0,0,1,5.3,4.827" transform="translate(-895.966 -0.332)" fill="#8e3a21"/>
              <path id="Trazado_895089" d="M919.345,28.7c.378,5.489-1.136,11.736-6.72,14.67-2.934,1.609-3.6,7.666.662,10.316a6.148,6.148,0,0,1,3.123,4.07c.284,1.514-.095,2.271-1.893,2.745,1.136-.852,1.893-1.8,1.23-3.312a6.646,6.646,0,0,0-2.65-2.934c-4.07-2.366-4.921-8.991-1.136-11.546,4.827-3.312,6.53-7.95,7-13.439a.485.485,0,0,1,.379-.568" transform="translate(-894.21 -1.538)" fill="#8e3a21"/>
              <path id="Trazado_895090" d="M975.6,64.239c-1.609,1.7-3.5,2.271-5.678,1.041a1.626,1.626,0,0,0-1.609,0,18.208,18.208,0,0,1-5.962,1.325c-2.461.189-5.395-2.555-6.152-4.543a1.356,1.356,0,0,1,.189-.662c1.609,1.987,3.123,3.975,5.868,3.975,2.271,0,4.637-.095,6.814-1.514a5.685,5.685,0,0,0,5.868.379h.757" transform="translate(-896.71 -3.29)" fill="#8e3a21"/>
              <path id="Trazado_895091" d="M963.237,51.7c.379,7.571,2.366,9.748,7.855,8.8-1.041,1.514-4.164,1.514-6.246,0-2.555-1.987-3.691-6.53-1.7-8.707" transform="translate(-897.028 -2.77)" fill="#8e3a21"/>
              <path id="Trazado_895092" d="M918.916,62.6c.379,1.987-.757,3.312-2.177,4.448-.757.568-1.609,1.23-2.839.284a6.864,6.864,0,0,0,5.016-4.732" transform="translate(-894.444 -3.354)" fill="#8e3a21"/>
              <path id="Trazado_895093" d="M958.634,66.193c-.473.662-.852,1.041-1.325.757A3.473,3.473,0,0,1,955.7,64.3c1.136.568,1.23,2.177,2.839,1.987" transform="translate(-896.683 -3.445)" fill="#8e3a21"/>
              <path id="Trazado_895094" d="M934,144.637c9.937-4.921,19.875-2.839,29.718,1.136-.379.662-.852.473-1.325.379a63.374,63.374,0,0,1-11.073-2.839c-4.354-1.514-8.707-1.041-12.966.284-1.514.473-3.028,1.136-4.353,1.041" transform="translate(-895.521 -7.596)" fill="#8e3a21"/>
              <path id="Trazado_895095" d="M942.309,143.7a19.388,19.388,0,0,1-6.909,1.609,24.5,24.5,0,0,1,6.909-1.609" transform="translate(-895.596 -7.699)" fill="#8e3a21"/>
              <path id="Trazado_895096" d="M932.043,341.705a6.423,6.423,0,0,1-1.987-4.07,3.544,3.544,0,0,0-1.514-2.745,2.58,2.58,0,0,1-.473-3.691h.284a6.405,6.405,0,0,0,2.366,3.975,1.409,1.409,0,0,1,.379.852c0,1.893.663,3.691.852,5.679" transform="translate(-895.173 -17.746)" fill="#8e3a21"/>
              <path id="Trazado_895097" d="M944.625,332.9c1.7,2.177,1.041,6.152-1.325,6.909.473-2.366,1.8-4.448,1.325-6.909" transform="translate(-896.019 -17.837)" fill="#8e3a21"/>
              <path id="Trazado_895098" d="M960.948,325.8c-1.42,2.177,0,5.395-2.555,7.287-.568-2.461.757-6.436,2.555-7.287" transform="translate(-896.821 -17.456)" fill="#8e3a21"/>
              <path id="Trazado_895099" d="M936.8,51.321q5.3-2.461,9.748-.568a4.49,4.49,0,0,1-5.111,3.786h0a2.721,2.721,0,0,1-1.7-.662c-.946-.757-1.325-2.082-2.839-2.555" transform="translate(-895.671 -2.675)" fill="#8e3a21"/>
              <path id="Trazado_895100" d="M926.4,32.683c2.839-2.177,11.357-2.745,13.25-1.136a2.171,2.171,0,0,1-1.987.662H929.9a10.768,10.768,0,0,0-3.5.379" transform="translate(-895.114 -1.641)" fill="#8e3a21"/>
              <path id="Trazado_895101" d="M929.3,39.13c.379-.568.852-1.136,1.609-.568a3.48,3.48,0,0,0,4.638-.189c.378-.284,1.041-.852,1.514-.095.378.662-.284,1.136-.757,1.514-1.609,1.041-5.3.662-7-.757" transform="translate(-895.269 -2.031)" fill="#8e3a21"/>
              <path id="Trazado_895102" d="M955.793,38.094c.568.757-.189,1.136-.568,1.514a5.481,5.481,0,0,1-5.868.095c-.473-.379-1.041-.757-.568-1.42s.852,0,1.325.284c1.987,1.42,2.555,1.42,4.637.095.379-.189.663-.757,1.23-.663" transform="translate(-896.304 -2.035)" fill="#8e3a21"/>
              <path id="Trazado_895103" d="M940.794,45.073c1.7,1.7,3.218,1.041,4.638-.473-.095,1.514-.568,1.893-1.893,1.987-1.893.095-2.555-.189-2.839-1.514" transform="translate(-895.88 -2.39)" fill="#8e3a21"/>
            </g>
          </g>
        </g>
      </g>
    </g>
  </g>
</svg>
