<svg xmlns="http://www.w3.org/2000/svg" width="84" height="84" viewBox="0 0 84 84">
  <g id="Grupo_1204658" data-name="Grupo 1204658" transform="translate(-706.371 -908.009)">
    <g id="Grupo_1177230" data-name="Grupo 1177230" transform="translate(0.371 -770.911)">
      <g id="Grupo_1119665" data-name="Grupo 1119665" transform="translate(534.111 -3840.08)">
        <rect id="Rectángulo_402006" data-name="Rectángulo 402006" width="84" height="84" rx="5" transform="translate(171.889 5519)" fill="#cdbfdc"/>
      </g>
    </g>
    <g id="cinta-metrica" transform="translate(716.371 919.077)">
      <path id="Trazado_1268500" data-name="Trazado 1268500" d="M29.7,21.6c7.353,0,12.9-2.786,12.9-6.48-.187-8.594-25.611-8.589-25.793,0,0,3.694,5.544,6.48,12.9,6.48Zm0-10.961c6.422,0,10.9,2.361,10.9,4.481S36.124,19.6,29.7,19.6s-10.9-2.361-10.9-4.48,4.475-4.481,10.9-4.481Z" fill="#752092"/>
      <path id="Trazado_1268501" data-name="Trazado 1268501" d="M57.558,21.029c-.85-5.617-4.5-9.386-7.729-11.686C40.479,1.1,7.236,2.151,6.264,15.124c.007.032-.012,15.609.007,15.635.034,5.058,7,9.342,17,10.669C20.94,43,18.58,44.557,16.255,46.051a3.141,3.141,0,0,0-.214,5.133l10.6,8.164a3.157,3.157,0,0,0,3.817.02c19.595-14.778,28.713-27.676,27.1-38.338ZM29.7,6A40.836,40.836,0,0,1,43.956,8.375a23.636,23.636,0,0,1,5.222,3.007c2.753,2.41,2.525,5.491-.328,7.77-3.567,2.989-10.9,5.094-19.147,5.094-11.621,0-21.438-4.178-21.438-9.123S18.081,6,29.7,6ZM8.266,30.722c-.01-.013,0-11.016,0-11.031,3.608,3.9,11.746,6.555,21.438,6.555,6.658,0,12.583-1.255,16.811-3.3-3.632,4.3-11.73,10.561-20.625,16.7V33.288a1,1,0,0,0-2,0V39.5a41.083,41.083,0,0,1-4.168-.728V32.226a1,1,0,1,0-2,0v6.031a26.058,26.058,0,0,1-4.169-1.589V29.7a1,1,0,1,0-2,0v5.813c-2.074-1.41-3.284-3.056-3.284-4.787ZM29.252,57.771a1.15,1.15,0,0,1-1.392-.007L17.262,49.6a1.148,1.148,0,0,1,.075-1.866c1.054-.678,2.176-1.406,3.343-2.172l11.689,9.8q-1.513,1.2-3.117,2.41ZM50.005,37.878,47.73,35.693a1,1,0,1,0-1.385,1.442l2.447,2.351q-1.481,1.9-3.272,3.859l-3.294-2.66a1,1,0,1,0-1.256,1.556l3.181,2.568q-1.782,1.856-3.831,3.762l-3.205-3.205A1,1,0,1,0,35.7,46.781l3.142,3.142q-2.289,2.055-4.883,4.162L22.421,44.412C33.827,36.836,48.54,26.169,50.317,20.5a7.353,7.353,0,0,0,2.811-5.111c4.772,7.124,2.662,14.183-3.123,22.492Z" fill="#752092"/>
    </g>
  </g>
</svg>
