<svg xmlns="http://www.w3.org/2000/svg" xmlns:xlink="http://www.w3.org/1999/xlink" width="68.791" height="263.001" viewBox="0 0 68.791 263.001">
  <defs>
    <clipPath id="clip-path">
      <rect id="Rectángulo_407248" data-name="Rectángulo 407248" width="55.86" height="263" fill="none"/>
    </clipPath>
  </defs>
  <g id="Grupo_1204649" data-name="Grupo 1204649" transform="translate(-1167.068 -9747.359)">
    <g id="Grupo_1113501" data-name="Grupo 1113501" transform="translate(896.814 2264.797)">
      <g id="Grupo_1113348" data-name="Grupo 1113348" transform="translate(313.182 7709.796)">
        <g id="Grupo_1113337" data-name="Grupo 1113337" transform="translate(0 0)">
          <g id="Grupo_1113342" data-name="Grupo 1113342">
            <path id="Polígono_7" data-name="Polígono 7" d="M12.931,0,25.862,17.608H0Z" transform="translate(0 18.158)" fill="#6e2e88"/>
            <path id="Polígono_8" data-name="Polígono 8" d="M12.931,0,25.862,18.159H0Z" transform="translate(25.862 18.159) rotate(180)" fill="#6e2e88"/>
          </g>
        </g>
      </g>
      <g id="Grupo_1113491" data-name="Grupo 1113491" transform="translate(270.254 7482.563)">
        <g id="Grupo_1113490" data-name="Grupo 1113490" clip-path="url(#clip-path)">
          <path id="Trazado_895030" data-name="Trazado 895030" d="M24.933,63.97c.09,1.668-.486,3.212-.663,4.806a40.929,40.929,0,0,0-.656,7.217,29.724,29.724,0,0,0,.624,3.931,5.789,5.789,0,0,0,2.585,3.619,11.45,11.45,0,0,0,5.276,2.4c2.529.256,5.008.465,7.594-.6,2.1-.862,5.2-4.976,4.8-7.381a32.536,32.536,0,0,0-1.818-6.831A26.337,26.337,0,0,0,39.766,65.1a.7.7,0,0,1,0-.781c1.676.58,3.309,1.1,4.325,2.8a31.51,31.51,0,0,1,4.141,8.961,6.85,6.85,0,0,1,.2,2.8,3.985,3.985,0,0,0,1.1,2.753A14.114,14.114,0,0,1,52.42,90.2a4.924,4.924,0,0,1-5.156,5.471,9.74,9.74,0,0,1-2.94-.2,7.193,7.193,0,0,0,3.723.611c-.413,1.106-.725,2.125-1.163,3.087a12.548,12.548,0,0,0-.939,7.947,26.108,26.108,0,0,0,1.928,6.3c1.418,2.892,2.971,5.718,4.459,8.576.322.618.611,1.253.925,1.874.215.424.275.818-.253,1.026-1.545.611-2.367,1.964-3.3,3.193a78.235,78.235,0,0,0-5.271,7.982c-1.24,2.121-2.462,4.255-3.781,6.327-1.437,2.257-2.977,4.448-4.469,6.669a9.579,9.579,0,0,1-2.934,2.635,1.6,1.6,0,0,1-.618.1,67.931,67.931,0,0,0-4.472-8.978,95.511,95.511,0,0,0-5.516-7.931,30.4,30.4,0,0,0-4.512-5.48,17.519,17.519,0,0,0-6.277-3.811c-.707-.2-1.407.019-2.144-.2-.243-.934.553-1.42.99-2,1.543-2.038,3.15-4.027,4.762-6.011,1.048-1.292,2.094-2.577,3.066-3.934a18.727,18.727,0,0,0,3.213-7.893,5.762,5.762,0,0,0-.8-3.533,54.5,54.5,0,0,1-2.824-5.574c-1.169-2.682-2.417-5.391-2.243-8.419.1-1.669.444-3.324.671-4.987a16.626,16.626,0,0,0,.259-2.171,30.493,30.493,0,0,1,1.337-7.937,26.183,26.183,0,0,1,2.547-6.568,1.985,1.985,0,0,1,.866-.833,10.476,10.476,0,0,0,2.6-1.488c.231-.2.475-.1.781-.089m7.838,32.2c2.139-.592,3.641-2.133,3.137-3.283-.485,1.706-1.971,2.338-3.137,3.283" transform="translate(-3.371 -22.311)" fill="#e85722"/>
          <path id="Trazado_895031" data-name="Trazado 895031" d="M34.892,13.289c.286-.1.368-.323.466-.519a.691.691,0,0,1,1.249-.174,1.605,1.605,0,0,0,1.46.507,14.347,14.347,0,0,1,2.7.206,2.931,2.931,0,0,1,2.588-2.524c.281-.028.315-.285.454-.451a1.422,1.422,0,0,1,2.484.406,20.682,20.682,0,0,1,1.092,3.012c1.236-.9,2.1-.006,2.85.6.867.706.4,2.019.863,3.046.734-.667,1.033-.232,1.26.45a40.3,40.3,0,0,1,1.451,4.585c.1.5.375,1.1-.23,1.378-.711.325-.758-.467-1.053-.825-.04-.048-.088-.09-.192-.194a7.507,7.507,0,0,0-.072,2.454c-.005.48-.021.934-.581,1.071s-.8-.305-1.007-.7c-.266-.5-.495-1.021-.822-1.706-.176.817-.3,1.453-.452,2.085a1.184,1.184,0,0,1-1.049.994,1.274,1.274,0,0,1-1.293-.667,2.308,2.308,0,0,1-.476-1.344c.082-2.045-.307-4.1.143-6.137a1.111,1.111,0,0,0-.059-.82,2.633,2.633,0,0,1-2.078.242c-.729-.328-.951-1-1.214-1.816-1.508.822-2.141-.149-2.813-1.248a3.266,3.266,0,0,0-2.729-1.365,4.158,4.158,0,0,1-1.294-.248c-.514.941-.426,2.391-1.839,2.542-1.212.13-1.94-.8-2.589-1.775-.588.495-1.115.954-1.659,1.393a2.262,2.262,0,0,1-2.689.383,2.542,2.542,0,0,1-1.4-2.553,5.85,5.85,0,0,1,.118-1.046c.145-.527.575-.915,1.078-.729a1.936,1.936,0,0,0,2.148-.689,2.758,2.758,0,0,1,3.113-.589,1.929,1.929,0,0,1,1.424,1.533,2.781,2.781,0,0,0,.654,1.232" transform="translate(-9.194 -3.407)" fill="#eacbc7"/>
          <path id="Trazado_895032" data-name="Trazado 895032" d="M20.6,28.973a7.843,7.843,0,0,1,.118,1.3,1.123,1.123,0,0,1-.959,1.169c-.656.087-.966-.311-1.157-.912a28.506,28.506,0,0,1-1.372-5.667,23.383,23.383,0,0,1,.553-7.637A5.567,5.567,0,0,1,19.539,14a.988.988,0,0,1,1.151-.212.923.923,0,0,1,.465.98,11.425,11.425,0,0,0-.1,1.613c.142,1.062.587,2.079.715,3.169a1.706,1.706,0,0,0,1.214.52c.632-.076.768.292.82.8a31.478,31.478,0,0,1,.416,5.148c-.018.292-.1.52-.388.585-.315.071-.478-.145-.543-.417a10.893,10.893,0,0,0-.6-2c.166,1.353.31,2.711.512,4.06a4.148,4.148,0,0,1,.012,1.149.966.966,0,0,1-.843.924,1.149,1.149,0,0,1-1.247-.536c-.154-.24-.1-.588-.531-.815" transform="translate(-5.976 -4.777)" fill="#eacbc7"/>
          <path id="Trazado_895035" data-name="Trazado 895035" d="M22.949,38.169l-.464.3a1.3,1.3,0,0,1,0-1.17,7.553,7.553,0,0,0-.34-5.694c-1.123-2.756-2.3-5.493-3.483-8.223a17.461,17.461,0,0,1-1.082-4.568,38.2,38.2,0,0,1-.278-4.233A14.056,14.056,0,0,1,18.8,8.5a1.648,1.648,0,0,1,1.322-1.087c-1.537,1.492-1.814,3.457-2.008,5.4a9.776,9.776,0,0,0,1.389,5.71,10.137,10.137,0,0,1,5.538-.783A1.288,1.288,0,0,1,26.2,18.9c-.064.069-.115.159-.146.152a20.307,20.307,0,0,0-6.256-.151c-.428.045-.717-.389-.927-.755-.236-.411-.432-.846-.7-1.258a22.613,22.613,0,0,0,1.094,5.926c1.207,3.439,2.853,6.711,3.88,10.219a.78.78,0,0,0,.189.329c1.663,1.594,3.4,3.068,5.9,2.979,1.463-.052,2.524-.98,3.674-1.731,2.815-1.838,3.756-4.762,4.526-7.766a13.406,13.406,0,0,0,.053-5.221,9.641,9.641,0,0,1,.285-2.674c.044-.314.18-.657-.1-.906a10.08,10.08,0,0,1-2.408-4.324c-.969-2.6-1.866-5.2-4.329-6.843-.059-.04-.068-.156-.156-.37a6.337,6.337,0,0,1,3.108,2.714c1.176,1.791,2.008,3.779,3.145,5.6A8.866,8.866,0,0,0,40.1,18.166c-.663.235-.973-.354-1.357-.306-.753,2.464-.387,4.983-.532,7.471A12.124,12.124,0,0,1,34.255,34.2a1.87,1.87,0,0,0-.449,1.7c.094,1.795.311,3.578.558,5.361.275,1.984,1.775,2.672,3.331,3.163a20.848,20.848,0,0,0,4.2,1.071c1.5.151,3.017.1,4.511.339,1.727.276,3.5.312,5.094,1.193a8.067,8.067,0,0,1,4.15,6c.543,3.016-.082,5.949-.458,8.907-.327,2.577-.6,5.162-.887,7.744-.374,3.315-.787,6.628-1.107,9.948-.4,4.135-1.561,8.182-1.433,12.377a20.482,20.482,0,0,0,1.271,5.486A42.866,42.866,0,0,1,55.054,111.4a28.863,28.863,0,0,1-.331,3.545,5.674,5.674,0,0,0,0,1.731,61.726,61.726,0,0,1,.618,13.629,84.874,84.874,0,0,1-1.458,10.645c-.593,3.243-1.669,6.365-2.58,9.529-1.329,4.611-2.531,9.259-3.809,13.886-.383,1.387-.83,2.756-1.264,4.129a49.492,49.492,0,0,0-1.462,5.769,19.848,19.848,0,0,0,.12,5.943c.413,3.67,1.085,7.32.854,11.029a39.01,39.01,0,0,1-1.279,7.278c-1.553,6.021-3.864,11.795-5.857,17.674-2.154,6.355-4.549,12.644-6.025,19.21a13.045,13.045,0,0,0,.1,5.831,47.578,47.578,0,0,1,.695,6.209,13.369,13.369,0,0,1-.332,5.516c-.389,1.223.307,2.58.431,3.889a43.493,43.493,0,0,1,.494,4.779,3.817,3.817,0,0,1-4.954,3.456,22.391,22.391,0,0,0-4.714-1.216,5.592,5.592,0,0,1-4.555-7.072c1.248-4.1,1.083-8.313,1.419-12.486.111-1.384.483-2.707.63-4.077a21.5,21.5,0,0,0-1.059-8.329c-1.763-6.09-3.367-12.223-4.719-18.417a89.167,89.167,0,0,1-2.283-15.859,28.189,28.189,0,0,1,1.868-11.588,14.006,14.006,0,0,0,.936-9.111,22.124,22.124,0,0,0-2.717-5.388,83.434,83.434,0,0,1-7.961-18.274c-1.511-4.831-2.715-9.738-3.744-14.682-.815-3.917-1.334-7.892-1.893-11.859-.537-3.816.375-7.443.752-11.151a20.175,20.175,0,0,0-.352-5.522,32.5,32.5,0,0,1,.572-15.2A32.452,32.452,0,0,0,2.14,83.681c-.16-3.016-.07-6.045-.135-9.067-.047-2.153-.184-4.3-.253-6.457A63.163,63.163,0,0,1,2.021,56.7c.1-.668,0-1.334.1-2.014.45-2.935,2.552-4.469,4.816-5.894a15.749,15.749,0,0,1,4.615-1.594,40.1,40.1,0,0,0,8.649-3.143,3.986,3.986,0,0,0,2.385-3.015,25.985,25.985,0,0,0,.358-2.868m9.484,127.055c0-2.186-.019-4.372,0-6.558a82.233,82.233,0,0,0-.647-11.318A78.032,78.032,0,0,0,29.879,135.8a40.354,40.354,0,0,0-1.327-5.1,55.855,55.855,0,0,0-4.941-8.977c-2.45-3.647-5.056-7.189-7.768-10.642a14.41,14.41,0,0,0-7.779-5.372A2.162,2.162,0,0,0,5.291,106.9,34.7,34.7,0,0,0,1.07,118.777a18.464,18.464,0,0,0-.53,4.662c.475,4.2,1.019,8.375,1.827,12.529A157.773,157.773,0,0,0,6.12,151.646a101.7,101.7,0,0,0,4.962,13.186c1.238,2.68,2.78,5.187,4.238,7.742a14.361,14.361,0,0,1,2.22,5.96,16.584,16.584,0,0,1-1.136,6.941,34.5,34.5,0,0,0-1.38,16.308A149.246,149.246,0,0,0,18,217.645c1.3,5.381,2.587,10.768,3.9,16.149a21.4,21.4,0,0,1,.808,6.742c-.036.464.047.96-.518,1.236-.141.068-.21.392-.221.6-.12,2.141-.242,4.283-.321,6.425a25.989,25.989,0,0,1-.488,5.337c-.276,1.113-.877,2.135-1.045,3.282-.134.914-.428,1.957.164,2.714a7.747,7.747,0,0,0,5.042,3.245,12.25,12.25,0,0,1,3.715.9,3.271,3.271,0,0,0,2.879-.166c1.471-.672,1.562-2.06,1.5-3.438a43.292,43.292,0,0,0-1.454-8.33c-.716-2.952-1.525-5.881-2.1-8.87-.842-4.4-.773-8.881-1.1-13.325a69.976,69.976,0,0,1,.32-9.533c.253-4.1.393-8.21.517-12.318.1-3.469.371-6.93.739-10.374.466-4.363,1.174-8.7,1.755-13.053a88.763,88.763,0,0,0,.48-9.906c.068-3.246.11-6.5-.138-9.742M29.466,131.67a10.577,10.577,0,0,0,2.633-2.145c1.747-2.377,3.427-4.8,4.983-7.3,2.4-3.87,4.557-7.9,7.165-11.635,1.6-2.287,2.9-4.877,5.661-6.2-.52-1.034-1.027-2.062-1.551-3.081-2.045-3.973-4.389-7.79-5.561-12.186a15.216,15.216,0,0,1-.042-8.7C43.2,79,43.841,77.651,44.4,76.25c-3.506-.244-4.449-.5-4.935-1.364.818.169,1.586.367,2.365.48a7.65,7.65,0,0,0,4.221-.424c2.04-.891,2.76-2.639,2.809-4.736a14.513,14.513,0,0,0-2.814-8.429c-.572-.866-1.312-1.7-1.13-2.853a6.9,6.9,0,0,0-.26-2.944,29.915,29.915,0,0,0-5.185-10.1,1.208,1.208,0,0,0-.592-.462c-.8-.272-1.6-.576-2.583-.937a15.283,15.283,0,0,1,2.1,3.834c.525,1.307,1.031,2.622,1.535,3.938a18.75,18.75,0,0,1,1.318,5.974,8.044,8.044,0,0,1-6.521,7.864,13.9,13.9,0,0,1-10.075-1.492c-1.876-1.124-3.5-2.4-4.043-4.736a25.138,25.138,0,0,1-.1-9.715c.321-2.033.656-4.063,1.023-6.337a17.409,17.409,0,0,1-3.482,2.048,1.466,1.466,0,0,0-.559.636A19.539,19.539,0,0,0,15.719,50.6a35.528,35.528,0,0,0-2.068,9.432,40.937,40.937,0,0,1-.531,4.49,15.45,15.45,0,0,0,.425,8.311,65.123,65.123,0,0,0,3.891,8.464,7.465,7.465,0,0,1,1.014,4.77,19,19,0,0,1-3.906,8.654c-1.974,2.528-4.061,4.967-6.064,7.473a14.6,14.6,0,0,0-2.074,3.023,8.731,8.731,0,0,1,2.6.269,17.51,17.51,0,0,1,6.984,4.809c2.173,2.4,3.952,5.114,5.894,7.7a58.73,58.73,0,0,1,7.587,13.68M32.7,251.508a58.147,58.147,0,0,0-.173-7.6,8.312,8.312,0,0,0-.287-2.273,12.941,12.941,0,0,1-.261-7.015c1.04-4.33,2.7-8.466,4.031-12.7,1.363-4.331,3.023-8.554,4.439-12.865a134.743,134.743,0,0,0,3.9-13.923c.923-4.32.553-8.564.022-12.836a30.274,30.274,0,0,1,.569-12.118c1.166-4.131,2.365-8.253,3.54-12.382.57-2,.719-4.126,1.573-6.038a60.919,60.919,0,0,0,2.473-8.165,71.364,71.364,0,0,0,1.573-8.281,63.583,63.583,0,0,0,.752-8.239,61.186,61.186,0,0,0-.334-7.386,41.549,41.549,0,0,0-3.9-13.863c-.467-1.009-.918-1.076-1.692-.283a19.294,19.294,0,0,0-1.689,1.976,140.625,140.625,0,0,0-7.5,12.1A50.751,50.751,0,0,1,30.1,132.023c-.236.209-.432.366-.311.8A79.8,79.8,0,0,1,31.9,143.461a109.142,109.142,0,0,1,1.243,12.626c.109,6,.505,12,.307,18.01-.07,2.122,0,4.255-.2,6.364-.41,4.3-.942,8.6-1.456,12.892-.4,3.344-.7,6.7-1.007,10.051-.382,4.132-.377,8.281-.669,12.415-.2,2.789-.206,5.593-.469,8.374a76.479,76.479,0,0,0,.343,13.592,56.059,56.059,0,0,0,1.426,8.721,40.429,40.429,0,0,0,1.277,5M16.853,46.45c-1.355.412-2.534.8-3.731,1.128-2.87.783-5.831,1.327-8.144,3.44a4.75,4.75,0,0,0-1.747,2.54,45.165,45.165,0,0,0-.782,9.823c.079,3.76.25,7.519.327,11.279.054,2.674.03,5.35.02,8.025-.016,4.04.255,8.1-.784,12.073a32.821,32.821,0,0,0-.972,12.575,38.675,38.675,0,0,1,.49,5.767A44.854,44.854,0,0,1,7.8,101.656c.693-.891,1.646-1.668,1.773-2.911.393-3.883.884-7.76,1.133-11.653.262-4.1.318-8.22.592-12.325.173-2.592.414-5.173.748-7.753a36.8,36.8,0,0,0,.664-5.139,27.914,27.914,0,0,1,.9-6.745,48.94,48.94,0,0,1,3.238-8.68m37.392,67.615a56.1,56.1,0,0,0,.012-7.643,49.662,49.662,0,0,0-1.937-9.455,25.608,25.608,0,0,1-1.183-5.893c-.154-3.357.668-6.622,1.1-9.919.5-3.883.835-7.783,1.272-11.672.378-3.37.631-6.754,1.273-10.092a18.736,18.736,0,0,0,.133-6.745A6.575,6.575,0,0,0,49.515,46.9a22.468,22.468,0,0,0-3.533-.394,55.575,55.575,0,0,1-5.944-.61c2.888,2.9,4.4,6.485,5.445,10.532a3.107,3.107,0,0,1,.715-1.589c.454.527.191,1.038.026,1.48a6.1,6.1,0,0,0,.7,5.673,16.979,16.979,0,0,1,2.475,6.1c.521,3.058.074,6.508-3.462,7.586a1.156,1.156,0,0,0-.8.864c-.568,1.831-1.348,3.577-1.791,5.47-.877,3.749.028,7.241,1.173,10.708a42.188,42.188,0,0,0,3.363,6.674,70.136,70.136,0,0,1,5.355,11.256,20.83,20.83,0,0,0,1,3.422M33.284,65.511c1.1.279,1.954-.313,2.887-.62a7.191,7.191,0,0,0,4.279-8.006A58.493,58.493,0,0,0,37.429,48.1a12.949,12.949,0,0,0-2.116-4.064A6.446,6.446,0,0,1,33.832,41.4a17.347,17.347,0,0,1-.655-5.319,1.327,1.327,0,0,0-.158-1.021,16.285,16.285,0,0,0-1.412,1.231,7.092,7.092,0,0,0-.775,1.208,1.948,1.948,0,0,1-2.848.934,7.154,7.154,0,0,1-3.193-2.68,3.691,3.691,0,0,0-1.448-1.282c.1.878.249,1.637.268,2.4.048,1.956.186,3.984-.859,5.721a9.628,9.628,0,0,0-1.189,3.578c-.3,1.868-.428,3.755-.616,5.636a25.341,25.341,0,0,0-.13,6.508A5.8,5.8,0,0,0,22.232,61.9,13.131,13.131,0,0,0,32.6,65.552a25.17,25.17,0,0,0-4.2-6.628,12.806,12.806,0,0,1,4.886,6.587m-23.123,33.1c2.777-3.343,5.41-6.463,6.98-10.348a7.123,7.123,0,0,0-.525-6.751c-.38-.633-.717-1.292-1.05-1.951a36.2,36.2,0,0,1-3.192-8.215q-.494,6.788-.868,13.537c-.246,4.512-.815,8.992-1.346,13.728" transform="translate(0 -2.271)" fill="#8e3a21"/>
          <path id="Trazado_895036" data-name="Trazado 895036" d="M53.246,25.374a2.1,2.1,0,0,1-2.018-.418c-1.994-1.273-2.789-3.333-3.566-5.426-.987-2.658-1.215-5.484-1.924-8.2a13.373,13.373,0,0,0-8.876-9.861A18.173,18.173,0,0,0,27.389.646,22.081,22.081,0,0,0,21.508,2.3C17.4,4.381,15.346,7.93,14.6,12.31c-.439,2.588-.66,5.213-1.012,7.816a16.571,16.571,0,0,1-2.319,7.126,5.8,5.8,0,0,1-3.54,2.176c-.188-.361.03-.466.195-.509,3.357-.862,4.148-3.622,4.7-6.477.6-3.113.747-6.291,1.186-9.428.523-3.729,1.924-7.152,4.923-9.484A16.721,16.721,0,0,1,26.99.2,23.407,23.407,0,0,1,35.8.7c5.679,1.435,8.978,5.074,10.5,10.566.593,2.135.667,4.378,1.366,6.485a17.884,17.884,0,0,0,2.415,5.507,5.373,5.373,0,0,0,3.16,2.113" transform="translate(-2.672 0)" fill="#8e3a21"/>
          <path id="Trazado_895037" data-name="Trazado 895037" d="M28.1,35.349c-.566,2.952-.1,5.973-2.6,7.934,1.252-1.554,1.419-3.506,1.729-5.389a19.2,19.2,0,0,0,.307-3.442A7.648,7.648,0,0,0,26.5,31.709a30,30,0,0,1-1.937-6.314,1.085,1.085,0,0,1,.073-.584,7.364,7.364,0,0,1,.712,2.152,69.284,69.284,0,0,0,2.829,7.129c1.059,2.729,2.046,5.469,1.572,8.48-.027.175.059.4-.36.574a25.415,25.415,0,0,0-.347-4.62,11.539,11.539,0,0,1-.543,3.033,3.2,3.2,0,0,1-1.7,2.333c1.641-2.7,2.322-5.363,1.3-8.542" transform="translate(-8.567 -8.658)" fill="#8e3a21"/>
          <path id="Trazado_895038" data-name="Trazado 895038" d="M19.08,22.235a5.138,5.138,0,0,1,.59,2.736c.241,2.188.316,4.4.408,6.6.028.665-.315,1.4-.13,2,.738,2.369-.428,4.389-1.07,6.488a3.467,3.467,0,0,1-2.227,2.434c1.807-1.726,2.208-4.061,2.81-6.309a18.008,18.008,0,0,1-1.615,3.432A7.367,7.367,0,0,1,15.3,42.3c-.375.207-.8.491-1.191-.088,1.876-.689,2.646-2.393,3.52-3.936,1.818-3.212,2.109-6.74,1.845-10.342-.133-1.816-.062-3.641-.4-5.7" transform="translate(-4.925 -7.759)" fill="#8e3a21"/>
          <path id="Trazado_895039" data-name="Trazado 895039" d="M40.438,5.644c1.851.677,2.423,2.409,3.236,3.953.2.013.133-.15.145-.245.015-.118,0-.239,0-.568.887,1.8,1.663,3.429,2.494,5.031.484.934,1.062,1.818,1.585,2.733.171.3.448.289.728.365a7.244,7.244,0,0,1,2.794,1.152c-.357.462-.764.214-1.083.1a5.477,5.477,0,0,0-3.305-.2c-.472.121-.814-.064-.637-.472.214-.494-.076-.722-.267-1.008a28.447,28.447,0,0,1-2.6-5.638c-.74-1.9-1.437-3.833-3.087-5.2m4.006,5.647A20.133,20.133,0,0,0,46.724,16.6a.587.587,0,0,0,.9.182,52.453,52.453,0,0,1-3.179-5.487" transform="translate(-14.111 -1.97)" fill="#8e3a21"/>
          <path id="Trazado_895040" data-name="Trazado 895040" d="M72.086,36.1c-2.172-.059-4.921-3.329-5.329-6.523.376.723.795,1.427,1.118,2.173a10.292,10.292,0,0,0,1.343,2.105,3.507,3.507,0,0,0,1.945,1.572,18.8,18.8,0,0,1-2.773-3.508,23.96,23.96,0,0,1-2.256-5.672c-.923-3.094-1.005-6.312-1.511-9.47a20.5,20.5,0,0,1,.962,4.509,25.825,25.825,0,0,0,4.379,11.945,8.522,8.522,0,0,0,1.795,2c.325.234.49.48.327.873" transform="translate(-22.551 -5.854)" fill="#8e3a21"/>
          <path id="Trazado_895041" data-name="Trazado 895041" d="M14.549,35.067c-1.021,2.425-2.208,4.712-4.672,5.991a2.256,2.256,0,0,1-2.09.263,6.564,6.564,0,0,0,3.185-1.7,14.914,14.914,0,0,0,3.645-7.29,12.468,12.468,0,0,1,.4-1.6c.37,1.015-.116,1.967-.209,2.991.243-.035.173-.36.391-.332.3,3.1-2.493,9.782-5.813,10.316,3.329-2.1,4.379-5.292,5.16-8.635" transform="translate(-2.717 -10.723)" fill="#8e3a21"/>
          <path id="Trazado_895042" data-name="Trazado 895042" d="M44.78,41.994c-2.313,2.914-3.112,2.9-5.355-.2a7.616,7.616,0,0,1,2.762-1.346c1.258-.157,1.783.939,2.592,1.549" transform="translate(-13.758 -14.108)" fill="#8e3a21"/>
          <path id="Trazado_895043" data-name="Trazado 895043" d="M65.244,38.138c.493,2.7,1.174,5.36,3.263,7.517-.751.137-1.068-.312-1.367-.718a15.581,15.581,0,0,1-2.557-6.758,3.331,3.331,0,0,1-.133-1.706c.434.09.434.09.731-.554,1.061,3.24,1.5,6.761,4.843,8.676-.374.485-.735.146-1.054-.044a7.36,7.36,0,0,1-2.859-3.871c-.337-.827-.581-1.693-.868-2.541" transform="translate(-22.464 -12.534)" fill="#8e3a21"/>
          <path id="Trazado_895044" data-name="Trazado 895044" d="M60.287,25.22c.218,2.2.41,4.4.659,6.582q.4,3.482.695,6.973c.175,2.018-1.052,5.247-2.643,6.232.385-.844.891-1.469,1.2-2.206a11.986,11.986,0,0,0,.667-5.777c-.225-2.848-.618-5.681-.7-8.541-.027-.9-.107-1.79-.162-2.685-.014-.229-.025-.458.284-.577" transform="translate(-20.588 -8.801)" fill="#8e3a21"/>
          <path id="Trazado_895045" data-name="Trazado 895045" d="M35.842,28.727a2.019,2.019,0,0,1-2.529.928,1.342,1.342,0,0,0-1.5-.128,2.467,2.467,0,0,1,2.051-1.792c1.3-.372,2.4.112,3.409,1.482-.583.063-.892-.483-1.429-.491" transform="translate(-11.101 -9.636)" fill="#8e3a21"/>
          <path id="Trazado_895046" data-name="Trazado 895046" d="M33.965,6.825c.9.08,1.167.728,1.383,1.45.539,1.812.563,3.728,1.152,5.532a28.531,28.531,0,0,0,1.674,3.865c-.617,0-.716-.427-.885-.715a15.658,15.658,0,0,1-2.123-6.61,18.28,18.28,0,0,0-.436-2.357,1.9,1.9,0,0,0-.764-1.164" transform="translate(-11.853 -2.382)" fill="#8e3a21"/>
          <path id="Trazado_895047" data-name="Trazado 895047" d="M54.1,50.182a11.4,11.4,0,0,0,2.881-5.2c.272-.868.449-1.767.682-2.7.933,1.923-1.9,8.3-3.869,8.8-.146-.4.442-.544.337-.922Z" transform="translate(-18.765 -14.753)" fill="#8e3a21"/>
          <path id="Trazado_895048" data-name="Trazado 895048" d="M53.285,29.117c-.6-.176-1.056-.621-1.689-.658-.988,1.548-1.461,1.658-3.266.7a2.788,2.788,0,0,1,2.193-1.484,3.211,3.211,0,0,1,2.762,1.441" transform="translate(-16.865 -9.655)" fill="#8e3a21"/>
          <path id="Trazado_895049" data-name="Trazado 895049" d="M37.106,7a9.79,9.79,0,0,1,1.236,3.667,21.457,21.457,0,0,0,2.726,7.4.28.28,0,0,1,.012.356C39.613,17.193,37.634,11.593,37.106,7" transform="translate(-12.949 -2.444)" fill="#8e3a21"/>
          <path id="Trazado_895050" data-name="Trazado 895050" d="M19.786,49.06a11.012,11.012,0,0,0,3.747-7.119c.873,2.208-1.7,7.038-3.747,7.119" transform="translate(-6.905 -14.636)" fill="#8e3a21"/>
          <path id="Trazado_895051" data-name="Trazado 895051" d="M29.682,10.143a11.933,11.933,0,0,0,.876,9.016c-1.869-1.4-2.326-6.434-.876-9.016" transform="translate(-10.059 -3.54)" fill="#8e3a21"/>
          <path id="Trazado_895052" data-name="Trazado 895052" d="M63.268,43.516c1.046,1.378.249,7.053-1.223,7.529a13.417,13.417,0,0,0,1.223-7.529" transform="translate(-21.651 -15.185)" fill="#8e3a21"/>
          <path id="Trazado_895053" data-name="Trazado 895053" d="M53.641,52.585c-.471.054-.551.692-1.279.729A28.194,28.194,0,0,0,54.8,49.246c-.012,1.272-.82,2.242-1.2,3.368l.032-.03" transform="translate(-18.272 -17.185)" fill="#8e3a21"/>
          <path id="Trazado_895054" data-name="Trazado 895054" d="M61.476,21.017c-1.123.307-2.8-1.088-3.31-2.725,1.1,1.019,1.842,2.219,3.31,2.725" transform="translate(-20.298 -6.383)" fill="#8e3a21"/>
          <path id="Trazado_895055" data-name="Trazado 895055" d="M41.844,36.455c.941,1.1,1.749.8,2.536-.469.124,1.175-.51,1.428-1.1,1.5a1.227,1.227,0,0,1-1.434-1.026" transform="translate(-14.602 -12.558)" fill="#8e3a21"/>
          <path id="Trazado_895056" data-name="Trazado 895056" d="M34.525,273.995a2.315,2.315,0,0,1-1.247-2.194,4.678,4.678,0,0,0-.926-2.853,2.387,2.387,0,0,1-.234-2.782,7.332,7.332,0,0,0,1.654,3.643,1.083,1.083,0,0,1,.152.551,10.6,10.6,0,0,0,.6,3.635" transform="translate(-11.087 -92.882)" fill="#8e3a21"/>
          <path id="Trazado_895057" data-name="Trazado 895057" d="M47.1,268.249c.524.75-.389,4.966-1.348,5.758.081-2.083-.055-4.089,1.348-5.758" transform="translate(-15.966 -93.609)" fill="#8e3a21"/>
          <path id="Trazado_895058" data-name="Trazado 895058" d="M35.285,112.849c3.891-.349,7.527-1.176,9.8-4.906a2.137,2.137,0,0,1-.99,2.575,10.2,10.2,0,0,1-5.6,2.281,13.762,13.762,0,0,1-3.207.05" transform="translate(-12.313 -37.668)" fill="#8e3a21"/>
          <path id="Trazado_895059" data-name="Trazado 895059" d="M61.488,270.064c-.224-.32,0-.51.113-.73a4.108,4.108,0,0,0,.613-2.706,2.154,2.154,0,0,1,1.439-2.335c-1.133,1.631-.236,3.652-1.516,5.118-.126.144-.23.306-.361.445a1.839,1.839,0,0,1-.287.208" transform="translate(-21.424 -92.229)" fill="#8e3a21"/>
        </g>
      </g>
    </g>
  </g>
</svg>
