<svg xmlns="http://www.w3.org/2000/svg" xmlns:xlink="http://www.w3.org/1999/xlink" width="73.675" height="271.771" viewBox="0 0 73.675 271.771">
  <defs>
    <clipPath id="clip-path">
      <rect id="Rectángulo_455291" data-name="Rectángulo 455291" width="57.726" height="271.601" fill="none"/>
    </clipPath>
  </defs>
  <g id="Grupo_1204650" data-name="Grupo 1204650" transform="translate(7575.51 1175.446)">
    <g id="Grupo_1113498" transform="translate(-7637.01 -1211.246)">
      <path id="Polígono_8" d="M151.193,486.495,135.3,449.6h31.786Z" transform="translate(-31.91 -178.924)" fill="#6e2e88"/>
      <g id="Grupo_1113457" transform="translate(61.5 35.8)">
        <g id="Grupo_1204186" data-name="Grupo 1204186" clip-path="url(#clip-path)">
          <g id="Grupo_1113456" transform="translate(-0.027 0.104)">
            <path id="Trazado_894995" d="M76.7,189.2a35.515,35.515,0,0,1,4.144-10.33A24.4,24.4,0,0,0,84.192,168.6c.057-1.135.284-2.27.4-3.406a15.693,15.693,0,0,0-.795-6.868c-.965-2.838-1.816-5.676-2.725-8.514v-.284c.908-1.816.965-4.087,2.725-5.506a14.757,14.757,0,0,1,6.357-2.895,18.741,18.741,0,0,1,4.371-.454,12,12,0,0,1,6.017,1.646c1.022.568,2.1,1.476,3.462.795,1.589-.795,3.122-1.589,4.711-2.27a8.14,8.14,0,0,1,5.676-.17,1.163,1.163,0,0,1,.908.851,14.521,14.521,0,0,1,.341,8.23c-.568,2.441-1.93,4.6-2.952,6.811a14.606,14.606,0,0,0-1.589,6.755c0,.965-.17,1.93-.17,2.838a19.3,19.3,0,0,0,1.873,7.719c1.646,3.917,3.8,7.549,5.676,11.3a5.809,5.809,0,0,1-.114,5.619,55.621,55.621,0,0,1-4.2,6.528c-2.384,3.462-5.449,6.357-8.23,9.536a21.7,21.7,0,0,1-6.641,5.336c-.227.114-.511.227-.738.341-.795.341-1.249.284-1.646-.738a45.722,45.722,0,0,0-6.244-10.671,36.692,36.692,0,0,0-4.144-4.768A46.193,46.193,0,0,0,78.006,190c-.4-.227-.908-.17-1.249-.568" transform="translate(-68.046 -81.064)" fill="#fbd5cf"/>
            <path id="Trazado_894996" d="M72.025,102.471c-3.406-3.235-2.895-7.209.568-10.047,2.611-2.157,5.563-2.5,8.684-2.27a5.616,5.616,0,0,1,3.8,2.214c.795.965,1.533,1.646,2.838,1.419.511-.114,1.135.114.965.738a9.511,9.511,0,0,0,0,2.838,3.641,3.641,0,0,1-.965,2.611,12.971,12.971,0,0,1-5.052,3.633,45.522,45.522,0,0,1-6.073,1.589c-1.987.454-4.03.965-5.392,2.725-.4.511-.851.908-1.476.568-.681-.341-.681-.965-.568-1.646a7.494,7.494,0,0,1,2.611-4.371" transform="translate(-64.846 -59.38)" fill="#e9cbc7"/>
            <path id="Trazado_894997" d="M139.949,94.351a5.881,5.881,0,0,1-.4,2.214,2.445,2.445,0,0,0,.624,2.725,4.549,4.549,0,0,1,.4,6.13,8.611,8.611,0,0,1-2.725,1.873.855.855,0,0,1-1.078-.4,1.6,1.6,0,0,0-1.362-.738,3.631,3.631,0,0,1-2.1-.738,1.3,1.3,0,0,0-.795-.227,10.614,10.614,0,0,1-7.1-2.781,7.4,7.4,0,0,1-2.668-6.7c.4-3.008,2.781-3.633,5.222-2.668a3.758,3.758,0,0,0,4.541-1.362c1.7-2.781,4.03-2.895,6.244-.851,1.022.965,1.078,2.327,1.192,3.633" transform="translate(-87.93 -59.093)" fill="#e9cbc7"/>
            <path id="Trazado_895000" d="M85.887,45.7c-.681-1.022-.511-1.93.511-3.122a5.085,5.085,0,0,1,7.322,0,10.573,10.573,0,0,1,3.235,7.549c.057,1.76-.227,3.576.227,5.336.738,3.065,2.384,5.449,5.449,6.584a2.559,2.559,0,0,0,2.384-.341c.284-.17.624-.4,1.022-.624-.4,1.022-.965,1.306-2.781,1.533a12.8,12.8,0,0,0,2.554,1.76,3.847,3.847,0,0,1,1.589,1.7,3.547,3.547,0,0,1-1.873,4.087,10.829,10.829,0,0,0-2.327,1.362c-1.249.965-1.987,2.554-.17,3.917a2.468,2.468,0,0,0,.4.341c1.305,1.022,1.249,2.157,0,3.122-.17-.227,0-.341.114-.454.908-1.533.965-1.7-.568-2.725-2.043-1.362-1.533-3.86.4-5.052a10.071,10.071,0,0,1,1.873-1.078A2.909,2.909,0,0,0,107,66.927a2.682,2.682,0,0,0-1.589-2.157,8.951,8.951,0,0,1-2.5-2.1c-.4-.511-1.192-.681-1.93-1.078a17.641,17.641,0,0,1-4.03,7.776c-.057.057-.17.17-.17.227-.114,2.5-.738,4.995.454,7.379,1.078,2.1,3.008,3.008,4.995,3.689,1.873.624,3.916,1.022,5.846,1.533a9.165,9.165,0,0,1,6.244,7.663,140.365,140.365,0,0,0,3.065,19.469,84.008,84.008,0,0,1,1.93,12.487c.341,3.86-1.362,6.811-3.576,9.536a53.294,53.294,0,0,1-4.768,5.336,53.738,53.738,0,0,1,2.838,6.414c.965,2.668,1.362,5.449,2.1,8.174a49.736,49.736,0,0,1,1.419,11.579,108.292,108.292,0,0,1-.284,11.352,70.765,70.765,0,0,1-1.306,8.457,157,157,0,0,1-4.768,17.539c-1.646,5.392-3.519,10.728-4.938,16.234,0,.114-.114.17-.114.284,0,3.122-.4,6.244.114,9.366A32.411,32.411,0,0,1,104.731,243c-1.816,4.881-3.746,9.706-5.619,14.588-1.306,3.519-2.725,6.982-4.087,10.5a71.507,71.507,0,0,0-2.157,7.776c-.454,1.7-.738,3.406-1.135,5.108a7.914,7.914,0,0,0,.114,2.838,82.874,82.874,0,0,0,3.689,13.339,22.461,22.461,0,0,1,1.249,7.265c0,1.646-.908,2.327-3.292,2.895-1.76.4-3.349-.284-4.995-.908a11.754,11.754,0,0,1-4.484-2.895,3.775,3.775,0,0,1-1.192-2.952,56.273,56.273,0,0,1,.851-6.925,24.219,24.219,0,0,0,.227-8.344c-.284-1.76,0-3.576-.284-5.392-.511-3.746-.908-7.549-1.249-11.352-.227-2.157-.681-4.314-1.022-6.471-.624-4.144-1.362-8.287-1.816-12.487-.568-4.825-1.078-9.649-1.419-14.474A71.052,71.052,0,0,1,78,223.076a29.448,29.448,0,0,1,1.646-6.584q.681-1.958,1.533-3.916a3.5,3.5,0,0,0-.227-3.633A83.208,83.208,0,0,1,71.64,190.1a81.183,81.183,0,0,1-4.314-16.4,68.725,68.725,0,0,1-.738-12.317c.114-3.235.4-6.471.738-9.706a36.757,36.757,0,0,1,1.76-7.379,26.68,26.68,0,0,1,1.249-3.576c.568-1.135-.17-1.589-.851-2.043a14.436,14.436,0,0,1-6.13-11.239c-.17-3.519-.17-6.982-.057-10.5.227-7.549.341-15.1.341-22.591a14.247,14.247,0,0,1,2.214-8.287,1.231,1.231,0,0,0-.454-1.7h0c-1.76-1.249-1.987-2.441-.681-4.144,1.305-1.646,1.305-1.7-.511-2.838a5.09,5.09,0,0,1-2.668-3.349c-.4-2.1.681-3.633,2.043-4.995A11.5,11.5,0,0,1,68.348,66.3c3.292-1.022,4.2-3.689,4.484-6.584s-.17-5.79.511-8.628c.851-3.689,2.384-6.982,5.9-9.025a3.316,3.316,0,0,1,2.554-.4,2.857,2.857,0,0,1-.4-2.838,4.632,4.632,0,0,1,2.952-2.214,13.454,13.454,0,0,1,6.7-.4A39.084,39.084,0,0,1,97.3,37.411c4.995,1.533,8,4.938,9.593,9.763a39.771,39.771,0,0,1,1.192,6.3,8.308,8.308,0,0,0,6.244,7.038,5.327,5.327,0,0,1,3.689,3.973,6.807,6.807,0,0,1-2.838,8.06c-2.214,1.419-2.327,3.292-.568,5.165a2.728,2.728,0,0,1-.114,4.257,5.7,5.7,0,0,1-3.008,1.249c.284-.624.795-.568,1.135-.738a3.691,3.691,0,0,0,2.1-1.362,2.029,2.029,0,0,0-.568-3.008c-1.873-1.419-2.611-4.144,0-5.96,1.7-1.192,3.235-2.441,3.576-4.654a6.71,6.71,0,0,0-1.646-5.506c-.624-.738-1.646-.568-2.441-.965-3.008-1.306-5.165-3.122-5.96-6.527-.511-2.214-.511-4.484-1.135-6.641-1.589-5.619-5.108-9.2-10.841-10.444a30.984,30.984,0,0,0-8.571-.851,7.463,7.463,0,0,0-4.314,1.476c-1.305,1.022-1.589,2.27-.4,3.519a.7.7,0,0,1,.284.568c-.17.284-.4.284-.681.227-2.1-.284-3.462.851-4.711,2.384a16.34,16.34,0,0,0-3.519,9.99c-.057,1.873.227,3.746-.227,5.563-.681,2.952-1.7,5.619-4.938,6.811A11.165,11.165,0,0,0,64.2,69.822c-1.135,1.306-2.27,2.725-1.589,4.6a5.984,5.984,0,0,0,2.441,2.725c1.362.965,1.476,1.816.341,3.065a4.121,4.121,0,0,0-.965,1.76,1.444,1.444,0,0,0,.795,1.873h.114a1.766,1.766,0,0,1,1.306,1.419c1.76-2.327,4.144-3.235,6.755-3.8A32.509,32.509,0,0,0,83.106,78,3.458,3.458,0,0,0,84.979,75.1a28.662,28.662,0,0,0,.114-4.427,2.544,2.544,0,0,0-.795-1.76,11.6,11.6,0,0,1-2.668-3.746c-.4-1.078-1.306-.965-2.157-1.306-.057,3.746-2.214,5.846-5.449,7.209A5.493,5.493,0,0,0,71.3,73a2.728,2.728,0,0,0,.454,3.86c.114.057.227.17.341.227.284.17.511.284.795.454a1.464,1.464,0,0,1,.908,1.816h0a1.942,1.942,0,0,1-1.816,1.419c.114-.511.511-.511.795-.681a1.2,1.2,0,0,0-.17-2.27,3.359,3.359,0,0,1-1.93-1.7,3.289,3.289,0,0,1,.511-3.689c1.078-1.305,2.668-1.93,4.087-2.725,2.327-1.306,3.122-3.406,3.576-5.79a.844.844,0,0,0-.4-.851,6.4,6.4,0,0,1-2.043-4.881c0-1.76,1.249-3.235,3.576-2.214A10.109,10.109,0,0,1,82.2,50.239a19.419,19.419,0,0,0-1.93,6.868c.341-.227,0-.738.568-.851a2.921,2.921,0,0,1-.624,1.93.727.727,0,0,1-.4-.738,1.046,1.046,0,0,0-.795-1.249h-.341a1.433,1.433,0,0,0-1.533,1.249,6.66,6.66,0,0,0,2.5,5.9c.17.114.454.341.624.284,1.362-.284,1.7.795,2.157,1.646a11.815,11.815,0,0,0,6.528,5.96,6.587,6.587,0,0,0,4.427,0c3.065-1.078,4.541-3.576,5.79-6.3a36.347,36.347,0,0,0,1.135-3.519,8.82,8.82,0,0,1-2.441-2.781c-1.646.227-2.441-.057-2.611-1.078.738,0,1.305,1.249,2.214.341a10.045,10.045,0,0,1-1.078-4.484c-.568-.284-1.078.17-1.589.114-.114-.738.454-.965.908-1.192a1.183,1.183,0,0,0,.738-1.192,11.97,11.97,0,0,0-.851-5.108c-.511-1.476-4.314-2.895-6.017-1.249-.114.114-.17.341-.4.284,0-1.646,1.873-1.987,5.052-.965-.851-2.214-4.6-1.93-6.641.568,0-1.419,1.135-2.214,4.03-2.668-2.043-1.306-5.449.341-5.733,2.668,0,.341.795.681,0,1.022h0Zm-15.78,98.764c-.454,2.838-1.533,5.392-1.589,8.287q-.255,3.831-.851,7.663A42.737,42.737,0,0,0,68.4,173.3a100.528,100.528,0,0,0,2.952,12.2c.568,1.816,1.305,3.576,1.987,5.392,2.1,5.733,4.371,11.352,7.776,16.461a6.368,6.368,0,0,1,.851,6.244c-.511,1.192-.851,2.441-1.306,3.689a32.106,32.106,0,0,0-1.7,13.906c.341,4.711.568,9.422,1.135,14.077.4,3.406.681,6.811,1.192,10.217.624,3.973,1.476,7.947,1.873,11.977.454,5.108,1.533,10.1,1.476,15.269a9.224,9.224,0,0,0,.17,2.157,16.006,16.006,0,0,1,.057,7.152,50.714,50.714,0,0,0-.795,8.8c0,1.192-.17,2.781,1.419,3.406a52.518,52.518,0,0,0,4.995,1.816,5.947,5.947,0,0,0,4.2,0c1.249-.568,1.7-.965,1.476-2.27a38.351,38.351,0,0,0-1.589-6.584,77.921,77.921,0,0,1-2.725-8.741,93.8,93.8,0,0,1-1.533-11.239c-.454-5.392-.341-10.785-.341-16.177a107.2,107.2,0,0,1,.965-13.452c.568-4.938,1.078-9.82,1.7-14.758.568-4.03,1.362-8,2.27-11.92a41.654,41.654,0,0,0,.965-8.741,50.207,50.207,0,0,0-.568-5.108c-.284-3.292-.624-6.641-1.078-9.933A130.729,130.729,0,0,1,93.1,183.8a50.189,50.189,0,0,0-3.065-16.29,55.411,55.411,0,0,0-6.414-11.466,33.93,33.93,0,0,0-7.152-7.379,35.656,35.656,0,0,0-6.357-4.087m20.831,22.875a16.619,16.619,0,0,0,5.9-3.633c3.633-3.8,7.379-7.492,10.387-11.863,1.76-2.611,3.86-5.052,4.881-8.06.227-.624.624-1.192.284-1.93-1.362-3.065-2.895-6.073-4.484-9.025a40.23,40.23,0,0,1-3.349-8.06c-.624-2.1-.341-4.257-.341-6.414-.114-3.633,1.192-6.755,2.838-9.82a15.23,15.23,0,0,0,1.7-11.125,2.645,2.645,0,0,0-2.838-2.384,6.986,6.986,0,0,0-2.157.227,25.584,25.584,0,0,0-6.017,2.554,2.427,2.427,0,0,1-2.327.17c-.624-.341-1.306-.568-1.93-.965a9.989,9.989,0,0,0-4.541-1.476,18.8,18.8,0,0,0-9.763,1.987c-2.781,1.362-5.449,5.676-3.746,9.593a57.344,57.344,0,0,1,2.043,6.244,23.178,23.178,0,0,1,.454,8.628,30.074,30.074,0,0,1-3.8,12.2,31.422,31.422,0,0,0-3.8,9.649c9.933,5.108,16.234,13.4,20.6,23.442m22.137-23.726a.879.879,0,0,0-.454.624c-.965,2.668-2.781,4.768-4.371,7.1a97.211,97.211,0,0,1-7.492,9.139,26.127,26.127,0,0,1-5.336,5.279,25.51,25.51,0,0,1-4.314,2.157,35.168,35.168,0,0,1,2.554,11.182c.17,2.1.284,4.257.454,6.357.284,3.633.738,7.209.908,10.841.17,2.611.511,5.222.738,7.833.4,3.973,1.192,7.89.568,11.92-.511,3.689-1.192,7.322-1.816,10.955-.454,2.725-.965,5.392-1.306,8.117-.511,3.8-.738,7.606-1.305,11.352a100.652,100.652,0,0,0-1.135,11.693c-.17,5.619-.057,11.239,0,16.858a21.227,21.227,0,0,0,.454,4.654c.454-.624.284-1.305.454-1.93,1.192-4.427,2.043-8.911,3.86-13.168,1.76-4.2,3.292-8.457,4.938-12.771,1.589-4.257,3.462-8.344,4.484-12.771a26.694,26.694,0,0,0,.795-6.7c-.057-3.917-1.022-7.776-.908-11.693.114-2.27,0-4.6.738-6.811,1.589-4.825,3.065-9.706,4.6-14.531a152.488,152.488,0,0,0,4.711-17.993,91.939,91.939,0,0,0,1.589-16.744,55.64,55.64,0,0,0-1.476-14.361,46.308,46.308,0,0,0-1.873-6.641M85.546,70.049a7.894,7.894,0,0,1,.284,3.917,4.767,4.767,0,0,1-2.838,4.6c-1.476.738-3.065,1.305-4.427,1.987.965,3.179.227,6.3-.227,9.309-.454,3.065-1.306,6.017-1.987,9.025a14.473,14.473,0,0,1,8.514-3.8,13.176,13.176,0,0,1,8.911,1.7,3.752,3.752,0,0,0,4.654,0c2.554-1.76,5.392-2.952,8.684-2.157a1.327,1.327,0,0,0-.284-1.192c-1.7-3.008-2.838-6.3-4.257-9.422-.624-1.362-1.135-2.895-2.781-3.519-3.349-1.249-4.541-4.768-4.087-8.23.057-.624.454-1.192.114-1.873a2.661,2.661,0,0,0-1.078,1.022c-1.533,2.1-3.8,3.122-6.13.738a14.152,14.152,0,0,0-3.122-2.043M70.959,139.013c.908-1.873,1.76-3.689,2.668-5.506.624-1.192,1.078-2.327-.227-3.406a7.549,7.549,0,0,1-.795-1.078,5.727,5.727,0,0,1-1.419-4.257c.227-2.157.284-4.314.4-6.414.114-2.27.17-4.6.454-6.868.4-3.973.908-7.947,1.476-11.92A8,8,0,0,1,74.591,96.1a8.108,8.108,0,0,1-.114,2.384,9.861,9.861,0,0,1-.284,2.214,2.259,2.259,0,0,0,.341,2.1c.17-.454.284-.795.4-1.192,1.078-4.371,2.157-8.741,2.895-13.225a23.029,23.029,0,0,0,.454-6.528c-.057-.795-.341-1.078-1.192-.851a29.05,29.05,0,0,1-3.179.851,10.325,10.325,0,0,0-8.684,7.606c-.795,2.554-.681,5.222-.851,7.833-.227,4.144.227,8.287,0,12.431-.227,5.563-.4,11.068-.284,16.631,0,2.1,0,4.2,1.022,6.13a21.559,21.559,0,0,0,5.846,6.584m39.676-2.952a10.149,10.149,0,0,0,.795-.738c1.589-1.816,3.235-3.576,4.654-5.506a10.621,10.621,0,0,0,2.441-7.436,74.337,74.337,0,0,0-1.306-9.366c-1.078-5.222-1.646-10.614-3.292-15.723-.738-2.384-.511-4.881-.738-7.322-.341-3.008-1.419-5.449-4.371-6.755a16.446,16.446,0,0,0-2.384-.681c-1.533-.4-3.065-.738-4.711-1.135,2.27,3.406,3.235,7.322,5.108,11.068.17-1.192,0-2.214.908-3.179,0,1.987-.114,3.689.624,5.336a15.342,15.342,0,0,1,.227,12.544,4.614,4.614,0,0,0-.568,2.895c.4,1.646.851,3.292,1.135,4.995a43.349,43.349,0,0,1,.908,7.1,2.246,2.246,0,0,1-.284,1.476,45.071,45.071,0,0,1-2.611,4.087,1.03,1.03,0,0,0-.17,1.305c.511.965.851,1.987,1.362,2.952.738,1.362,1.476,2.725,2.27,4.2M73.627,103.651c-.284,2.214-.624,4.484-.851,6.7-.4,4.6-.738,9.139-1.022,13.736a3.938,3.938,0,0,0,.17,2.554c.851,1.419,1.873,2.725,2.838,4.087.4-1.078.681-2.157,1.078-3.179a26.582,26.582,0,0,0,1.476-9.138,19.16,19.16,0,0,0-1.192-5.846c-.908-2.952-1.76-5.9-2.5-8.911m32.751,23.385a32.182,32.182,0,0,1,2.838-3.86,1.243,1.243,0,0,0,.17-1.078c-.17-1.135-.284-2.214-.511-3.349-.511-2.781-.908-5.563-1.646-8.287-2.725,2.838-3.179,13.225-.851,16.574" transform="translate(-61.453 -35.983)" fill="#8e3b22"/>
            <path id="Trazado_895001" d="M101.666,43.794c-.341-2.157,1.305-4.03,3.917-4.427a15.561,15.561,0,0,1,11.125,2.668,8.016,8.016,0,0,1,2.838,4.087,20.486,20.486,0,0,1,1.249,8.23,6.141,6.141,0,0,0,2.895,5.052c.17.114.4.17.4.454-1.305-.227-3.122-2.157-3.633-3.633-.624-1.76-.17-3.519-.227-5.279-.114-3.519-.908-6.811-4.03-8.855a13.428,13.428,0,0,0-11.352-1.873,4.466,4.466,0,0,0-2.157,1.533,1.831,1.831,0,0,0-.511,1.476c0,.341.17.738-.454.624h0Z" transform="translate(-78.822 -37.37)" fill="#8e3b22"/>
            <path id="Trazado_895002" d="M108.3,85.538c1.987-.341,3.746-2.5,5.563.227a2.758,2.758,0,0,1-2.1,2.043c-1.816.341-2.441-1.135-3.462-2.27" transform="translate(-81.709 -56.92)" fill="#8e3b22"/>
            <path id="Trazado_895003" d="M105.779,66.272c-2.5-.057-4.881-.454-7.379-.4,2.327-1.76,6.527-1.589,7.379.4" transform="translate(-77.429 -48.383)" fill="#8e3b22"/>
            <path id="Trazado_895004" d="M99.235,52.864c-4.257,1.249-5.222,4.881-6.3,8.457-.057.17-.057.4-.114.568,0,.17-.114.284-.227.511-.511-.568-.17-1.135,0-1.589.511-2.668,1.419-5.165,3.633-6.925.851-.681,1.76-1.589,3.065-1.022h0" transform="translate(-74.802 -43.205)" fill="#8e3b22"/>
            <path id="Trazado_895005" d="M91.546,78.107a4.074,4.074,0,0,0-.795-4.257c-.4.341,0,.738-.114,1.135-.624-.17-.454-.681-.454-1.078a.524.524,0,0,1,.568-.511c.511-.057.624.341.795.681a14.985,14.985,0,0,1,.965,2.668c.341.965,0,1.306-.965,1.419" transform="translate(-73.867 -52.157)" fill="#8e3b22"/>
            <path id="Trazado_895006" d="M101.8,73.1c.795-.568,1.249.454,1.93.4.795-.057,1.306-.568,1.987-.795.511.681,0,.965-.454,1.192A3.061,3.061,0,0,1,101.8,73.1" transform="translate(-78.899 -51.859)" fill="#8e3b22"/>
            <path id="Trazado_895007" d="M98.141,47.3l.795.624c-2.327.17-3.8,1.362-5.336,2.5A8.474,8.474,0,0,1,98.141,47.3h0" transform="translate(-75.353 -40.876)" fill="#8e3b22"/>
            <path id="Trazado_895008" d="M118.331,68c-.341,1.76-.908,3.462-1.078,5.222-.284-1.873.454-3.576,1.078-5.222" transform="translate(-85.553 -49.827)" fill="#8e3b22"/>
            <path id="Trazado_895009" d="M116.133,78.8a1,1,0,0,1,.17,1.419h0a1.307,1.307,0,0,1-1.7.454c1.192-.227,1.7-.795,1.589-1.873" transform="translate(-84.433 -54.496)" fill="#8e3b22"/>
            <path id="Trazado_895010" d="M109.17,356.964c-1.93-1.078-2.214-2.043-1.078-3.633a.719.719,0,0,0,0-1.022c-.17-.227-.511-.4-.511-.795.624-.341.908.17,1.249.511a.893.893,0,0,1,.341,1.078c0,.057-.057.113-.114.17-1.362,1.249-1.135,2.441.114,3.689" transform="translate(-81.331 -172.367)" fill="#8e3b22"/>
            <path id="Trazado_895011" d="M113.4,166.369c2.781-.681,5.449-2.838,8.684-.681-1.646.341-3.008-.624-4.484-.341-1.419.284-2.725,1.022-4.2.965" transform="translate(-83.914 -91.662)" fill="#8e3b22"/>
            <path id="Trazado_895012" d="M130.658,356.668a1.625,1.625,0,0,1-.454-1.93c.284-.908,1.135-1.646.795-2.838.624.511.965,1.078.681,1.7a9.76,9.76,0,0,0-1.022,3.065" transform="translate(-91.126 -172.583)" fill="#8e3b22"/>
          </g>
        </g>
      </g>
    </g>
  </g>
</svg>
