<svg xmlns="http://www.w3.org/2000/svg" width="84" height="84" viewBox="0 0 84 84">
  <g id="Grupo_1204660" data-name="Grupo 1204660" transform="translate(-706.371 -1148.009)">
    <g id="Grupo_1177230" data-name="Grupo 1177230" transform="translate(0.371 -530.911)">
      <g id="Grupo_1119665" data-name="Grupo 1119665" transform="translate(534.111 -3840.08)">
        <rect id="Rectángulo_402006" data-name="Rectángulo 402006" width="84" height="84" rx="5" transform="translate(171.889 5519)" fill="#cdbfdc"/>
      </g>
    </g>
    <path id="costura_3_" data-name="costura (3)" d="M52.531,15.06a.877.877,0,0,0,.878-.878V8.673a.877.877,0,0,0-.878-.878H49.564V4.877A.877.877,0,0,0,48.687,4h-5.58a.877.877,0,0,0-.878.878V7.8H37.984V4.877A.877.877,0,0,0,37.107,4h-5.58a.877.877,0,0,0-.878.878V7.8H26.4V4.877A.877.877,0,0,0,25.527,4h-5.58a.877.877,0,0,0-.878.878V7.8H14.825V4.877A.877.877,0,0,0,13.948,4H8.367a.877.877,0,0,0-.878.878V7.8H4.524a.877.877,0,0,0-.878.878v5.509a.877.877,0,0,0,.878.878H7.49v4.168H4.524a.877.877,0,0,0-.878.878v5.509a.877.877,0,0,0,.878.878H7.49V30.66H4.524a.877.877,0,0,0-.878.878v5.509a.877.877,0,0,0,.878.878H7.49v4.156H4.524a.877.877,0,0,0-.878.878V48.48a.877.877,0,0,0,.878.878H7.49v2.906a.877.877,0,0,0,.878.878h5.58a.877.877,0,0,0,.878-.878V49.357H19.07v2.906a.877.877,0,0,0,.878.878h5.58a.877.877,0,0,0,.878-.878V49.357h4.244v2.906a.877.877,0,0,0,.878.878h5.58a.877.877,0,0,0,.878-.878V49.357h4.244v2.906a.877.877,0,0,0,.878.878h5.58a.877.877,0,0,0,.878-.878V49.357h2.967a.877.877,0,0,0,.878-.878V42.958a.877.877,0,0,0-.878-.878H49.564V37.925h2.967a.877.877,0,0,0,.878-.878V31.538a.877.877,0,0,0-.878-.878H49.564V26.492h2.967a.877.877,0,0,0,.878-.878V20.105a.877.877,0,0,0-.878-.878H49.564V15.06Zm-8.547-9.3h3.825V7.8H43.984Zm7.67,3.8V13.3H37.984V9.55ZM37.984,30.66V26.492h4.244V30.66Zm4.244,11.421H37.984V37.925h4.244Zm-9.825,0V26.492h3.825V42.081Zm-6,0V37.925h4.244v4.156Zm-7.335,0H14.825V37.925H19.07Zm0-15.589V30.66H14.825V26.492ZM14.825,15.06H19.07v4.168H14.825Zm9.824,0v15.6H20.825V15.06Zm6,0v4.168H26.4V15.06Zm11.58,5.923v3.754H26.4V20.983ZM30.649,30.66H26.4V26.492h4.244ZM14.825,36.17V32.415H30.649V36.17Zm27.4-16.942H37.984V15.06h4.244ZM32.4,5.755h3.825V19.228H32.4Zm-11.579,0H24.65V7.8H20.825Zm9.824,3.8V13.3H14.825V9.55ZM5.4,13.3V9.55H7.49V13.3Zm3.844-7.55H13.07V19.228H9.245ZM5.4,20.983H19.07v3.754H5.4Zm0,15.187V32.415H7.49V36.17Zm3.844-9.677H13.07V42.081H9.245ZM13.07,51.386H9.245V49.357H13.07ZM5.4,47.6V43.836H19.07V47.6ZM24.65,51.386H20.825V37.925H24.65Zm11.579,0H32.4V49.357h3.825ZM26.4,47.6V43.836H42.229V47.6Zm25.249-3.766V47.6H49.564V43.836Zm-3.844,7.55H43.984V37.925h3.825ZM51.653,36.17H37.984V32.415H51.653Zm0-15.187v3.754H49.564V20.983ZM47.809,30.66H43.984V15.06h3.825Z" transform="translate(719.006 1160.8)" fill="#752092"/>
  </g>
</svg>
