<svg xmlns="http://www.w3.org/2000/svg" width="517.81" height="522.946" viewBox="0 0 517.81 522.946">
  <g id="Grupo_1204658" data-name="Grupo 1204658" transform="translate(-853 -1891.885)">
    <g id="Grupo_1113590" transform="translate(853.013 1891.92)">
      <path id="Trazado_896300" d="M486.3,136.1c-1.8-3.3-13.6-20.9-13.6-22.2V91.3H455.1C391.5,14,283.9-18.2,187.2,10.1c-47,13.7-85.9,39.5-119.3,74.8a32.1,32.1,0,0,0-5,6.5H45.3c-.6,6.8.7,14.7,0,21.4a6.63,6.63,0,0,1-1.2,3.2h.6l.6,1.4v47.2c1.2.4,1.7-.9,2.3-1.2-.9,0-.6-.8-.6-1.5-1-15.7.8-32.3,0-48.1a8.9,8.9,0,0,1,1.2-3.8c-1.6,1-1.1.6-1.2-.9-.3-5.4.2-10.8,0-16.1,3.8.2,7.7-.2,11.5,0,.8,0,1.6-.3,2,.6v.6c2.2-2,5.4-.9,8.2-1.2v-.6c-.9-.3-2-.9-2.9-1.2-.5-.2-2.3.5-1.8-.9.2-.5,6-6.6,7-7.6C124.2,25.7,206.6-3.6,284.2,4c64.5,6.3,127.4,38.1,169.2,87.4-2.8-1.1-3.1.6-4.5,1-6.1,2-12.7,1.2-18.9,3.1-.1,1,1.4.6,2,.6,1.6-.1,3.3-.4,5-.6,1.4-.1,2.7-.4,4.1-.6,4.9-.7,9.5-2.5,14.5-1.6L471,113.4v50.1a10.1,10.1,0,0,1-4.1-1.8l-.6.6c2.2,1,4.3,2,6.5,2.9V116.5c43.5,62.9,54.9,144.3,32.5,217.5a245.991,245.991,0,0,1-31.9,66.8c-.6-65.2.8-130.4,0-195.6-.1-8.9-1.7-18.7-.7-27.6.2-1.5,1.9-.9,1.8-2.3,0-.9-3.4-3.6-1.5-6.2.6-.8,2.1.1,2.1-1.4,0-2.2-1-2-2.4-2.6l1.8,2.9c-7.1.8-12.8-5.2-19.9-4.7l4.5,1.6,14.8,10.4c-1.6,1.3-3.5.3-5.3.6l2.3,1c-.1,51.6.5,103.4.1,155-.2,24.1-1.2,48.5-.6,72.7-14.8,23-36,44.6-58.1,60.9-1.8,1.3-12.1,8.8-13.3,9.1-2.3.5-7.6-3.6-10.7-2.8l9.8,5.4.8,3.4c-1.7.1-1.4-1.6-2.7-2.8-.5-.4-3.3-2.2-3.7-1.8,1,1.7,4.8,4.3,3.8,6.4-1.3,2.9-2.3-1.6-4.1-2.9a4.717,4.717,0,0,0-3.2-1.2c1.1,1.8,6,4.9,3.1,7.1-2.3,1.7-1.7-.4-2.8-1.8-.4-.5-3.3-3.5-3.9-2.9,1.8,3.3,5.7,5.6.3,7.6-1.4-2.4-2.4-5.7-5.6-6.4l1.2,1.7c-2.1.2-4.8.9-5.9,2.9,2-.8,6.6-2.6,7.5.4,1,3.3-5.3,5.9-7.5,5.2-4-1.3-2.3-10.5-5.9-13.5-.6-.5-1.7-.6-2.2-1-1.8-1.7-1.6-7-2.1-9.4C363,458,341.2,438.4,334,429c-7.4-9.7-10-19.9-15.9-29.8-5.1-8.5-12.9-15.6-18.7-23.5,3.5-21.7,8.4-43.5,8.5-65.6l16.4,45.7.6-.6c-3-9.2-5.6-18.6-8.8-27.9-2.2-6.4-6.2-14.1-7.9-20.2-2.4-8.4-2-16.2-5.4-25.7-5.4-14.8-13-20-11.9-37.4.4-5.5,3-22.5,5-27.3.7-1.6,2.2-2.8,3.1-4.6,2.2-4.6,1.3-8.6,2.5-13h-1.2l-1.8-6.4h-.6c2.5,8.5,1.8,20.4-7.2,24.7-9.2,4.4-26.6,2.3-29.1-9.5l-.6.6c3.2,14.5,22.4,15.8,33.4,9.4-2,10.4-6.6,22.4-5.8,33.1.5,7.5,5.6,13.1,8.4,19.7,7.7,18.5,10.7,36,8.4,55.9-2,17.3-4.8,37.8-8.1,54.9h.6c.2-.7,0-3.1,1.5-1.8,4.4,6.2,10.2,11.5,14.6,17.7,5.2,7.3,8.3,15.9,13.4,23.6,9.7,14.8,24.3,28,33.4,42.8,3.1,5,1.9,8,3.9,12.5,1.6,3.5,3.4,2.8,4.7,4.7a38.619,38.619,0,0,1,2.4,8.2c0,1.4-4.3,3-5.6,3.7-19.3,9.2-41,15.3-62,19.3-1.7-1.7-4-2.9-5.6-4.6,1.9,4.2,8.2,8.5,5.6,12.9-.9-2.2-.9-5.1-3.2-6.4-.1,2.1,2,5.4.3,7-3,3-1.4-1.4-1.6-2.5-.2-1.5-2.2-3.8-3.1-5.1-.4,2.2,3.2,6.8,0,8.1-2.8,1.1-1.6-1.2-2.1-3-.4-1.6-1.3-3-1.6-4.5-1.1-.1-.5,1.2-.4,1.9.4,3.8,1.9,6.7-3.7,5.2,1.2-2.8.3-4.9-.6-7.6-1.1-.2-.3,1.5-.6,1.8s-6.5-2.6-8.2.3c2.5,0,4.5-.8,6.7.9,5.9,4.4-5.9,6.8-8,3.3-2.2-3.7,1.8-8.6,1.8-12.4,0-2-1.3-2.4-1.6-3.6-1-3.7,2.1-7.1,2.7-10.6,2.1-13.3-7.3-35.7-9.2-49.8-1.4-10.3.2-17.7.5-27.5.4-12.1-4.2-26.2-6.3-38.3-3.3-19.6-6.3-39.4-7.2-59.3-1-.1-.6,1.3-.6,2-.7,18.1-3.6,37-6.6,55-1.8,10.5-5.1,21.4-6.3,31.8-.8,7,.3,12.2.6,19,1.1,2.6.6,6.2.6,9.1,0,.9.6.8.6.9.8-5.8.5-11.5.6-17.3.2-13.9,2.8-25.7,5.7-39.3l5.4-43.6c1.2,12.8,2.3,25.6,4.2,38.3,1.8,11.9,6.3,26.2,7,37.6.6,10-.7,18.5.7,29.2,2,14.9,8.5,34.6,8.7,48.8,0,4.9-4,8.8-2.8,13.9.3,1.1,1.3,1.8,1.5,2.6.4,1.6-.7,9-2,9.5H240.8c-.4-.2-1.9-7.5-1.9-8.4.1-1.9,1.4-2,1.7-3,1.4-4.6-1.5-7.5-2.1-11.2-1.4-8.4,4.5-33.2,6.3-43l-.6-.6c-2.2,11.3-9.6,32.4-8.1,42.9.6,3.9,3.8,7,2.6,11.2-.3,1-1.5,1.6-1.5,3-.1,3.2,3.4,8.8,2.6,11.5-1.1,4-10.3,4.4-10.1.3.2-3.4,5.6-3.4,8-2.9-1.7-3.1-7.9,0-8.2-.3s.6-2-.6-1.8c0,1.6-.9,3.1-1,4.5-.2,1.2,1.4,3.6-1,3.6-4.3,0-2.4-3-2.2-5.6,0-.7.5-2.1-.5-2,0,2.7-2.8,4.9-1.2,7.6-5.9.8-2.9-4.1-2.6-7.6l-2.2,2.5-1.3,5.1c-2.7-.5-1.3-3.8-1.1-5.7,0-.6.7-2-.4-1.9-1.2,2.4-2.3,4.1-1.8,7-2.1-1-1.9-2-1.3-3.9,1.9-5.8,8.4-9.6,10.1-17.2,0-1.1.4-2.9-.6-3.5-.9,5.1-3.8,15.6-10.2,15.3-4.4-.2-12.3-2.5-16.9-3.7a249.9,249.9,0,0,1-50.3-18.9,41.152,41.152,0,0,1,2.7-8.4c.7-.9,2.2-1.1,3.2-2.1,2.5-2.7,1.9-5.6,2.6-8.6,2.7-10.9,24.2-32.8,31.9-43.2,6.7-9.1,10-18,15.8-27,4.4-6.8,11.8-14.9,17.1-21.3a1.309,1.309,0,0,1,1.2-.6c-3-16.4-5.7-35.9-7.5-52.6-2.1-18.6.6-32.4,6.8-49.9,3.8-10.8,10.7-17.1,10.2-29.2-.4-9.4-3.7-19.3-5.9-28.4,10.2,6.4,30.4,5,33.4-8.8l-.6-.6c-2.8,12.4-24.4,13.9-32.3,6.8-7.1-6.5-6.1-18.9-1.7-26.7l-29.6-1.7c-15.7-1.9-32.3-4.4-48.1-4.7-7.9-.1-14.6,0-22.7-1.3-11.7-2-22.8-8-35.1-7.5a7.042,7.042,0,0,0,1.8-5.9l-2.1,4.7c-.4.6-2.4,2.4-2.9,2.4H72.9l6.7,1.2c7.4-2.7,15.4,1.2,23,2.7,9.2,1.8,18.4,4,27.6,5.8,13.7,2.7,30.8.9,45,2,8.3.6,27.1,3.2,34.9,5.3,1.4.4,2.2.2,3.2,1.8,0-3.3,2.9-.4,5.6-1.2-1.5,1.6-1.5,5.7-2.4,7-.7,1-.6-3.8-1.2-.6.8,3,.6,7.5,1.4,10.6.9,3.6,3.2,5.1,4.3,7.4,2.1,4.7,5.4,26.6,5.4,32.1,0,11.5-7.8,20.6-11.7,31-3.5,9.1-3.5,15.1-5.4,23.9-1.6,7-7.7,19.4-10.4,27.1-2.6,7.5-4.6,15.1-7,22.6l.6.6,16.4-44.6c.5,22,4.6,43.7,8.7,65.2-4.6,6.4-10.4,12-15.1,18.3-8.5,11.3-11.6,24.5-20.3,36-6.8,8.8-29,29.4-31.1,38.7-.6,3,0,5.4-1.5,8.5-1.1,2.4-2.8,1.6-4,3.6-2.1,3.5-.7,13.9-7.1,12.3-8.8-2.2-5.8-9.8,2.4-5.6-1.1-2.1-3.7-2.7-5.9-2.9l1.2-1.7c-.9-.9-5.9,4.6-4.7,6.4-2.3-.6-4.4-.9-3.4-3.7.5-1.3,2.4-1.7,2.2-3.4-.7-.7-4.8,3.3-4.1,4.7-5.2-1.7-.9-5.2,1.2-7.6-3.1-1.2-5.7,5.3-6.2,5.3a5.391,5.391,0,0,1-1.4-1.6c-.5-1.8,3.2-4.5,4-6-.5-.4-3.2,1.4-3.7,1.8-1.4,1.3-1,3-2.7,2.8,0-5.3,7.7-6.6,11.5-8.7,4.7-2.6,7.9-5,10.2-10.1l-9.2,8.7-10.7,3.9-1-.2C95.3,458.8,74.1,440.1,57,418.4c-2.5-3.2-9.1-11.1-9.4-14.6-1.4-14.8.2-33.4,0-48.7,0-1.5-.6-3-.6-4.6-.5-58,.4-116.1,0-174.1l-3.6-1.2,8.2-6.7c-1.4.7-3.1,1.1-4.4,2.3-1.8-3.6,3.4-2.9,5.6-3.5,3.3-1,5.8-3.2,9.4-3.5.2-1-1.4-.6-2-.6-6.1.6-11.4,5.5-17.9,4.7,0,1.3,2.6.2,2.9.6a11.227,11.227,0,0,1-.3,4.1c-.4.9-2.9,1.3-2.6,3.2l3,1.2-.6,223.7c-3.6-4.1-6.7-9.5-9.5-14.3C15,351.3,2.6,310.5,1.3,269.6c0,1.1-.6,3.4-.6,5.3-.3,44.6,20.2,94.8,44,131.7L44.1,520l164.5-.6c5.5,4.4,8.6,2.9,14.6,3.1,2.8.1,3.6.2,6.5.1,2.5,0,4.6.7,7.4,0,2.5-.6,3.2-2.9,5-3.3,4.8-.9,11.7.6,16.4.6,3.1,0,15.9-1.6,17.8-.5.3.1.7,1.6,1.6,2.2,2.8,2.1,6.4.8,9.4.9,2.9,0,3.7,0,6.5-.1,6-.3,9.1,1.3,14.6-3.1l165.7.6-.6-114c54.1-80.2,58.9-184.7,13-269.9m-15.6-25.3L457.4,93.1h13.5Zm-.2,61-6.1-4.1c1,.4,6.2,1,6.4,1.2.1.1.3,2.6-.3,2.9M47.6,516.4V410.9A270.545,270.545,0,0,0,106,470c1.5,1.1,9.7,6.1,10,6.7.4.8,0,2.4.2,3.6.8,1.2,1.7,2.3,2.6,3.4.9.5,2.3.3,3,.7,1.5,1,4.1,3.3,5.8,4.5.9.6,7.8,4,9,4.5,5,1.7,5.1-.9,6.6-.8,1.1.1,10.2,5,12.3,5.9,17.3,7.3,35.3,13.2,53.9,16.4l1,1.6H47.6Zm422.8-.8-.9.9H306.2l.7-1.3a271.465,271.465,0,0,0,51.4-15.4c3-1.2,12.4-6.3,14.5-6.6,2-.3,2.4,1.6,6.6.2a83.915,83.915,0,0,0,9-4.5c1-.7,1.4-2,1.7-2.1,1.7-1,2.1-1,4.1-2.3.7-.4,2-.2,3-.7,2.1-1.2,2.4-5,3.3-6.2,1-1.4,15.8-11.2,18.7-13.5a267.464,267.464,0,0,0,40.5-39.8l10.6-13.8V515.7Z" fill="#752092"/>
      <path id="Trazado_896301" d="M422.3,161.7c-8.5-.8-18.2-2.2-26.7-1.8-6.9.3-13.7,2.4-20.5,2.9-8.3.7-17.4-.7-25.8-1.2-.7,0-1.6.4-1.4-.6l25.7-13.2L414.5,116c4,.2,7.6-3.4,10.2-4.2l-.6-.6c-2.7.9-4.6,3.4-7.8,3.3-3.2,0-4-2.3-6.2-3.9a5.423,5.423,0,0,0,1.5,2.9c1,.9,2.3.8,2.6,1.8-10.9,3.9-17.9,13.7-26.8,20.4-8.8,6.7-17,9.7-26.4,14.7-6.6,3.5-15.4,11.8-22.8,11.8H295.1c.8-1.7,2.6-2.5,4.1-3.5l-.6-.6c-1.9,1.2-4.7,3.7-6.7,3.6-1.1,0-1.8-.9-2.5-1-4.7-.7-10.9-1.1-13.8-5.7-2.2-3.6-2-11.6-1.6-15.9.6-7.2,3.9-11.3,4.1-19.7h-.6c-.3,8-3.6,15-8.3,21.3-5,6.7-11.9,9.4-18.7,3.3l-.6.6c7.1,6.5,13.7,4.4,19.7-2.3l3.8-5.9c-.5,9.1-3.5,18.9,6.5,23.7,9,4.4,18.1,4,27.9,3.8,14.7-.2,29.8-1.3,44.6-.6,6.4.3,13.4,2,19.9,1.8,7.4-.2,15.8-2.5,23.4-2.9,7.9-.4,21.2,1.5,27.8,0-.1-.6-.7-.5-1.2-.6" fill="#752092"/>
      <path id="Trazado_896302" d="M213,162.3c-13,.7-26.3,1.5-39.3-.1a124.536,124.536,0,0,1-18.6-11,111.568,111.568,0,0,1-27.4-16.3l.5.5a147.366,147.366,0,0,0,23.1,15.4c1.6.5,17.2,8.6,17.5,9.5.6,1.5.9,2.3-.9,2.3L146,164.2c-17.3-2.1-34.2-3.4-51.5-2.2a36.692,36.692,0,0,1-13.9-9,103.847,103.847,0,0,1-13.2-7c3.1,4.1,8.4,5.2,12.5,7.7,3.2,2,6,5.3,9.4,7,7.3,3.7,22.3,1.2,31.2,1.6,8.2.4,17.2,2.9,25.2,3,6.1,0,12.8-1.5,18.8-1.8,12-.6,24.6.5,36.7,0a3.506,3.506,0,0,1,1.4-.6c3.3-.1,7.2.7,10.3-.6" fill="#752092"/>
      <path id="Trazado_896303" d="M92.8,111.9a.774.774,0,0,1,.3.1,65.616,65.616,0,0,0,6.2,2.3c-2.1-1-4.2-2-6.5-3Z" fill="#752092"/>
      <path id="Trazado_896304" d="M112.9,122.3c1.2,1,2.5,2,3.7,3l-.9-.9c-.9-.7-1.8-1.4-2.8-2.1" fill="#752092"/>
      <path id="Trazado_896305" d="M94.6,161.9c17.2-1.1,34.1.2,51.5,2.3l21.9-1.6c1.7,0,1.5-.8.9-2.3-.4-.9-16-9-17.5-9.5a149.735,149.735,0,0,1-23.1-15.4l-.5-.5c-3.8-3-7.4-6.2-11-9.6-1.2-1-2.5-2-3.7-3a89.7,89.7,0,0,0-13.7-8.1,65.614,65.614,0,0,1-6.2-2.3c1.7.7,10.2,4.8,11,5.3,17.4,10.7,32,29.5,51.8,36.7l13.1,7.7c-8.7.1-17.4,1.8-26.1,1.2-14.2-.9-23.4-3.2-38.7-2.4-2.6.1-6.2,1.2-8.7,1.1-5.3-.2-9.6-6.5-13.7-9.2-4.2-2.8-9.8-4.1-14.3-6.5a92.5,92.5,0,0,0,13.2,7,36.692,36.692,0,0,0,13.9,9" fill="#752092"/>
      <path id="Trazado_896306" d="M127.6,134.9c-3.6-3.2-7.3-6.5-11-9.6,3.6,3.4,7.3,6.6,11,9.6" fill="#752092"/>
      <path id="Trazado_896307" d="M180.4,162.3c-10.9-.7-16.7-8-25.9-12.8-8.4-4.4-15.6-6.9-23.6-12.8-9.3-6.9-16.5-17-27.6-21.4.3-1,1.5-1,2.3-2a4.2,4.2,0,0,0,1.2-2.6c-5.6,7.3-8.4,2.2-14.1.6,2.3,1,4.4,2,6.5,3,1.3.4,2.6.9,4,1.2,3.3,2.1,6.6,4.4,9.7,6.8.9.7,1.8,1.4,2.8,2.1l.9.9c3.8,3.1,7.4,6.3,11,9.6a115.39,115.39,0,0,0,27.5,16.3,124.535,124.535,0,0,0,18.6,11c12.9,1.6,26.2.9,39.3.1-10.4,0-22.3.7-32.6,0" fill="#752092"/>
      <path id="Trazado_896308" d="M99.2,114.3a89.7,89.7,0,0,1,13.7,8.1,112.021,112.021,0,0,0-9.7-6.8c-1.4-.4-2.7-.8-4-1.2" fill="#752092"/>
      <path id="Trazado_896309" d="M298.6,192.8c1.8-.6,5.1-2.1,5.9,0,.4-.6.4-1.2,1.5-1.1,11.8-.5,24.2-4.4,35.8-5.3,12.1-.9,24.9,0,36.9-.6,16.3-.8,37.6-10,54.5-11.1,3.6,1.8,6.6.7,10.3.6.2-.8-.9-.9-1.5-.9-3.5,0-7.7,1.6-10.2-1.8-1.2-1.6-.8-3.9-2.4-4.9a11.342,11.342,0,0,0,1.8,5.9c-12.2-.4-23.3,5.4-35.1,7.4-17.7,3.1-37.4,1.1-55.5,3.7-14.6,2.8-29.5,3.1-44.3,4.1-.7.6,1.6,3.7,1.8,4.1q.3-.75.6,0" fill="#752092"/>
      <path id="Trazado_896310" d="M298,192.8h.6q-.3-.75-.6,0" fill="#752092"/>
      <path id="Trazado_896311" d="M230,160.5c9.2-9.4,4.1-23.3,3.5-34.9-.7-14.3.3-32.5,15.9-38.4l-1.2-.6a17.724,17.724,0,0,0-7.6,4.7c-.1.1.2.9-.6,1.2h-1.2c-7.1,8.9-8.2,20.3-7.6,31.4.5,8.4,4.4,21.5,2.2,29.2-1.3,4.6-6.6,10.8-11.6,7.5a.548.548,0,0,0-.6.4v.2c4.3,2.3-4.9,3-8.2,1.2l-.2.9c-3.9,0-7.7.2-11.6.3,10.1.3,20.5,1.9,30.3-1,13.5-4.1,13.5-10.3,12.5-23a2.811,2.811,0,0,0-.6,2.3c-.4,11.4,0,17.1-13.5,18.8" fill="#752092"/>
      <path id="Trazado_896312" d="M213,162.3c3.4,1.8,12.5,1.2,8.2-1.2,0,.2.8.6.6,1.2H213" fill="#752092"/>
      <path id="Trazado_896313" d="M213,162.3c-3.1,1.2-7,.4-10.3.6a2.513,2.513,0,0,0-1.4.6c3.8-.1,7.7-.2,11.6-.3l.2-.9Z" fill="#752092"/>
      <path id="Trazado_896314" d="M162.8,403.3c-9,17-11.2,38.2-21.4,54l.6.6a65.891,65.891,0,0,0,5.6-8.2c5.6-11,8.8-25.4,13.4-37.1,5.6-14.3,15.3-26.6,23.9-39.1l-.6-.6c-7.1,10.1-15.6,19.4-21.4,30.5" fill="#752092"/>
      <path id="Trazado_896315" d="M355.3,412.5c5.5,13.6,9,31.9,17.7,43.5l.6-.6c-6.7-10.8-9.6-25.7-14.1-37.8a117.26,117.26,0,0,0-14.8-28c-4.3-6.2-10.9-13-14.5-19.2l-.6.6c9.2,14.1,19.2,25.4,25.7,41.5" fill="#752092"/>
      <path id="Trazado_896316" d="M219.4,398.6c-1.6,12.1-4.2,25-3.5,37.3.9,17.3,7.9,34.5,7.1,51.9l.6,1.2c1.7-24-6.6-45.5-5.3-70.1.3-5.8,2-12.8,1.8-18.4,0-.6.2-1.5-.6-1.8" fill="#752092"/>
      <path id="Trazado_896317" d="M296.8,399.2c-.4,10.9,3,23.3,2.4,34.9-.9,16.2-7.1,33.3-6.5,49.8l1.7,9.1c.2-4.5-.9-8.6-.6-13.2,1-13.6,6.2-28.4,7.1-42.2.9-13.5-1.7-26.9-3.5-40.2-.8.3-.6,1.1-.6,1.8" fill="#752092"/>
      <path id="Trazado_896318" d="M1.3,269.6c.1-14.9,0-28.7,1.8-43.6,2.1-16.1,6.2-31.7,10.5-47.3L8.5,194.4A264.822,264.822,0,0,0,.1,253.2c1,.6.6,2.2.6,3.2,0,3.8.4,8.4-.6,12,0,2-.5,4.9.6,6.4-.3-1.6-.6-4.3.6-5.3" fill="#752092"/>
      <path id="Trazado_896319" d="M.7,274.9c0-1.9.6-4.2.6-5.3-1.2.9-.9,3.7-.6,5.3" fill="#752092"/>
      <path id="Trazado_896320" d="M65.5,151.3a12.232,12.232,0,0,1,4.9,4.4,55.358,55.358,0,0,0-22.7,7.8c5.3-2.3,20.2-8.5,25.3-6.8,1.6.5,1.2,1.7,2.3,2.1-1.3-5.9-11.5-6.4-12.3-13.2-.1-1.1-.5-2.4,1.2-2-3.8-1-.8,6.7,1.4,7.7" fill="#752092"/>
      <path id="Trazado_896321" d="M62.3,142.9c-1.4,4.2.6,7.3,3.8,10l3.8,2.4c-8,.7-16.1,2.8-22.3,8.2a55.863,55.863,0,0,1,22.7-7.8,12.232,12.232,0,0,0-4.9-4.4c-2.2-1.1-5.3-8.7-1.4-7.7-.4-.2-.7-1-1.8-.6" fill="#752092"/>
      <path id="Trazado_896322" d="M257.5,276.4l1.2,6.1c1.2-11.7,0-23.2,0-34.9,0-1.8.6-3.7.6-5.9s-.9-6.1-.9-9.1c-1.9,7.6-.2,15.4-.3,23.2,0,6.6-1.2,13.8-.6,20.5" fill="#752092"/>
      <path id="Trazado_896323" d="M466.8,161.7c-2.5-1.4-4.3-3.2-7.3-4.1-3.7-1.2-8.2-1.6-12-2.3l4.6-3.3c1.9-1.9,3.7-5.1,3-7.8a1.167,1.167,0,0,0-.6.6c-.7,1.9-.6,3-2,4.7-3,3.7-9.7,4.5-10.9,9.4,1.1-.4,1.6-1.9,2.8-2.2,4.7-1.4,17.2,3.7,21.9,5.7-.8-.8-.4-1.1.6-.6" fill="#752092"/>
      <path id="Trazado_896324" d="M466.3,162.3l.6-.6c-1-.5-1.4-.2-.6.6" fill="#752092"/>
      <path id="Trazado_896325" d="M436.2,151.9c-4.8,2.8-8.1,8.3-13.9,9.9q1.95-.45,1.2.6c5.5-1.3,8.4-5.4,12.7-8.1,3.9-2.5,8.3-4.4,12.5-7.1l-.6-.6c-3.9,2.1-8.3,3.3-11.9,5.4" fill="#752092"/>
      <path id="Trazado_896326" d="M422.3,161.7c.5,0,1,0,1.2.6q.75-1.05-1.2-.6" fill="#752092"/>
      <path id="Trazado_896327" d="M37,127.7c-.9-1.1-1.3.8-1.5,1.2A217.957,217.957,0,0,0,14.1,177l12.2-29.1c.3-2.8,11.4-19.2,10.7-20.1" fill="#752092"/>
      <path id="Trazado_896328" d="M56.4,172.6l6.4-3.3c-5.1-.3-8.4,3.8-12.9,5.3.8,2.4,1.6-.6,2.9.3-1.7,2.2-5.1,3.6-4.7,6.7,3.5.7,5.5-1.3,8.2-2.3l.6,1.2.2-2.2,7.5-4.8c-5.9.6-8.9,7-15.2,7.6-1.2-1.3,6-7.2,7.1-8.4" fill="#752092"/>
      <path id="Trazado_896329" d="M215.4,196.9c1.1-2.4,2.4-5.4-1.8-3.1a8.369,8.369,0,0,1-3.6-2.2c0,2.3,2.6,2.1,3.6,3.2.2.2,1.6,3.5,1.7,3.8a2.459,2.459,0,0,1,.1-1.7" fill="#752092"/>
      <path id="Trazado_896330" d="M216.5,199.2c.9-1.3.8-5.4,2.4-7-2.7.7-5.5-2.1-5.6,1.2-1-1.6-1.8-1.4-3.2-1.8a7.513,7.513,0,0,0,3.6,2.2c4.1-2.3,2.9.6,1.8,3.1a2.03,2.03,0,0,0-.1,1.7c.6-3.2.5,1.6,1.2.6" fill="#752092"/>
      <path id="Trazado_896331" d="M242.3,303.6c2.1,5.5,7.1,11.7,12.6,14.1.5.2,2.7,1.2,2.7,0-6.6-2.6-10.7-9.1-15.2-14.1" fill="#752092"/>
      <path id="Trazado_896332" d="M301.5,199.2a46.315,46.315,0,0,1,2.9-6.4,13.172,13.172,0,0,0-4.4.8l1.5,5.7" fill="#752092"/>
      <path id="Trazado_896333" d="M299.6,193.6l-1.1-.9,1.8,6.4h1.2l-1.5-5.7h-.3" fill="#752092"/>
      <path id="Trazado_896334" d="M298.6,192.8l1.3.2a1.421,1.421,0,0,0,.2.6,13.172,13.172,0,0,1,4.4-.8c-.7-2.1-4.1-.6-5.9,0" fill="#752092"/>
      <path id="Trazado_896335" d="M300,193.5a1.421,1.421,0,0,0-.2-.6l-1.3-.2,1.1.9h.3" fill="#752092"/>
      <path id="Trazado_896336" d="M273.9,304.8l-7.6,8.5-7,5c6.4-.9,12.5-7.6,14.6-13.5" fill="#752092"/>
      <path id="Trazado_896337" d="M271.3,171.1c4-.2,8.3,0,12.3,0a39.832,39.832,0,0,0,5.9-1.7c.3-.1,2-.6,1.2-1.2-7.1,2.6-14.8.9-22,2.9.1,1.5,2.2,0,2.6,0" fill="#752092"/>
      <path id="Trazado_896338" d="M234.9,171.1c3.7.4,8.5,0,12.3,0s2,1.4,2,0c-7.2-2-14.8-.4-22-2.9-.7.7,2.6,1.7,2.9,1.8a26.642,26.642,0,0,0,4.7,1.1" fill="#752092"/>
      <path id="Trazado_896339" d="M218.4,379.1c.5.5.4,1.4.6,2.1,2.2,8.7,1.6,8.8.5,17.4q1.05-.6.6,1.8l1.8-10.8c-.4-3.7-2.3-7.9-3-11.5.1.8,0,1.1-.4,1" fill="#752092"/>
      <path id="Trazado_896340" d="M218.4,379.1c.4.1.6-.2.4-1a1.426,1.426,0,0,0-1.2.6,1.012,1.012,0,0,1,.7.4" fill="#752092"/>
      <path id="Trazado_896341" d="M219.4,398.6c.8.3.6,1.1.6,1.8.3-1.6,0-2.2-.6-1.8" fill="#752092"/>
      <path id="Trazado_896342" d="M244.6,450.2c.8-4.7,2.3-9.2,2.3-14.1l-.6.6q-.15-5.25-.6-10.5a92.874,92.874,0,0,1-1.8,23.5q.6-.75.6.6" fill="#752092"/>
      <path id="Trazado_896343" d="M247,436.1s-.6,0-.6-.9c0-2.9.5-6.5-.6-9.1.3,3.5.5,7.1.6,10.5l.6-.6Z" fill="#752092"/>
      <path id="Trazado_896344" d="M244,449.6l.6.6q0-1.35-.6-.6" fill="#752092"/>
      <path id="Trazado_896345" d="M250.5,144.1c-3.7-3.3-5-8.2-8.2-11.7.8,3.1,0,6.7,1.2,9.4-.5-1.7-.3-2.5.6-2.3,0-1.2-.6-2.5-.3-3.5,2.1,3.3,3.2,6.1,6.2,8.8-.8-.8-.4-1.1.6-.6" fill="#752092"/>
      <path id="Trazado_896346" d="M249.9,144.7l.6-.6c-1-.5-1.4-.2-.6.6" fill="#752092"/>
      <path id="Trazado_896347" d="M243.4,141.8c0-.9-.2-1.7.6-2.3-.9-.1-1.1.7-.6,2.3" fill="#752092"/>
      <path id="Trazado_896348" d="M191.8,353.4c-2.2,6.9-3.6,13.6-7.6,19.4.8-.8,1.1-.4.6.6,4.7-6.9,4.9-11.6,7.6-19.4q-.75,1.05-.6-.6" fill="#752092"/>
      <path id="Trazado_896349" d="M192.4,354l-.6-.6c-.1,1.1,0,1.3.6.6" fill="#752092"/>
      <path id="Trazado_896350" d="M184.2,372.8l.6.6c.5-1,.2-1.4-.6-.6" fill="#752092"/>
      <path id="Trazado_896351" d="M293.9,494.8c0,4.9,1.2,9.4,4.7,12.9-1.7-3.6-2.3-7.8-3.4-11.5-.3-1,.5-1.7-1.2-1.4" fill="#752092"/>
      <path id="Trazado_896352" d="M297.4,381.6c-.4,2.2-2.2,5.6-2.3,8,0,2.5,1.2,7,1.7,9.6-.3-1.5-.2-2.1.6-1.8-1-7.5-1.5-8.3.6-15.8q-.3.75-.6,0" fill="#752092"/>
      <path id="Trazado_896353" d="M298,381.6h-.6q.3.75.6,0" fill="#752092"/>
      <path id="Trazado_896354" d="M296.8,399.2c0-.6-.2-1.5.6-1.8q-1.05-.45-.6,1.8" fill="#752092"/>
      <path id="Trazado_896355" d="M459.8,172c1.2.8,2.1,2.3,3.3,3.2,1.8.3,0-1.1.3-1.2.6-.3,1.6.8,2.4.6-2.9-2.8-7-5.2-11.1-5.3,1.1,1.5,3.6,1.6,5.2,2.7" fill="#752092"/>
      <path id="Trazado_896356" d="M324.4,355.8c2.2,5.1,2.3,10.7,5.3,15.2-.4-.9-.3-1.1.6-.6-2.1-3.7-3.9-10.8-5.3-15.2,0,.6,0,.8-.6.6" fill="#752092"/>
      <path id="Trazado_896357" d="M324.9,355.2l-.6.6c.6.2.7,0,.6-.6" fill="#752092"/>
      <path id="Trazado_896358" d="M329.6,371l.6-.6c-.9-.5-1-.4-.6.6" fill="#752092"/>
      <path id="Trazado_896359" d="M377.7,461.9a11.978,11.978,0,0,0,8.2,8.8Z" fill="#752092"/>
      <path id="Trazado_896360" d="M469.1,180.8c0-.6-2.9-5.4-4-4.1l2.9,4.4-7-2.3c.5,2.2,7.9,4.6,8.1,2.1" fill="#752092"/>
      <path id="Trazado_896361" d="M454.5,179.3c1.8,5.5,13.3,9.3,6.1.6l1.5,4.7c-.9.9-6.6-4.6-7.6-5.3" fill="#752092"/>
      <path id="Trazado_896362" d="M55.5,184.6c-.7,0-.5-1.9-1.5-1.7v1.5c3.3,2.8,6.8-3.2,8.8-4.7,1.6-1.2,4.2-.8,5.3-2.6-3.8-1-10.9,7.8-12.6,7.6" fill="#752092"/>
      <path id="Trazado_896363" d="M444,174l3.5-10.6c-2.1,1.8-3.3,6-3.8,8.8-.1.6-.8,1.9.3,1.8" fill="#752092"/>
      <path id="Trazado_896364" d="M.1,253.2c-.1,5.1,0,10.2,0,15.2a77.2,77.2,0,0,0,0-15.2" fill="#752092"/>
      <path id="Trazado_896365" d="M.7,256.4c0-1,.4-2.6-.6-3.2a77.2,77.2,0,0,1,0,15.2c1-3.6.6-8.2.6-12" fill="#752092"/>
      <path id="Trazado_896366" d="M80.4,166.4c-.2-.2-3.2-1.4-3.5-2.7l-2.3-4.4a8.776,8.776,0,0,0,5.6,8.2c.5,0,.3-1.1.3-1.2" fill="#752092"/>
      <path id="Trazado_896367" d="M222.9,487.7a64.231,64.231,0,0,1-1.2,8.8c.8-.3,1,.6.8,2.5.5-3.4.8-6.7,1-10.1-.4.2-.5-.2-.6-1.2" fill="#752092"/>
      <path id="Trazado_896368" d="M221.7,496.5c1,.7.5,2.4.6,3.5a2.959,2.959,0,0,1,.2-1c.3-1.9,0-2.8-.8-2.5" fill="#752092"/>
      <path id="Trazado_896369" d="M223.5,488.9l-.6-1.2q0,1.5.6,1.2" fill="#752092"/>
      <path id="Trazado_896370" d="M440.7,162.9c-1,1.5-2.9,2.5-3.8,4.1,3.2,0,5.4-4.2,5.3-7-1,.3-.7,1.8-1.5,2.9" fill="#752092"/>
      <path id="Trazado_896371" d="M51.7,168.7a2.334,2.334,0,0,0,1.2-1.2q-8.1,2.7-1.2,1.2" fill="#752092"/>
      <path id="Trazado_896372" d="M47.3,171.1c1.3-1.3,3-1.7,4.4-2.3q-7.05,1.5,1.2-1.2c-2.2.6-7.3,0-5.6,3.5" fill="#752092"/>
      <path id="Trazado_896373" d="M459.8,178.1a9.862,9.862,0,0,0-7-4.7Z" fill="#752092"/>
      <path id="Trazado_896374" d="M455.1,144.1c-.8-3.3-5.5,1.5-7,2.3q1.35-.75.6.6c1.4-.9,2.9-2.3,4.3-3,1.4-.8.7-.3,1.6.7q-.75-1.5.6-.6" fill="#752092"/>
      <path id="Trazado_896375" d="M455.1,144.1c-.9-.7-1-.4-.6.6,0-.2.4-.4.6-.6" fill="#752092"/>
      <path id="Trazado_896376" d="M448.1,146.5l.6.6c.6-.9.3-1-.6-.6" fill="#752092"/>
      <path id="Trazado_896377" d="M69.9,164l2.9,7.6c-.2-2.5-.9-6.1-2.9-7.6" fill="#752092"/>
      <path id="Trazado_896378" d="M373,456.1c1,1.4,2,3.2,3.5,4.1-.2-1.8-2-3.3-2.9-4.7q.75,1.35-.6.6" fill="#752092"/>
      <path id="Trazado_896379" d="M373.6,455.5l-.6.6c.9.6,1.1.3.6-.6" fill="#752092"/>
      <path id="Trazado_896380" d="M44.1,116c-.9,1.6-1.9,2.7-2.9,4.7,1.2-1.5,2.7-2.9,3.5-4.7q-.3.45-.6,0" fill="#752092"/>
      <path id="Trazado_896381" d="M44.7,116h-.6q.3.45.6,0" fill="#752092"/>
      <path id="Trazado_896382" d="M41.2,120.7c-1,1.3-2.9,2.7-2.9,4.7,1.8-.9,2.2-3.3,2.9-4.7" fill="#752092"/>
      <path id="Trazado_896383" d="M255.8,209.2a14.7,14.7,0,0,0,.6-5.9l-1.2,5.3q.6-.9.6.6" fill="#752092"/>
      <path id="Trazado_896384" d="M255.2,208.6l.6.6q0-1.5-.6-.6" fill="#752092"/>
      <path id="Trazado_896385" d="M141.4,457.2c-.8,1.2-2.4,2.4-2.3,4.1a13.883,13.883,0,0,0,2.9-3.5c-.8.8-1.1.4-.6-.6" fill="#752092"/>
      <path id="Trazado_896386" d="M142,457.8l-.6-.6c-.5,1-.2,1.4.6.6" fill="#752092"/>
      <path id="Trazado_896387" d="M261.6,208l-1.2-4.7c-.4,2.1.2,3.5.6,5.3,0-.5,0-.8.6-.6" fill="#752092"/>
      <path id="Trazado_896388" d="M261,208.6l.6-.6c-.6-.2-.6,0-.6.6" fill="#752092"/>
      <path id="Trazado_896389" d="M64.6,162.9c-1.4.4-1.1,3-1.2,4.1,1.7-.6,1.1-2.7,1.2-4.1" fill="#752092"/>
      <path id="Trazado_896390" d="M452.8,178.1l-4.1-1.8c-.6,1.4,3.9,3.1,4.1,1.8" fill="#752092"/>
      <path id="Trazado_896391" d="M48.2,108.1v2a18.065,18.065,0,0,1,1.8-2.3,1.529,1.529,0,0,0-1.8.3" fill="#752092"/>
      <path id="Trazado_896392" d="M48.2,110.1v-2a1.3,1.3,0,0,0-.1,1.9l.1.1" fill="#752092"/>
      <path id="Trazado_896393" d="M64,97.9c.4-.1.7-.2,1.1-.3l-1.1.2h0" fill="#752092"/>
      <path id="Trazado_896394" d="M64.8,99.8a6.549,6.549,0,0,0,1.8,1.5c.6-.1,1.2-.2,1.9-.3a7.068,7.068,0,0,1-3.7-1.2" fill="#752092"/>
      <path id="Trazado_896395" d="M76.1,95.7v-.3h-.6l-4.3.9a38.593,38.593,0,0,1,4.9-.6" fill="#752092"/>
      <path id="Trazado_896396" d="M72,100.9a11.7,11.7,0,0,1,3.2.4,5.818,5.818,0,0,0-3.2-.4" fill="#752092"/>
      <path id="Trazado_896397" d="M68.7,92.5q.75.3,0,.6a16.455,16.455,0,0,1,3.1.4c-1-.3-2-.7-3.1-1" fill="#752092"/>
      <path id="Trazado_896398" d="M76.2,95.3H76l.2.1h0Z" fill="#752092"/>
      <path id="Trazado_896399" d="M68.7,92.5v.6q.75-.3,0-.6" fill="#752092"/>
      <path id="Trazado_896400" d="M76.2,95.3v-.4c-1.4-.4-2.9-.9-4.4-1.3a15.458,15.458,0,0,0-3.1-.4l7.2,2.2h.2" fill="#752092"/>
      <path id="Trazado_896401" d="M68.5,101c1.2-.1,2.3-.1,3.5-.1a5.818,5.818,0,0,1,3.2.4l-8.6,3.1-.5,1.6c2.3,2.7,6.2,1.8,9.1.9L67,106c-1-1.3,9.4-4.1,10.4-4.5l6.6-.7c-1.9.1-3.6-.6-5.5-.6-4.8,0-10.9,2.4-14.3-1.7a2.851,2.851,0,0,0,.8,1.4,6.284,6.284,0,0,0,3.7,1.2" fill="#752092"/>
      <path id="Trazado_896402" d="M76.7,95.2h-.5v.2h0v.3a38.594,38.594,0,0,0-4.9.6c-2,.4-4.1.9-6.2,1.3a4.508,4.508,0,0,0-1.1.3v.5a90.008,90.008,0,0,1,11.5-2.3c1.7-.2,4.3-.6,5.8-.7,1.3,0,2.3.5,3.5.6.6,0,2.2.4,2-.6-6-1.8-12.2-1.3-18.2-2.9a28.115,28.115,0,0,0,3.1,1c2.3.5,5,1.2,4.9,1.6" fill="#752092"/>
      <path id="Trazado_896403" d="M63.5,98a4.628,4.628,0,0,0,1.3,1.8,3.924,3.924,0,0,1-.8-1.4h0v-.5a.9.9,0,0,0-.5.1" fill="#752092"/>
      <path id="Trazado_896404" d="M70.2,101.1H68.5a6.279,6.279,0,0,0-1.9.3h8.5a16.476,16.476,0,0,0-3.2-.4,12.134,12.134,0,0,0-1.8.1" fill="#752092"/>
      <path id="Trazado_896405" d="M63.5,98a.9.9,0,0,0,.5-.1h0c.4,0,.7-.2,1.1-.2a61.892,61.892,0,0,1,6.2-1.3c1.4-.3,2.9-.6,4.3-.9-3.2,0-12,1.6-12.6,2.4-.8,1,3.3,3.5,3.8,3.5A6.549,6.549,0,0,1,65,99.9a4.628,4.628,0,0,1-1.3-1.8" fill="#752092"/>
      <path id="Trazado_896406" d="M71.8,93.5c1.5.5,3,.9,4.5,1.3v.4l.4-.1c0-.5-2.6-1.2-4.9-1.6" fill="#752092"/>
      <path id="Trazado_896407" d="M71.2,96.3c-2.1.3-4.1.8-6.2,1.3,2.1-.4,4.1-.9,6.2-1.3" fill="#752092"/>
      <path id="Trazado_896408" d="M72,100.9c-1.2,0-2.3,0-3.5.1h1.7c.7,0,1.3-.1,1.8-.1" fill="#752092"/>
      <path id="Trazado_896409" d="M449.6,106.5a15.434,15.434,0,0,1-5.2.6c2.1.2,4.2.2,5.2-.6" fill="#752092"/>
      <path id="Trazado_896410" d="M439.7,106.2a1.891,1.891,0,0,1-1-.8c0,.3-.3.5-.6.6l.5-.2a4.875,4.875,0,0,0,1.1.4" fill="#752092"/>
      <path id="Trazado_896411" d="M450.1,104.7h0" fill="#752092"/>
      <path id="Trazado_896412" d="M448,100.9a9.459,9.459,0,0,0,4-1,18.031,18.031,0,0,1-4,1" fill="#752092"/>
      <path id="Trazado_896413" d="M442.9,96l-1-.2c-.6,0-.8-.3-.8-.9a3.63,3.63,0,0,1-1.7.7,25.038,25.038,0,0,1,3.5.4" fill="#752092"/>
      <path id="Trazado_896414" d="M442.2,101.7l3.6,1.3c-1-.5-2-1-2.9-1.5l-.6-.2h.1a.494.494,0,0,1-.3-.1q-.6.45,0,.6" fill="#752092"/>
      <path id="Trazado_896415" d="M442.6,100.9c-.1,0-.2,0-.2.1h1.2a1.486,1.486,0,0,1-.9-.2" fill="#752092"/>
      <path id="Trazado_896416" d="M451.7,97.6a3.178,3.178,0,0,1,.9.3v-.1h-.8Z" fill="#752092"/>
      <path id="Trazado_896417" d="M439.3,95.6a2.837,2.837,0,0,0,1.7-.7c-1.4.2-2.7.4-4.1.6a19.269,19.269,0,0,1,2.4.1" fill="#752092"/>
      <path id="Trazado_896418" d="M453.3,98.2c0-.1-.3-.3-.8-.4a1.39,1.39,0,0,1-.1,1.9c-.1.1-.3.2-.4.3,1-.4,1.6-1,1.3-1.8" fill="#752092"/>
      <path id="Trazado_896419" d="M433.4,100.7l6,.7c1.2.2,10,3,10.4,3.4,1.1,1.2-2,1.7-2.6,1.8-4.1.4-5.2-.5-8.5-1.2a2,2,0,0,0,1,.8,35.5,35.5,0,0,0,4.7.9,11.48,11.48,0,0,0,5.2-.6,1.425,1.425,0,0,0,.5-1.7h0a39.785,39.785,0,0,1-4.4-1.7l-3.6-1.3q-.75-.15,0-.6c-.1,0-.2-.1-.3-.2h.6a.31.31,0,0,0,.2-.1,2.92,2.92,0,0,1,.9.2c1.5,0,3,0,4.5-.1a13.821,13.821,0,0,0,4-1,1.262,1.262,0,0,0,.8-1.7c0-.2-.1-.3-.3-.4a9.2,9.2,0,0,1-.9-.3L442.8,96c-1.3-.2-2.5-.3-3.5-.4a19.269,19.269,0,0,1-2.4-.1l15.8,2.9c-4.9,5.2-13.1,0-19.3,2.3" fill="#752092"/>
      <path id="Trazado_896420" d="M450.1,104.8a1.574,1.574,0,0,1-.5,1.7c.8-.4,1.1-.9.5-1.7" fill="#752092"/>
      <path id="Trazado_896421" d="M451.7,97.6c-2-.5-5.6-1.1-8.8-1.6Z" fill="#752092"/>
      <path id="Trazado_896422" d="M441.8,101c.1,0,.2.1.3.2a.494.494,0,0,0,.3-.1h-.6" fill="#752092"/>
      <path id="Trazado_896423" d="M439.7,106.2a12.667,12.667,0,0,0,4.7.9,35.5,35.5,0,0,1-4.7-.9" fill="#752092"/>
      <path id="Trazado_896424" d="M448,100.9a33.813,33.813,0,0,1-4.5.1c1.5,0,3,0,4.5-.1" fill="#752092"/>
      <path id="Trazado_896425" d="M441.8,95.8l1,.2a85.242,85.242,0,0,1,8.8,1.6h.8v.2a5.56,5.56,0,0,1,.8.4c.2.7-.3,1.3-1.3,1.8a11.221,11.221,0,0,1-4,1,22.573,22.573,0,0,1-4.5.1h-1.2a.494.494,0,0,0-.3.1.494.494,0,0,1,.3.1c2.5-.1,5.2.3,7.6-.1,1.4-.2,5.7-1.8,3.4-3.7-2.1-1.7-9.6-1.1-12.3-2.6,0,.6.2,1,.8.9" fill="#752092"/>
      <path id="Trazado_896426" d="M450,104.6h0c.6.8.3,1.3-.5,1.7-1,.7-3.1.8-5.2.6a12.667,12.667,0,0,1-4.7-.9,4.874,4.874,0,0,1-1.1-.4l-.5.2c1.8,1.6,12.1,2.7,12.9.3a1.428,1.428,0,0,0-.6-1.7l-7.6-3a26.389,26.389,0,0,0,2.9,1.5l4.3,1.6Z" fill="#752092"/>
      <path id="Trazado_896427" d="M445.7,103.1c1.4.6,2.9,1.2,4.4,1.7h0l-4.3-1.6Z" fill="#752092"/>
      <path id="Trazado_896428" d="M439.3,95.6c-.8,0-1.6-.1-2.4-.1a6.473,6.473,0,0,0,2.4.1" fill="#752092"/>
      <path id="Trazado_896429" d="M60.5,94.3v-.6c-3.4,4.7-7,9.4-10.6,14.1,3.4-4.6,6.9-9.1,10.6-13.5" fill="#752092"/>
      <path id="Trazado_896430" d="M60.5,93.7v0" fill="#752092"/>
      <path id="Trazado_896431" d="M59.9,95.7a3.387,3.387,0,0,0,.6-1.5c-3.7,4.3-7.2,8.8-10.6,13.5,2.9-4.1,7.3-7.8,10-12" fill="#752092"/>
      <path id="Trazado_896432" d="M60.5,93.7c-3.8,4.4-7.9,8.9-10.6,14.1,3.6-4.7,7.1-9.4,10.6-14.1" fill="#752092"/>
      <path id="Trazado_896433" d="M97.4,80.2c1.8,2.9,3.7,5.7,5.7,8.3Z" fill="#752092"/>
      <path id="Trazado_896434" d="M238.3,91.6H108.4c0,.2-.1.3-.2.5a.31.31,0,0,1,.1-.2c42.8.4,85.6-.5,128.4,0,1,0,2.6-.4,3.2.6a.908.908,0,0,1-.3-.7,2.954,2.954,0,0,1-1.3-.2" fill="#752092"/>
      <path id="Trazado_896435" d="M165.2,133.5c-10.9-5.1-19.6-13-31.1-18.2-5.8-2.6-18-5.6-21-10.6-2-3.3-2.8-8-5.2-11.3,26.5-.8,53,0,79.5-.2a4.657,4.657,0,0,0,2-.6c-26.6-.6-53.4.8-80,0-.5,0-1.7.2-1.4-.3-.7.7-1.7.1-2.6-.7a20,20,0,0,0,1.9,2.2l5.4,11.4a46.621,46.621,0,0,0,18.2,10.1c11.3,5.6,21.5,11.8,32.4,18.5,10.6,4.1,21.1,8.4,31.4,12.8l.6-.6c-9.8-4.6-20.4-7.9-30.1-12.4" fill="#752092"/>
      <path id="Trazado_896436" d="M130.9,115.2a49.463,49.463,0,0,1-18.2-10.1l-5.4-11.4c-.7-.7-1.3-1.5-1.9-2.2a17.383,17.383,0,0,1-1.3-1.5l-1-1.4c-2-2.7-3.9-5.5-5.7-8.3,3.2,6.3,6.1,9.7,9.6,15.3,1.9,3,3,6.7,5,9.6,4,5.8,22.5,12.5,29.7,16.6,7.3,4.1,13.4,9.4,21.1,12.9,10.3,4.8,21.5,7.4,31.9,11.8-10.4-4.4-20.8-8.7-31.4-12.8-10.9-6.7-21.1-12.8-32.4-18.5" fill="#752092"/>
      <path id="Trazado_896437" d="M239.6,91.8a.908.908,0,0,0,.3.7c.7-.3.5-1,.6-1.2-.1.3-.4.5-.9.5" fill="#752092"/>
      <path id="Trazado_896438" d="M97.4,80.2l5.7,8.3c.7,1,1.5,1.9,2.3,2.9.9.9,1.9,1.5,2.6.7h0a.758.758,0,0,0,.2-.4H238.1c.4,0,.8.2,1.3.2,0-.3.3-.5.9-.5H107.7c-4-.5-7.3-8.6-10.2-11.1" fill="#752092"/>
      <path id="Trazado_896439" d="M105.4,91.4c-.8-.9-1.5-1.9-2.3-2.9l1,1.4a17.383,17.383,0,0,0,1.3,1.5" fill="#752092"/>
      <path id="Trazado_896440" d="M239.6,91.8c.5,0,.8-.2.9-.5-.6,0-.9.2-.9.5" fill="#752092"/>
      <path id="Trazado_896441" d="M80.1,89.1a70.442,70.442,0,0,1,11.1,1.5,51.178,51.178,0,0,0-11.1-1.5" fill="#752092"/>
      <path id="Trazado_896442" d="M94.6,86.6a11.1,11.1,0,0,1,.5-8.2,10.18,10.18,0,0,0-.5,8.2" fill="#752092"/>
      <path id="Trazado_896443" d="M96.9,91.1a.829.829,0,0,1-.3.8c.3,0,.7.2,1,.2a6.07,6.07,0,0,1-.7-1" fill="#752092"/>
      <path id="Trazado_896444" d="M94.6,86.6a2.117,2.117,0,0,0,.3.7.367.367,0,0,0,.1.3,14.36,14.36,0,0,0,1.9,3.1V91c.2.3.5.7.7,1-.3,0-.7-.2-1-.2a1.412,1.412,0,0,1-.9.1c-1.5-.5-3.1-1-4.6-1.4A67.414,67.414,0,0,0,80,89a63.809,63.809,0,0,0-13.1,1.1c4.5.2,8.7-.9,13.2-.6,3.3.2,17.4,2.6,19,5.1.6.9.2,2.5,1.2,2.6,0-7-8.6-11-5.3-18.8a11.066,11.066,0,0,0-.5,8.2" fill="#752092"/>
      <path id="Trazado_896445" d="M96.3,91.3c-4.2-.7-8.3-2.6-12.6-2.9-3.3-.2-14.1.4-16.7,1.8a44.428,44.428,0,0,1,13.1-1.1,52.9,52.9,0,0,1,11.1,1.5c1.8.4,3.6.8,5.5,1.2A.67.67,0,0,0,97,91a16.333,16.333,0,0,1-1.9-3.4.367.367,0,0,0-.1-.3c-.1-.2-.2-.5-.3-.7a10.2,10.2,0,0,1,.5-8.2c-3.9,2.3-1.1,9.9,1.2,12.9" fill="#752092"/>
      <path id="Trazado_896446" d="M95,87.7a14.135,14.135,0,0,0,1.9,3.4v-.3A19.822,19.822,0,0,1,95,87.7" fill="#752092"/>
      <path id="Trazado_896447" d="M80.1,89.1A41.309,41.309,0,0,0,67,90.2a63.808,63.808,0,0,1,13.1-1.1" fill="#752092"/>
      <path id="Trazado_896448" d="M96.6,91.9c-1.8-.4-3.6-.9-5.5-1.2a40.312,40.312,0,0,1,4.6,1.4,2.769,2.769,0,0,0,.9-.1" fill="#752092"/>
      <path id="Trazado_896449" d="M194.8,146.5a99.116,99.116,0,0,1,26.4,14.7c-.8-1-.5-1.2.6-.6a211.973,211.973,0,0,0-26.4-14.7c.8.8.5.8-.6.6" fill="#752092"/>
      <path id="Trazado_896450" d="M221.2,161.1a101.968,101.968,0,0,0-26.4-14.7,148.191,148.191,0,0,1,26.4,14.7" fill="#752092"/>
      <path id="Trazado_896451" d="M221.2,161.1a.548.548,0,0,1,.4-.6h.2c-1.1-.6-1.4-.4-.6.6" fill="#752092"/>
      <path id="Trazado_896452" d="M195.4,145.9l-.6.6c1.1.2,1.4.2.6-.6" fill="#752092"/>
      <path id="Trazado_896453" d="M86.3,110.7c.1-1-1.3-.5-2-.6a36.855,36.855,0,0,0-4.7,0c-2,.2-7.6,2.9-8.8,1.2-.5-.7,1.2-1.4.9-1.8-.9-.9-3.4,2.4-.3,2.9,4.9.9,9.6-3.1,14.9-1.8" fill="#752092"/>
      <path id="Trazado_896454" d="M93.3,97.8l-1.6,10.4.4,1.9a42.508,42.508,0,0,0,1.2-12.3" fill="#752092"/>
      <path id="Trazado_896455" d="M101.5,107.2,99.6,103l-1-4.6c0,2.9-.7,7.8,2.9,8.8" fill="#752092"/>
      <path id="Trazado_896456" d="M75.7,107.2l8.2-1.7c-3-.2-6-1-8.2,1.7" fill="#752092"/>
      <path id="Trazado_896457" d="M92.8,111.3q-5.4-.6,0,.6-.75-.3,0-.6" fill="#752092"/>
      <path id="Trazado_896458" d="M92.8,111.3c-1.9-.5-3.8-1.1-5.9-.3,0,.7,5.2.7,5.9.9q-5.4-1.05,0-.6" fill="#752092"/>
      <path id="Trazado_896459" d="M92.8,111.9v-.6q-.75.3,0,.6" fill="#752092"/>
      <path id="Trazado_896460" d="M89.2,96c-.9-.8-3.3,2.5-2.9,3.5Z" fill="#752092"/>
      <path id="Trazado_896461" d="M298.6,158.2c1-.4,1.1-.3.6.6a48.894,48.894,0,0,1,6-4.1c-2.2,1.2-4.4,2.4-6.6,3.5" fill="#752092"/>
      <path id="Trazado_896462" d="M312.6,150.6a71.7,71.7,0,0,1,7.1-3l-.6-.6c-2.1,1.2-4.3,2.4-6.5,3.6" fill="#752092"/>
      <path id="Trazado_896463" d="M298.6,158.2l.6.6c.5-.9.4-1-.6-.6" fill="#752092"/>
      <path id="Trazado_896464" d="M312.6,150.6c-2.5,1.4-4.9,2.7-7.4,4a63.378,63.378,0,0,0-6,4.1,135.347,135.347,0,0,1,20.5-11.1,71.7,71.7,0,0,0-7.1,3" fill="#752092"/>
      <path id="Trazado_896465" d="M312.6,150.6c2.2-1.2,4.4-2.4,6.5-3.6-7,3.4-13.9,7.1-20.5,11.1,2.2-1.2,4.4-2.3,6.6-3.5a75.784,75.784,0,0,1,7.4-4" fill="#752092"/>
      <path id="Trazado_896466" d="M312.6,150.6a75.784,75.784,0,0,0-7.4,4c2.5-1.3,4.9-2.7,7.4-4" fill="#752092"/>
      <path id="Trazado_896467" d="M277.5,119.5q.3-.75.6,0c0-1.3-.2-2.7-.3-4a17.984,17.984,0,0,1-.3,4" fill="#752092"/>
      <path id="Trazado_896468" d="M276.2,104.8c-.7-1.9-1.6-2.9-3.1-2.8,1.4,0,2.4,1.1,3.1,2.8" fill="#752092"/>
      <path id="Trazado_896469" d="M272.2,102.2a14.444,14.444,0,0,0-4.1,2.1l.6.6a8.8,8.8,0,0,1,3.6-2.7" fill="#752092"/>
      <path id="Trazado_896470" d="M277.5,119.5h.6q-.3-.75-.6,0" fill="#752092"/>
      <path id="Trazado_896471" d="M273.1,101.3c-1.8,0-3.7,2-5,2.9a17.684,17.684,0,0,1,4.1-2.1c.3,0,.6-.1.9-.1,1.5,0,2.4.9,3.1,2.8,1.2,2.8,1.5,7.2,1.5,10.7,0,1.3.2,2.7.3,4,0-3.5.3-18.5-4.9-18.2" fill="#752092"/>
      <path id="Trazado_896472" d="M277.1,108.5a24.908,24.908,0,0,0-.9-3.7c-.7-1.7-1.7-2.8-3.1-2.8a2.769,2.769,0,0,0-.9.1,9.51,9.51,0,0,0-3.6,2.7c1.6-1.1,3.4-2.9,5.5-2.3,3.2,1,3.5,13.8,3.3,16.9a26.928,26.928,0,0,0,.3-4c-.2-2.3-.3-4.6-.6-7" fill="#752092"/>
      <path id="Trazado_896473" d="M277.7,115.5c0-3.5-.3-7.9-1.5-10.7a22.212,22.212,0,0,1,.9,3.7c.2,2.4.4,4.7.6,7" fill="#752092"/>
      <path id="Trazado_896474" d="M424,111.3c.6,0,.8,0,.6.6q3.75-1.05-.6-.6" fill="#752092"/>
      <path id="Trazado_896475" d="M424,111.3l.6.6c.2-.6,0-.7-.6-.6" fill="#752092"/>
      <path id="Trazado_896476" d="M429.9,110.7a14.7,14.7,0,0,0-5.9.6c2.9-.3,3.1,0,.6.6,1.2-.3,4.4.2,5.3-1.2" fill="#752092"/>
      <path id="Trazado_896477" d="M186.8,92.1c-.1,0,1.1.2,2.7.4,16.4-.4,32.8-.4,49.3,0h0c-16.4-.4-34.8-.4-52-.4" fill="#752092"/>
      <path id="Trazado_896478" d="M238.8,92.5h0" fill="#752092"/>
      <path id="Trazado_896479" d="M236.7,91.9c-42.8-.5-85.6.4-128.4,0l-.1.2h0c-.3.5,1,.3,1.4.3,26.6.8,53.4-.6,80,0-1.6-.2-2.9-.4-2.7-.4,17.2,0,35.6,0,52,.3,0-.4.5-.4,1.2,0-.6-1-2.2-.6-3.2-.6" fill="#752092"/>
      <path id="Trazado_896480" d="M238.8,92.5H240q-1.05-.6-1.2,0" fill="#752092"/>
      <path id="Trazado_896481" d="M189.5,92.5c15.9-.2,33.7,1.1,49.3,0-16.4-.4-32.9-.4-49.3,0" fill="#752092"/>
      <path id="Trazado_896482" d="M267.5,87.2l1.2-.6a37.126,37.126,0,0,0-5.8-1.1,14.993,14.993,0,0,1,4.6,1.7" fill="#752092"/>
      <path id="Trazado_896483" d="M248.1,86.6q1.5-.3,1.2.6a14.992,14.992,0,0,1,4.6-1.7,37.127,37.127,0,0,0-5.8,1.1" fill="#752092"/>
      <path id="Trazado_896484" d="M248.1,86.6l1.2.6q.3-.9-1.2-.6" fill="#752092"/>
      <path id="Trazado_896485" d="M262.9,85.5a37.126,37.126,0,0,1,5.8,1.1,27.914,27.914,0,0,0-20.5,0,37.126,37.126,0,0,1,5.8-1.1,22.228,22.228,0,0,1,8.9,0" fill="#752092"/>
      <path id="Trazado_896486" d="M267.5,87.2a14.992,14.992,0,0,0-4.6-1.7,33.152,33.152,0,0,0-8.9,0,14.993,14.993,0,0,0-4.6,1.7,23.9,23.9,0,0,1,18.2,0" fill="#752092"/>
      <path id="Trazado_896487" d="M253.9,85.5a33.152,33.152,0,0,1,8.9,0,22.228,22.228,0,0,0-8.9,0" fill="#752092"/>
      <path id="Trazado_896488" d="M319.1,147c.8-.2,1-.2.6.6,3.7-1.6,7.4-3.1,11.1-4.6-3.9,1.4-7.7,2.8-11.7,4" fill="#752092"/>
      <path id="Trazado_896489" d="M409.3,94.5c2.1-2.6,2.1-3.3-.1-2h0a28.412,28.412,0,0,1-3.9,10.5,51.819,51.819,0,0,0,4-8.6" fill="#752092"/>
      <path id="Trazado_896490" d="M267.5,87.2a12.338,12.338,0,0,1,3.7,1.2c-.9-.6-1.7-1.2-2.5-1.8q.9.9-1.2.6" fill="#752092"/>
      <path id="Trazado_896491" d="M314.6,92c14.3,0,28.6.1,43,.3l7.2.8h17c3.7-.4,7.4-.7,11.2-.8q-39.6-.6-78.3-.3" fill="#752092"/>
      <path id="Trazado_896492" d="M278.3,94.3l-.5-1.9c-.8-.4-1.6-.9-2.5-1.3a13.233,13.233,0,0,1,2.9,3.3" fill="#752092"/>
      <path id="Trazado_896493" d="M354.8,133.2l5.7-3.2c-4.2,2.1-8.5,4.1-12.8,6.1,2.4-1,4.7-1.9,7.1-2.9" fill="#752092"/>
      <path id="Trazado_896494" d="M361.1,129.7a87.232,87.232,0,0,1,7.3-5.1c-2.5,1.6-5,3.3-7.5,5.2h.2Z" fill="#752092"/>
      <path id="Trazado_896495" d="M395.1,111.3a.52.52,0,0,0,.4-.2c-4.7,1.9-9.3,3.9-13.7,6,4.3-2.1,8.8-4,13.3-5.8" fill="#752092"/>
      <path id="Trazado_896496" d="M275.3,91.1a19.648,19.648,0,0,0,2.5,1.3V92h36.8c25.8-.2,51.9,0,78.3.3a145.948,145.948,0,0,1,16.2.2h0c2.2-1.3,2.2-.7.1,2a55.868,55.868,0,0,1-4,8.6,23.093,23.093,0,0,1-3.1,3.9s0,.2-.1.2h-.2a16.053,16.053,0,0,1-6,3.6.367.367,0,0,0-.3.1.758.758,0,0,0-.4.2c-4.5,1.8-9,3.7-13.3,5.8a117.425,117.425,0,0,0-13.4,7.5c-2.5,1.6-4.9,3.3-7.3,5.1h-.2c0,.1,0,.2-.1.2a.494.494,0,0,0-.3.1l-5.7,3.2c-2.4.9-4.7,1.9-7.1,2.9-5.6,2.5-11.2,4.8-17,6.9-3.7,1.5-7.4,3.1-11.1,4.6,11.7-5.2,25.4-8.3,36.8-14,6.9-3.5,13-8.7,19.7-12.5,8.3-4.7,24.6-9.5,29.4-17,1.7-2.6,2.7-5.9,4.3-8.6,1.8-2.9,4.3-5.5,6.2-8.4.9-1.4,4.1-8.5,4.5-8.7.7-.5,1.6.7,1.9,1.3,2.6,5.5-5.8,11.6-6,16.8,1.7.2,1.1-1.5,2.3-2.7,1.9-1.9,14.2-4.1,17.3-4.4,4.1-.3,7.8.4,11.7.6.6,0,2.2.4,2.1-.6-10.3-1.6-19.4-1.7-29.3,1.7,2.9-1.9,5.2-13.5.9-13.5-1.3,0-5.5,7.6-7,9.4-1.3,1.5-3.4,3.9-5.3,4.1-40.1.1-80.2-.3-120.3,0-2.1,0-5.3.8-7.6.6-5.6-.4-7.6-3.4-12.6-5.3.8.6,1.6,1.2,2.5,1.8a18.773,18.773,0,0,1,4.2,2.7" fill="#752092"/>
      <path id="Trazado_896497" d="M347.7,136.1c4.3-1.9,8.6-3.9,12.8-6.1l.4-.2a77.08,77.08,0,0,1,7.5-5.2,117.425,117.425,0,0,1,13.4-7.5c4.5-2.2,9-4.1,13.7-6a34.787,34.787,0,0,0,5.6-3.4c-8.6,4.3-17.9,6.9-26.4,11.6-5.7,3.2-10.7,7.5-16.2,10.7-11.9,6.9-26.8,11.1-39.5,17.1,3.9-1.3,7.8-2.6,11.7-4,5.6-2.3,11.3-4.7,17-6.9" fill="#752092"/>
      <path id="Trazado_896498" d="M409.2,92.5c-5.4-.1-10.8-.2-16.2-.2-3.7.1-7.4.4-11.1.8h27a83.373,83.373,0,0,1-6.4,13.5,16.381,16.381,0,0,0,2.9-3.5,32.437,32.437,0,0,0,3.9-10.5" fill="#752092"/>
      <path id="Trazado_896499" d="M314.6,92c-12.3,0-24.6.3-36.7.5h0l.5,1.9a18.067,18.067,0,0,0-2.9-3.3,49.419,49.419,0,0,1-4.2-2.7,12.337,12.337,0,0,0-3.7-1.2c15.6,6,16.6,24,15.9,38.4-.4,8.3-3.8,21.1-.5,28.6.6,1.5,3,5.5,4.6,4.8a12.531,12.531,0,0,1-3.6-5.2c-2.7-7.5,1.4-21.6,1.9-30,.6-11-.5-22.6-7.6-31.4,28.9,0,57.8.5,86.8.6l-7.2-.8c-14.3-.2-28.6-.3-43-.3" fill="#752092"/>
      <path id="Trazado_896500" d="M347.7,136.1c-5.7,2.3-11.4,4.6-17,6.9,5.7-2.1,11.4-4.5,17-6.9" fill="#752092"/>
      <path id="Trazado_896501" d="M381.8,117.1a117.425,117.425,0,0,0-13.4,7.5c4.3-2.7,8.8-5.2,13.4-7.5" fill="#752092"/>
      <path id="Trazado_896502" d="M395.9,110.9a17.479,17.479,0,0,0,6-3.6c-.2.1-.5.2-.7.3a36.4,36.4,0,0,1-5.6,3.4.367.367,0,0,0,.3-.1" fill="#752092"/>
      <path id="Trazado_896503" d="M314.6,92H277.7v.4h.2c12.2-.2,24.4-.4,36.7-.5" fill="#752092"/>
      <path id="Trazado_896504" d="M409.2,92.5c-5.4-.3-10.8-.4-16.2-.2,5.4,0,10.8.1,16.2.2h0" fill="#752092"/>
      <path id="Trazado_896505" d="M405.3,103.1a16.381,16.381,0,0,1-2.9,3.5.758.758,0,0,1-.2.4,18.986,18.986,0,0,0,3.1-3.9" fill="#752092"/>
      <path id="Trazado_896506" d="M360.8,129.9h.1l-.4.2a.494.494,0,0,0,.3-.1" fill="#752092"/>
      <path id="Trazado_896507" d="M271.2,88.4q1.95,1.35,4.2,2.7a18.772,18.772,0,0,0-4.2-2.7" fill="#752092"/>
      <path id="Trazado_896508" d="M319.1,147l.6.6c.4-.8.2-.8-.6-.6" fill="#752092"/>
      <path id="Trazado_896509" d="M268.7,86.6l-1.2.6c1.4.3,1.8,0,1.2-.6" fill="#752092"/>
      <path id="Trazado_896510" d="M424.6,97.2c-.8-.2-.9,1.1-1,1.6-.6,3.7.5,7.1,1,10.7,1.7-.5,0-3.2,0-3.8-.2-2.8.1-5.7,0-8.5" fill="#752092"/>
      <path id="Trazado_896511" d="M417.5,102.6l-1.6,4.5c3.1-2,3.3-6.1,2.3-9.4l-.7,4.8Z" fill="#752092"/>
      <path id="Trazado_896512" d="M446.3,112.2c-3,0-5.9-1.6-8.8-2.1v.6c2.3.3,5.6,3.2,8.8,1.5" fill="#752092"/>
      <path id="Trazado_896513" d="M437.5,110.7q-.75-.3,0-.6c-2.3-.3-4.7.2-7,0,1.5,2.5,4.7.2,7,.6" fill="#752092"/>
      <path id="Trazado_896514" d="M437.5,110.7v-.6q-.75.3,0,.6" fill="#752092"/>
      <path id="Trazado_896515" d="M438.1,106s-.1-.2,0-.3a.187.187,0,0,0,0,.3" fill="#752092"/>
      <path id="Trazado_896516" d="M438.1,105.7c0-.1.3-.2.6-.3-1.9-.4-3.4,0-5.3,0,.4,1,3.8.7,4.7.6-.2,0-.2-.2,0-.3" fill="#752092"/>
      <path id="Trazado_896517" d="M438.7,105.4a.713.713,0,0,0-.6.3v.3c.3,0,.5-.3.6-.6" fill="#752092"/>
      <path id="Trazado_896518" d="M438.7,105.4q-.6,0-.6.3l.6-.3" fill="#752092"/>
      <path id="Trazado_896519" d="M252.9,113.7a33.414,33.414,0,0,1-8.8,2.2l1.2.6a70.845,70.845,0,0,0,7.7-2.8" fill="#752092"/>
      <path id="Trazado_896520" d="M268.7,104.8q-1.35.75-.6-.6a47.67,47.67,0,0,1-6.3,4.8c2.3-1.3,4.6-2.8,6.8-4.2" fill="#752092"/>
      <path id="Trazado_896521" d="M261.8,109.1a74.648,74.648,0,0,0,6.3-4.8c-10.4,6.9-11.7,8.1-24,11.7a37.831,37.831,0,0,0,8.8-2.2,68.473,68.473,0,0,0,8.9-4.7" fill="#752092"/>
      <path id="Trazado_896522" d="M252.9,113.7a50.451,50.451,0,0,1-7.7,2.8c13.5-3.5,12.6-4.1,23.5-11.7-2.3,1.5-4.6,2.9-6.8,4.2a50.473,50.473,0,0,1-8.9,4.7" fill="#752092"/>
      <path id="Trazado_896523" d="M252.9,113.7a44.625,44.625,0,0,0,8.9-4.7c-2.9,1.7-5.9,3.3-8.9,4.7" fill="#752092"/>
      <path id="Trazado_896524" d="M268.7,104.8l-.6-.6c-.6.9-.3,1.1.6.6" fill="#752092"/>
      <path id="Trazado_896525" d="M244.3,116.5c-.2,0-.3-.3-.3-.5h0a24.3,24.3,0,0,0-3.7,1.6,18.226,18.226,0,0,1,4-1.1" fill="#752092"/>
      <path id="Trazado_896526" d="M238.9,118.5c0-.2.7-.6,1.4-.9A24.3,24.3,0,0,1,244,116c-1.4.4-5.4,1.2-5.6,2.6-.2,1.3.8,7,1.2,8.5a15.933,15.933,0,0,0,1.5,2.9c-1-2.8-2.9-8.8-2.2-11.5" fill="#752092"/>
      <path id="Trazado_896527" d="M239.3,118.7c0-.4,5-1.9,5.9-2.1h-.9a18.226,18.226,0,0,0-4,1.1c-2,1.3-1.8,2.7-.8,7.3l1.6,5.1c-.7-3.7-2-7.5-1.8-11.3" fill="#752092"/>
      <path id="Trazado_896528" d="M240.3,117.6c-.8.3-1.4.7-1.4.9-.7,2.7,1.2,8.8,2.2,11.5l-1.6-5.1c-1-4.6-1.3-6,.8-7.3" fill="#752092"/>
      <path id="Trazado_896529" d="M244.3,116.5h.9l-1.2-.6c0,.2,0,.4.2.5h0" fill="#752092"/>
      <path id="Trazado_896530" d="M244.3,116.5a2.719,2.719,0,0,0,.9,0h-.9" fill="#752092"/>
    </g>
  </g>
</svg>
