<svg xmlns="http://www.w3.org/2000/svg" xmlns:xlink="http://www.w3.org/1999/xlink" width="344.908" height="156.945" viewBox="0 0 344.908 156.945">
  <defs>
    <clipPath id="clip-path">
      <rect id="Rectángulo_455472" data-name="Rectángulo 455472" width="330.957" height="117"/>
    </clipPath>
  </defs>
  <g id="Grupo_1204660" data-name="Grupo 1204660" transform="translate(-628.881 -1622.055)">
    <g id="Grupo_1204615" data-name="Grupo 1204615" transform="translate(634.287 1662)">
      <g id="Grupo_1204614" data-name="Grupo 1204614" clip-path="url(#clip-path)">
        <path id="Trazado_1269881" data-name="Trazado 1269881" d="M328.957,0V115H310.265a.987.987,0,0,0,.114-.442V85.695a1,1,0,0,0-2,0v28.863a.986.986,0,0,0,.114.442H290.418a.913.913,0,0,0,.038-.187V57.738a1,1,0,0,0-2,0v57.075a.913.913,0,0,0,.038.187h-19.35a.974.974,0,0,0,.115-.442V85.695a1,1,0,0,0-2,0v28.863a.974.974,0,0,0,.114.442H248.555a.984.984,0,0,0,.038-.187V45.7a1,1,0,0,0-2,0v69.113a.913.913,0,0,0,.038.187H228.024a.974.974,0,0,0,.115-.442V85.695a1,1,0,1,0-2,0v28.863a.973.973,0,0,0,.114.442H207.93a.984.984,0,0,0,.038-.187V57.738a1,1,0,1,0-2,0v57.075a.913.913,0,0,0,.038.187H186.9a.974.974,0,0,0,.115-.442V85.695a1,1,0,0,0-2,0v28.863a.974.974,0,0,0,.114.442H166.067a.983.983,0,0,0,.037-.187V30.838a1,1,0,0,0-2,0v83.975a.985.985,0,0,0,.038.187H145.784a.973.973,0,0,0,.114-.442V85.695a1,1,0,0,0-2,0v28.863a.974.974,0,0,0,.115.442H125.442a.983.983,0,0,0,.037-.187V57.738a1,1,0,0,0-2,0v57.075a.985.985,0,0,0,.038.187H104.663a.974.974,0,0,0,.114-.442V85.695a1,1,0,0,0-2,0v28.863a.974.974,0,0,0,.115.442H83.825a.913.913,0,0,0,.038-.187V46.443a1,1,0,0,0-2,0v68.37A.985.985,0,0,0,81.9,115H63.543a.974.974,0,0,0,.114-.442V85.695a1,1,0,0,0-2,0v28.863a.986.986,0,0,0,.114.442H42.953a.913.913,0,0,0,.038-.187V57.738a1,1,0,0,0-2,0v57.075a.985.985,0,0,0,.038.187H22.423a.986.986,0,0,0,.114-.442V85.695a1,1,0,0,0-2,0v28.863a.986.986,0,0,0,.114.442H2V3.153H0V117H330.957V0Z"/>
      </g>
    </g>
    <path id="Trazado_1270227" data-name="Trazado 1270227" d="M2.707,0H-.562V-21.674l-6.557,2.408v-2.953l9.316-3.5h.51Z" transform="translate(636 1653)" fill="#12263f"/>
    <path id="Trazado_1270228" data-name="Trazado 1270228" d="M-8.644,0h-1.907V-12.643l-3.825,1.4v-1.723L-8.941-15h.3Zm6.132,1.282h-1.63L2.092-14.93h1.62Zm16.088-6.3h2.071v1.548H13.576V0H11.669V-3.466h-6.8V-4.583L11.556-14.93h2.02Zm-6.552,0h4.645v-7.321l-.226.41Z" transform="translate(717 1691)" fill="#12263f"/>
    <path id="Trazado_1270229" data-name="Trazado 1270229" d="M-6.586,0H-8.039V-9.633l-2.914,1.07V-9.875l4.141-1.555h.227Zm4.672.977H-3.156l4.75-12.352H2.828ZM11.141-8.406a2.641,2.641,0,0,1-.449,1.516A3.057,3.057,0,0,1,9.477-5.852a3.26,3.26,0,0,1,1.41,1.117,2.811,2.811,0,0,1,.52,1.664,2.972,2.972,0,0,1-1,2.352A3.827,3.827,0,0,1,7.789.156,3.81,3.81,0,0,1,5.16-.723,2.986,2.986,0,0,1,4.172-3.07a2.9,2.9,0,0,1,.5-1.664A3.136,3.136,0,0,1,6.07-5.859,2.981,2.981,0,0,1,4.875-6.9a2.679,2.679,0,0,1-.437-1.508,2.94,2.94,0,0,1,.922-2.281,3.458,3.458,0,0,1,2.43-.844,3.461,3.461,0,0,1,2.426.844A2.934,2.934,0,0,1,11.141-8.406ZM9.961-3.1a2.1,2.1,0,0,0-.605-1.555,2.147,2.147,0,0,0-1.582-.6,2.11,2.11,0,0,0-1.566.594A2.12,2.12,0,0,0,5.617-3.1a2.019,2.019,0,0,0,.574,1.523,2.2,2.2,0,0,0,1.6.555,2.2,2.2,0,0,0,1.594-.559A2.014,2.014,0,0,0,9.961-3.1ZM7.789-10.344a1.865,1.865,0,0,0-1.379.527,1.937,1.937,0,0,0-.527,1.434,1.928,1.928,0,0,0,.52,1.4,1.844,1.844,0,0,0,1.387.535A1.844,1.844,0,0,0,9.176-6.98a1.928,1.928,0,0,0,.52-1.4A1.929,1.929,0,0,0,9.156-9.8,1.839,1.839,0,0,0,7.789-10.344Z" transform="translate(677 1712)" fill="#12263f"/>
    <path id="Trazado_1270230" data-name="Trazado 1270230" d="M-8.309,0H-9.4V-7.225l-2.186.8v-.984l3.105-1.166h.17Zm3.5.732h-.932l3.563-9.264h.926ZM3.375,0H2.285V-7.225L.1-6.422v-.984L3.205-8.572h.17ZM10.8-8.537v.92h-.2a2.854,2.854,0,0,0-2.016.75,3.121,3.121,0,0,0-.867,2.045A2.314,2.314,0,0,1,9.563-5.6a2.212,2.212,0,0,1,1.778.785,3.028,3.028,0,0,1,.665,2.027,3.019,3.019,0,0,1-.718,2.109A2.472,2.472,0,0,1,9.363.117a2.435,2.435,0,0,1-1.986-.94,3.727,3.727,0,0,1-.762-2.423v-.416a5.616,5.616,0,0,1,1-3.6,3.691,3.691,0,0,1,2.991-1.274ZM9.381-4.693a1.729,1.729,0,0,0-1.025.334,1.74,1.74,0,0,0-.65.838v.4a2.8,2.8,0,0,0,.475,1.7,1.422,1.422,0,0,0,1.184.645,1.378,1.378,0,0,0,1.151-.539,2.237,2.237,0,0,0,.419-1.412,2.238,2.238,0,0,0-.425-1.421A1.362,1.362,0,0,0,9.381-4.693Z" transform="translate(655 1736)" fill="#12263f"/>
    <path id="Trazado_1270231" data-name="Trazado 1270231" d="M-10.295-4.793h.814a1.79,1.79,0,0,0,1.207-.4,1.351,1.351,0,0,0,.439-1.061,1.323,1.323,0,0,0-1.494-1.5,1.554,1.554,0,0,0-1.122.4,1.4,1.4,0,0,0-.419,1.063h-1.084a2.176,2.176,0,0,1,.741-1.685,2.7,2.7,0,0,1,1.884-.671,2.668,2.668,0,0,1,1.893.639A2.307,2.307,0,0,1-6.75-6.234a1.873,1.873,0,0,1-.36,1.078,2.176,2.176,0,0,1-.981.779A2.1,2.1,0,0,1-7-3.639a2.05,2.05,0,0,1,.384,1.26,2.327,2.327,0,0,1-.75,1.822A2.809,2.809,0,0,1-9.322.117a2.883,2.883,0,0,1-1.954-.65,2.158,2.158,0,0,1-.753-1.717h1.09A1.394,1.394,0,0,0-10.5-1.172a1.671,1.671,0,0,0,1.178.4,1.64,1.64,0,0,0,1.2-.41,1.581,1.581,0,0,0,.416-1.178A1.434,1.434,0,0,0-8.162-3.5a1.991,1.991,0,0,0-1.318-.41h-.814ZM-4.8.732h-.932l3.563-9.264h.926ZM3.375,0H2.285V-7.225L.1-6.422v-.984L3.205-8.572h.17ZM10.8-8.537v.92h-.2a2.854,2.854,0,0,0-2.016.75,3.121,3.121,0,0,0-.867,2.045A2.314,2.314,0,0,1,9.563-5.6a2.212,2.212,0,0,1,1.778.785,3.028,3.028,0,0,1,.665,2.027,3.019,3.019,0,0,1-.718,2.109A2.472,2.472,0,0,1,9.363.117a2.435,2.435,0,0,1-1.986-.94,3.727,3.727,0,0,1-.762-2.423v-.416a5.616,5.616,0,0,1,1-3.6,3.691,3.691,0,0,1,2.991-1.274ZM9.381-4.693a1.729,1.729,0,0,0-1.025.334,1.74,1.74,0,0,0-.65.838v.4a2.8,2.8,0,0,0,.475,1.7,1.422,1.422,0,0,0,1.184.645,1.378,1.378,0,0,0,1.151-.539,2.237,2.237,0,0,0,.419-1.412,2.238,2.238,0,0,0-.425-1.421A1.362,1.362,0,0,0,9.381-4.693Z" transform="translate(698 1736)" fill="#12263f"/>
    <path id="Trazado_1270232" data-name="Trazado 1270232" d="M-11.373-4.277l.434-4.254h4.371v1H-10.02L-10.277-5.2a2.753,2.753,0,0,1,1.424-.369A2.354,2.354,0,0,1-7-4.8a3.02,3.02,0,0,1,.686,2.083A2.915,2.915,0,0,1-7.028-.642,2.6,2.6,0,0,1-9.018.117,2.7,2.7,0,0,1-10.863-.51a2.5,2.5,0,0,1-.814-1.734h1.025a1.722,1.722,0,0,0,.521,1.1,1.621,1.621,0,0,0,1.113.372,1.463,1.463,0,0,0,1.187-.516A2.156,2.156,0,0,0-7.4-2.707a1.978,1.978,0,0,0-.466-1.374A1.584,1.584,0,0,0-9.105-4.6a1.787,1.787,0,0,0-1.113.311l-.287.234ZM-4.8.732h-.932l3.563-9.264h.926ZM3.375,0H2.285V-7.225L.1-6.422v-.984L3.205-8.572h.17ZM10.8-8.537v.92h-.2a2.854,2.854,0,0,0-2.016.75,3.121,3.121,0,0,0-.867,2.045A2.314,2.314,0,0,1,9.563-5.6a2.212,2.212,0,0,1,1.778.785,3.028,3.028,0,0,1,.665,2.027,3.019,3.019,0,0,1-.718,2.109A2.472,2.472,0,0,1,9.363.117a2.435,2.435,0,0,1-1.986-.94,3.727,3.727,0,0,1-.762-2.423v-.416a5.616,5.616,0,0,1,1-3.6,3.691,3.691,0,0,1,2.991-1.274ZM9.381-4.693a1.729,1.729,0,0,0-1.025.334,1.74,1.74,0,0,0-.65.838v.4a2.8,2.8,0,0,0,.475,1.7,1.422,1.422,0,0,0,1.184.645,1.378,1.378,0,0,0,1.151-.539,2.237,2.237,0,0,0,.419-1.412,2.238,2.238,0,0,0-.425-1.421A1.362,1.362,0,0,0,9.381-4.693Z" transform="translate(739 1736)" fill="#12263f"/>
    <path id="Trazado_1270233" data-name="Trazado 1270233" d="M-6.363-7.922-9.9,0h-1.137l3.521-7.641h-4.617v-.891h5.766ZM-4.8.732h-.932l3.563-9.264h.926ZM3.375,0H2.285V-7.225L.1-6.422v-.984L3.205-8.572h.17ZM10.8-8.537v.92h-.2a2.854,2.854,0,0,0-2.016.75,3.121,3.121,0,0,0-.867,2.045A2.314,2.314,0,0,1,9.563-5.6a2.212,2.212,0,0,1,1.778.785,3.028,3.028,0,0,1,.665,2.027,3.019,3.019,0,0,1-.718,2.109A2.472,2.472,0,0,1,9.363.117a2.435,2.435,0,0,1-1.986-.94,3.727,3.727,0,0,1-.762-2.423v-.416a5.616,5.616,0,0,1,1-3.6,3.691,3.691,0,0,1,2.991-1.274ZM9.381-4.693a1.729,1.729,0,0,0-1.025.334,1.74,1.74,0,0,0-.65.838v.4a2.8,2.8,0,0,0,.475,1.7,1.422,1.422,0,0,0,1.184.645,1.378,1.378,0,0,0,1.151-.539,2.237,2.237,0,0,0,.419-1.412,2.238,2.238,0,0,0-.425-1.421A1.362,1.362,0,0,0,9.381-4.693Z" transform="translate(779 1736)" fill="#12263f"/>
    <path id="Trazado_1270234" data-name="Trazado 1270234" d="M-7.717-3.75a2.652,2.652,0,0,1-.812.65,2.2,2.2,0,0,1-1.034.246,2.273,2.273,0,0,1-1.286-.363A2.362,2.362,0,0,1-11.7-4.239a3.486,3.486,0,0,1-.3-1.456,3.551,3.551,0,0,1,.325-1.541,2.389,2.389,0,0,1,.923-1.049,2.632,2.632,0,0,1,1.395-.363,2.382,2.382,0,0,1,2,.946,4.128,4.128,0,0,1,.729,2.581V-4.8a5.515,5.515,0,0,1-.984,3.636A3.782,3.782,0,0,1-10.582.006h-.211v-.92h.229a2.984,2.984,0,0,0,2.063-.7A3,3,0,0,0-7.717-3.75Zm-1.67,0a1.674,1.674,0,0,0,1-.334,1.969,1.969,0,0,0,.671-.826v-.434a2.983,2.983,0,0,0-.463-1.734,1.381,1.381,0,0,0-1.172-.668,1.392,1.392,0,0,0-1.148.548,2.26,2.26,0,0,0-.434,1.444,2.352,2.352,0,0,0,.419,1.438A1.326,1.326,0,0,0-9.387-3.75ZM-4.8.732h-.932l3.563-9.264h.926ZM3.375,0H2.285V-7.225L.1-6.422v-.984L3.205-8.572h.17ZM10.8-8.537v.92h-.2a2.854,2.854,0,0,0-2.016.75,3.121,3.121,0,0,0-.867,2.045A2.314,2.314,0,0,1,9.563-5.6a2.212,2.212,0,0,1,1.778.785,3.028,3.028,0,0,1,.665,2.027,3.019,3.019,0,0,1-.718,2.109A2.472,2.472,0,0,1,9.363.117a2.435,2.435,0,0,1-1.986-.94,3.727,3.727,0,0,1-.762-2.423v-.416a5.616,5.616,0,0,1,1-3.6,3.691,3.691,0,0,1,2.991-1.274ZM9.381-4.693a1.729,1.729,0,0,0-1.025.334,1.74,1.74,0,0,0-.65.838v.4a2.8,2.8,0,0,0,.475,1.7,1.422,1.422,0,0,0,1.184.645,1.378,1.378,0,0,0,1.151-.539,2.237,2.237,0,0,0,.419-1.412,2.238,2.238,0,0,0-.425-1.421A1.362,1.362,0,0,0,9.381-4.693Z" transform="translate(820 1736)" fill="#12263f"/>
    <path id="Trazado_1270235" data-name="Trazado 1270235" d="M-11.678,0h-1.09V-7.225l-2.186.8v-.984l3.105-1.166h.17Zm6.738,0h-1.09V-7.225l-2.186.8v-.984l3.105-1.166h.17Zm3.5.732h-.932L1.2-8.531h.926ZM6.744,0H5.654V-7.225l-2.186.8v-.984L6.574-8.572h.17Zm7.43-8.537v.92h-.2a2.854,2.854,0,0,0-2.016.75,3.121,3.121,0,0,0-.867,2.045,2.314,2.314,0,0,1,1.84-.773,2.212,2.212,0,0,1,1.778.785,3.028,3.028,0,0,1,.665,2.027,3.019,3.019,0,0,1-.718,2.109,2.472,2.472,0,0,1-1.925.791,2.435,2.435,0,0,1-1.986-.94,3.727,3.727,0,0,1-.762-2.423v-.416a5.616,5.616,0,0,1,1-3.6A3.691,3.691,0,0,1,13.98-8.537ZM12.75-4.693a1.729,1.729,0,0,0-1.025.334,1.74,1.74,0,0,0-.65.838v.4a2.8,2.8,0,0,0,.475,1.7,1.422,1.422,0,0,0,1.184.645,1.378,1.378,0,0,0,1.151-.539A2.237,2.237,0,0,0,14.3-2.73a2.238,2.238,0,0,0-.425-1.421A1.362,1.362,0,0,0,12.75-4.693Z" transform="translate(861 1736)" fill="#12263f"/>
    <path id="Trazado_1270236" data-name="Trazado 1270236" d="M-11.678,0h-1.09V-7.225l-2.186.8v-.984l3.105-1.166h.17Zm4.752-4.793h.814A1.79,1.79,0,0,0-4.9-5.2a1.351,1.351,0,0,0,.439-1.061,1.323,1.323,0,0,0-1.494-1.5,1.554,1.554,0,0,0-1.122.4A1.4,1.4,0,0,0-7.5-6.293H-8.584a2.176,2.176,0,0,1,.741-1.685,2.7,2.7,0,0,1,1.884-.671,2.668,2.668,0,0,1,1.893.639,2.307,2.307,0,0,1,.686,1.775,1.873,1.873,0,0,1-.36,1.078,2.176,2.176,0,0,1-.981.779,2.1,2.1,0,0,1,1.087.738,2.05,2.05,0,0,1,.384,1.26A2.327,2.327,0,0,1-4-.557,2.809,2.809,0,0,1-5.953.117a2.883,2.883,0,0,1-1.954-.65A2.158,2.158,0,0,1-8.66-2.25h1.09a1.394,1.394,0,0,0,.439,1.078,1.671,1.671,0,0,0,1.178.4,1.64,1.64,0,0,0,1.2-.41,1.581,1.581,0,0,0,.416-1.178A1.434,1.434,0,0,0-4.793-3.5a1.991,1.991,0,0,0-1.318-.41h-.814ZM-1.436.732h-.932L1.2-8.531h.926ZM6.744,0H5.654V-7.225l-2.186.8v-.984L6.574-8.572h.17Zm7.43-8.537v.92h-.2a2.854,2.854,0,0,0-2.016.75,3.121,3.121,0,0,0-.867,2.045,2.314,2.314,0,0,1,1.84-.773,2.212,2.212,0,0,1,1.778.785,3.028,3.028,0,0,1,.665,2.027,3.019,3.019,0,0,1-.718,2.109,2.472,2.472,0,0,1-1.925.791,2.435,2.435,0,0,1-1.986-.94,3.727,3.727,0,0,1-.762-2.423v-.416a5.616,5.616,0,0,1,1-3.6A3.691,3.691,0,0,1,13.98-8.537ZM12.75-4.693a1.729,1.729,0,0,0-1.025.334,1.74,1.74,0,0,0-.65.838v.4a2.8,2.8,0,0,0,.475,1.7,1.422,1.422,0,0,0,1.184.645,1.378,1.378,0,0,0,1.151-.539A2.237,2.237,0,0,0,14.3-2.73a2.238,2.238,0,0,0-.425-1.421A1.362,1.362,0,0,0,12.75-4.693Z" transform="translate(903 1736)" fill="#12263f"/>
    <path id="Trazado_1270237" data-name="Trazado 1270237" d="M-11.678,0h-1.09V-7.225l-2.186.8v-.984l3.105-1.166h.17ZM-8-4.277l.434-4.254H-3.2v1H-6.65L-6.908-5.2a2.753,2.753,0,0,1,1.424-.369A2.354,2.354,0,0,1-3.633-4.8a3.02,3.02,0,0,1,.686,2.083A2.915,2.915,0,0,1-3.659-.642,2.6,2.6,0,0,1-5.648.117,2.7,2.7,0,0,1-7.494-.51a2.5,2.5,0,0,1-.814-1.734h1.025a1.722,1.722,0,0,0,.521,1.1,1.621,1.621,0,0,0,1.113.372,1.463,1.463,0,0,0,1.187-.516,2.156,2.156,0,0,0,.431-1.424A1.978,1.978,0,0,0-4.5-4.081,1.584,1.584,0,0,0-5.736-4.6a1.787,1.787,0,0,0-1.113.311l-.287.234ZM-1.436.732h-.932L1.2-8.531h.926ZM6.744,0H5.654V-7.225l-2.186.8v-.984L6.574-8.572h.17Zm7.43-8.537v.92h-.2a2.854,2.854,0,0,0-2.016.75,3.121,3.121,0,0,0-.867,2.045,2.314,2.314,0,0,1,1.84-.773,2.212,2.212,0,0,1,1.778.785,3.028,3.028,0,0,1,.665,2.027,3.019,3.019,0,0,1-.718,2.109,2.472,2.472,0,0,1-1.925.791,2.435,2.435,0,0,1-1.986-.94,3.727,3.727,0,0,1-.762-2.423v-.416a5.616,5.616,0,0,1,1-3.6A3.691,3.691,0,0,1,13.98-8.537ZM12.75-4.693a1.729,1.729,0,0,0-1.025.334,1.74,1.74,0,0,0-.65.838v.4a2.8,2.8,0,0,0,.475,1.7,1.422,1.422,0,0,0,1.184.645,1.378,1.378,0,0,0,1.151-.539A2.237,2.237,0,0,0,14.3-2.73a2.238,2.238,0,0,0-.425-1.421A1.362,1.362,0,0,0,12.75-4.693Z" transform="translate(943 1736)" fill="#12263f"/>
    <path id="Trazado_1270238" data-name="Trazado 1270238" d="M-9.234-6.391h1.086A2.387,2.387,0,0,0-6.539-6.93a1.8,1.8,0,0,0,.586-1.414,1.764,1.764,0,0,0-1.992-2,2.072,2.072,0,0,0-1.5.535A1.873,1.873,0,0,0-10-8.391h-1.445a2.9,2.9,0,0,1,.988-2.246,3.6,3.6,0,0,1,2.512-.895,3.558,3.558,0,0,1,2.523.852,3.076,3.076,0,0,1,.914,2.367,2.5,2.5,0,0,1-.48,1.438A2.9,2.9,0,0,1-6.3-5.836a2.8,2.8,0,0,1,1.449.984,2.734,2.734,0,0,1,.512,1.68,3.1,3.1,0,0,1-1,2.43,3.745,3.745,0,0,1-2.6.9,3.844,3.844,0,0,1-2.605-.867,2.877,2.877,0,0,1-1-2.289h1.453a1.859,1.859,0,0,0,.586,1.438,2.229,2.229,0,0,0,1.57.539,2.187,2.187,0,0,0,1.6-.547,2.108,2.108,0,0,0,.555-1.57,1.912,1.912,0,0,0-.609-1.523,2.655,2.655,0,0,0-1.758-.547H-9.234ZM-1.914.977H-3.156l4.75-12.352H2.828ZM11.141-8.406a2.641,2.641,0,0,1-.449,1.516A3.057,3.057,0,0,1,9.477-5.852a3.26,3.26,0,0,1,1.41,1.117,2.811,2.811,0,0,1,.52,1.664,2.972,2.972,0,0,1-1,2.352A3.827,3.827,0,0,1,7.789.156,3.81,3.81,0,0,1,5.16-.723,2.986,2.986,0,0,1,4.172-3.07a2.9,2.9,0,0,1,.5-1.664A3.136,3.136,0,0,1,6.07-5.859,2.981,2.981,0,0,1,4.875-6.9a2.679,2.679,0,0,1-.437-1.508,2.94,2.94,0,0,1,.922-2.281,3.458,3.458,0,0,1,2.43-.844,3.461,3.461,0,0,1,2.426.844A2.934,2.934,0,0,1,11.141-8.406ZM9.961-3.1a2.1,2.1,0,0,0-.605-1.555,2.147,2.147,0,0,0-1.582-.6,2.11,2.11,0,0,0-1.566.594A2.12,2.12,0,0,0,5.617-3.1a2.019,2.019,0,0,0,.574,1.523,2.2,2.2,0,0,0,1.6.555,2.2,2.2,0,0,0,1.594-.559A2.014,2.014,0,0,0,9.961-3.1ZM7.789-10.344a1.865,1.865,0,0,0-1.379.527,1.937,1.937,0,0,0-.527,1.434,1.928,1.928,0,0,0,.52,1.4,1.844,1.844,0,0,0,1.387.535A1.844,1.844,0,0,0,9.176-6.98a1.928,1.928,0,0,0,.52-1.4A1.929,1.929,0,0,0,9.156-9.8,1.839,1.839,0,0,0,7.789-10.344Z" transform="translate(757 1712)" fill="#12263f"/>
    <path id="Trazado_1270239" data-name="Trazado 1270239" d="M-10.672-5.7l.578-5.672h5.828v1.336h-4.6l-.344,3.1a3.671,3.671,0,0,1,1.9-.492A3.138,3.138,0,0,1-4.844-6.4,4.026,4.026,0,0,1-3.93-3.625a3.886,3.886,0,0,1-.949,2.77A3.46,3.46,0,0,1-7.531.156,3.6,3.6,0,0,1-9.992-.68a3.337,3.337,0,0,1-1.086-2.312h1.367a2.3,2.3,0,0,0,.7,1.473,2.162,2.162,0,0,0,1.484.5,1.95,1.95,0,0,0,1.582-.687,2.874,2.874,0,0,0,.574-1.9A2.638,2.638,0,0,0-6-5.441a2.113,2.113,0,0,0-1.652-.691,2.383,2.383,0,0,0-1.484.414l-.383.313ZM-1.914.977H-3.156l4.75-12.352H2.828ZM11.141-8.406a2.641,2.641,0,0,1-.449,1.516A3.057,3.057,0,0,1,9.477-5.852a3.26,3.26,0,0,1,1.41,1.117,2.811,2.811,0,0,1,.52,1.664,2.972,2.972,0,0,1-1,2.352A3.827,3.827,0,0,1,7.789.156,3.81,3.81,0,0,1,5.16-.723,2.986,2.986,0,0,1,4.172-3.07a2.9,2.9,0,0,1,.5-1.664A3.136,3.136,0,0,1,6.07-5.859,2.981,2.981,0,0,1,4.875-6.9a2.679,2.679,0,0,1-.437-1.508,2.94,2.94,0,0,1,.922-2.281,3.458,3.458,0,0,1,2.43-.844,3.461,3.461,0,0,1,2.426.844A2.934,2.934,0,0,1,11.141-8.406ZM9.961-3.1a2.1,2.1,0,0,0-.605-1.555,2.147,2.147,0,0,0-1.582-.6,2.11,2.11,0,0,0-1.566.594A2.12,2.12,0,0,0,5.617-3.1a2.019,2.019,0,0,0,.574,1.523,2.2,2.2,0,0,0,1.6.555,2.2,2.2,0,0,0,1.594-.559A2.014,2.014,0,0,0,9.961-3.1ZM7.789-10.344a1.865,1.865,0,0,0-1.379.527,1.937,1.937,0,0,0-.527,1.434,1.928,1.928,0,0,0,.52,1.4,1.844,1.844,0,0,0,1.387.535A1.844,1.844,0,0,0,9.176-6.98a1.928,1.928,0,0,0,.52-1.4A1.929,1.929,0,0,0,9.156-9.8,1.839,1.839,0,0,0,7.789-10.344Z" transform="translate(841 1712)" fill="#12263f"/>
    <path id="Trazado_1270240" data-name="Trazado 1270240" d="M-3.992-10.562-8.7,0h-1.516l4.7-10.187H-11.68v-1.187h7.688ZM-1.914.977H-3.156l4.75-12.352H2.828ZM11.141-8.406a2.641,2.641,0,0,1-.449,1.516A3.057,3.057,0,0,1,9.477-5.852a3.26,3.26,0,0,1,1.41,1.117,2.811,2.811,0,0,1,.52,1.664,2.972,2.972,0,0,1-1,2.352A3.827,3.827,0,0,1,7.789.156,3.81,3.81,0,0,1,5.16-.723,2.986,2.986,0,0,1,4.172-3.07a2.9,2.9,0,0,1,.5-1.664A3.136,3.136,0,0,1,6.07-5.859,2.981,2.981,0,0,1,4.875-6.9a2.679,2.679,0,0,1-.437-1.508,2.94,2.94,0,0,1,.922-2.281,3.458,3.458,0,0,1,2.43-.844,3.461,3.461,0,0,1,2.426.844A2.934,2.934,0,0,1,11.141-8.406ZM9.961-3.1a2.1,2.1,0,0,0-.605-1.555,2.147,2.147,0,0,0-1.582-.6,2.11,2.11,0,0,0-1.566.594A2.12,2.12,0,0,0,5.617-3.1a2.019,2.019,0,0,0,.574,1.523,2.2,2.2,0,0,0,1.6.555,2.2,2.2,0,0,0,1.594-.559A2.014,2.014,0,0,0,9.961-3.1ZM7.789-10.344a1.865,1.865,0,0,0-1.379.527,1.937,1.937,0,0,0-.527,1.434,1.928,1.928,0,0,0,.52,1.4,1.844,1.844,0,0,0,1.387.535A1.844,1.844,0,0,0,9.176-6.98a1.928,1.928,0,0,0,.52-1.4A1.929,1.929,0,0,0,9.156-9.8,1.839,1.839,0,0,0,7.789-10.344Z" transform="translate(923 1712)" fill="#12263f"/>
    <path id="Trazado_1270241" data-name="Trazado 1270241" d="M-12.12-8.388h1.425A3.133,3.133,0,0,0-8.583-9.1a2.364,2.364,0,0,0,.769-1.856,2.316,2.316,0,0,0-2.615-2.625,2.72,2.72,0,0,0-1.964.7,2.458,2.458,0,0,0-.733,1.861h-1.9a3.808,3.808,0,0,1,1.3-2.948,4.725,4.725,0,0,1,3.3-1.174,4.669,4.669,0,0,1,3.312,1.118,4.038,4.038,0,0,1,1.2,3.107,3.277,3.277,0,0,1-.631,1.887A3.808,3.808,0,0,1-8.265-7.66a3.669,3.669,0,0,1,1.9,1.292,3.588,3.588,0,0,1,.672,2.2A4.073,4.073,0,0,1-7-.974,4.915,4.915,0,0,1-10.418.205a5.045,5.045,0,0,1-3.42-1.138,3.776,3.776,0,0,1-1.318-3h1.907a2.44,2.44,0,0,0,.769,1.887,2.925,2.925,0,0,0,2.061.708,2.87,2.87,0,0,0,2.1-.718,2.766,2.766,0,0,0,.728-2.061,2.51,2.51,0,0,0-.8-2,3.485,3.485,0,0,0-2.307-.718H-12.12Zm9.608,9.669h-1.63L2.092-14.93h1.62Zm16.088-6.3h2.071v1.548H13.576V0H11.669V-3.466h-6.8V-4.583L11.556-14.93h2.02Zm-6.552,0h4.645v-7.321l-.226.41Z" transform="translate(882 1691)" fill="#12263f"/>
    <path id="Trazado_1270242" data-name="Trazado 1270242" d="M8.789,0H-7.98V-2.338L.879-12.182a21.048,21.048,0,0,0,2.716-3.63A6.058,6.058,0,0,0,4.342-18.7,4.592,4.592,0,0,0,3.129-21.99,4.241,4.241,0,0,0-.105-23.273a5.023,5.023,0,0,0-3.771,1.38,5.271,5.271,0,0,0-1.345,3.841H-8.473A7.549,7.549,0,0,1-6.2-23.766a8.439,8.439,0,0,1,6.091-2.18,8.109,8.109,0,0,1,5.643,1.872A6.386,6.386,0,0,1,7.611-19.09q0,3.779-4.816,9L-4.061-2.654H8.789Z" transform="translate(965 1648)" fill="#12263f"/>
    <path id="Trazado_1270243" data-name="Trazado 1270243" d="M-12.349,0h-2.725V-18.062l-5.464,2.007v-2.461l7.764-2.915h.425Zm8.76,1.831H-5.918L2.988-21.328H5.3ZM21.929,0H7.954V-1.948l7.383-8.2A17.54,17.54,0,0,0,17.6-13.176a5.049,5.049,0,0,0,.623-2.41,3.827,3.827,0,0,0-1.011-2.739,3.534,3.534,0,0,0-2.7-1.069,4.185,4.185,0,0,0-3.142,1.15,4.392,4.392,0,0,0-1.121,3.2H7.544a6.291,6.291,0,0,1,1.9-4.761,7.032,7.032,0,0,1,5.076-1.816,6.757,6.757,0,0,1,4.7,1.56,5.321,5.321,0,0,1,1.729,4.153q0,3.149-4.014,7.5l-5.713,6.2H21.929Z" transform="translate(797 1682)" fill="#12263f"/>
  </g>
</svg>
