<svg xmlns="http://www.w3.org/2000/svg" xmlns:xlink="http://www.w3.org/1999/xlink" width="362.094" height="120.7" viewBox="0 0 362.094 120.7">
  <defs>
    <clipPath id="clip-path">
      <rect id="Rect치ngulo_455470" data-name="Rect치ngulo 455470" width="362.094" height="120.7" fill="none"/>
    </clipPath>
    <clipPath id="clip-path-2">
      <rect id="Rect치ngulo_455469" data-name="Rect치ngulo 455469" width="40.526" height="32.668" transform="translate(2.858)" fill="none"/>
    </clipPath>
  </defs>
  <g id="Grupo_1204662" data-name="Grupo 1204662" transform="translate(-619 -1939)">
    <path id="Trazado_1270248" data-name="Trazado 1270248" d="M0,0H2.471V47.567H0Z" transform="translate(902.78 1977.197)"/>
    <path id="Trazado_1270249" data-name="Trazado 1270249" d="M0,0H2.471V47.567H0Z" transform="translate(972.431 1977.197)"/>
    <path id="Trazado_1270258" data-name="Trazado 1270258" d="M0,0H2.471V36.6H0Z" transform="translate(937.528 1977.197)"/>
    <path id="Trazado_1270286" data-name="Trazado 1270286" d="M0,0H2.471V24.247H0Z" transform="translate(895.83 1977.197)"/>
    <path id="Trazado_1270287" data-name="Trazado 1270287" d="M0,0H2.471V24.247H0Z" transform="translate(909.73 1977.197)"/>
    <path id="Trazado_1270288" data-name="Trazado 1270288" d="M0,0H2.471V24.247H0Z" transform="translate(916.679 1977.197)"/>
    <path id="Trazado_1270289" data-name="Trazado 1270289" d="M0,0H2.471V24.247H0Z" transform="translate(923.629 1977.197)"/>
    <path id="Trazado_1270290" data-name="Trazado 1270290" d="M0,0H2.471V24.247H0Z" transform="translate(930.579 1977.197)"/>
    <path id="Trazado_1270291" data-name="Trazado 1270291" d="M0,0H2.471V24.247H0Z" transform="translate(944.478 1977.197)"/>
    <path id="Trazado_1270292" data-name="Trazado 1270292" d="M0,0H2.471V24.247H0Z" transform="translate(951.428 1977.197)"/>
    <path id="Trazado_1270293" data-name="Trazado 1270293" d="M0,0H2.471V24.247H0Z" transform="translate(958.378 1977.197)"/>
    <path id="Trazado_1270294" data-name="Trazado 1270294" d="M0,0H2.471V24.247H0Z" transform="translate(965.327 1977.197)"/>
    <g id="Grupo_1204661" data-name="Grupo 1204661">
      <path id="Trazado_1270244" data-name="Trazado 1270244" d="M0,0H2.471V47.567H0Z" transform="translate(624.329 1977.197)"/>
      <path id="Trazado_1270245" data-name="Trazado 1270245" d="M0,0H2.471V47.567H0Z" transform="translate(693.981 1977.197)"/>
      <path id="Trazado_1270246" data-name="Trazado 1270246" d="M0,0H2.471V47.567H0Z" transform="translate(763.632 1977.197)"/>
      <path id="Trazado_1270247" data-name="Trazado 1270247" d="M0,0H2.471V47.567H0Z" transform="translate(833.129 1977.197)"/>
      <path id="Trazado_1270250" data-name="Trazado 1270250" d="M0,0H2.471V24.247H0Z" transform="translate(631.433 1977.197)"/>
      <path id="Trazado_1270251" data-name="Trazado 1270251" d="M0,0H2.471V24.247H0Z" transform="translate(638.383 1977.197)"/>
      <path id="Trazado_1270252" data-name="Trazado 1270252" d="M0,0H2.471V24.247H0Z" transform="translate(645.333 1977.197)"/>
      <path id="Trazado_1270253" data-name="Trazado 1270253" d="M0,0H2.471V24.247H0Z" transform="translate(652.283 1977.197)"/>
      <path id="Trazado_1270254" data-name="Trazado 1270254" d="M0,0H2.471V36.6H0Z" transform="translate(659.232 1977.197)"/>
      <path id="Trazado_1270255" data-name="Trazado 1270255" d="M0,0H2.471V36.6H0Z" transform="translate(728.729 1977.197)"/>
      <path id="Trazado_1270256" data-name="Trazado 1270256" d="M0,0H2.471V36.6H0Z" transform="translate(798.38 1977.197)"/>
      <path id="Trazado_1270257" data-name="Trazado 1270257" d="M0,0H2.471V36.6H0Z" transform="translate(868.032 1977.197)"/>
      <path id="Trazado_1270259" data-name="Trazado 1270259" d="M0,0H2.471V24.247H0Z" transform="translate(666.182 1977.197)"/>
      <path id="Trazado_1270260" data-name="Trazado 1270260" d="M0,0H2.471V24.247H0Z" transform="translate(673.132 1977.197)"/>
      <path id="Trazado_1270261" data-name="Trazado 1270261" d="M0,0H2.471V24.247H0Z" transform="translate(680.081 1977.197)"/>
      <path id="Trazado_1270262" data-name="Trazado 1270262" d="M0,0H2.471V24.247H0Z" transform="translate(687.031 1977.197)"/>
      <path id="Trazado_1270263" data-name="Trazado 1270263" d="M0,0H2.471V24.247H0Z" transform="translate(700.93 1977.197)"/>
      <path id="Trazado_1270264" data-name="Trazado 1270264" d="M0,0H2.471V24.247H0Z" transform="translate(707.88 1977.197)"/>
      <path id="Trazado_1270265" data-name="Trazado 1270265" d="M0,0H2.471V24.247H0Z" transform="translate(714.83 1977.197)"/>
      <path id="Trazado_1270266" data-name="Trazado 1270266" d="M0,0H2.471V24.247H0Z" transform="translate(721.779 1977.197)"/>
      <path id="Trazado_1270267" data-name="Trazado 1270267" d="M0,0H2.471V24.247H0Z" transform="translate(735.679 1977.197)"/>
      <path id="Trazado_1270268" data-name="Trazado 1270268" d="M0,0H2.471V24.247H0Z" transform="translate(742.783 1977.197)"/>
      <path id="Trazado_1270269" data-name="Trazado 1270269" d="M0,0H2.471V24.247H0Z" transform="translate(749.733 1977.197)"/>
      <path id="Trazado_1270270" data-name="Trazado 1270270" d="M0,0H2.471V24.247H0Z" transform="translate(756.682 1977.197)"/>
      <path id="Trazado_1270271" data-name="Trazado 1270271" d="M0,0H2.471V24.247H0Z" transform="translate(770.582 1977.197)"/>
      <path id="Trazado_1270272" data-name="Trazado 1270272" d="M0,0H2.471V24.247H0Z" transform="translate(777.531 1977.197)"/>
      <path id="Trazado_1270273" data-name="Trazado 1270273" d="M0,0H2.471V24.247H0Z" transform="translate(784.481 1977.197)"/>
      <path id="Trazado_1270274" data-name="Trazado 1270274" d="M0,0H2.471V24.247H0Z" transform="translate(791.431 1977.197)"/>
      <path id="Trazado_1270275" data-name="Trazado 1270275" d="M0,0H2.471V24.247H0Z" transform="translate(805.33 1977.197)"/>
      <path id="Trazado_1270276" data-name="Trazado 1270276" d="M0,0H2.471V24.247H0Z" transform="translate(812.28 1977.197)"/>
      <path id="Trazado_1270277" data-name="Trazado 1270277" d="M0,0H2.471V24.247H0Z" transform="translate(819.229 1977.197)"/>
      <path id="Trazado_1270278" data-name="Trazado 1270278" d="M0,0H2.471V24.247H0Z" transform="translate(826.179 1977.197)"/>
      <path id="Trazado_1270279" data-name="Trazado 1270279" d="M0,0H2.471V24.247H0Z" transform="translate(840.078 1977.197)"/>
      <path id="Trazado_1270280" data-name="Trazado 1270280" d="M0,0H2.471V24.247H0Z" transform="translate(847.028 1977.197)"/>
      <path id="Trazado_1270281" data-name="Trazado 1270281" d="M0,0H2.471V24.247H0Z" transform="translate(853.978 1977.197)"/>
      <path id="Trazado_1270282" data-name="Trazado 1270282" d="M0,0H2.471V24.247H0Z" transform="translate(861.082 1977.197)"/>
      <path id="Trazado_1270283" data-name="Trazado 1270283" d="M0,0H2.471V24.247H0Z" transform="translate(874.981 1977.197)"/>
      <path id="Trazado_1270284" data-name="Trazado 1270284" d="M0,0H2.471V24.247H0Z" transform="translate(881.931 1977.197)"/>
      <path id="Trazado_1270285" data-name="Trazado 1270285" d="M0,0H2.471V24.247H0Z" transform="translate(888.881 1977.197)"/>
      <g id="Grupo_1204610" data-name="Grupo 1204610" transform="translate(619 1939)">
        <g id="Grupo_1204609" data-name="Grupo 1204609" clip-path="url(#clip-path)">
          <path id="Trazado_1269796" data-name="Trazado 1269796" d="M13.823,109.857a16.627,16.627,0,0,1-1.7,8.185,5.466,5.466,0,0,1-5.251,2.625,5.64,5.64,0,0,1-5.1-2.78,13.335,13.335,0,0,1-1.7-8.031,16.627,16.627,0,0,1,1.7-8.185,5.768,5.768,0,0,1,5.251-2.625,5.889,5.889,0,0,1,5.251,2.78,14.678,14.678,0,0,1,1.853,8.031m-11.737,0A15.826,15.826,0,0,0,3.471,116.5a3.7,3.7,0,0,0,3.4,2.162,3.55,3.55,0,0,0,3.4-2.162,16.226,16.226,0,0,0,1.08-6.641,16.243,16.243,0,0,0-1.081-6.641,3.7,3.7,0,0,0-3.4-2.162,3.837,3.837,0,0,0-3.4,2.008A14.02,14.02,0,0,0,2.389,109.7"/>
          <path id="Trazado_1269797" data-name="Trazado 1269797" d="M77.76,120.359H75.444V101.826l-.618.618c-.309.154-1.39,1.081-3.4,2.78l-1.235-1.7L75.753,99.2h2.008v21.158Z"/>
          <path id="Trazado_1269798" data-name="Trazado 1269798" d="M152.2,120.359H138.3v-2.012l5.56-5.56a26.13,26.13,0,0,0,3.4-3.706,9.838,9.838,0,0,0,1.236-2.162,5.455,5.455,0,0,0,.463-2.162,3.389,3.389,0,0,0-1.081-2.625,3.807,3.807,0,0,0-2.78-.927,4.717,4.717,0,0,0-2.471.463A9.058,9.058,0,0,0,140,103.217l-1.236-1.7a9.572,9.572,0,0,1,6.336-2.47,7,7,0,0,1,4.633,1.544,5.608,5.608,0,0,1,1.7,4.015,9.17,9.17,0,0,1-1.081,4.015,26.118,26.118,0,0,1-4.17,4.942l-4.639,4.484h10.811v2.162Z"/>
          <path id="Trazado_1269799" data-name="Trazado 1269799" d="M222.314,104.3a4.852,4.852,0,0,1-1.081,3.243,5.556,5.556,0,0,1-3.243,1.7,6.357,6.357,0,0,1,3.706,1.7,5.715,5.715,0,0,1-.926,8.03h0a8.9,8.9,0,0,1-5.869,1.544,10.539,10.539,0,0,1-3.089-.309,7.6,7.6,0,0,1-2.625-.927v-2.318a16.387,16.387,0,0,0,2.934,1.081,18.876,18.876,0,0,0,2.934.309c3.706,0,5.4-1.39,5.4-4.324,0-2.625-2.008-3.861-6.023-3.861h-2.008v-2.008h2.162a6.63,6.63,0,0,0,3.861-1.081,3.473,3.473,0,0,0,1.39-3.089,3.072,3.072,0,0,0-1.081-2.471,4.75,4.75,0,0,0-2.934-.927,7.64,7.64,0,0,0-2.625.309,11.722,11.722,0,0,0-2.78,1.39l-1.234-1.544a7.682,7.682,0,0,1,2.934-1.544,9.061,9.061,0,0,1,3.552-.618,8.675,8.675,0,0,1,4.788,1.39,5.021,5.021,0,0,1,1.7,3.861"/>
          <path id="Trazado_1269800" data-name="Trazado 1269800" d="M291.813,115.571h-3.089v4.784h-2.317v-4.784H276.213v-2.008l10.038-14.208h2.471v14.208h3.091Zm-5.4-2.162V101.826a16.815,16.815,0,0,1-1.236,2.317l-6.641,9.421h7.876Z"/>
          <path id="Trazado_1269801" data-name="Trazado 1269801" d="M354.976,107.541a8.228,8.228,0,0,1,5.251,1.7,5.436,5.436,0,0,1,1.853,4.479,6.634,6.634,0,0,1-2.008,5.1,7.766,7.766,0,0,1-5.714,1.853,13.011,13.011,0,0,1-5.4-1.086V117.27a11.967,11.967,0,0,0,2.471,1.081,9.518,9.518,0,0,0,2.934.309,5.788,5.788,0,0,0,3.861-1.236,4.228,4.228,0,0,0,1.39-3.4c0-2.934-1.853-4.324-5.4-4.324a15.235,15.235,0,0,0-3.706.463l-1.236-.772.772-9.881h10.5v2.162h-8.34L351.731,108a23.04,23.04,0,0,1,3.243-.309"/>
          <g id="Grupo_1204608" data-name="Grupo 1204608" style="isolation: isolate">
            <g id="Grupo_1204607" data-name="Grupo 1204607">
              <g id="Grupo_1204606" data-name="Grupo 1204606" clip-path="url(#clip-path-2)">
                <g id="Grupo_1204605" data-name="Grupo 1204605" style="isolation: isolate">
                  <g id="Grupo_1204604" data-name="Grupo 1204604">
                    <g id="Grupo_1204603" data-name="Grupo 1204603" clip-path="url(#clip-path-2)">
                      <text id="cm" transform="translate(2.858 24.808)" font-size="29" font-family="Roboto-Regular, Roboto"><tspan x="0" y="0">cm</tspan></text>
                    </g>
                  </g>
                </g>
              </g>
            </g>
          </g>
        </g>
      </g>
    </g>
  </g>
</svg>
