<svg xmlns="http://www.w3.org/2000/svg" width="60" height="60" viewBox="0 0 60 60">
  <g id="Grupo_1204659" data-name="Grupo 1204659" transform="translate(-204 -3895)">
    <circle id="Elipse_13660" data-name="Elipse 13660" cx="30" cy="30" r="30" transform="translate(204 3895)" fill="#232470"/>
    <g id="layer1-0" transform="translate(216.391 3896.791)">
      <path id="path10364" d="M19.123,28.779V7.507a1.952,1.952,0,0,0-1.961-1.951H13.494V28.779Z" transform="translate(21.078 7.904)" fill="#e4eff8"/>
      <path id="path10366" d="M37.042,14.023v1.024a3.913,3.913,0,0,1-3.923,3.9H1.425a3.917,3.917,0,0,0,2.243.7h32.97a3.912,3.912,0,0,0,3.923-3.9V14.023Z" transform="translate(1.048 21.956)" fill="#3588cb"/>
      <path id="path10368" d="M1.323,28.779V7.507A1.952,1.952,0,0,1,3.284,5.556H6.953V28.779Z" transform="translate(0.878 7.904)" fill="#e4eff8"/>
      <path id="path10371" d="M2.91,5.556V20.334a2.1,2.1,0,0,0,1.407,1.983V5.556Z" transform="translate(3.513 7.904)" fill="#c4dcf0"/>
      <path id="path10375" d="M2.381,6.615H34.752V27.022H2.381Z" transform="translate(2.635 9.661)" fill="#427096"/>
      <path id="path10378" d="M34.274,6.879C31.321,21.937,14.76,25.508,2.384,25.508c.383.53,1.4,1.779,2.1,1.779H14.3l.041,1.407h8.445l.191-1.407h9.66a2.107,2.107,0,0,0,2.111-2.111V6.879Z" transform="translate(2.639 10.1)" fill="#365b7a"/>
      <path id="path10380" d="M5.551.794H33.7A2.107,2.107,0,0,1,35.81,2.9V28.238A2.107,2.107,0,0,1,33.7,30.35H5.551A2.107,2.107,0,0,1,3.44,28.238V2.9A2.107,2.107,0,0,1,5.551.794Z" transform="translate(4.391 0)" fill="#e4eff8"/>
      <path id="path918" d="M21.218,11.006a7.037,7.037,0,1,1-7.037-7.037A7.037,7.037,0,0,1,21.218,11.006Z" transform="translate(10.539 5.269)" fill="#c4dcf0"/>
      <path id="path916" d="M3.44,6.688V3.169A2.107,2.107,0,0,1,5.551,1.058H33.7A2.107,2.107,0,0,1,35.81,3.169V6.688Z" transform="translate(4.391 0.439)" fill="#c4dcf0"/>
      <g id="g874" transform="translate(12.053 25.422)">
        <path id="path868" d="M25.047,11.906H47.566a.7.7,0,1,1,0,1.407H25.047a.7.7,0,1,1,0-1.407Z" transform="translate(-24.343 -11.203)" fill="#c4dcf0"/>
        <path id="circle870" d="M28.481,13.049a1.407,1.407,0,1,1-1.407-1.407,1.407,1.407,0,0,1,1.407,1.407Z" transform="translate(-22.147 -11.642)" fill="#c4dcf0"/>
      </g>
      <path id="path10382" d="M3.44,6.423V2.9A2.107,2.107,0,0,1,5.551.794H33.7A2.107,2.107,0,0,1,35.81,2.9V6.423Z" transform="translate(4.391 0)" fill="#549ad4"/>
      <path id="path914" d="M9.435,1.852H23.509a.7.7,0,1,1,0,1.407H9.435a.7.7,0,1,1,0-1.407Z" transform="translate(13.174 1.757)" fill="#3588cb"/>
      <path id="path10384" d="M28.288.86C24.93,6.158,7.738,5.609,7.738,5.609l-.528.7H29.553V2.794A2.106,2.106,0,0,0,28.288.86Z" transform="translate(10.649 0.111)" fill="#3588cb"/>
      <path id="path10386" d="M3.969,6.423V2.9A2.107,2.107,0,0,1,6.08.794h9.148v5.63Z" transform="translate(5.269 0)" fill="#3588cb"/>
      <path id="path10388" d="M3.44,6.423V2.9A2.107,2.107,0,0,1,5.551.794H14.7v5.63Z" transform="translate(4.391 0)" fill="#ffca28"/>
      <path id="path10390" d="M14.427.794C12.873,5.861,5.683,5.885,3.44,5.766v.657H14.7V.794Z" transform="translate(4.391 0)" fill="#ecb200"/>
      <path id="path10393" d="M35.559,2.323c0,19.155-18.3,24.612-31.968,24.612a2.1,2.1,0,0,0,1.708.877H33.448A2.107,2.107,0,0,0,35.559,25.7Z" transform="translate(4.643 2.538)" fill="#c4dcf0"/>
      <path id="circle10395" d="M20.953,11.006a7.037,7.037,0,1,1-7.037-7.037A7.037,7.037,0,0,1,20.953,11.006Z" transform="translate(10.1 5.269)" fill="#ff5151"/>
      <path id="path10399" d="M13.916,3.969A7.03,7.03,0,0,0,9.7,16.629a7.028,7.028,0,0,1,9.848-9.835,7.037,7.037,0,0,0-5.63-2.824Z" transform="translate(10.1 5.27)" fill="#ff2929"/>
      <path id="path10402" d="M8.731,5.292l5.63,3.519-5.63,3.519Z" transform="translate(13.174 7.465)" fill="#e4eff8"/>
      <path id="path10405" d="M11.9,6.035A5.873,5.873,0,0,1,8.731,9.778v1.317l5.63-3.519Z" transform="translate(13.174 8.699)" fill="#c4dcf0"/>
      <path id="path10407" d="M5.731,10.054H28.25a.7.7,0,1,1,0,1.407H5.731a.7.7,0,1,1,0-1.407Z" transform="translate(7.026 15.37)" fill="#549ad4"/>
      <path id="path897" d="M6.82,10.07a1.368,1.368,0,0,0,0,1.41H9.249a1.368,1.368,0,0,0,0-1.41Z" transform="translate(9.678 15.396)" fill="#3588cb"/>
      <path id="circle10409" d="M9.165,11.2A1.407,1.407,0,1,1,7.757,9.79,1.407,1.407,0,0,1,9.165,11.2Z" transform="translate(9.222 14.93)" fill="#ff5151"/>
      <path id="path10412" d="M8.335,9.859q.009.083.011.168a1.759,1.759,0,0,1-1.759,1.759q-.083,0-.166-.008A1.406,1.406,0,1,0,8.336,9.859Z" transform="translate(9.338 15.045)" fill="#ff2929"/>
      <path id="path10414" d="M41.609,14.023v1.728a3.912,3.912,0,0,1-3.922,3.9H4.716a3.912,3.912,0,0,1-3.922-3.9V14.023H16.979v2.111h8.445V14.023Z" transform="translate(0 21.956)" fill="#549ad4"/>
      <path id="path10416" d="M37.746,14.023v1.024a3.913,3.913,0,0,1-3.923,3.9H1.425a3.917,3.917,0,0,0,2.243.7h32.97a3.912,3.912,0,0,0,3.923-3.9V14.023Z" transform="translate(1.048 21.956)" fill="#3588cb"/>
      <g id="Grupo_1204376" data-name="Grupo 1204376" transform="translate(9.942 2.905)">
        <path id="circle10418" d="M5.641,2.291a.7.7,0,1,1-.7-.7A.7.7,0,0,1,5.641,2.291Z" transform="translate(-4.233 -1.588)" fill="#e4eff8"/>
        <path id="circle10420" d="M6.7,2.291a.7.7,0,1,1-.7-.7A.7.7,0,0,1,6.7,2.291Z" transform="translate(-2.477 -1.588)" fill="#e4eff8"/>
        <path id="circle10422" d="M7.757,2.291a.7.7,0,1,1-.7-.7A.7.7,0,0,1,7.757,2.291Z" transform="translate(-0.72 -1.588)" fill="#e4eff8"/>
      </g>
      <path id="path902" d="M12.843,10.07a33.012,33.012,0,0,1-3.275,1.41h11.2a.7.7,0,0,0,0-1.41Z" transform="translate(14.562 15.396)" fill="#3588cb"/>
      <path id="path907" d="M9.435,1.588H23.509a.7.7,0,1,1,0,1.407H9.435a.7.7,0,1,1,0-1.407Z" transform="translate(13.174 1.317)" fill="#e4eff8"/>
      <path id="path909" d="M16.61,1.592A16.261,16.261,0,0,1,12.943,3H16.58a.7.7,0,0,0,.03-1.4Z" transform="translate(20.163 1.325)" fill="#c4dcf0"/>
    </g>
  </g>
</svg>
