<svg xmlns="http://www.w3.org/2000/svg" width="395.136" height="298.868" viewBox="0 0 395.136 298.868">
  <g id="Grupo_1204662" data-name="Grupo 1204662" transform="translate(-186 -2544.948)">
    <rect id="Rect치ngulo_454756" data-name="Rect치ngulo 454756" width="395.136" height="298.867" transform="translate(186 2544.948)" fill="#fee383"/>
    <g id="Modisteria" transform="translate(227.7 2582.615)">
      <g id="Grupo_1204328" data-name="Grupo 1204328" transform="translate(39.135 30.762)">
        <path id="Trazado_1268340" data-name="Trazado 1268340" d="M54.9,160.585C31.012,96.444,57.77,58.207,99.729,42.618c22.88-8.531,50.258-10.315,76.4-5.894s51.111,14.969,69.027,31.256c35.91,32.5,43.9,87.331-22.027,160.314-10.548,11.634-21.794,19.312-33.2,23.578-15.512,5.817-31.489,5.429-46.923.62-15.357-4.809-30.093-14.038-43.278-25.9-19.778-17.916-35.91-41.8-44.829-65.925h0ZM100.04,43.626C58.623,59.06,32.253,96.754,55.909,160.2a171.508,171.508,0,0,0,44.6,65.46c13.03,11.789,27.689,20.941,42.89,25.672s30.946,5.119,46.225-.543c11.324-4.188,22.337-11.711,32.807-23.268,65.382-72.362,57.626-126.731,22.1-158.763-17.761-16.055-42.58-26.6-68.562-30.946s-53.205-2.637-75.853,5.817Z" transform="translate(-45.916 -34.385)" fill="#f4b9cd" fill-rule="evenodd"/>
        <path id="Trazado_1268341" data-name="Trazado 1268341" d="M62.281,157.5C-11.322-40.122,411.3,17.116,225,223.112c-58.635,64.917-138.287.078-162.719-65.615Z" transform="translate(-47.634 -34.633)" fill="#f4b9cd" fill-rule="evenodd"/>
      </g>
      <g id="Grupo_1204344" data-name="Grupo 1204344" transform="translate(15.7 18.239)">
        <g id="Grupo_1204331" data-name="Grupo 1204331" transform="translate(21.756)">
          <path id="Trazado_1268342" data-name="Trazado 1268342" d="M110.9,69.586c.465,10.858,3.025,23.345,10.238,30.481,5.274,5.2,17.373,6.05,20.708,0,2.4-4.421-2.559-13.185-2.559-13.185C138.123,85.1,121.6,56.091,117.725,62.993c0,0-3.025,6.36-6.748,6.593Z" transform="translate(-58.82 -28.044)" fill="#504d3f" fill-rule="evenodd"/>
          <path id="Trazado_1268343" data-name="Trazado 1268343" d="M175.993,306.512H80.6c-.465-29.085,8.764-55.61,8.919-59.022s.31-7.989.233-10.936a5.076,5.076,0,0,1,1.551-4.266s11.479-9,26.913-10.315c10.936-1.008,24.121,6.67,35.367,2.637.388,1.318.776,2.637,1.241,3.878,3.568,9.695,14.116,20.243,21.174,78.1Z" transform="translate(-52.016 -63.938)" fill="#67614f" fill-rule="evenodd"/>
          <path id="Trazado_1268344" data-name="Trazado 1268344" d="M164.035,240.278a124.576,124.576,0,0,1,7.911,20.01,3.736,3.736,0,0,0-3.025,1.629S145.963,287.2,143.094,289.76c-2.87,2.637-4.809,0-4.809,0s-16.21-15.822-16.753-16.055-.776.543-.776.543a3.223,3.223,0,0,1-1.318,2.017l-6.825,4.111-7.213-1.241s11.789-14.736,12.487-15.124a88.629,88.629,0,0,1,10.626-2.4L164.19,240.2Z" transform="translate(-57.586 -68.049)" fill="#504d3f" fill-rule="evenodd"/>
          <path id="Trazado_1268345" data-name="Trazado 1268345" d="M88.074,311.707a.366.366,0,0,1-.388-.388c-1.474-18.459,3.413-39.943,4.421-44.364a32.536,32.536,0,0,1-5.041,2.017c-.233,0-.388,0-.465-.233,0-.233,0-.388.233-.465a32.743,32.743,0,0,0,20.32-18.614c-9.85-.233-15.977-1.086-16.132-1.086a.4.4,0,1,1,.155-.776,209.409,209.409,0,0,0,69.881-4.5c.233,0,.388,0,.465.31,0,.233,0,.388-.31.465a208.151,208.151,0,0,1-53.205,5.584,33.976,33.976,0,0,1-14.969,16.83c-.543,2.094-6.2,25.129-4.576,44.751a.366.366,0,0,1-.388.388h0Z" transform="translate(-53.367 -68.745)" fill="#504d3f"/>
          <path id="Trazado_1268346" data-name="Trazado 1268346" d="M195.6,151.8l6.437-.7,13.418,7.833s.388,10.858.155,11.711c-.31.853-3.18,5.119-3.878,5.429-.776.31-6.825.155-6.825.155l-1.706.62s-13.805-7.523-15.667-9.074,8.144-15.977,8.144-15.977Z" transform="translate(-75.966 -48.054)" fill="#f8cfc7" fill-rule="evenodd"/>
          <path id="Trazado_1268347" data-name="Trazado 1268347" d="M195.577,151.8l6.437-.7,6.748,3.956-9.307,12.565s-2.482,2.947-1.861,6.2a107.661,107.661,0,0,1-10.16-6.05C185.572,166.224,195.577,151.8,195.577,151.8Z" transform="translate(-75.943 -48.054)" fill="#f2a19b" fill-rule="evenodd"/>
          <path id="Trazado_1268348" data-name="Trazado 1268348" d="M167.5,122.478a40.4,40.4,0,0,1,7.6,4.033c3.878,2.637,21.251,15.9,22.1,16.365,0,0,.388.233.388,1.086s-8.919,15.822-15.124,19.39a1.957,1.957,0,0,1-1.861.078c-.776-.543-7.678-4.809-7.678-4.809s-8.454-19.855-5.507-36.22Z" transform="translate(-71.364 -41.614)" fill="#fff" fill-rule="evenodd"/>
          <path id="Trazado_1268349" data-name="Trazado 1268349" d="M186.579,163.684a19.612,19.612,0,0,1-3.878,3.257,1.957,1.957,0,0,1-1.861.078c-.776-.543-7.678-4.809-7.678-4.809a90.372,90.372,0,0,1-5.662-21.872l1.086-1.939,13.03,22.725a5.35,5.35,0,0,0,4.964,2.482Z" transform="translate(-71.522 -45.204)" fill="#f5ebf1" fill-rule="evenodd"/>
          <path id="Trazado_1268350" data-name="Trazado 1268350" d="M89,209.582a4.253,4.253,0,0,1-1.086-1.706c-.31-1.008-1.939-12.565-4.809-18.226S75.2,168.631,75.2,168.631L70,126.749a.586.586,0,0,0,.31-.078c5.119-1.784,14.038-3.956,14.038-3.956l44.441-1.551a32.692,32.692,0,0,1,5.352-.465c3.568-.078,11.711,1.474,11.711,1.474s.465,6.515,1.008,13.961,5.352,24.043,5.894,29.472-.465,11.634-4.809,15.279a131.264,131.264,0,0,0,3.413,21.1c-27.068,9.772-62.28,7.678-62.28,7.678Z" transform="translate(-49.642 -41.231)" fill="#b2dcd4" fill-rule="evenodd"/>
          <path id="Trazado_1268351" data-name="Trazado 1268351" d="M90.348,220.758a4.253,4.253,0,0,1-1.086-1.706c-.31-1.008-1.939-12.565-4.809-18.226s-7.911-21.018-7.911-21.018L76,175.541l5.507-5.041,7.911,8.919s5.119,5.429,12.332,4.964,38.935-2.715,45.139-3.645c6.127-.931,6.9-3.1,6.9-6.36.155.931.31,1.706.388,2.327.543,5.429-.465,11.634-4.809,15.279l-41.649,12.642a9.841,9.841,0,0,0-5.352,5.894c-1.163,4.188-.776,9.54,1.241,10.393-7.911.155-13.107-.155-13.107-.155Z" transform="translate(-50.988 -52.408)" fill="#83d0cd" fill-rule="evenodd"/>
          <path id="Trazado_1268352" data-name="Trazado 1268352" d="M82.478,123.656c2.559-.7,4.5-1.163,4.5-1.163l44.441-2.792a31.927,31.927,0,0,0,5.352.7c3.723,9.54,2.017,22.259-4.886,23.19-6.825,1.008-11.479-9.462-11.479-9.462s.465,13.263-8.376,13.418c-8.842.078-13.418-6.437-19.312-14.5-4.188-5.739-8.3-8.376-10.315-9.385Z" transform="translate(-52.425 -41.008)" fill="#fff" fill-rule="evenodd"/>
          <path id="Trazado_1268353" data-name="Trazado 1268353" d="M212.321,116.846a1.381,1.381,0,0,1,2.172,1.706l-91.907,115.02a1.381,1.381,0,0,1-2.172-1.706l91.907-115.02Z" transform="translate(-60.888 -40.248)" fill="#fff" fill-rule="evenodd"/>
          <path id="Trazado_1268354" data-name="Trazado 1268354" d="M103.729,277.582a1.426,1.426,0,1,1,2.017,2.017S90.466,294.723,98.067,319H95.12c-7.523-25.439,8.531-41.339,8.609-41.339Z" transform="translate(-54.829 -76.347)" fill="#fff" fill-rule="evenodd"/>
          <path id="Trazado_1268355" data-name="Trazado 1268355" d="M77.8,68.986c.465,10.858,3.025,23.345,10.238,30.481,5.274,5.2,17.373,6.05,20.708,0,2.4-4.421-2.559-13.185-2.559-13.185C105.023,84.5,88.5,55.491,84.625,62.393c0,0-3.025,6.36-6.748,6.592Z" transform="translate(-51.392 -27.91)" fill="#504d3f" fill-rule="evenodd"/>
          <path id="Trazado_1268356" data-name="Trazado 1268356" d="M103.191,91.855l-2.249,1.551s.931,7.989,1.163,11.246c.155,3.257-5.507,7.911-13.805,11.4,13.185,12.022,45.682,18.692,44.441-2.792,0,0-5.739-1.706-6.592-6.36S124.6,95.345,124.6,95.345L103.269,91.7Z" transform="translate(-53.749 -34.724)" fill="#f8cfc7" fill-rule="evenodd"/>
          <path id="Trazado_1268357" data-name="Trazado 1268357" d="M106.849,91.878,104.6,93.429s.465,3.955.853,7.523a33.712,33.712,0,0,0,11.091,7.833,12.881,12.881,0,0,0,11.4-1.086,19.338,19.338,0,0,0,1.784-1.474c-.776-4.576-1.474-10.781-1.474-10.781L106.927,91.8Z" transform="translate(-57.407 -34.747)" fill="#ee8880" fill-rule="evenodd"/>
          <path id="Trazado_1268358" data-name="Trazado 1268358" d="M93.766,70.38s-2.4-1.784-3.723-1.4-2.4,3.723-1.706,5.972c.62,2.249,4.809,9.54,8.609,5.662S93.766,70.38,93.766,70.38Z" transform="translate(-53.708 -29.614)" fill="#f8cfc7" fill-rule="evenodd"/>
          <path id="Trazado_1268359" data-name="Trazado 1268359" d="M96.225,73.1c.155.155.31.388.233.543,0,.155-.233.233-.388.155h0s.233,7.213-1.008,6.36A8.171,8.171,0,0,1,91.8,76.742c-.776-1.706.388-3.645-.233-3.956s-1.008.465-1.086.543h0A5.483,5.483,0,0,0,90.1,74.8c0,.233-.155.31-.388.233-.233,0-.31-.31-.31-.543,0,0,.233-2.792,2.094-3.1,1.784-.31,4.731,1.706,4.731,1.706Z" transform="translate(-53.996 -30.159)" fill="#ee8682" fill-rule="evenodd"/>
          <path id="Trazado_1268360" data-name="Trazado 1268360" d="M147.958,64.2s1.861-2.4,3.257-2.4,3.335,2.947,3.335,5.274-1.939,10.548-6.748,7.833C143.072,72.193,147.958,64.2,147.958,64.2Z" transform="translate(-66.639 -28.014)" fill="#f8cfc7" fill-rule="evenodd"/>
          <path id="Trazado_1268361" data-name="Trazado 1268361" d="M146.566,67.521a.472.472,0,0,0,0,.62.22.22,0,0,0,.388,0h0s1.784,6.98,2.715,5.817a8.044,8.044,0,0,0,2.172-4.188c.31-1.861-1.4-3.335-.853-3.878.465-.465,1.086.155,1.163.233h0a5.827,5.827,0,0,1,.776,1.241.311.311,0,0,0,.465.155.6.6,0,0,0,.155-.62s-1.008-2.637-2.87-2.4c-1.784.233-4.033,2.947-4.033,2.947Z" transform="translate(-66.798 -28.616)" fill="#ee8682" fill-rule="evenodd"/>
          <path id="Trazado_1268362" data-name="Trazado 1268362" d="M111.609,26.859C83.455,29.884,91.366,51.445,95.555,69.671c2.017,8.919,9.772,15.977,17.373,19.312a12.881,12.881,0,0,0,11.4-1.086c2.637-1.784,8.609-8.609,8.609-8.609a24.49,24.49,0,0,0,4.033-12.8c.776-18.614,2.87-41.8-25.362-39.633Z" transform="translate(-54.411 -20.141)" fill="#f8cfc7" fill-rule="evenodd"/>
          <path id="Trazado_1268363" data-name="Trazado 1268363" d="M111.6,26.855C87.872,29.414,89.733,45.158,93.456,60.9h1.008c11.789-1.086,12.72-20.243,12.72-20.243l.931-6.05s6.98.155,10.626,2.327,9.074,14.581,9.074,14.581l1.629-4.654a100.509,100.509,0,0,0,5.2-9.307c-3.18-7.135-9.695-11.789-23.035-10.7Z" transform="translate(-54.406 -20.137)" fill="#f2a19b" fill-rule="evenodd"/>
          <path id="Trazado_1268364" data-name="Trazado 1268364" d="M108.5,41.039c.155,0,2.559,1.551,2.559,1.551a8.123,8.123,0,0,1,4.964-1.008s5.352-2.715,10.393-1.551,2.559-3.413,2.559-3.413L120.444,35.3l-7.368.62L108.5,41.039Z" transform="translate(-58.282 -22.068)" fill="#504d3f" fill-rule="evenodd"/>
          <g id="Grupo_1204329" data-name="Grupo 1204329" transform="translate(46.773 31.876)">
            <path id="Trazado_1268365" data-name="Trazado 1268365" d="M125.465,90.818a.506.506,0,1,1,.078-1.008,11.138,11.138,0,0,0,3.413-.31c.31,0,.543.078.62.388,0,.31-.078.543-.388.62a13.124,13.124,0,0,1-3.723.31Z" transform="translate(-108.758 -66.106)" fill="#ee8682" fill-rule="evenodd"/>
            <path id="Trazado_1268366" data-name="Trazado 1268366" d="M121.082,87.553c-.31,0-.465-.388-.388-.7,0-.31.31-.465.62-.388a16,16,0,0,0,9.462-.776.574.574,0,0,1,.7.31.472.472,0,0,1-.31.7,16.746,16.746,0,0,1-10.005.853Z" transform="translate(-107.787 -65.245)" fill="#ee8682" fill-rule="evenodd"/>
            <path id="Trazado_1268367" data-name="Trazado 1268367" d="M128.415,78c.31-.31,0-1.474-.388-2.249-.233-.62-.388-.853-.62-.853-.155,0-.31.233-.543.776-.31.776-.62,1.861-.388,2.249a1.629,1.629,0,0,0,1.939,0Z" transform="translate(-109.071 -62.83)" fill="#f9d4c8" fill-rule="evenodd"/>
            <path id="Trazado_1268368" data-name="Trazado 1268368" d="M128.229,70.1a.491.491,0,1,0-.931.31,58.646,58.646,0,0,1,2.017,6.36c0,.31-.62.776-.853.931a2.416,2.416,0,0,1-1.4.543.506.506,0,0,0,.078,1.008A3.982,3.982,0,0,0,129,78.481a2.742,2.742,0,0,0,1.241-1.551c.155-.62-1.706-5.894-2.094-6.9Z" transform="translate(-109.117 -61.679)" fill="#ee8682" fill-rule="evenodd"/>
            <path id="Trazado_1268369" data-name="Trazado 1268369" d="M135.8,61.945a2.633,2.633,0,0,1-1.318-.078,2.041,2.041,0,0,1-1.086-1.474c0-.233.388.155,1.629-.388,1.163-.465,5.584-1.706,8.609,1.163.543.465.078.853-.543.7a9.861,9.861,0,0,0-7.213,0Z" transform="translate(-110.641 -59.337)" fill="#504d3f" fill-rule="evenodd"/>
            <path id="Trazado_1268370" data-name="Trazado 1268370" d="M137.282,70.79a2.236,2.236,0,0,1-1.318,0,2.451,2.451,0,0,1-1.163-1.474c0-.233.388.155,1.551-.465a8.464,8.464,0,0,1,6.825-.233,1.276,1.276,0,0,0,.7-.931c0-.233.31-.388.543-.388s.388.31.388.543a1.959,1.959,0,0,1-.7,1.241h0a.464.464,0,0,0,.465-.233.442.442,0,0,1,.7.543c-.155.155-.233.31-.388.388.31.465,0,.776-.62.62a8.448,8.448,0,0,0-7.058.388Z" transform="translate(-110.957 -61.124)" fill="#504d3f" fill-rule="evenodd"/>
            <path id="Trazado_1268371" data-name="Trazado 1268371" d="M112.545,64.6a3.588,3.588,0,0,0,1.4-.31,2.369,2.369,0,0,0,.931-1.706c0-.233-.388.155-1.706-.155s-6.2-.931-8.919,2.482c-.465.62,0,.931.7.62a10.1,10.1,0,0,1,7.678-1.008Z" transform="translate(-104.058 -59.974)" fill="#504d3f" fill-rule="evenodd"/>
            <path id="Trazado_1268372" data-name="Trazado 1268372" d="M113.21,72.977a2.323,2.323,0,0,0,1.241-.233,3.136,3.136,0,0,0,.931-1.706c0-.233-.31.155-1.551-.233a8.524,8.524,0,0,0-6.825.931,1.653,1.653,0,0,1-.853-.776.491.491,0,1,0-.931.31,2.4,2.4,0,0,0,.931,1.163h0a.57.57,0,0,1-.465-.155.439.439,0,0,0-.62.62,1.623,1.623,0,0,0,.465.31c-.233.465.155.776.7.465a8.233,8.233,0,0,1,6.98-.776Z" transform="translate(-104.259 -61.837)" fill="#504d3f" fill-rule="evenodd"/>
          </g>
          <path id="Trazado_1268373" data-name="Trazado 1268373" d="M91.214,62.029s3.025-2.559,1.319-9.074c0,0,10.47.155,11.711-14.193,0,0,1.086-3.8,4.964-1.008,2.559-6.593,7.523-6.748,10.548-.388,7.213,14.891,11.711,30.946,7.291,47.311a2.858,2.858,0,0,0,2.559,3.955c-3.335,11.944,30.713,18.149,15.589-29.55-7.833-29.705-15.046-37-29.317-40.176-15.589-3.49-21.872,7.833-21.872,7.833C78.883,29.3,77.331,45.432,77.874,59.392a83.613,83.613,0,0,0,8.842-1.241c1.939-3.413,4.576,3.878,4.576,3.878Z" transform="translate(-51.389 -18.239)" fill="#67614f" fill-rule="evenodd"/>
          <path id="Trazado_1268374" data-name="Trazado 1268374" d="M104.417,21.8A17.092,17.092,0,0,0,98.6,27.539s4.343-1.241,7.523.853c0,0-1.784-3.878-1.706-6.515Z" transform="translate(-56.06 -19.038)" fill="#504d3f" fill-rule="evenodd"/>
          <path id="Trazado_1268375" data-name="Trazado 1268375" d="M87.106,262.822a11.586,11.586,0,0,0,4.654,0c3.18-.543,7.291-1.629,8.609-1.629s8.144-1.241,9.462-2.172c1.318-.853,4.111-3.335,4.576-3.645s1.474.233.776,2.482.7,11.866.7,11.866l-.7.31-1.474,4.188a5.971,5.971,0,0,1-2.249,2.792c-1.474.776-6.825,4.033-6.825,4.033s-3.025,2.094-5.894,1.551-14.038-7.291-14.659-7.756A19.651,19.651,0,0,1,87.106,262.9h0Zm20.476,1.241s-2.715,1.474-3.49,2.017l2.87,1.861S107.969,264.529,107.581,264.063Z" transform="translate(-52.787 -71.437)" fill="#f8cfc7" fill-rule="evenodd"/>
          <path id="Trazado_1268376" data-name="Trazado 1268376" d="M91.422,70.116s2.715-1.474,1.706-7.446c0,0,7.911-2.4,10.626-14.271-.155.233-10.238,14.038-25.75,6.437a78.878,78.878,0,0,0-.233,11.324,83.611,83.611,0,0,0,8.842-1.241c1.939-3.413,4.809,5.2,4.809,5.2Z" transform="translate(-51.364 -25.007)" fill="#504d3f" fill-rule="evenodd"/>
          <path id="Trazado_1268377" data-name="Trazado 1268377" d="M67.867,171,71.2,181.47l-6.825,34.436a4.768,4.768,0,0,0,0,2.715c.465,1.241,3.413,9.152,5.894,14.038,2.482,4.964,5.894,10.548,7.833,11.324L75.08,255.927s-5.041-3.878-11.091-9.074-17.451-19.545-19.235-26.758c-1.784-7.135,1.551-21.251,4.033-42.037,0,0,1.551-6.437,2.947-6.593S67.867,171,67.867,171Z" transform="translate(-43.863 -52.52)" fill="#f8cfc7" fill-rule="evenodd"/>
          <path id="Trazado_1268378" data-name="Trazado 1268378" d="M69.135,171l3.335,10.47L71.384,186.9c-7.446-9.385-17.916-7.989-21.484-7.135a11.766,11.766,0,0,1,.233-1.629s.078-.388.233-1.008c1.086-1.784,2.4-3.956,3.335-5.662,3.18-.155,15.434-.388,15.434-.388Z" transform="translate(-45.131 -52.52)" fill="#f2a19b" fill-rule="evenodd"/>
          <path id="Trazado_1268379" data-name="Trazado 1268379" d="M66.782,127.8a13.284,13.284,0,0,1,5.041,6.05c2.4,5.429,5.2,27.456,2.327,38.779a1.152,1.152,0,0,1-.543.388,21.928,21.928,0,0,0-11.944-6.437c-7.756-1.474-11.789,1.784-11.789,1.784s-.853-.62-.776-1.4c0-.853.776-6.592.776-12.177s0-2.792.233-4.809c1.551-14.116,10.238-19.778,15.357-21.639.388-.155.853-.31,1.318-.465Z" transform="translate(-44.95 -42.826)" fill="#fff" fill-rule="evenodd"/>
          <path id="Trazado_1268380" data-name="Trazado 1268380" d="M217.154,106.678s-5.739,3.1-7.756,5.972S195.2,153.6,192.413,158.409s-70.423,64.374-72.673,66.856-5.274,5.041-5.507,5.429c-.155.31-.388,1.008-.078,1.319s8.687,6.05,12.8,9.617,9.772,11.091,10.315,11.479a1.742,1.742,0,0,0,1.939,0c.776-.31,37.461-31.877,46.07-39.633,8.531-7.756,33.428-39.633,33.971-40.1s1.629-1.474,2.249-1.474-4.266-65.3-4.266-65.3Z" transform="translate(-59.517 -38.068)" fill="#fff" fill-rule="evenodd"/>
          <path id="Trazado_1268381" data-name="Trazado 1268381" d="M208.872,173.4c-1.008,1.706-10.238,10.47-21.872,21.018,7.058,19.312,8.919,27.766,9.928,27.844s1.474-1.551,1.474-1.551Z" transform="translate(-75.898 -53.059)" fill="#f5ebf1" fill-rule="evenodd"/>
          <rect id="Rect치ngulo_455342" data-name="Rect치ngulo 455342" width="22.027" height="34.281" transform="translate(185.869 208.293)" fill="#504d3f"/>
          <path id="Trazado_1268382" data-name="Trazado 1268382" d="M270.62,65.378s1.008,15.434,1.086,17.528c0,2.017-4.033,5.2-8.842,7.368s-16.83,6.67-17.683,7.213-1.318,9.617-1.474,13.961-3.568,21.639-4.343,26.758c-.853,5.119,2.715,18.614,9.617,24.431a84.4,84.4,0,0,1,.078,25.982c-2.172,14.5-10.393,42.037-8.609,68.329,0,0,47.078,9.85,92.76,0,0,0,4.809-26.448-2.4-49.405-7.29-22.957-9.85-28.7-9.85-39.555s6.67-22.725,8.609-29.085c1.861-6.36,9.307-35.444,6.36-43.278a7.428,7.428,0,0,0-3.568-3.8c-2.637-1.241-23.655-6.282-26.448-7.756S302.652,78.8,302.264,65.3H270.775Z" transform="translate(-87.621 -28.8)" fill="#67614f" fill-rule="evenodd"/>
          <path id="Trazado_1268383" data-name="Trazado 1268383" d="M301.666,143.7l-12.952,4.111s-4.654,9-11.556,9H254.2l10.548,28.619s29.085-.388,29.085-3.956S301.666,143.7,301.666,143.7Z" transform="translate(-90.979 -46.394)" fill="#504d3f" fill-rule="evenodd"/>
          <path id="Trazado_1268384" data-name="Trazado 1268384" d="M343.736,238.552a93.035,93.035,0,0,0-3.956-26.137c-7.291-22.957-11.944-28.619-11.944-39.4s6.67-22.725,8.609-29.085c1.861-6.36,9.307-35.444,6.36-43.278a7.428,7.428,0,0,0-3.568-3.8C336.6,95.611,315.582,90.57,312.79,89.1a4.4,4.4,0,0,1-1.551-1.4h0s-17.451,43.743-18.924,47.466-21.1,27.223-21.639,30.558c-.233,1.163-.7,15.667-.776,34.2,6.98,9.85,14.814,21.717,14.814,21.717s7.833,20.941,8.764,22.957c.931,1.939,3.335,3.645,7.911,3.257s38.935-6.9,40.408-7.446a3.739,3.739,0,0,0,2.017-1.861Z" transform="translate(-94.502 -33.827)" fill="#fff" fill-rule="evenodd"/>
          <path id="Trazado_1268385" data-name="Trazado 1268385" d="M346.05,228.483c-.078-.31-.155-.543-.233-.853-7.291-22.957-11.944-28.619-11.944-39.4s5.584-20.708,7.989-27.3c-2.172-2.947-4.033-5.429-4.033-5.429l-13.805,24.276s-1.086,4.5-10.781,7.058c-9.695,2.637-15.279,2.637-15.279,2.637s-1.163-.155-1.163.853,1.086,1.086,2.87,1.551c1.706.465,33.505,5.352,41.261,27.068,2.017,5.662,3.723,8.531,5.119,9.617Z" transform="translate(-100.538 -49.042)" fill="#f5ebf1" fill-rule="evenodd"/>
          <path id="Trazado_1268386" data-name="Trazado 1268386" d="M295.544,66.513c8.687,0,15.744-.776,15.744-1.706S304.231,63.1,295.544,63.1s-15.744.776-15.744,1.706S286.858,66.513,295.544,66.513Z" transform="translate(-96.723 -28.306)" fill="#504d3f" fill-rule="evenodd"/>
          <path id="Trazado_1268387" data-name="Trazado 1268387" d="M271.651,88.8c-.7,2.017-4.421,4.809-8.687,6.67-4.809,2.172-16.83,6.67-17.683,7.213s-1.318,9.617-1.474,13.961-3.568,21.639-4.343,26.758c-.853,5.119,2.715,18.614,9.617,24.431,0,0,1.939,13.573.078,25.982-1.861,12.332-7.756,26.68-9.695,44.907a2.826,2.826,0,0,0,1.474,2.327c1.4.7,23.113,6.825,26.37,6.98s4.188-.155,5.2-2.327,4.809-14.271,5.274-22.8c-.543-22.8-1.939-46.148-4.188-51.887-4.654-12.1-13.961-22.027-13.573-28.542s6.36-34.2,8.609-41.261A99.856,99.856,0,0,0,271.651,88.8Z" transform="translate(-87.644 -34.074)" fill="#fff" fill-rule="evenodd"/>
          <path id="Trazado_1268388" data-name="Trazado 1268388" d="M251.778,190.7a99.121,99.121,0,0,1,.853,13.107c6.9-4.033,11.944-5.972,12.022-6.748a1.051,1.051,0,0,0-.543-1.163L251.7,190.7Z" transform="translate(-90.418 -56.941)" fill="#f5ebf1" fill-rule="evenodd"/>
          <path id="Trazado_1268389" data-name="Trazado 1268389" d="M356.305,99.578s6.67,2.637,10.315,11.944,6.9,67.709,8.842,89.5.62,69.958.62,69.958-.078.7-.465.7a53.492,53.492,0,0,1-11.944-1.939c-5.352-1.629-13.728-6.36-16.365-7.058,0,0-1.008-.7-1.008-1.241,0-.62,2.559-42.347,2.792-52.973.233-10.548,1.241-27.921.155-42.114-1.008-14.193-.62-20.32-.388-23.5.31-3.18,5.2-29.395,6.127-34.979s1.241-8.376,1.241-8.376Z" transform="translate(-111.647 -36.475)" fill="#fff" fill-rule="evenodd"/>
          <path id="Trazado_1268390" data-name="Trazado 1268390" d="M378.1,240.1c.931,18.226.543,45.217.31,56.773L356,288.419Z" transform="translate(-113.824 -68.027)" fill="#f5ebf1" fill-rule="evenodd"/>
          <path id="Trazado_1268391" data-name="Trazado 1268391" d="M272.391,245.949h-.155a.374.374,0,0,1-.155-.543c1.086-2.327,4.809-14.426,5.2-22.647-.465-21.1-1.861-45.76-4.111-51.732-2.87-5.041-7.833-11.4-12.254-17.063-4.111-5.2-7.29-9.307-7.678-10.936-.62-3.18-1.008-32.575-1.008-33.816,0-.155,0-.233.155-.31l3.8-2.637-3.568-4.964c0-.078-.078-.155,0-.31a.6.6,0,0,1,.155-.233l6.2-4.266c.155-.155.388,0,.543.078.155.155,0,.388-.078.543l-5.894,4.033,3.335,4.654,12.254-8.454c1.086-4.111,1.784-7.368,2.017-8.842a.342.342,0,0,1,.465-.31c.233,0,.31.233.31.465a87.515,87.515,0,0,1-2.094,9h0c-.31,1.086-.62,2.249-1.008,3.413-2.172,6.748-8.144,34.514-8.531,41.184-.233,3.568,2.637,8.221,5.894,13.728a96.3,96.3,0,0,1,7.678,14.659h0c2.947,7.6,3.956,41.727,4.188,52.042-.465,8.919-4.343,21.018-5.274,23.035,0,.155-.233.233-.31.233ZM253,109.445c0,2.715.388,30.481,1.008,33.428.31,1.4,3.645,5.662,7.523,10.626,3.18,4.033,6.67,8.531,9.462,12.642-1.706-3.413-3.645-6.67-5.429-9.695-3.335-5.584-6.282-10.393-6.05-14.193.388-6.67,6.437-34.591,8.609-41.416l.7-2.327L253,109.368ZM323.269,240.6h0a.366.366,0,0,1-.388-.388c1.008-17.994,1.629-29.472,1.706-34.2,0-2.4.155-5.2.233-8.144.31-10.238.776-23.035,0-33.893-1.008-13.65-.7-20.01-.388-23.578.155-2.094,2.327-14.116,4.111-23.733.931-5.041,1.706-9.307,2.017-11.246,0-.233.233-.31.465-.31a.342.342,0,0,1,.31.465c-.31,1.939-1.086,6.282-2.017,11.246-1.706,9.617-3.878,21.561-4.111,23.655-.31,3.568-.621,9.772.388,23.423.776,10.936.388,23.733,0,33.971q-.116,4.537-.233,8.144c-.078,4.731-.7,16.21-1.706,34.281a.366.366,0,0,1-.388.388ZM248.89,168.08a.285.285,0,0,1-.233-.078c-7.135-5.972-10.548-19.622-9.695-24.741.233-1.4.7-3.8,1.163-6.515,1.318-7.213,3.1-16.985,3.18-20.165a.416.416,0,0,1,.388-.388.366.366,0,0,1,.388.388c-.155,3.18-1.939,13.03-3.257,20.243-.465,2.715-.931,5.119-1.163,6.515-.776,4.886,2.637,18.381,9.462,24.043a.375.375,0,0,1,0,.543c0,.078-.155.155-.31.155Z" transform="translate(-87.53 -33.933)" fill="#e5dbe2"/>
          <path id="Trazado_1268392" data-name="Trazado 1268392" d="M278.886,165.013c-.155,0-.233,0-.31-.155a.383.383,0,0,1,.078-.543c.233-.155,25.207-17.606,27.533-20.708,2.249-2.947,17.839-28.309,19.7-31.334L308.668,99.708a.388.388,0,1,1,.465-.62l11.944,8.764,8.609-7.6-3.257-5.817a.4.4,0,0,1,.7-.388l3.413,6.127a.476.476,0,0,1-.078.465l-8.687,7.678,4.886,3.568a.374.374,0,0,1,.078.543c-.7,1.163-17.528,28.542-19.933,31.722s-26.68,20.165-27.689,20.863h-.233Z" transform="translate(-96.43 -35.209)" fill="#e5dbe2"/>
          <path id="Trazado_1268393" data-name="Trazado 1268393" d="M106.3,281.409c-.078,0-.233,0-.233-.155s0-.31.155-.31c.233-.078,6.05-1.939,7.6-2.327a3.467,3.467,0,0,0,2.094-1.474l1.241-4.576c0-.155.155-.233.31-.155.155,0,.233.155.155.31l-1.241,4.654a3.761,3.761,0,0,1-2.559,1.861c-1.551.31-7.523,2.249-7.6,2.249h-.078Zm-3.49-2.792c-.155,0-.233-.078-.31-.233,0-.155.078-.31.233-.31.078,0,7.911-1.241,9.617-1.551,1.474-.31,1.861-2.4,1.861-2.4l.465-3.258c0-.155.155-.233.31-.233s.233.155.233.31l-.465,3.335c0,.078-.465,2.559-2.327,2.87-1.706.31-9.54,1.551-9.617,1.551h0Zm3.568-4.654a.206.206,0,0,1-.233-.233s-.31-1.008-2.172-1.939l-.543.31a.28.28,0,0,1-.31-.465l.62-.31h0L108.084,269a.28.28,0,1,1,.31.465l-3.956,2.094a4.633,4.633,0,0,1,2.017,1.939l3.956-.543.388-1.939c0-.155.155-.233.31-.233s.233.155.233.31l-.465,2.094a.35.35,0,0,1-.233.233l-4.343.62h0Z" transform="translate(-56.935 -74.512)" fill="#ee8682"/>
          <g id="Grupo_1204330" data-name="Grupo 1204330" transform="translate(151.355 59.774)">
            <path id="Trazado_1268394" data-name="Trazado 1268394" d="M263,97.1s4.654.155,5.352.31.388,2.094-.853,2.482a16.347,16.347,0,0,1-4.188.155L263,97.1Z" transform="translate(-244.308 -95.71)" fill="#f8cfc7" fill-rule="evenodd"/>
            <path id="Trazado_1268395" data-name="Trazado 1268395" d="M257.478,97.188s3.645-.31,4.576-.388c.931,0,1.784,1.939,2.482,3.413a31.507,31.507,0,0,0,1.784,2.87c.155.388.31,1.086-.7,1.706s-2.327-.853-3.18-2.094-1.861-2.637-1.861-2.637l-.776.465-2.4-3.335Z" transform="translate(-243.052 -95.643)" fill="#f8cfc7" fill-rule="evenodd"/>
            <path id="Trazado_1268396" data-name="Trazado 1268396" d="M249.8,98.094s2.87-2.249,3.1-2.4a1.63,1.63,0,0,1,2.094,0c1.086.776,2.559,1.629,2.947,3.025S259.883,105,259.883,105a3.364,3.364,0,0,1,1.629,1.629c.31,1.008-1.629,2.792-3.335,1.474s-3.335-5.972-3.335-5.972l-1.086.543-3.956-4.5Z" transform="translate(-241.346 -95.308)" fill="#f8cfc7" fill-rule="evenodd"/>
            <path id="Trazado_1268397" data-name="Trazado 1268397" d="M242.9,104.04s1.706-2.87,2.559-4.033c.776-1.163,1.4-2.559,3.568-1.861,2.172.776,2.094.7,2.87,3.1s1.706,5.662,1.706,5.662a6.642,6.642,0,0,1,1.629,1.4,1.689,1.689,0,0,1-1.241,2.094c-1.163.31-3.257-1.474-3.8-2.482s-1.474-3.18-1.474-3.18l-2.172.853-3.645-1.629Z" transform="translate(-239.798 -95.903)" fill="#f8cfc7" fill-rule="evenodd"/>
            <path id="Trazado_1268398" data-name="Trazado 1268398" d="M238.9,110.574a22.754,22.754,0,0,1,1.163-4.809,2.046,2.046,0,0,1,2.559-1.008,24.8,24.8,0,0,1,3.956,2.559c.62.543.543,3.025-1.163,3.645s-3.8-1.008-4.886-1.784l-1.551,1.4Z" transform="translate(-238.9 -97.395)" fill="#f8cfc7" fill-rule="evenodd"/>
            <path id="Trazado_1268399" data-name="Trazado 1268399" d="M241.025,107.831a.347.347,0,1,1-.62.31,3.049,3.049,0,0,1-.233-2.017c0-.155.233-.31.465-.233.155,0,.31.233.233.465a2.153,2.153,0,0,0,.233,1.474h-.078Zm16.132-7.368c0,.155,0,.388-.233.465-.155,0-.388,0-.465-.233l-.233-.7c0-.155,0-.388.233-.465.155,0,.388,0,.465.233l.233.7Zm-4.343,6.515a.347.347,0,0,1,.31.62l-.7.388a.347.347,0,1,1-.31-.62l.7-.388Zm4.731-1.474a.347.347,0,1,1,.31.62l-1.163.62a.347.347,0,1,1-.31-.62l1.163-.62Zm-4.576-2.637c0,.155,0,.388-.155.465-.155,0-.388,0-.465-.155l-1.4-3.413c0-.155,0-.388.155-.465.155,0,.388,0,.465.155l1.4,3.413h0Zm-4.964,1.319h0l.388.776a.347.347,0,1,1-.62.31,3.7,3.7,0,0,1-.31-.62h-.853c-.155,0-.31-.233-.31-.388a.355.355,0,0,1,.388-.31h.465a8.01,8.01,0,0,1-.543-1.629c0-.155.078-.388.233-.388s.388.078.388.233a11.449,11.449,0,0,0,.776,2.094Z" transform="translate(-239.164 -96.204)" fill="#f2a19b" fill-rule="evenodd"/>
            <path id="Trazado_1268400" data-name="Trazado 1268400" d="M244.3,103.2c1.163.31,2.792.776,3.8,1.008.078.233.155.388.233.62,0,.155.078.233.155.388l.388.776-1.706.7c-.31-.233-.7-.543-1.163-.853a18.081,18.081,0,0,0-2.327-1.4H243.6c.233-.388.465-.776.776-1.241Z" transform="translate(-239.955 -97.079)" fill="#f2a19b" fill-rule="evenodd"/>
            <path id="Trazado_1268401" data-name="Trazado 1268401" d="M251.376,97.5l2.249,1.629,1.008,2.4.388,1.008-.853.388a6.826,6.826,0,0,0-.388-1.163,1.481,1.481,0,0,0-.233-.62c-.776-2.4-.776-2.327-2.87-3.1H250.6c.233-.155.465-.388.7-.543Z" transform="translate(-241.526 -95.8)" fill="#f2a19b" fill-rule="evenodd"/>
            <path id="Trazado_1268402" data-name="Trazado 1268402" d="M259.253,97.1l.931,1.474.543.853v.155l.233.543-.31.233-.31.155a2.466,2.466,0,0,0-.233-.7,3.606,3.606,0,0,0-.233-.7,3.96,3.96,0,0,0-1.474-1.939h.853Z" transform="translate(-243.276 -95.71)" fill="#f2a19b" fill-rule="evenodd"/>
            <path id="Trazado_1268403" data-name="Trazado 1268403" d="M265.6,97.953l2.094,1.939c-.465.078-1.008.155-1.706.233-.31-.62-.62-1.318-1.008-1.939A6.566,6.566,0,0,0,264.2,97.1h.465l.853.776Z" transform="translate(-244.578 -95.71)" fill="#f2a19b" fill-rule="evenodd"/>
          </g>
          <path id="Trazado_1268404" data-name="Trazado 1268404" d="M113.62,279.2c-.388,2.559-.931,10.47,5.584,15.667l.62.465c7.135,5.739,14.038,11.246,15.124,24.043h-2.87c-1.163-11.479-7.446-16.52-14.038-21.872l-.62-.465c-6.98-5.584-7.058-13.728-6.748-17.373l2.87-.465Z" transform="translate(-58.749 -76.801)" fill="#fff" fill-rule="evenodd"/>
          <path id="Trazado_1268405" data-name="Trazado 1268405" d="M279.429,203.823a1.748,1.748,0,0,0,1.629-1.861,1.643,1.643,0,1,0-1.629,1.861Z" transform="translate(-96.275 -59.05)" fill="#e5dbe2" fill-rule="evenodd"/>
          <path id="Trazado_1268406" data-name="Trazado 1268406" d="M280.029,240.223a1.748,1.748,0,0,0,1.629-1.861,1.643,1.643,0,1,0-1.629,1.861Z" transform="translate(-96.409 -67.219)" fill="#e5dbe2" fill-rule="evenodd"/>
          <path id="Trazado_1268407" data-name="Trazado 1268407" d="M97.3,104.8h0c-15.9-2.327-15.9-23.5-15.9-23.655a.366.366,0,0,1,.388-.388h0a.366.366,0,0,1,.388.388c0,.233,0,20.708,15.2,22.88a.342.342,0,0,1,.31.465A.355.355,0,0,1,97.3,104.8ZM92.956,66.02a.515.515,0,0,1-.388-.31.425.425,0,0,1,.31-.465c7.135-1.4,9.074-11.556,9.074-11.634,0-.233.233-.31.465-.31s.31.233.31.465c-.078.465-2.017,10.7-9.695,12.254h0Z" transform="translate(-52.2 -26.107)" fill="#504d3f"/>
          <path id="Trazado_1268408" data-name="Trazado 1268408" d="M74.968,236.175a.285.285,0,0,1-.233-.078s-5.119-3.956-11.091-9.074c-6.2-5.352-17.606-19.855-19.39-26.913-1.241-5.041,0-13.5,1.706-25.052.776-5.041,1.551-10.781,2.327-17.063a.4.4,0,0,1,.776.155c-.776,6.282-1.629,12.022-2.327,17.063-1.706,11.556-2.87,19.855-1.706,24.819,1.706,6.98,12.952,21.251,19.079,26.525,5.972,5.119,11.013,9.074,11.091,9.074.155.155.233.388,0,.543,0,.078-.155.155-.31.155Zm31.8-133.712a13.168,13.168,0,0,1-4.731-.853C95.288,98.663,86.6,91.76,84.43,82.065a.4.4,0,0,1,.776-.155c2.172,9.385,10.626,16.132,17.218,19.079a12.813,12.813,0,0,0,8.531.155c.233,0,.388,0,.465.233,0,.233,0,.388-.233.465a14.242,14.242,0,0,1-4.421.7Z" transform="translate(-43.752 -32.458)" fill="#fff"/>
        </g>
        <g id="Grupo_1204333" data-name="Grupo 1204333" transform="translate(164.192 213.645)">
          <path id="Trazado_1268409" data-name="Trazado 1268409" d="M229.8,329.609h21.716a2.416,2.416,0,0,0,2.4-2.4h0a2.416,2.416,0,0,0-2.4-2.4H229.8a2.416,2.416,0,0,0-2.4,2.4h0A2.416,2.416,0,0,0,229.8,329.609Z" transform="translate(-227.4 -300.679)" fill="#fff" fill-rule="evenodd"/>
          <path id="Trazado_1268410" data-name="Trazado 1268410" d="M231.963,296.8H250.81a1.142,1.142,0,0,1,1.163,1.163V319.68a1.142,1.142,0,0,1-1.163,1.163H231.963a1.142,1.142,0,0,1-1.163-1.163V297.963A1.142,1.142,0,0,1,231.963,296.8Z" transform="translate(-228.163 -294.396)" fill="#f6c4bf" fill-rule="evenodd"/>
          <path id="Trazado_1268411" data-name="Trazado 1268411" d="M229.8,298.509h21.716a2.416,2.416,0,0,0,2.4-2.4h0a2.416,2.416,0,0,0-2.4-2.4H229.8a2.416,2.416,0,0,0-2.4,2.4h0A2.416,2.416,0,0,0,229.8,298.509Z" transform="translate(-227.4 -293.7)" fill="#fff" fill-rule="evenodd"/>
          <path id="Trazado_1268412" data-name="Trazado 1268412" d="M240.2,297.3h6.282a.7.7,0,0,0,.7-.7h0a.7.7,0,0,0-.7-.7H240.2a.7.7,0,0,0-.7.7h0A.7.7,0,0,0,240.2,297.3Z" transform="translate(-230.115 -294.194)" fill="#f6c4bf" fill-rule="evenodd"/>
          <g id="Grupo_1204332" data-name="Grupo 1204332" transform="translate(2.327 5.972)">
            <path id="Trazado_1268413" data-name="Trazado 1268413" d="M251.961,302.02H230.71a.31.31,0,1,1,0-.62h21.251a.31.31,0,1,1,0,.62Z" transform="translate(-230.4 -301.4)" fill="#fff"/>
            <path id="Trazado_1268414" data-name="Trazado 1268414" d="M251.961,304.22H230.71a.31.31,0,1,1,0-.62h21.251a.31.31,0,1,1,0,.62Z" transform="translate(-230.4 -301.894)" fill="#fff"/>
            <path id="Trazado_1268415" data-name="Trazado 1268415" d="M251.961,306.42H230.71a.31.31,0,1,1,0-.62h21.251a.31.31,0,1,1,0,.62Z" transform="translate(-230.4 -302.387)" fill="#fff"/>
            <path id="Trazado_1268416" data-name="Trazado 1268416" d="M251.961,308.72H230.71a.31.31,0,1,1,0-.62h21.251a.31.31,0,1,1,0,.62Z" transform="translate(-230.4 -302.904)" fill="#fff"/>
            <path id="Trazado_1268417" data-name="Trazado 1268417" d="M251.961,310.92H230.71a.31.31,0,1,1,0-.62h21.251a.31.31,0,1,1,0,.62Z" transform="translate(-230.4 -303.397)" fill="#fff"/>
            <path id="Trazado_1268418" data-name="Trazado 1268418" d="M251.961,313.22H230.71a.31.31,0,1,1,0-.62h21.251a.31.31,0,1,1,0,.62Z" transform="translate(-230.4 -303.913)" fill="#fff"/>
            <path id="Trazado_1268419" data-name="Trazado 1268419" d="M251.961,315.42H230.71a.31.31,0,1,1,0-.62h21.251a.31.31,0,1,1,0,.62Z" transform="translate(-230.4 -304.407)" fill="#fff"/>
            <path id="Trazado_1268420" data-name="Trazado 1268420" d="M251.961,317.62H230.71a.31.31,0,1,1,0-.62h21.251a.31.31,0,1,1,0,.62Z" transform="translate(-230.4 -304.901)" fill="#fff"/>
            <path id="Trazado_1268421" data-name="Trazado 1268421" d="M251.961,319.92H230.71a.31.31,0,1,1,0-.62h21.251a.31.31,0,1,1,0,.62Z" transform="translate(-230.4 -305.417)" fill="#fff"/>
            <path id="Trazado_1268422" data-name="Trazado 1268422" d="M251.961,322.12H230.71a.31.31,0,1,1,0-.62h21.251a.31.31,0,1,1,0,.62Z" transform="translate(-230.4 -305.911)" fill="#fff"/>
            <path id="Trazado_1268423" data-name="Trazado 1268423" d="M251.961,324.32H230.71a.31.31,0,1,1,0-.62h21.251a.31.31,0,1,1,0,.62Z" transform="translate(-230.4 -306.404)" fill="#fff"/>
          </g>
        </g>
        <path id="Trazado_1268424" data-name="Trazado 1268424" d="M162.153,316.5h43.278a.861.861,0,0,1,.853.853v9.617a.861.861,0,0,1-.853.853H162.153a.861.861,0,0,1-.853-.853v-9.617A.861.861,0,0,1,162.153,316.5Z" transform="translate(-48.374 -85.172)" fill="#fff" fill-rule="evenodd"/>
        <path id="Trazado_1268425" data-name="Trazado 1268425" d="M153.9,314.7h7.756a.7.7,0,0,1,.7.7v11.246a.7.7,0,0,1-.7.7H153.9a.7.7,0,0,1-.7-.7V315.4a.7.7,0,0,1,.7-.7Zm1.939,5.352a1.008,1.008,0,1,0,1.008,1.008A1.027,1.027,0,0,0,155.837,320.052Z" transform="translate(-46.557 -84.768)" fill="#fff" fill-rule="evenodd"/>
        <g id="Grupo_1204334" data-name="Grupo 1204334" transform="translate(117.812 232.569)">
          <path id="Trazado_1268426" data-name="Trazado 1268426" d="M167.833,319.651a.206.206,0,0,1-.233-.233v-1.086a.233.233,0,0,1,.465,0v1.086A.206.206,0,0,1,167.833,319.651Z" transform="translate(-167.6 -318.1)" fill="#f6c4bf"/>
          <path id="Trazado_1268427" data-name="Trazado 1268427" d="M170.933,319.651a.206.206,0,0,1-.233-.233v-1.086a.233.233,0,0,1,.465,0v1.086A.206.206,0,0,1,170.933,319.651Z" transform="translate(-168.296 -318.1)" fill="#f6c4bf"/>
          <path id="Trazado_1268428" data-name="Trazado 1268428" d="M173.933,319.651a.206.206,0,0,1-.233-.233v-1.086a.233.233,0,0,1,.465,0v1.086A.206.206,0,0,1,173.933,319.651Z" transform="translate(-168.969 -318.1)" fill="#f6c4bf"/>
          <path id="Trazado_1268429" data-name="Trazado 1268429" d="M176.933,319.651a.206.206,0,0,1-.233-.233v-1.086a.233.233,0,0,1,.465,0v1.086A.206.206,0,0,1,176.933,319.651Z" transform="translate(-169.642 -318.1)" fill="#f6c4bf"/>
          <path id="Trazado_1268430" data-name="Trazado 1268430" d="M180.033,319.651a.206.206,0,0,1-.233-.233v-1.086a.233.233,0,0,1,.465,0v1.086A.206.206,0,0,1,180.033,319.651Z" transform="translate(-170.338 -318.1)" fill="#f6c4bf"/>
          <path id="Trazado_1268431" data-name="Trazado 1268431" d="M183.033,319.651a.206.206,0,0,1-.233-.233v-1.086a.233.233,0,0,1,.465,0v1.086A.206.206,0,0,1,183.033,319.651Z" transform="translate(-171.011 -318.1)" fill="#f6c4bf"/>
          <path id="Trazado_1268432" data-name="Trazado 1268432" d="M186.033,319.651a.206.206,0,0,1-.233-.233v-1.086a.233.233,0,0,1,.465,0v1.086A.206.206,0,0,1,186.033,319.651Z" transform="translate(-171.684 -318.1)" fill="#f6c4bf"/>
          <path id="Trazado_1268433" data-name="Trazado 1268433" d="M189.133,319.651a.206.206,0,0,1-.233-.233v-1.086a.233.233,0,0,1,.465,0v1.086A.206.206,0,0,1,189.133,319.651Z" transform="translate(-172.38 -318.1)" fill="#f6c4bf"/>
          <path id="Trazado_1268434" data-name="Trazado 1268434" d="M192.133,319.651a.206.206,0,0,1-.233-.233v-1.086a.233.233,0,0,1,.465,0v1.086A.206.206,0,0,1,192.133,319.651Z" transform="translate(-173.053 -318.1)" fill="#f6c4bf"/>
          <path id="Trazado_1268435" data-name="Trazado 1268435" d="M195.133,319.651a.206.206,0,0,1-.233-.233v-1.086a.233.233,0,0,1,.465,0v1.086A.206.206,0,0,1,195.133,319.651Z" transform="translate(-173.726 -318.1)" fill="#f6c4bf"/>
          <path id="Trazado_1268436" data-name="Trazado 1268436" d="M198.233,319.651a.206.206,0,0,1-.233-.233v-1.086a.233.233,0,0,1,.465,0v1.086A.206.206,0,0,1,198.233,319.651Z" transform="translate(-174.422 -318.1)" fill="#f6c4bf"/>
          <path id="Trazado_1268437" data-name="Trazado 1268437" d="M201.233,319.651a.206.206,0,0,1-.233-.233v-1.086a.233.233,0,0,1,.465,0v1.086A.206.206,0,0,1,201.233,319.651Z" transform="translate(-175.095 -318.1)" fill="#f6c4bf"/>
          <path id="Trazado_1268438" data-name="Trazado 1268438" d="M204.233,319.651a.206.206,0,0,1-.233-.233v-1.086a.233.233,0,0,1,.465,0v1.086A.206.206,0,0,1,204.233,319.651Z" transform="translate(-175.769 -318.1)" fill="#f6c4bf"/>
          <path id="Trazado_1268439" data-name="Trazado 1268439" d="M207.233,319.651a.206.206,0,0,1-.233-.233v-1.086a.233.233,0,0,1,.465,0v1.086A.206.206,0,0,1,207.233,319.651Z" transform="translate(-176.442 -318.1)" fill="#f6c4bf"/>
          <path id="Trazado_1268440" data-name="Trazado 1268440" d="M210.333,319.651a.206.206,0,0,1-.233-.233v-1.086a.233.233,0,0,1,.465,0v1.086A.206.206,0,0,1,210.333,319.651Z" transform="translate(-177.137 -318.1)" fill="#f6c4bf"/>
          <path id="Trazado_1268441" data-name="Trazado 1268441" d="M213.333,319.651a.206.206,0,0,1-.233-.233v-1.086a.233.233,0,0,1,.465,0v1.086A.206.206,0,0,1,213.333,319.651Z" transform="translate(-177.811 -318.1)" fill="#f6c4bf"/>
          <path id="Trazado_1268442" data-name="Trazado 1268442" d="M216.333,319.651a.206.206,0,0,1-.233-.233v-1.086a.233.233,0,0,1,.465,0v1.086A.206.206,0,0,1,216.333,319.651Z" transform="translate(-178.484 -318.1)" fill="#f6c4bf"/>
        </g>
        <g id="Grupo_1204335" data-name="Grupo 1204335" transform="translate(0 193.014)">
          <path id="Trazado_1268443" data-name="Trazado 1268443" d="M31.868,267.1A12.3,12.3,0,0,1,42.959,274H20.7a12.386,12.386,0,0,1,11.091-6.9Z" transform="translate(-16.822 -267.1)" fill="#b2dcd4" fill-rule="evenodd"/>
          <path id="Trazado_1268444" data-name="Trazado 1268444" d="M45.715,305.844v8.609a4.667,4.667,0,0,1-4.654,4.654H20.354a4.667,4.667,0,0,1-4.654-4.654V299.561c0-3.645,3.878-11.246,3.878-15.744V278H41.76v5.817c0,4.5,3.878,12.022,3.878,15.744v6.282Z" transform="translate(-15.7 -269.546)" fill="#fff" fill-rule="evenodd"/>
          <path id="Trazado_1268445" data-name="Trazado 1268445" d="M20.8,282.731V278H42.982v5.817a7.1,7.1,0,0,0,.078,1.241Z" transform="translate(-16.844 -269.546)" fill="#f6c4bf" fill-rule="evenodd"/>
          <path id="Trazado_1268446" data-name="Trazado 1268446" d="M21.049,295.4l-.155.543c-.62,1.861-2.094,5.662-2.094,7.523v14.891a2.251,2.251,0,0,0,2.249,2.249H41.757a2.251,2.251,0,0,0,2.249-2.249V303.466c0-1.861-1.474-5.662-2.094-7.523l-.155-.543H21.049Z" transform="translate(-16.396 -273.451)" fill="#b2dcd4" fill-rule="evenodd"/>
          <path id="Trazado_1268447" data-name="Trazado 1268447" d="M20.441,274.9H42.623a1.225,1.225,0,0,1,1.241,1.241v2.4a1.225,1.225,0,0,1-1.241,1.241H20.441a1.225,1.225,0,0,1-1.241-1.241v-2.4A1.225,1.225,0,0,1,20.441,274.9Z" transform="translate(-16.485 -268.85)" fill="#fff" fill-rule="evenodd"/>
        </g>
        <g id="Grupo_1204337" data-name="Grupo 1204337" transform="translate(25.75 221.943)">
          <path id="Trazado_1268448" data-name="Trazado 1268448" d="M50.606,330.013H66.118a1.721,1.721,0,0,0,1.706-1.706h0a1.721,1.721,0,0,0-1.706-1.706H50.606a1.721,1.721,0,0,0-1.706,1.706h0A1.721,1.721,0,0,0,50.606,330.013Z" transform="translate(-48.9 -309.382)" fill="#67614f" fill-rule="evenodd"/>
          <path id="Trazado_1268449" data-name="Trazado 1268449" d="M52.153,306.6H65.571a.861.861,0,0,1,.853.853v15.512a.861.861,0,0,1-.853.853H52.153a.861.861,0,0,1-.853-.853V307.453a.861.861,0,0,1,.853-.853Z" transform="translate(-49.439 -304.894)" fill="#504d3f" fill-rule="evenodd"/>
          <path id="Trazado_1268450" data-name="Trazado 1268450" d="M50.606,307.813H66.118a1.721,1.721,0,0,0,1.706-1.706h0a1.721,1.721,0,0,0-1.706-1.706H50.606a1.721,1.721,0,0,0-1.706,1.706h0A1.721,1.721,0,0,0,50.606,307.813Z" transform="translate(-48.9 -304.4)" fill="#67614f" fill-rule="evenodd"/>
          <path id="Trazado_1268451" data-name="Trazado 1268451" d="M58.065,307.031h4.5a.5.5,0,0,0,.465-.465h0a.5.5,0,0,0-.465-.465h-4.5a.5.5,0,0,0-.465.465h0A.5.5,0,0,0,58.065,307.031Z" transform="translate(-50.852 -304.782)" fill="#fff" fill-rule="evenodd"/>
          <g id="Grupo_1204336" data-name="Grupo 1204336" transform="translate(1.629 4.266)">
            <path id="Trazado_1268452" data-name="Trazado 1268452" d="M66.357,310.365H51.233a.233.233,0,1,1,0-.465H66.357a.233.233,0,0,1,0,.465Z" transform="translate(-51 -309.9)" fill="#f19da1"/>
            <path id="Trazado_1268453" data-name="Trazado 1268453" d="M66.357,311.965H51.233a.233.233,0,1,1,0-.465H66.357a.233.233,0,0,1,0,.465Z" transform="translate(-51 -310.259)" fill="#f19da1"/>
            <path id="Trazado_1268454" data-name="Trazado 1268454" d="M66.357,313.565H51.233a.233.233,0,1,1,0-.465H66.357a.233.233,0,0,1,0,.465Z" transform="translate(-51 -310.618)" fill="#f19da1"/>
            <path id="Trazado_1268455" data-name="Trazado 1268455" d="M66.357,315.165H51.233a.233.233,0,0,1,0-.465H66.357a.233.233,0,0,1,0,.465Z" transform="translate(-51 -310.977)" fill="#f19da1"/>
            <path id="Trazado_1268456" data-name="Trazado 1268456" d="M66.357,316.765H51.233a.233.233,0,1,1,0-.465H66.357a.233.233,0,0,1,0,.465Z" transform="translate(-51 -311.336)" fill="#f19da1"/>
            <path id="Trazado_1268457" data-name="Trazado 1268457" d="M66.357,318.365H51.233a.233.233,0,0,1,0-.465H66.357a.233.233,0,0,1,0,.465Z" transform="translate(-51 -311.695)" fill="#f19da1"/>
            <path id="Trazado_1268458" data-name="Trazado 1268458" d="M66.357,319.865H51.233a.233.233,0,1,1,0-.465H66.357a.233.233,0,0,1,0,.465Z" transform="translate(-51 -312.032)" fill="#f19da1"/>
            <path id="Trazado_1268459" data-name="Trazado 1268459" d="M66.357,321.465H51.233a.233.233,0,1,1,0-.465H66.357a.233.233,0,0,1,0,.465Z" transform="translate(-51 -312.391)" fill="#f19da1"/>
            <path id="Trazado_1268460" data-name="Trazado 1268460" d="M66.357,323.065H51.233a.233.233,0,1,1,0-.465H66.357a.233.233,0,0,1,0,.465Z" transform="translate(-51 -312.75)" fill="#f19da1"/>
            <path id="Trazado_1268461" data-name="Trazado 1268461" d="M66.357,324.665H51.233a.233.233,0,1,1,0-.465H66.357a.233.233,0,0,1,0,.465Z" transform="translate(-51 -313.109)" fill="#f19da1"/>
            <path id="Trazado_1268462" data-name="Trazado 1268462" d="M66.357,326.265H51.233a.233.233,0,1,1,0-.465H66.357a.233.233,0,1,1,0,.465Z" transform="translate(-51 -313.468)" fill="#f19da1"/>
          </g>
        </g>
        <g id="Grupo_1204343" data-name="Grupo 1204343" transform="translate(217.398 207.207)">
          <g id="Grupo_1204338" data-name="Grupo 1204338">
            <path id="Trazado_1268463" data-name="Trazado 1268463" d="M340.221,285.478h38.236a3.45,3.45,0,0,1,2.482,1.008l.155.155a3.656,3.656,0,0,1,.931,2.327h0a3.588,3.588,0,0,1-1.008,2.482h0a3.588,3.588,0,0,1-2.482,1.008H340.3c-.931,0-.931-7.058,0-7.058Z" transform="translate(-305.784 -285.4)" fill="#83d0cd" fill-rule="evenodd"/>
            <path id="Trazado_1268464" data-name="Trazado 1268464" d="M297.784,289.068A1.8,1.8,0,0,1,296,287.284a1.755,1.755,0,0,1,1.784-1.784h42.27a3.45,3.45,0,0,1,2.482,1.008l.155.155a3.656,3.656,0,0,1,.931,2.327h0a3.588,3.588,0,0,1-1.008,2.482h0a3.588,3.588,0,0,1-2.482,1.008h-42.27a1.8,1.8,0,0,1-1.784-1.784,1.755,1.755,0,0,1,1.784-1.784h0Z" transform="translate(-296 -285.422)" fill="#b2dcd4" fill-rule="evenodd"/>
            <path id="Trazado_1268465" data-name="Trazado 1268465" d="M338.441,290.376H298.188a.388.388,0,0,1,0-.776h40.253a.388.388,0,1,1,0,.776Z" transform="translate(-296.404 -286.343)" fill="#83d0cd"/>
          </g>
          <g id="Grupo_1204339" data-name="Grupo 1204339" transform="translate(0 7.213)">
            <path id="Trazado_1268466" data-name="Trazado 1268466" d="M340.221,301.68h38.236a3.45,3.45,0,0,0,2.482-1.008l.155-.155a3.656,3.656,0,0,0,.931-2.327h0a3.588,3.588,0,0,0-1.008-2.482h0a3.588,3.588,0,0,0-2.482-1.008H340.3c-.931,0-.931,7.058,0,7.058Z" transform="translate(-305.784 -294.7)" fill="#e5dbe2" fill-rule="evenodd"/>
            <path id="Trazado_1268467" data-name="Trazado 1268467" d="M297.784,298.213A1.8,1.8,0,0,0,296,300a1.755,1.755,0,0,0,1.784,1.784h42.27a3.45,3.45,0,0,0,2.482-1.008l.155-.155a3.656,3.656,0,0,0,.931-2.327h0a3.588,3.588,0,0,0-1.008-2.482h0a3.588,3.588,0,0,0-2.482-1.008h-42.27a1.8,1.8,0,0,0-1.784,1.784,1.755,1.755,0,0,0,1.784,1.784h0Z" transform="translate(-296 -294.722)" fill="#fff" fill-rule="evenodd"/>
            <path id="Trazado_1268468" data-name="Trazado 1268468" d="M338.441,299.476H298.188a.388.388,0,1,1,0-.776h40.253a.388.388,0,1,1,0,.776Z" transform="translate(-296.404 -295.598)" fill="#e5dbe2"/>
          </g>
          <g id="Grupo_1204340" data-name="Grupo 1204340" transform="translate(0 14.116)">
            <path id="Trazado_1268469" data-name="Trazado 1268469" d="M340.221,303.678h38.236a3.45,3.45,0,0,1,2.482,1.008l.155.155a3.656,3.656,0,0,1,.931,2.327h0a3.588,3.588,0,0,1-1.008,2.482h0a3.588,3.588,0,0,1-2.482,1.008H340.3c-.931,0-.931-7.058,0-7.058Z" transform="translate(-305.784 -303.6)" fill="#f4b1b0" fill-rule="evenodd"/>
            <path id="Trazado_1268470" data-name="Trazado 1268470" d="M297.784,307.268A1.8,1.8,0,0,1,296,305.484a1.755,1.755,0,0,1,1.784-1.784h42.27a3.45,3.45,0,0,1,2.482,1.008l.155.155a3.656,3.656,0,0,1,.931,2.327h0a3.588,3.588,0,0,1-1.008,2.482h0a3.588,3.588,0,0,1-2.482,1.008h-42.27a1.8,1.8,0,0,1-1.784-1.784,1.755,1.755,0,0,1,1.784-1.784h0Z" transform="translate(-296 -303.622)" fill="#f6c4bf" fill-rule="evenodd"/>
            <path id="Trazado_1268471" data-name="Trazado 1268471" d="M338.441,308.576H298.188a.388.388,0,1,1,0-.776h40.253a.388.388,0,1,1,0,.776Z" transform="translate(-296.404 -304.543)" fill="#f19da1"/>
          </g>
          <g id="Grupo_1204341" data-name="Grupo 1204341" transform="translate(0 21.174)">
            <path id="Trazado_1268472" data-name="Trazado 1268472" d="M340.221,312.778h38.236a3.45,3.45,0,0,1,2.482,1.008l.155.155a3.656,3.656,0,0,1,.931,2.327h0a3.588,3.588,0,0,1-1.008,2.482h0a3.588,3.588,0,0,1-2.482,1.008H340.3c-.931,0-.931-7.058,0-7.058Z" transform="translate(-305.784 -312.7)" fill="#83d0cd" fill-rule="evenodd"/>
            <path id="Trazado_1268473" data-name="Trazado 1268473" d="M297.784,316.268A1.8,1.8,0,0,1,296,314.484a1.755,1.755,0,0,1,1.784-1.784h42.27a3.45,3.45,0,0,1,2.482,1.008l.155.155a3.656,3.656,0,0,1,.931,2.327h0a3.588,3.588,0,0,1-1.008,2.482h0a3.588,3.588,0,0,1-2.482,1.008h-42.27a1.8,1.8,0,0,1-1.784-1.784,1.755,1.755,0,0,1,1.784-1.784h0Z" transform="translate(-296 -312.7)" fill="#b2dcd4" fill-rule="evenodd"/>
            <path id="Trazado_1268474" data-name="Trazado 1268474" d="M338.441,317.676H298.188a.388.388,0,0,1,0-.776h40.253a.388.388,0,1,1,0,.776Z" transform="translate(-296.404 -313.643)" fill="#83d0cd"/>
          </g>
          <g id="Grupo_1204342" data-name="Grupo 1204342" transform="translate(0 28.387)">
            <path id="Trazado_1268475" data-name="Trazado 1268475" d="M340.221,328.98h38.236a3.45,3.45,0,0,0,2.482-1.008l.155-.155a3.656,3.656,0,0,0,.931-2.327h0a3.588,3.588,0,0,0-1.008-2.482h0A3.588,3.588,0,0,0,378.535,322H340.3c-.931,0-.931,7.058,0,7.058Z" transform="translate(-305.784 -322)" fill="#e5dbe2" fill-rule="evenodd"/>
            <path id="Trazado_1268476" data-name="Trazado 1268476" d="M297.784,325.513A1.8,1.8,0,0,0,296,327.3a1.755,1.755,0,0,0,1.784,1.784h42.27a3.45,3.45,0,0,0,2.482-1.008l.155-.155a3.656,3.656,0,0,0,.931-2.327h0a3.588,3.588,0,0,0-1.008-2.482h0a3.588,3.588,0,0,0-2.482-1.008h-42.27a1.8,1.8,0,0,0-1.784,1.784,1.755,1.755,0,0,0,1.784,1.784h0Z" transform="translate(-296 -322.022)" fill="#fff" fill-rule="evenodd"/>
            <path id="Trazado_1268477" data-name="Trazado 1268477" d="M338.441,326.676H298.188a.388.388,0,0,1,0-.776h40.253a.388.388,0,1,1,0,.776Z" transform="translate(-296.404 -322.875)" fill="#e5dbe2"/>
          </g>
        </g>
      </g>
    </g>
  </g>
</svg>
