<svg xmlns="http://www.w3.org/2000/svg" width="84" height="84" viewBox="0 0 84 84">
  <g id="Grupo_1204619" data-name="Grupo 1204619" transform="translate(-706.082 -3073.009)">
    <g id="Grupo_1177230" data-name="Grupo 1177230" transform="translate(0.082 1394.089)">
      <g id="Grupo_1119665" data-name="Grupo 1119665" transform="translate(534.111 -3840.08)">
        <rect id="Rectángulo_402006" data-name="Rectángulo 402006" width="84" height="84" rx="5" transform="translate(171.889 5519)" fill="#cdbfdc"/>
      </g>
    </g>
    <g id="tela" transform="translate(698.588 3085.62)">
      <path id="Trazado_1268478" data-name="Trazado 1268478" d="M110.98,139.069a.879.879,0,0,0-1.115.549l-6.574,19.32a2.481,2.481,0,0,1-3.136,1.544l-28.194-9.593a2.481,2.481,0,0,1-1.544-3.136l9.593-28.194a2.481,2.481,0,0,1,3.136-1.544l1.508.513a.879.879,0,0,0,.566-1.665l-1.508-.513a4.239,4.239,0,0,0-5.367,2.642l-8.262,24.283H68.907a2.472,2.472,0,0,1-2.281-1.524.879.879,0,1,0-1.621.681,4.227,4.227,0,0,0,3.9,2.6h.579l-.732,2.152a4.24,4.24,0,0,0,2.642,5.367l28.194,9.593a4.239,4.239,0,0,0,5.367-2.642l6.574-19.32a.879.879,0,0,0-.549-1.115Z" transform="translate(-39.291 -102.559)" fill="#752092"/>
      <path id="Trazado_1268479" data-name="Trazado 1268479" d="M72.616,23.385l-8.99-3.059V17.205h2.18a2.759,2.759,0,0,0,0-5.518h-2.18V8.465a4.234,4.234,0,0,0-4.23-4.23H56.173V2.759a2.759,2.759,0,0,0-5.518,0V4.235H47.264V2.759a2.759,2.759,0,1,0-5.518,0V4.235H38.356V2.759a2.759,2.759,0,1,0-5.518,0V4.235H29.615a4.234,4.234,0,0,0-4.23,4.23v3.223h-2.18a2.759,2.759,0,0,0,0,5.518h2.18V20.6h-2.18a2.759,2.759,0,0,0,0,5.518h2.18v3.391h-2.18a2.759,2.759,0,0,0,0,5.518h2.18v.461a.879.879,0,1,0,1.758,0v-.461h.625a2.759,2.759,0,1,0,0-5.518h-.625V26.114h.625a2.759,2.759,0,1,0,0-5.518h-.625V17.206h.625a2.759,2.759,0,1,0,0-5.518h-.625V8.465a2.474,2.474,0,0,1,2.471-2.471h3.223V7.322a2.759,2.759,0,0,0,5.518,0V5.993h3.391V7.322a2.759,2.759,0,1,0,5.518,0V5.993h3.391V7.322a2.759,2.759,0,1,0,5.518,0V5.993H59.4a2.474,2.474,0,0,1,2.471,2.471v3.223h-.625a2.759,2.759,0,1,0,0,5.518h.625v2.523l-12.037-4.1a.879.879,0,0,0-.566,1.665L72.049,25.05a2.474,2.474,0,0,1,1.544,3.136l-1.685,4.952a.879.879,0,1,0,1.665.566l1.685-4.952a4.235,4.235,0,0,0-2.642-5.367ZM27.769,31.263a1,1,0,1,1,0,2H23.206a1,1,0,0,1,0-2Zm0-8.908a1,1,0,1,1,0,2H23.206a1,1,0,0,1,0-2Zm0-8.909a1,1,0,1,1,0,2H23.206a1,1,0,0,1,0-2ZM36.6,7.322a1,1,0,1,1-2,0V2.759a1,1,0,1,1,2,0Zm8.909,0a1,1,0,1,1-2,0V2.759a1,1,0,1,1,2,0Zm8.908,0a1,1,0,1,1-2,0V2.759a1,1,0,1,1,2,0Zm6.828,8.125a1,1,0,0,1,0-2h4.563a1,1,0,1,1,0,2Z" transform="translate(0 0)" fill="#752092"/>
      <path id="Trazado_1268480" data-name="Trazado 1268480" d="M172.909,249.052a.88.88,0,0,0,.832-.6l.566-1.664a.879.879,0,1,0-1.665-.566l-.566,1.664a.88.88,0,0,0,.832,1.163Z" transform="translate(-133.874 -216.934)" fill="#752092"/>
      <path id="Trazado_1268481" data-name="Trazado 1268481" d="M158.47,293.336a.879.879,0,1,0-1.664-.566l-.566,1.665A.879.879,0,1,0,157.9,295Z" transform="translate(-119.887 -258.041)" fill="#752092"/>
      <path id="Trazado_1268482" data-name="Trazado 1268482" d="M206.809,159.553a.879.879,0,1,0-.589-1.657,3.545,3.545,0,0,0-1.8,1.431.879.879,0,1,0,1.484.943,1.779,1.779,0,0,1,.9-.717Z" transform="translate(-162.361 -139.405)" fill="#752092"/>
      <path id="Trazado_1268483" data-name="Trazado 1268483" d="M188.746,202.508a.88.88,0,0,0,.832-.6l.566-1.664a.879.879,0,1,0-1.665-.566l-.566,1.664a.88.88,0,0,0,.832,1.163Z" transform="translate(-147.861 -175.827)" fill="#752092"/>
      <path id="Trazado_1268484" data-name="Trazado 1268484" d="M188.244,404.689l1.665.566a.879.879,0,1,0,.566-1.665l-1.665-.566a.879.879,0,0,0-.566,1.665Z" transform="translate(-147.668 -355.9)" fill="#752092"/>
      <path id="Trazado_1268485" data-name="Trazado 1268485" d="M234.24,419.409a.879.879,0,0,0,.549,1.116l1.665.566a.879.879,0,1,0,.566-1.665l-1.665-.566A.879.879,0,0,0,234.24,419.409Z" transform="translate(-188.775 -369.886)" fill="#752092"/>
      <path id="Trazado_1268486" data-name="Trazado 1268486" d="M250.928,166.143a.879.879,0,1,0,.566-1.665l-1.664-.566a.879.879,0,1,0-.566,1.665Z" transform="translate(-201.559 -144.722)" fill="#752092"/>
      <path id="Trazado_1268487" data-name="Trazado 1268487" d="M143.991,387.223l.461.157a.879.879,0,1,0,.566-1.665l-.461-.157a1.725,1.725,0,0,1-.7-.451.879.879,0,0,0-1.277,1.209,3.514,3.514,0,0,0,1.415.907Z" transform="translate(-107.65 -339.875)" fill="#752092"/>
      <path id="Trazado_1268488" data-name="Trazado 1268488" d="M141.235,342.141a.88.88,0,0,0,.832-.6l.566-1.664a.879.879,0,1,0-1.664-.566l-.566,1.664a.88.88,0,0,0,.832,1.163Z" transform="translate(-105.901 -299.147)" fill="#752092"/>
      <path id="Trazado_1268489" data-name="Trazado 1268489" d="M327.33,451.082a.879.879,0,0,0,.549,1.116l1.665.566a3.493,3.493,0,0,0,1.126.187h0a3.492,3.492,0,0,0,.579-.048.879.879,0,0,0-.292-1.734,1.741,1.741,0,0,1-.288.024h0a1.739,1.739,0,0,1-.561-.093l-1.665-.566A.879.879,0,0,0,327.33,451.082Z" transform="translate(-270.99 -397.859)" fill="#752092"/>
      <path id="Trazado_1268490" data-name="Trazado 1268490" d="M391.13,211.989l-1.665-.566a.879.879,0,0,0-.566,1.665l1.665.566a.879.879,0,1,0,.566-1.665Z" transform="translate(-324.882 -186.682)" fill="#752092"/>
      <path id="Trazado_1268491" data-name="Trazado 1268491" d="M389.787,371.808l-.566,1.664a.879.879,0,1,0,1.665.566l.566-1.664a.879.879,0,0,0-1.665-.566Z" transform="translate(-325.651 -327.846)" fill="#752092"/>
      <path id="Trazado_1268492" data-name="Trazado 1268492" d="M373.95,418.352l-.566,1.665a.879.879,0,1,0,1.665.566l.566-1.665a.879.879,0,1,0-1.665-.566Z" transform="translate(-311.664 -368.952)" fill="#752092"/>
      <path id="Trazado_1268493" data-name="Trazado 1268493" d="M405.623,325.262l-.566,1.664a.879.879,0,1,0,1.665.566l.566-1.664a.879.879,0,1,0-1.665-.566Z" transform="translate(-339.637 -286.737)" fill="#752092"/>
      <path id="Trazado_1268494" data-name="Trazado 1268494" d="M433.56,234.782l.071,0a.879.879,0,0,0,.875-.809c.007-.092.011-.186.011-.279a3.525,3.525,0,0,0-.586-1.946.879.879,0,0,0-1.468.968,1.772,1.772,0,0,1,.3.978c0,.046,0,.093-.006.139A.879.879,0,0,0,433.56,234.782Z" transform="translate(-363.756 -204.328)" fill="#752092"/>
      <path id="Trazado_1268495" data-name="Trazado 1268495" d="M297.473,181.979a.879.879,0,0,0,.566-1.665l-1.665-.566a.879.879,0,0,0-.566,1.665Z" transform="translate(-242.667 -158.708)" fill="#752092"/>
      <path id="Trazado_1268496" data-name="Trazado 1268496" d="M344.018,197.817a.879.879,0,1,0,.566-1.665l-1.665-.566a.879.879,0,0,0-.566,1.665Z" transform="translate(-283.774 -172.696)" fill="#752092"/>
      <path id="Trazado_1268497" data-name="Trazado 1268497" d="M421.46,278.717l-.566,1.665a.879.879,0,1,0,1.665.566l.566-1.665a.879.879,0,0,0-1.665-.566Z" transform="translate(-353.624 -245.63)" fill="#752092"/>
      <path id="Trazado_1268498" data-name="Trazado 1268498" d="M280.785,435.246a.879.879,0,0,0,.549,1.116l1.665.566a.879.879,0,1,0,.566-1.665L281.9,434.7A.879.879,0,0,0,280.785,435.246Z" transform="translate(-229.883 -383.872)" fill="#752092"/>
    </g>
  </g>
</svg>
